<svg version="1.1" id="Layer_1" xmlns="http://www.w3.org/2000/svg" xmlns:xlink="http://www.w3.org/1999/xlink" x="0px" y="0px"
	 viewBox="0 0 125 125" enable-background="new 0 0 125 125" xml:space="preserve">
<path d="M62.5,7C31.9,7,7,31.9,7,62.5S31.9,118,62.5,118S118,93.1,118,62.5S93.1,7,62.5,7 M62.5,0C97,0,125,28,125,62.5
	S97,125,62.5,125S0,97,0,62.5S28,0,62.5,0z"/>
<path d="M63.4,54.2c3.3-8.2-0.7-17.4-8.9-20.7C50.8,32,46.7,32,43,33.4l6.9,7.1c2.5,2.6,2.4,6.6-0.2,9.1c-2.5,2.4-6.5,2.4-9-0.1
	l-6.9-7.1c-3.3,8.2,0.7,17.4,8.9,20.7c3.7,1.5,7.8,1.5,11.5,0.1l27,27.5c2.5,2.5,6.6,2.6,9.1,0.1c2.5-2.5,2.6-6.6,0.1-9.1l0,0
	L63.4,54.2z"/>
</svg>
