<svg version="1.1" id="Layer_1" xmlns="http://www.w3.org/2000/svg" xmlns:xlink="http://www.w3.org/1999/xlink" x="0px" y="0px"
	 viewBox="0 0 144 144" enable-background="new 0 0 144 144" xml:space="preserve">
<path d="M72,0C32.2,0,0,32.2,0,72c0,39.8,32.2,72,72,72s72-32.2,72-72C144,32.2,111.8,0,72,0z M72.8,137v-21.8l20-20
	c4.4,3.6,10.9,3.3,14.9-0.8c4-4.1,7.1-20,7.4-21.8c0.1-0.4-0.1-0.8-0.3-1.1c-0.3-0.3-0.7-0.4-1.1-0.3c-1.8,0.3-17.8,3.3-21.8,7.4
	c-4.1,4-4.4,10.5-0.8,14.9l-18.2,18.2V68.6c8.4-0.7,14.9-7.7,15-16.1c0-8.5-14.6-29.7-15.2-30.6c-0.4-0.6-1.2-0.7-1.8-0.2
	c-0.1,0.1-0.2,0.1-0.2,0.2c-0.6,0.9-15.2,22.1-15.2,30.6c0,8.5,6.5,15.5,15,16.1v30.7L52.1,81.1c3.6-4.4,3.3-10.9-0.8-14.9
	c-4.1-4.1-20-7.1-21.8-7.4c-0.4-0.1-0.8,0.1-1.1,0.3c-0.3,0.3-0.4,0.7-0.3,1.1C28.4,62,31.4,78,35.4,82c4,4.1,10.5,4.4,14.9,0.8
	l20,20V137C35.2,136.1,7,107.3,7,72C7,36.2,36.2,7,72,7s65,29.2,65,65C137,107.6,108.3,136.5,72.8,137z"/>
</svg>
