<svg version="1.1" id="Layer_1" xmlns="http://www.w3.org/2000/svg" xmlns:xlink="http://www.w3.org/1999/xlink" x="0px" y="0px"
	 viewBox="0 0 125 125" enable-background="new 0 0 125 125" xml:space="preserve">
<path d="M96.7,72.9L75.2,89H47.8l-5.9,5.9L26.2,79l13-13c0.9-1,2.2-1.6,3.5-1.6h29.4c2.6,0,4.7,2.1,4.7,4.7c0,2.6-2.1,4.7-4.7,4.7
	h-14c-0.8,0-1.5,0.7-1.5,1.5c0,0.8,0.7,1.4,1.5,1.5h17.2c0.4,0,0.8-0.2,1.1-0.5l15.8-10.5c2-1.3,4.6-0.7,5.9,1.3
	c0,0.1,0.1,0.1,0.1,0.2C99.4,69.3,98.7,71.7,96.7,72.9z"/>
<path d="M85.2,42.2v-7.4L80,33.8c-0.3-0.9-0.6-1.7-1.1-2.6l3.1-4.3l-5.3-5.3l-4.3,3.1c-0.8-0.4-1.7-0.8-2.6-1.1l-0.9-5.2h-7.4
	l-0.9,5.2c-0.9,0.3-1.7,0.6-2.6,1.1l-4.3-3.1l-5.3,5.3l3.1,4.3c-0.4,0.8-0.8,1.7-1.1,2.6l-5.2,0.9v7.4l5.2,0.9
	c0.3,0.9,0.6,1.7,1.1,2.6L48.4,50l5.3,5.3l4.3-3.1c0.8,0.4,1.7,0.8,2.6,1.1l0.9,5.2h7.4l0.9-5.2c0.9-0.3,1.7-0.6,2.6-1.1l4.3,3.1
	L82,50l-3.1-4.3c0.4-0.8,0.8-1.7,1.1-2.6L85.2,42.2z M65.2,45c-3.6,0-6.6-3-6.6-6.6c0-3.6,3-6.6,6.6-6.6c3.6,0,6.6,3,6.6,6.6
	S68.9,45,65.2,45L65.2,45z"/>
<path d="M62.5,7C31.9,7,7,31.9,7,62.5S31.9,118,62.5,118S118,93.1,118,62.5S93.1,7,62.5,7 M62.5,0C97,0,125,28,125,62.5
	S97,125,62.5,125S0,97,0,62.5S28,0,62.5,0z"/>
</svg>
