<svg version="1.1" id="Layer_1" xmlns="http://www.w3.org/2000/svg" xmlns:xlink="http://www.w3.org/1999/xlink" x="0px" y="0px"
	 viewBox="0 0 112 128" enable-background="new 0 0 112 128" xml:space="preserve">
<g>
	<path d="M75.9,16.6c0,0-1.4,0.4-3.7,1.1c-0.4-1.3-1-2.8-1.8-4.4c-2.6-5-6.5-7.7-11.1-7.7l0,0c-0.3,0-0.6,0-1,0.1
		c-0.1-0.2-0.3-0.3-0.4-0.5c-2-2.2-4.6-3.2-7.7-3.1c-6,0.2-12,4.5-16.8,12.2c-3.4,5.4-6,12.2-6.7,17.5c-6.9,2.1-11.7,3.6-11.8,3.7
		c-3.5,1.1-3.6,1.2-4,4.5c-0.3,2.5-9.5,72.9-9.5,72.9L77,126V16.5C76.4,16.5,76.1,16.6,75.9,16.6z M58.3,22c-4,1.2-8.4,2.6-12.7,3.9
		c1.2-4.7,3.6-9.4,6.4-12.5c1.1-1.1,2.6-2.4,4.3-3.2C58,13.8,58.5,18.7,58.3,22z M50.1,6.2c1.4,0,2.6,0.3,3.6,0.9
		c-1.6,0.8-3.2,2.1-4.7,3.6c-3.8,4.1-6.7,10.5-7.9,16.6c-3.6,1.1-7.2,2.2-10.5,3.2C32.8,20.9,41,6.4,50.1,6.2z M38.5,61.2
		C39,67.6,55.8,69,56.8,84.1c0.7,11.9-6.3,20-16.4,20.6c-12.2,0.8-18.9-6.4-18.9-6.4l2.6-11c0,0,6.7,5.1,12.1,4.7
		c3.5-0.2,4.8-3.1,4.7-5.1c-0.5-8.4-14.3-7.9-15.2-21.7c-0.8-11.6,6.8-23.3,23.6-24.4c6.5-0.4,9.8,1.2,9.8,1.2l-3.8,14.4
		c0,0-4.3-2-9.4-1.6C38.5,55.3,38.5,60,38.5,61.2z M62.3,20.8c0-3-0.4-7.3-1.8-10.9c4.6,0.9,6.8,6,7.8,9.1
		C66.6,19.5,64.6,20.1,62.3,20.8z"/>
	<path d="M79.2,125.8l31.4-7.8c0,0-13.5-91.3-13.6-91.9c-0.1-0.6-0.6-1-1.1-1s-9.3-0.2-9.3-0.2s-5.4-5.2-7.4-7.2V125.8z"/>
</g>
</svg>
