<svg version="1.1" id="Layer_1" xmlns="http://www.w3.org/2000/svg" xmlns:xlink="http://www.w3.org/1999/xlink" x="0px" y="0px"
	 viewBox="0 0 34 34" enable-background="new 0 0 34 34" xml:space="preserve">
<g>
	<path d="M15,1c1.3,0,2.7,0,4,0c0,7.7,0,15.3,0,24.5c3.6-3.7,6.2-6,8.3-8.8c1.9-2.4,3.6-2.1,5.7-0.8c0,0.7,0,1.3,0,2
		c-5,5-10,10-15,15c-0.3,0-0.7,0-1,0C11.7,27.7,6.3,22.3,1,17c0-0.3,0-0.7,0-1c2.1-1.4,3.9-1.6,5.7,0.8c2.2,2.8,4.8,5.2,7.3,7.8
		c0.3-0.2,0.7-0.5,1-0.7C15,16.2,15,8.6,15,1z"/>
</g>
</svg>
