<?xml version="1.0" encoding="utf-8"?>
<!-- Generator: Adobe Illustrator 19.0.0, SVG Export Plug-In . SVG Version: 6.00 Build 0)  -->
<svg version="1.1" xmlns="http://www.w3.org/2000/svg" xmlns:xlink="http://www.w3.org/1999/xlink" x="0px" y="0px"
	 viewBox="0 0 29 32" style="enable-background:new 0 0 29 32;" xml:space="preserve">
<g id="Layer_1">
</g>
<g id="_x31_600">
	<g id="XMLID_8_">
		<path id="XMLID_9_"  d="M22.6,11.6c-2.9-0.2-4,2.8-4.3,2.8c-0.4,0-0.1-2.5-1.5-6c1.1-1.9,1.4-4.3,1.4-4.3
			l-1.3-0.9c0.1,1.1-0.2,2.5-0.7,3.8c-1.9-3.7-4.9-5.1-7.4-5.1C6.1,2,4.9,4.1,4.9,4.1S4.3,3,3.8,2.2C3.4,1.3,1.6,2,2,2.9
			c0.4,1,2.8,5.6,3.2,6c0.3,0.3,1.5,0,1.5-0.4C6.6,8.1,6.4,5.6,8,4.8c0.7-0.3,1.8-0.4,3-0.1c-1.6,2.1-0.7,5.9,2.6,5.8
			c0.9,0,1.6-0.4,2.2-1.1c1,2.5,1.2,5,0.7,5c-0.6,0.1-1.5-1.5-3.3-1.8c-1.8-0.3-4.9,0.8-4.6,4.3c0.3,3.6,5.5,4.9,6.7,6.5
			c1.1,1.6-0.6,4-2.9,4.1c-2.3,0.1-4.6-1.8-5.2-2.3c-0.6-0.5-2,0.1-1.1,1.2c0.9,1.1,3.5,3.6,9,3.7c5.5,0.1,10.2-5.3,11.5-10.2
			C28,15.1,25.5,11.7,22.6,11.6z M14.3,9.3c-1.7,1-3.2-1.1-2.1-2.3c0.7-0.8,1.7-0.5,2.2-0.3c0.3,0.3,0.5,0.6,0.7,1
			c0.1,0.2,0.2,0.4,0.3,0.6C15.1,8.7,14.7,9,14.3,9.3z"/>
	</g>
</g>
</svg>
