<?xml version="1.0" encoding="utf-8"?>
<!-- Generator: Adobe Illustrator 19.0.0, SVG Export Plug-In . SVG Version: 6.00 Build 0)  -->
<svg version="1.1" id="Layer_1" xmlns="http://www.w3.org/2000/svg" xmlns:xlink="http://www.w3.org/1999/xlink" x="0px" y="0px"
	 viewBox="0 0 474.9 111.7" style="enable-background:new 0 0 474.9 111.7;" xml:space="preserve">
<g>
	<path style="fill:#8DC63F;" d="M140.9,64.9c0,2.5,0,4.8-1.6,6.9c-1.5,1.9-3.8,2.8-6.2,2.8c-4.5,0-7.8-2.8-7.9-7.3h2.7
		c0,3,2.2,4.8,5.1,4.8c4.2,0,5.1-3.1,5.1-6.7v-1.9h-0.1c-1.3,1.7-3.4,2.7-5.5,2.7c-4.7,0-7.6-3.9-7.6-8.4c0-4.5,3-8.5,7.7-8.5
		c2.2,0,4.1,1,5.4,2.7h0.1v-2.3h2.7V64.9z M127.8,57.5c0,3.1,1.8,6.1,5.2,6.1c3.5,0,5.3-2.8,5.3-6.1c0-3.2-2-5.8-5.4-5.8
		C129.8,51.8,127.8,54.5,127.8,57.5z"/>
	<path style="fill:#8DC63F;" d="M148.2,51.4L148.2,51.4c1-1.3,1.8-2.2,3.6-2.2c0.9,0,1.7,0.3,2.4,0.7l-1.3,2.5
		c-0.5-0.4-0.9-0.7-1.6-0.7c-3,0-3.1,3.8-3.1,5.9v8h-2.7v-16h2.7V51.4z"/>
	<path style="fill:#8DC63F;" d="M157.7,58.3c0,3,2.1,5.3,5.2,5.3c2.3,0,3.8-1.4,4.9-3.3l2.3,1.3c-1.5,2.9-4.1,4.5-7.4,4.5
		c-4.8,0-7.8-3.6-7.8-8.2c0-4.7,2.8-8.6,7.8-8.6c5.1,0,7.9,4.2,7.6,9H157.7z M167.4,55.9c-0.4-2.3-2.3-4.2-4.7-4.2
		c-2.3,0-4.5,1.9-4.9,4.2H167.4z"/>
	<path style="fill:#8DC63F;" d="M174.7,58.3c0,3,2.1,5.3,5.2,5.3c2.3,0,3.8-1.4,4.9-3.3l2.3,1.3c-1.5,2.9-4.1,4.5-7.4,4.5
		c-4.8,0-7.8-3.6-7.8-8.2c0-4.7,2.8-8.6,7.8-8.6c5.1,0,7.9,4.2,7.6,9H174.7z M184.4,55.9c-0.4-2.3-2.3-4.2-4.7-4.2
		c-2.3,0-4.5,1.9-4.9,4.2H184.4z"/>
	<path style="fill:#8DC63F;" d="M192.5,51.6L192.5,51.6c1.2-1.5,2.7-2.4,4.6-2.4c4.4,0,5.4,3.2,5.4,6.9v9.5h-2.7v-9
		c0-2.6-0.2-4.9-3.4-4.9c-3.7,0-4,3.5-4,6.3v7.6h-2.7v-16h2.7V51.6z"/>
	<path style="fill:#056839;" d="M213.5,53.4c-0.4-0.8-1.2-1.6-2.2-1.6c-1,0-2,0.7-2,1.8c0,1.5,1.8,2,3.7,2.8s3.7,1.9,3.7,4.6
		c0,3-2.4,5.2-5.4,5.2c-2.7,0-4.8-1.5-5.6-4l2.4-1c0.7,1.5,1.5,2.5,3.3,2.5c1.5,0,2.6-1,2.6-2.4c0-3.6-7.2-2.3-7.2-7.4
		c0-2.7,2.2-4.5,4.8-4.5c1.8,0,3.5,1.3,4.2,3L213.5,53.4z"/>
	<path style="fill:#056839;" d="M222.7,37.6v13.9l0.1,0.1c1.1-1.5,2.6-2.4,4.6-2.4c4.4,0,5.4,3.2,5.4,6.9v9.5h-2.7v-9
		c0-2.6-0.2-4.9-3.4-4.9c-3.7,0-4,3.5-4,6.3v7.6H220v-28H222.7z"/>
	<path style="fill:#056839;" d="M239.9,51.4L239.9,51.4c1-1.3,1.8-2.2,3.6-2.2c0.9,0,1.7,0.3,2.4,0.7l-1.3,2.5
		c-0.5-0.4-0.9-0.7-1.6-0.7c-3,0-3.1,3.8-3.1,5.9v8h-2.7v-16h2.7V51.4z"/>
	<path style="fill:#056839;" d="M246.6,57.7c0-4.7,3.7-8.5,8.4-8.5s8.4,3.8,8.4,8.5c0,4.7-3.7,8.4-8.4,8.4S246.6,62.4,246.6,57.7z
		 M249.3,57.7c0,3.3,2.3,5.9,5.7,5.9s5.7-2.7,5.7-5.9c0-3.2-2.3-5.9-5.7-5.9S249.3,54.4,249.3,57.7z"/>
	<path style="fill:#056839;" d="M269.1,52L269.1,52c1.4-1.8,3.4-2.7,5.6-2.7c4.7,0,7.6,4,7.6,8.5c0,4.6-2.9,8.4-7.7,8.4
		c-2.2,0-4.2-1-5.5-2.7h-0.1v11.2h-2.7v-25h2.7V52z M269,57.5c0,3.1,1.8,6.1,5.2,6.1c3.5,0,5.3-2.8,5.3-6.1c0-3.2-2-5.8-5.4-5.8
		C271,51.8,269,54.5,269,57.5z"/>
	<path style="fill:#056839;" d="M291.9,53.4c-0.4-0.8-1.2-1.6-2.2-1.6c-1,0-2,0.7-2,1.8c0,1.5,1.8,2,3.7,2.8s3.7,1.9,3.7,4.6
		c0,3-2.4,5.2-5.4,5.2c-2.7,0-4.8-1.5-5.6-4l2.4-1c0.7,1.5,1.5,2.5,3.3,2.5c1.5,0,2.6-1,2.6-2.4c0-3.6-7.2-2.3-7.2-7.4
		c0-2.7,2.2-4.5,4.8-4.5c1.8,0,3.5,1.3,4.3,3L291.9,53.4z"/>
	<path style="fill:#056839;" d="M301.1,37.6v13.9l0.1,0.1c1.1-1.5,2.6-2.4,4.6-2.4c4.4,0,5.4,3.2,5.4,6.9v9.5h-2.7v-9
		c0-2.6-0.2-4.9-3.4-4.9c-3.7,0-4,3.5-4,6.3v7.6h-2.7v-28H301.1z"/>
	<path style="fill:#056839;" d="M319.5,43.7c0,1.1-0.9,1.9-1.9,1.9c-1.1,0-1.9-0.8-1.9-1.9c0-1.1,0.9-1.9,1.9-1.9
		C318.6,41.7,319.5,42.6,319.5,43.7z M318.9,65.7h-2.7v-16h2.7V65.7z"/>
	<path style="fill:#056839;" d="M327.4,51.4L327.4,51.4c1-1.3,1.8-2.2,3.6-2.2c0.9,0,1.7,0.3,2.4,0.7l-1.3,2.5
		c-0.5-0.4-0.9-0.7-1.6-0.7c-3,0-3.1,3.8-3.1,5.9v8h-2.7v-16h2.7V51.4z"/>
	<path style="fill:#056839;" d="M336.9,58.3c0,3,2.1,5.3,5.2,5.3c2.3,0,3.8-1.4,4.9-3.3l2.3,1.3c-1.5,2.9-4.1,4.5-7.4,4.5
		c-4.8,0-7.8-3.6-7.8-8.2c0-4.7,2.8-8.6,7.8-8.6c5.1,0,7.9,4.2,7.6,9H336.9z M346.6,55.9c-0.4-2.3-2.3-4.2-4.7-4.2
		c-2.3,0-4.5,1.9-4.9,4.2H346.6z"/>
	<path style="fill:#8DC63F;" d="M351,49.7h3.3l4.2,5.4l4.2-5.4h3.4l-5.8,7.5l6.6,8.5h-3.3l-5.1-6.5l-5.1,6.5H350l6.8-8.5L351,49.7z"
		/>
	<path style="fill:#8DC63F;" d="M380.7,54.4L380.7,54.4c-1.3-1.6-2.9-2.7-5-2.7c-3.3,0-5.6,2.7-5.6,5.9c0,3.2,2.2,5.9,5.5,5.9
		c2.3,0,3.9-1,5.2-2.8h0.1v3.6c-1.6,1.1-3.2,1.6-5.1,1.6c-4.8,0-8.5-3.6-8.5-8.4c0-4.8,3.8-8.4,8.5-8.4c1.7,0,3.5,0.6,4.9,1.6V54.4z
		"/>
	<path style="fill:#8DC63F;" d="M387.1,37.6v13.9l0.1,0.1c1.1-1.5,2.6-2.4,4.6-2.4c4.4,0,5.4,3.2,5.4,6.9v9.5h-2.7v-9
		c0-2.6-0.2-4.9-3.4-4.9c-3.7,0-4,3.5-4,6.3v7.6h-2.7v-28H387.1z"/>
	<path style="fill:#8DC63F;" d="M416.3,65.7h-2.7v-2.2h-0.1c-1.4,1.8-3.3,2.7-5.5,2.7c-4.7,0-7.6-4-7.6-8.4c0-4.6,2.9-8.5,7.7-8.5
		c2.2,0,4.1,1,5.5,2.7h0.1v-2.3h2.7V65.7z M403.1,57.5c0,3.1,1.8,6.1,5.2,6.1c3.5,0,5.3-2.8,5.3-6.1c0-3.2-2-5.8-5.4-5.8
		C405.2,51.8,403.1,54.5,403.1,57.5z"/>
	<path style="fill:#8DC63F;" d="M423.4,51.6L423.4,51.6c1.2-1.5,2.7-2.4,4.6-2.4c4.4,0,5.4,3.2,5.4,6.9v9.5h-2.7v-9
		c0-2.6-0.2-4.9-3.4-4.9c-3.7,0-4,3.5-4,6.3v7.6h-2.7v-16h2.7V51.6z"/>
	<path style="fill:#8DC63F;" d="M452.4,64.9c0,2.5,0,4.8-1.6,6.9c-1.5,1.9-3.8,2.8-6.2,2.8c-4.5,0-7.8-2.8-7.9-7.3h2.7
		c0,3,2.2,4.8,5.1,4.8c4.2,0,5.1-3.1,5.1-6.7v-1.9h-0.1c-1.3,1.7-3.4,2.7-5.5,2.7c-4.7,0-7.6-3.9-7.6-8.4c0-4.5,3-8.5,7.7-8.5
		c2.2,0,4.1,1,5.4,2.7h0.1v-2.3h2.7V64.9z M439.2,57.5c0,3.1,1.8,6.1,5.2,6.1c3.5,0,5.3-2.8,5.3-6.1c0-3.2-2-5.8-5.4-5.8
		C441.3,51.8,439.2,54.5,439.2,57.5z"/>
	<path style="fill:#8DC63F;" d="M458.4,58.3c0,3,2.1,5.3,5.2,5.3c2.3,0,3.8-1.4,4.9-3.3l2.3,1.3c-1.5,2.9-4.1,4.5-7.4,4.5
		c-4.8,0-7.8-3.6-7.8-8.2c0-4.7,2.8-8.6,7.8-8.6c5.1,0,7.9,4.2,7.6,9H458.4z M468.1,55.9c-0.4-2.3-2.3-4.2-4.7-4.2
		c-2.3,0-4.5,1.9-4.9,4.2H468.1z"/>
</g>
<g>
	<path style="fill:#97CA4F;" d="M55.2,23.2c5.4-3.1,11.7-4.9,18.5-4.9c5.6,0,10.8,1.2,15.6,3.4C83.3,8.9,70.4,0,55.3,0
		C40,0,26.9,9.2,21.1,22.4c4.9-2.4,10.4-3.7,16.2-3.7C43.8,18.7,49.9,20.3,55.2,23.2z"/>
	<path style="fill:#97CA4F;" d="M111,55.7c0-15.1-8.9-28-21.7-33.9c2.2,4.7,3.4,10,3.4,15.6c0,7.1-2,13.7-5.4,19.4
		c2.8,5.2,4.4,11.2,4.4,17.6c0,5.6-1.3,11-3.5,15.7C101.6,84.4,111,71.1,111,55.7z"/>
	<path style="fill:#4AB849;" d="M55.2,23.2c7.3,4,13.1,10.3,16.4,18c6.6,3.5,12.1,8.9,15.6,15.5c3.4-5.6,5.4-12.3,5.4-19.4
		c0-5.6-1.2-10.8-3.4-15.6c-4.7-2.2-10-3.4-15.6-3.4C67,18.3,60.7,20.1,55.2,23.2z"/>
	<path style="fill:#97CA4F;" d="M22.4,55C19.6,49.7,18,43.7,18,37.3c0-5.3,1.1-10.4,3.1-15C8.6,28.4,0,41.2,0,56
		c0,14.4,8.1,26.8,20,33.1c-1.9-4.5-3-9.5-3-14.7C17,67.2,19,60.6,22.4,55z"/>
	<path style="fill:#4AB849;" d="M22.4,55c4.1-6.7,10.1-12,17.4-15c3.3-7,8.7-12.9,15.4-16.7c-5.3-2.9-11.4-4.6-17.9-4.6
		c-5.8,0-11.3,1.3-16.2,3.7c-2,4.6-3.1,9.7-3.1,15C18,43.7,19.6,49.7,22.4,55z"/>
	<path style="fill:#11B04C;" d="M71.6,41.3c-3.3-7.7-9.1-14-16.4-18c-6.7,3.8-12.1,9.7-15.4,16.7C44.3,38,49.2,37,54.3,37
		C60.6,37,66.5,38.5,71.6,41.3z"/>
	<path style="fill:#97CA4F;" d="M55.8,88.4c-5.4,3.1-11.7,4.9-18.5,4.9c-6.2,0-12.1-1.5-17.3-4.3c5.7,13.3,18.9,22.6,34.3,22.6
		c15,0,27.9-8.8,33.9-21.6C83.7,92,78.8,93,73.7,93C67.2,93,61.1,91.3,55.8,88.4z"/>
	<path style="fill:#4AB849;" d="M87.2,56.7C83.5,62.9,78,67.8,71.5,71c-3.2,7.4-8.8,13.5-15.7,17.5c5.3,2.9,11.4,4.6,17.9,4.6
		c5.2,0,10.1-1,14.5-2.9c2.2-4.8,3.5-10.1,3.5-15.7C91.7,68,90.1,62,87.2,56.7z"/>
	<path style="fill:#11B04C;" d="M71.6,41.3c1.9,4.5,3,9.5,3,14.7c0,5.3-1.1,10.4-3.1,15c6.5-3.1,12-8.1,15.7-14.3
		C83.7,50.1,78.3,44.7,71.6,41.3z"/>
	<path style="fill:#4AB849;" d="M55.8,88.4c-7-3.8-12.7-9.9-16-17.2c-7.4-3.4-13.5-9.2-17.3-16.3C19,60.6,17,67.2,17,74.3
		c0,5.2,1.1,10.2,3,14.7c5.2,2.7,11.1,4.3,17.3,4.3C44,93.3,50.3,91.6,55.8,88.4z"/>
	<path style="fill:#11B04C;" d="M39.8,39.9c-7.3,3.1-13.3,8.4-17.4,15c3.8,7.1,9.9,12.9,17.3,16.3c-2.2-4.7-3.4-10-3.4-15.6
		C36.3,50,37.6,44.7,39.8,39.9z"/>
	<path style="fill:#11B04C;" d="M39.7,71.3c3.4,7.3,9,13.4,16,17.2c7-4,12.5-10.1,15.7-17.5c-4.9,2.4-10.4,3.7-16.2,3.7
		C49.8,74.7,44.5,73.4,39.7,71.3z"/>
	<path style="fill:#12B04D;" d="M71.6,41.3C66.5,38.5,60.6,37,54.3,37c-5.2,0-10.1,1-14.5,2.9c-2.2,4.8-3.5,10.1-3.5,15.7
		c0,5.6,1.2,10.8,3.4,15.6c4.7,2.2,10,3.4,15.6,3.4c5.8,0,11.3-1.3,16.2-3.7c2-4.6,3.1-9.7,3.1-15C74.7,50.8,73.6,45.8,71.6,41.3z"
		/>
</g>
<g>
	<path style="fill:#FFFFFF;" d="M45.8,56.6v1.3c0,9.3-6.6,16.5-16.1,16.5s-17.1-8.2-17.1-17.6C12.6,47,20.4,39,30.2,39
		c5.3,0,10.5,2.4,13.8,6.6l-3,2.8c-2.4-3.3-6.5-5.5-10.7-5.5c-7.6,0-13.5,6.2-13.5,13.8c0,7.1,5.8,13.9,13.2,13.9
		c5.3,0,10.9-4.5,11.1-10.1h-8.8v-3.9H45.8z"/>
	<path style="fill:#FFFFFF;" d="M65.8,46.2c-1.3-2.1-2.9-3.2-5.4-3.2c-2.7,0-5.7,1.8-5.7,4.8c0,2.7,2.6,4,4.7,4.9l2.4,0.9
		c4.8,1.9,8.4,4.5,8.4,10.2c0,6.2-4.8,10.6-10.8,10.6c-5.5,0-9.8-4-10.5-9.5l4.3-0.9c0,3.7,2.9,6.4,6.6,6.4c3.6,0,6.3-3.1,6.3-6.6
		c0-3.6-2.9-5.2-5.8-6.4l-2.3-1c-3.9-1.7-7.4-3.9-7.4-8.6c0-5.5,4.9-8.8,10-8.8c3.8,0,6.9,1.8,8.7,5.1L65.8,46.2z"/>
	<path style="fill:#FFFFFF;" d="M73.6,39.7h4.8l6.9,12.4l7.4-12.4h4.8l-9.8,16.2l10.3,17.8h-4.7l-8-13.9L77,73.7h-4.7l10.7-17.8
		L73.6,39.7z"/>
</g>
</svg>
