<?xml version="1.0" encoding="utf-8"?>
<!-- Generator: Adobe Illustrator 19.0.0, SVG Export Plug-In . SVG Version: 6.00 Build 0)  -->
<svg version="1.1" id="Layer_1" xmlns="http://www.w3.org/2000/svg" xmlns:xlink="http://www.w3.org/1999/xlink" x="0px" y="0px"
	 viewBox="-4743 245 512 512" style="enable-background:new -4743 245 512 512;" xml:space="preserve">
<path d="M-4255.1,732.8l23.2-100.8c3.4-14.7-4.2-29.8-18.1-35.7l-108.5-46.5c-12.7-5.5-27.7-1.8-36.5,8.9l-44.1,53.9
	c-69.2-34-125.6-90.3-159.6-159.6l53.9-44.1c10.7-8.8,14.4-23.8,8.9-36.5l-46.5-108.5c-6-13.9-21-21.5-35.8-18.1l-100.8,23.2
	c-14.3,3.3-24.2,15.8-24.2,30.5c0,252.2,204.2,457.5,457.5,457.5C-4270.9,757-4258.3,747-4255.1,732.8z M-4711,300.1l99.6-23
	l46,107.4l-72.8,59.5c48.6,103.6,104.9,159.7,208.1,208.1l59.5-72.8l107.4,46l-23,99.6C-4520.7,724.7-4710.7,534.6-4711,300.1z"/>
</svg>
