<?xml version="1.0" encoding="utf-8"?><svg id="Layer_1" data-name="Layer 1" xmlns="http://www.w3.org/2000/svg" viewBox="0 0 810 220"><defs><style>.cls-1{fill:#231f20;}.cls-2{fill:#1daa4b;}</style></defs><title>Artboard 1</title><path d="M334.16,195.12c-14.47,0-26.82-5.91-31.91-14.27a16.23,16.23,0,0,0-2.5,8.49c0,12.57,15.4,22.76,34.41,22.76s34.41-10.19,34.41-22.76a16.33,16.33,0,0,0-2.5-8.49C361,189.21,348.62,195.12,334.16,195.12Z"/><path class="cls-1" d="M334.16,190.76c12.46,0,23.35-4.4,29.39-11-.42-7.13-4.3-23.62-29.51-36.94-26,14.29-29.17,30.16-29.19,37C310.89,186.4,321.74,190.76,334.16,190.76Z"/><ellipse cx="334.5" cy="210" rx="4.84" ry="6.25"/><path class="cls-1" d="M33,133.29V100.73h3.48v29.51H67.2v3Z"/><path class="cls-1" d="M75.6,133.29V100.73h34.25v3H79.08v9.76h30.77v3H79.08v13.72h30.77v3Z"/><path class="cls-1" d="M120.33,133.29V100.73h3.48v32.56Z"/><path class="cls-1" d="M154.73,134.16c-11.12,0-21.79-5-21.79-17.15,0-12.37,11.25-17.15,21.79-17.15,6.32,0,12,1,17,3.33l-.87,3A39.46,39.46,0,0,0,155,102.9c-10.05,0-18.36,4.35-18.36,14.15s8.55,14.06,18.31,14.06a36.47,36.47,0,0,0,13.09-2.17V118h3.48v12.9A40.51,40.51,0,0,1,154.73,134.16Z"/><path class="cls-1" d="M217.28,133.29V116.48H185.83v16.81h-3.47V100.73h3.47v12.7h31.45v-12.7h3.48v32.56Z"/><path class="cls-1" d="M245.88,133.29V100.73h3.48v29.51h30.72v3Z"/><path class="cls-1" d="M325.2,133.29l-5-8.12h-26l-5,8.12H285l20.91-33.24h2.71l20.87,33.24Zm-18-29.23-11.16,18.07h22.27Z"/><path class="cls-1" d="M367,134H364l-8.65-13.81L346.84,134h-3L323,100.73h4.3l18,29.27,8-13-10.14-16.23h4.3l7.92,12.94,8-12.94h4.2l-10.14,16.18,8,13.09,18.06-29.27h4.21Z"/><path class="cls-1" d="M427,133.29,413.16,118.7H399.3v14.59h-3.48V100.73h26.76c5.41,0,9.91,2.89,9.91,8.69,0,6.23-4.69,9.23-9.91,9.23h-5l14.05,14.64Zm-5.07-29.57H399.3V115.8h23.09c2.66,0,6.62-1.35,6.62-6.33C429,105.65,425.87,103.72,421.91,103.72Z"/><path class="cls-1" d="M448.09,133.29h-4.93l13.62-13.67-18-18.89h4.88l15.56,16.47,16.47-16.47h4.93Z"/><path class="cls-1" d="M35.7,156.87,3.09,206.16H19.68l5.44-8.7H59.48l5.29,8.7h17L49.18,156.87Zm-4.49,30.3,11.16-18,11,18Z"/><path class="cls-1" d="M118.09,196.81c-14.49-.08-23.48-5.44-23.48-15s8.55-15.07,23.48-15.07A62.6,62.6,0,0,1,143.32,172l2.75-10.37c-9-4.06-18.19-5.58-29.21-5.58-15.51,0-36.46,5.73-36.46,25.73,0,18.77,17.91,25.73,36.46,25.73,12,0,20.51-2,29.28-5.58l-2.75-10.22A63.25,63.25,0,0,1,118.09,196.81Z"/><path class="cls-1" d="M186,196.81c-14.5-.08-23.49-5.44-23.49-15s8.56-15.07,23.49-15.07A62.56,62.56,0,0,1,211.21,172L214,161.58c-9-4.06-18.19-5.58-29.2-5.58-15.51,0-36.46,5.73-36.46,25.73,0,18.77,17.9,25.73,36.46,25.73,12,0,20.51-2,29.28-5.58l-2.76-10.22A63.2,63.2,0,0,1,186,196.81Z"/><polygon class="cls-1" points="428.81 185.43 377.86 156.29 376.05 156.29 376.05 206.16 389.67 206.16 389.67 177.89 440.77 207.17 442.44 207.17 442.44 157.3 428.81 157.3 428.81 185.43"/><polygon class="cls-1" points="516.42 157.3 448.36 157.3 448.36 168.18 475.61 168.18 475.61 206.16 489.17 206.16 489.17 168.18 516.42 168.18 516.42 157.3"/><path class="cls-1" d="M536,156.87l-32.61,49.29H520l5.43-8.7h34.36l5.29,8.7h17l-32.54-49.29Zm-4.49,30.3,11.16-18,11,18Z"/><polygon class="cls-1" points="640.76 181.57 589.8 156.29 587.99 156.29 587.99 206.16 601.62 206.16 601.62 177.89 652.72 207.17 654.38 207.17 654.38 157.3 640.76 153.45 640.76 181.57"/><path class="cls-1" d="M699.37,196.81c-14.49-.08-23.48-5.44-23.48-15s8.55-15.07,23.48-15.07A62.6,62.6,0,0,1,724.6,172l2.75-10.37c-9-4.06-18.19-5.58-29.21-5.58-15.51,0-36.46,5.73-36.46,25.73,0,18.77,17.91,25.73,36.46,25.73,12,0,20.51-2,29.28-5.58l-2.75-10.22A63.25,63.25,0,0,1,699.37,196.81Z"/><path class="cls-1" d="M552.65,69.67c-1.33-10.84,1.76-21.31-2-32.64-3.15-9.29-12.92-18-22.12-11.84C518.68,32,519.41,14.87,513,8.59c-8-8.22-18.54-5.29-21.5,3.61-3,8.69-13.61-5.83-21.63-7.54-3.81-.78-8.21-.81-10.83,2s-.62,8.74-4.59,10.29c-6.46,2.58-18.09-4-21,5.93-3.34,10.38,9.51,11.23,12.67,17.49,1.83,3.71-3.15,7-3.07,10.87s2.88,6.46,5.76,8.16c5.83,3.5,21.79.55,17.26,8.78-4.54,8.38-1.42,16.89,7.2,17.51,6.88.24,19.8-9.37,17.88,1.86-2,10.44,6.39,13.34,14.52,12.18,9.7-1.3,18.62-7.46,28.79-8.55,9.47-1,15.73,5.47,19,4.81,1.58-.32,5.25-1.47,7.58-2.14C562.29,90.46,553.78,78.62,552.65,69.67ZM463.22,32.8c57.93,1.32,95.67,61.26,95.67,61.26l-4.13,1.56S519,42.85,463.22,32.8Z"/><path class="cls-2" d="M561,93.88a1.35,1.35,0,0,1-.75.82C564.34,93,563.35,93.19,561,93.88Z"/><path class="cls-1" d="M787.71,157.3l-19.79,20.15-14.83-16.81c-137-152.56-277.4-19.32-263.71-28.48C592,63.47,683.78,109.62,732,158.85l25.81,27.74-19.5,19.57H758l48.92-48.86Z"/><path d="M257.83,207.18c-17.6,0-35.65-7.13-35.65-25.83s18-25.83,35.65-25.83,35.65,7.21,35.65,25.83S275.66,207.18,257.83,207.18Zm0-41.54c-12.95,0-21.24,5.75-21.24,15.71s8.29,15.72,21.24,15.72,21.1-5.68,21.1-15.72S270.64,165.64,257.83,165.64Z"/><path d="M257.83,207.18c-17.6,0-35.65-7.13-35.65-25.83s18-25.83,35.65-25.83,35.65,7.21,35.65,25.83S275.66,207.18,257.83,207.18Zm0-41.54c-12.95,0-21.24,5.75-21.24,15.71s8.29,15.72,21.24,15.72,21.1-5.68,21.1-15.72S270.64,165.64,257.83,165.64Z"/></svg>