<?xml version="1.0" encoding="utf-8"?><svg id="Layer_1" data-name="Layer 1" xmlns="http://www.w3.org/2000/svg" viewBox="0 0 841.89 283.46"><defs><style>.cls-1{fill:#cbb149;}.cls-2{fill:#231f20;}.cls-3{fill:#1daa4b;}</style></defs><title>leigh lawry accountant cardiff logo</title><path d="M343.68,225.76c-14.46,0-26.82-5.91-31.91-14.27a16.18,16.18,0,0,0-2.5,8.49c0,12.57,15.41,22.76,34.41,22.76s34.41-10.19,34.41-22.76a16.18,16.18,0,0,0-2.5-8.49C370.5,219.85,358.14,225.76,343.68,225.76Z"/><path class="cls-1" d="M343.68,221.4c12.47,0,23.36-4.4,29.39-11-.41-7.13-4.29-23.62-29.5-36.94-26,14.28-29.17,30.16-29.2,37C320.42,217,331.27,221.4,343.68,221.4Z"/><ellipse cx="344.02" cy="240.64" rx="4.84" ry="6.25"/><path class="cls-2" d="M42.52,163.93V131.37H46v29.51H76.72v3.05Z"/><path class="cls-2" d="M85.12,163.93V131.37h34.25v3H88.6v9.76h30.77v3H88.6v13.72h30.77v3.05Z"/><path class="cls-2" d="M129.85,163.93V131.37h3.48v32.56Z"/><path class="cls-2" d="M164.25,164.79c-11.11,0-21.79-5-21.79-17.14,0-12.37,11.26-17.15,21.79-17.15,6.33,0,12,1,17,3.33l-.86,2.95a39.47,39.47,0,0,0-15.85-3.24c-10,0-18.36,4.35-18.36,14.15s8.55,14.06,18.31,14.06a36.4,36.4,0,0,0,13.09-2.17V148.66h3.48v12.9A40.51,40.51,0,0,1,164.25,164.79Z"/><path class="cls-2" d="M226.81,163.93V147.11H195.36v16.82h-3.48V131.37h3.48v12.7h31.45v-12.7h3.48v32.56Z"/><path class="cls-2" d="M255.4,163.93V131.37h3.48v29.51H289.6v3.05Z"/><path class="cls-2" d="M334.72,163.93l-5-8.12h-26l-5,8.12h-4.2l20.92-33.24h2.7L339,163.93Zm-18-29.23-11.16,18.07h22.27Z"/><path class="cls-2" d="M376.51,164.6h-2.95l-8.65-13.81-8.55,13.81h-3l-20.82-33.23h4.3l18,29.27,8-13-10.15-16.23H357L365,144.31l8-12.94h4.21L367,147.55l8,13.09,18.07-29.27h4.2Z"/><path class="cls-2" d="M436.5,163.93l-13.81-14.59H408.82v14.59h-3.48V131.37h26.77c5.41,0,9.9,2.89,9.9,8.69,0,6.23-4.68,9.23-9.9,9.23h-5l14.06,14.64Zm-5.07-29.57H408.82v12.08h23.09c2.66,0,6.62-1.36,6.62-6.33C438.53,136.29,435.39,134.36,431.43,134.36Z"/><path class="cls-2" d="M457.61,163.93h-4.92l13.62-13.68-18-18.88h4.88l15.55,16.47,16.48-16.47h4.92Z"/><path class="cls-2" d="M45.23,187.51,12.61,236.79h16.6l5.44-8.69H69l5.29,8.69h17L58.71,187.51Zm-4.49,30.3L51.9,199.76l10.94,18.05Z"/><path class="cls-2" d="M127.62,227.44c-14.5-.07-23.49-5.43-23.49-15s8.56-15.07,23.49-15.07a62.72,62.72,0,0,1,25.22,5.21l2.76-10.36c-9-4.06-18.2-5.58-29.21-5.58-15.51,0-36.46,5.72-36.46,25.73,0,18.77,17.9,25.73,36.46,25.73,12,0,20.51-2,29.28-5.58l-2.76-10.22A63.2,63.2,0,0,1,127.62,227.44Z"/><path class="cls-2" d="M195.51,227.44C181,227.37,172,222,172,212.44s8.55-15.07,23.48-15.07a62.77,62.77,0,0,1,25.23,5.21l2.75-10.36c-9-4.06-18.19-5.58-29.21-5.58-15.51,0-36.46,5.72-36.46,25.73,0,18.77,17.91,25.73,36.46,25.73,12,0,20.51-2,29.28-5.58l-2.75-10.22A63.25,63.25,0,0,1,195.51,227.44Z"/><polygon class="cls-2" points="438.34 216.07 387.38 186.93 385.57 186.93 385.57 236.79 399.2 236.79 399.2 208.53 450.3 237.81 451.96 237.81 451.96 187.94 438.34 187.94 438.34 216.07"/><polygon class="cls-2" points="525.95 187.94 457.88 187.94 457.88 198.82 485.14 198.82 485.14 236.79 498.69 236.79 498.69 198.82 525.95 198.82 525.95 187.94"/><path class="cls-2" d="M545.5,187.51l-32.62,49.28h16.6l5.44-8.69h34.35l5.29,8.69h17L559,187.51Zm-4.5,30.3,11.17-18.05,10.94,18.05Z"/><polygon class="cls-2" points="650.28 212.21 599.33 186.93 597.51 186.93 597.51 236.79 611.14 236.79 611.14 208.53 662.24 237.81 663.91 237.81 663.91 187.94 650.28 184.09 650.28 212.21"/><path class="cls-2" d="M708.9,227.44c-14.5-.07-23.49-5.43-23.49-15s8.56-15.07,23.49-15.07a62.72,62.72,0,0,1,25.22,5.21l2.76-10.36c-9-4.06-18.2-5.58-29.22-5.58-15.51,0-36.45,5.72-36.45,25.73,0,18.77,17.9,25.73,36.45,25.73,12,0,20.52-2,29.29-5.58l-2.76-10.22A63.24,63.24,0,0,1,708.9,227.44Z"/><path class="cls-1" d="M562.18,100.31c-1.33-10.84,1.75-21.31-2-32.64-3.15-9.29-12.92-18-22.13-11.84-9.84,6.77-9.1-10.32-15.54-16.6C514.51,31,504,33.94,501,42.84c-3,8.69-13.61-5.83-21.63-7.54-3.82-.78-8.22-.81-10.84,2s-.62,8.75-4.59,10.3c-6.45,2.58-18.09-4-21,5.93C439.6,63.92,452.45,64.78,455.6,71c1.83,3.7-3.14,7-3.07,10.87s2.88,6.46,5.76,8.16c5.83,3.5,21.79.55,17.26,8.78-4.53,8.38-1.42,16.89,7.21,17.5,6.87.24,19.79-9.36,17.87,1.86-1.95,10.45,6.39,13.34,14.53,12.19,9.7-1.3,18.61-7.47,28.78-8.55,9.47-1,15.73,5.47,18.95,4.81,1.59-.32,5.25-1.47,7.58-2.14C571.81,121.1,563.31,109.26,562.18,100.31ZM472.75,63.44c57.93,1.32,95.67,61.25,95.67,61.25l-4.14,1.57S528.49,73.49,472.75,63.44Z"/><path class="cls-3" d="M570.47,124.52a1.36,1.36,0,0,1-.74.82C573.86,123.63,572.87,123.83,570.47,124.52Z"/><path class="cls-2" d="M797.23,187.94l-19.79,20.15s-14.4-16.34-14.83-16.81C625.62,38.72,485.21,172,498.9,162.8c102.64-68.69,194.41-22.54,242.58,26.69l25.82,27.74-19.5,19.56h19.71l48.93-48.85Z"/><path d="M267.36,237.82c-17.61,0-35.65-7.13-35.65-25.83s18-25.83,35.65-25.83S303,193.37,303,212,285.18,237.82,267.36,237.82Zm0-41.54c-13,0-21.25,5.74-21.25,15.71s8.3,15.72,21.25,15.72c12.8,0,21.1-5.68,21.1-15.72S280.16,196.28,267.36,196.28Z"/><path d="M267.36,237.82c-17.61,0-35.65-7.13-35.65-25.83s18-25.83,35.65-25.83S303,193.37,303,212,285.18,237.82,267.36,237.82Zm0-41.54c-13,0-21.25,5.74-21.25,15.71s8.3,15.72,21.25,15.72c12.8,0,21.1-5.68,21.1-15.72S280.16,196.28,267.36,196.28Z"/></svg>