<?xml version="1.0" encoding="utf-8"?><svg id="Layer_1" data-name="Layer 1" xmlns="http://www.w3.org/2000/svg" viewBox="0 0 1024 488.26"><defs><style>.cls-1{fill:#8a2629;}.cls-2{fill:#fff;}</style></defs><title>logo-bni</title><path class="cls-1" d="M0,453c2.16.05,4.33.14,6.49.14H338.38c-2,2.09-3.06,3.44-4.34,4.6-21.9,19.77-47.45,30.41-77.1,30.43q-125.24.09-250.45,0c-2.17,0-4.33-.12-6.49-.19Z"/><path class="cls-1" d="M235,0c6.29,1.37,12.65,2.48,18.85,4.16,18.89,5.12,35.08,15,49.13,28.5A26.33,26.33,0,0,1,304.79,35H0V0Z"/><path class="cls-1" d="M0,229H286.87c-10.05,8.8-22,13.55-34.42,17.77,18.47.59,36.28,3.52,52.88,12.86h-4.95q-146.71,0-293.43,0c-2.31,0-4.63.23-6.95.35Z"/><path class="cls-1" d="M487,0q8.94,13.14,17.88,26.27c1.77,2.58,3.62,5.11,5.86,8.28H402V0Z"/><path class="cls-1" d="M930,0V34.62H846V0Z"/><path class="cls-1" d="M0,397H84.59v31H0Z"/><path class="cls-1" d="M0,341H84.56v30.63h-5.7q-36.45,0-72.91,0c-2,0-4,.23-5.95.35Z"/><path class="cls-1" d="M0,285H84.56v30.63h-5.7q-36.45,0-72.91,0c-2,0-4,.23-5.95.35Z"/><path class="cls-1" d="M0,61H84.57V91H0Z"/><path class="cls-1" d="M0,117H84.57v30H0Z"/><path class="cls-1" d="M0,173H84.57v30H0Z"/><path class="cls-1" d="M795,0q.07,16.23.14,32.45a13.08,13.08,0,0,1-.41,2.19H752V0Z"/><path class="cls-1" d="M1024,40c-2.28,7.37-5.13,14.33-11.06,19.73a34.05,34.05,0,0,1-55.75-34.58A33.59,33.59,0,0,1,989.5.8c16.47-.08,29.28,9.88,33.5,26a13.64,13.64,0,0,0,1,2.21ZM990.57,5.66c-15.83-.42-29.39,12.44-29.71,28.18a29.4,29.4,0,0,0,28.59,29.94c15.44.42,29.16-12.84,29.58-28.57S1006.4,6.09,990.57,5.66Z"/><path class="cls-1" d="M794.79,427.85H790q-58.68,0-117.36.07c-3.34,0-5.49-.9-7.4-3.71-6-8.8-12.18-17.42-18.69-26.66H794.79Z"/><path class="cls-1" d="M550.63,90.94H402.25V61.11c1.76-.1,3.52-.29,5.28-.29,39,0,78,0,117-.1,3.55,0,5.74,1,7.74,4C538,73.28,544,81.59,550.63,90.94Z"/><path class="cls-1" d="M750,371.63H699.1c-21.49,0-43-.14-64.48.12-4.66.06-7.61-1.13-10.21-5.14-5.43-8.36-11.43-16.36-17.59-25.07a40,40,0,0,1,4.15-.49q56.49,0,113,0c1.67,0,4,.35,4.88,1.45C735.81,351.79,742.51,361.26,750,371.63Z"/><path class="cls-1" d="M566.82,285h62.26c18.14,0,36.29.07,54.43-.06,3.14,0,5.19.79,7,3.48,6,8.8,12.2,17.4,18.91,26.91-2.38.12-3.93.26-5.48.26-37,0-73.91,0-110.86.09a7.81,7.81,0,0,1-7.35-3.82C579.8,303.14,573.58,294.58,566.82,285Z"/><path class="cls-1" d="M527.21,229h56.67c20,0,40,.08,60-.07a7.62,7.62,0,0,1,7.29,3.83c5.17,7.75,10.69,15.27,16,22.9.72,1,1.3,2.15,2.37,3.94H664c-36.64,0-73.29-.05-109.93.09-3.73,0-6.06-1-8.19-4.18C540.07,246.86,533.87,238.45,527.21,229Z"/><path class="cls-1" d="M447.17,116.8h6.45c36.65,0,73.3.06,109.94-.08,3.92,0,6.36,1.1,8.56,4.42,5.61,8.44,11.65,16.61,18.11,25.73-2.27.14-3.79.32-5.31.32q-55.73,0-111.44.06c-3.12,0-5.17-.78-7-3.48C460.47,135,454.17,126.52,447.17,116.8Z"/><path class="cls-1" d="M487.64,173c2.5-.11,3.82-.23,5.14-.23,37.15,0,74.3,0,111.45-.07a7.38,7.38,0,0,1,6.95,3.62c5.87,8.67,12,17.13,18.62,26.46-2.28.16-3.8.36-5.33.36-37,0-74,0-111,.09a7.81,7.81,0,0,1-7.35-3.8C500.31,190.84,494.21,182.37,487.64,173Z"/><path class="cls-1" d="M795,453.44v34.41c-1.83.12-3.57.33-5.32.33-24.81,0-49.63,0-74.44.08-3.33,0-5.42-.94-7.35-3.77-7-10.27-14.28-20.34-21.87-31.05Z"/><path class="cls-1" d="M930,453.48V487.7H846.3V453.48Z"/><path class="cls-1" d="M264.94,427.44c4.74-6.93,10.67-13.35,13.89-20.93,3.51-8.28,8.5-9.75,16.62-9.55,22.62.55,45.26.19,67.9.19h7.15c-4.38,10.46-8.25,19.9-12.35,29.24-.35.81-2.15,1.4-3.27,1.4q-44.69.07-89.37,0C265.26,427.77,265,427.47,264.94,427.44Z"/><path class="cls-1" d="M360.2,315.63H303.79c-7.16,0-14.32.12-21.48-.09-1.58,0-3.87-.77-4.58-1.94A100.8,100.8,0,0,0,252,285.42c2.26-.17,3.64-.37,5-.37,26.48,0,52.95,0,79.43-.09,3.32,0,5.74.82,7.61,3.56,5.85,8.55,11.76,17.06,17.65,25.59Z"/><path class="cls-1" d="M929.88,341.41v29.9H846.13v-29.9Z"/><path class="cls-1" d="M846.12,315.23v-29.9h83.75v29.9Z"/><path class="cls-1" d="M929.72,259.63h-7.35c-23.64,0-47.28-.14-70.92.12-4.79.06-5.91-1.51-5.74-5.93.31-8,.09-16,.09-24.36h83.92Z"/><path class="cls-1" d="M846,427.51v-30h83.76v30Z"/><path class="cls-1" d="M227.31,203.18c7.21-9.6,14.4-19.25,21.72-28.8a4.7,4.7,0,0,1,3.29-1.5q39-.07,77.92,0a7,7,0,0,1,1.43.47A110,110,0,0,1,316,202a4.29,4.29,0,0,1-3.06,1.15C284.16,203.19,255.37,203.18,227.31,203.18Z"/><path class="cls-1" d="M291,371.3c-.57-10.19-1.12-19.94-1.68-30h81.37c.92,9.87,1.84,19.71,2.8,30Z"/><path class="cls-1" d="M846.23,173h83.54v29.75H846.23Z"/><path class="cls-1" d="M929.92,61.24V90.76H846.26V61.24Z"/><path class="cls-1" d="M929.93,117.2v29.6H846.22V117.2Z"/><path class="cls-1" d="M337.24,90.9c-3.2.15-4.83.29-6.47.29-23.63,0-47.26,0-70.89.08-3.44,0-5.1-1-6.71-4.26-4.33-8.72-9.35-17.09-14.26-25.91,1.06-.07,2.6-.28,4.14-.28,25.46,0,50.93.08,76.39-.12,3.94,0,6.1,1.16,7.5,4.79C330.14,73.75,333.58,81.92,337.24,90.9Z"/><path class="cls-1" d="M341.33,117.27c-.62,9.24-1.13,18.15-2,27a4.27,4.27,0,0,1-3.12,2.75c-25.16.13-50.32.07-75.47,0a2.62,2.62,0,0,1-1-.37c.63-9.76,1.24-19.35,1.88-29.43Z"/><path class="cls-1" d="M444.77,453.51v34.26H402.16V453.51Z"/><path class="cls-1" d="M444.52,315.31H402.11V285.38h42.41Z"/><path class="cls-1" d="M752.32,315.33v-30h42.46v30Z"/><path class="cls-1" d="M751.87,341.31h42.84v30.32H780.44c-8.15,0-16.3.11-24.45-.1-1.39,0-3.92-1.38-3.94-2.18C751.77,360.1,751.87,350.83,751.87,341.31Z"/><path class="cls-1" d="M444.55,259.43H402.28V229.35h42.27Z"/><path class="cls-1" d="M401.8,341.29h42.82v29.87a28.07,28.07,0,0,1-3.64.45c-11.5,0-23-.13-34.49.11-3.84.08-4.86-1.23-4.76-4.88C402,358.53,401.8,350.2,401.8,341.29Z"/><path class="cls-1" d="M794.75,259.3H752.44v-30h42.31Z"/><path class="cls-1" d="M402.14,397.4h42.47v30.12H402.14Z"/><path class="cls-1" d="M444.64,147H402.26V117.24h42.38Z"/><path class="cls-1" d="M794.8,91H752.47V61.26H794.8Z"/><path class="cls-1" d="M402.08,202.72V173.19h42.61v29.53Z"/><path class="cls-1" d="M752.26,146.86V117.22h42.58v29.64Z"/><path class="cls-1" d="M752.42,173.11h42.43v29.76H752.42Z"/><path class="cls-2" d="M990.57,5.66c15.83.43,28.87,14,28.46,29.55s-14.14,29-29.58,28.57a29.4,29.4,0,0,1-28.59-29.94C961.18,18.1,974.74,5.24,990.57,5.66ZM980.31,50.35l1.94-1.2v-12c5.77-1.48,9.68,0,12.27,4.86a22.86,22.86,0,0,0,3.59,5.38c1.32,1.34,3.25,2.08,4.91,3.09l1.11-1.41c-2.92-4.28-5.85-8.56-8.75-12.79,1.3-.71,3.22-1.11,3.78-2.2,1.28-2.48,2.8-5.42,2.48-8-.25-2.08-2.85-5.3-4.69-5.51-6.14-.69-12.4-.26-18.91-.26,0,9.19-.07,18,.1,26.79C978.17,48.22,979.56,49.28,980.31,50.35Z"/><path class="cls-1" d="M980.31,50.35c-.75-1.07-2.14-2.13-2.17-3.21-.17-8.8-.1-17.6-.1-26.79,6.51,0,12.77-.43,18.91.26,1.84.21,4.44,3.43,4.69,5.51.32,2.55-1.2,5.49-2.48,8-.56,1.09-2.48,1.49-3.78,2.2,2.9,4.23,5.83,8.51,8.75,12.79L1003,50.49c-1.66-1-3.59-1.75-4.91-3.09A22.86,22.86,0,0,1,994.52,42c-2.59-4.82-6.5-6.34-12.27-4.86v12Zm2-17.29c3.89,0,7.49.61,10.72-.22a7.79,7.79,0,0,0,4.78-5c.26-1.21-2.66-4.11-4.54-4.52-3.42-.75-7.11-.21-11-.21Z"/><path class="cls-2" d="M982.26,33.06v-10c3.85,0,7.54-.54,11,.21,1.88.41,4.8,3.31,4.54,4.52a7.79,7.79,0,0,1-4.78,5C989.75,33.67,986.15,33.06,982.26,33.06Z"/></svg>
