<?xml version="1.0" encoding="utf-8"?><svg id="Layer_1" data-name="Layer 1" xmlns="http://www.w3.org/2000/svg" viewBox="0 0 280 280"><defs><style>.cls-1{fill:#350115;}.cls-2{fill:#1a0404;}.cls-3{fill:#891d34;}.cls-4{fill:#ba2233;}.cls-5{fill:#731637;}</style></defs><title>logo-nick-lewis</title><path class="cls-1" d="M83.9,244.21c-1.38-1.81-3.25-1.14-5-1l-21.28,2.3c-2,.21-4.29.95-3.65-2.55,8.28.59,16.41-.51,24.52-2,3.43-.62,2.92-2.65,1.74-4.67-1.5-2.58-3-5.09-3.28-8.14,1-1.26,3.89-.58,3.57-2.68-.29-1.87-2.76-1.26-4.21-1.88a5,5,0,0,0-3.38-.24c0-2-1.09-3.73-2-5.43-.65-1.22-1.33-3.05-3.08-2.48-1.46.48-.71,2.26-.89,3.47A48.53,48.53,0,0,1,50,215c-.9-4.95-1.45-9.89-.06-14.85L54,200l2-.08c1.68-.93,6.19.53,4-3.79-2.66-5.13-4.56-10.64-7.46-15.58-2.07-3.52-2.85-7.85-6.38-11.61v7.92c-2.17-4.76-.31-10.34-3.06-15,1.66-1.26,1.15-3.13.91-4.62-1.06-6.42-.74-12.89-1.17-19.33-.14-2.05-.24-4.32-1.64-6.13L41,130.7l.06-1.81H44c4.45-2.18,8.76-4.77,13.39-6.43s8.13-6,13.57-5.37c1.73,3.73,3.4,7.5,5.2,11.2,3,6.19,6.44,12.2,8.74,18.73-.57,1-1.19,1.95-1.71,3-3,5.92-1.62,13-4.67,18.81a11.43,11.43,0,0,0-.45,10,3.15,3.15,0,0,0-2.74,3.12c-.19,4.21-1.78,8.06-2.84,12-.87,3.26.13,4.21,3.27,4.09,4.46-.16,8.8-1.35,13.32-1.19,2.58.09,4,.6,4.23,3.42.53,5.91,1.29,11.79,2,17.68-2.78,4.08-9,2.92-11.68,7.67L97,229c-.21,9.81-.21,9.81,8,10.28-2.31,2.06-5.15,1.71-7.91,1.74-3.62-1.61-7.21.6-10.86.14-1.17-.15-2,.88-2.29,2.15A2.27,2.27,0,0,1,83.9,244.21Zm-15.53-33.3c.81-3,1.54-5.59,2.22-8.22.37-1.41,1-3.76-.37-4-2.45-.36-5.08.5-7.63.92a2,2,0,0,0,0,1.34C64.52,204.09,64.74,208.19,68.37,210.91Z"/><path class="cls-1" d="M227.39,61c3.18,3.12,7.58,2.86,11.44,4,4.72,1.45,9.59,2.44,14.4,3.63,1.23.3,2.94.26,1.8,2.37-7-1.82-14.29-2.54-21.13-5.08-4.29-1.59-5.55-.6-4.73,3.9,1.16,6.34,2.14,12.69,1.81,19.17-1.55-1.71-.68-3.82-.95-5.74s-.44-4.27-2.72-4c-3,.3-6.39.08-8.89,2.41-.25.23.05,1.27.32,1.82q7.06,14.27,14.18,28.5a5,5,0,0,1,2,4.18c-1.73,8.82-.05,17.37,2,25.9q0,3.47,0,7a3.87,3.87,0,0,1,.06.83c-6.73,3.24-13.39,6.65-20.23,9.64-3.09,1.35-5.81,4-9.63,3.32.06-2.23-.94-4.12-1.88-6.05q-6.06-12.39-12-24.81a12.92,12.92,0,0,0,1.58-1c3.31-2.89,1.83-7.15,2.89-10.7,1.84-6.23,2.84-12.71,4.2-19.08,2.39-4.61,2.39-9.93,4.32-14.67,1.54-3.77-.09-4.55-3.62-4.59-4.84,0-9.48,1.57-14.35,1.23-2.33-.17-3.18-.91-3.3-3.22-.26-5-.76-9.89-1.16-14.84-.28-3,1.08-4.81,3.88-6.05,2.42-1.07,5.36-1.66,6.77-4.58A16.12,16.12,0,0,0,187.37,52c-3.75-.3-5.73-2.11-5.49-6L181,43c-.19-3.72,2.78-3.67,5.06-3.88,3.6-.32,7.25-.17,10.87-.22,2.49,4,5.64,7.73,4.12,13-1.16.18-2.47.45-2.6,1.78-.18,1.76,1.5,1.29,2.47,1.54,1.4.37,2.84.56,4.26.83l.82,1c.47,3.36,2.89,5.61,4.83,9.27.56-4.46,2.32-6.65,6.21-6.23l0,0c2.77,1.78,5.44,4.32,8.86,1.15ZM211.26,80.94c1.28-.85,4.14.35,4.82-2.12.55-2-4.44-9.21-5.46-8.6-3.21,1.92-1.07,5.66-2.44,8.4C207.32,80.35,209.1,81.08,211.26,80.94Z"/><path class="cls-2" d="M131,37.19C147.67,29,164.38,20.9,181,12.57c2.61-1.3,3.17,0,4,1.76q5.15,10.79,10.31,21.56c-.91,1.29-2.3,1.09-3.58,1.1-6.85,0-13.16,2.74-19.78,4l-6,.24c-1.7,0-3.5-.68-5,.74h-.06c-2.77,0-5.56-.18-8.18,1-2.42-1.47-5.56.15-7.84-1.86A40.49,40.49,0,0,1,131,37.19Z"/><path class="cls-3" d="M44,128.9H41.08c0-2.15.05-4.31-.16-6.44-1.3-13.11-3.54-26.12-4.05-39.31a100.84,100.84,0,0,0,16.46-7.41c3.46-1.88,5.09-4.54,5.76-8.37S60.45,59,62.55,55.78c1.58-2.45-.72-2.34-.84-3.45a.48.48,0,0,1,.7-.35L96,49c2.79.39,5.8-.75,8.33.69-1,4.3-4.68,2.8-7,4C86,59.28,74.68,64.77,63.36,70.31A14.51,14.51,0,0,0,55,82.23c-1.28,9.65-4.7,18.85-7.23,28.14C46.08,116.55,45.08,122.7,44,128.9Z"/><path class="cls-2" d="M83.9,244.21a2.27,2.27,0,0,0,.09-.9c2-.1,4-.14,5.92-.31,2.52-.22,5.42.85,7.23-2,2.76,0,5.6.32,7.91-1.74l7.84-.36c3.7-.69,7.9,2,11.16-1.67l3-.21c2.1,3.33,5.36,1.52,8.15,1.83l13.65,3Q123.37,254.41,97.92,267c-1.89,1-2.9.72-3.8-1.22C90.77,258.58,87.31,251.41,83.9,244.21Z"/><path class="cls-2" d="M50,200.18c-1.39,5-.84,9.9.06,14.85-9-1-17.56-4.19-26.39-6.08,1-7.62,3.54-14.87,5.3-22.31,2.75-11.61,5.77-23.16,8.68-34.74,1.76-.64,1.82,1,2.19,1.85,1.19,2.67,2.19,5.42,3.26,8.14,2.75,4.64.89,10.22,3.06,15l0,.05.71,1.07C47,185.52,46.85,193.08,50,200.18Z"/><path class="cls-2" d="M234.93,116.14a5,5,0,0,0-2-4.18c.76-7.76-2.38-15.2-1.94-22.94.33-6.48-.65-12.83-1.81-19.17-.82-4.5.44-5.49,4.73-3.9C240.74,68.49,248,69.21,255,71c-4.05,19.17-9,38.12-14.06,57Z"/><path class="cls-2" d="M237.06,149.82A3.87,3.87,0,0,0,237,149c4.28-.27,7.29-3.4,11-4.91q9.43,18.9,18.87,37.79c1.45,2.87-1.19,3-2.51,3.7-7.11,3.56-14.3,7-21.47,10.39-1.78-2.41-1.8-5.22-1.86-8-.18-9.08-2.07-18-2.92-27-.4-2.65.67-5.5-1.09-8v0C237.05,151.91,237.06,150.87,237.06,149.82Z"/><path class="cls-2" d="M216.68,227.24q-3.57,14-7.16,27.94c-4.13-1.16-8.2-2.86-12.41-3.35-7.89-.92-15-5.26-23.14-4.84-1.89-2.4-7.84,0-6.84-5.83,2.21-2.33,2-5.25,2-8.12l7.93-1.81C190.33,230.83,203.48,228.77,216.68,227.24Z"/><path class="cls-2" d="M36.87,83.14c.51,13.19,2.75,26.2,4.05,39.31.21,2.13.11,4.29.16,6.44L41,130.71l-1,.37c-1.14-.1-2.32-.38-3,.92l-6.21,3.58c-6.21-12.46-12.33-25-18.68-37.35-1.33-2.58.14-3.07,1.81-3.92q11.31-5.72,22.6-11.48C36.52,83.06,36.64,83.16,36.87,83.14Z"/><path class="cls-2" d="M62.41,52l6.75-27a13.49,13.49,0,0,1,3,.09c12.17,3.09,24.33,6.26,36.5,9.36,2.66.67,2.52,2.67,2.54,4.68L111,39c-5.71.26-.89,4.08-2,5.9l-.74,1.2L96,49"/><path class="cls-4" d="M36.87,83.14c-.23,0-.35-.08-.36-.31Q35.24,70.66,34,58.51c-.2-1.93-.38-3.42,2.47-3.65,8.45-.66,16.87-1.67,25.29-2.54.12,1.12,2.42,1,.84,3.46-2.1,3.26-2.76,7.6-3.46,11.58-.67,3.83-2.3,6.49-5.76,8.37A100.84,100.84,0,0,1,36.87,83.14Z"/><path class="cls-4" d="M242.05,197c0,.32,0,.65,0,1-1.49,1.2-1.13,2.57-.31,4.82.19-1.92.3-3,.41-4.09,1.76,7.65,1.59,15.52,2.77,23.23.36,2.35-1,2.81-2.9,2.93-8.3.52-16.5,2.31-24.86,2.27A17.53,17.53,0,0,1,219,216.1a15.66,15.66,0,0,0,2-9C227.84,203.28,234.41,199,242.05,197Z"/><path class="cls-3" d="M242.05,197c-7.64,2-14.21,6.24-21,10L221,207c-.82-3.39,2.82-5,3.12-8.07.42-4.25.63-8.73,2.19-12.59,2.24-5.56,2.1-11.26,3-16.91.94-5.93,2-12.48,7.77-16.45v0c.38,2.66-1.14,5.57,1.09,8,.85,9,2.74,17.91,2.92,27,.06,2.8.08,5.61,1.86,8Z"/><path class="cls-2" d="M77,228.19c.27,3.05,1.78,5.56,3.28,8.14,1.18,2,1.69,4-1.74,4.67-8.11,1.49-16.24,2.59-24.52,2q-1.45-12.54-2.92-25.06L67,221.83c1.25.79,2.5,1.53,4.06.94l1.94.65C73.88,225.36,74.11,227.87,77,228.19Z"/><path class="cls-2" d="M227.39,61l-1.54.12L217,60l0,0a41.15,41.15,0,0,0-11-3l-.82-1c-1.15-1.61-1.49-4-4.13-4.15,1.52-5.24-1.63-9-4.12-13,9.11-2.53,18.66-1.72,27.83-3.8ZM216.28,42c-2.27-1.1-4.54-1.72-7.19.24A8.21,8.21,0,0,0,216.28,42Z"/><path class="cls-3" d="M221.05,207.05a15.66,15.66,0,0,1-2,9,17.53,17.53,0,0,0-1.89,11.07l-.2.17-.24-.1c-13.2,1.53-26.35,3.59-39.66,4,.18-1.39-.69-3.54,1.17-3.9,4.56-.9,7.58-4.77,11.7-6C201,218,210,210.48,221,207Z"/><path class="cls-3" d="M169.09,233c0,2.87.25,5.79-2,8.12-.24-6.16-1.37-7.49-5.21-5.79s-8.48,2.61-11,6.69l-2.08-.2-13.65-3c-2.06-1.49-2.09-2.62.66-2.87,11.06-1,22-3.23,33.17-3Z"/><path class="cls-3" d="M131,37.19a40.49,40.49,0,0,0,13.87,3.9c.21,1.48,0,2.65-1.84,2.82l-30.09,2.84c3.4-2.11,6.54-4.91,10.54-5.6,2.52-.42,5,0,5.69-3.31Z"/><path class="cls-4" d="M150.9,242.06c2.54-4.08,7.07-4.95,11-6.69s5-.37,5.21,5.79c-1,5.79,5,3.43,6.84,5.83,0,.26,0,.52,0,.78A186.19,186.19,0,0,1,150.9,242.06Z"/><path class="cls-4" d="M129.16,37.84c-.65,3.3-3.17,2.89-5.69,3.31-4,.69-7.14,3.49-10.54,5.6l-1.9.11-1.11-2c.41-2,1.38-3.83,1-5.92l.23.08c2.26-1.3,2.65-5.66,6.67-4.07A47.41,47.41,0,0,1,129.16,37.84Z"/><path class="cls-4" d="M248,144.08c-3.73,1.51-6.74,4.64-11,4.91q0-3.48,0-7c1.53-3.45.87-8,5.12-10.08A52.58,52.58,0,0,1,248,144.08Z"/><path class="cls-3" d="M43.05,161.89c-1.07-2.72-2.07-5.47-3.26-8.14-.37-.85-.43-2.49-2.19-1.85-.12-4.07-3.29-7-4.15-10.73,1.59.33,2.34,1.67,3.24,2.79.61.78,0,2.91,1.71,2.29,1.38-.5,2.93-1.83,2.46-3.79-.87-3.6.59-7.09.29-10.65,1.4,1.81,1.5,4.08,1.64,6.13.43,6.44.11,12.91,1.17,19.33C44.2,158.76,44.71,160.63,43.05,161.89Z"/><path class="cls-3" d="M117.86,35c-4-1.59-4.41,2.77-6.67,4.07,0-2,.12-4-2.54-4.68-12.17-3.1-24.33-6.27-36.5-9.36a13.49,13.49,0,0,0-3-.09c0-2.76,1.84-1.77,3.11-1.45Q95.09,29.19,117.86,35Z"/><path class="cls-5" d="M224.75,35.1c-9.17,2.08-18.72,1.27-27.83,3.8-3.62,0-7.27-.11-10.87.21-2.28.21-5.25.16-5.06,3.88-2.44-3.26-6-1.51-9.07-2,6.62-1.22,12.93-3.91,19.78-4,1.28,0,2.67.19,3.58-1.1,7.91,1,15.59-1.32,23.4-1.49C220.68,34.36,223,32.65,224.75,35.1Z"/><path class="cls-4" d="M41.15,131.81c.3,3.56-1.16,7.05-.29,10.65.47,2-1.08,3.29-2.46,3.79-1.68.62-1.1-1.51-1.71-2.29-.9-1.12-1.65-2.46-3.24-2.79a14.47,14.47,0,0,1-2.67-5.59L37,132c1.64,1.77,2.26.15,3-.92l1-.37C41.07,131.07,41.11,131.44,41.15,131.81Z"/><path class="cls-3" d="M242.1,132c-4.25,2.07-3.59,6.63-5.12,10.08-2.1-8.53-3.78-17.08-2-25.9l6,11.93c0,.36,0,.72,0,1.07l-.35.24.45.55v0a.76.76,0,0,0,.45.79Z"/><path class="cls-3" d="M67,221.83l-15.92-3.89c-7.94-2.95-16.35-4.09-24.4-6.59-1.14-.35-3.78.56-3-2.4C32.45,210.84,41,214,50,215A48.53,48.53,0,0,0,67,219l0,.05Z"/><path class="cls-3" d="M173.93,247.77c0-.26,0-.52,0-.78,8.12-.42,15.25,3.92,23.14,4.84,4.21.49,8.28,2.19,12.41,3.35,0,1-.59,1.64-1.55,1.4Q190.95,252.21,173.93,247.77Z"/><path class="cls-3" d="M242.11,198.74c-.11,1.09-.22,2.17-.41,4.09-.82-2.25-1.18-3.62.31-4.82A.52.52,0,0,1,242.11,198.74Z"/><path class="cls-4" d="M241.06,129.93l-.45-.55.35-.24A.74.74,0,0,1,241.06,129.93Z"/><path class="cls-4" d="M241.52,130.74a.76.76,0,0,1-.45-.79Z"/><path class="cls-5" d="M96,49l12.22-2.9.72.74c-.85,3.49-1.73,7-2.52,10.47-1.46,6.51-2.87,13-4.3,19.56-2.56,5-3,10.5-4.07,15.86C94,93.16,90,93.68,85.88,94c-2.55.21-3.83.66-3.19,3.88.84,4.29.84,8.75,1.2,13.14-1-.35-1.93-3.42-2.83-.12a2.51,2.51,0,0,1-3.25,2c-3.53-.56-5.44,1.36-6.89,4.15-5.43-.58-9,3.72-13.56,5.37S48.42,126.72,44,128.9c1.11-6.2,2.11-12.35,3.79-18.53,2.53-9.29,6-18.49,7.23-28.14a14.51,14.51,0,0,1,8.37-11.92C74.68,64.77,86,59.28,97.3,53.66c2.36-1.18,6.07.32,7-4C101.81,48.24,98.8,49.38,96,49Z"/><path class="cls-3" d="M95.24,218c-.67-5.89-1.43-11.77-2-17.68-.25-2.82-1.65-3.33-4.23-3.42-4.52-.16-8.86,1-13.32,1.19-3.14.12-4.14-.83-3.27-4.09,1.06-4,2.65-7.81,2.84-12A3.15,3.15,0,0,1,78,178.81c4.4.53,8.51,2.8,13.11,2.14,1.27.05,2.63,0,2.92,1.7-4.06,2.13-1.88,5.83-1.94,8.77-.07,3.85,2.32,5.6,6.18,4.39,3.53-1.12,7.12-.8,10.71-.83l6.24,14C109,212.33,103,216.19,96,218Z"/><path class="cls-2" d="M91.15,181c-4.6.66-8.71-1.61-13.11-2.14a11.43,11.43,0,0,1,.45-10c3.05-5.85,1.66-12.89,4.67-18.81.52-1,1.14-2,1.72-3,.85,1.17,1.12,2.88,2.94,3.13l1.17,5c-.09,5.75-.24,11.52,1.89,17Z"/><path class="cls-3" d="M87.82,150.16c-1.82-.25-2.09-2-2.94-3.13-2.31-6.53-5.73-12.54-8.75-18.73-1.8-3.7-3.47-7.47-5.2-11.2,1.44-2.79,3.35-4.71,6.88-4.15a2.51,2.51,0,0,0,3.25-2c.9-3.3,1.88-.23,2.83.12.38,1.69-.31,3.59,1,5.08.16,6.32-.1,12.69,2,18.8Z"/><path class="cls-3" d="M50,200.18c-3.1-7.1-3-14.66-3.15-22.18l-.72-1.07,0-.05V169c3.53,3.76,4.31,8.09,6.38,11.61,2.9,4.94,4.8,10.45,7.46,15.58,2.23,4.32-2.28,2.86-4,3.79-.7-1-1.36-.94-2,.08Z"/><path class="cls-3" d="M112.89,238.92l-7.84.36c-8.23-.47-8.23-.47-8-10.28l0,0c10.06,2.49,20.36,4.05,30,8l-3,.2A33.82,33.82,0,0,0,112.89,238.92Z"/><path class="cls-5" d="M95.24,218,96,218c-.63,3.76.86,7.33,1,11l0,0-13.47-3.38C86.2,220.87,92.46,222,95.24,218Z"/><path class="cls-5" d="M68.37,210.91c-3.63-2.72-3.85-6.82-5.8-9.92a2,2,0,0,1,0-1.34c2.55-.42,5.18-1.28,7.63-.92,1.4.2.74,2.55.37,4C69.91,205.32,69.18,207.93,68.37,210.91Z"/><path class="cls-5" d="M77,228.19c-2.84-.32-3.07-2.83-4-4.77l0,0a5,5,0,0,1,3.38.24c1.45.62,3.92,0,4.21,1.88C80.84,227.61,77.92,226.93,77,228.19Z"/><path class="cls-5" d="M97.14,241c-1.81,2.83-4.71,1.76-7.23,2-2,.17-4,.21-5.92.31.26-1.27,1.12-2.3,2.29-2.15C89.93,241.62,93.52,239.41,97.14,241Z"/><path class="cls-3" d="M72.93,223.39l0,0L71,222.77A5.58,5.58,0,0,0,67,219l0-.05c.18-1.21-.57-3,.89-3.47,1.75-.57,2.43,1.26,3.08,2.48C71.84,219.66,72.9,221.34,72.93,223.39Z"/><path class="cls-5" d="M54,200c.62-1,1.28-1,2-.08Z"/><path class="cls-5" d="M221,207C210,210.48,201,218,189.89,221.34c-4.12,1.22-7.14,5.09-11.7,6-1.86.36-1,2.51-1.17,3.9L169.09,233l-.09,0c3.66-9.69,5.14-20,8-29.87a106.59,106.59,0,0,0,4-16c3.25-.37,6.5-.86,9.76-1.1,4-.29,6.09-2,5.25-6.27a36.27,36.27,0,0,1-.91-10.74c4.25-1.65,9.7-1,12.13-6.2,3.82.7,6.54-2,9.63-3.32,6.84-3,13.5-6.4,20.23-9.64,0,1.05,0,2.09,0,3.13-5.72,4-6.83,10.52-7.77,16.45-.89,5.65-.75,11.35-3,16.91-1.56,3.86-1.77,8.34-2.19,12.59C223.79,202,220.15,203.58,221,207Z"/><path class="cls-3" d="M183.85,65c.4,5,.9,9.89,1.16,14.84.12,2.31,1,3,3.3,3.22,4.87.34,9.51-1.28,14.35-1.23,3.53,0,5.16.82,3.62,4.59-1.93,4.74-1.93,10.06-4.32,14.66-5.05-.61-9.74-3-14.89-3a1.68,1.68,0,0,1,0-.89c-.41-3.39.51-6.91-1-10.18,0-1.11.3-2.29-1-2.94h-2c-1.46-.08-2.94-.35-4.17.79-2.54,1-6.13-1.82-7.87,2.14l-6.07-.21c4.58-3.6,4.59-3.61,1.47-9.9-.81-1.63-1.74-3.21-2.61-4.81C168,66.14,174.68,65,181,63,182,63.54,182.34,65.1,183.85,65Z"/><path class="cls-3" d="M207.2,162.78c-2.43,5.22-7.88,4.55-12.14,6.2-.69-3.7-.57-7.54-2-11.11-.48-4.55.77-9.25-1.21-13.66q-.49-7.59-1-15.18c2.07-.09,2,1.63,2.4,2.89q6,12.41,12,24.81C206.26,158.66,207.26,160.55,207.2,162.78Z"/><path class="cls-2" d="M193.29,131.92c-.45-1.26-.33-3-2.4-2.89l-.39-1.67a1,1,0,0,0-.32-1.41,1.73,1.73,0,0,1-.21-1c.07-9.09-2.76-17.87-2.9-26.94,5.15.09,9.84,2.44,14.89,3-1.36,6.38-2.36,12.86-4.2,19.09-1.06,3.55.42,7.81-2.89,10.7A12.92,12.92,0,0,1,193.29,131.92Z"/><path class="cls-3" d="M231,89c-.44,7.74,2.7,15.18,1.94,22.94q-7.09-14.23-14.18-28.5c-.27-.55-.57-1.59-.32-1.82,2.5-2.33,5.87-2.11,8.89-2.41,2.28-.22,2.46,2.21,2.72,4S229.43,87.31,231,89Z"/><path class="cls-3" d="M171.92,41c3.06.53,6.63-1.22,9.07,2,.3,1,.59,2,.89,3-1,1.49-1.58,3.53-4,3.11-4.11,0-7.88-1.68-11.86-2.29a2.08,2.08,0,0,0-2-.8h0c2.52-4-2.55-2.38-3.06-4.13h.06c1.69-.09,3.5.63,5-.74Z"/><path class="cls-5" d="M177.84,49.13c2.46.42,3-1.62,4-3.11-.24,3.9,1.74,5.71,5.49,6a16.12,16.12,0,0,1,7.13,2.37c-1.41,2.92-4.35,3.51-6.77,4.58-2.8,1.24-4.16,3-3.88,6.05C182.34,65.1,182,63.54,181,63a9.89,9.89,0,0,0,1.39-6.76C182,52.67,179.51,51.34,177.84,49.13Z"/><path class="cls-5" d="M211.26,80.94c-2.16.14-3.94-.59-3.08-2.32,1.37-2.74-.77-6.48,2.44-8.4,1-.61,6,6.6,5.46,8.6C215.4,81.29,212.54,80.09,211.26,80.94Z"/><path class="cls-5" d="M206,57a41.15,41.15,0,0,1,11,3c-3.89-.42-5.65,1.77-6.21,6.23C208.88,62.57,206.46,60.32,206,57Z"/><path class="cls-5" d="M201,51.86c2.64.13,3,2.54,4.13,4.15-1.42-.27-2.86-.46-4.26-.83-1-.25-2.65.22-2.47-1.54C198.57,52.31,199.88,52,201,51.86Z"/><path class="cls-5" d="M217,60l8.86,1.15C222.43,64.29,219.76,61.75,217,60Z"/><path class="cls-1" d="M177.84,49.13c1.67,2.21,4.2,3.54,4.51,7.07A9.89,9.89,0,0,1,181,63c-6.28,2-13,3.18-17.22,9.11-10.75.55-18.09,9.26-28,11.77l.31.93-1.93.15a235.93,235.93,0,0,0-32-8.06c1.43-6.52,2.84-13,4.3-19.56.79-3.5,1.67-7,2.52-10.47l2.08,0,1.9-.11L143,43.91c1.84-.17,2-1.34,1.84-2.82,2.28,2,5.42.39,7.84,1.86,3.52,1.86,7.41,2.35,11.24,3.1h0a1.87,1.87,0,0,0,2,.8C170,47.45,173.73,49.18,177.84,49.13Z"/><path class="cls-5" d="M163.94,46.05c-3.83-.75-7.72-1.24-11.24-3.1,2.62-1.21,5.41-1.07,8.18-1C161.39,43.67,166.46,42.06,163.94,46.05Z"/><path class="cls-5" d="M165.94,41.19c-1.5,1.37-3.31.65-5,.74C162.44,40.51,164.24,41.15,165.94,41.19Z"/><path class="cls-1" d="M177,203.14c-2.82,9.9-4.3,20.17-8,29.86-11.17-.23-22.11,2-33.17,3-2.75.25-2.72,1.38-.66,2.87-2.79-.31-6,1.5-8.15-1.83-9.67-3.95-20-5.51-30-8-.11-3.7-1.6-7.27-1-11,7-1.82,13-5.68,19.24-9,6-1.29,10.6-5.6,16.27-7.74,3.47-1.32,7.64-2.38,9.52-6.39L145,195a11.74,11.74,0,0,0,2.16,1C157.09,198.4,167,200.76,177,203.14Z"/><path class="cls-1" d="M112.89,238.92a33.82,33.82,0,0,1,11.16-1.68C120.79,240.9,116.59,238.23,112.89,238.92Z"/><path class="cls-1" d="M46.08,176.93,46.8,178Z"/><path class="cls-5" d="M238.13,161c-2.23-2.4-.71-5.31-1.09-8C238.8,155.45,237.73,158.3,238.13,161Z"/><path class="cls-3" d="M40,131.08c-.78,1.07-1.4,2.69-3,.92C37.71,130.7,38.89,131,40,131.08Z"/><path class="cls-1" d="M111,39c.34,2.09-.63,4-1,5.92a3.09,3.09,0,0,1-1,0C110.07,43.07,105.25,39.25,111,39Z"/><path class="cls-3" d="M109,44.89a3.09,3.09,0,0,0,1,0c.36.65.73,1.3,1.1,2l-2.08,0-.72-.74C108.48,45.69,108.73,45.29,109,44.89Z"/><path class="cls-5" d="M67,219a5.58,5.58,0,0,1,4,3.77c-1.56.59-2.81-.15-4.06-.94Z"/><path class="cls-1" d="M216.28,42a8.21,8.21,0,0,1-7.19.24C211.74,40.3,214,40.92,216.28,42Z"/><path class="cls-3" d="M102.13,76.86a235.93,235.93,0,0,1,32,8.06c-4.81-1.29-5.91,4.83-10,5-1.28.5-2.42,1.52-4,1.1l-11.88.16c-1.81,0-3.76-.91-5.28.87a1.88,1.88,0,0,1-.85,0L101,92.7,98,93l.06-.28C99.14,87.36,99.57,81.84,102.13,76.86Z"/><path class="cls-1" d="M84.93,116.1c-1.35-1.49-.66-3.39-1-5.08-.36-4.39-.36-8.85-1.2-13.14-.64-3.22.64-3.67,3.19-3.88,4.07-.32,8.12-.84,12.18-1.28L98,93q-1.2,5.27-2.41,10.52l-.1.07C87.77,105.36,85.15,108.48,84.93,116.1Z"/><path class="cls-2" d="M141.05,194.89c-1.88,4-6.05,5.07-9.52,6.39-5.67,2.14-10.26,6.45-16.27,7.74L109,195l0,.05,1.15-.94L131,192l3.94.94C137.06,193.29,139.25,193.49,141.05,194.89Z"/><path class="cls-2" d="M109,195c-3.59,0-7.18-.29-10.71.83-3.86,1.21-6.25-.54-6.18-4.39.06-2.94-2.12-6.64,1.94-8.77l1.91.17,1,.2c2.21.71,4.28,2,6.75,1.7l1,.74a16.63,16.63,0,0,0,4.17,8.56l.06,1Z"/><path class="cls-4" d="M103.73,184.72c-2.47.29-4.54-1-6.75-1.7-.23-.57-.55-.71-1-.2l-1.91-.17c-.29-1.75-1.65-1.65-2.92-1.7l-.27-8.81a72,72,0,0,0-.13-8.19c-.4-3.18,1.21-1.17,2.14-1l.26.19-.08.31c1.51,5.69,2.46,11.67,7.72,15.49Z"/><path class="cls-3" d="M89,155.11a26.29,26.29,0,0,1,3.9,7.82c-.93-.15-2.54-2.16-2.14,1a72,72,0,0,1,.13,8.19C88.75,166.63,88.9,160.86,89,155.11Z"/><path class="cls-2" d="M95.49,103.59Q92.27,115.77,89,128c-.63,2.33-1.36,4.64-2,7-2.15-6.12-1.89-12.49-2-18.81C85.15,108.48,87.77,105.36,95.49,103.59Z"/><path class="cls-3" d="M150.89,190.17,157,189l11.88-.1c1.76-.06,3.69.82,5.14-.91l2.83-.09,1.17-.75,3,0a106.59,106.59,0,0,1-4,16q-14.9-3.56-29.8-7.14a11.74,11.74,0,0,1-2.16-1c1.49-1.83,3.57-1.81,5.68-2.06C154.73,192.45,151.54,191.16,150.89,190.17Z"/><path class="cls-1" d="M176.82,187.87,174,188c-1.74.16-3.62-.49-5.14.91L157,189l8.83-4.36c.28,1.82,1.58,3.13,3,2,2.88-2.18,6-1.74,9-1.53,3.35.22,5-1,5-4.29.05-3.62,2.43-7.2,5-7.44,5.3-.5,5.25-3.33,5.13-7-.1-2.82,0-5.64.06-8.46,1.39,3.57,1.27,7.41,2,11.11a36.61,36.61,0,0,0,.92,10.74c.84,4.23-1.24,6-5.25,6.27-3.26.24-6.51.73-9.76,1.1l-3,0Z"/><path class="cls-2" d="M153.81,88.11l-3-.16a3,3,0,0,0-3.54-.2l-2.26-.07c-2.78-1.68-5.89-2.31-9-2.91l-.31-.93c9.93-2.51,17.27-11.22,28-11.77.87,1.6,1.8,3.18,2.61,4.81,3.12,6.29,3.11,6.3-1.47,9.9C161.24,87.67,157.23,85.43,153.81,88.11Z"/><path class="cls-4" d="M190,125c-5.42-9.8-10.14-20-14.82-30.11L187,97.17a1.68,1.68,0,0,0,0,.89C187.21,107.13,190,115.91,190,125Z"/><path class="cls-2" d="M187,97.17l-11.87-2.28L173.93,94a15.92,15.92,0,0,0-3-7c1.74-4,5.33-1.13,7.87-2.14,1.46.09,3,.62,4.17-.79h2c0,1.08-.15,2.24,1,2.94C187.53,90.26,186.61,93.78,187,97.17Z"/><path class="cls-4" d="M171,87a15.92,15.92,0,0,1,3,7c-6.55-.52-12.57-3.34-19-4.36-.43-.07-.74-1-1.1-1.5,3.42-2.68,7.43-.44,11.07-1.33Z"/><path class="cls-1" d="M183,84.06c-1.17,1.41-2.71.88-4.17.79C180.05,83.71,181.53,84,183,84.06Z"/><path class="cls-1" d="M186,87c-1.16-.7-1-1.86-1-2.94C186.29,84.7,186,85.88,186,87Z"/><path class="cls-2" d="M193.1,157.87c0,2.82-.16,5.64-.06,8.46.12,3.72.17,6.55-5.13,7-2.57.24-4.95,3.82-5,7.44,0,3.34-1.69,4.51-5,4.29-3-.21-6.16-.65-9,1.53-1.45,1.1-2.75-.21-3-2,2.77-1.44,5.38-3.44,8.32-4.24,8.13-2.21,11.25-7.69,12.48-15.59,1.09-7,3.48-13.72,5.3-20.57C193.87,148.62,192.62,153.32,193.1,157.87Z"/><path class="cls-3" d="M190.5,127.36l-.32-1.41A1,1,0,0,1,190.5,127.36Z"/><path class="cls-5" d="M166,46.84a1.87,1.87,0,0,1-2-.8A2.08,2.08,0,0,1,166,46.84Z"/><path class="cls-4" d="M136,84.77c3.13.6,6.24,1.23,9,2.91-6.9,1.52-13.94,1.7-20.94,2.25,4.08-.18,5.18-6.3,10-5Z"/><path class="cls-4" d="M150.89,190.17c.65,1,3.84,2.28-.21,2.75-2.11.25-4.19.23-5.68,2.06l-3.95-.09c-1.8-1.4-4-1.6-6.13-2C139.84,189.69,145.51,190.79,150.89,190.17Z"/><path class="cls-2" d="M120.16,91c-7.7,5.14-16.32,8.44-24.57,12.49Q96.81,98.26,98,93l3-.3,1.11-.62a1.88,1.88,0,0,0,.85,0c1.8-.09,3.7.52,5.28-.87Z"/><path class="cls-5" d="M108.28,91.19c-1.58,1.39-3.48.78-5.28.87C104.52,90.28,106.47,91.18,108.28,91.19Z"/><path class="cls-5" d="M102.15,92.08,101,92.7Z"/><path class="cls-4" d="M104.75,185.46c8.87,1.67,17.55,4.09,26.23,6.52l-20.85,2.1-1.21-.06A16.63,16.63,0,0,1,104.75,185.46Z"/><path class="cls-3" d="M108.92,194l1.21.06L109,195Z"/><path class="cls-3" d="M96,182.82c.45-.51.77-.37,1,.2Z"/><path class="cls-3" d="M93.07,163.43a125.58,125.58,0,0,1,7.72,15.49C95.53,175.1,94.58,169.12,93.07,163.43Z"/><path class="cls-4" d="M147.31,87.75a3,3,0,0,1,3.54.2A4.54,4.54,0,0,1,147.31,87.75Z"/><path class="cls-5" d="M168.85,188.87c1.52-1.4,3.4-.75,5.14-.91C172.54,189.69,170.61,188.81,168.85,188.87Z"/><path class="cls-5" d="M176.82,187.87l1.17-.75Z"/></svg>
