<?xml version="1.0" encoding="utf-8"?><svg id="Layer_1" data-name="Layer 1" xmlns="http://www.w3.org/2000/svg" viewBox="0 0 142.61 46.37"><defs><style>.cls-1{fill:#d0c98d;}.cls-2{fill:#292526;}.cls-3{fill:#fdfdfd;}</style></defs><title>logo-hawkins</title><path class="cls-1" d="M5.06,21.4c0-5.74,0-11.25,0-16.76,0-.64.25-.83.86-.82q5.76,0,11.51,0c.64,0,.83.24.83.85,0,4.16,0,8.32,0,12.48,0,.94-.6.92-1.13,1a11,11,0,0,0-6.74,4.45,9.32,9.32,0,0,0-1.77,5.62c0,1.68,0,3.36,0,5,0,.78.21,1.07,1,1a37.83,37.83,0,0,1,3.84,0c.92,0,1.24-.21,1.23-1.19a25,25,0,0,1,.39-6.79,11,11,0,0,1,5.19-6.91,8.5,8.5,0,0,0,4.43-7.81c0-2.28,0-4.56,0-6.84,0-.71.19-1,.94-1q5.58,0,11.16,0c.77,0,1,.3.94,1,0,2.64,0,5.28,0,7.92a11.19,11.19,0,0,1-8.25,10.56c-1.14.28-1.41.76-1.38,1.85.08,2.64.07,5.28,0,7.92,0,1,.19,1.37,1.24,1.29a27.17,27.17,0,0,1,3.72,0c1,.06,1.31-.22,1.29-1.25-.07-3,0-6,0-9a1.64,1.64,0,0,1,.81-1.58,8.27,8.27,0,0,0,2.36-2.17c.41.18.24.5.24.74,0,5.16,0,10.32,0,15.48,0,.84-.16,1.2-1.11,1.19q-5.4-.07-10.8,0c-.91,0-1.16-.27-1.15-1.16q.07-6,0-12c0-.83.33-1.08,1-1.26,5.55-1.42,8.59-5.34,8.59-11,0-1.4,0-2.8,0-4.19,0-.69-.24-.91-.9-.89-1.44,0-2.89,0-4.32,0-.82,0-1,.28-1,1a37.63,37.63,0,0,1-.16,6.1A10.86,10.86,0,0,1,22.69,22a8.41,8.41,0,0,0-4.46,8.13c.08,2.16,0,4.32,0,6.48,0,.8-.17,1.13-1.06,1.12-3.72,0-7.44,0-11.15,0-.48,0-1,.09-1-.67.12-3.23-.34-6.49.22-9.69a11,11,0,0,1,8.28-9.15,1.3,1.3,0,0,0,1.14-1.55c-.07-2.75,0-5.51,0-8.27,0-.86-.17-1.24-1.12-1.18a37.36,37.36,0,0,1-4,0c-.81,0-1,.28-1,1,0,3,0,5.92,0,8.88a1.83,1.83,0,0,1-1,2A20.75,20.75,0,0,0,5.06,21.4Z"/><path class="cls-2" d="M49.22,11.56c0-2.32,0-4.64,0-6.95,0-.74.13-1,1-1,1.91,0,1.91,0,1.91,1.86,0,1.32,0,2.64,0,4,0,.64.13.91.85.9,2.19-.05,4.39,0,6.59,0,.63,0,.82-.18.81-.81,0-1.64,0-3.28,0-4.91,0-.81.23-1.09,1-1a3.09,3.09,0,0,0,1,0c.74-.11.93.17.92.91q0,7.14,0,14.27c0,.71-.13,1.05-.9.92a3,3,0,0,0-.84,0c-.86.13-1.2-.12-1.15-1.08.09-1.71,0-3.43,0-5.15,0-.56-.14-.76-.73-.75-2.28,0-4.55,0-6.83,0-.65,0-.7.28-.69.79,0,1.76,0,3.52,0,5.27,0,.75-.21.94-.94.93-1.93,0-1.93,0-1.93-1.93Z"/><path class="cls-2" d="M83,16.46c.84-2.53,1.65-4.82,2.34-7.13a1.38,1.38,0,0,1,1.54-1.2c1,0,1.26.41,1.51,1.23.69,2.26,1.47,4.5,2.34,7.1.66-2.27,1.23-4.2,1.8-6.13.67-2.28.67-2.27,3.25-2.08-1.15,3.69-2.24,7.38-3.48,11-.33,1-1.41.25-2.13.43s-.72-.26-.87-.73c-.69-2.2-1.41-4.4-2.11-6.6-.09-.26-.11-.55-.42-.75-.78,2.44-1.6,4.84-2.28,7.28-.28,1-.91.83-1.55.79s-1.37.33-1.69-.75c-1-3.33-2-6.63-3.09-9.92-.25-.78,0-.78.66-.87,1.35-.17,2,.27,2.26,1.64C81.53,12,82.27,14.06,83,16.46Z"/><path class="cls-2" d="M108.35,8.31c-1.45,1.57-2.78,3.06-4.16,4.49-.47.48-.44.77,0,1.28,1.46,1.79,2.85,3.62,4.41,5.62-1,0-1.9,0-2.75,0-.51,0-.69-.33-.92-.64-.87-1.15-1.75-2.28-2.57-3.46-.39-.56-.59-.43-1.08-.08-1.19.87-1.09,2.06-1,3.24s-.76.9-1.39.93-1.2.18-1.19-.89c.07-4.75.06-9.51,0-14.26,0-1,.46-1,1.15-.92s1.48-.44,1.44.89c-.09,2.55,0,5.11,0,7.67v1.49a47.84,47.84,0,0,0,3.54-3.87C105,8.2,106.41,7.89,108.35,8.31Z"/><path class="cls-2" d="M73.77,13.68c0-1.22.3-2.42-.91-3.11a3.74,3.74,0,0,0-4.19.26c-1,.71-1.34.43-1.78-.49a.68.68,0,0,1,.24-1,7.37,7.37,0,0,1,7.26-.8,3.5,3.5,0,0,1,1.94,3.22c0,2.4,0,4.8,0,7.2,0,.7-.29.85-.84.72s-1.87.66-1.75-1.09a5.62,5.62,0,0,1-4.58,1.27,3.86,3.86,0,0,1-2.42-1.43,3.81,3.81,0,0,1,.16-4.76C68.39,12.08,71.15,12.05,73.77,13.68Zm0,2.54c0-1.28-1-2-2.67-2s-2.6.81-2.58,2,1.08,2,2.54,2C72.78,18.2,73.82,17.44,73.82,16.22Z"/><path class="cls-2" d="M118.67,9.48A6,6,0,0,1,122.92,8a3.2,3.2,0,0,1,3.33,3.34c0,2.56,0,5.12,0,7.67,0,.55-.12.75-.72.76-1.83.06-1.82.09-1.83-1.7s0-3.68,0-5.51c0-1.67-.83-2.4-2.36-2.34a2.7,2.7,0,0,0-2.88,2.52c0,2-.06,4.08,0,6.11.06,1.32-.83.82-1.43.9s-1.17.09-1.15-.92c.08-3.16,0-6.31,0-9.47,0-.45-.36-1.29.67-1.11.72.12,2-.67,1.88,1C118.5,9.29,118.58,9.35,118.67,9.48Z"/><path class="cls-2" d="M133.8,20a8.23,8.23,0,0,1-4.58-1.22c-1.16-.73-.12-1.24.11-1.83.32-.83.68-.25,1,0a5.25,5.25,0,0,0,4.2.94,1.42,1.42,0,0,0,1.28-1.36c0-.75-.59-1-1.17-1.17-1.11-.33-2.25-.54-3.35-.89a3,3,0,0,1-2.42-2.9,3.31,3.31,0,0,1,2.43-3.21,6.82,6.82,0,0,1,6,.79c.94.58.22,1,0,1.55s-.58.54-1.07.19a4.54,4.54,0,0,0-3.65-.71c-.63.12-1.17.43-1.24,1.12s.54.91,1.08,1.06c1,.27,2,.46,2.9.74,2.1.63,3,1.77,2.94,3.53s-1.21,2.78-3.19,3.21A12.76,12.76,0,0,1,133.8,20Z"/><path class="cls-2" d="M102.77,33.5c-1.07,0-2.15,0-3.23,0-.58,0-.65.21-.53.73.56,2.3,3.26,3.25,5.53,1.91.33-.19.62-.79,1.11-.07s-.12.87-.46,1.07a5.24,5.24,0,0,1-5.68,0,4.73,4.73,0,0,1-2-5.15,4.43,4.43,0,0,1,3.39-3.78,4.57,4.57,0,0,1,5.71,4.6c0,.55-.23.66-.71.65C104.85,33.48,103.81,33.5,102.77,33.5ZM102,32.42c.8,0,1.6,0,2.39,0s.82-.18.64-.82a3.09,3.09,0,0,0-5.94-.14c-.23.64-.29,1.05.63,1C100.48,32.36,101.25,32.42,102,32.42Z"/><path class="cls-2" d="M81.87,33a4.6,4.6,0,1,1-9.17,0,4.58,4.58,0,0,1,4.58-4.92C79.94,28.08,81.86,30.15,81.87,33Zm-7.68,0c0,2.12,1.38,3.68,3.16,3.63s3-1.59,3-3.65-1.32-3.68-3.11-3.69S74.17,31,74.19,33.06Z"/><path class="cls-2" d="M132.18,36.05c.94-2.38,1.73-4.46,2.59-6.52.58-1.37.14-1.23,2-1.13-1.15,2.82-2.28,5.6-3.42,8.38-.44,1.06-.85,2.15-1.35,3.19a2.76,2.76,0,0,1-3,1.53c-.37-.08-.73-.16-.58-.68.1-.34.1-.61.67-.59a2.24,2.24,0,0,0,2-3c-1-2.56-2.06-5.1-3.1-7.65-.15-.37-.27-.74-.41-1.13,1-.31,1.55-.1,1.92.93C130.3,31.55,131.22,33.67,132.18,36.05Z"/><path class="cls-2" d="M55,29.52a5.8,5.8,0,0,1,2.67-1.37A2.73,2.73,0,0,1,61.22,31c0,2,0,4,0,6,0,.58-.16.75-.74.75s-.74-.18-.73-.75c0-1.79,0-3.59,0-5.39,0-1.52-.7-2.24-2.05-2.24A2.6,2.6,0,0,0,55,31.71c0,1.75,0,3.51,0,5.27,0,.56-.14.75-.73.75s-.75-.16-.74-.74c0-2.52,0-5,0-7.55,0-.46-.33-1.1.69-1.14S54.94,28.9,55,29.52Z"/><path class="cls-2" d="M110.21,29.56A5.58,5.58,0,0,1,113,28.14c2.05-.3,3.38.76,3.43,2.82s0,4,0,6c0,.53-.08.77-.7.78s-.78-.25-.77-.83c0-1.72,0-3.44,0-5.15s-.64-2.38-2-2.39a2.59,2.59,0,0,0-2.77,2.43c0,1.72,0,3.44,0,5.15,0,.52,0,.78-.69.79s-.78-.24-.77-.83c0-2.51,0-5,0-7.54,0-.45-.27-1,.65-1.05S110.18,28.82,110.21,29.56Z"/><path class="cls-2" d="M67.27,38a5.22,5.22,0,0,1-3.16-1c-.39-.29-.47-.54-.16-1s.56-.36.94-.07a3.94,3.94,0,0,0,3.28.78,1.54,1.54,0,0,0,1.43-1.39c.08-.87-.6-1.16-1.25-1.38-.87-.28-1.78-.47-2.64-.76a2.35,2.35,0,0,1-1.85-2.36,2.67,2.67,0,0,1,2.07-2.49,4.86,4.86,0,0,1,4.23.66c.43.28.59.53.27,1.05s-.62.18-.92,0a3.4,3.4,0,0,0-3.18-.52,1.35,1.35,0,0,0-1.06,1.29c0,.69.48,1,1,1.16.76.24,1.54.41,2.31.64,1.71.53,2.49,1.42,2.41,2.7s-1.21,2.44-2.94,2.65A7.44,7.44,0,0,1,67.27,38Z"/><path class="cls-2" d="M110.18,13.87c0-1.64,0-3.28,0-4.91,0-.64.18-.79.8-.8,1.74,0,1.74,0,1.74,1.67,0,3,0,6,0,9,0,1.32-.84.81-1.44.89s-1.21.09-1.15-.92C110.25,17.15,110.18,15.5,110.18,13.87Z"/><path class="cls-2" d="M87.25,28.45a1.37,1.37,0,0,1,2,1c.76,2.13,1.67,4.22,2.6,6.55l2.6-6.49c.48-1.22.48-1.22,2-1.12-1.23,3-2.46,6-3.67,8.92-.24.59-.72.33-1.12.38a.66.66,0,0,1-.82-.47C89.68,34.31,88.47,31.41,87.25,28.45Z"/><path class="cls-2" d="M118.76,33a4.62,4.62,0,0,1,2.58-4.38,4.36,4.36,0,0,1,4.64.33c.29.2,1,.36.54,1.06s-.8.4-1.31,0a2.94,2.94,0,0,0-4,.35,4.32,4.32,0,0,0,0,5.31,2.94,2.94,0,0,0,4.19.3c.52-.44.76-.34,1.14.06.54.58-.07.78-.35,1a4.36,4.36,0,0,1-4.41.62A4.41,4.41,0,0,1,118.84,34C118.78,33.64,118.79,33.31,118.76,33Z"/><path class="cls-2" d="M49,31.34c0-1.84,0-3.68,0-5.52,0-.7.21-.86.88-.86s.79.2.79.81c0,3.72,0,7.43,0,11.15,0,.63-.16.81-.8.81s-.89-.19-.87-.87C49.05,35,49,33.18,49,31.34Z"/><path class="cls-2" d="M84.26,31.34c0-1.84,0-3.68,0-5.51,0-.53,0-.88.72-.88s.73.35.73.87q0,5.52,0,11c0,.52,0,.88-.73.88s-.73-.36-.72-.88C84.27,35,84.26,33.18,84.26,31.34Z"/><path class="cls-2" d="M111.49,6.74A1.55,1.55,0,0,1,110,5.11a1.5,1.5,0,0,1,1.57-1.48,1.54,1.54,0,0,1,1.54,1.63A1.56,1.56,0,0,1,111.49,6.74Z"/><path class="cls-3" d="M73.82,16.22c0,1.22-1,2-2.71,2-1.46,0-2.52-.81-2.54-2s1-2.07,2.58-2S73.82,14.94,73.82,16.22Z"/><path class="cls-3" d="M102,32.42c-.76,0-1.53-.06-2.28,0-.92.09-.86-.32-.63-1a3.09,3.09,0,0,1,5.94.14c.18.64.06.87-.64.82S102.81,32.42,102,32.42Z"/><path class="cls-3" d="M74.19,33.06c0-2.11,1.31-3.71,3.08-3.71s3.12,1.59,3.11,3.69-1.3,3.6-3,3.65S74.21,35.18,74.19,33.06Z"/></svg>
