<?xml version="1.0" encoding="utf-8"?><svg id="Layer_1" data-name="Layer 1" xmlns="http://www.w3.org/2000/svg" viewBox="0 0 376.6 259.17"><defs><style>.cls-1{fill:#01b0c4;}.cls-2{fill:#7661a9;}.cls-3{fill:#010001;}</style></defs><title>logo-care-direct</title><path class="cls-1" d="M1,151.86c.8-.18.76-1,1.15-1.45,1.94-2.19,2.88-6.26,6.2-5.93,2.64.26,1.58,4.13,2.66,6.26,3.34,6.62,8.41,11.57,14.27,15.8,15.51,11.2,32.48,19.63,50.77,26.81-1.87-12-1.33-23.7-2.89-35.28-1.21-8.88-1.94-17.84-3.23-26.74A259.1,259.1,0,0,0,55.7,75.81c-7.17-18.76-18-35.33-29.87-51.27-2.42-3.24-5.29-6.14-8.31-10.48a117.68,117.68,0,0,1,33,20.87C67.74,50.34,81,68.85,91.56,89.24a120.23,120.23,0,0,1,9.62,23.33c.87,3.19,1.73,3,4.33,1.24,12.53-8.64,23.26-19.35,33.22-30.61a290.69,290.69,0,0,0,35.8-50.61c3.44-6.15,7.19-12.12,11.19-18a211,211,0,0,1-7.07,33.09,314.53,314.53,0,0,1-22.83,56.42c-12.34,23.5-26.44,45.92-43.33,66.52-6.68,8.14-13.22,16.36-20.79,23.71-2.51,2.44-3.28,4,1.22,5.61a598.63,598.63,0,0,0,85.65,22.6c17.89,3.42,36,6.15,54.07,8.09,20.18,2.15,40.55,3.38,60.82,2,15.29-1,30.67-2.54,45.09-8.85,10.57-4.63,15.49-12.76,11.58-21.26-1.61-3.5-4.36-6.48-7.34-10.79,7.29,3.58,12.72,7.73,18.23,11.8a46.58,46.58,0,0,1,15.19,18.16,1.19,1.19,0,0,0,.79.57c.17,0,.41-.36.62-.56v3c-.25,0-.69,0-.71,0-.17.58.17.86.71,1v5.06C373.93,240.39,366,244.94,357,248c-16.5,5.54-33.62,6.9-50.87,7.21-1.34-.08-2.68-.25-4-.23-43.61.59-86.53-5.17-129.11-14.06-12.82-2.68-25.59-5.58-38.39-8.38a6.63,6.63,0,0,0-1.27-.65C100.16,223,67.89,211.81,37.65,195.4c-13.52-7.34-26.45-15.48-34.89-29C2.5,166,1.9,164.7,1,166v-2c.25,0,.69,0,.71,0,.17-.58-.17-.86-.71-1Z"/><path class="cls-2" d="M110.35,260.18c.26-2.32-1.5-1.79-2.7-1.79-10.39,0-20.79.14-31.15-1-18.87-2.15-38-2-56.53-7.08-1.41-.4-2.71-1.21-4.11-1.65-1.57-.49-1.92-1.48-1.94-3s1.2-1.93,2.2-2.32a73.74,73.74,0,0,1,19.1-4.52c17.86-2,35.74-3.69,53.74-4.36,5.46-.21,11-.52,16.49-.75,9.7-.41,19.41-.76,29.12-1.14,12.8,2.8,25.57,5.7,38.39,8.38,42.58,8.89,85.5,14.65,129.11,14.06,1.34,0,2.68.15,4,.23-5.41,2.34-11.26,1.19-16.88,2-10.38,1.55-20.92,1.26-31.42,1.18-1.2,0-2.92-.5-2.67,1.79Z"/><path class="cls-2" d="M124.52,1c-.79,1.7.52,1.64,1.56,2.06a32.36,32.36,0,0,1,20.53,33.3c-1.19,14.7-8.61,25.5-24.42,30-16.37,4.62-33.81-3-40.4-20.61C76.42,31.4,81,12.54,98,4c1.27-.64,3.78-.29,3.25-3h3l.06.69,1-.69h16.2l1,.69L122.5,1Z"/><path class="cls-3" d="M105.29,1l-1,.69L104.27,1Z"/><path class="cls-3" d="M122.5,1l-.06.69-1-.69Z"/><path class="cls-3" d="M1,163c.54.11.88.39.71,1,0,.08-.46,0-.71,0Z"/><path class="cls-2" d="M351.09,45.89c-10.49,12.75-20,25.7-27.6,40.05-10.65,20.21-17.07,41.76-20.69,64.17-2,12.48-3.56,25-4.34,37.7-.7,11.35-2,22.66-1.9,34.07,0,2.07-.76,4.15-1.36,7.2C242.61,177.91,206.47,118.44,192,46.41c2.3-.27,2.79,1,3.39,2.14,9.09,16.63,19,32.77,30.5,47.82a220.26,220.26,0,0,0,41.87,42.1c2.59,2,3.81,2.19,5.19-1.69A181.3,181.3,0,0,1,306.64,78.4c11.17-12.93,24-23.55,39.31-31.14C347.39,46.55,348.68,45.27,351.09,45.89Z"/><path class="cls-1" d="M288.53,58.88c1.54,15.84-14.81,32.58-33.46,31.51-13.67-.79-31.06-15-29.53-34.1,1.08-13.57,13.24-30,33.44-29.15C274,27.8,289.72,41.45,288.53,58.88Z"/><path class="cls-2" d="M164.53,152.87c-10.65,0-10.65,0-10.65-10.89,0-10.37,0-10.37,10.14-10.37,11.12,0,11.12,0,11.12,10.88C175.15,152.87,175.15,152.87,164.53,152.87Z"/><path class="cls-2" d="M194.79,131.61c10.72,0,10.72,0,10.72,10.67s0,10.59-10.81,10.59c-10.45,0-10.45,0-10.45-10.43v-.5C184.25,131.61,184.25,131.61,194.79,131.61Z"/><path class="cls-2" d="M164.43,181.22c-10.55,0-10.55,0-10.55-10.45,0-10.82,0-10.82,10.71-10.82,10.55,0,10.55,0,10.55,10.44C175.14,181.22,175.14,181.22,164.43,181.22Z"/><path class="cls-2" d="M195.28,181.22c-11,0-11,0-11-11,0-10.29,0-10.29,10.18-10.29,11.08,0,11.08,0,11.08,11C205.51,181.22,205.51,181.22,195.28,181.22Z"/></svg>
