<?xml version="1.0" encoding="utf-8"?><svg id="Layer_1" data-name="Layer 1" xmlns="http://www.w3.org/2000/svg" viewBox="0 0 265.68 63.6"><defs><style>.cls-1{fill:#086dac;}.cls-2{fill:#6d9ccb;}</style></defs><title>logo-biocatalysits</title><path class="cls-1" d="M10.6,63.92c-1-.37-2.11-.66-3.1-1.12C3.29,60.86.72,57.64.31,53a11.51,11.51,0,0,1,6-11.67c.34-.2.75-.29,1-.66l0,0c.37-.08.84.05,1-.49h0c3.5-1,7.11-.58,10.68-.78,2.95-.17,5.33-1.42,6.41-4.38a7.58,7.58,0,0,0-2.19-8.18A11.78,11.78,0,0,0,19,24.62c-.35-.12-1,0-.94-.51s.69-.39,1.07-.45a9.17,9.17,0,0,0,3.06-1,6,6,0,0,0,1.83-9.53,7.69,7.69,0,0,0-4.54-2.71c-.23,0-.51,0-.52-.36s.26-.34.5-.32c4.84.26,10.16,4.52,8.25,10.75a7.13,7.13,0,0,1-4.47,4.63c2.57,1.53,4.37,3.52,4.85,6.47.91,5.67-2.5,9.9-8.29,10.2-2.23.12-4.48-.1-6.71.05a10,10,0,0,0-9.44,9.93,10.11,10.11,0,0,0,9.51,10,12,12,0,0,0,8.67-2.4c1.42-1.09,2.21-2.71,3.31-4.08.31-.38-.05-.66-.25-.94l-2.17-2.94c2.1-.19,2.12,1.91,3.32,2.55,1.16-.6,1.14-2.76,3.26-2.56-.79,1.07-1.48,2-2.22,3a.81.81,0,0,0,0,1.22c.82,1,1.57,2.11,2.54,3.42-2.25-.07-2.37-2.2-3.72-3-.38.52-.85,1.06-1.22,1.66a13.11,13.11,0,0,1-8.59,6c-.18.05-.4,0-.47.26Z"/><path class="cls-2" d="M266,29.36c-1.73,3.84-3.79,5.19-7.72,5.06a6.61,6.61,0,0,1-6.32-5.67c0-.35-.18-.8.27-.92s.43.38.57.63c1.1,2,2.52,3.65,5,3.83a4.31,4.31,0,0,0,4.76-3,4.51,4.51,0,0,0-2.13-5.46c-1.06-.63-2.2-1.13-3.29-1.73-2.36-1.29-4-3-4.21-6a6.14,6.14,0,0,1,3.21-5.83,6.2,6.2,0,0,1,6.65.59,4.69,4.69,0,0,1,1.64,2.72c.07.36.36.85-.16,1s-.51-.39-.71-.65a10.22,10.22,0,0,0-1-1.3,3.76,3.76,0,0,0-4.93-.33,3.88,3.88,0,0,0-.68,4.92,5.09,5.09,0,0,0,1.63,1.73,19,19,0,0,0,2.17,1.28c2.47,1.13,4.5,2.67,5.3,5.43Z"/><path class="cls-2" d="M112,13c-2.25,3.61-4.4,7.06-6.57,10.51-.46.73-.18.86.53.85,3,0,5.92,0,9,0-.53,1-1,1.65-2.16,1.64-2.56,0-5.12,0-7.68,0a2,2,0,0,0-2,1.12c-1.19,2-2.48,4-3.74,6-.15.23-.3.47-.46.7a1.11,1.11,0,0,1-1.5.28c-.59-.32,0-.74.23-1,4-6.31,8-12.59,12-18.91,1.14-1.81,2.14-3.72,3.29-5.76,1.48,2.26,2.89,4.38,4.27,6.51q5.88,9,11.74,18.1c.21.32.67.65.46,1s-.73.09-1.1.17c-2,.41-3.13-.49-4.18-2.19-3.83-6.18-7.84-12.25-11.78-18.36Z"/><path class="cls-2" d="M143.14,34c5.06-8.66,11.1-16.69,15.89-25.7l16.79,25.82c-1.39,0-2.54,0-3.68,0-.63,0-.77-.52-1-.9q-6.19-9.55-12.35-19.13L158,13l-7.09,11.37h10.15A2.58,2.58,0,0,1,158.59,26c-2.56-.08-5.12,0-7.68,0a1.54,1.54,0,0,0-1.54.83c-1.28,2.12-2.61,4.21-3.93,6.31C144.71,34.24,144.71,34.24,143.14,34Z"/><path class="cls-1" d="M52,31.59c4.06,2.08,7.86,1.72,10.86-1A10.46,10.46,0,0,0,65.58,19a9.66,9.66,0,0,0-18.74,3,14.37,14.37,0,0,0,1,6.22c.12.27.44.6,0,.81s-.44-.25-.59-.46C44.62,25,44.6,19.12,47.2,15A11.56,11.56,0,0,1,59.28,9.72a12,12,0,0,1,9.4,9.18c1.48,7-2.35,13.51-9,15.13a12.51,12.51,0,0,1-6.4-.18C51.75,33.42,51.76,33.39,52,31.59Z"/><path class="cls-2" d="M192,9.75c1.26-.4,2,.45,2.78,1.56,2.69,3.87,5.47,7.67,8.19,11.52.53.76.78.72,1.29,0,2.76-4,5.56-8,8.36-12a3.62,3.62,0,0,1,.65-.84,1.2,1.2,0,0,1,1.46-.09c.41.33-.15.69-.35,1q-4.64,6.77-9.32,13.51a3,3,0,0,0-.55,1.78,101.16,101.16,0,0,1-.2,10.3,8,8,0,0,1-5.3,7c-.26.1-.6.43-.81,0s.23-.48.43-.61c2.26-1.46,2.94-3.7,3-6.19.07-3,0-6.08,0-9.12a1.91,1.91,0,0,0-.42-1.2q-5.41-7.6-10.8-15.26c-.26-.37-.86-.74-.61-1.18s.88-.11,1.35-.16C191.35,9.73,191.56,9.75,192,9.75Z"/><path class="cls-2" d="M96,25.69c.79,2.49-.66,3.92-2,5.19-3.53,3.21-7.67,4.37-12.3,2.82a11.31,11.31,0,0,1-8.05-9.55c-1.3-8.44,4.62-15,12.29-14.44a11.65,11.65,0,0,1,9.68,6.37c.16.29.49.69.06.93s-.48-.3-.66-.54c-3.52-4.62-9-6-13.54-3.37-3.56,2-5.48,6.73-4.56,11.12a9.5,9.5,0,0,0,8.42,7.83c4.35.43,7.55-1.46,9.88-5C95.46,26.63,95.7,26.22,96,25.69Z"/><path class="cls-2" d="M222.21,34.43a6.55,6.55,0,0,1-6.75-5.57c-.06-.37-.31-.88.21-1s.48.43.63.71c1.27,2.25,2.92,3.92,5.75,3.76a4.12,4.12,0,0,0,3.84-2.76,4.46,4.46,0,0,0-1-5,13.48,13.48,0,0,0-3.29-1.95A12.09,12.09,0,0,1,218,20.09a6.6,6.6,0,0,1-.08-8.47,6.31,6.31,0,0,1,8.09-.93A4.79,4.79,0,0,1,228,14c0,.26.17.59-.21.72s-.49-.18-.61-.43a5,5,0,0,0-1-1.36,3.81,3.81,0,0,0-5.21-.43,4,4,0,0,0-.28,5.34,8.74,8.74,0,0,0,2.71,2.13c.66.38,1.36.7,2,1a7.11,7.11,0,0,1,3.86,8.53C228.54,32.6,226,34.39,222.21,34.43Z"/><path class="cls-2" d="M250.22,10a3.16,3.16,0,0,1-3.1,1.41c-1.11-.12-2.24,0-3.35,0s-1.43.25-1.42,1.38c.05,6.6,0,13.19,0,19.79,0,1.89.19,1.63-1.67,1.65a6,6,0,0,0-.6,0c-.94.14-1.22-.22-1.22-1.18.05-6.68,0-13.36,0-20,0-1.59,0-1.59-1.63-1.59-1.47,0-2.95,0-4.43,0-.61,0-.75-.25-.74-.79s.11-.81.72-.81c5.76,0,11.52,0,17.27,0C250.13,9.79,250.15,9.85,250.22,10Z"/><path class="cls-2" d="M194.27,32.51a3.27,3.27,0,0,1-3,1.65c-4-.08-8,0-12,0-.91,0-1.15-.25-1.14-1.14q0-11,0-22.08c0-1,.32-1.23,1.24-1.2,2.61.08,2.23-.3,2.24,2.23,0,6.43,0,12.87,0,19.31,0,1,.29,1.27,1.28,1.26C186.62,32.47,190.32,32.51,194.27,32.51Z"/><path class="cls-2" d="M145.7,9.9a2.75,2.75,0,0,1-2.55,1.45c-1.12-.09-2.24,0-3.36,0-2,0-2,0-2,1.93,0,6.48,0,13,0,19.44,0,1.13-.23,1.53-1.43,1.46-2-.1-2,0-2-2,0-6.56,0-13.11,0-19.67,0-1-.26-1.24-1.2-1.2-1.6.08-3.2,0-4.8,0-.53,0-.94,0-.92-.74s.22-.86.84-.86c5.64,0,11.28,0,16.92,0A1.59,1.59,0,0,1,145.7,9.9Z"/><path class="cls-1" d="M7.25,40.63c-.69-.21-.77-.87-1-1.4a14.84,14.84,0,0,1-.09-9.65c2-6.31,1.71-12.68.92-19.1C7,9.21,6.76,8,6.61,6.68c0-.28-.29-.68.15-.82s.48.32.58.6c2.57,7.25,4.17,14.57,2,22.26a14.93,14.93,0,0,0-.41,8,17.47,17.47,0,0,0,1,2.4c-.34.31-.8.11-1.13.32s-.82.1-.62.69h0c-.61-.4-.7.25-1,.49Z"/><path class="cls-1" d="M37.72,22c0,3.63,0,7.27,0,10.9,0,.9-.17,1.24-1.16,1.21-2.22-.07-2.22,0-2.22-2.28,0-6.94,0-13.89,0-20.84,0-1,.19-1.31,1.23-1.27,2.16.07,2.16,0,2.16,2.22Z"/><path class="cls-1" d="M20.59,5.69c-.8,1.32-1.48,2.39-2.11,3.49a1.16,1.16,0,0,1-1.31.72,9.46,9.46,0,0,0-5.37.82c-.61.29-.81.14-1-.44-.93-2.41-1.9-4.81-2.86-7.22-.1-.25-.32-.53,0-.73s.47.16.62.38c1,1.48,2,3,3,4.47.3.46.55.66,1.15.44a6.76,6.76,0,0,1,3.42-.3c.86.14,1.2-.22,1.55-.88A51,51,0,0,0,20.16,1c.11-.28.11-.71.54-.67s.35.48.38.76c.25,2.26.48,4.52.72,6.78,0,.28.14.62-.24.69s-.37-.32-.43-.57C21,7.31,20.81,6.62,20.59,5.69Z"/><path class="cls-1" d="M117.73,52.14c1.6-1.3,2.71-1.37,4.13-.13.39.35.48.14.72-.08a2.89,2.89,0,0,1,3.23-.53c1.17.49,1.24,1.55,1.24,2.62,0,1.4,0,2.8,0,4.19,0,.33.14.78-.44.8s-.53-.46-.53-.84c0-1.44,0-2.87,0-4.31A1.62,1.62,0,0,0,124.5,52a1.87,1.87,0,0,0-2,1.63,32.47,32.47,0,0,0-.13,4.3c0,.41.3,1.09-.52,1.07s-.45-.63-.46-1c0-1.28,0-2.56,0-3.83,0-1.44-.51-2.13-1.52-2.17a2.1,2.1,0,0,0-2.14,2c-.12,1.23-.06,2.47-.07,3.71,0,.28,0,.56,0,.84s-.21.47-.54.47a.4.4,0,0,1-.43-.45V51.85c0-.27.08-.42.39-.47C117.65,51.29,117.42,52,117.73,52.14Z"/><path class="cls-1" d="M79.25,57.89c-1.85,1.32-3.64,1.29-4.8,0a4.68,4.68,0,0,1,.1-5.75c1.23-1.29,3-1.29,4.62,0,.24-.29.14-.95.81-.76s.34.65.34,1c0,2.07.08,4.15,0,6.22-.11,2.91-2.7,4.32-5.26,2.94A2.18,2.18,0,0,1,74,60.46c-.09-.23-.32-.56,0-.75a.65.65,0,0,1,.85.17C76,61.12,76.92,61.42,78,61S79.36,59.64,79.25,57.89Zm.09-2.83c0-1.77-1-3.05-2.35-3.08s-2.48,1.29-2.5,3.07,1,3,2.43,3S79.35,56.79,79.34,55.06Z"/><path class="cls-1" d="M59.76,58.17c-2,1.34-3.76,1.33-4.95,0a5,5,0,0,1,0-5.92c1.14-1.35,2.88-1.39,5,0,0-1,0-2,0-2.9,0-.34-.13-.75.45-.78s.61.34.61.77c0,2.92,0,5.84,0,8.75,0,.35.23.85-.38,1S60,58.46,59.76,58.17Zm.12-3a11.16,11.16,0,0,0-.2-1.29A2.38,2.38,0,0,0,55,54a4.4,4.4,0,0,0,.25,3,2.15,2.15,0,0,0,2,1.33,2.3,2.3,0,0,0,2.11-1.11A3.83,3.83,0,0,0,59.88,55.17Z"/><path class="cls-1" d="M157.29,58.25v2.88c0,.33,0,.64-.46.64s-.52-.23-.52-.6q0-4.61,0-9.21c0-.32.05-.54.43-.57.79-.07.35.64.59.91,1.73-1.4,3.55-1.51,4.82-.3a5.07,5.07,0,0,1,.41,5.89C161.48,59.42,159.88,59.56,157.29,58.25Zm5-3.12A3.14,3.14,0,0,0,161,52.29a2.48,2.48,0,0,0-2.95.46,4.25,4.25,0,0,0-.05,4.7,2.37,2.37,0,0,0,2.9.67A3.16,3.16,0,0,0,162.32,55.13Z"/><path class="cls-1" d="M90.18,55.49c-.76,0-1.52,0-2.27,0-.57,0-.68.22-.57.72a2.37,2.37,0,0,0,1.87,2.09A2.1,2.1,0,0,0,91.76,57c.21-.48.54-.77,1-.52s.05.64-.08.93a2.9,2.9,0,0,1-2.86,1.76,3,3,0,0,1-3.11-1.79,5.09,5.09,0,0,1,0-4.3,3.25,3.25,0,0,1,4-1.83A3.77,3.77,0,0,1,93,55c-.07.5-.37.44-.68.44Zm-.59-.9c.56,0,1.13,0,1.68,0,.75.06.79-.31.59-.87a2.33,2.33,0,0,0-2-1.71,2.15,2.15,0,0,0-2.12,1.08c-.27.39-.6.86-.37,1.31s.73.14,1.11.18S89.23,54.59,89.59,54.59Z"/><path class="cls-1" d="M19,55.48a15.38,15.38,0,0,1-1.92,0c-1-.1-1,.39-.76,1.13a2.3,2.3,0,0,0,2.06,1.74,2.1,2.1,0,0,0,2.24-1.26c.2-.46.48-.87.95-.61s.06.77-.11,1.09a2.85,2.85,0,0,1-2.72,1.62,3,3,0,0,1-3-1.52,5,5,0,0,1,0-4.83,3.24,3.24,0,0,1,4-1.51A3.82,3.82,0,0,1,21.94,55c-.05.44-.25.52-.62.51C20.56,55.47,19.8,55.48,19,55.48Zm-.53-.89c.64,0,1.28,0,1.91,0,.46,0,.55-.22.44-.6A2.45,2.45,0,0,0,19,52a2.12,2.12,0,0,0-2.31,1.08c-.25.4-.6.87-.35,1.31s.73.13,1.11.16S18.16,54.59,18.51,54.59Z"/><path class="cls-1" d="M49.83,55.48a15.22,15.22,0,0,1-1.91,0c-.89-.09-1,.3-.8,1a2.34,2.34,0,0,0,2,1.82,2.13,2.13,0,0,0,2.35-1.27c.2-.45.46-.84.94-.59s.08.72-.06,1a2.9,2.9,0,0,1-2.91,1.68,3,3,0,0,1-3-1.74,5.16,5.16,0,0,1,0-4.52,3.23,3.23,0,0,1,3.95-1.63A3.73,3.73,0,0,1,52.74,55c-.06.43-.26.52-.63.52Zm-.51-.89c.55,0,1.11,0,1.66,0,.75.06.79-.34.61-.87A2.32,2.32,0,0,0,49.66,52a2.2,2.2,0,0,0-2.26,1.21c-.64,1.06-.47,1.36.73,1.36Z"/><path class="cls-1" d="M168.43,55.48a15.44,15.44,0,0,1-1.8,0c-1-.09-1.2.25-.85,1.16a2.36,2.36,0,0,0,2.08,1.71,2.12,2.12,0,0,0,2.23-1.29c.22-.48.51-.83,1-.57s0,.71-.1,1a2.8,2.8,0,0,1-2.68,1.66,3,3,0,0,1-3.12-1.55,5.08,5.08,0,0,1,.06-4.93,3.21,3.21,0,0,1,4-1.34,3.83,3.83,0,0,1,2.2,3.66c-.07.46-.33.47-.67.47Zm-.61-.89c.6,0,1.19,0,1.79,0s.77-.2.6-.77A2.31,2.31,0,0,0,168.36,52a2.1,2.1,0,0,0-2.16.93c-.31.41-.69.94-.49,1.4s.84.16,1.28.22A5.75,5.75,0,0,0,167.82,54.59Z"/><path class="cls-1" d="M144.65,55.48h-1.79c-1.12,0-1.24.19-.81,1.25a2.26,2.26,0,0,0,2,1.6,2.12,2.12,0,0,0,2.23-1.28c.21-.47.48-.85.95-.57s.05.72-.1,1a3.41,3.41,0,0,1-5.92-.14,5.23,5.23,0,0,1,0-4.41,3.24,3.24,0,0,1,4-1.67A3.88,3.88,0,0,1,147.61,55c-.07.47-.36.45-.68.45C146.17,55.49,145.41,55.48,144.65,55.48Zm-.48-.89a13.62,13.62,0,0,1,1.43,0c1.08.12,1-.42.7-1.14a2.21,2.21,0,0,0-4.06-.23c-.63,1.1-.5,1.36.73,1.36Z"/><path class="cls-1" d="M190,57.86a3.07,3.07,0,0,1-3,1.31,2.11,2.11,0,0,1-2.15-1.86,2.05,2.05,0,0,1,1.73-2.46c.74-.18,1.5-.23,2.25-.34s1.24-.26,1.21-1a1.35,1.35,0,0,0-1.1-1.37,2.08,2.08,0,0,0-2.71,1.22.63.63,0,0,1-.76.39c-.53-.12-.25-.49-.18-.76.37-1.32,1.63-2,3.52-1.76A2.17,2.17,0,0,1,191,53.5c.05,1.12,0,2.24,0,3.36,0,.5-.24,1.17.62,1.32.23,0,.19.32.16.51s-.28.26-.46.28C190.63,59.05,190.19,58.69,190,57.86Zm0-2.18c.05-.43,0-.71-.64-.53-.8.22-1.64.28-2.45.48s-1.27.59-1.15,1.43a1.49,1.49,0,0,0,1.5,1.28A2.5,2.5,0,0,0,190.07,55.68Z"/><path class="cls-1" d="M42,55.48c-.76,0-1.52,0-2.28,0-.45,0-.65.11-.59.61A2.64,2.64,0,0,0,41.1,58.3a2.22,2.22,0,0,0,2.52-1.17,3.32,3.32,0,0,1,.25-.54.65.65,0,0,1,.78-.1c.33.15.08.42,0,.62a2.85,2.85,0,0,1-2.54,2c-1.45.14-2.75-.15-3.45-1.58a5.06,5.06,0,0,1,.11-4.93,3.24,3.24,0,0,1,4-1.27,4,4,0,0,1,2.13,3.72c-.08.4-.31.39-.6.39Zm-.49-.89a4.33,4.33,0,0,0,.72,0c.52-.1,1.33.32,1.5-.25a1.9,1.9,0,0,0-.94-1.92,2.18,2.18,0,0,0-3.25.81c-.21.37-.55.82-.33,1.21s.73.12,1.11.15S41.16,54.59,41.55,54.59Z"/><path class="cls-1" d="M132.45,55.48h-1.68c-1.24,0-1.34.14-.89,1.26a2.26,2.26,0,0,0,2.05,1.59,2.12,2.12,0,0,0,2.23-1.3c.21-.51.54-.8,1-.56s0,.72-.11,1a3.4,3.4,0,0,1-6-.19,5.32,5.32,0,0,1-.08-4,3.23,3.23,0,0,1,3.95-2.08,3.67,3.67,0,0,1,2.51,3.68c0,.51-.28.58-.69.57C134,55.47,133.21,55.48,132.45,55.48Zm-.4-.89h1.78c.34,0,.66,0,.52-.51a2.46,2.46,0,0,0-1.79-2,2.11,2.11,0,0,0-2.35,1c-.29.43-.66,1-.45,1.41s.8.11,1.22.14S131.69,54.59,132.05,54.59Z"/><path class="cls-1" d="M220,59.17c-1.75,0-2.83-.7-3.11-1.94-.06-.25-.32-.66.23-.74a.56.56,0,0,1,.71.39,2.18,2.18,0,0,0,2.9,1.34c.62-.18,1.13-.47,1.18-1.18s-.47-1.07-1.07-1.25-1.48-.35-2.2-.58a1.89,1.89,0,0,1-1.6-2,2.05,2.05,0,0,1,1.76-2c1.62-.45,3.26.16,3.69,1.4.1.29.41.73-.07.93s-.71,0-.86-.5A1.61,1.61,0,0,0,219.82,52c-.77,0-1.62.1-1.81,1s.63,1.18,1.32,1.4c.49.16,1,.25,1.51.37,1.43.33,2.13,1.1,2,2.24a2.38,2.38,0,0,1-2.27,2.09C220.34,59.17,220.06,59.16,220,59.17Z"/><path class="cls-1" d="M210.08,52.22a3.52,3.52,0,0,1,2.18-1.06c1.79-.08,2.74.63,2.87,2.42.11,1.58.06,3.18.09,4.78,0,.34,0,.64-.49.65s-.58-.25-.58-.67c0-1.36,0-2.72,0-4.07,0-1.51-.54-2.2-1.7-2.28a2.26,2.26,0,0,0-2.39,2.17c-.1,1.27,0,2.55-.07,3.83,0,.37.28,1-.45,1s-.5-.59-.5-1c0-1.92,0-3.83,0-5.75,0-.32-.27-.84.42-.91S210,51.8,210.08,52.22Z"/><path class="cls-1" d="M207.4,55.18c0,2.49-1.37,4-3.6,4s-3.55-1.58-3.56-4,1.44-4.06,3.58-4.07S207.41,52.72,207.4,55.18Zm-1-.06c0-1.8-1.16-3.17-2.63-3.15s-2.58,1.46-2.6,3.21a2.9,2.9,0,0,0,2.73,3.17C205.41,58.3,206.46,56.94,206.44,55.12Z"/><path class="cls-1" d="M94.4,55.17c0-1,0-2.08,0-3.11,0-.78.64-.91.86-.56.49.78.77.24,1.16,0a2.68,2.68,0,0,1,4.19,2.37c0,1.44,0,2.88,0,4.31,0,.33.15.77-.44.8s-.52-.46-.52-.83c0-1.32,0-2.63,0-4S99,52,97.84,52a2.22,2.22,0,0,0-2.32,2.11c-.11,1.35,0,2.72-.06,4.07,0,.39.11.85-.53.85s-.53-.46-.53-.84C94.39,57.17,94.4,56.17,94.4,55.17Z"/><path class="cls-1" d="M103.17,58.16h4.4c.27,0,.69-.17.71.37s-.41.48-.75.48q-2.34,0-4.68,0c-.3,0-.69.16-.87-.2s0-.76.29-1.08c1.16-1.43,2.32-2.85,3.47-4.29.23-.29.74-.55.55-1s-.79-.23-1.19-.25c-.76,0-1.52,0-2.28,0-.3,0-.55,0-.54-.43s.3-.39.57-.39c1.36,0,2.72,0,4.08,0,.36,0,.87-.24,1.08.21s-.22.81-.49,1.15L104,57.13C103.74,57.4,103.53,57.69,103.17,58.16Z"/><path class="cls-1" d="M65.8,55.19c0-1.08,0-2.16,0-3.24,0-.22-.07-.51.29-.54s.59-.13.62.16c.12,1.17.56.26.79.11a2.7,2.7,0,0,1,4.43,2c.11,1.52,0,3,.08,4.56,0,.38,0,.73-.54.73s-.53-.36-.53-.74q0-2.1,0-4.2A1.81,1.81,0,0,0,69.38,52,2.16,2.16,0,0,0,67,53.56c-.46,1.44-.1,2.94-.23,4.4,0,.37.31,1-.42,1s-.5-.65-.52-1C65.76,57,65.8,56.11,65.8,55.19Z"/><path class="cls-1" d="M112.25,57.63c.72-2,1.37-3.75,2-5.51.16-.46.33-.89.88-.71s.12.68,0,.93c-1,2.66-2,5.3-3,7.95a1.88,1.88,0,0,1-2,1.48c-.32,0-.65,0-.65-.47s.26-.37.55-.41a1.88,1.88,0,0,0,1.45-2.57c-.76-2-1.56-3.93-2.33-5.9-.12-.31-.58-.75-.12-1s.89.19,1.09.74c.53,1.46,1.1,2.91,1.66,4.36C111.89,56.83,112,57.12,112.25,57.63Z"/><path class="cls-1" d="M155.27,59c-2.31,0-2.33-2.3-3.66-3-1.22.76-1.29,2.89-3.55,3,.95-1.28,1.69-2.36,2.51-3.36a.87.87,0,0,0,0-1.32c-.73-.9-1.39-1.85-2.1-2.82.84-.42,1.29,0,1.75.63,1.47,2,1.5,2,3,0a1.35,1.35,0,0,1,1.74-.64c-.67.91-1.28,1.82-2,2.64a1.11,1.11,0,0,0,0,1.73C153.7,56.8,154.38,57.82,155.27,59Z"/><path class="cls-1" d="M33.87,51.16a2.8,2.8,0,0,1,2.87,1.73c.09.27.48.69-.1.89a.61.61,0,0,1-.83-.46A1.94,1.94,0,0,0,33.75,52c-1.4,0-2.41,1.34-2.46,3s.92,3.17,2.32,3.29a2,2,0,0,0,2.23-1.42c.17-.47.37-.88.91-.64s.1.71,0,1a2.75,2.75,0,0,1-2.41,1.88A3.22,3.22,0,0,1,31,57.72,4.64,4.64,0,0,1,30.78,53,3.18,3.18,0,0,1,33.87,51.16Z"/><path class="cls-1" d="M176.05,59.17a3.14,3.14,0,0,1-3.2-2,4.54,4.54,0,0,1,.5-4.87,3.35,3.35,0,0,1,3.58-1.08,2.41,2.41,0,0,1,1.88,1.52c.11.3.59.74,0,1-.44.19-.68-.13-.9-.53a2.08,2.08,0,0,0-3.2-.81,2.56,2.56,0,0,0-.8.87,3.83,3.83,0,0,0,0,3.78,2.28,2.28,0,0,0,2.17,1.26,2,2,0,0,0,1.9-1.41c.17-.43.31-.93.87-.66s.14.77,0,1.11A2.73,2.73,0,0,1,176.05,59.17Z"/><path class="cls-1" d="M182.76,59.09c-1,0-1.6-.47-1.58-1.54,0-1.32,0-2.64,0-3.95,0-.7.21-1.54-1-1.41-.22,0-.35-.14-.36-.38s.11-.42.33-.4c1.29.14,1-.78,1-1.49,0-.27-.11-.6.18-.76a.71.71,0,0,1,.57,0c.34.13.21.47.22.73,0,.8-.26,1.81,1.18,1.53.24,0,.33.15.35.38,0,.4-.24.47-.54.43-.94-.15-1,.37-1,1.12,0,1.27,0,2.55,0,3.83,0,.5,0,1,.7,1,.34,0,.9-.19.81.51S183.05,59,182.76,59.09Z"/><path class="cls-1" d="M193.58,55.21v-1.8c0-.63.14-1.36-.91-1.21-.33,0-.4-.17-.39-.45s.12-.39.36-.35c1.15.15.9-.67,1-1.31,0-.37-.26-1,.47-1s.52.59.5,1c-.05.85,0,1.53,1.16,1.34.31,0,.41.15.4.44s-.21.41-.47.36c-1.13-.2-1.1.53-1.08,1.3,0,1.16,0,2.31,0,3.47,0,.68.07,1.32,1,1.23.32,0,.53,0,.52.44s-.24.41-.55.45c-1.26.15-1.91-.35-2-1.61,0-.75,0-1.51,0-2.27Z"/><path class="cls-1" d="M198.66,55.16c0,1.08,0,2.15,0,3.22,0,.36-.06.63-.5.63s-.5-.29-.5-.64c0-2.14,0-4.29,0-6.43,0-.32.06-.54.44-.55s.57.14.56.56C198.64,53,198.66,54.09,198.66,55.16Z"/><path class="cls-1" d="M63.84,55.31c0,1,0,2,0,3,0,.39,0,.73-.56.7s-.42-.39-.42-.7V52.07c0-.3-.1-.66.42-.68s.57.26.56.68C63.83,53.15,63.84,54.23,63.84,55.31Z"/><path class="cls-1" d="M198.65,49.26c0,.4,0,.76-.5.75s-.44-.51-.48-.86.06-.68.56-.64S198.61,49,198.65,49.26Z"/><path class="cls-1" d="M63.84,49.21c0,.4.09.83-.55.8s-.39-.48-.41-.78-.12-.74.47-.73S63.86,48.86,63.84,49.21Z"/></svg>
