<?xml version="1.0" encoding="utf-8"?>
<!-- Generator: Adobe Illustrator 19.0.0, SVG Export Plug-In . SVG Version: 6.00 Build 0)  -->
<svg version="1.1" id="Layer_1" xmlns="http://www.w3.org/2000/svg" xmlns:xlink="http://www.w3.org/1999/xlink" x="0px" y="0px"
	 viewBox="0 0 124.6 82" style="enable-background:new 0 0 124.6 82;" xml:space="preserve">
<rect x="-22.3" y="-22" style="fill:none;" width="169.3" height="126.2"/>
<g>
	<g>
		<path d="M1.7,71.1H0v10.7h6.3V80c0,0-3.8,0-4.3,0c0-0.5,0-8.9,0-8.9H1.7z"/>
		<path d="M7,76.5c0,3.4,2,5.5,5.2,5.5c3.1,0,5.2-2.2,5.2-5.5c0-3.3-2.1-5.5-5.2-5.5C9.1,70.9,7,73.2,7,76.5z M14.2,73.6
			c0.7,0.7,1.1,1.7,1.1,2.9c0,1.8-0.8,3.7-3.1,3.7c-2.3,0-3.1-1.9-3.1-3.7c0-1.2,0.4-2.3,1.1-2.9c0.5-0.5,1.2-0.8,2-0.8
			C13,72.8,13.7,73.1,14.2,73.6z"/>
		<path d="M25.8,71.1h-8.1V73c0,0,2.7,0,3.2,0c0,0.5,0,8.9,0,8.9h2c0,0,0-8.4,0-8.9c0.5,0,3,0,3,0v-1.8H25.8z"/>
		<path d="M35,71.1h-7.9V73c0,0,2.5,0,3,0c0,0.5,0,8.9,0,8.9h2c0,0,0-8.4,0-8.9c0.5,0,3.2,0,3.2,0v-1.8H35z"/>
		<path d="M42.4,71.1h-6v10.7h6.3V80c0,0-3.8,0-4.2,0c0-0.4,0-2.4,0-2.8c0.5,0,3.9,0,3.9,0v-1.8c0,0-3.4,0-3.9,0c0-0.4,0-2,0-2.4
			c0.5,0,4.2,0,4.2,0v-1.8H42.4z"/>
		<path d="M44.9,71.1h-0.3v10.7h2c0,0,0-4,0-4.5c0.3,0,0.6,0,0.6,0c0.8,0,1.1,0,1.5,0.8l1.6,3.7h2.3l-2.1-4.5
			c-0.2-0.4-0.4-0.7-0.6-0.8c1.1-0.4,1.7-1.3,1.7-2.4c0-2.7-2.1-3-4.2-3H44.9z M47.8,73c0.7,0,1.8,0.2,1.8,1.2
			c0,0.8-0.7,1.3-1.9,1.3c0,0-0.6,0-1,0c0-0.4,0-2.1,0-2.5C47,73,47.8,73,47.8,73z"/>
		<path d="M61.9,71.1H60c0,0-2.4,3.7-2.8,4.3c-0.4-0.6-2.9-4.3-2.9-4.3h-2.4c0,0,4.1,6.1,4.2,6.3c0,0.2,0,4.5,0,4.5h2
			c0,0,0-4.3,0-4.5c0.1-0.1,4.2-6.3,4.2-6.3H61.9z"/>
		<path d="M73.2,71.1h-5.7v10.7h2c0,0,0-4.1,0-4.6c0.5,0,3.8,0,3.8,0v-1.8c0,0-3.3,0-3.8,0c0-0.4,0-2,0-2.4c0.5,0,4,0,4,0v-1.8H73.2
			z"/>
		<path d="M83.6,71.1h-1.7v6.1c0,2.1-0.7,3-2.2,3c-1.5,0-2.2-0.9-2.2-3v-6.1h-2v6.2c0,3,1.5,4.7,4.2,4.7c2.7,0,4.2-1.7,4.2-4.7v-6.2
			H83.6z"/>
		<path d="M94.4,71.1h-1.7c0,0,0,5.8,0,7.4c-0.8-1.4-4.1-7.4-4.1-7.4h-2.4v10.7h2c0,0,0-6,0-7.6c0.8,1.4,4.2,7.6,4.2,7.6h2.3V71.1
			H94.4z"/>
		<path d="M97.1,71.1h-0.3v10.7h3.3c3.6,0,5.7-2,5.7-5.5c0-3.1-2.3-5.3-5.7-5.3H97.1z M100.3,73c2.1,0,3.4,1.4,3.4,3.5
			c0,2.4-1.2,3.6-3.6,3.6c0,0-0.9,0-1.3,0c0-0.5,0-6.5,0-7C99.2,73,100.3,73,100.3,73z"/>
		<path d="M113.5,71.1h-6v10.7h6.3V80c0,0-3.8,0-4.2,0c0-0.4,0-2.4,0-2.8c0.5,0,3.9,0,3.9,0v-1.8c0,0-3.4,0-3.9,0c0-0.4,0-2,0-2.4
			c0.5,0,4.2,0,4.2,0v-1.8H113.5z"/>
		<path d="M115.9,71.1h-0.3v10.7h3.3c3.6,0,5.7-2,5.7-5.5c0-3.1-2.3-5.3-5.7-5.3H115.9z M119.1,73c2.1,0,3.4,1.4,3.4,3.5
			c0,2.4-1.2,3.6-3.6,3.6c0,0-0.9,0-1.2,0c0-0.5,0-6.5,0-7C118.1,73,119.1,73,119.1,73z"/>
	</g>
	<g>
		<path d="M32,30.4c1.1-0.9,2.4-1.2,3.4-0.8c1.6,0.7,1.7,2.9,0.6,5.3c-0.5,1-1.2,1.9-2,2.4c-1,0.8-2.1,1.1-3,0.7
			c-2.1-0.8-2.5-4.9-0.9-9.1c1.6-4.2,4.6-7,6.7-6.2c1.9,0.7,2.5,4.2,1.3,8c0.2-1.4-0.3-2.7-1.4-3.2c-1.5-0.7-3.5,0.4-4.6,2.5
			C32.1,30.2,32,30.3,32,30.4z"/>
		<path d="M44.7,32.7c0.5-2.9-0.2-5.1-1.8-5.1c-1.8,0-4.1,2.8-5,6.2C37,37.2,37.7,40,39.5,40c1.2,0,2.5-1.2,3.6-2.9
			c0.2-0.3,0.3-0.5,0.4-0.8c0.7-1.9,0.4-3.7-0.9-4.1c-0.8-0.2-1.7-0.1-2.5,0.7c0-0.1,0.1-0.2,0.1-0.3c0.7-1.6,2.2-2.6,3.4-2.2
			C44.3,30.7,44.8,31.6,44.7,32.7z"/>
		<path d="M26.4,6.2c-2-4.5-4-7.2-6-5.9c-2.5,1.7-2,6.2,1.1,13.9C22.9,11.4,24.6,8.5,26.4,6.2z"/>
		<path d="M44.2,37.2c-0.1,0.2-0.2,0.5-0.3,0.7c-1.2,2.2-2.9,3.7-4.6,3.7c-1.8,0-3.1-1.8-3.5-4.3c-0.5,0.6-1.1,1.2-1.7,1.6
			c-1.3,0.9-2.7,1.2-3.8,0.7c-2.8-1.1-3.5-5.9-1.7-10.8c0.8-2.2,2.1-4.1,3.5-5.4c-0.3-1.3-0.7-2.8-1.1-4.3c-0.2,0.4-0.4,0.7-0.6,1.1
			c-1,1.9-2.2,3.1-3.5,3.9c0.9-1.5,1.7-3,2.4-4.5c3.8-7.6,6.9-14.2,4.1-15.9c-3.5-2-8.2,5.1-11.7,12.7C18.2,24.3,16.1,32,16.1,32
			s-3.5-6.6-10.4-6.6c-3.5,0-5.7,1.7-5.7,3.2c0,1.1,0.9,1.8,2,2.1c2.2,0.6,3.4,1.4,5.1,3.8c1.7,2.3,3,8,3.3,9.4
			C12.3,51.4,19.1,57,27.2,57c9.5,0,17.2-7.7,17.2-17.2C44.4,38.9,44.4,38.1,44.2,37.2z M30.5,50.5c-6.1,0-11.5-5.6-14-13.8
			c3.5,6.3,9.4,10.5,16,10.5c2.7,0,5.3-0.7,7.6-1.9C37.5,48.5,34.2,50.5,30.5,50.5z"/>
	</g>
	<g>
		<g>
			<rect x="55.9" y="0.3" width="0.9" height="56.7"/>
		</g>
	</g>
	<g>
		<g>
			<path d="M41.1,1.8c0.7,0,1.3,0.2,1.8,0.5c0.6,0.3,1,0.8,1.3,1.3c0.3,0.6,0.5,1.2,0.5,1.8c0,0.7-0.2,1.3-0.5,1.8
				c-0.3,0.6-0.8,1-1.3,1.3c-0.6,0.3-1.2,0.5-1.8,0.5c-0.7,0-1.3-0.2-1.8-0.5c-0.6-0.3-1-0.8-1.3-1.3c-0.3-0.6-0.5-1.2-0.5-1.8
				c0-0.7,0.2-1.3,0.5-1.8c0.3-0.6,0.8-1,1.3-1.3C39.8,2,40.4,1.8,41.1,1.8z M41.1,2.4c-0.8,0-1.6,0.3-2.2,0.9
				C38.3,3.9,38,4.7,38,5.5s0.3,1.6,0.9,2.2c0.6,0.6,1.3,0.9,2.2,0.9c0.8,0,1.6-0.3,2.2-0.9c0.6-0.6,0.9-1.3,0.9-2.2
				c0-0.8-0.3-1.6-0.9-2.2C42.6,2.7,41.9,2.4,41.1,2.4z M40.2,7.5h-0.6V3.5H41c0.5,0,0.8,0,1,0.1c0.2,0.1,0.4,0.2,0.5,0.4
				c0.1,0.2,0.2,0.4,0.2,0.6c0,0.3-0.1,0.6-0.3,0.8c-0.2,0.2-0.5,0.3-0.8,0.4c0.1,0.1,0.3,0.2,0.4,0.3c0.1,0.1,0.3,0.4,0.5,0.7
				l0.5,0.8h-0.8l-0.3-0.6c-0.3-0.4-0.4-0.7-0.6-0.9c-0.1-0.1-0.3-0.2-0.6-0.2h-0.4V7.5z M40.2,4.1v1.2H41c0.3,0,0.6,0,0.7-0.1
				C41.9,5,42,4.9,42,4.7c0-0.2-0.1-0.4-0.2-0.5c-0.1-0.1-0.4-0.1-0.8-0.1H40.2z"/>
		</g>
		<g>
			<path d="M32,30.4c1.1-0.9,2.4-1.2,3.4-0.8c1.6,0.7,1.7,2.9,0.6,5.3c-0.5,1-1.2,1.9-2,2.4c-1,0.8-2.1,1.1-3,0.7
				c-2.1-0.8-2.5-4.9-0.9-9.1c1.6-4.2,4.6-7,6.7-6.2c1.9,0.7,2.5,4.2,1.3,8c0.2-1.4-0.3-2.7-1.4-3.2c-1.5-0.7-3.5,0.4-4.6,2.5
				C32.1,30.2,32,30.3,32,30.4z"/>
			<path d="M44.7,32.7c0.5-2.9-0.2-5.1-1.8-5.1c-1.8,0-4.1,2.8-5,6.2C37,37.2,37.7,40,39.5,40c1.2,0,2.5-1.2,3.6-2.9
				c0.2-0.3,0.3-0.5,0.4-0.8c0.7-1.9,0.4-3.7-0.9-4.1c-0.8-0.2-1.7-0.1-2.5,0.7c0-0.1,0.1-0.2,0.1-0.3c0.7-1.6,2.2-2.6,3.4-2.2
				C44.3,30.7,44.8,31.6,44.7,32.7z"/>
			<path d="M26.4,6.2c-2-4.5-4-7.2-6-5.9c-2.5,1.7-2,6.2,1.1,13.9C22.9,11.4,24.6,8.5,26.4,6.2z"/>
			<path d="M44.2,37.2c-0.1,0.2-0.2,0.5-0.3,0.7c-1.2,2.2-2.9,3.7-4.6,3.7c-1.8,0-3.1-1.8-3.5-4.3c-0.5,0.6-1.1,1.2-1.7,1.6
				c-1.3,0.9-2.7,1.2-3.8,0.7c-2.8-1.1-3.5-5.9-1.7-10.8c0.8-2.2,2.1-4.1,3.5-5.4c-0.3-1.3-0.7-2.8-1.1-4.3
				c-0.2,0.4-0.4,0.7-0.6,1.1c-1,1.9-2.2,3.1-3.5,3.9c0.9-1.5,1.7-3,2.4-4.5c3.8-7.6,6.9-14.2,4.1-15.9c-3.5-2-8.2,5.1-11.7,12.7
				C18.2,24.3,16.1,32,16.1,32s-3.5-6.6-10.4-6.6c-3.5,0-5.7,1.7-5.7,3.2c0,1.1,0.9,1.8,2,2.1c2.2,0.6,3.4,1.4,5.1,3.8
				c1.7,2.3,3,8,3.3,9.4C12.3,51.4,19.1,57,27.2,57c9.5,0,17.2-7.7,17.2-17.2C44.4,38.9,44.4,38.1,44.2,37.2z M30.6,50.5
				c-6.1,0-11.5-5.6-14-13.8c3.5,6.3,9.4,10.5,16,10.5c2.7,0,5.3-0.7,7.6-1.9C37.5,48.5,34.2,50.5,30.6,50.5z"/>
		</g>
	</g>
</g>
<g>
	<g>
		<circle cx="76.2" cy="48.7" r="0.1"/>
		<circle cx="77.5" cy="47.4" r="0.5"/>
		<path d="M77.5,49c-0.1,0-0.2-0.1-0.2-0.2c0-0.1,0.1-0.2,0.2-0.2c0.1,0,0.2,0.1,0.2,0.2C77.8,48.9,77.7,49,77.5,49z"/>
		<circle cx="77.5" cy="50.1" r="0.1"/>
		<circle cx="78.9" cy="48.7" r="0.5"/>
		<circle cx="78.9" cy="50.1" r="0.2"/>
		<circle cx="78.9" cy="51.4" r="0.1"/>
		<circle cx="80.2" cy="50.1" r="0.4"/>
		<circle cx="80.2" cy="51.4" r="0.2"/>
		<circle cx="80.2" cy="52.8" r="0.1"/>
		<circle cx="81.6" cy="51.4" r="0.3"/>
		<circle cx="81.6" cy="52.8" r="0.1"/>
		<circle cx="89.6" cy="54.1" r="0.5"/>
		<circle cx="88.3" cy="54.1" r="0.4"/>
		<circle cx="86.9" cy="54.1" r="0.3"/>
		<circle cx="85.6" cy="54.1" r="0.2"/>
		<circle cx="86.9" cy="55.4" r="0.1"/>
		<circle cx="89.6" cy="56.8" r="0.1"/>
		<circle cx="85.6" cy="55.4" r="0.1"/>
		<circle cx="82.9" cy="54.1" r="0.1"/>
		<circle cx="88.3" cy="55.4" r="0.1"/>
		<circle cx="89.6" cy="55.4" r="0.2"/>
		<circle cx="90.9" cy="55.4" r="0.3"/>
		<path d="M90.8,56.8C90.8,56.8,90.9,56.9,90.8,56.8c0.1,0.1,0.2,0.1,0.2,0C91,56.7,91,56.7,90.8,56.8
			C90.9,56.7,90.8,56.7,90.8,56.8z"/>
		<circle cx="84.2" cy="54.1" r="0.1"/>
		<circle cx="85.6" cy="52.8" r="0.5"/>
		<circle cx="84.2" cy="52.8" r="0.4"/>
		<circle cx="82.9" cy="52.8" r="0.2"/>
		<path d="M82.4,51.4c0,0.3,0.2,0.5,0.5,0.5c0.3,0,0.5-0.2,0.5-0.5c0-0.3-0.2-0.5-0.5-0.5C82.6,50.9,82.4,51.1,82.4,51.4z"/>
		<circle cx="76.2" cy="47.4" r="0.2"/>
		<circle cx="74.8" cy="47.4" r="0.1"/>
		<circle cx="76.2" cy="46.1" r="0.5"/>
		<circle cx="74.8" cy="46.1" r="0.2"/>
		<circle cx="73.5" cy="46.1" r="0.1"/>
		<circle cx="74.9" cy="44.7" r="0.4"/>
		<circle cx="73.5" cy="44.7" r="0.2"/>
		<circle cx="72.2" cy="44.7" r="0.1"/>
		<circle cx="73.5" cy="43.4" r="0.3"/>
		<path d="M72,43.4c0,0.1,0.1,0.1,0.1,0.1c0.1,0,0.1-0.1,0.1-0.1c0-0.1-0.1-0.1-0.1-0.1C72.1,43.3,72,43.3,72,43.4z"/>
		<circle cx="70.8" cy="35.3" r="0.5"/>
		<circle cx="70.8" cy="36.7" r="0.4"/>
		<circle cx="70.8" cy="38" r="0.3"/>
		<circle cx="70.8" cy="39.4" r="0.2"/>
		<circle cx="69.5" cy="38" r="0.1"/>
		<circle cx="68.1" cy="35.3" r="0.1"/>
		<circle cx="69.5" cy="39.4" r="0.1"/>
		<path d="M70.8,42.1C70.8,42.1,70.8,42.1,70.8,42.1c-0.1-0.1,0-0.1,0-0.1C70.9,42,70.9,42,70.8,42.1C70.9,42.1,70.9,42.1,70.8,42.1
			z"/>
		<circle cx="69.5" cy="36.7" r="0.1"/>
		<circle cx="69.5" cy="35.3" r="0.2"/>
		<circle cx="69.5" cy="34" r="0.3"/>
		<circle cx="68.1" cy="34" r="0.1"/>
		<circle cx="70.8" cy="40.7" r="0.1"/>
		<circle cx="72.2" cy="39.4" r="0.5"/>
		<circle cx="72.2" cy="40.7" r="0.4"/>
		<path d="M72.2,42.2c-0.1,0-0.2-0.1-0.2-0.2c0-0.1,0.1-0.2,0.2-0.2c0.1,0,0.2,0.1,0.2,0.2C72.4,42.1,72.3,42.2,72.2,42.2z"/>
		<circle cx="73.5" cy="42" r="0.5"/>
		<circle cx="76.2" cy="8.5" r="0.1"/>
		<circle cx="77.5" cy="9.9" r="0.5"/>
		<circle cx="77.5" cy="8.5" r="0.2"/>
		<circle cx="77.5" cy="7.2" r="0.1"/>
		<circle cx="78.9" cy="8.5" r="0.5"/>
		<circle cx="78.9" cy="7.2" r="0.2"/>
		<circle cx="78.9" cy="5.8" r="0.1"/>
		<circle cx="80.2" cy="7.2" r="0.4"/>
		<circle cx="80.2" cy="5.8" r="0.2"/>
		<circle cx="80.2" cy="4.5" r="0.1"/>
		<circle cx="81.6" cy="5.8" r="0.3"/>
		<circle cx="81.6" cy="4.5" r="0.1"/>
		<circle cx="89.6" cy="3.1" r="0.5"/>
		<circle cx="88.3" cy="3.1" r="0.4"/>
		<circle cx="86.9" cy="3.1" r="0.3"/>
		<circle cx="85.6" cy="3.1" r="0.2"/>
		<circle cx="86.9" cy="1.8" r="0.1"/>
		<circle cx="89.6" cy="0.5" r="0.1"/>
		<circle cx="85.6" cy="1.8" r="0.1"/>
		<circle cx="82.9" cy="3.1" r="0.1"/>
		<circle cx="88.3" cy="1.8" r="0.1"/>
		<circle cx="89.6" cy="1.8" r="0.2"/>
		<circle cx="90.9" cy="1.8" r="0.3"/>
		<path d="M91.9,1.8L91.9,1.8c0,0.2,0.2,0.4,0.4,0.4c0.2,0,0.4-0.2,0.4-0.4c0-0.2-0.2-0.4-0.4-0.4C92.1,1.4,91.9,1.6,91.9,1.8z"/>
		<path d="M93.3,1.5c-0.1,0.1-0.1,0.2-0.1,0.3l0,0c0,0.1,0,0.2,0.1,0.3c0.1,0.1,0.2,0.1,0.3,0.1C93.8,2.2,94,2,94,1.8
			c0-0.2-0.2-0.4-0.4-0.4C93.5,1.4,93.4,1.4,93.3,1.5z"/>
		<path d="M94.6,1.5c-0.1,0.1-0.1,0.2-0.1,0.3c0,0.1,0,0.2,0.1,0.3c0.1,0.1,0.2,0.1,0.3,0.1c0.3,0,0.5-0.2,0.5-0.5
			c0-0.3-0.2-0.5-0.5-0.5C94.8,1.4,94.7,1.4,94.6,1.5z"/>
		<circle cx="90.9" cy="0.5" r="0.1"/>
		<path d="M92.1,0.5L92.1,0.5c0,0.1,0.1,0.2,0.2,0.2c0.1,0,0.2-0.1,0.2-0.2s-0.1-0.2-0.2-0.2C92.2,0.3,92.1,0.4,92.1,0.5z"/>
		<path d="M93.6,0.3c-0.1,0-0.2,0.1-0.2,0.2l0,0c0,0.1,0.1,0.2,0.2,0.2c0.1,0,0.2-0.1,0.2-0.2c0,0,0-0.1-0.1-0.1
			C93.7,0.3,93.7,0.3,93.6,0.3z"/>
		<path d="M94.8,0.5L94.8,0.5c0,0.1,0.1,0.2,0.2,0.2c0,0,0.1,0,0.1-0.1c0,0,0.1-0.1,0.1-0.1c0,0,0-0.1-0.1-0.1c0,0-0.1-0.1-0.1-0.1
			C94.9,0.3,94.8,0.4,94.8,0.5z"/>
		<circle cx="84.2" cy="3.1" r="0.1"/>
		<circle cx="85.6" cy="4.5" r="0.5"/>
		<circle cx="84.2" cy="4.5" r="0.4"/>
		<circle cx="82.9" cy="4.5" r="0.2"/>
		<circle cx="82.9" cy="5.8" r="0.5"/>
		<path d="M96,1.5c-0.1,0.1-0.1,0.2-0.1,0.3c0,0.3,0.2,0.5,0.5,0.5c0.3,0,0.5-0.2,0.5-0.5c0-0.3-0.2-0.5-0.5-0.5
			C96.2,1.3,96.1,1.4,96,1.5z"/>
		<path d="M96.3,0.3c-0.1,0-0.1,0-0.1,0.1c0,0-0.1,0.1-0.1,0.1c0,0.1,0,0.1,0.1,0.1c0,0,0.1,0.1,0.1,0.1c0.1,0,0.1,0,0.1-0.1
			c0,0,0.1-0.1,0.1-0.1l0,0C96.5,0.4,96.4,0.3,96.3,0.3z"/>
		<circle cx="76.2" cy="9.9" r="0.2"/>
		<circle cx="74.8" cy="9.9" r="0.1"/>
		<path d="M75.7,11.2c0-0.3,0.2-0.5,0.5-0.5c0.3,0,0.5,0.2,0.5,0.5c0,0.3-0.2,0.5-0.5,0.5C75.9,11.7,75.7,11.5,75.7,11.2z"/>
		<circle cx="74.8" cy="11.2" r="0.2"/>
		<circle cx="73.5" cy="11.2" r="0.1"/>
		<circle cx="74.8" cy="12.5" r="0.4"/>
		<circle cx="73.5" cy="12.5" r="0.2"/>
		<circle cx="72.2" cy="12.5" r="0.1"/>
		<circle cx="73.5" cy="13.9" r="0.3"/>
		<circle cx="72.2" cy="13.9" r="0.1"/>
		<circle cx="70.8" cy="21.9" r="0.5"/>
		<circle cx="70.8" cy="20.6" r="0.4"/>
		<circle cx="70.8" cy="19.2" r="0.3"/>
		<circle cx="70.8" cy="17.9" r="0.2"/>
		<circle cx="69.5" cy="19.2" r="0.1"/>
		<circle cx="68.1" cy="21.9" r="0.1"/>
		<circle cx="112.4" cy="52.8" r="0.1"/>
		<circle cx="103" cy="56.8" r="0.1"/>
		<circle cx="120.4" cy="44.7" r="0.1"/>
		<circle cx="124.5" cy="35.3" r="0.1"/>
		<circle cx="112.4" cy="4.5" r="0.1"/>
		<circle cx="103" cy="0.5" r="0.1"/>
		<circle cx="120.4" cy="12.5" r="0.1"/>
		<circle cx="124.5" cy="21.9" r="0.1"/>
		<circle cx="69.5" cy="17.9" r="0.1"/>
		<circle cx="70.8" cy="15.2" r="0.1"/>
		<circle cx="69.5" cy="20.6" r="0.1"/>
		<circle cx="69.5" cy="21.9" r="0.2"/>
		<circle cx="69.5" cy="23.3" r="0.3"/>
		<circle cx="68.1" cy="23.3" r="0.1"/>
		<circle cx="70.8" cy="16.6" r="0.1"/>
		<circle cx="72.2" cy="17.9" r="0.5"/>
		<circle cx="72.2" cy="16.6" r="0.4"/>
		<circle cx="72.2" cy="15.2" r="0.2"/>
		<circle cx="73.5" cy="15.2" r="0.5"/>
		<circle cx="116.4" cy="48.7" r="0.1"/>
		<path d="M115.1,47.9c0.3,0,0.5-0.2,0.5-0.5c0-0.3-0.2-0.5-0.5-0.5c-0.3,0-0.5,0.2-0.5,0.5C114.6,47.7,114.8,47.9,115.1,47.9z"/>
		<path d="M115.1,49c0.1,0,0.2-0.1,0.2-0.2c0-0.1-0.1-0.2-0.2-0.2c-0.1,0-0.2,0.1-0.2,0.2C114.8,48.9,114.9,49,115.1,49z"/>
		<circle cx="115.1" cy="50.1" r="0.1"/>
		<circle cx="113.7" cy="48.7" r="0.5"/>
		<circle cx="113.7" cy="50.1" r="0.2"/>
		<circle cx="113.7" cy="51.4" r="0.1"/>
		<circle cx="112.4" cy="50.1" r="0.4"/>
		<circle cx="112.4" cy="51.4" r="0.2"/>
		<circle cx="111.1" cy="51.4" r="0.3"/>
		<circle cx="111.1" cy="52.8" r="0.1"/>
		<circle cx="103" cy="54.1" r="0.5"/>
		<circle cx="104.3" cy="54.1" r="0.4"/>
		<circle cx="105.7" cy="54.1" r="0.3"/>
		<circle cx="107" cy="54.1" r="0.2"/>
		<circle cx="105.7" cy="55.4" r="0.1"/>
		<circle cx="107" cy="55.4" r="0.1"/>
		<path d="M109.8,54.1C109.8,54.1,109.7,54.2,109.8,54.1c-0.1,0.1-0.1,0-0.1,0C109.6,54.1,109.7,54,109.8,54.1
			C109.7,54,109.8,54.1,109.8,54.1z"/>
		<circle cx="104.3" cy="55.4" r="0.1"/>
		<circle cx="103" cy="55.4" r="0.2"/>
		<circle cx="101.7" cy="55.4" r="0.3"/>
		<path d="M101.8,56.8C101.8,56.8,101.7,56.9,101.8,56.8c-0.1,0.1-0.2,0.1-0.2,0C101.6,56.7,101.6,56.7,101.8,56.8
			C101.7,56.7,101.8,56.7,101.8,56.8z"/>
		<circle cx="108.4" cy="54.1" r="0.1"/>
		<circle cx="107" cy="52.8" r="0.5"/>
		<circle cx="108.4" cy="52.8" r="0.4"/>
		<path d="M109.9,52.8c0,0.1-0.1,0.2-0.2,0.2c-0.1,0-0.2-0.1-0.2-0.2c0-0.1,0.1-0.2,0.2-0.2C109.8,52.6,109.9,52.7,109.9,52.8z"/>
		<path d="M110.2,51.4c0,0.3-0.2,0.5-0.5,0.5c-0.3,0-0.5-0.2-0.5-0.5c0-0.3,0.2-0.5,0.5-0.5C110,50.9,110.2,51.1,110.2,51.4z"/>
		<path d="M116.6,47.4c0,0.1-0.1,0.2-0.2,0.2c-0.1,0-0.2-0.1-0.2-0.2c0-0.1,0.1-0.2,0.2-0.2C116.5,47.2,116.6,47.3,116.6,47.4z"/>
		<path d="M117.9,47.4c0,0.1,0,0.1-0.1,0.1c-0.1,0-0.1,0-0.1-0.1c0-0.1,0-0.1,0.1-0.1C117.8,47.3,117.9,47.3,117.9,47.4z"/>
		<circle cx="116.4" cy="46.1" r="0.5"/>
		<circle cx="117.8" cy="46.1" r="0.2"/>
		<circle cx="119.1" cy="46.1" r="0.1"/>
		<path d="M118.2,44.7c0,0.2-0.2,0.4-0.4,0.4c-0.2,0-0.4-0.2-0.4-0.4c0-0.2,0.2-0.4,0.4-0.4C118,44.3,118.2,44.5,118.2,44.7z"/>
		<circle cx="119.1" cy="44.7" r="0.2"/>
		<circle cx="119.1" cy="43.4" r="0.3"/>
		<circle cx="120.4" cy="43.4" r="0.1"/>
		<circle cx="121.8" cy="35.3" r="0.5"/>
		<circle cx="121.8" cy="36.7" r="0.4"/>
		<circle cx="121.8" cy="38" r="0.3"/>
		<circle cx="121.8" cy="39.4" r="0.2"/>
		<circle cx="123.1" cy="38" r="0.1"/>
		<circle cx="123.1" cy="39.4" r="0.1"/>
		<path d="M121.8,42.1C121.8,42.1,121.8,42.1,121.8,42.1c0.1-0.1,0-0.1,0-0.1C121.7,42,121.7,42,121.8,42.1
			C121.7,42.1,121.7,42.1,121.8,42.1z"/>
		<circle cx="123.1" cy="36.7" r="0.1"/>
		<path d="M123.1,35.5c0.1,0,0.2-0.1,0.2-0.2c0-0.1-0.1-0.2-0.2-0.2c-0.1,0-0.2,0.1-0.2,0.2C122.9,35.4,123,35.5,123.1,35.5z"/>
		<circle cx="123.1" cy="34" r="0.3"/>
		<path d="M124.5,34.1C124.5,34.1,124.6,34,124.5,34.1c0.1-0.1,0-0.2,0-0.2C124.4,33.9,124.4,33.9,124.5,34.1
			C124.4,34,124.4,34.1,124.5,34.1z"/>
		<circle cx="121.8" cy="40.7" r="0.1"/>
		<circle cx="120.4" cy="39.4" r="0.5"/>
		<circle cx="120.4" cy="40.7" r="0.4"/>
		<circle cx="120.4" cy="42" r="0.2"/>
		<circle cx="119.1" cy="42" r="0.5"/>
		<circle cx="116.4" cy="8.5" r="0.1"/>
		<path d="M115.1,9.3c0.3,0,0.5,0.2,0.5,0.5c0,0.3-0.2,0.5-0.5,0.5c-0.3,0-0.5-0.2-0.5-0.5C114.6,9.6,114.8,9.3,115.1,9.3z"/>
		<circle cx="115.1" cy="8.5" r="0.2"/>
		<circle cx="115.1" cy="7.2" r="0.1"/>
		<circle cx="113.7" cy="8.5" r="0.5"/>
		<circle cx="113.7" cy="7.2" r="0.2"/>
		<circle cx="113.7" cy="5.8" r="0.1"/>
		<circle cx="112.4" cy="7.2" r="0.4"/>
		<circle cx="112.4" cy="5.8" r="0.2"/>
		<circle cx="111.1" cy="5.8" r="0.3"/>
		<circle cx="111.1" cy="4.5" r="0.1"/>
		<circle cx="103" cy="3.1" r="0.5"/>
		<circle cx="104.3" cy="3.1" r="0.4"/>
		<circle cx="105.7" cy="3.1" r="0.3"/>
		<circle cx="107" cy="3.1" r="0.2"/>
		<circle cx="105.7" cy="1.8" r="0.1"/>
		<circle cx="107" cy="1.8" r="0.1"/>
		<path d="M109.8,3.1C109.8,3.1,109.7,3.1,109.8,3.1c-0.1-0.1-0.1,0-0.1,0C109.6,3.2,109.7,3.2,109.8,3.1
			C109.7,3.2,109.8,3.2,109.8,3.1z"/>
		<circle cx="104.3" cy="1.8" r="0.1"/>
		<circle cx="103" cy="1.8" r="0.2"/>
		<circle cx="101.7" cy="1.8" r="0.3"/>
		<path d="M100.3,1.4c-0.2,0-0.4,0.2-0.4,0.4c0,0.2,0.2,0.4,0.4,0.4c0.2,0,0.4-0.2,0.4-0.4l0,0c0-0.1,0-0.2-0.1-0.3
			C100.5,1.5,100.4,1.4,100.3,1.4z M100.7,1.8L100.7,1.8L100.7,1.8L100.7,1.8z"/>
		<path d="M98.6,1.8c0,0.1,0,0.2,0.1,0.3c0.1,0.1,0.2,0.1,0.3,0.1l0,0c0.1,0,0.2,0,0.3-0.1c0.1-0.1,0.1-0.2,0.1-0.3l0,0
			c0-0.2-0.2-0.4-0.4-0.4C98.8,1.4,98.6,1.6,98.6,1.8z M99.4,1.8L99.4,1.8L99.4,1.8L99.4,1.8z"/>
		<path d="M97.2,1.8c0,0.3,0.2,0.5,0.5,0.5c0.2,0,0.5-0.2,0.5-0.5l0,0c0-0.3-0.2-0.5-0.5-0.5C97.4,1.4,97.2,1.6,97.2,1.8z"/>
		<circle cx="101.7" cy="0.5" r="0.1"/>
		<path d="M100.2,0.5c0,0.1,0.1,0.2,0.2,0.2c0.1,0,0.2-0.1,0.2-0.2s-0.1-0.2-0.2-0.2C100.2,0.3,100.2,0.4,100.2,0.5z"/>
		<path d="M98.8,0.5c0,0,0,0.1,0,0.1c0,0,0.1,0.1,0.1,0.1c0.1,0,0.2-0.1,0.2-0.2c0-0.1-0.1-0.2-0.2-0.2C98.9,0.3,98.8,0.4,98.8,0.5z
			"/>
		<path d="M97.5,0.5c0,0.1,0.1,0.2,0.2,0.2c0.1,0,0.2-0.1,0.2-0.2s-0.1-0.2-0.2-0.2C97.5,0.3,97.5,0.4,97.5,0.5z"/>
		<circle cx="108.4" cy="3.1" r="0.1"/>
		<path d="M69.5,33L69.5,33c0.2,0,0.4-0.2,0.4-0.4c0-0.2-0.2-0.4-0.4-0.4s-0.4,0.2-0.4,0.4C69.1,32.9,69.3,33,69.5,33z"/>
		<path d="M69.2,31.6c0.1,0.1,0.2,0.1,0.3,0.1l0,0c0.1,0,0.2,0,0.3-0.1c0.1-0.1,0.1-0.2,0.1-0.3c0-0.2-0.2-0.4-0.4-0.4
			c-0.2,0-0.4,0.2-0.4,0.4C69.1,31.4,69.1,31.5,69.2,31.6z"/>
		<path d="M69.2,30.3c0.1,0.1,0.2,0.1,0.3,0.1c0.1,0,0.2,0,0.3-0.1c0.1-0.1,0.1-0.2,0.1-0.3c0-0.3-0.2-0.5-0.5-0.5S69,29.7,69,30
			C69,30.1,69.1,30.2,69.2,30.3z"/>
		<path d="M68.1,32.8L68.1,32.8c0.1,0,0.2-0.1,0.2-0.2c0-0.1-0.1-0.2-0.2-0.2c-0.1,0-0.2,0.1-0.2,0.2C68,32.7,68.1,32.8,68.1,32.8z"
			/>
		<path d="M68,31.3c0,0.1,0.1,0.2,0.2,0.2l0,0c0.1,0,0.2-0.1,0.2-0.2c0-0.1-0.1-0.2-0.2-0.2c0,0-0.1,0-0.1,0
			C68,31.2,68,31.3,68,31.3z"/>
		<path d="M68.1,30.1L68.1,30.1c0.1,0,0.2-0.1,0.2-0.2c0,0,0-0.1-0.1-0.1c0,0-0.1-0.1-0.1-0.1c0,0-0.1,0-0.1,0.1
			c0,0-0.1,0.1-0.1,0.1C68,30.1,68,30.1,68.1,30.1z"/>
		<path d="M69.2,29c0.1,0.1,0.2,0.1,0.3,0.1c0.3,0,0.5-0.2,0.5-0.5c0-0.3-0.2-0.5-0.5-0.5c-0.3,0-0.5,0.2-0.5,0.5
			C69,28.8,69.1,28.9,69.2,29z"/>
		<path d="M68,28.6c0,0.1,0,0.1,0.1,0.1c0,0,0.1,0.1,0.1,0.1c0.1,0,0.1,0,0.1-0.1c0,0,0.1-0.1,0.1-0.1c0,0,0-0.1-0.1-0.1
			c0,0-0.1-0.1-0.1-0.1l0,0C68,28.4,68,28.5,68,28.6z"/>
		<path d="M69.1,24.6c0,0.2,0.2,0.4,0.4,0.4c0.2,0,0.4-0.2,0.4-0.4c0-0.2-0.2-0.4-0.4-0.4l0,0c-0.1,0-0.2,0-0.3,0.1
			C69.1,24.4,69.1,24.5,69.1,24.6z"/>
		<path d="M69.5,26.4c0.1,0,0.2,0,0.3-0.1c0.1-0.1,0.1-0.2,0.1-0.3l0,0c0-0.1,0-0.2-0.1-0.3c-0.1-0.1-0.2-0.1-0.3-0.1h0
			c-0.2,0-0.4,0.2-0.4,0.4C69.1,26.2,69.3,26.4,69.5,26.4z M69.5,25.5L69.5,25.5L69.5,25.5L69.5,25.5z"/>
		<path d="M69.5,27.7c0.3,0,0.5-0.2,0.5-0.5c0-0.3-0.2-0.5-0.5-0.5l0,0c-0.3,0-0.5,0.2-0.5,0.5C69,27.5,69.2,27.7,69.5,27.7z"/>
		<path d="M68.1,24.8c0.1,0,0.2-0.1,0.2-0.2c0-0.1-0.1-0.2-0.2-0.2c-0.1,0-0.2,0.1-0.2,0.2C68,24.7,68.1,24.8,68.1,24.8z"/>
		<path d="M68.1,26.1c0,0,0.1,0,0.1-0.1c0,0,0.1-0.1,0.1-0.1c0-0.1-0.1-0.2-0.2-0.2c-0.1,0-0.2,0.1-0.2,0.2C68,26,68,26.1,68.1,26.1
			z"/>
		<path d="M68.1,27.5c0.1,0,0.2-0.1,0.2-0.2c0-0.1-0.1-0.2-0.2-0.2c-0.1,0-0.2,0.1-0.2,0.2C68,27.4,68,27.5,68.1,27.5z"/>
		<path d="M100.7,55.4L100.7,55.4c0-0.2-0.2-0.4-0.4-0.4c-0.2,0-0.4,0.2-0.4,0.4c0,0.2,0.2,0.4,0.4,0.4S100.7,55.7,100.7,55.4z"/>
		<path d="M99.3,55.7c0.1-0.1,0.1-0.2,0.1-0.3l0,0c0-0.1,0-0.2-0.1-0.3C99.2,55.1,99.1,55,99,55c-0.2,0-0.4,0.2-0.4,0.4
			c0,0.2,0.2,0.4,0.4,0.4C99.1,55.9,99.2,55.8,99.3,55.7z"/>
		<path d="M98,55.8c0.1-0.1,0.1-0.2,0.1-0.3c0-0.1,0-0.2-0.1-0.3C97.9,55,97.8,55,97.6,55c-0.3,0-0.5,0.2-0.5,0.5
			c0,0.3,0.2,0.5,0.5,0.5C97.8,55.9,97.9,55.8,98,55.8z"/>
		<path d="M100.5,56.8L100.5,56.8c0-0.1-0.1-0.2-0.2-0.2c-0.1,0-0.2,0.1-0.2,0.2c0,0.1,0.1,0.2,0.2,0.2
			C100.4,56.9,100.5,56.9,100.5,56.8z"/>
		<path d="M99,57c0.1,0,0.2-0.1,0.2-0.2l0,0c0-0.1-0.1-0.2-0.2-0.2c-0.1,0-0.2,0.1-0.2,0.2c0,0,0,0.1,0,0.1C98.9,56.9,98.9,57,99,57
			z"/>
		<path d="M97.8,56.8L97.8,56.8c0-0.1-0.1-0.2-0.2-0.2c0,0-0.1,0-0.1,0.1c0,0-0.1,0.1-0.1,0.1c0,0,0,0.1,0.1,0.1
			c0,0,0.1,0.1,0.1,0.1C97.7,57,97.8,56.9,97.8,56.8z"/>
		<path d="M96.6,55.8c0.1-0.1,0.1-0.2,0.1-0.3c0-0.3-0.2-0.5-0.5-0.5c-0.3,0-0.5,0.2-0.5,0.5c0,0.3,0.2,0.5,0.5,0.5
			C96.4,55.9,96.6,55.9,96.6,55.8z"/>
		<path d="M96.3,57c0.1,0,0.1,0,0.1-0.1c0,0,0.1-0.1,0.1-0.1c0-0.1,0-0.1-0.1-0.1c0,0-0.1-0.1-0.1-0.1c-0.1,0-0.1,0-0.1,0.1
			c0,0-0.1,0.1-0.1,0.1l0,0C96.1,56.9,96.2,57,96.3,57z"/>
		<path d="M92.3,55.8c0.2,0,0.4-0.2,0.4-0.4c0-0.2-0.2-0.4-0.4-0.4c-0.2,0-0.4,0.2-0.4,0.4l0,0c0,0.1,0,0.2,0.1,0.3
			C92.1,55.8,92.2,55.8,92.3,55.8z"/>
		<path d="M94,55.4c0-0.1,0-0.2-0.1-0.3c-0.1-0.1-0.2-0.1-0.3-0.1l0,0c-0.1,0-0.2,0-0.3,0.1c-0.1,0.1-0.1,0.2-0.1,0.3l0,0
			c0,0.2,0.2,0.4,0.4,0.4C93.8,55.9,94,55.7,94,55.4z M93.2,55.4L93.2,55.4L93.2,55.4L93.2,55.4z"/>
		<path d="M95.4,55.4c0-0.3-0.2-0.5-0.5-0.5c-0.3,0-0.5,0.2-0.5,0.5l0,0c0,0.3,0.2,0.5,0.5,0.5C95.2,55.9,95.4,55.7,95.4,55.4z"/>
		<path d="M92.4,56.8c0-0.1-0.1-0.2-0.2-0.2c-0.1,0-0.2,0.1-0.2,0.2c0,0.1,0.1,0.2,0.2,0.2C92.4,56.9,92.4,56.9,92.4,56.8z"/>
		<path d="M93.8,56.8c0-0.1,0-0.1-0.1-0.1c0,0-0.1-0.1-0.1-0.1c-0.1,0-0.2,0.1-0.2,0.2c0,0.1,0.1,0.2,0.2,0.2
			C93.7,57,93.8,56.9,93.8,56.8z"/>
		<path d="M95.1,56.8c0-0.1-0.1-0.2-0.2-0.2c-0.1,0-0.2,0.1-0.2,0.2c0,0.1,0.1,0.2,0.2,0.2C95.1,57,95.1,56.9,95.1,56.8z"/>
		<path d="M123.1,24.2L123.1,24.2c-0.2,0-0.4,0.2-0.4,0.4c0,0.2,0.2,0.4,0.4,0.4s0.4-0.2,0.4-0.4C123.5,24.4,123.3,24.2,123.1,24.2z
			"/>
		<path d="M123.4,25.7c-0.1-0.1-0.2-0.1-0.3-0.1l0,0c-0.1,0-0.2,0-0.3,0.1c-0.1,0.1-0.1,0.2-0.1,0.3c0,0.2,0.2,0.4,0.4,0.4
			c0.2,0,0.4-0.2,0.4-0.4C123.5,25.8,123.5,25.7,123.4,25.7z"/>
		<path d="M123.4,27c-0.1-0.1-0.2-0.1-0.3-0.1s-0.2,0-0.3,0.1c-0.1,0.1-0.1,0.2-0.1,0.3c0,0.2,0.2,0.5,0.5,0.5s0.5-0.2,0.5-0.5
			C123.6,27.2,123.5,27,123.4,27z"/>
		<path d="M124.5,24.4L124.5,24.4c-0.1,0-0.2,0.1-0.2,0.2c0,0.1,0.1,0.2,0.2,0.2c0.1,0,0.2-0.1,0.2-0.2
			C124.6,24.5,124.5,24.4,124.5,24.4z"/>
		<path d="M124.6,25.9c0-0.1-0.1-0.2-0.2-0.2l0,0c-0.1,0-0.2,0.1-0.2,0.2c0,0.1,0.1,0.2,0.2,0.2c0,0,0.1,0,0.1-0.1
			C124.6,26,124.6,26,124.6,25.9z"/>
		<path d="M124.5,27.1L124.5,27.1c-0.1,0-0.2,0.1-0.2,0.2c0,0,0,0.1,0.1,0.1c0,0,0.1,0.1,0.1,0.1c0,0,0.1,0,0.1-0.1
			c0,0,0.1-0.1,0.1-0.1C124.6,27.2,124.6,27.1,124.5,27.1z"/>
		<path d="M123.5,28.3c-0.1-0.1-0.2-0.1-0.3-0.1c-0.3,0-0.5,0.2-0.5,0.5c0,0.3,0.2,0.5,0.5,0.5c0.3,0,0.5-0.2,0.5-0.5
			C123.6,28.5,123.5,28.4,123.5,28.3z"/>
		<path d="M124.7,28.6c0,0,0-0.1-0.1-0.1c0,0-0.1-0.1-0.1-0.1c-0.1,0-0.1,0-0.1,0.1c0,0-0.1,0.1-0.1,0.1c0,0,0,0.1,0.1,0.1
			c0,0,0.1,0.1,0.1,0.1l0,0C124.6,28.8,124.7,28.7,124.7,28.6z"/>
		<path d="M123.5,32.6c0-0.2-0.2-0.4-0.4-0.4s-0.4,0.2-0.4,0.4c0,0.2,0.2,0.4,0.4,0.4l0,0c0.1,0,0.2,0,0.3-0.1
			C123.5,32.8,123.5,32.7,123.5,32.6z"/>
		<path d="M123.1,30.9c-0.1,0-0.2,0-0.3,0.1c-0.1,0.1-0.1,0.2-0.1,0.3l0,0c0,0.1,0,0.2,0.1,0.3c0.1,0.1,0.2,0.1,0.3,0.1l0,0
			c0.2,0,0.4-0.2,0.4-0.4C123.5,31.1,123.3,30.9,123.1,30.9z M123.1,31.7L123.1,31.7L123.1,31.7L123.1,31.7z"/>
		<path d="M123.1,29.5c-0.3,0-0.5,0.2-0.5,0.5c0,0.2,0.2,0.5,0.5,0.5l0,0c0.3,0,0.5-0.2,0.5-0.5C123.6,29.7,123.4,29.5,123.1,29.5z"
			/>
		<path d="M124.5,32.5c-0.1,0-0.2,0.1-0.2,0.2c0,0.1,0.1,0.2,0.2,0.2c0.1,0,0.2-0.1,0.2-0.2C124.6,32.6,124.5,32.5,124.5,32.5z"/>
		<path d="M124.5,31.1c-0.1,0-0.1,0-0.1,0c0,0-0.1,0.1-0.1,0.1c0,0.1,0.1,0.2,0.2,0.2c0.1,0,0.2-0.1,0.2-0.2
			C124.6,31.2,124.6,31.1,124.5,31.1z"/>
		<path d="M124.5,29.8c-0.1,0-0.2,0.1-0.2,0.2c0,0.1,0.1,0.2,0.2,0.2c0.1,0,0.2-0.1,0.2-0.2C124.6,29.9,124.6,29.8,124.5,29.8z"/>
		<circle cx="107" cy="4.5" r="0.5"/>
		<circle cx="108.4" cy="4.5" r="0.4"/>
		<path d="M109.9,4.5c0-0.1-0.1-0.2-0.2-0.2c-0.1,0-0.2,0.1-0.2,0.2c0,0.1,0.1,0.2,0.2,0.2C109.8,4.7,109.9,4.6,109.9,4.5z"/>
		<circle cx="109.7" cy="5.8" r="0.5"/>
		<path d="M116.6,9.9c0-0.1-0.1-0.2-0.2-0.2c-0.1,0-0.2,0.1-0.2,0.2c0,0.1,0.1,0.2,0.2,0.2C116.5,10.1,116.6,10,116.6,9.9z"/>
		<path d="M117.9,9.9c0-0.1,0-0.1-0.1-0.1c-0.1,0-0.1,0-0.1,0.1c0,0.1,0,0.1,0.1,0.1C117.8,10,117.9,9.9,117.9,9.9z"/>
		<path d="M116.9,11.2c0-0.3-0.2-0.5-0.5-0.5c-0.3,0-0.5,0.2-0.5,0.5c0,0.3,0.2,0.5,0.5,0.5C116.7,11.7,116.9,11.5,116.9,11.2z"/>
		<circle cx="117.8" cy="11.2" r="0.2"/>
		<circle cx="119.1" cy="11.2" r="0.1"/>
		<circle cx="117.8" cy="12.5" r="0.4"/>
		<circle cx="119.1" cy="12.5" r="0.2"/>
		<circle cx="119.1" cy="13.9" r="0.3"/>
		<circle cx="120.4" cy="13.9" r="0.1"/>
		<circle cx="121.8" cy="21.9" r="0.5"/>
		<circle cx="121.8" cy="20.6" r="0.4"/>
		<circle cx="121.8" cy="19.2" r="0.3"/>
		<circle cx="121.8" cy="17.9" r="0.2"/>
		<circle cx="123.1" cy="19.2" r="0.1"/>
		<circle cx="123.1" cy="17.9" r="0.1"/>
		<circle cx="121.8" cy="15.2" r="0.1"/>
		<circle cx="123.1" cy="20.6" r="0.1"/>
		<circle cx="123.1" cy="21.9" r="0.2"/>
		<circle cx="123.1" cy="23.3" r="0.3"/>
		<path d="M124.5,23.2C124.5,23.2,124.6,23.2,124.5,23.2c0.1,0.1,0,0.2,0,0.2C124.4,23.4,124.4,23.3,124.5,23.2
			C124.4,23.2,124.4,23.2,124.5,23.2z"/>
		<circle cx="121.8" cy="16.6" r="0.1"/>
		<circle cx="120.4" cy="17.9" r="0.5"/>
		<circle cx="120.4" cy="16.6" r="0.4"/>
		<circle cx="120.4" cy="15.2" r="0.2"/>
		<circle cx="119.1" cy="15.2" r="0.5"/>
	</g>
	<g>
		<g>
			<g>
				<g>
					<path d="M122.6,30c0-0.3-0.1-0.5-0.4-0.7c0.1,0,0.1-0.1,0.1-0.1c0.2-0.2,0.2-0.4,0.2-0.6c0-0.3-0.2-0.5-0.4-0.7
						c0.2-0.1,0.4-0.4,0.4-0.7c0-0.3-0.2-0.6-0.4-0.7c0.2-0.1,0.4-0.4,0.4-0.6c0-0.3-0.2-0.6-0.5-0.7c0.3-0.1,0.4-0.4,0.4-0.7
						c0-0.4-0.3-0.7-0.7-0.7c-0.2,0-0.4,0.1-0.5,0.2c0,0-0.1,0.1-0.1,0.1c-0.1-0.1-0.2-0.2-0.3-0.3c0.1-0.1,0.2-0.2,0.3-0.4
						c0.1,0.2,0.3,0.4,0.6,0.4c0.3,0,0.6-0.3,0.6-0.6c0-0.3-0.3-0.6-0.6-0.6c-0.3,0-0.5,0.2-0.6,0.4c-0.1-0.2-0.2-0.4-0.4-0.5
						c0.2-0.1,0.4-0.4,0.4-0.7c0-0.3-0.2-0.6-0.4-0.7c0.2-0.1,0.4-0.4,0.4-0.7c0-0.4-0.3-0.7-0.6-0.7c0.3-0.1,0.5-0.3,0.5-0.6
						c0-0.3-0.3-0.6-0.6-0.6c-0.3,0-0.5,0.1-0.6,0.4c-0.1-0.2-0.2-0.3-0.4-0.4c0.2-0.1,0.3-0.4,0.3-0.6c0-0.3-0.2-0.6-0.5-0.7
						c0.2-0.1,0.4-0.3,0.4-0.6c0-0.4-0.3-0.7-0.7-0.7c-0.3,0-0.5,0.1-0.6,0.3c-0.1-0.2-0.2-0.3-0.4-0.4c0.2-0.1,0.3-0.4,0.3-0.6
						c0-0.4-0.3-0.7-0.7-0.7c0.3,0,0.6-0.3,0.6-0.6c0-0.3-0.3-0.6-0.6-0.6c-0.3,0-0.5,0.2-0.6,0.5c-0.1-0.3-0.2-0.5-0.5-0.6
						c0.2-0.1,0.4-0.3,0.4-0.6c0-0.4-0.3-0.7-0.7-0.7c-0.3,0-0.5,0.2-0.6,0.4c-0.1-0.2-0.2-0.4-0.4-0.4c0.2-0.1,0.4-0.3,0.4-0.6
						c0-0.4-0.3-0.7-0.7-0.7c-0.2,0-0.5,0.1-0.6,0.3c-0.1-0.2-0.2-0.3-0.4-0.4c0.2-0.1,0.3-0.3,0.3-0.6c0-0.4-0.3-0.7-0.7-0.7
						c-0.3,0-0.5,0.2-0.6,0.4c-0.1-0.2-0.2-0.4-0.4-0.4c0.2-0.1,0.4-0.3,0.4-0.6c0-0.4-0.3-0.7-0.7-0.7c-0.3,0-0.5,0.2-0.6,0.4
						c-0.1-0.3-0.3-0.5-0.6-0.5c0.3-0.1,0.5-0.3,0.5-0.6c0-0.3-0.3-0.6-0.6-0.6c-0.3,0-0.6,0.3-0.6,0.6c0-0.4-0.3-0.7-0.7-0.7
						c-0.3,0-0.5,0.1-0.6,0.3c-0.1-0.2-0.2-0.3-0.4-0.4c0.2-0.1,0.3-0.3,0.3-0.6c0-0.4-0.3-0.7-0.7-0.7c-0.3,0-0.5,0.2-0.6,0.4
						c-0.1-0.3-0.4-0.5-0.7-0.5c-0.3,0-0.5,0.1-0.6,0.3c-0.1-0.2-0.3-0.3-0.4-0.4c0.2-0.1,0.4-0.3,0.4-0.6c0-0.3-0.3-0.6-0.6-0.6
						c-0.3,0-0.6,0.2-0.6,0.5c0-0.4-0.4-0.6-0.7-0.6c-0.3,0-0.5,0.2-0.7,0.4c-0.1-0.3-0.4-0.4-0.7-0.4c-0.3,0-0.5,0.2-0.7,0.4
						c-0.1-0.2-0.3-0.3-0.5-0.4c0.2-0.1,0.4-0.3,0.4-0.6c0-0.3-0.3-0.6-0.6-0.6c-0.3,0-0.6,0.3-0.6,0.6c0,0.3,0.2,0.5,0.4,0.6
						c-0.2,0-0.3,0.1-0.4,0.3c-0.1-0.1-0.2-0.2-0.3-0.3c0.2-0.1,0.3-0.3,0.3-0.6c0-0.4-0.3-0.7-0.7-0.7c-0.3,0-0.5,0.2-0.7,0.4
						c-0.1-0.3-0.4-0.5-0.7-0.5c-0.3,0-0.5,0.2-0.6,0.4c-0.1-0.2-0.4-0.4-0.7-0.4c-0.3,0-0.5,0.1-0.7,0.4c0-0.1-0.1-0.1-0.1-0.1
						c-0.2-0.2-0.4-0.2-0.6-0.2c-0.3,0-0.5,0.2-0.7,0.4c-0.1-0.2-0.4-0.4-0.7-0.4c-0.3,0-0.6,0.2-0.7,0.4c-0.1-0.2-0.4-0.4-0.6-0.4
						c-0.3,0-0.6,0.2-0.7,0.5c-0.1-0.3-0.4-0.4-0.7-0.4c-0.4,0-0.7,0.3-0.7,0.7c0,0.2,0.1,0.4,0.2,0.5c0,0,0.1,0,0.1,0.1
						c-0.1,0.1-0.2,0.2-0.3,0.3c-0.1-0.1-0.2-0.2-0.4-0.3c0.2-0.1,0.4-0.3,0.4-0.6c0-0.3-0.3-0.6-0.6-0.6c-0.3,0-0.6,0.3-0.6,0.6
						c0,0.3,0.2,0.5,0.4,0.6c-0.2,0.1-0.4,0.2-0.5,0.4c-0.1-0.2-0.4-0.4-0.7-0.4c-0.3,0-0.6,0.2-0.7,0.4c-0.1-0.2-0.4-0.4-0.7-0.4
						c-0.4,0-0.7,0.3-0.7,0.6c-0.1-0.3-0.3-0.5-0.6-0.5c-0.3,0-0.6,0.3-0.6,0.6c0,0.2,0.1,0.5,0.4,0.6c-0.2,0.1-0.3,0.2-0.4,0.4
						c-0.1-0.2-0.4-0.3-0.6-0.3c-0.3,0-0.6,0.2-0.7,0.5c-0.1-0.2-0.3-0.4-0.6-0.4c-0.4,0-0.7,0.3-0.7,0.7c0,0.3,0.1,0.5,0.3,0.6
						c-0.2,0.1-0.3,0.2-0.4,0.4c-0.1-0.2-0.4-0.3-0.6-0.3c-0.4,0-0.7,0.3-0.7,0.7c0-0.3-0.3-0.6-0.6-0.6s-0.6,0.3-0.6,0.6
						c0,0.3,0.2,0.5,0.5,0.6c-0.3,0.1-0.5,0.2-0.6,0.5c-0.1-0.2-0.3-0.4-0.6-0.4c-0.4,0-0.7,0.3-0.7,0.7c0,0.3,0.2,0.5,0.4,0.6
						c-0.2,0.1-0.4,0.2-0.4,0.4c-0.1-0.2-0.3-0.4-0.6-0.4c-0.4,0-0.7,0.3-0.7,0.7c0,0.2,0.1,0.5,0.3,0.6c-0.2,0.1-0.3,0.2-0.4,0.4
						c-0.1-0.2-0.3-0.3-0.6-0.3c-0.4,0-0.7,0.3-0.7,0.7c0,0.3,0.2,0.5,0.4,0.6c-0.2,0.1-0.4,0.2-0.4,0.4c-0.1-0.2-0.3-0.4-0.6-0.4
						c-0.4,0-0.7,0.3-0.7,0.7c0,0.3,0.2,0.5,0.4,0.6c-0.3,0.1-0.5,0.3-0.5,0.6c-0.1-0.3-0.3-0.5-0.6-0.5c-0.3,0-0.6,0.3-0.6,0.6
						c0,0.3,0.3,0.6,0.6,0.6c-0.4,0-0.7,0.3-0.7,0.7c0,0.3,0.1,0.5,0.3,0.6c-0.2,0.1-0.3,0.2-0.4,0.4c-0.1-0.2-0.3-0.3-0.6-0.3
						c-0.4,0-0.7,0.3-0.7,0.7c0,0.3,0.2,0.5,0.4,0.6c-0.3,0.1-0.5,0.4-0.5,0.7c0,0.3,0.1,0.5,0.3,0.6c-0.2,0.1-0.3,0.3-0.4,0.4
						c-0.1-0.2-0.3-0.4-0.6-0.4c-0.3,0-0.6,0.3-0.6,0.6c0,0.3,0.2,0.6,0.5,0.6c-0.4,0.1-0.6,0.4-0.6,0.7c0,0.3,0.2,0.5,0.4,0.7
						c-0.3,0.1-0.4,0.4-0.4,0.7c0,0.3,0.2,0.5,0.4,0.7c-0.2,0.1-0.3,0.3-0.4,0.5c-0.1-0.2-0.3-0.4-0.6-0.4c-0.3,0-0.6,0.3-0.6,0.6
						c0,0.3,0.3,0.6,0.6,0.6c0.3,0,0.5-0.2,0.6-0.4c0,0.2,0.1,0.3,0.3,0.4c-0.1,0.1-0.2,0.2-0.3,0.3c-0.1-0.2-0.3-0.3-0.6-0.3
						c-0.4,0-0.7,0.3-0.7,0.7c0,0.3,0.2,0.5,0.4,0.7c-0.3,0.1-0.5,0.4-0.5,0.7c0,0.3,0.2,0.5,0.4,0.6C70.2,26.7,70,27,70,27.3
						c0,0.3,0.1,0.5,0.4,0.7c-0.1,0-0.1,0.1-0.1,0.1c-0.2,0.2-0.2,0.4-0.2,0.6c0,0.3,0.2,0.5,0.4,0.7C70.2,29.5,70,29.7,70,30
						c0,0.3,0.2,0.6,0.4,0.7c-0.2,0.1-0.4,0.4-0.4,0.6c0,0.3,0.2,0.6,0.5,0.7c-0.3,0.1-0.4,0.4-0.4,0.7c0,0.4,0.3,0.7,0.7,0.7
						c0.2,0,0.4-0.1,0.5-0.2c0,0,0-0.1,0.1-0.1c0.1,0.1,0.2,0.2,0.3,0.3c-0.1,0.1-0.2,0.2-0.3,0.4c-0.1-0.2-0.3-0.4-0.6-0.4
						c-0.3,0-0.6,0.3-0.6,0.6c0,0.3,0.3,0.6,0.6,0.6c0.3,0,0.5-0.2,0.6-0.4c0.1,0.2,0.2,0.4,0.4,0.5c-0.2,0.1-0.4,0.4-0.4,0.7
						c0,0.3,0.2,0.6,0.4,0.7c-0.2,0.1-0.4,0.4-0.4,0.7c0,0.4,0.3,0.7,0.6,0.7c-0.3,0.1-0.5,0.3-0.5,0.6c0,0.3,0.3,0.6,0.6,0.6
						c0.3,0,0.5-0.1,0.6-0.4c0.1,0.2,0.2,0.3,0.4,0.4c-0.2,0.1-0.3,0.4-0.3,0.6c0,0.3,0.2,0.6,0.5,0.7c-0.2,0.1-0.4,0.3-0.4,0.6
						c0,0.4,0.3,0.7,0.7,0.7c0.3,0,0.5-0.1,0.6-0.3c0.1,0.2,0.2,0.3,0.4,0.4c-0.2,0.1-0.3,0.4-0.3,0.6c0,0.4,0.3,0.7,0.7,0.7
						c-0.3,0-0.6,0.3-0.6,0.6c0,0.3,0.3,0.6,0.6,0.6c0.3,0,0.5-0.2,0.6-0.5c0.1,0.3,0.2,0.5,0.5,0.6c-0.2,0.1-0.4,0.3-0.4,0.6
						c0,0.4,0.3,0.7,0.7,0.7c0.3,0,0.5-0.2,0.6-0.4c0.1,0.2,0.2,0.4,0.4,0.4c-0.2,0.1-0.4,0.3-0.4,0.6c0,0.4,0.3,0.7,0.7,0.7
						c0.2,0,0.5-0.1,0.6-0.3c0.1,0.2,0.2,0.3,0.4,0.4c-0.2,0.1-0.3,0.3-0.3,0.6c0,0.4,0.3,0.7,0.7,0.7c0.3,0,0.5-0.2,0.6-0.4
						c0.1,0.2,0.2,0.4,0.4,0.4c-0.2,0.1-0.4,0.3-0.4,0.6c0,0.4,0.3,0.7,0.7,0.7c0.3,0,0.5-0.2,0.6-0.4c0.1,0.3,0.3,0.5,0.6,0.5
						c-0.3,0.1-0.5,0.3-0.5,0.6c0,0.3,0.3,0.6,0.6,0.6s0.6-0.3,0.6-0.6c0,0.4,0.3,0.7,0.7,0.7c0.3,0,0.5-0.1,0.6-0.3
						c0.1,0.2,0.2,0.3,0.4,0.4c-0.2,0.1-0.3,0.3-0.3,0.6c0,0.4,0.3,0.7,0.7,0.7c0.3,0,0.5-0.2,0.6-0.4c0.1,0.3,0.4,0.5,0.7,0.5
						c0.3,0,0.5-0.1,0.6-0.3c0.1,0.2,0.3,0.3,0.4,0.4c-0.2,0.1-0.4,0.3-0.4,0.6c0,0.3,0.3,0.6,0.6,0.6c0.3,0,0.6-0.2,0.6-0.5
						c0.1,0.4,0.4,0.6,0.7,0.6c0.3,0,0.5-0.2,0.7-0.4c0.1,0.3,0.4,0.4,0.7,0.4c0.3,0,0.5-0.2,0.7-0.4c0.1,0.2,0.3,0.3,0.5,0.4
						c-0.2,0.1-0.4,0.3-0.4,0.6c0,0.3,0.3,0.6,0.6,0.6c0.3,0,0.6-0.3,0.6-0.6c0-0.3-0.2-0.5-0.4-0.6c0.2,0,0.3-0.1,0.4-0.3
						c0.1,0.1,0.2,0.2,0.3,0.3c-0.2,0.1-0.3,0.3-0.3,0.6c0,0.4,0.3,0.7,0.7,0.7c0.3,0,0.5-0.2,0.7-0.4c0.1,0.3,0.4,0.5,0.7,0.5
						c0.3,0,0.5-0.2,0.6-0.4c0.1,0.3,0.4,0.4,0.7,0.4c0.3,0,0.5-0.1,0.7-0.4c0,0.1,0.1,0.1,0.1,0.1c0.2,0.2,0.4,0.2,0.6,0.2
						c0.3,0,0.5-0.2,0.7-0.4c0.1,0.2,0.4,0.4,0.7,0.4c0.3,0,0.6-0.2,0.7-0.4c0.1,0.2,0.4,0.4,0.7,0.4c0.3,0,0.6-0.2,0.7-0.5
						c0.1,0.3,0.4,0.4,0.7,0.4c0.4,0,0.7-0.3,0.7-0.7c0-0.2-0.1-0.4-0.2-0.5c0,0-0.1-0.1-0.1-0.1c0.1-0.1,0.2-0.2,0.3-0.3
						c0.1,0.1,0.2,0.2,0.4,0.3c-0.2,0.1-0.4,0.3-0.4,0.6c0,0.3,0.3,0.6,0.6,0.6c0.3,0,0.6-0.3,0.6-0.6c0-0.3-0.2-0.5-0.4-0.6
						c0.2-0.1,0.4-0.2,0.5-0.4c0.1,0.2,0.4,0.4,0.7,0.4c0.3,0,0.6-0.2,0.7-0.4c0.1,0.2,0.4,0.4,0.7,0.4c0.4,0,0.7-0.3,0.7-0.6
						c0.1,0.3,0.3,0.5,0.6,0.5c0.3,0,0.6-0.3,0.6-0.6c0-0.2-0.1-0.5-0.4-0.6c0.2-0.1,0.3-0.2,0.4-0.4c0.1,0.2,0.4,0.3,0.6,0.3
						c0.3,0,0.6-0.2,0.7-0.5c0.1,0.2,0.3,0.4,0.6,0.4c0.4,0,0.7-0.3,0.7-0.7c0-0.3-0.1-0.5-0.3-0.6c0.2-0.1,0.3-0.2,0.4-0.4
						c0.1,0.2,0.4,0.3,0.6,0.3c0.4,0,0.7-0.3,0.7-0.7c0,0.3,0.3,0.6,0.6,0.6c0.3,0,0.6-0.3,0.6-0.6c0-0.3-0.2-0.5-0.5-0.6
						c0.3-0.1,0.5-0.2,0.6-0.5c0.1,0.2,0.3,0.4,0.6,0.4c0.4,0,0.7-0.3,0.7-0.7c0-0.3-0.2-0.5-0.4-0.6c0.2-0.1,0.4-0.2,0.4-0.4
						c0.1,0.2,0.3,0.4,0.6,0.4c0.4,0,0.7-0.3,0.7-0.7c0-0.2-0.1-0.5-0.3-0.6c0.2-0.1,0.3-0.2,0.4-0.4c0.1,0.2,0.3,0.3,0.6,0.3
						c0.4,0,0.7-0.3,0.7-0.7c0-0.3-0.2-0.5-0.4-0.6c0.2-0.1,0.4-0.2,0.4-0.4c0.1,0.2,0.3,0.4,0.6,0.4c0.4,0,0.7-0.3,0.7-0.7
						c0-0.3-0.2-0.5-0.4-0.6c0.3-0.1,0.5-0.3,0.5-0.6c0.1,0.3,0.3,0.5,0.6,0.5c0.3,0,0.6-0.3,0.6-0.6c0-0.3-0.3-0.6-0.6-0.6
						c0.4,0,0.7-0.3,0.7-0.7c0-0.3-0.1-0.5-0.3-0.6c0.2-0.1,0.3-0.2,0.4-0.4c0.1,0.2,0.3,0.3,0.6,0.3c0.4,0,0.7-0.3,0.7-0.7
						c0-0.3-0.2-0.5-0.4-0.6c0.3-0.1,0.5-0.4,0.5-0.7c0-0.3-0.1-0.5-0.3-0.6c0.2-0.1,0.3-0.3,0.4-0.4c0.1,0.2,0.3,0.4,0.6,0.4
						c0.3,0,0.6-0.3,0.6-0.6c0-0.3-0.2-0.6-0.5-0.6c0.4,0,0.6-0.4,0.6-0.7c0-0.3-0.2-0.5-0.4-0.7c0.3-0.1,0.4-0.4,0.4-0.7
						c0-0.3-0.2-0.5-0.4-0.7c0.2-0.1,0.3-0.3,0.4-0.5c0.1,0.2,0.3,0.4,0.6,0.4c0.3,0,0.6-0.3,0.6-0.6c0-0.3-0.3-0.6-0.6-0.6
						c-0.3,0-0.5,0.2-0.6,0.4c0-0.2-0.1-0.3-0.3-0.4c0.1-0.1,0.2-0.2,0.3-0.3c0.1,0.2,0.3,0.3,0.6,0.3c0.4,0,0.7-0.3,0.7-0.7
						c0-0.3-0.2-0.5-0.4-0.7c0.3-0.1,0.5-0.4,0.5-0.7c0-0.3-0.2-0.5-0.4-0.6C122.4,30.5,122.6,30.3,122.6,30z M71.4,25
						c0.1,0.1,0.1,0.2,0.2,0.2c0,0,0,0-0.1,0.1c-0.1,0.1-0.1,0.1-0.1,0.2c-0.1-0.1-0.2-0.2-0.3-0.2C71.2,25.2,71.3,25.1,71.4,25z
						 M71.4,28.1c0-0.1-0.1-0.1-0.2-0.1c0.1,0,0.1-0.1,0.2-0.2c0,0,0.1,0.1,0.1,0.1c0,0,0,0,0,0C71.5,28,71.5,28,71.4,28.1z
						 M71.6,29.3C71.5,29.3,71.5,29.3,71.6,29.3c-0.1,0.1-0.1,0.1-0.1,0.1c-0.1-0.1-0.1-0.1-0.2-0.2c0.1,0,0.1-0.1,0.2-0.1
						C71.5,29.2,71.5,29.3,71.6,29.3z M71.4,26.8c-0.1-0.1-0.1-0.1-0.2-0.2c0.1-0.1,0.2-0.1,0.2-0.2c0,0.1,0.1,0.1,0.2,0.2
						C71.5,26.7,71.5,26.7,71.4,26.8z M71.4,30.5C71.4,30.5,71.4,30.5,71.4,30.5c0.1,0,0.2,0.1,0.2,0.1c-0.1,0.1-0.1,0.1-0.2,0.2
						c-0.1-0.1-0.1-0.1-0.2-0.2C71.3,30.6,71.3,30.6,71.4,30.5z M71.4,32.2C71.4,32.2,71.4,32.2,71.4,32.2c-0.1-0.1-0.2-0.2-0.3-0.2
						c0.1-0.1,0.2-0.1,0.3-0.2c0.1,0.1,0.1,0.2,0.2,0.2C71.5,32,71.5,32.1,71.4,32.2z M72.7,37.7c-0.1-0.2-0.3-0.3-0.5-0.4
						c0.2,0,0.3-0.1,0.5-0.3c0.1,0.1,0.1,0.2,0.2,0.3C72.9,37.5,72.8,37.6,72.7,37.7z M72.6,34.6c0,0,0,0.1,0,0.1
						C72.6,34.7,72.6,34.7,72.6,34.6C72.6,34.7,72.6,34.6,72.6,34.6z M72.6,22.6C72.6,22.6,72.6,22.5,72.6,22.6
						C72.6,22.5,72.6,22.6,72.6,22.6C72.6,22.6,72.6,22.6,72.6,22.6z M72.5,21.2c0.1,0,0.2-0.1,0.2-0.2c0,0,0.1,0.1,0.1,0.1
						c-0.1,0.1-0.1,0.1-0.1,0.2C72.6,21.3,72.6,21.3,72.5,21.2z M72.7,35.9c0,0.1,0.1,0.1,0.1,0.2c0,0-0.1,0.1-0.1,0.1
						c-0.1-0.1-0.1-0.1-0.2-0.2C72.6,36,72.6,35.9,72.7,35.9z M72.7,20.1c-0.1-0.1-0.3-0.2-0.5-0.3c0.2,0,0.4-0.2,0.5-0.3
						c0,0.1,0.1,0.3,0.2,0.3C72.9,19.9,72.8,20,72.7,20.1z M74.1,40.4c-0.1-0.1-0.2-0.2-0.3-0.3c0.1,0,0.2-0.1,0.3-0.1
						c0.1,0.1,0.1,0.2,0.2,0.2C74.2,40.2,74.1,40.3,74.1,40.4z M74,38.7C74,38.7,74,38.7,74,38.7c0,0.1,0,0.1,0,0.1
						C74,38.8,74,38.7,74,38.7C74,38.7,74,38.7,74,38.7z M73.9,18.5C74,18.5,74,18.5,73.9,18.5c0.1,0,0.1,0,0.1,0
						C74,18.5,74,18.6,73.9,18.5C74,18.6,74,18.6,73.9,18.5z M74,17.3c-0.1-0.1-0.2-0.1-0.3-0.1c0.1-0.1,0.3-0.2,0.3-0.3
						c0,0.1,0.1,0.2,0.1,0.2C74.1,17.2,74.1,17.2,74,17.3z M75.4,43.2c-0.1-0.3-0.3-0.5-0.6-0.5c0.2,0,0.4-0.1,0.6-0.3
						c0.1,0.1,0.2,0.2,0.3,0.3C75.6,42.9,75.5,43,75.4,43.2z M75.3,41.3c0,0.1,0.1,0.1,0.1,0.2c0,0,0,0.1-0.1,0.1
						c-0.1-0.1-0.1-0.1-0.2-0.2C75.3,41.4,75.3,41.4,75.3,41.3z M75.2,15.8c0.1,0,0.1-0.1,0.2-0.2c0,0,0,0.1,0.1,0.1
						c-0.1,0-0.1,0.1-0.1,0.2C75.3,15.9,75.3,15.9,75.2,15.8z M75.4,14.8c-0.1-0.2-0.3-0.3-0.6-0.3c0.3,0,0.5-0.2,0.6-0.5
						c0,0.2,0.1,0.3,0.3,0.5C75.6,14.5,75.5,14.7,75.4,14.8z M76.8,12.8c0,0.1,0.1,0.2,0.2,0.3c-0.1,0.1-0.2,0.2-0.2,0.3
						c-0.1-0.1-0.2-0.2-0.3-0.2C76.6,13.1,76.7,13,76.8,12.8z M76.8,44.4c-0.1-0.2-0.2-0.3-0.4-0.3c0.1,0,0.3-0.1,0.3-0.2
						c0.1,0.1,0.1,0.2,0.2,0.3C76.9,44.2,76.8,44.3,76.8,44.4z M78.1,45.7c-0.1-0.1-0.2-0.2-0.3-0.2c0.1,0,0.2-0.1,0.3-0.2
						c0,0.1,0.1,0.1,0.2,0.2C78.2,45.5,78.1,45.6,78.1,45.7z M78.1,12c-0.1-0.1-0.2-0.1-0.3-0.2c0.1-0.1,0.2-0.1,0.3-0.2
						c0,0.1,0.1,0.2,0.2,0.2C78.2,11.8,78.1,11.9,78.1,12z M79.5,47.1c-0.1-0.1-0.1-0.2-0.2-0.3c0.1,0,0.2-0.1,0.2-0.2
						c0.1,0.1,0.1,0.1,0.2,0.2C79.6,46.9,79.5,47,79.5,47.1z M79.5,10.6c-0.1-0.1-0.1-0.1-0.2-0.2c0.1-0.1,0.2-0.2,0.2-0.3
						c0,0.1,0.1,0.2,0.2,0.3C79.6,10.5,79.5,10.5,79.5,10.6z M103.7,4.8c0,0.1,0.1,0.2,0.2,0.2c0,0-0.1,0.1-0.1,0.1
						c-0.1-0.1-0.1-0.1-0.2-0.1C103.6,4.9,103.7,4.9,103.7,4.8z M102.4,4.9C102.4,4.9,102.4,4.9,102.4,4.9
						C102.4,4.9,102.3,4.9,102.4,4.9C102.3,4.9,102.3,4.9,102.4,4.9z M99.7,3.4c0.1,0.1,0.1,0.2,0.2,0.3c-0.1,0.1-0.2,0.1-0.2,0.2
						c0,0,0,0-0.1-0.1c-0.1-0.1-0.1-0.1-0.2-0.1C99.5,3.7,99.6,3.6,99.7,3.4z M98.3,3.5c0.1,0.1,0.1,0.2,0.2,0.2
						c-0.1,0-0.1,0.1-0.2,0.2c-0.1-0.1-0.1-0.1-0.2-0.2C98.2,3.7,98.3,3.6,98.3,3.5z M97,3.6c0,0.1,0.1,0.1,0.2,0.2
						c0,0-0.1,0.1-0.1,0.1c0,0,0,0,0,0c0-0.1-0.1-0.1-0.1-0.1C96.9,3.7,97,3.6,97,3.6z M95.6,3.6c0,0.1,0.1,0.1,0.1,0.2
						c-0.1,0-0.1,0.1-0.1,0.1c0,0,0,0,0,0c0,0-0.1-0.1-0.1-0.1C95.5,3.7,95.6,3.6,95.6,3.6z M94.3,3.5c0,0.1,0.1,0.1,0.1,0.2
						c0,0,0,0,0.1,0c-0.1,0-0.1,0.1-0.2,0.2c-0.1-0.1-0.1-0.1-0.2-0.2C94.2,3.7,94.2,3.6,94.3,3.5z M92.8,3.7
						c0.1-0.1,0.1-0.1,0.2-0.2c0.1,0.1,0.1,0.2,0.2,0.3c-0.1,0.1-0.2,0.1-0.2,0.2C92.9,3.8,92.8,3.8,92.8,3.7
						C92.7,3.7,92.8,3.7,92.8,3.7z M90.3,4.9C90.3,4.9,90.3,4.9,90.3,4.9C90.3,4.9,90.2,5,90.3,4.9C90.2,4.9,90.2,4.9,90.3,4.9z
						 M88.9,4.8C88.9,4.9,89,4.9,89,5c-0.1,0-0.1,0.1-0.2,0.2c0,0-0.1-0.1-0.1-0.1C88.8,5,88.9,4.9,88.9,4.8z M87.5,4.6
						c0,0.2,0.1,0.3,0.3,0.5c-0.1,0.1-0.2,0.1-0.3,0.2c-0.1-0.1-0.2-0.2-0.3-0.2C87.4,5,87.5,4.8,87.5,4.6z M86.2,6.3
						C86.2,6.3,86.2,6.3,86.2,6.3c0,0.1,0,0.1,0,0.1C86.2,6.4,86.2,6.3,86.2,6.3C86.2,6.3,86.2,6.3,86.2,6.3z M84.9,6.1
						c0,0.1,0.1,0.2,0.1,0.3c-0.1,0.1-0.2,0.1-0.2,0.2c-0.1-0.1-0.1-0.1-0.2-0.1C84.7,6.3,84.8,6.2,84.9,6.1z M83.5,7.6
						c0,0,0,0.1,0.1,0.1c-0.1,0-0.1,0.1-0.2,0.1c0,0-0.1,0-0.1-0.1C83.4,7.7,83.5,7.6,83.5,7.6z M82.2,7.2c0,0.2,0.1,0.4,0.3,0.6
						c-0.1,0.1-0.2,0.2-0.3,0.3c-0.1-0.1-0.3-0.2-0.5-0.3C82,7.7,82.2,7.5,82.2,7.2z M80.8,8.8c0,0.1,0.1,0.3,0.2,0.3
						c-0.1,0.1-0.2,0.1-0.3,0.2c-0.1-0.1-0.2-0.2-0.3-0.2C80.7,9,80.8,8.9,80.8,8.8z M80.8,48.5c-0.1-0.2-0.2-0.3-0.3-0.4
						c0.1,0,0.2-0.1,0.3-0.2c0.1,0.1,0.2,0.2,0.2,0.2C81,48.2,80.9,48.4,80.8,48.5z M82.2,50.1c0-0.3-0.2-0.5-0.5-0.6
						c0.2,0,0.3-0.1,0.5-0.3c0.1,0.1,0.2,0.2,0.3,0.3C82.3,49.6,82.2,49.8,82.2,50.1z M83.5,49.7c0-0.1-0.1-0.1-0.2-0.2
						c0,0,0.1,0,0.1-0.1c0,0.1,0.1,0.1,0.2,0.1C83.6,49.6,83.5,49.6,83.5,49.7z M84.9,51.2c-0.1-0.1-0.2-0.3-0.3-0.3
						c0.1,0,0.1-0.1,0.2-0.1c0.1,0.1,0.1,0.2,0.2,0.2C84.9,51,84.9,51.1,84.9,51.2z M86.2,51C86.2,51,86.2,50.9,86.2,51
						c0-0.1,0-0.1,0-0.1C86.2,50.9,86.2,50.9,86.2,51C86.2,50.9,86.2,51,86.2,51z M87.5,52.7c0-0.2-0.2-0.4-0.3-0.5
						c0.1,0,0.3-0.1,0.3-0.2c0.1,0.1,0.2,0.2,0.3,0.2C87.6,52.3,87.6,52.5,87.5,52.7z M88.9,52.4c0-0.1-0.1-0.2-0.2-0.2
						c0,0,0.1-0.1,0.1-0.1c0.1,0.1,0.1,0.1,0.2,0.1C89,52.3,88.9,52.4,88.9,52.4z M90.3,52.4C90.2,52.3,90.2,52.3,90.3,52.4
						C90.2,52.3,90.3,52.3,90.3,52.4C90.3,52.3,90.3,52.4,90.3,52.4z M92.9,53.8c-0.1-0.1-0.1-0.2-0.2-0.3c0.1-0.1,0.2-0.1,0.2-0.2
						c0,0,0,0,0.1,0.1c0.1,0,0.1,0.1,0.2,0.1C93.1,53.6,93,53.7,92.9,53.8z M94.3,53.7c0-0.1-0.1-0.2-0.2-0.2c0.1,0,0.1-0.1,0.2-0.2
						c0.1,0.1,0.1,0.1,0.2,0.2C94.4,53.6,94.3,53.6,94.3,53.7z M95.6,53.7c0-0.1-0.1-0.1-0.2-0.2c0,0,0.1-0.1,0.1-0.1c0,0,0,0,0,0
						c0,0.1,0.1,0.1,0.1,0.1C95.7,53.6,95.7,53.6,95.6,53.7z M97,53.7c0-0.1-0.1-0.1-0.1-0.2c0.1,0,0.1-0.1,0.1-0.1c0,0,0,0,0,0
						c0,0,0.1,0.1,0.1,0.1C97.1,53.5,97,53.6,97,53.7z M98.3,53.7c0-0.1-0.1-0.1-0.1-0.2c0,0,0,0-0.1,0c0.1,0,0.1-0.1,0.2-0.2
						c0.1,0.1,0.1,0.1,0.2,0.2C98.5,53.6,98.4,53.6,98.3,53.7z M99.8,53.6c-0.1,0.1-0.1,0.1-0.2,0.2c-0.1-0.1-0.1-0.2-0.2-0.3
						c0.1,0,0.2-0.1,0.2-0.2C99.7,53.4,99.8,53.5,99.8,53.6C99.9,53.5,99.8,53.6,99.8,53.6z M102.4,52.4
						C102.3,52.4,102.3,52.3,102.4,52.4C102.3,52.3,102.4,52.3,102.4,52.4C102.4,52.3,102.4,52.3,102.4,52.4z M103.7,52.4
						c0-0.1-0.1-0.1-0.1-0.2c0.1,0,0.1-0.1,0.2-0.1c0,0,0.1,0.1,0.1,0.1C103.8,52.3,103.7,52.3,103.7,52.4z M105.1,52.7
						c0-0.2-0.1-0.3-0.3-0.5c0.1-0.1,0.2-0.1,0.3-0.2c0.1,0.1,0.2,0.2,0.4,0.2C105.2,52.3,105.1,52.4,105.1,52.7z M105.1,5.3
						c-0.1-0.1-0.2-0.2-0.3-0.2c0.1-0.1,0.2-0.3,0.3-0.5c0,0.2,0.2,0.4,0.4,0.5C105.3,5.1,105.2,5.2,105.1,5.3z M106.4,51
						C106.4,51,106.4,50.9,106.4,51c0-0.1,0-0.1,0-0.1C106.4,50.9,106.4,50.9,106.4,51C106.4,50.9,106.4,51,106.4,51z M106.4,6.4
						C106.4,6.4,106.4,6.3,106.4,6.4c0-0.1,0-0.1,0-0.1C106.4,6.3,106.4,6.3,106.4,6.4C106.4,6.3,106.4,6.4,106.4,6.4z M107.8,51.2
						c0-0.1-0.1-0.2-0.1-0.3c0.1-0.1,0.2-0.1,0.2-0.2c0.1,0.1,0.1,0.1,0.2,0.1C107.9,50.9,107.8,51,107.8,51.2z M107.8,6.5
						c-0.1-0.1-0.1-0.2-0.2-0.2c0.1-0.1,0.1-0.2,0.1-0.3c0.1,0.1,0.2,0.3,0.3,0.3C108,6.4,107.9,6.5,107.8,6.5z M109.1,49.7
						c0,0,0-0.1-0.1-0.1c0.1,0,0.1-0.1,0.2-0.1c0,0,0.1,0,0.1,0.1C109.2,49.5,109.1,49.6,109.1,49.7z M109.2,7.8
						c0-0.1-0.1-0.1-0.2-0.1c0,0,0.1-0.1,0.1-0.1C109.1,7.6,109.2,7.7,109.2,7.8C109.2,7.8,109.2,7.8,109.2,7.8z M110.4,50.1
						c0-0.2-0.1-0.4-0.3-0.6c0.1-0.1,0.2-0.2,0.3-0.3c0.1,0.1,0.3,0.2,0.5,0.3C110.6,49.5,110.4,49.8,110.4,50.1z M110.5,8
						c-0.1-0.1-0.2-0.2-0.3-0.3c0.2-0.1,0.3-0.3,0.3-0.6c0,0.3,0.2,0.5,0.5,0.6C110.7,7.8,110.6,7.9,110.5,8z M111.8,48.5
						c0-0.1-0.1-0.3-0.2-0.4c0.1-0.1,0.2-0.1,0.2-0.2c0.1,0.1,0.2,0.2,0.3,0.2C112,48.2,111.8,48.3,111.8,48.5z M111.8,9.3
						c-0.1-0.1-0.2-0.2-0.2-0.2c0.1-0.1,0.2-0.2,0.2-0.3c0.1,0.2,0.2,0.3,0.3,0.4C112,9.2,111.9,9.2,111.8,9.3z M113.1,47.1
						c0-0.1-0.1-0.2-0.2-0.3c0.1,0,0.1-0.1,0.2-0.2c0.1,0.1,0.1,0.1,0.2,0.2C113.3,46.9,113.2,47,113.1,47.1z M113.1,10.6
						c-0.1-0.1-0.1-0.1-0.2-0.2c0.1-0.1,0.1-0.2,0.2-0.3c0.1,0.1,0.1,0.2,0.2,0.3C113.3,10.5,113.2,10.5,113.1,10.6z M114.5,11.6
						c0.1,0.1,0.2,0.2,0.3,0.2c-0.1,0-0.2,0.1-0.3,0.2c0-0.1-0.1-0.1-0.2-0.2C114.4,11.7,114.5,11.6,114.5,11.6z M114.5,45.7
						c0-0.1-0.1-0.2-0.2-0.2c0.1-0.1,0.1-0.1,0.2-0.2c0.1,0.1,0.2,0.1,0.3,0.2C114.7,45.5,114.6,45.6,114.5,45.7z M115.8,44.4
						c0-0.1-0.1-0.2-0.2-0.3c0.1-0.1,0.2-0.2,0.2-0.2c0.1,0.1,0.2,0.2,0.4,0.2C116,44.2,115.9,44.3,115.8,44.4z M115.8,13.4
						c-0.1-0.1-0.1-0.2-0.2-0.3c0.1-0.1,0.2-0.2,0.2-0.3c0.1,0.2,0.2,0.3,0.4,0.3C116,13.2,115.9,13.3,115.8,13.4z M117.2,43.2
						c0-0.2-0.1-0.3-0.3-0.5c0.1-0.1,0.2-0.2,0.3-0.3c0.1,0.2,0.3,0.3,0.6,0.3C117.5,42.8,117.2,43,117.2,43.2z M117.3,41.3
						c0,0,0.1,0.1,0.1,0.1c-0.1,0-0.1,0.1-0.2,0.2c0,0,0-0.1-0.1-0.1C117.2,41.5,117.2,41.4,117.3,41.3z M117.1,15.8
						C117.1,15.7,117.2,15.7,117.1,15.8c0.1,0,0.2,0,0.3,0.1c0,0-0.1,0-0.1,0.1C117.2,15.9,117.2,15.8,117.1,15.8z M117.2,14.8
						c-0.1-0.1-0.2-0.2-0.3-0.3c0.1-0.1,0.2-0.3,0.3-0.5c0.1,0.3,0.3,0.5,0.6,0.5C117.5,14.5,117.3,14.6,117.2,14.8z M118.5,40.4
						c0-0.1-0.1-0.1-0.1-0.2c0.1-0.1,0.2-0.1,0.2-0.2c0.1,0.1,0.2,0.1,0.3,0.1C118.7,40.1,118.6,40.2,118.5,40.4z M118.6,38.7
						C118.6,38.7,118.6,38.7,118.6,38.7c0.1,0.1,0,0.1,0,0.1C118.6,38.8,118.6,38.7,118.6,38.7C118.6,38.7,118.6,38.7,118.6,38.7z
						 M118.6,18.5C118.6,18.5,118.6,18.5,118.6,18.5c0.1,0,0.1,0,0.1,0C118.6,18.6,118.6,18.6,118.6,18.5
						C118.6,18.6,118.6,18.5,118.6,18.5z M118.6,17.3c-0.1-0.1-0.1-0.2-0.2-0.2c0.1-0.1,0.1-0.1,0.1-0.2c0.1,0.1,0.2,0.2,0.3,0.3
						C118.8,17.2,118.7,17.3,118.6,17.3z M119.9,37.7c0-0.1-0.1-0.3-0.2-0.4c0.1-0.1,0.2-0.2,0.2-0.3c0.1,0.1,0.3,0.2,0.5,0.3
						C120.1,37.4,120,37.6,119.9,37.7z M120,22.6c0,0,0-0.1,0-0.1C120,22.5,120,22.6,120,22.6C120,22.6,120,22.6,120,22.6z
						 M120.1,34.7C120,34.7,120,34.7,120.1,34.7C120,34.7,120,34.7,120.1,34.7C120,34.6,120,34.7,120.1,34.7z M119.9,21.3
						c0-0.1-0.1-0.1-0.1-0.2c0,0,0.1-0.1,0.1-0.1c0.1,0.1,0.1,0.1,0.2,0.2C120,21.3,120,21.3,119.9,21.3z M119.9,35.9
						c0,0,0.1,0.1,0.2,0.1c-0.1,0-0.2,0.1-0.2,0.2c0,0-0.1-0.1-0.1-0.1C119.8,36,119.9,36,119.9,35.9z M119.9,20.1
						c-0.1-0.1-0.1-0.2-0.2-0.3c0.1-0.1,0.2-0.2,0.2-0.3c0.1,0.2,0.3,0.3,0.5,0.3C120.2,19.9,120,20,119.9,20.1z M121.2,25
						C121.2,25.1,121.2,25.1,121.2,25c0.1,0.1,0.2,0.2,0.3,0.2c-0.1,0.1-0.2,0.1-0.3,0.2c0-0.1-0.1-0.2-0.2-0.2
						C121.1,25.2,121.1,25.1,121.2,25z M121.2,29.2c0,0.1,0.1,0.1,0.2,0.1c-0.1,0-0.1,0.1-0.2,0.2c0,0-0.1-0.1-0.1-0.1c0,0,0,0,0,0
						C121.1,29.3,121.1,29.2,121.2,29.2z M121.1,27.9C121.1,27.9,121.1,27.9,121.1,27.9c0.1-0.1,0.1-0.1,0.1-0.1
						c0,0.1,0.1,0.1,0.2,0.2c-0.1,0-0.1,0.1-0.2,0.1C121.1,28,121.1,28,121.1,27.9z M121.2,26.7C121.2,26.7,121.2,26.8,121.2,26.7
						c-0.1,0-0.2-0.1-0.2-0.1c0.1-0.1,0.1-0.1,0.2-0.2c0.1,0.1,0.1,0.1,0.2,0.2C121.4,26.6,121.3,26.7,121.2,26.7z M121.2,30.5
						c0.1,0.1,0.1,0.1,0.2,0.2c-0.1,0-0.2,0.1-0.2,0.2c0-0.1-0.1-0.1-0.2-0.2C121.1,30.6,121.1,30.5,121.2,30.5z M121.2,32.2
						c-0.1-0.1-0.1-0.2-0.2-0.2c0,0,0,0,0.1-0.1c0-0.1,0.1-0.1,0.1-0.2c0.1,0.1,0.2,0.2,0.3,0.2C121.4,32,121.3,32.1,121.2,32.2z"/>
				</g>
			</g>
		</g>
	</g>
</g>
<path style="fill:#FFFFFF;" d="M89.7,31c-0.2,0-0.4-0.2-0.4-0.4c0-0.2,0.2-0.4,0.4-0.4h2.8c0.2,0,0.4,0.2,0.4,0.4
	c0,0.2-0.2,0.4-0.4,0.4c0,0-0.8,0-1,0c0,0.2,0,5,0,5c0,0.2-0.2,0.4-0.4,0.4s-0.4-0.2-0.4-0.4c0,0,0-4.8,0-5C90.5,31,89.7,31,89.7,31
	z"/>
<path style="fill:#FFFFFF;" d="M85.4,23.2v5.4c0,0.2-0.2,0.4-0.4,0.4c-0.2,0-0.4-0.2-0.4-0.4v-5.4c0-0.2,0.2-0.4,0.4-0.4
	C85.2,22.7,85.4,22.9,85.4,23.2z"/>
<path style="fill:#FFFFFF;" d="M82.7,35.7c0.2,0,0.4,0.2,0.4,0.4c0,0.2-0.2,0.4-0.4,0.4h-2.5c-0.2,0-0.4-0.2-0.4-0.4v-5.4
	c0-0.2,0.2-0.4,0.4-0.4c0.2,0,0.4,0.2,0.4,0.4c0,0,0,4.8,0,5C80.9,35.7,82.7,35.7,82.7,35.7z"/>
<path style="fill:#FFFFFF;" d="M80.6,41.2c0,0.2,0,2.3,0,2.3c0,0.2-0.2,0.4-0.4,0.4c-0.2,0-0.4-0.2-0.4-0.4v-5.4
	c0-0.2,0.2-0.4,0.4-0.4h2.5c0.2,0,0.4,0.2,0.4,0.4c0,0.2-0.2,0.4-0.4,0.4c0,0-1.8,0-2,0c0,0.2,0,1.7,0,1.9c0.2,0,1.9,0,1.9,0
	c0.2,0,0.4,0.2,0.4,0.4c0,0.2-0.2,0.4-0.4,0.4C82.6,41.2,80.9,41.2,80.6,41.2z"/>
<path style="fill:#FFFFFF;" d="M88,41.6c0,0.5-0.1,1-0.2,1.3c-0.5,1.1-1.6,1.2-1.9,1.2c-0.3,0-1.4-0.1-1.9-1.2
	c-0.2-0.3-0.2-0.8-0.2-1.3v-3.4c0-0.2,0.2-0.4,0.4-0.4c0.2,0,0.4,0.2,0.4,0.4v3.4c0,0.4,0.1,0.8,0.2,1c0.3,0.6,0.8,0.7,1.1,0.7
	c0.3,0,0.8-0.1,1.1-0.7c0.1-0.2,0.2-0.6,0.2-1v-3.4c0-0.2,0.2-0.4,0.4-0.4c0.2,0,0.4,0.2,0.4,0.4V41.6z"/>
<path style="fill:#FFFFFF;" d="M93.8,43.5c0,0.3-0.2,0.5-0.5,0.5c-0.2,0-0.3-0.1-0.4-0.2c0,0-2.9-4.2-3.2-4.8c0,0.7,0,4.6,0,4.6
	c0,0.2-0.2,0.4-0.4,0.4s-0.4-0.2-0.4-0.4v-5.2c0-0.4,0.3-0.7,0.7-0.7c0.2,0,0.4,0.1,0.5,0.3c0,0,2.6,3.9,3,4.4c0-0.6,0-4.3,0-4.3
	c0-0.2,0.2-0.4,0.4-0.4c0.2,0,0.4,0.2,0.4,0.4V43.5z"/>
<path style="fill:#FFFFFF;" d="M93.8,31c-0.2,0-0.4-0.2-0.4-0.4c0-0.2,0.2-0.4,0.4-0.4h2.8c0.2,0,0.4,0.2,0.4,0.4
	c0,0.2-0.2,0.4-0.4,0.4c0,0-0.8,0-1,0c0,0.2,0,5,0,5c0,0.2-0.2,0.4-0.4,0.4c-0.2,0-0.4-0.2-0.4-0.4c0,0,0-4.8,0-5
	C94.6,31,93.8,31,93.8,31z"/>
<path style="fill:#FFFFFF;" d="M100.5,32.9c0.2,0,0.4,0.2,0.4,0.4c0,0.2-0.2,0.4-0.4,0.4c0,0-2,0-2.2,0c0,0.2,0,1.8,0,2
	c0.2,0,2.3,0,2.3,0c0.2,0,0.4,0.2,0.4,0.4c0,0.2-0.2,0.4-0.4,0.4h-2.7c-0.2,0-0.4-0.2-0.4-0.4v-5.5c0-0.2,0.2-0.4,0.4-0.4h2.7
	c0.2,0,0.4,0.2,0.4,0.4c0,0.2-0.2,0.4-0.4,0.4c0,0-2.1,0-2.3,0c0,0.2,0,1.7,0,1.9C98.5,32.9,100.5,32.9,100.5,32.9z"/>
<path style="fill:#FFFFFF;" d="M110.8,30.8c0,0-1.9,3.5-1.9,3.5v1.7c0,0.2-0.2,0.4-0.4,0.4c-0.2,0-0.4-0.2-0.4-0.4c0,0,0-1.6,0-1.7
	c-0.1-0.1-1.9-3.5-1.9-3.5l0-0.2c0-0.2,0.2-0.4,0.4-0.4c0.2,0,0.3,0.1,0.4,0.2c0,0,1.3,2.6,1.5,3c0.4-0.7,1.6-3,1.6-3
	c0.1-0.1,0.2-0.2,0.4-0.2c0.2,0,0.4,0.2,0.4,0.4L110.8,30.8z"/>
<path style="fill:#FFFFFF;" d="M98.5,43.5c-0.5,0.3-1.3,0.5-2,0.5H95c-0.2,0-0.4-0.2-0.4-0.4v-5.4c0-0.2,0.2-0.4,0.4-0.4h1.5
	c0.8,0,1.5,0.2,2,0.5c1,0.7,1.4,1.8,1.4,2.6C99.9,41.2,99.8,42.6,98.5,43.5z M98.1,39c-0.5-0.3-1-0.4-1.9-0.4c0,0-0.6,0-0.7,0
	c0,0.2,0,4.4,0,4.7c0.2,0,0.7,0,0.7,0c0.5,0,1.3,0,2-0.5c0.6-0.5,0.9-1.1,0.9-1.9C99.1,40.1,98.7,39.4,98.1,39z"/>
<path style="fill:#FFFFFF;" d="M104.5,34.2c0.3,0.4,1.2,1.6,1.2,1.6l0.1,0.3c0,0.2-0.2,0.4-0.4,0.4c-0.1,0-0.2-0.1-0.3-0.2
	c0,0-1.5-2-1.6-2.1c-0.1,0-0.6,0-0.8,0c0,0.2,0,1.8,0,1.8c0,0.2-0.2,0.4-0.4,0.4c-0.2,0-0.4-0.2-0.4-0.4v-5.4c0-0.2,0.2-0.4,0.4-0.4
	h1.2c0.9,0,1.3,0.1,1.5,0.2c0.7,0.3,1.1,1,1.1,1.8C106.1,33.1,105.5,34,104.5,34.2z M104.7,31.2c-0.3-0.2-0.6-0.2-1.1-0.2
	c0,0-0.7,0-0.9,0c0,0.2,0,2.3,0,2.5c0.2,0,0.6,0,0.6,0c0.7,0,0.9,0,1.1-0.1c0.7-0.2,0.9-0.7,0.9-1.2C105.3,31.8,105,31.4,104.7,31.2
	z"/>
<path style="fill:#FFFFFF;" d="M86.3,36.6c-1.8,0-3.3-1.5-3.3-3.2c0-2,1.7-3.3,3.3-3.3c1.8,0,3.3,1.4,3.3,3.2
	C89.6,35.1,88.1,36.6,86.3,36.6z M86.3,30.9c-1.3,0-2.4,1.1-2.4,2.5c0,1.3,1.1,2.4,2.4,2.4c1.4,0,2.5-1.1,2.5-2.4
	C88.7,32,87.6,30.9,86.3,30.9z"/>
<path style="fill:#FFFFFF;" d="M81.4,29h-1.2c-0.2,0-0.4-0.2-0.4-0.4v-5.4c0-0.2,0.2-0.4,0.4-0.4h1.2c2,0,2.1,1.4,2.1,1.7
	c0,0.6-0.3,1-0.6,1.2c0.6,0.3,0.9,0.8,0.9,1.5c0,0.6-0.3,1.2-0.8,1.5C82.6,28.9,82.2,29,81.4,29z M82.3,25.2
	c0.2-0.1,0.4-0.4,0.4-0.7c0-0.2-0.1-0.4-0.2-0.6c-0.2-0.2-0.5-0.3-1.1-0.3c0,0-0.5,0-0.7,0c0,0.2,0,1.6,0,1.8c0.2,0,0.6,0,0.6,0
	C81.7,25.3,82,25.3,82.3,25.2z M82.4,26.2c-0.3-0.1-0.5-0.1-1.1-0.1c0,0-0.4,0-0.6,0c0,0.2,0,1.9,0,2.1c0.2,0,0.7,0,0.7,0
	c0.5,0,0.8,0,1.1-0.1c0.3-0.1,0.6-0.5,0.6-0.9C83,26.7,82.8,26.4,82.4,26.2z"/>
<path style="fill:#FFFFFF;" d="M89.7,26.1h2.1c-0.1,0.5-0.3,1.1-0.7,1.5c-1,1-2.6,1-3.5,0c-1-1-1-2.5,0-3.4c1-1,2.6-1,3.5,0
	c0.2,0.2,0.4,0.2,0.6,0c0.2-0.2,0.2-0.4,0-0.6c-1.3-1.3-3.4-1.3-4.7,0c-1.3,1.3-1.3,3.3,0,4.6c1.3,1.3,3.4,1.3,4.7,0
	c0.7-0.6,1-1.5,1-2.3v-0.1c0-0.2-0.2-0.4-0.4-0.4h-2.5h-0.1c-0.2,0-0.4,0.2-0.4,0.4C89.2,26,89.4,26.1,89.7,26.1L89.7,26.1z"/>
</svg>
