<?xml version="1.0" encoding="utf-8"?>
<!-- Generator: Adobe Illustrator 26.0.2, SVG Export Plug-In . SVG Version: 6.00 Build 0)  -->
<svg version="1.1" id="Layer_1" xmlns="http://www.w3.org/2000/svg" xmlns:xlink="http://www.w3.org/1999/xlink" x="0px" y="0px"
	 viewBox="0 0 26.2 36.2" enable-background="new 0 0 26.2 36.2" xml:space="preserve">
<path id="Path_221" d="M5.4,23.5c-1.1-1.1-0.3-0.4-0.9-1.4c-0.8-1.4-2.8-1.6-4.2,0.2c-1.3,2.2,1.1,4.3,4.1,7.3
	c1.8,1.8,3.8,3.6,5.8,5.2c0.7,1.3,2.2,1.8,3.5,1.1c0,0,0.1,0,0.1-0.1c8.7-6.7,8.1-5.4,11.1-7.7c2.6-1.5,0.5-5.4-1.9-4.5
	c-3,1.3-5.7,2.9-8.3,4.9C15,19.2,16.2,3.2,15,1.1C14.4,0,13-0.3,11.8,0.3c-0.5,0.3-0.9,0.8-1.1,1.4c-0.5,2.1-0.6,25.4-0.6,26.6
	C8.9,27,7.1,25.3,5.4,23.5"/>
</svg>
