<svg version="1.1" id="Layer_1" xmlns="http://www.w3.org/2000/svg" xmlns:xlink="http://www.w3.org/1999/xlink" x="0px" y="0px"
	 viewBox="0 0 115.9 125.3" enable-background="new 0 0 115.9 125.3" xml:space="preserve">
<path id="Path_220" d="M58.2,97.1c5.4,4.9,11.2,9.4,17.4,13.4c15.5,10.1,19.1,10.1,27.9,14.5c0.9,0.4,2-0.1,2.3-1.1
	c0.2-0.6,0.1-1.3-0.3-1.8c-0.8-1-9.5-4.4-14-6.6C42.1,88.7,26.6,56,23.3,9.8c-0.1-1.2-0.4-0.9,2.3,2.5c1,1.3,6.9,7.9,9.2,8.9
	c0.7,0.3,1.5-0.1,1.8-0.8c0.2-0.5,0.1-1-0.2-1.4c-0.9-1.2-7-6.4-9.6-10.2c-2.9-4.3-3.2-6.5-4.5-7.5c-0.8-0.5-1.9-0.3-2.4,0.5
	c0,0.1-0.1,0.1-0.1,0.2c-0.6,0.3-7.1,10.8-11.3,19.7c-0.2,0.7,0.1,1.4,0.8,1.6c0.5,0.2,1.1,0,1.5-0.5c0.2-0.3,8.8-15.6,8.8-15.3
	c0.8,10.6,2.4,21.1,4.7,31.4C29.4,58.7,36,75.8,58.2,97.1"/>
</svg>
