<?xml version="1.0" encoding="utf-8"?>
<!-- Generator: Adobe Illustrator 26.0.2, SVG Export Plug-In . SVG Version: 6.00 Build 0)  -->
<svg version="1.1" id="Layer_1" xmlns="http://www.w3.org/2000/svg" xmlns:xlink="http://www.w3.org/1999/xlink" x="0px" y="0px"
	 viewBox="0 0 128 89" enable-background="new 0 0 128 89" xml:space="preserve">
<path id="Path_220" d="M54,77.7c-6.6,2.6-13.5,4.6-20.4,6.1c-17.6,3.8-20.8,2.4-30.3,3.3c-1-0.1-1.8-0.9-1.7-1.9
	c0-0.6,0.4-1.2,1-1.5c1.1-0.6,10.1-0.6,15-1c54-7,79.9-31.6,100.1-73.4c0.5-1.1,0.7-0.7-3,1.5c-1.4,0.9-9.1,4.8-11.5,4.9
	c-0.8,0-1.3-0.7-1.3-1.5c0-0.5,0.3-0.9,0.7-1.1c1.3-0.8,8.6-3.4,12.3-6c4.2-3,5.3-4.9,6.8-5.3c0.9-0.2,1.8,0.4,2,1.3
	c0,0.1,0,0.2,0,0.3c0.4,0.5,2.4,12.6,2.8,22.4c0.1,1.4-2.2,1.7-2.5,0.3c0-0.3-2.1-17.7-2.2-17.4c-4.6,9.5-9.9,18.7-15.9,27.5
	C94,52.5,81.7,66.1,54,77.7"/>
</svg>
