<?xml version="1.0" encoding="utf-8"?>
<!-- Generator: Adobe Illustrator 19.0.0, SVG Export Plug-In . SVG Version: 6.00 Build 0)  -->
<svg version="1.1" id="Layer_1" xmlns="http://www.w3.org/2000/svg" xmlns:xlink="http://www.w3.org/1999/xlink" x="0px" y="0px"
	 viewBox="-137 370.9 320 100" style="enable-background:new -137 370.9 320 100;" xml:space="preserve">
<path style="opacity:0.7;enable-background:new    ;" d="M-70.8,388.5c-3.5-4-9.8-5.7-17.8-5.7H-112c-1.6,0-3,1.2-3.3,2.8l-9.7,61.6
	c-0.2,1.2,0.7,2.3,2,2.3h14.4l3.6-23l-0.1,0.7c0.3-1.6,1.6-2.8,3.3-2.8h6.9c13.4,0,24-5.5,27-21.3c0.1-0.5,0.2-0.9,0.2-1.4
	C-66.8,396.1-67.7,392.1-70.8,388.5"/>
<path style="opacity:0.5;enable-background:new    ;" d="M-67.7,402c-0.1,0.5-0.2,0.9-0.2,1.4c-3.1,15.8-13.6,21.3-27,21.3h-6.9
	c-1.6,0-3,1.2-3.3,2.8l-3.5,22.2l-1,6.3c-0.2,1.1,0.7,2,1.7,2h12.2c1.4,0,2.7-1,2.9-2.5l0.1-0.6l2.3-14.5l0.2-0.8
	c0.2-1.4,1.4-2.5,2.9-2.5h1.8c11.8,0,21-4.8,23.7-18.6c1.1-5.8,0.5-10.6-2.4-14C-65.2,403.5-66.4,402.7-67.7,402"/>
<path style="fill:#474B4C;" d="M103.7,402.8H87.5c-1.1,0-2,0.8-2.2,1.9L78.8,446c-0.1,0.8,0.5,1.5,1.3,1.5h8.3
	c0.8,0,1.4-0.6,1.6-1.3l1.8-11.7c0.2-1.1,1.1-1.9,2.2-1.9h5.1c10.6,0,16.8-5.1,18.3-15.3c0.8-4.4,0.1-7.9-2-10.4
	C113.1,404.2,109,402.8,103.7,402.8 M105.5,417.9c-0.9,5.8-5.3,5.8-9.6,5.8h-2.4l1.7-10.8c0.1-0.7,0.7-1.1,1.3-1.1h1.2
	c2.9,0,5.6,0,7,1.6C105.6,414.4,105.8,415.8,105.5,417.9 M-11.2,402.8h-16.1c-1.1,0-2.1,0.8-2.2,1.9l-6.6,41.3
	c-0.1,0.8,0.5,1.5,1.4,1.5h7.7c1.1,0,2-0.8,2.2-1.9l1.7-11.1c0.2-1.1,1.1-1.9,2.2-1.9h5.1c10.6,0,16.8-5.1,18.4-15.3
	c0.7-4.4,0-7.9-2.1-10.4C-1.8,404.2-5.8,402.8-11.2,402.8 M-9.4,417.9c-0.9,5.8-5.3,5.8-9.5,5.8h-2.5l1.7-10.8
	c0.1-0.7,0.7-1.1,1.4-1.1h1.1c2.9,0,5.6,0,7,1.6C-9.3,414.4-9.1,415.8-9.4,417.9 M36.9,417.7h-7.7c-0.7,0-1.2,0.5-1.3,1.1l-0.4,2.2
	l-0.5-0.8c-1.7-2.4-5.4-3.2-9.1-3.2c-8.5,0-15.8,6.5-17.2,15.5c-0.8,4.5,0.3,8.8,2.8,11.9c2.4,2.8,5.8,3.9,9.8,3.9
	c6.8,0,10.6-4.4,10.6-4.4l-0.3,2.1c-0.1,0.8,0.5,1.5,1.3,1.5h7c1.1,0,2-0.8,2.2-1.9l4.1-26.4C38.4,418.4,37.7,417.7,36.9,417.7
	 M26.2,432.7c-0.8,4.4-4.3,7.4-8.7,7.4c-2.3,0-4.1-0.7-5.2-2.1c-1.2-1.4-1.6-3.3-1.2-5.4c0.7-4.4,4.2-7.4,8.6-7.4
	c2.2,0,4,0.7,5.2,2.1C26,428.6,26.5,430.6,26.2,432.7 M151.8,417.7h-7.7c-0.7,0-1.2,0.5-1.3,1.1l-0.4,2.2l-0.5-0.8
	c-1.7-2.4-5.4-3.2-9.1-3.2c-8.6,0-15.8,6.5-17.2,15.5c-0.8,4.5,0.3,8.8,2.8,11.9c2.4,2.8,5.7,3.9,9.7,3.9c6.9,0,10.7-4.4,10.7-4.4
	l-0.3,2.1c-0.2,0.8,0.5,1.5,1.3,1.5h6.9c1.1,0,2.1-0.8,2.3-1.9l4.1-26.4C153.3,418.4,152.6,417.7,151.8,417.7 M141.1,432.7
	c-0.8,4.4-4.3,7.4-8.8,7.4c-2.2,0-4-0.7-5.1-2.1c-1.2-1.4-1.6-3.3-1.2-5.4c0.7-4.4,4.2-7.4,8.6-7.4c2.2,0,4,0.7,5.1,2.1
	C140.9,428.6,141.4,430.6,141.1,432.7 M78,417.7h-7.8c-0.7,0-1.4,0.4-1.8,1l-10.7,15.8l-4.5-15.1c-0.3-0.9-1.2-1.6-2.2-1.6h-7.6
	c-0.9,0-1.6,0.9-1.3,1.8l8.6,25.1l-8.1,11.3c-0.6,0.9,0,2.1,1.1,2.1h7.8c0.7,0,1.4-0.4,1.8-1l25.8-37.2
	C79.7,418.9,79.1,417.7,78,417.7 M160.9,403.9l-6.6,42.1c-0.1,0.8,0.5,1.5,1.3,1.5h6.7c1.1,0,2-0.8,2.2-1.9l6.5-41.3
	c0.1-0.8-0.5-1.5-1.3-1.5h-7.5C161.6,402.8,161,403.3,160.9,403.9"/>
<path style="opacity:0.4;enable-background:new    ;" d="M-70.9,400.7c-1-0.3-2-0.5-3-0.7c-1.8-0.3-3.9-0.4-6-0.4h-18.3
	c-0.5,0-0.9,0.1-1.3,0.3c-0.8,0.4-1.5,1.2-1.6,2.2l-3.9,24.6l-0.1,0.7c0.2-1.6,1.6-2.8,3.3-2.8h6.8c13.4,0,24-5.5,27-21.3
	c0.1-0.5,0.2-0.9,0.2-1.4c-0.8-0.4-1.6-0.8-2.5-1.1C-70.4,400.8-70.7,400.8-70.9,400.7"/>
</svg>
