<svg xmlns="http://www.w3.org/2000/svg" viewBox="0 0 67.52 77.65"><path d="M15.21,6.52l.21.12a3.71,3.71,0,0,0-1.14-4.5h0C14.48,3.61,13.09,5.43,15.21,6.52Z" fill="currentColor"/><path d="M31.68,12c-.69-.53-1.21-.3-1.72-.37a11.59,11.59,0,0,1-4.37-2.14c-.56-.37-1.18-.63-1.68,0h0a1.5,1.5,0,0,0,.22,2.09A2,2,0,0,0,25,12C27.15,12.67,29.31,11.67,31.68,12Z" fill="currentColor"/><path d="M3.53,34.14c.57-.28,0-.71.08-1s-.13-.25-.38-.25h0a2.76,2.76,0,0,0-2,2.54l1.12-.69C2.76,34.54,3.15,34.34,3.53,34.14Z" fill="currentColor"/><path d="M6.2,25.17h0a4.91,4.91,0,0,0-3.44-1C3.92,24.26,4.47,26.34,6.2,25.17Z" fill="currentColor"/><path d="M10.38,62.84c.3-.3.17-.4-.16-.6-.51-.3-.46.19-.51.33h0a6.09,6.09,0,0,0-.09,2.33C10,64.09,9.89,63.34,10.38,62.84Z" fill="currentColor"/><path d="M2.73,28.33h0A5.25,5.25,0,0,0,0,31C.79,30.05,3.07,30.65,2.73,28.33Z" fill="currentColor"/><path d="M4.19,17.37Z" fill="currentColor"/><path d="M2,11.94c1.43-.83,3.05-1.32,3.14-3.23l0,0a2.81,2.81,0,0,0-.58,0A2.9,2.9,0,0,0,2,11.94Z" fill="currentColor"/><path d="M6.45,4.49c.61,1,1.18,1.66,2.33.77l.77-.66C8,2.94,7.86,2.9,4.05,3.33,5,3.68,6,3.83,6.43,4.52Z" fill="currentColor"/><path d="M4.19,17.37A2.06,2.06,0,0,0,7,17.52C6.12,16.1,5.22,17.58,4.19,17.37Z" fill="currentColor"/><path d="M11.89,52.88c.62-.46.62-.56-.16-1-1.2-.76-2.39-.18-3.57-.35h0a10.36,10.36,0,0,1,3,2.15A8.63,8.63,0,0,1,11.89,52.88Z" fill="currentColor"/><path d="M34.58,68.08a5.89,5.89,0,0,1,.6-1,5.44,5.44,0,0,0-4.28.59h0a7.49,7.49,0,0,1,2.86.71C34.16,68.58,34.39,68.56,34.58,68.08Z" fill="currentColor"/><path d="M26,5.81c.16.65.1,1.68,1.35,1.68.7,0,1.48-.48,2-.18a11.27,11.27,0,0,0,3.45.6l.31,0a3.17,3.17,0,0,1,2.55,3.68h0c-.1,1.12-.55,1.55-1.69,1.55a20.07,20.07,0,0,0-5.25.19c-.43.12-1.1-.07-1,.56a1.14,1.14,0,0,0,1.31,1,20.55,20.55,0,0,0,2.22,0c1-.12,1,.53.78,1.1a2.65,2.65,0,0,1-2.42,1.88c-1.46.09-3.07-.43-4.2,1,0-.39.32-.72-.28-1a12.15,12.15,0,0,1-2.23-1.74L15.31,9.61c-.38-.32-.9-.69-.28-1.28,1.14-1.1-.13-1.48-.69-2.06s-1.24-.91-1.94,0-1.1.82-1.48-.3c-.23-.78-.45-1.22-1.32-.78a2.1,2.1,0,0,1-.82.1c-.31.41-.5.65-.93,1.19s-.37,1,.35,1.15c.38.1.72.2.62.7A1.16,1.16,0,0,1,8,9.24c-.45.18-.7.18-.86-.24-.25-.61-.79-.4-1-.28-1,.47-1.14,1.55-1.45,2.4s.58.73.95,1l.59.43c1.45,1.18,1.47,1.87,0,2.9-.25.17-.49.23-.25.63a1.51,1.51,0,0,0,.18.26,2.38,2.38,0,0,0,3.33.47,3.21,3.21,0,0,1,.77-.48,6.07,6.07,0,0,1,4,2.16c.09.65.39.84,1,.77.34-.05.71.08.78.29.46,1.29,1.95,1.24,2.79,2.06a1.2,1.2,0,0,0,1.32.15c1.26-.39,2.33-1.17,3.59-1.55a.37.37,0,0,0,0,.21A18.93,18.93,0,0,1,18,22.83c.13.42.45.32.7.42.93.36,2,.36,2.49,1.45V25c-.2-.07-.32-.22-.63-.07a28.73,28.73,0,0,1-5.38,1.69,9.85,9.85,0,0,1-6.85-.13c-.29-.14-.61-.12-.73-.52s-.23-.9-.77-.72A3.11,3.11,0,0,0,5,26.51c-.31.54.34.44.66.78s.55.73.24,1.18-.55,0-.77-.18c-1.27-.7-1.58-.5-1.95.92-.32,1.18.34,1.57,1.19,1.87.35.14.72.14.82.56-.15.34-.46.13-.66.25-.91.6-.62,1.33-.25,2.15s.74.57,1.24.1l0,0a.72.72,0,0,1,1,.16h0c.15.24.71.4.37.87-.61.91.34,1.12.78,1.38.79.46,1.08-.26,1.15-.84.2-1.38,1.19-1.13,2.06-1.1s1,.79.95,1.41c-.08,1.26.53,1.21,1.4.91a4.08,4.08,0,0,0,1-.6c1.09-.82,2.5-.88,2.69-.1.3,1.22,1.1,1.09,2,1.09a6.37,6.37,0,0,0,2.9-.94c.44-.26.75-.67,1.38-.38s-.09.85.09,1.31c.73-.77,1.44-1.55,2.13-2.32a3.1,3.1,0,0,1,4.3-.87,2.8,2.8,0,0,1,.61.53,54.27,54.27,0,0,1,3.81,4.48A5.21,5.21,0,0,1,35.58,43a.41.41,0,0,0,0,.22c-.25.07-.6-.12-.78.26l-.2.26c-.74,0-1.4-.5-2.06-.22.3.88,1.33,1.23,1.55,2.18V46c-1.25-1.45-2.32-2.92-4.65-2.92a12.25,12.25,0,0,0-7.22,1.62h0a2.5,2.5,0,0,0-.64,3.48h0c.32.54.67,1.09,1,1.66a2.44,2.44,0,0,1,.1,2.5l-.07.1a5.78,5.78,0,0,1-8,1.49h0a13.87,13.87,0,0,1-1.1-.93c-.39-.42-.74-.22-1,0a2.53,2.53,0,0,0-1,1.69c-.15,1,.9.76,1.3,1.16-.22.36-.5.24-.71.24a1.6,1.6,0,0,0-2,1,2.21,2.21,0,0,0,1,2.73c.55.36.63.84.06,1.13-1.35.63-.28,1.09.15,1.4l0,0a.89.89,0,0,0,1.24-.18c1.27-1.36,1.69-1.28,2.63.19.38.61.89.34,1.47.37s.58-.18.53-.7.22-.74.66-.87c1.12-.29,2.22-.66,3.35-.91a51,51,0,0,1,11.7-.78c.21,0,.5.14.63-.24A9.39,9.39,0,0,1,31.94,53c0-.69-.21-1.64.24-2s1.27-.11,1.9.15c.22.09.77.18.47-.45a2.3,2.3,0,0,1,.18-2l.19.25c0,.68-.31,1.45.26,2.06a1.64,1.64,0,0,0,2.16.4A2.2,2.2,0,0,0,38.12,49c-.14-.35-.69-.52-.48-1h.12c1.22,1.4,1.4,1.89.28,3.29a9.69,9.69,0,0,0-1.41,6.66A13,13,0,0,1,37.82,57c.25-.19.58-.64,1-.38s.3.91.15,1.23c-.57,1.21.2,1.82,1,2.42a20.59,20.59,0,0,0,2.21,1.46c.28.16.4.22.22.5a31,31,0,0,1-3.57,5.54c-.86.94-1.22.85-2-.18-.22-.34-.35-.77-.85-.47a4.16,4.16,0,0,0-1.67,2.79c-.21.82.47,1,1,1.25h0a.77.77,0,0,1,.4,1c-.1.39-.31.3-.68.18s-.83-.5-1,.15-.42,1.27.47,1.6c.38.12.66.24.38.78a3,3,0,0,0-.1,1.16c1,.25,1.46-.69,2.18-1A1.76,1.76,0,0,1,38.7,75c.52.3-.25.68-.25,1.12H40a.89.89,0,0,0,1-.79h0c0-.79.5-.81,1-1a6.24,6.24,0,0,0,1.23-.44,15.9,15.9,0,0,0,4.7-4.65c.46-.7,1.13-1.23,1-2.25s.28-1.4,1.31-1.4c.53,0,1,.22,1.42-.6s-.22-1.16-.62-1.64a7.75,7.75,0,0,1-2.33-5.66,4.72,4.72,0,0,0-1.36-3.73,3.21,3.21,0,0,1-.48-4.25c.92-1.48,1.2-1.44,2.23-.1Q52.47,53.8,56,57.93a2.67,2.67,0,0,0,3.7.41,7.94,7.94,0,0,0,3.48-5.57,15.36,15.36,0,0,0-1.18-9,7.29,7.29,0,0,1,.53-8.62A4,4,0,0,0,59,37.63c-.11.2-.25.45-.53.38s-.17-.33-.17-.51a11.05,11.05,0,0,1,.41-3.57c.38-1,1.19-1.72,1.63-2.82a7.33,7.33,0,0,0-4,3.65,12.46,12.46,0,0,1,.66-6,31.7,31.7,0,0,1,2.65-5,12.66,12.66,0,0,0-3.42,2.76,28.56,28.56,0,0,0-2.41,3.76,9.22,9.22,0,0,1,1-6.85A25,25,0,0,1,61.61,16,16.09,16.09,0,0,0,67,10.27,3.56,3.56,0,0,0,63.29,5a15.82,15.82,0,0,0-5.43,1.55,2.05,2.05,0,0,1-2.57-.22c-1.12-1-1.75-.79-2.72.3a9.54,9.54,0,0,0-1.5,2.06,8.31,8.31,0,0,0-1.34,5.15h.32a9.35,9.35,0,0,1,6.41-3c1.43,0,1.74-1,.89-2.19-.38-.53-.21-.67.24-.82a19.24,19.24,0,0,1,5.7-1.32,2.12,2.12,0,0,1,2.2,2,2.21,2.21,0,0,1-.24,1.07,7.82,7.82,0,0,1-2,2.85C61.4,14,59.44,15.59,57.53,17.2a18.47,18.47,0,0,0-4.66,5.22,11.54,11.54,0,0,0-.28,9,31,31,0,0,0,5.33,9.07,14.59,14.59,0,0,1,3.92,10.08,8.67,8.67,0,0,1-2.06,5.25c-1,1.14-2.28,1.45-3.1.3-.62-.87-1.4-1.59-2-2.47-2.17-3.15-4.4-6.25-6.58-9.35a59.15,59.15,0,0,1-6.82-11,6.19,6.19,0,0,1-.51-5.16c.09-.15.16-.25.09-.43-.35-.87-2.87-1.55-3.25-.78-.73,1.45-1.43.39-2.16.18h.28c.66,0,1.24.16,1.84-.52a1.18,1.18,0,0,1,.25-.25,1.43,1.43,0,0,1,2,.25,3,3,0,0,0,2.81.77A5.41,5.41,0,0,1,41.46,23c.34-1.78,1.72-2.4,3.5-2.32a2.58,2.58,0,0,1,.31-3.1c.8-1,.36-1.13-.3-1.73-1.38-1.32-1.52-2.14.34-3.1.58-.31,1.33.05,1.84-.6l-2.56-1.83a3.82,3.82,0,0,1-1.13-4.65,8,8,0,0,1,2.18-2.39,1.6,1.6,0,0,0,.54-2.14c-.5-.85-1.07-1.48-2.22-1a13.8,13.8,0,0,1-7.16.1,5.76,5.76,0,0,0-5.6,1.63l.08,0a2.81,2.81,0,0,1-2.92,1.36,2.78,2.78,0,0,0-1.83.51C25.63,4.26,25.85,5.16,26,5.81Zm8.29-2.89a2.4,2.4,0,0,1,.9-.27c.73,0,1.73.13,1.75.71,0,.82-1,.79-1.71.79A1.42,1.42,0,0,1,34.3,4c-.5-.37-.7-.71,0-1Z" fill="currentColor"/><path d="M34.56,77.14c.75-.24.6-.56.22-1h0c-1.22-.36-1.68,1-2.65,1.08A4.7,4.7,0,0,0,34.56,77.14Z" fill="currentColor"/><path d="M38.78,77.65a2.66,2.66,0,0,0,1.48-1.16l.08,0C39.24,76,39,76.66,38.78,77.65Z" fill="currentColor"/><path d="M32.93,73c.48.17.52.13.59-.41s-.23-.48-.56-.48h0a6,6,0,0,0-3.1,1.24C31.1,73.36,32,72.71,32.93,73Z" fill="currentColor"/><path d="M7,36.72c-.59-.2-1.06.2-1.55.46v.15H5.39a2.2,2.2,0,0,0,1.7-.25C7.32,36.91,7.07,36.72,7,36.72Z" fill="currentColor"/><path d="M8.26,58.37c.72.05,1.1-.18,1.25-.88.08-.43.21-.85.33-1.27H9.77a4,4,0,0,0-4.54,3.46A4.54,4.54,0,0,1,8.26,58.37Z" fill="currentColor"/><path d="M15.11,63c-.58.06-.46.3-.27.72s.46.79.88,1.5h0c0-.84,0-1.22,0-1.75S15.46,63,15.11,63Z" fill="currentColor"/></svg>
