<svg xmlns="http://www.w3.org/2000/svg" viewBox="0 0 65.56 77.65"><path d="M31.13,52.09c-.73-10.5-1.69-13.66-5-20.44C20.12,19.5,23.63,13.74,32.78,0c9.15,13.74,12.66,19.5,6.68,31.65-3.34,6.78-4.31,9.94-5,20.44Zm4.76,8c.4,6.33,4.15,8.93,7.38,8.79,7.9-.37,9.45-10.52,3.39-12.49,2.19,3.16-.12,7-3.77,7.1-2.37.08-4.77-1.2-5.06-3.4Zm-6.23,0c-.4,6.33-4.15,8.93-7.37,8.79-7.9-.37-9.45-10.52-3.39-12.49-2.19,3.16.11,7,3.77,7.1,2.37.08,4.77-1.2,5-3.4Zm1.47,0a27,27,0,0,1-2,6.93c-1.61,3.9,1,7.26,3.67,10.58,2.65-3.33,5.28-6.68,3.67-10.58a27,27,0,0,1-2-6.93Zm4.76-8c1.18-7.87,3-21.94,12.51-24,10.17-2.21,21.07,6.43,15.77,17.25-2.65,5.42-10.55,8.6-14,1.64,5.85,1.64,5.47-7.32-1.21-6.49-6.11.76-9.58,6.11-11.11,11.6Zm-6.23,0c-1.17-7.87-3-21.94-12.5-24C7,25.88-3.91,34.52,1.38,45.34c2.65,5.42,10.55,8.6,14,1.64-5.85,1.64-5.47-7.32,1.2-6.49,6.12.76,9.59,6.11,11.11,11.6Zm-3.24,1.37H39.14c5.74,0,5.72,5.3,0,5.3H26.46C20.7,58.76,20.67,53.46,26.42,53.46Z" fill="currentColor" fill-rule="evenodd"/></svg>
