<svg id="Layer_1" data-name="Layer 1" xmlns="http://www.w3.org/2000/svg" viewBox="0 0 74.79 86.5"><path d="M53.58,20.65l.26-1.9c-4.47,7.13-6.87,13-17,23.53l0,6.51c7.37-6.85,13.48-15.7,19.78-23.94-5.56,7.39-4.48,9.6-19.78,24.93l-.08,6a163.59,163.59,0,0,0,22.77-25c-4.3,5.84-5.57,9.44-22.69,25.52L36.76,63c8.72-7.75,16.6-14.49,23.75-23.85l.66-.93,0-.17-1.56.33,0-2.6-1.31.51.15-.31a15.1,15.1,0,0,0,1.29-5.49h0L58,30.87l.37-1.93L57,29.62l.11-1.83-1.09,0,1.08-3.7-1.43.65-.34-1.93H53.87l.57-2.31Z" fill="currentColor"/><path d="M62,44.53l-1.84-.74,1.47-1.7-1.2-.16.72-3.63c-4.49,7.48-14.77,16.63-24.39,25.38v4.77C45.4,62,53.87,55.28,61.56,47c0,0,0-.1,0-.15l-.74.27Z" fill="currentColor"/><path d="M23.68,13.42A87.07,87.07,0,0,0,36.5,34.64l0-7.44c-7.69-9.93-8.43-13.49-9.22-16.87l0,0-.12,1.94-.48-.56-.1,1.64-.81-1-.05,1.79-.44-.51,0,.58-.77-.62.24.43-.21.16Z" fill="currentColor"/><polygon points="37.33 6.54 37.23 0.38 37.2 0.33 37.09 0.86 36.67 0.78 36.69 1.34 36.28 1.32 36.55 2.07 35.83 1.91 35.91 2.17 35.4 2.31 36.02 3.52 34.7 2.92 37.33 6.54" fill="currentColor"/><path d="M37,74.57l0,.64a2.27,2.27,0,0,0,.16.39c4.21-1.4,7.87-2.92,12.48-3.56-4.58.72-8.53,2.55-12.63,4.12a1.94,1.94,0,0,0,1.41.64,28.38,28.38,0,0,0,6.87-2.37l.93-.41-1.08-.37,2.58-.55-.14,0a1.48,1.48,0,0,1-.35-.13l.1-.24.34.11a1.3,1.3,0,0,0,.34,0,3.81,3.81,0,0,0,1.74-.77l-.05,0h0l-1-.35.41-.12a8.84,8.84,0,0,0,3-2.24c.29-.28.58-.57.87-.83l-1.06,0,2.61-2.39-.7,0,0-.26a2.68,2.68,0,0,0,1.67-1.47c.08-.14.17-.29.27-.44l-1-.06,2-1.81L55.62,62,57,60l-.87,0,1.55-2.28A154.19,154.19,0,0,1,37,74.57Z" fill="currentColor"/><path d="M19.25,19c5.54,7.51,10.25,15.42,17.08,22.32l.14-6.16a67.76,67.76,0,0,1-12.8-21.71l.2,2.11-.76-.47L23,17l-1-.71.16.69-.57-.09.21.76L19.87,17l0,2.3-.67-.37Z" fill="currentColor"/><path d="M61.56,47C56.36,53.42,48,60.82,36.79,69.15V74.1a240.21,240.21,0,0,0,21-16.43l.21-.3-.71,0-.06-.25a9.65,9.65,0,0,0,3.55-3.4l.21-.3-1.65-.55L61,51.07l-.85-.23.12-.16A6.69,6.69,0,0,0,61.56,47Z" fill="currentColor"/><path d="M12.77,56.2c0,.09.06.17.09.27a3.15,3.15,0,0,0,1.59,2.12l-.07.26-.39,0,1.62,2-.92.18.09.18c.26.56.45.84.94.67l.13.22-.32.28,1,.33-.44.19,1.21.32-1.46.47,1.48.63-.72.52,1.78.66-.91.39L19.17,67l-.64.28,1.74.64-.54.65.94.77.15,1.06,1.48.16,0,.47,1.47.21-.33.52,2,.43-.66.36.06.07a1.44,1.44,0,0,0,1.57.74l.09.25-.18.11a3.4,3.4,0,0,0,2.26.7,3.6,3.6,0,0,0,.56-.08l.13,0,.28,1.13,2-.27-.58.63.93.15a10.71,10.71,0,0,0,2.33.23,2.3,2.3,0,0,0,1.61-.68l0-.74C28.06,68.76,19,63.73,12.77,56.2Z" fill="currentColor"/><path d="M35.86,69.09v-5.7C27.08,56,20,47,12.38,38.67l.8,1.2-.52,0,.92,1.4-1-.5,1.07,1.43-.58,0,.46,1-.93-.62.62,1-.18.19-.4-.23.5,1-.58-.14.52.76-1.66-.29.08.29C17.64,54,26.89,61.47,35.86,69.09Z" fill="currentColor"/><path d="M16.73,22.8l.42,1.56-.39-.14.56,2-.79-.11.29.76-.46,0L17.17,28l-2.31-.26.75,1.69-.75-.28.34.87L14,29.69l.89,1.69-.41-.12.9,1.33-.9-.38h0l-.05,0,.45,1.55-.5,0,.83,1.87-.61,0,.19.64h-.87l0,.46-1-.69v2.55h-.59l0,.07c7.74,8.12,15.17,16.87,23.53,24.17V56.3c-8.13-7.1-14.24-16-21.34-24C21.71,40.08,28.36,48.56,36,55.67l0-6.29C28.36,40.93,21.19,32.24,16.73,22.8Z" fill="currentColor"/><path d="M11.5,45.13l.74,2.77L12,47.76l.69.92-.61,0,1.16,1.06-1.08-.07,1.88,2-1.65.12,1.35.93-.8.13,1.38,1.11L12.46,54l1.47,1.35-.81-.05.83.94-1.22-.14,0,.07C19.58,63.09,28.12,68.47,36,74.4l-.07-4.6C26.75,61.91,17.2,54.17,11.5,45.13Z" fill="currentColor"/><polygon points="40.11 3.41 40.12 3.31 38.95 3.42 39.05 2.64 38.7 2.73 38.81 1.9 37.9 2.02 37.89 1.14 37.59 1.18 37.25 0.42 37.62 5.68 40.11 3.41" fill="currentColor"/><path d="M36.92,15.3a29,29,0,0,1-4.59-9l-.06,0L32.36,8l-.45-.52,0,1.52-.69-.46,0,.72-.88-.68v.09c1.75,4,3.29,8.1,6.52,11.85Z" fill="currentColor"/><path d="M36.34,42.13c-7.26-7-11.71-15.25-17.08-23.1l.39,1.83L18.9,21l.53,1.77-1.73-1,.38,1.09-.22.14-.49-.56-.06.93-.57-.65A115.89,115.89,0,0,0,36.07,48.46Z" fill="currentColor"/><path d="M36.7,26.57l0-5.47C33.3,17,31.83,12.76,30.32,8.65l0,1.57-.62-.51-.05.76-.47-.09.21,1.06L28,10.35l.14,1-.8-1C28.84,16.31,32.92,21.46,36.7,26.57Z" fill="currentColor"/><path d="M40,4.2l.1-.75L37.59,6.2l0,3.21C39,8.6,40.35,6.59,41.74,5.3l-1.43-.2L40.38,4Z" fill="currentColor"/><path d="M50.31,15.81l.09-1.5c-3.09,5.7-4.11,9.61-13.27,20.54l-.22,6.51C43.29,35.2,48.52,26.9,53.84,18.74l0-.27-1.71.81.36-.91-1.11.26.16-1.74-.86.42L51,15.73Z" fill="currentColor"/><path d="M45.09,10.65l.24-.86a44.57,44.57,0,0,1-8,11.41l-.28,4.69c5-4.18,7.78-9.34,10.52-14.26l-.75.62,0-.59-1.12.6L46,11.18l-.81.6.33-1.34Z" fill="currentColor"/><path d="M37.38,15.32l-.08,5.29c3.3-3.24,5.46-7.37,8.09-11.06l.08-.28-1.25.59.32-.75-.95.56.52-1-.62.19L43.27,7.1C41.79,10,40.57,13.07,37.38,15.32Z" fill="currentColor"/><path d="M37.06,34.09c5.55-6.16,9.48-13,13.34-19.8v-.13l-1.21.74,0-.72-1,.77.14-1.33-.6.58.08-1.44-.5.09.33-1.29-.05,0c-2.1,4.18-3.29,8.11-10.5,15.16Z" fill="currentColor"/><path d="M37.6,9.81l-.13,4.94c2.33-1.76,4-4.9,5.79-7.69V7l-1,.48.08-1.25-.65.19.06-1.11h0C40.38,6.71,39.72,8.59,37.6,9.81Z" fill="currentColor"/><path d="M36.59,67.44c0-2.38,0-4.63,0-6.84,0-9.1.15-18.71.32-28,0-2.45.09-4.86.13-7.25,0-1.34.08-4.25.11-5.58l0-1.3.12-6.17,0-2v-.13h0V9.45l.11.11,0-2.44-2.63-4.2,0,0,.51,1.2-.46,0,.32.76L34.78,5l-.9-.87c.9,1.5,1,3.22,3.31,5.33v.69a19.48,19.48,0,0,1-3.32-5.93l.22,2-.51-.58.07,1.23-1.3-.52a35.14,35.14,0,0,0,4.72,8.49c-.18,7.33-.41,17.73-.54,23.92l0,.19c-.38,7.88-.54,17.46-.47,28.46,0,4.39.07,6.19.15,8.13.15,3.41.62,6.92-.22,10.25l.46-.12A2.61,2.61,0,0,1,38,85.5C36.49,79.9,36.54,73.57,36.59,67.44Z" fill="currentColor"/></svg>
