<?xml version="1.0" encoding="utf-8"?>
<!-- Generator: Adobe Illustrator 19.0.0, SVG Export Plug-In . SVG Version: 6.00 Build 0)  -->
<svg version="1.1" id="Layer_1" xmlns="http://www.w3.org/2000/svg" xmlns:xlink="http://www.w3.org/1999/xlink" x="0px" y="0px"
	 viewBox="-279 402.9 36 36" style="enable-background:new -279 402.9 36 36;" xml:space="preserve">
<g id="XMLID_59_">
	<g id="XMLID_10_">
		<rect id="XMLID_11_" x="-279" y="402.9" style="fill:#D37A28;" width="36" height="36"/>
	</g>
	<path style="fill:#FFFFFF;" d="M-265.2,417.6h3.3v3.3h-3.3V417.6z M-260.2,417.6h3.3v3.3h-3.3V417.6z M-255.2,417.6h3.3v3.3h-3.3
		V417.6z M-270.2,427.6h3.3v3.3h-3.3V427.6z M-265.2,427.6h3.3v3.3h-3.3V427.6z M-260.2,427.6h3.3v3.3h-3.3V427.6z M-265.2,422.6
		h3.3v3.3h-3.3V422.6z M-260.2,422.6h3.3v3.3h-3.3V422.6z M-255.2,422.6h3.3v3.3h-3.3V422.6z M-270.2,422.6h3.3v3.3h-3.3V422.6z
		 M-251.8,407.6v1.7h-3.3v-1.7h-11.7v1.7h-3.3v-1.7h-3.3v26.7h25v-26.7H-251.8z M-250.2,432.6h-21.7v-18.3h21.7V432.6z"/>
</g>
</svg>
