<?xml version="1.0" encoding="utf-8"?>
<svg version="1.1" id="Layer_1" xmlns="http://www.w3.org/2000/svg" xmlns:xlink="http://www.w3.org/1999/xlink" x="0px" y="0px"
	 viewBox="0 0 512 512" enable-background="new 0 0 512 512" xml:space="preserve">
<path fill="#004372" d="M0,432V304C0,167,63.8,67.7,193.8,32.8C209.1,28.7,224,40.3,224,56v33.9c0,10.1-6.2,19.1-15.7,22.6
	C142.3,136.3,104,181.9,104,256h72c26.5,0,48,21.5,48,48v128c0,26.5-21.5,48-48,48H48C21.5,480,0,458.5,0,432z M336,480h128
	c26.5,0,48-21.5,48-48V304c0-26.5-21.5-48-48-48h-72c0-74.1,38.3-119.7,104.3-143.5c9.5-3.4,15.7-12.5,15.7-22.6V56
	c0-15.8-14.9-27.3-30.2-23.2C351.8,67.7,288,167,288,304v128C288,458.5,309.5,480,336,480z"/>
</svg>
