<svg width="631" height="552" viewBox="0 0 631 552" fill="none" xmlns="http://www.w3.org/2000/svg">
    <path d="M438.882 121.765C464.287 121.765 484.882 94.5068 484.882 60.8824C484.882 27.258 464.287 0 438.882 0C413.477 0 392.882 27.258 392.882 60.8824C392.882 94.5068 413.477 121.765 438.882 121.765Z" fill="white" fill-opacity="0.1"/>
    <path d="M169.085 220.222C165.814 226.385 164.27 234.054 169.857 237.386C173.582 239.577 178.351 238.117 182.167 236.154C215.553 219.309 229.044 180.828 266.201 169.279C282.644 164.166 311.761 161.519 326.524 172.931C340.106 183.43 332.883 203.835 329.204 217.438C324.98 232.958 317.53 247.429 308.9 260.895C289.64 290.886 264.339 316.586 242.581 344.705C219.006 375.152 197.338 407.06 177.67 440.201C171.447 450.7 165.996 463.847 154.231 469.233C147.145 472.474 139.014 472.109 131.247 471.196C107.081 468.457 83.688 461.564 59.8859 456.726C42.3523 453.165 20.5488 447.55 3.78743 456.634C-14.2913 466.449 48.4845 495.937 54.6167 498.266C89.048 511.184 128.203 522.048 165.224 521.729C200.155 521.455 222.458 501.78 241.672 473.616C253.8 455.904 264.566 437.553 277.784 420.572C289.594 405.417 301.586 388.208 322.254 385.195C329.204 384.191 336.29 385.104 343.24 386.245C408.332 396.835 478.285 419.796 495.092 491.51C507.175 543.138 536.609 576.507 541.152 529.443C545.694 482.38 528.297 408.749 514.715 392.818C500.361 376.02 476.559 364.836 458.435 352.785C434.315 336.808 414.646 326.583 410.467 295.816C409.332 287.234 409.195 278.196 412.648 270.298C419.098 255.691 436.132 248.753 451.985 247.383C476.105 245.329 500.406 248.022 524.617 245.192C550.6 242.179 569.496 222.414 586.212 203.926C594.525 194.751 602.883 185.53 611.195 176.355C616.782 170.192 630.955 159.83 631 150.655C631 144.812 629.592 138.877 622.506 138.74C619.008 138.649 615.647 140.201 612.603 141.936C585.667 157.045 567.543 187.538 536.201 194.751C508.719 201.05 482.146 186.488 458.435 174.392C432.134 160.971 406.47 146.135 378.761 135.865C343.558 122.809 295.545 106.878 259.297 123.448C242.354 131.208 229.453 145.496 217.189 159.556C201.154 177.952 185.256 196.531 171.174 216.479C170.402 217.575 169.63 218.807 168.949 220.085L169.085 220.222Z" fill="white" fill-opacity="0.1"/>
</svg>
