<?xml version="1.0" encoding="utf-8"?>
<!-- Generator: Adobe Illustrator 19.0.0, SVG Export Plug-In . SVG Version: 6.00 Build 0)  -->
<svg version="1.1" id="Layer_1" xmlns="http://www.w3.org/2000/svg" xmlns:xlink="http://www.w3.org/1999/xlink" x="0px" y="0px"
	 viewBox="0 0 64.3 64" style="enable-background:new 0 0 64.3 64;" xml:space="preserve">
<g id="XMLID_80_">
	<path id="XMLID_82_" style="fill:#FFFFFF;" d="M64,32C64,14.3,49.7,0,32,0S0,14.3,0,32s14.3,32,32,32S64,49.7,64,32z M4.9,32
		C4.9,17,17,4.9,32,4.9S59.1,17,59.1,32S47,59.1,32,59.1S4.9,47,4.9,32z"/>
	<path id="XMLID_81_" style="fill:#FFFFFF;" d="M17.8,26.5l0.7-0.7c0.7-0.7,1.9-0.7,2.7,0l9.5,9.5c0.7,0.7,1.9,0.7,2.7,0l9.5-9.5
		c0.7-0.7,1.9-0.7,2.7,0l0.6,0.6c0.7,0.7,0.7,1.9,0,2.7L33.3,42c-0.7,0.7-1.9,0.7-2.7,0L17.8,29.2C17.1,28.4,17.1,27.2,17.8,26.5z"
		/>
</g>
</svg>
