<?xml version="1.0" encoding="utf-8"?>
<!-- Generator: Adobe Illustrator 19.0.0, SVG Export Plug-In . SVG Version: 6.00 Build 0)  -->
<svg version="1.1" id="Layer_1" xmlns="http://www.w3.org/2000/svg" xmlns:xlink="http://www.w3.org/1999/xlink" x="0px" y="0px"
	 viewBox="247 193.9 1090 454" style="enable-background:new 247 193.9 1090 454;" xml:space="preserve">
<g>
	<path  d="M312.8,490.4h-14.9c0-6.8-5.6-11.9-15.1-11.9c-7.9,0-15.2,3-15.2,9c0,5.4,5.3,7.3,17.3,9.8
		c18.6,3.7,30.4,8.4,30.4,24.4c0,15.1-12.6,24.6-32.4,24.6c-15.4,0-32.1-8.5-32.1-27.3h14.9c0,9.3,9.3,13.7,17.2,13.7
		c8.6,0,17.5-3,17.5-10.5c0-5-4.1-8-18.5-10.8c-14.4-2.8-29.1-7.1-29.1-23.9c0-13.4,11.9-22.8,30.1-22.8
		C303.5,464.6,312.8,478,312.8,490.4z"/>
	<path  d="M351.7,544.9c-17,1.8-26.1-8.5-26.1-24.4v-48.4h14.9v14.8H351v13.2h-10.5v20.5
		c0,8.1,3.7,11.2,11.2,10.7V544.9z"/>
	<path  d="M395.4,499.8c-9.5-1.7-15.8,3.4-15.8,11.6V545h-14.9v-33.6c0-16.5,11.4-28,30.7-25.6V499.8z"/>
	<path  d="M457.3,526.5c-3.4,11.9-13.7,19.9-28.1,19.9c-16.5,0-29.8-13.5-29.8-30.4
		c0-16.8,13.3-30.6,29.8-30.6c14,0,25.7,8.8,28.6,24.4l-41.1,17.3c2.9,3.9,7.3,6.2,12.4,6.2c4.9,0,9.8-2.1,12.3-6.8H457.3z
		 M440.6,503.7c-2.7-3.3-6.8-5.2-11.5-5.2c-8.6,0-15.5,6.8-15.8,16.7L440.6,503.7z"/>
	<path  d="M492.9,544.9c-17,1.8-26.1-8.5-26.1-24.4v-48.4h14.9v14.8h10.5v13.2h-10.5v20.5
		c0,8.1,3.7,11.2,11.2,10.7L492.9,544.9L492.9,544.9z"/>
	<path  d="M528.2,544.9c-17,1.8-26.1-8.5-26.1-24.4v-48.4H517v14.8h10.5v13.2H517v20.5
		c0,8.1,3.7,11.2,11.2,10.7V544.9z"/>
	<path  d="M594.6,516c0,17.4-13.2,30.4-29.3,30.4s-29.2-13-29.2-30.4c0-17.4,13.1-30.6,29.2-30.6
		C581.4,485.4,594.6,498.6,594.6,516z M579.6,516.1c0-10-6.4-17-14.3-17c-7.9,0-14.3,7-14.3,17c0,9.8,6.4,16.6,14.3,16.6
		C573.2,532.7,579.6,525.9,579.6,516.1z"/>
	<path  d="M630.5,485.4c16.3,0,25.9,10.7,25.9,26V545h-14.9v-34c0-3.3-1.1-11.1-10.9-11.1
		c-6.5,0-11.3,4.5-11.3,11.1v34h-14.9v-33.6C604.3,496.6,614.7,485.4,630.5,485.4z"/>
	<path  d="M707.2,546.4c-21.3,0-37.9-17.9-37.9-40.9c0-22.9,16.6-40.9,37.9-40.9c17.7,0,30.8,10,35.7,26.1
		h-16.1c-3.5-7.1-10.5-12.4-19.5-12.4c-12.9,0-23,12.4-23,27.2c0,14.9,10.2,27.3,23,27.3c8.9,0,16-5.5,19.5-12.6h16
		C737.8,536.1,724.5,546.4,707.2,546.4z"/>
	<path  d="M751.3,461h15v59.6c0,8.2,3.7,11.2,11.1,10.7v13.6c-17,1.8-26.1-8.4-26.1-24.3L751.3,461L751.3,461z
		"/>
	<path  d="M791.3,480.6v-8.4c0-4.2,3.4-7.4,7.6-7.4c4.1,0,7.5,3.3,7.5,7.4v8.4H791.3z M806.3,545h-14.9v-58.1
		h14.9V545z"/>
	<path  d="M907.6,545h-14.9v-34c0-3.3-1.1-11.1-11-11.1c-6.5,0-11.3,4.5-11.3,11.1v34h-14.9v-34
		c0-3.3-1-11.1-10.8-11.1c-6.7,0-11.3,4.5-11.3,11.1v34h-14.9v-33.6c0-14.8,10.3-26,26.2-26c7.9,0,14.3,3.2,18.5,8.2
		c4.4-5.1,10.9-8.2,18.5-8.2c16.3,0,25.9,10.7,25.9,26V545z"/>
	<path  d="M977.1,545H963v-6.1c-4.4,4.9-10.7,7.3-17.7,7.3c-15.4,0-27.9-13.5-27.9-30.3s12.3-30.6,29.9-30.6
		c17.5,0,29.8,13.8,29.8,30.6V545z M947.3,499.4c-8.2,0-14.9,7.1-14.9,16.7c0,9.3,6.7,16.4,14.9,16.4s14.9-7.3,14.9-16.4
		C962.2,506.9,955.5,499.4,947.3,499.4z"/>
	<path  d="M1012.6,544.9c-17,1.8-26.1-8.5-26.1-24.4v-48.4h14.9v14.8h10.6v13.2h-10.5v20.5
		c0,8.1,3.7,11.2,11.2,10.7v13.6H1012.6z"/>
	<path  d="M1078.9,526.5c-3.4,11.9-13.7,19.9-28.1,19.9c-16.5,0-29.8-13.5-29.8-30.4
		c0-16.8,13.3-30.6,29.8-30.6c14,0,25.7,8.8,28.6,24.4l-41.1,17.3c2.9,3.9,7.3,6.2,12.4,6.2c4.9,0,9.8-2.1,12.3-6.8H1078.9z
		 M1062.2,503.7c-2.7-3.3-6.8-5.2-11.5-5.2c-8.6,0-15.5,6.8-15.8,16.7L1062.2,503.7z"/>
	<path  d="M1127.4,546.4c-21.3,0-37.9-17.9-37.9-40.9c0-22.9,16.6-40.9,37.9-40.9c17.7,0,30.8,10,35.7,26.1
		H1147c-3.5-7.1-10.5-12.4-19.5-12.4c-12.9,0-23,12.4-23,27.2c0,14.9,10.2,27.3,23,27.3c8.9,0,16-5.5,19.5-12.6h16
		C1158,536.1,1144.8,546.4,1127.4,546.4z"/>
	<path  d="M1229.4,545h-14.1v-6.1c-4.4,4.9-10.7,7.3-17.7,7.3c-15.4,0-27.9-13.5-27.9-30.3
		s12.3-30.6,29.9-30.6c17.5,0,29.8,13.8,29.8,30.6V545z M1199.6,499.4c-8.2,0-14.9,7.1-14.9,16.7c0,9.3,6.7,16.4,14.9,16.4
		s14.9-7.3,14.9-16.4C1214.5,506.9,1207.8,499.4,1199.6,499.4z"/>
	<path  d="M1272.7,499.8c-9.5-1.7-15.8,3.4-15.8,11.6V545H1242v-33.6c0-16.5,11.4-28,30.7-25.6V499.8z"/>
	<path  d="M1335.3,526.5c-3.4,11.9-13.7,19.9-28.1,19.9c-16.5,0-29.8-13.5-29.8-30.4
		c0-16.8,13.3-30.6,29.8-30.6c14,0,25.7,8.8,28.6,24.4l-41.1,17.3c2.9,3.9,7.3,6.2,12.4,6.2c4.9,0,9.8-2.1,12.3-6.8H1335.3z
		 M1318.6,503.7c-2.7-3.3-6.8-5.2-11.5-5.2c-8.6,0-15.5,6.8-15.8,16.7L1318.6,503.7z"/>
</g>
<g>
	<path  d="M505,601.9v32.2h-7.5v-32.2H487v-7h28.4v6.9H505V601.9z"/>
	<path  d="M545.8,634.1h-7.5v-17c0-1.7-0.6-5.5-5.4-5.5c-3.3,0-5.6,2.3-5.6,5.5v17h-7.5v-42h7.5v14.4
		c1.9-1.4,4.1-2.3,6.7-2.3c7.1,0,11.9,5.1,11.9,12.8v17.1H545.8z"/>
	<path  d="M562.8,601.9h-7.5v-7h7.5V601.9z M562.8,634.1h-7.5V605h7.5V634.1z"/>
	<path  d="M595.7,634.1h-7.5v-17c0-1.7-0.5-5.8-5.4-5.8c-3.3,0-5.6,2.5-5.6,5.8v17h-7.5V605h7.1v2.8
		c1.9-2.2,4.4-3.6,7.5-3.6c6.8,0,11.3,5.1,11.3,12.8v17.1H595.7z"/>
	<path  d="M609.5,625.7v8.4H602v-42h7.5v23.5L619,605h10.3l-10.8,11.3L630,634h-9.5l-7.2-12.2L609.5,625.7z"/>
	<path  d="M686.9,634.1H680v-4.2c-2.6,3.1-6.8,4.9-11.6,4.9c-10.7,0-19-8.9-19-20.4s8.4-20.4,19-20.4
		c8.7,0,15.4,4.9,17.8,13h-8c-1.5-3.4-5.2-6.3-9.8-6.3c-6.5,0-11.6,6.2-11.6,13.7c0,7.4,5.2,13.6,11.9,13.6c5.6,0,9.9-3.8,11.3-8.7
		h-10.6v-6.9h17.4v21.7H686.9z"/>
	<path  d="M700.7,634.1h-7.5v-42h7.5V634.1z"/>
	<path  d="M735.8,619.6c0,8.7-6.6,15.2-14.7,15.2s-14.6-6.5-14.6-15.2s6.5-15.3,14.6-15.3
		S735.8,610.9,735.8,619.6z M728.3,619.6c0-5-3.2-8.5-7.2-8.5s-7.2,3.5-7.2,8.5c0,4.9,3.2,8.3,7.2,8.3S728.3,624.5,728.3,619.6z"/>
	<path  d="M757.2,634.7c-3.5,0-6.6-1.4-8.9-3.7v3.1h-7.2v-42h7.5v15.7c2.2-2.1,5.2-3.4,8.5-3.4
		c7.6,0,13.8,6.5,13.8,15.2C771,628.2,764.8,634.7,757.2,634.7z M756.1,611.3c-4.1,0-7.5,3.7-7.5,8.4c0,4.5,3.3,8.2,7.5,8.2
		c4.2,0,7.5-3.6,7.5-8.2C763.5,614.9,760.2,611.3,756.1,611.3z"/>
	<path  d="M795.2,631.4c-1.9,2-4.9,3.3-8.9,3.3c-6.2,0-11.8-3.1-11.8-9.4c0-6.5,5.5-8.2,11.9-8.8
		c4.9-0.5,8.3-1,8.3-3.4c0-1.5-2-2.8-5.3-2.8c-2.7,0-5.7,1.2-6.4,3.7h-7.5c0.7-5.5,6-9.7,13.7-9.7c11.8,0,12.7,7.6,12.7,9.9v15.1
		c0,1.4,0.5,3.6,0.8,4.7h-6.8C795.5,633.4,795.3,632.5,795.2,631.4z M794.9,620.1c-1.6,1-4,1.5-7.1,1.9c-3.7,0.4-5.9,1.2-5.9,3.3
		c0,1.6,1.9,2.8,4.9,2.8c4.5,0,8.1-1.5,8.1-5.2V620.1z"/>
	<path  d="M818,634.1h-7.5v-42h7.5V634.1z"/>
	<path  d="M832.1,635c0,5.1-3,7.8-7.3,8.3v-3.5c2.3-0.5,3.5-2.3,3.5-4.7v-1H824v-8h8L832.1,635L832.1,635z"/>
	<path  d="M862.9,626.2l-2.7,7.8h-7.9l13.7-39.1h9.4l13.7,39.2h-7.9l-2.7-7.8h-15.6V626.2z M870.7,603.2
		l-5.5,16.1h11L870.7,603.2z"/>
	<path  d="M906.4,634.8c-8.7,0-15-6.8-15-15.2s6.3-15.3,15-15.3c7,0,12.3,4,14,10.5h-8c-1-2-3.3-3.7-6-3.7
		c-4.1,0-7.5,3.8-7.5,8.5c0,4.6,3.3,8.4,7.5,8.4c2.8,0,5.1-1.7,6.1-3.7h8C918.8,630.9,913.5,634.8,906.4,634.8z"/>
	<path  d="M938.9,634c-8.5,0.9-13-4.2-13-12.2v-10.2h-3.5V605h3.5v-7.4h7.5v7.4h5.2v6.6h-5.2v10.3
		c0,4.1,1.9,5.6,5.6,5.4L938.9,634L938.9,634z"/>
	<path  d="M968.3,627.1h19.5v6.9h-27v-39.1h7.5V627.1z"/>
	<path  d="M1019.7,619.6c0,8.7-6.6,15.2-14.7,15.2s-14.6-6.5-14.6-15.2s6.5-15.3,14.6-15.3
		S1019.7,610.9,1019.7,619.6z M1012.2,619.6c0-5-3.2-8.5-7.2-8.5s-7.2,3.5-7.2,8.5c0,4.9,3.2,8.3,7.2,8.3S1012.2,624.5,1012.2,619.6
		z"/>
	<path  d="M1038.1,634.8c-8.7,0-15-6.8-15-15.2s6.3-15.3,15-15.3c7,0,12.3,4,14,10.5h-8c-1-2-3.3-3.7-6-3.7
		c-4.1,0-7.5,3.8-7.5,8.5c0,4.6,3.3,8.4,7.5,8.4c2.8,0,5.1-1.7,6.1-3.7h8C1050.4,630.9,1045.1,634.8,1038.1,634.8z"/>
	<path  d="M1076.1,631.4c-1.9,2-4.9,3.3-8.9,3.3c-6.2,0-11.8-3.1-11.8-9.4c0-6.5,5.5-8.2,11.9-8.8
		c4.9-0.5,8.3-1,8.3-3.4c0-1.5-2-2.8-5.3-2.8c-2.7,0-5.7,1.2-6.4,3.7h-7.5c0.7-5.5,6-9.7,13.7-9.7c11.8,0,12.7,7.6,12.7,9.9v15.1
		c0,1.4,0.5,3.6,0.8,4.7h-6.8C1076.5,633.4,1076.2,632.5,1076.1,631.4z M1075.8,620.1c-1.6,1-4,1.5-7.1,1.9
		c-3.7,0.4-5.9,1.2-5.9,3.3c0,1.6,1.9,2.8,4.9,2.8c4.5,0,8.1-1.5,8.1-5.2V620.1z"/>
	<path  d="M1097.5,634.1h-7.5v-42h7.5V634.1z"/>
</g>
<g>
	<path  d="M900.9,225.9c-32.7,0-77.6,18.7-116.7,38.9c-71.9-35.1-146-65.4-193.7-65.4
		c-28.9,0-57.4,10.8-84.9,32.3c-21.3,16.5-41.9,39.5-61.4,68.1c-32.8,48.2-51,95.6-51.8,97.6c-2.5,6.4,0.8,13.6,7.2,16.1
		c1.5,0.5,3,0.8,4.5,0.8c5,0,9.8-3,11.7-8c0.7-1.8,70.7-181.9,174.7-181.9c39.5,0,103,25,166.6,55.2c7.4,3.5,14.8,7.1,22.2,10.8
		c27.6,13.6,54.7,27.8,79.3,40.9c9.3-4.4,18.8-8.8,28.5-13.2c-24.8-13.3-52.1-27.8-80.3-42c33.3-16.4,68.7-30,94.2-30
		c26.7,0,60.4,16.6,88.2,34c9.8-2.6,19.1-4.6,27.7-5.9C984.7,252.1,938.3,225.9,900.9,225.9z"/>
	<path  d="M1203.9,393.3c-0.8-1.2-20.9-30.1-50.8-59.4c-41.6-40.8-80.5-61.5-115.7-61.5
		c-6.3,0-13.1,0.6-20.4,1.7c-8.7,1.3-18,3.3-27.7,5.9c-31.4,8.3-67.5,22.5-102.2,38c-9.7,4.3-19.2,8.7-28.5,13.2
		c-60.1,28.6-110.1,57.4-114.2,59.7c-7.2,4.2-9.6,13.3-5.5,20.5c2.8,4.8,7.8,7.5,13,7.5c2.6,0,5.2-0.7,7.4-2
		c0.5-0.3,50.5-29.2,110.2-57.7c7.6-3.6,14.9-7.1,22.1-10.4c10.1-4.6,19.8-8.9,29.1-12.8c43.4-18.4,78.2-29.4,102.9-32.6
		c5-0.7,9.6-1,13.8-1c6.7,0,13.7,1.2,20.6,3.3c49.8,15.1,103,78.4,121.3,104.7c4.7,6.8,14.1,8.5,20.9,3.8
		C1206.9,409.5,1208.6,400.1,1203.9,393.3z"/>
</g>
</svg>
