<?xml version="1.0" encoding="utf-8"?>
<!-- Generator: Adobe Illustrator 19.0.0, SVG Export Plug-In . SVG Version: 6.00 Build 0)  -->
<svg version="1.1" xmlns="http://www.w3.org/2000/svg" xmlns:xlink="http://www.w3.org/1999/xlink" x="0px" y="0px"
	 viewBox="0 0 1086.2 395" style="enable-background:new 0 0 1086.2 395;" xml:space="preserve">
<style type="text/css">
	.st0{display:none;}
	.st1{fill:#1C191A;}
	.st2{clip-path:url(#SVGID_2_);}
	.st3{fill:#FFFFFF;}
	.st4{clip-path:url(#SVGID_4_);}
	.st5{display:inline;}
	.st6{fill:none;}
	.st7{display:inline;fill:none;stroke:#000000;stroke-width:15.7227;stroke-linecap:square;stroke-miterlimit:10;}
	.st8{display:inline;fill:none;stroke:#000000;stroke-width:23;stroke-linecap:round;stroke-miterlimit:10;}
	.st9{display:inline;fill:#1C191A;}
	.st10{font-family:'Chalet-NewYorkNineteenSeventy';}
	.st11{font-size:112.8882px;}
	.st12{letter-spacing:1;}
</style>
<g id="GUIDES" class="st0">
</g>
<g id="ICON">
	<g>
		<circle class="st1" cx="2727" cy="155.5" r="303.5"/>
		<rect x="2406" y="236" class="st6" width="654.5" height="320"/>
		
			<text transform="matrix(1 0 0 1 2578.5337 347.5981)" class="st3" style="font-family:'Chalet-NewYorkNineteenSixty'; font-size:150px;">SCC</text>
		<g>
			<defs>
				<circle id="SVGID_1_" cx="2727" cy="155.5" r="303.5"/>
			</defs>
			<clipPath id="SVGID_2_">
				<use xlink:href="#SVGID_1_"  style="overflow:visible;"/>
			</clipPath>
			<g class="st2">
				<g>
					<path class="st3" d="M2850.8,100c-17.8-11.2-51.1-29.9-74-29.9c-19.9,0-44.9,9.7-62.5,17.8l-1.4,0.6l-1.3-0.8
						c-6-3.4-12-6.7-17.8-9.9l-5-2.7l5.1-2.6c22.7-11.5,55.5-25.1,83-25.1c33.7,0,80,28.9,98.3,41.3l5.5,3.7l-6.4,1.7
						c-6.6,1.7-13.6,3.8-20.9,6.2l-1.3,0.4L2850.8,100z"/>
					<path class="st3" d="M2776.9,50.4c32.7,0,77.7,28,96.7,40.8c-6.9,1.8-14,3.9-21.1,6.2c-20.6-12.9-52.7-30.3-75.5-30.3
						c-20.2,0-45.2,9.5-63.7,18c-5.8-3.3-11.8-6.6-17.9-9.9C2715.1,65.2,2749.1,50.4,2776.9,50.4 M2776.9,44.4
						c-28,0-61.3,13.9-84.3,25.5l-10.2,5.2l10.1,5.5c5.8,3.2,11.8,6.5,17.8,9.9l2.7,1.5l2.8-1.3c17.2-8,41.9-17.5,61.2-17.5
						c16.4,0,42.1,10.5,72.4,29.4l2.4,1.5l2.7-0.9c7.2-2.4,14.2-4.4,20.7-6.1l12.9-3.3l-11-7.5C2853.8,70.6,2810.2,44.4,2776.9,44.4
						L2776.9,44.4z"/>
				</g>
				<g>
					<path class="st3" d="M2285.7,181.3l6.2-7c5.9-6.6,144.7-160.7,238.9-160.7c37.9,0,93.7,19.9,165.9,59.1
						c5.9,3.2,11.9,6.5,17.9,9.9c28.3,16,53,31.5,68.7,41.7l4.5,2.9l-4.8,2.3c-5.7,2.8-11.5,5.7-17.4,8.7l-1.5,0.8l-1.5-0.9
						c-23.5-14.9-46.8-28.8-69.2-41.2c-5.8-3.2-11.6-6.4-17.3-9.4c-64.2-34-113.1-51.3-145.5-51.3c-71.7,0-181.5,110.3-213.5,144.1
						l-0.9,0.9H2285.7z"/>
					<path class="st3" d="M2530.8,16.6c44.6,0,109.1,28.7,164.5,58.7c6.1,3.3,12.1,6.6,17.9,9.9c27.6,15.6,51.8,30.8,68.6,41.7
						c-5.9,2.9-11.7,5.8-17.4,8.8c-18.1-11.5-42.5-26.4-69.4-41.3c-5.7-3.1-11.5-6.3-17.3-9.4c-51.2-27.1-108.1-51.6-146.9-51.6
						c-73.1,0-184.3,111.8-215.7,145h-22.7l1.7-2C2300,169.8,2437.9,16.6,2530.8,16.6 M2530.8,10.6c-22.2,0-48.6,8.3-78.2,24.8
						c-23.5,13-49.2,31.2-76.6,54c-46.8,39.1-82.4,78.6-86.3,82.9l-1.7,2l-8.9,10h13.4h22.7h2.6l1.8-1.9
						c17.1-18.1,51.7-53,91.5-84.3c22.6-17.7,43.6-31.7,62.4-41.5c22.1-11.5,41.4-17.3,57.4-17.3c31.4,0,81.2,17.6,144,50.9
						c5.6,3,11.4,6.1,17.2,9.3c22.4,12.4,45.6,26.2,69,41.1l2.9,1.8l3.1-1.6c5.8-3,11.6-5.9,17.3-8.7l9.5-4.7l-8.9-5.8
						c-15.8-10.2-40.6-25.8-68.9-41.8c-6-3.4-12.1-6.8-18-10C2625.4,30.5,2569.1,10.6,2530.8,10.6L2530.8,10.6z"/>
				</g>
				<g>
					<path class="st3" d="M3061.9,181.3l-0.9-1c-20.1-22.9-74.2-76-141-76c-9.4,0-20.3,1.3-32.2,3.9c-5.3,1.2-10.9,2.6-16.6,4.2
						c-21,6-45.2,15.5-71.8,28c-5.7,2.7-11.5,5.5-17.4,8.5c-18.8,9.5-38.4,20.2-58.4,32l-0.7,0.4h-43.5l8.8-5.5
						c17.1-10.7,44-26.9,74.7-42.8c5.9-3,11.7-6,17.5-8.8c25.7-12.5,49.6-22.5,71.1-29.5c7.4-2.4,14.6-4.5,21.3-6.3
						c17.6-4.5,33.5-6.8,47.2-6.8c39.2,0,80.2,16,118.7,46.4c28.6,22.5,45.9,45,46.6,46l5.6,7.4H3061.9z"/>
					<path class="st3" d="M2920,84.5c38.5,0,78.9,15.8,116.8,45.7c28.4,22.4,45.3,44.5,46.1,45.4l1.9,2.6h-21.6
						c-18.3-20.7-74.3-77-143.3-77c-10.1,0-21.2,1.4-32.8,3.9c-5.5,1.2-11.1,2.6-16.8,4.2c-23.5,6.7-48.4,16.9-72.3,28.2
						c-5.9,2.8-11.7,5.6-17.4,8.5c-21.8,11-42.1,22.4-58.6,32.1h-32.3c17-10.7,43.8-26.8,74.5-42.7c5.7-2.9,11.5-5.9,17.4-8.8
						c22.8-11.1,47.1-21.6,70.7-29.4c7.1-2.3,14.2-4.4,21.1-6.2C2890,87,2905.7,84.5,2920,84.5 M2920,78.5c-14,0-30.1,2.3-47.9,6.9
						c-6.8,1.7-14,3.9-21.5,6.3c-21.6,7.1-45.6,17.1-71.4,29.7c-5.8,2.8-11.7,5.8-17.5,8.8c-30.9,16-57.8,32.2-75,42.9l-17.6,11.1
						h20.8h32.3h1.6l1.4-0.8c19.9-11.8,39.5-22.5,58.2-31.9c5.8-2.9,11.7-5.8,17.3-8.5c26.5-12.5,50.5-21.9,71.4-27.9
						c5.6-1.6,11.1-3,16.4-4.1c11.7-2.5,22.3-3.8,31.6-3.8c67.4,0,123.3,57.4,138.8,75l1.8,2h2.7h21.6h12.1l-7.3-9.6l-1.9-2.6
						c-0.7-1-18.2-23.7-47.1-46.5C3001.5,94.8,2959.8,78.5,2920,78.5L2920,78.5z"/>
				</g>
			</g>
		</g>
	</g>
	<g id="Guides">
	</g>
</g>
<g id="Layer_8_copy">
	<rect x="705" y="-1780.4" class="st6" width="1804.2" height="186.9"/>
	<text transform="matrix(1 0 0 1 704.9736 -1672.9639)"><tspan x="0" y="0" class="st1" style="font-family:'Chalet-NewYorkNineteenSixty'; font-size:144.4183px;">S</tspan><tspan x="93.4" y="0" class="st1 st10" style="font-size:144.4183px; letter-spacing:3;">t</tspan><tspan x="143" y="0" class="st1 st10" style="font-size:144.4183px; letter-spacing:-1;">r</tspan><tspan x="191.2" y="0" class="st1 st10" style="font-size:144.4183px;">et</tspan><tspan x="320.7" y="0" class="st1 st10" style="font-size:144.4183px;">t</tspan><tspan x="367.4" y="0" class="st1 st10" style="font-size:144.4183px;">o</tspan><tspan x="451" y="0" class="st1 st10" style="font-size:144.4183px; letter-spacing:3;">n</tspan><tspan x="537.4" y="0" class="st1 st10" style="font-size:144.4183px;">C</tspan><tspan x="639.6" y="0" class="st1 st10" style="font-size:144.4183px; letter-spacing:7;">l</tspan><tspan x="689.2" y="0" class="st1 st10" style="font-size:144.4183px; letter-spacing:-1;">i</tspan><tspan x="725.1" y="0" class="st1 st10" style="font-size:144.4183px;">m</tspan><tspan x="855.2" y="0" class="st1 st10" style="font-size:144.4183px; letter-spacing:-3;">a</tspan><tspan x="940.4" y="0" class="st1 st10 st12" style="font-size:144.4183px;">t</tspan><tspan x="987.8" y="0" class="st1 st10" style="font-size:144.4183px; letter-spacing:3;">e</tspan><tspan x="1075" y="0" class="st1 st10" style="font-size:144.4183px;">Care</tspan></text>
	<rect x="710.5" y="-1636.7" class="st6" width="1248.8" height="70.7"/>
	<text transform="matrix(1 0 0 1 710.498 -1582.998)"><tspan x="0" y="0" class="st1" style="font-family:'Chalet-NewYorkNineteenSixty'; font-size:72.2092px;">T</tspan><tspan x="38.7" y="0" class="st1" style="font-family:'Chalet-NewYorkNineteenSixty'; font-size:72.2092px; letter-spacing:3;">h</tspan><tspan x="84" y="0" class="st1" style="font-family:'Chalet-NewYorkNineteenSixty'; font-size:72.2092px;">i</tspan><tspan x="102.6" y="0" class="st1" style="font-family:'Chalet-NewYorkNineteenSixty'; font-size:72.2092px;">n</tspan><tspan x="143.9" y="0" class="st1" style="font-family:'Chalet-NewYorkNineteenSixty'; font-size:72.2092px;">k G</tspan><tspan x="260.5" y="0" class="st1" style="font-family:'Chalet-NewYorkNineteenSixty'; font-size:72.2092px;">l</tspan><tspan x="279.7" y="0" class="st1" style="font-family:'Chalet-NewYorkNineteenSixty'; font-size:72.2092px;">o</tspan><tspan x="321.9" y="0" class="st1" style="font-family:'Chalet-NewYorkNineteenSixty'; font-size:72.2092px;">b</tspan><tspan x="366.6" y="0" class="st1 st12" style="font-family:'Chalet-NewYorkNineteenSixty'; font-size:72.2092px;">a</tspan><tspan x="410.4" y="0" class="st1" style="font-family:'Chalet-NewYorkNineteenSixty'; font-size:72.2092px;">l Act Local</tspan></text>
	<g id="ICON_copy">
		<g>
			<circle class="st1" cx="531.5" cy="-1680.7" r="133.3"/>
			<rect x="390.5" y="-1658.5" class="st6" width="287.4" height="140.5"/>
			<text transform="matrix(1 0 0 1 460.5645 -1593.1871)" class="st0"><tspan x="0" y="0" style="display:inline;fill:#FFFFFF; font-family:'Chalet-NewYorkNineteenSixty'; font-size:87.8338px;">s</tspan><tspan x="47.1" y="0" class="st10" style="display:inline;fill:#FFFFFF; font-size:87.8338px;">cc</tspan></text>
			<g>
				<defs>
					<circle id="SVGID_3_" cx="531.5" cy="-1680.7" r="133.3"/>
				</defs>
				<clipPath id="SVGID_4_">
					<use xlink:href="#SVGID_3_"  style="overflow:visible;"/>
				</clipPath>
				<g class="st4">
					<g>
						<path class="st3" d="M585.9-1705.1c-7.8-4.9-22.5-13.1-32.5-13.1c-8.7,0-19.7,4.2-27.4,7.8l-0.6,0.3l-0.6-0.3
							c-2.6-1.5-5.2-2.9-7.8-4.3l-2.2-1.2l2.2-1.1c10-5,24.4-11,36.4-11c14.8,0,35.1,12.7,43.2,18.2l2.4,1.6l-2.8,0.7
							c-2.9,0.7-6,1.7-9.2,2.7l-0.6,0.2L585.9-1705.1z"/>
						<path class="st3" d="M553.4-1726.9c14.4,0,34.1,12.3,42.4,17.9c-3,0.8-6.1,1.7-9.3,2.7c-9-5.7-23.1-13.3-33.2-13.3
							c-8.9,0-19.9,4.2-28,7.9c-2.6-1.4-5.2-2.9-7.9-4.4C526.3-1720.4,541.2-1726.9,553.4-1726.9 M553.4-1729.5
							c-12.3,0-26.9,6.1-37,11.2l-4.5,2.3l4.4,2.4c2.6,1.4,5.2,2.8,7.8,4.3l1.2,0.7l1.2-0.6c7.6-3.5,18.4-7.7,26.9-7.7
							c7.2,0,18.5,4.6,31.8,12.9l1,0.7l1.2-0.4c3.2-1,6.2-1.9,9.1-2.7l5.7-1.5l-4.8-3.3C587.2-1718,568-1729.5,553.4-1729.5
							L553.4-1729.5z"/>
					</g>
					<g>
						<path class="st3" d="M337.7-1669.4l2.7-3.1c2.6-2.9,63.6-70.6,104.9-70.6c16.6,0,41.1,8.7,72.9,25.9c2.6,1.4,5.3,2.9,7.9,4.4
							c12.4,7,23.3,13.8,30.2,18.3l2,1.3l-2.1,1c-2.5,1.2-5.1,2.5-7.6,3.8l-0.7,0.3l-0.6-0.4c-10.3-6.6-20.5-12.7-30.4-18.1
							c-2.6-1.4-5.1-2.8-7.6-4.1c-28.2-14.9-49.7-22.5-63.9-22.5c-31.5,0-79.7,48.4-93.8,63.3l-0.4,0.4H337.7z"/>
						<path class="st3" d="M445.3-1741.7c19.6,0,47.9,12.6,72.2,25.8c2.7,1.5,5.3,2.9,7.9,4.4c12.1,6.9,22.7,13.5,30.1,18.3
							c-2.6,1.3-5.2,2.6-7.6,3.8c-8-5.1-18.7-11.6-30.5-18.1c-2.5-1.4-5-2.8-7.6-4.1c-22.5-11.9-47.5-22.7-64.5-22.7
							c-32.1,0-80.9,49.1-94.7,63.7h-10l0.8-0.9C344-1674.4,404.6-1741.7,445.3-1741.7 M445.3-1744.4c-17.6,0-40.5,11.6-68,34.6
							c-20.6,17.2-36.2,34.5-37.9,36.4l-0.8,0.9l-3.9,4.4h5.9h10h1.1l0.8-0.8c7.5-7.9,22.7-23.3,40.2-37
							c21.5-16.9,39.7-25.8,52.6-25.8c13.8,0,35.7,7.7,63.3,22.4c2.5,1.3,5,2.7,7.6,4.1c9.8,5.4,20,11.5,30.3,18.1l1.3,0.8l1.3-0.7
							c2.5-1.3,5.1-2.6,7.6-3.8l4.2-2l-3.9-2.5c-6.9-4.5-17.8-11.3-30.3-18.4c-2.6-1.5-5.3-3-7.9-4.4
							C486.9-1735.6,462.2-1744.4,445.3-1744.4L445.3-1744.4z"/>
					</g>
					<g>
						<path class="st3" d="M678.6-1669.4l-0.4-0.4c-8.8-10-32.6-33.4-61.9-33.4c-4.1,0-8.9,0.6-14.1,1.7c-2.3,0.5-4.8,1.1-7.3,1.8
							c-9.2,2.6-19.9,6.8-31.5,12.3c-2.5,1.2-5,2.4-7.6,3.7c-8.3,4.2-16.9,8.9-25.7,14.1l-0.3,0.2h-19.1l3.9-2.4
							c7.5-4.7,19.3-11.8,32.8-18.8c2.6-1.3,5.1-2.6,7.7-3.9c11.3-5.5,21.8-9.9,31.2-13c3.3-1.1,6.4-2,9.3-2.8c7.7-2,14.7-3,20.7-3
							c17.2,0,35.2,7,52.1,20.4c12.6,9.9,20.1,19.8,20.5,20.2l2.5,3.2H678.6z"/>
						<path class="st3" d="M616.3-1711.9c16.9,0,34.6,6.9,51.3,20.1c12.5,9.8,19.9,19.5,20.2,20l0.9,1.1h-9.5
							c-8-9.1-32.6-33.8-62.9-33.8c-4.5,0-9.3,0.6-14.4,1.7c-2.4,0.5-4.9,1.1-7.4,1.9c-10.3,2.9-21.3,7.4-31.7,12.4
							c-2.6,1.2-5.1,2.5-7.7,3.7c-9.6,4.8-18.5,9.8-25.7,14.1h-14.2c7.5-4.7,19.2-11.8,32.7-18.7c2.5-1.3,5.1-2.6,7.6-3.8
							c10-4.9,20.7-9.5,31-12.9c3.1-1,6.2-1.9,9.3-2.7C603.1-1710.8,610-1711.9,616.3-1711.9 M616.3-1714.5c-6.1,0-13.2,1-21.1,3
							c-3,0.8-6.2,1.7-9.4,2.8c-9.5,3.1-20,7.5-31.4,13c-2.5,1.2-5.1,2.5-7.7,3.9c-13.6,7-25.4,14.1-32.9,18.9l-7.7,4.9h9.1h14.2
							h0.7l0.6-0.4c8.7-5.2,17.4-9.9,25.6-14c2.6-1.3,5.1-2.5,7.6-3.7c11.6-5.5,22.2-9.6,31.3-12.2c2.5-0.7,4.9-1.3,7.2-1.8
							c5.1-1.1,9.8-1.7,13.9-1.7c29.6,0,54.1,25.2,60.9,32.9l0.8,0.9h1.2h9.5h5.3l-3.2-4.2l-0.9-1.1c-0.3-0.4-8-10.4-20.7-20.4
							C652.1-1707.4,633.7-1714.5,616.3-1714.5L616.3-1714.5z"/>
					</g>
				</g>
			</g>
		</g>
		<g id="Guides_copy">
		</g>
	</g>
</g>
<g id="Layer_1">
	<g>
		<path class="st3" d="M63.3,241.5H48.4c0-6.8-5.6-11.9-15.1-11.9c-7.9,0-15.2,3-15.2,9c0,5.4,5.3,7.3,17.3,9.8
			c18.6,3.7,30.4,8.4,30.4,24.4c0,15.1-12.6,24.6-32.4,24.6c-15.4,0-32.1-8.5-32.1-27.3h14.9c0,9.3,9.3,13.7,17.2,13.7
			c8.6,0,17.5-3,17.5-10.5c0-5-4.1-8-18.5-10.8s-29.1-7.1-29.1-23.9c0-13.4,11.9-22.8,30.1-22.8C54,215.7,63.3,229.1,63.3,241.5z"/>
		<path class="st3" d="M102.2,296c-17,1.8-26.1-8.5-26.1-24.4v-48.4H91V238h10.5v13.2H91v20.5c0,8.1,3.7,11.2,11.2,10.7V296z"/>
		<path class="st3" d="M145.9,250.9c-9.5-1.7-15.8,3.4-15.8,11.6v33.6h-14.9v-33.6c0-16.5,11.4-28,30.7-25.6V250.9z"/>
		<path class="st3" d="M207.8,277.6c-3.4,11.9-13.7,19.9-28.1,19.9c-16.5,0-29.8-13.5-29.8-30.4c0-16.8,13.3-30.6,29.8-30.6
			c14,0,25.7,8.8,28.6,24.4l-41.1,17.3c2.9,3.9,7.3,6.2,12.4,6.2c4.9,0,9.8-2.1,12.3-6.8H207.8z M191.1,254.8
			c-2.7-3.3-6.8-5.2-11.5-5.2c-8.6,0-15.5,6.8-15.8,16.7L191.1,254.8z"/>
		<path class="st3" d="M243.4,296c-17,1.8-26.1-8.5-26.1-24.4v-48.4h14.9V238h10.5v13.2h-10.5v20.5c0,8.1,3.7,11.2,11.2,10.7V296z"
			/>
		<path class="st3" d="M278.7,296c-17,1.8-26.1-8.5-26.1-24.4v-48.4h14.9V238h10.5v13.2h-10.5v20.5c0,8.1,3.7,11.2,11.2,10.7V296z"
			/>
		<path class="st3" d="M345.1,267.1c0,17.4-13.2,30.4-29.3,30.4s-29.2-13-29.2-30.4c0-17.4,13.1-30.6,29.2-30.6
			S345.1,249.7,345.1,267.1z M330.1,267.2c0-10-6.4-17-14.3-17c-7.9,0-14.3,7-14.3,17c0,9.8,6.4,16.6,14.3,16.6
			C323.7,283.8,330.1,277,330.1,267.2z"/>
		<path class="st3" d="M381,236.5c16.3,0,25.9,10.7,25.9,26v33.6H392v-34c0-3.3-1.1-11.1-10.9-11.1c-6.5,0-11.3,4.5-11.3,11.1v34
			h-14.9v-33.6C354.8,247.7,365.2,236.5,381,236.5z"/>
		<path class="st3" d="M457.7,297.5c-21.3,0-37.9-17.9-37.9-40.9c0-22.9,16.6-40.9,37.9-40.9c17.7,0,30.8,10,35.7,26.1h-16.1
			c-3.5-7.1-10.5-12.4-19.5-12.4c-12.9,0-23,12.4-23,27.2c0,14.9,10.2,27.3,23,27.3c8.9,0,16-5.5,19.5-12.6h16
			C488.3,287.2,475,297.5,457.7,297.5z"/>
		<path class="st3" d="M501.8,212.1h15v59.6c0,8.2,3.7,11.2,11.1,10.7V296c-17,1.8-26.1-8.4-26.1-24.3V212.1z"/>
		<path class="st3" d="M541.8,231.7v-8.4c0-4.2,3.4-7.4,7.6-7.4c4.1,0,7.5,3.3,7.5,7.4v8.4H541.8z M556.8,296.1h-14.9V238h14.9
			V296.1z"/>
		<path class="st3" d="M658.1,296.1h-14.9v-34c0-3.3-1.1-11.1-11-11.1c-6.5,0-11.3,4.5-11.3,11.1v34h-14.9v-34
			c0-3.3-1-11.1-10.8-11.1c-6.7,0-11.3,4.5-11.3,11.1v34h-14.9v-33.6c0-14.8,10.3-26,26.2-26c7.9,0,14.3,3.2,18.5,8.2
			c4.4-5.1,10.9-8.2,18.5-8.2c16.3,0,25.9,10.7,25.9,26V296.1z"/>
		<path class="st3" d="M727.6,296.1h-14.1V290c-4.4,4.9-10.7,7.3-17.7,7.3c-15.4,0-27.9-13.5-27.9-30.3c0-16.8,12.3-30.6,29.9-30.6
			c17.5,0,29.8,13.8,29.8,30.6V296.1z M697.8,250.5c-8.2,0-14.9,7.1-14.9,16.7c0,9.3,6.7,16.4,14.9,16.4c8.2,0,14.9-7.3,14.9-16.4
			C712.7,258,706,250.5,697.8,250.5z"/>
		<path class="st3" d="M763.1,296c-17,1.8-26.1-8.5-26.1-24.4v-48.4H752V238h10.5v13.2H752v20.5c0,8.1,3.7,11.2,11.2,10.7V296z"/>
		<path class="st3" d="M829.4,277.6c-3.4,11.9-13.7,19.9-28.1,19.9c-16.5,0-29.8-13.5-29.8-30.4c0-16.8,13.3-30.6,29.8-30.6
			c14,0,25.7,8.8,28.6,24.4l-41.1,17.3c2.9,3.9,7.3,6.2,12.4,6.2c4.9,0,9.8-2.1,12.3-6.8H829.4z M812.7,254.8
			c-2.7-3.3-6.8-5.2-11.5-5.2c-8.6,0-15.5,6.8-15.8,16.7L812.7,254.8z"/>
		<path class="st3" d="M877.9,297.5c-21.3,0-37.9-17.9-37.9-40.9c0-22.9,16.6-40.9,37.9-40.9c17.7,0,30.8,10,35.7,26.1h-16.1
			c-3.5-7.1-10.5-12.4-19.5-12.4c-12.9,0-23,12.4-23,27.2c0,14.9,10.2,27.3,23,27.3c8.9,0,16-5.5,19.5-12.6h16
			C908.5,287.2,895.3,297.5,877.9,297.5z"/>
		<path class="st3" d="M979.9,296.1h-14.1V290c-4.4,4.9-10.7,7.3-17.7,7.3c-15.4,0-27.9-13.5-27.9-30.3c0-16.8,12.3-30.6,29.9-30.6
			c17.5,0,29.8,13.8,29.8,30.6V296.1z M950.1,250.5c-8.2,0-14.9,7.1-14.9,16.7c0,9.3,6.7,16.4,14.9,16.4s14.9-7.3,14.9-16.4
			C965,258,958.3,250.5,950.1,250.5z"/>
		<path class="st3" d="M1023.2,250.9c-9.5-1.7-15.8,3.4-15.8,11.6v33.6h-14.9v-33.6c0-16.5,11.4-28,30.7-25.6V250.9z"/>
		<path class="st3" d="M1085.8,277.6c-3.4,11.9-13.7,19.9-28.1,19.9c-16.5,0-29.8-13.5-29.8-30.4c0-16.8,13.3-30.6,29.8-30.6
			c14,0,25.7,8.8,28.6,24.4l-41.1,17.3c2.9,3.9,7.3,6.2,12.4,6.2c4.9,0,9.8-2.1,12.3-6.8H1085.8z M1069.1,254.8
			c-2.7-3.3-6.8-5.2-11.5-5.2c-8.6,0-15.5,6.8-15.8,16.7L1069.1,254.8z"/>
	</g>
	<g>
		<path class="st3" d="M255.5,353v32.2H248V353h-10.5V346H266v6.9H255.5z"/>
		<path class="st3" d="M296.3,385.2h-7.5v-17c0-1.7-0.6-5.5-5.4-5.5c-3.3,0-5.6,2.3-5.6,5.5v17h-7.5v-42h7.5v14.4
			c1.9-1.4,4.1-2.3,6.7-2.3c7.1,0,11.9,5.1,11.9,12.8V385.2z"/>
		<path class="st3" d="M313.3,353h-7.5V346h7.5V353z M313.3,385.2h-7.5v-29.1h7.5V385.2z"/>
		<path class="st3" d="M346.2,385.2h-7.5v-17c0-1.7-0.5-5.8-5.4-5.8c-3.3,0-5.6,2.5-5.6,5.8v17h-7.5v-29.1h7.1v2.8
			c1.9-2.2,4.4-3.6,7.5-3.6c6.8,0,11.3,5.1,11.3,12.8V385.2z"/>
		<path class="st3" d="M360,376.8v8.4h-7.5v-42h7.5v23.5l9.5-10.6h10.3l-10.8,11.3l11.5,17.7h-9.5l-7.2-12.2L360,376.8z"/>
		<path class="st3" d="M437.4,385.2h-6.9V381c-2.6,3.1-6.8,4.9-11.6,4.9c-10.7,0-19-8.9-19-20.4s8.4-20.4,19-20.4
			c8.7,0,15.4,4.9,17.8,13h-8c-1.5-3.4-5.2-6.3-9.8-6.3c-6.5,0-11.6,6.2-11.6,13.7c0,7.4,5.2,13.6,11.9,13.6c5.6,0,9.9-3.8,11.3-8.7
			H420v-6.9h17.4V385.2z"/>
		<path class="st3" d="M451.2,385.2h-7.5v-42h7.5V385.2z"/>
		<path class="st3" d="M486.3,370.7c0,8.7-6.6,15.2-14.7,15.2s-14.6-6.5-14.6-15.2s6.5-15.3,14.6-15.3S486.3,362,486.3,370.7z
			 M478.8,370.7c0-5-3.2-8.5-7.2-8.5s-7.2,3.5-7.2,8.5c0,4.9,3.2,8.3,7.2,8.3S478.8,375.6,478.8,370.7z"/>
		<path class="st3" d="M507.7,385.8c-3.5,0-6.6-1.4-8.9-3.7v3.1h-7.2v-42h7.5v15.7c2.2-2.1,5.2-3.4,8.5-3.4
			c7.6,0,13.8,6.5,13.8,15.2C521.5,379.3,515.3,385.8,507.7,385.8z M506.6,362.4c-4.1,0-7.5,3.7-7.5,8.4c0,4.5,3.3,8.2,7.5,8.2
			s7.5-3.6,7.5-8.2C514,366,510.7,362.4,506.6,362.4z"/>
		<path class="st3" d="M545.7,382.5c-1.9,2-4.9,3.3-8.9,3.3c-6.2,0-11.8-3.1-11.8-9.4c0-6.5,5.5-8.2,11.9-8.8c4.9-0.5,8.3-1,8.3-3.4
			c0-1.5-2-2.8-5.3-2.8c-2.7,0-5.7,1.2-6.4,3.7H526c0.7-5.5,6-9.7,13.7-9.7c11.8,0,12.7,7.6,12.7,9.9v15.1c0,1.4,0.5,3.6,0.8,4.7
			h-6.8C546,384.5,545.8,383.6,545.7,382.5z M545.4,371.2c-1.6,1-4,1.5-7.1,1.9c-3.7,0.4-5.9,1.2-5.9,3.3c0,1.6,1.9,2.8,4.9,2.8
			c4.5,0,8.1-1.5,8.1-5.2V371.2z"/>
		<path class="st3" d="M568.5,385.2H561v-42h7.5V385.2z"/>
		<path class="st3" d="M582.6,386.1c0,5.1-3,7.8-7.3,8.3v-3.5c2.3-0.5,3.5-2.3,3.5-4.7v-1h-4.2v-8h8V386.1z"/>
		<path class="st3" d="M613.4,377.3l-2.7,7.8h-7.9l13.7-39.2h9.4l13.7,39.2h-7.9l-2.7-7.8H613.4z M621.2,354.3l-5.5,16.1h11
			L621.2,354.3z"/>
		<path class="st3" d="M656.9,385.9c-8.7,0-15-6.8-15-15.2s6.3-15.3,15-15.3c7,0,12.3,4,14,10.5h-8c-1-2-3.3-3.7-6-3.7
			c-4.1,0-7.5,3.8-7.5,8.5c0,4.6,3.3,8.4,7.5,8.4c2.8,0,5.1-1.7,6.1-3.7h8C669.3,382,664,385.9,656.9,385.9z"/>
		<path class="st3" d="M689.4,385.1c-8.5,0.9-13-4.2-13-12.2v-10.2h-3.5v-6.6h3.5v-7.4h7.5v7.4h5.2v6.6h-5.2V373
			c0,4.1,1.9,5.6,5.6,5.4V385.1z"/>
		<path class="st3" d="M718.8,378.2h19.5v6.9h-27V346h7.5V378.2z"/>
		<path class="st3" d="M770.2,370.7c0,8.7-6.6,15.2-14.7,15.2s-14.6-6.5-14.6-15.2s6.5-15.3,14.6-15.3S770.2,362,770.2,370.7z
			 M762.7,370.7c0-5-3.2-8.5-7.2-8.5c-4,0-7.2,3.5-7.2,8.5c0,4.9,3.2,8.3,7.2,8.3C759.5,379,762.7,375.6,762.7,370.7z"/>
		<path class="st3" d="M788.6,385.9c-8.7,0-15-6.8-15-15.2s6.3-15.3,15-15.3c7,0,12.3,4,14,10.5h-8c-1-2-3.3-3.7-6-3.7
			c-4.1,0-7.5,3.8-7.5,8.5c0,4.6,3.3,8.4,7.5,8.4c2.8,0,5.1-1.7,6.1-3.7h8C800.9,382,795.6,385.9,788.6,385.9z"/>
		<path class="st3" d="M826.6,382.5c-1.9,2-4.9,3.3-8.9,3.3c-6.2,0-11.8-3.1-11.8-9.4c0-6.5,5.5-8.2,11.9-8.8c4.9-0.5,8.3-1,8.3-3.4
			c0-1.5-2-2.8-5.3-2.8c-2.7,0-5.7,1.2-6.4,3.7h-7.5c0.7-5.5,6-9.7,13.7-9.7c11.8,0,12.7,7.6,12.7,9.9v15.1c0,1.4,0.5,3.6,0.8,4.7
			h-6.8C827,384.5,826.7,383.6,826.6,382.5z M826.3,371.2c-1.6,1-4,1.5-7.1,1.9c-3.7,0.4-5.9,1.2-5.9,3.3c0,1.6,1.9,2.8,4.9,2.8
			c4.5,0,8.1-1.5,8.1-5.2V371.2z"/>
		<path class="st3" d="M848,385.2h-7.5v-42h7.5V385.2z"/>
	</g>
	<g id="Hill_shapes_2" class="st0">
		<g class="st5">
			<path class="st6" d="M552.6,93.4c-4.9-2.7-9.9-5.4-15-8.1c-48.1-25.5-101.6-48.5-138-48.5c-71.2,0-180.8,112.9-205.5,139.3h346.7
				c13.2-11,37.3-30.5,66.2-50.7C591.6,115.8,572.8,104.6,552.6,93.4z"/>
			<path class="st6" d="M627.8,58.6c-19.9,0-44.3,13.5-60.9,24.6c20.6,11.5,39.3,22.9,54.4,32.4c18.9-12.6,39.3-25,59.7-35.3
				C662.7,68.7,642.4,58.6,627.8,58.6z"/>
			<path class="st6" d="M765.1,70.7c-15.7,0-33.7,4.8-52.7,12.5c-5.5,2.2-11,4.7-16.5,7.3c-20.1,9.6-40.7,21.8-60.1,34.5
				c-4.8,3.2-9.6,6.4-14.2,9.6c-21.9,15-41.4,30-55.8,41.5h337.4C892.6,158.5,836,70.7,765.1,70.7z"/>
			<path class="st1" d="M399.7,36.8c36.4,0,89.9,23,138,48.5c5.1,2.7,10.1,5.4,15,8.1c20.2,11.1,38.9,22.4,54.4,32
				c4.6-3.2,9.4-6.5,14.2-9.7c-15.1-9.5-33.9-20.9-54.4-32.4c16.6-11.1,41-24.6,60.9-24.6c14.6,0,34.9,10.1,53.2,21.8
				c5.5-2.8,11.1-5.4,16.6-7.9c-21.2-14.4-48.6-29.6-69.8-29.6c-27,0-58.6,19.2-76.3,31.8c-51.4-27.7-110.6-53.7-151.8-53.7
				c-87.2,0-216.7,143.9-222.2,150l-4.4,5h21.2C218.9,149.6,328.5,36.8,399.7,36.8z"/>
			<path class="st1" d="M621.3,115.7c-4.8,3.2-9.6,6.5-14.2,9.7c-28.9,20.2-53,39.7-66.2,50.7h24.9c14.4-11.5,33.9-26.5,55.8-41.5
				c4.7-3.2,9.4-6.4,14.2-9.6c19.3-12.7,39.9-24.9,60.1-34.5c5.6-2.7,11.1-5.1,16.5-7.3c18.9-7.7,37-12.5,52.7-12.5
				c70.9,0,127.5,87.8,138.1,105.4h18l-2.6-4.6C916,166.7,852.7,55,765.1,55c-20.2,0-43.6,6.9-67.6,17.5c-5.5,2.4-11,5.1-16.6,7.9
				C660.6,90.7,640.2,103.1,621.3,115.7z"/>
		</g>
	</g>
	<g id="Hill_Paths" class="st0">
		<path class="st7" d="M154.6,176.9c54.9,0,128.1-157.8,213-157.8s267.9,126.9,359.9,126.9"/>
		<path class="st7" d="M367.3,199C499.5,199,677.8,62.1,762,62.1s129.8,113.7,180.1,113.7"/>
		<path class="st7" d="M467.5,91.8c0,0,120.8-53.7,157.8-53.7c37,0,102.2,51,102.2,51"/>
	</g>
	<g id="Hill_Paths_copy" class="st0">
		<path class="st8" d="M154.6,197.9c54.9,0,128.1-178.8,213-178.8s267.9,126.9,359.9,126.9"/>
		<path class="st8" d="M367.3,199C499.5,199,645.8,62.1,730,62.1s161.8,135.8,212.1,135.8"/>
		<path class="st8" d="M464.5,104.8c0,0,112.6-54.7,152.8-54.7c40.2,0,107.2,52,107.2,52"/>
	</g>
	<g id="Hill_Paths_copy_3">
		<path class="st3" d="M942.2,141.4c-15,0-28.9-13.1-46.6-29.6C865,83,823.1,43.6,742,43.6c-14.6,0-30.9,2.7-48.7,7.2
			c-25.9-11-60.1-23.3-84-23.3c-18.3,0-48.2,7.8-76.4,16.7C483.4,20.9,437.5,1.6,400.6,1.6C364,1.6,329.3,12.2,294.6,34
			c-29.4,18.4-53.8,41.7-75.4,62.3c-25.5,24.2-47.5,45.2-64.6,45.2c-6.4,0-11.5,5.1-11.5,11.5s5.1,11.5,11.5,11.5
			c12.2,0,23.9-4.9,36-13.1c13.9-9.4,28.3-23,44.4-38.5c41.3-39.3,92.8-88.3,165.5-88.3c26.9,0,62.6,13.2,100.5,30.2
			c10,4.5,20.1,9.2,30.2,14c7.2,3.4,14.4,6.9,21.5,10.3c8,3.8,16,7.7,24,11.5c-67.7,25.3-142.7,51.7-209.5,51.7
			c-2,0-3.9,0.5-5.6,1.4c-3.5,2-5.9,5.7-5.9,10.1c0,6.4,5.1,11.5,11.5,11.5c28.9,0,58.8-4.5,88.9-11.7c19.4-4.6,38.8-10.3,58-16.5
			c29-9.4,57.5-20.1,84.7-30.3c2.4-0.9,4.8-1.8,7.2-2.7c5.2-1.9,10.3-3.9,15.4-5.7c5.3-2,10.6-3.9,15.8-5.8
			c19.1-6.9,37.4-13.1,54.3-17.7c13.6-3.7,26.2-6.4,37.5-7.7c4.5-0.5,8.9-0.8,13-0.8c71.9,0,108.5,34.3,137.8,61.9
			c9.9,9.3,19.1,17.9,28.7,24.4c10.3,7,21.1,11.4,33.6,11.4c6.4,0,11.5-5.1,11.5-11.5S948.5,141.4,942.2,141.4z M609.3,50.5
			c12.7,0,30.4,4.7,48.1,10.9c-16,5.3-32.8,11.4-50.4,18c-14.3-6.6-28.8-13.5-43.1-20.5C582.1,54,598.6,50.5,609.3,50.5z"/>
	</g>
	<g id="Hill_Paths_copy_4" class="st0">
		<g class="st5">
			<path class="st6" d="M581.6,52.4c16.8,4.9,33.4,9.5,49.4,13.7c12.6-4.5,24.9-8.8,36.6-12.7c-14.6-5.8-29.1-9.9-40.3-9.9
				C616.9,43.5,600.3,47.1,581.6,52.4z"/>
			<path d="M631,66.1c-16-4.1-32.6-8.8-49.4-13.7c-12.6,3.6-26.1,7.9-39.3,12.4c17,5.1,34.1,10.1,50.9,14.9c3.3-1.2,6.6-2.4,9.9-3.6
				C612.7,72.7,622,69.4,631,66.1z"/>
			<path d="M538.9,39.8c-71-21.2-138.1-41.2-181.4-41.2c-34.9,0-73,35.5-113.3,73c-31.6,29.4-67.3,62.8-89.7,62.8
				c-6.4,0-11.5,5.1-11.5,11.5s5.1,11.5,11.5,11.5c31.4,0,67.3-33.5,105.4-68.9c33.6-31.3,71.8-66.9,97.6-66.9
				c34.4,0,90.2,15.2,147.4,32.1c11-4.1,23.7-8.6,36.9-13C540.9,40.4,539.9,40.1,538.9,39.8z"/>
			<path d="M942.2,134.4c-18.5,0-41.1-19.8-65.1-40.8C844.5,65,807.6,32.6,763,32.6c-17.6,0-38.5,4-62,10.6
				c12.3,6,22.9,12.1,30.1,16.3c11.9-2.5,22.6-3.9,31.9-3.9c35.9,0,67.9,28.1,98.9,55.2c27.3,23.9,53.1,46.5,80.2,46.5
				c6.4,0,11.5-5.1,11.5-11.5S948.5,134.4,942.2,134.4z"/>
			<path d="M673.1,75.9c8.8-2.9,17.4-5.7,25.7-8.1c-9.7-5-20.4-10.1-31.1-14.4c-11.8,3.9-24,8.2-36.6,12.7
				C645.7,69.9,659.8,73.3,673.1,75.9z"/>
			<path d="M367.3,135.5c-6.4,0-11.5,5.1-11.5,11.5s5.1,11.5,11.5,11.5c75.5,0,164.9-32.3,243.7-60.7c7.1-2.6,14.2-5.1,21.2-7.6
				c-12.6-3.2-25.7-6.7-38.9-10.4C518.7,106.6,435.8,135.5,367.3,135.5z"/>
			<path d="M631,66.1c-9.1,3.2-18.4,6.6-27.8,10c-3.3,1.2-6.6,2.4-9.9,3.6c13.2,3.7,26.2,7.3,38.9,10.4c14-5,27.7-9.8,40.9-14.2
				C659.8,73.3,645.7,69.9,631,66.1z"/>
			<path d="M627.3,43.5c11.3,0,25.7,4.2,40.3,9.9c11.6-3.8,22.8-7.3,33.4-10.3c-23-11.3-51.6-22.7-73.8-22.7
				c-19.5,0-53.8,9.7-85.4,20.2c13.2,3.9,26.6,7.9,39.7,11.7C600.3,47.1,616.9,43.5,627.3,43.5z"/>
			<path d="M541.9,40.7c-13.2,4.4-26,9-36.9,13c9.1,2.7,18.3,5.4,27.4,8.1c3.3,1,6.7,2,10,3c13.2-4.5,26.7-8.8,39.3-12.4
				C568.5,48.6,555.1,44.6,541.9,40.7z"/>
			<path d="M667.7,53.5c10.7,4.2,21.4,9.3,31.1,14.4c11.5-3.4,22.4-6.2,32.4-8.3c-7.2-4.2-17.8-10.3-30.1-16.3
				C690.4,46.2,679.3,49.6,667.7,53.5z"/>
		</g>
	</g>
	<g id="Hill_Paths_copy_2" class="st0">
		<g class="st5">
			<path class="st6" d="M570.4,91.3c11.3,4.3,22.6,8.6,33.7,12.7c8.8-4.3,17.4-8.3,25.7-12c-12.2-3.3-23.3-5.5-31.6-5.5
				C590.9,86.5,581.2,88.3,570.4,91.3z"/>
			<path d="M387.6,37.6c-51.6,0-103.1,47.6-148.7,89.5c-31.6,29.1-64.3,59.3-84.3,59.3c-6.4,0-11.5,5.1-11.5,11.5
				s5.1,11.5,11.5,11.5c29,0,61.8-30.3,99.9-65.4C296.9,105,345,60.6,387.6,60.6c29.9,0,72.2,13.5,116.6,30c10-4.2,20.9-8.5,32-12.5
				C479.6,56.4,426.9,37.6,387.6,37.6z"/>
			<path d="M570.4,91.3c-10.8,2.9-22.6,7-34.4,11.4c3.7,1.4,7.3,2.8,10.9,4.2c9.6,3.7,19.3,7.5,29,11.1c9.6-4.9,19-9.6,28.2-14
				C593,99.9,581.7,95.6,570.4,91.3z"/>
			<path d="M571,120.5c-62.3,31.4-132.9,67-203.7,67c-6.4,0-11.5,5.1-11.5,11.5s5.1,11.5,11.5,11.5c76.2,0,149.4-36.9,214-69.5
				c8.2-4.1,16.2-8.2,24.2-12.1c-9.8-3.5-19.7-7.2-29.6-10.9C574.3,118.8,572.6,119.7,571,120.5z"/>
			<path d="M604.2,104c10.5,3.8,20.8,7.5,31,10.9c10-4.5,19.7-8.5,29-11.7c-11.6-4.2-23.4-8.2-34.3-11.1
				C621.5,95.7,613,99.7,604.2,104z"/>
			<path d="M942.2,186.4c-18.3,0-48.8-21.7-81.1-44.7c-46.8-33.3-99.9-71.1-151.1-71.1c-14.5,0-29.7,3-45.7,8.1
				c14.2,5,27.9,10.4,39.2,15.1c2.2-0.2,4.4-0.3,6.5-0.3c43.8,0,93.7,35.5,137.7,66.8c36.9,26.3,68.8,48.9,94.4,48.9
				c6.4,0,11.5-5.1,11.5-11.5S948.5,186.4,942.2,186.4z"/>
			<path d="M576,118c9.9,3.8,19.8,7.4,29.6,10.9c10.1-5,20-9.7,29.7-14.1c-10.2-3.4-20.5-7.1-31-10.9C595,108.4,585.6,113.1,576,118
				z"/>
			<path d="M570.4,91.3c10.8-2.9,20.5-4.7,27.9-4.7c8.3,0,19.4,2.1,31.6,5.5c11.9-5.2,23.3-9.7,34.4-13.3
				c-23.7-8.3-48.7-15.2-66-15.2c-16.3,0-39.5,6.5-62.1,14.6c6.3,2.4,12.6,4.9,19,7.3C560.3,87.4,565.4,89.3,570.4,91.3z"/>
			<path d="M555.2,85.4c-6.4-2.5-12.7-4.9-19-7.3c-11.1,4-22.1,8.3-32,12.5c10.5,3.9,21.2,8,31.9,12.1c11.8-4.4,23.7-8.5,34.4-11.4
				C565.4,89.3,560.3,87.4,555.2,85.4z"/>
			<path d="M629.9,92c10.9,3,22.7,6.9,34.3,11.1c14.1-5,27.3-8.3,39.4-9.2c-11.4-4.8-25.1-10.2-39.2-15.1
				C653.3,82.3,641.8,86.8,629.9,92z"/>
		</g>
	</g>
	<g id="Hill_shape3" class="st0">
		<g class="st5">
			<path class="st6" d="M571.3,85.9c26,14.7,48.8,29,64.6,39.2c21.5-10.5,44.4-20.4,66.6-27.6c-19.4-12.1-49.6-28.6-71.1-28.6
				C612.3,68.9,588.7,77.8,571.3,85.9z"/>
			<path class="st1" d="M631.3,68.9c21.5,0,51.8,16.4,71.1,28.6c6.7-2.2,13.3-4.2,19.9-5.9c-17.8-12.1-60.2-38.4-91-38.4
				c-26.1,0-58.1,13.9-76.8,23.4c5.7,3.1,11.4,6.2,16.8,9.3C588.7,77.8,612.3,68.9,631.3,68.9z"/>
		</g>
		<g class="st5">
			<g>
				<path class="st1" d="M571.3,85.9c-5.5-3.1-11.1-6.2-16.8-9.3c-52.1-28.3-112.9-55.3-154.9-55.3c-87.4,0-217.3,144.3-222.8,150.4
					l-1.6,1.8h21.4C226,142.3,330.7,37,399.6,37c36.5,0,90.1,23,138.3,48.6c5.5,2.9,11,5.9,16.3,8.8c25.3,14,48.2,28.1,65.3,38.9
					c5.4-2.8,10.8-5.5,16.4-8.2C620.1,114.8,597.3,100.6,571.3,85.9z"/>
				<path class="st1" d="M919.4,171.1c-0.7-0.9-16.6-21.7-43.4-42.8c-35.8-28.2-73.8-43.1-110-43.1c-13.4,0-28.2,2.4-43.7,6.3
					c-6.5,1.7-13.2,3.6-19.9,5.9c-22.2,7.3-45.1,17.2-66.6,27.6c-5.6,2.7-11,5.5-16.4,8.2c-28.9,15-54.2,30.1-70.2,40.2h30.4
					c15.6-9.2,34.6-19.9,55.2-30.3c5.4-2.7,10.9-5.4,16.4-8c22.5-10.6,46-20.2,68-26.6c5.4-1.5,10.6-2.9,15.8-4
					c10.9-2.4,21.4-3.7,30.9-3.7c65,0,117.7,53,134.9,72.5h20.3L919.4,171.1z"/>
			</g>
		</g>
	</g>
	<g id="ICON_copy_2">
		<rect x="283.2" y="195.7" class="st6" width="605.9" height="296.3"/>
		<text transform="matrix(1 0 0 1 283.168 279.7266)" class="st0"><tspan x="0" y="0" class="st9 st10 st11 st12">s</tspan><tspan x="43" y="0" class="st9 st10 st11">cc</tspan></text>
		<g class="st0">
			<g class="st5">
				<path class="st1" d="M694.3,98.6c-28.3-17.7-52.4-27.5-67.8-27.5c-18.2,0-41.2,8.9-57.3,16.3l-1.9,0.9l-1.8-1
					c-5.5-3.1-11.1-6.2-16.5-9.1l-6.7-3.6l6.8-3.4c21.1-10.7,51.7-23.4,77.4-23.4c31.6,0,74.7,26.9,91.7,38.5l7.3,5l-8.6,2.2
					c-6.1,1.6-12.6,3.5-19.3,5.7l-1.8,0.6L694.3,98.6z"/>
			</g>
			<g class="st5">
				<path class="st1" d="M169,174.1l7.6-8.5C182,159.5,311,16.3,398.7,16.3c35.3,0,87.1,18.4,154.2,54.8c5.5,3,11.1,6.1,16.6,9.2
					c26.2,14.8,49.1,29.2,63.7,38.7l5.9,3.8l-6.4,3.1c-5.3,2.6-10.7,5.3-16,8.1l-2,1.1l-1.9-1.2c-21.7-13.8-43.3-26.6-64-38.1
					c-5.4-3-10.8-5.9-16-8.7c-59.2-31.4-104.4-47.3-134.1-47.3c-65.9,0-167.3,101.8-196.8,133l-1.2,1.3H169z"/>
			</g>
			<g class="st5">
				<path class="st1" d="M889.8,174.1l-1.2-1.4c-18.5-21-68.3-70-129.6-70c-8.7,0-18.6,1.2-29.6,3.6c-4.9,1.1-10.1,2.4-15.3,3.8
					c-19.4,5.6-41.7,14.3-66.3,25.9c-5.2,2.5-10.6,5.1-16.1,7.8c-17.4,8.7-35.5,18.7-54,29.6l-0.9,0.6H532l11.8-7.4
					c15.9-10,40.8-24.9,69.3-39.7c5.4-2.8,10.9-5.5,16.2-8.1c23.8-11.6,46-20.8,65.9-27.4c6.9-2.3,13.5-4.2,19.8-5.8
					c16.4-4.2,31.2-6.3,44-6.3c36.5,0,74.8,14.9,110.7,43.2c26.6,21,42.7,41.9,43.3,42.8l6.7,8.8H889.8z"/>
			</g>
		</g>
		<g class="st0">
			<path class="st1" d="M551,70.2c21.1-10.5,50.6-22.5,75.5-22.5c30.7,0,72.3,25.4,90.3,37.5c15.7-3.9,29.9-5.9,42.2-5.9
				c33,0,67.5,12.2,100.3,35.4C842.3-24.3,723.9-132,580.3-132c-117.8,0-218.6,72.5-260.4,175.3c27.1-16,54.5-26.9,78.7-26.9
				C433.6,16.3,484.9,34.5,551,70.2z"/>
			<g class="st5">
				<path class="st1" d="M913,165.3c-0.7-0.9-16.7-21.8-43.3-42.8c-3.4-2.7-6.9-5.3-10.4-7.8C826.4,91.5,792,79.3,759,79.3
					c-12.3,0-26.5,2-42.2,5.9c-18-12-59.5-37.5-90.3-37.5c-24.9,0-54.4,12-75.5,22.5c-66.2-35.7-117.4-53.8-152.4-53.8
					c-24.2,0-51.7,11-78.7,26.9C249.1,85,180.5,161.2,176.6,165.6l-7.6,8.5h31.7l1.2-1.3c17.6-18.6,60.6-62.1,106.4-94.4
					c31.2-21.9,63.7-38.6,90.4-38.6c29.7,0,74.8,15.9,134.1,47.3c5.2,2.8,10.6,5.7,16,8.7c18.9,10.4,38.4,22,58.1,34.4
					c-25.9,13.7-48.4,27.2-63.1,36.5l-11.8,7.4h44.9l0.9-0.6c18.5-10.9,36.6-20.9,54-29.6c5.4-2.7,10.8-5.4,16.1-7.8
					c24.6-11.6,46.9-20.3,66.3-25.9c5.2-1.5,10.4-2.8,15.3-3.8c11-2.4,20.9-3.6,29.6-3.6c41.4,0,77.5,22.3,102.3,43.2
					c12,10.1,21.3,19.9,27.3,26.8l1.2,1.4h29.8L913,165.3z M631.3,117.9c-13.3-8.6-32.7-20.7-54.9-33.5
					c15.3-6.6,34.5-13.2,50.2-13.2c14.1,0,35.4,8.1,60.6,23.1C669.9,100.3,651.2,108.2,631.3,117.9z"/>
			</g>
		</g>
		<g id="Guides_copy_2">
		</g>
	</g>
</g>
<g id="Layer_1_copy" class="st0">
	<g id="Hill_shapes_2_copy" class="st5">
	</g>
</g>
<g id="Hill_shapes" class="st0">
	<g class="st5">
		<path class="st6" d="M-517-1147.4c-14.5,0-32.6,11.2-42.9,18.5c22.3,10.6,41.6,21.3,52.6,27.6c13.1-7.9,27.2-15.2,41-20.5
			C-480.1-1132.3-502.8-1147.4-517-1147.4z"/>
		<path class="st6" d="M-569.1-1056.8c1.7-1.5,23.7-20.3,52-38.5c-12.1-6.8-30.9-16.9-51.8-26.7c-2.8-1.3-5.6-2.6-8.5-3.9
			c-29.9-13.5-62.6-25.4-85.1-25.4c-45.1,0-114.5,78.9-130.7,98h220.4l-0.2-0.2L-569.1-1056.8z"/>
		<path class="st6" d="M-429.4-1119.7c-6.5,0-13.5,1.1-20.8,3.1c-2.4,0.6-4.8,1.4-7.2,2.2c-13.2,4.5-27,11.3-40.1,18.9
			c-3.3,1.9-6.6,3.9-9.7,5.9c-22.5,14-41.8,29.2-50.4,36.3h215.8C-349.7-1066.2-385.2-1119.7-429.4-1119.7z"/>
		<path d="M-662.5-1151.3c22.5,0,55.2,11.9,85.1,25.4c2.9,1.3,5.7,2.6,8.5,3.9c20.9,9.8,39.7,20,51.8,26.7c3.2-2,6.4-4,9.7-6
			c-10.9-6.2-30.3-16.9-52.6-27.6c10.3-7.3,28.4-18.5,42.9-18.5c14.2,0,36.9,15.1,50.6,25.7c3.8-1.4,7.5-2.7,11.3-3.8
			c-10.3-8.4-40.9-31.9-61.9-31.9c-19.9,0-43.7,16.4-53.3,23.7c-31.7-14.5-67.2-27.6-92.2-27.6c-55.7,0-138.4,101.5-141.9,105.9
			l-1.7,2.1h13C-777-1072.4-707.6-1151.3-662.5-1151.3z"/>
		<path d="M-507.4-1101.3c-3.3,2-6.6,4-9.7,6c-28.3,18.1-50.3,37-52,38.5l-3.8,3.3l0.2,0.2h15.1c8.7-7.1,27.9-22.3,50.4-36.3
			c3.2-2,6.4-4,9.7-5.9c13.1-7.6,26.9-14.4,40.1-18.9c2.4-0.8,4.8-1.6,7.2-2.2c7.3-2,14.3-3.1,20.8-3.1c44.2,0,79.7,53.5,87.6,66.4
			h11.6l-1.2-2.1c-1.7-3-42.1-74.3-97.9-74.3c-8.1,0-16.8,1.5-25.7,4.1c-3.7,1.1-7.5,2.4-11.3,3.8
			C-480.2-1116.5-494.3-1109.2-507.4-1101.3z"/>
	</g>
</g>
</svg>
