<?xml version="1.0" encoding="utf-8"?>
<!-- Generator: Adobe Illustrator 19.0.0, SVG Export Plug-In . SVG Version: 6.00 Build 0)  -->
<svg version="1.1" id="Layer_8_copy" xmlns="http://www.w3.org/2000/svg" xmlns:xlink="http://www.w3.org/1999/xlink" x="0px"
	 y="0px" viewBox="0 0 1716 274.7" style="enable-background:new 0 0 1716 274.7;" xml:space="preserve">
<style type="text/css">
	.st0{fill:#0B556D;}
	.st1{fill:#159B42;}
	.st2{fill:#088031;}
	.st3{fill:#FFFFFF;}
</style>
<g>
	<path class="st0" d="M396.3,70.5h-19.1c0-8.7-7.2-15.2-19.4-15.2c-10.1,0-19.5,3.9-19.5,11.6c0,6.9,6.8,9.4,22.1,12.6
		c23.8,4.8,38.8,10.7,38.8,31.2c0,19.4-16.2,31.5-41.4,31.5c-19.6,0-41-10.8-41-35h19.1c0,11.8,11.8,17.5,22,17.5
		c11,0,22.4-3.9,22.4-13.4c0-6.4-5.2-10.3-23.7-13.9c-18.5-3.6-37.3-9.1-37.3-30.6c0-17.2,15.2-29.2,38.6-29.2
		C384.3,37.5,396.3,54.6,396.3,70.5z"/>
	<path class="st0" d="M445.9,140.2c-21.8,2.3-33.4-10.8-33.4-31.2v-62h19.1V66h13.4v16.9h-13.4v26.3c0,10.4,4.8,14.3,14.3,13.7
		V140.2z"/>
	<path class="st0" d="M501.8,82.5c-12.1-2.2-20.2,4.3-20.2,14.9v43h-19.1v-43c0-21.1,14.6-35.8,39.3-32.8V82.5z"/>
	<path class="st0" d="M581.1,116.7c-4.3,15.2-17.5,25.4-36,25.4c-21.1,0-38.1-17.3-38.1-38.9s17-39.1,38.1-39.1
		c17.9,0,32.9,11.3,36.5,31.2l-52.6,22.1c3.8,5.1,9.4,7.9,15.9,7.9c6.2,0,12.6-2.7,15.7-8.7H581.1z M559.7,87.5
		c-3.5-4.2-8.7-6.6-14.7-6.6c-11,0-19.8,8.7-20.2,21.4L559.7,87.5z"/>
	<path class="st0" d="M626.6,140.2c-21.8,2.3-33.4-10.8-33.4-31.2v-62h19.1V66h13.4v16.9h-13.4v26.3c0,10.4,4.8,14.3,14.3,13.7
		V140.2z"/>
	<path class="st0" d="M671.8,140.2c-21.8,2.3-33.4-10.8-33.4-31.2v-62h19.1V66h13.4v16.9h-13.4v26.3c0,10.4,4.8,14.3,14.3,13.7
		V140.2z"/>
	<path class="st0" d="M756.7,103.3c0,22.2-16.9,38.9-37.6,38.9c-20.7,0-37.4-16.6-37.4-38.9s16.8-39.1,37.4-39.1
		C739.8,64.1,756.7,81,756.7,103.3z M737.5,103.4c0-12.9-8.2-21.8-18.3-21.8c-10.1,0-18.3,9-18.3,21.8c0,12.6,8.2,21.2,18.3,21.2
		C729.3,124.6,737.5,116,737.5,103.4z"/>
	<path class="st0" d="M802.6,64.1c20.8,0,33.1,13.7,33.1,33.2v43h-19.1V96.9c0-4.2-1.4-14.2-14-14.2c-8.4,0-14.4,5.8-14.4,14.2v43.5
		h-19.1v-43C769.1,78.4,782.4,64.1,802.6,64.1z"/>
	<path class="st1" d="M900.7,142.1c-27.3,0-48.5-23-48.5-52.3s21.2-52.3,48.5-52.3c22.7,0,39.4,12.9,45.6,33.4h-20.7
		c-4.5-9.1-13.4-15.9-25-15.9c-16.5,0-29.5,15.9-29.5,34.8c0,19.1,13,35,29.5,35c11.4,0,20.5-7.1,25-16.2h20.5
		C939.8,129,922.9,142.1,900.7,142.1z"/>
	<path class="st1" d="M957.2,32.9h19.2v76.3c0,10.5,4.8,14.3,14.2,13.7v17.3c-21.8,2.3-33.4-10.7-33.4-31.1V32.9z"/>
	<path class="st1" d="M1008.3,57.9V47.2c0-5.3,4.3-9.5,9.7-9.5c5.2,0,9.5,4.2,9.5,9.5v10.7H1008.3z M1027.5,140.4h-19.1V66h19.1
		V140.4z"/>
	<path class="st1" d="M1157.2,140.4h-19.1V96.9c0-4.2-1.4-14.2-14-14.2c-8.4,0-14.4,5.8-14.4,14.2v43.5h-19.1V96.9
		c0-4.2-1.3-14.2-13.9-14.2c-8.5,0-14.4,5.8-14.4,14.2v43.5h-19.1v-43c0-18.9,13.1-33.2,33.5-33.2c10.1,0,18.3,4,23.7,10.5
		c5.6-6.5,14-10.5,23.7-10.5c20.8,0,33.1,13.7,33.1,33.2V140.4z"/>
	<path class="st1" d="M1246,140.4h-18.1v-7.8c-5.6,6.2-13.7,9.4-22.7,9.4c-19.6,0-35.7-17.3-35.7-38.7c0-21.5,15.7-39.1,38.3-39.1
		c22.4,0,38.1,17.6,38.1,39.1V140.4z M1207.9,82c-10.5,0-19.1,9.1-19.1,21.4c0,11.8,8.5,20.9,19.1,20.9s19.1-9.4,19.1-20.9
		C1226.9,91.6,1218.4,82,1207.9,82z"/>
	<path class="st1" d="M1291.5,140.2c-21.8,2.3-33.4-10.8-33.4-31.2v-62h19.1V66h13.4v16.9h-13.4v26.3c0,10.4,4.8,14.3,14.3,13.7
		V140.2z"/>
	<path class="st1" d="M1376.3,116.7c-4.3,15.2-17.5,25.4-36,25.4c-21.1,0-38.1-17.3-38.1-38.9s17-39.1,38.1-39.1
		c17.9,0,32.9,11.3,36.5,31.2l-52.6,22.1c3.8,5.1,9.4,7.9,15.9,7.9c6.2,0,12.6-2.7,15.7-8.7H1376.3z M1354.9,87.5
		c-3.5-4.2-8.7-6.6-14.7-6.6c-11,0-19.8,8.7-20.2,21.4L1354.9,87.5z"/>
	<path class="st0" d="M1438.4,142.1c-27.3,0-48.5-23-48.5-52.3s21.2-52.3,48.5-52.3c22.7,0,39.4,12.9,45.6,33.4h-20.7
		c-4.5-9.1-13.4-15.9-25-15.9c-16.5,0-29.5,15.9-29.5,34.8c0,19.1,13,35,29.5,35c11.4,0,20.5-7.1,25-16.2h20.5
		C1477.5,129,1460.6,142.1,1438.4,142.1z"/>
	<path class="st0" d="M1568.8,140.4h-18.1v-7.8c-5.6,6.2-13.7,9.4-22.7,9.4c-19.6,0-35.7-17.3-35.7-38.7c0-21.5,15.7-39.1,38.3-39.1
		c22.4,0,38.1,17.6,38.1,39.1V140.4z M1530.6,82c-10.5,0-19.1,9.1-19.1,21.4c0,11.8,8.5,20.9,19.1,20.9s19.1-9.4,19.1-20.9
		C1549.7,91.6,1541.2,82,1530.6,82z"/>
	<path class="st0" d="M1624.2,82.5c-12.1-2.2-20.2,4.3-20.2,14.9v43h-19.1v-43c0-21.1,14.6-35.8,39.3-32.8V82.5z"/>
	<path class="st0" d="M1704.2,116.7c-4.3,15.2-17.5,25.4-36,25.4c-21.1,0-38.1-17.3-38.1-38.9s17-39.1,38.1-39.1
		c17.9,0,32.9,11.3,36.5,31.2l-52.6,22.1c3.8,5.1,9.4,7.9,15.9,7.9c6.2,0,12.6-2.7,15.7-8.7H1704.2z M1682.9,87.5
		c-3.5-4.2-8.7-6.6-14.7-6.6c-11,0-19.8,8.7-20.2,21.4L1682.9,87.5z"/>
</g>
<g>
	<path class="st2" d="M341.1,189.1v41.2h-9.5v-41.2h-13.4v-8.9h36.4v8.9H341.1z"/>
	<path class="st2" d="M393.3,230.3h-9.5v-21.7c0-2.2-0.7-7.1-6.9-7.1c-4.3,0-7.2,2.9-7.2,7.1v21.7H360v-53.7h9.6v18.5
		c2.4-1.8,5.3-2.9,8.5-2.9c9.1,0,15.2,6.6,15.2,16.4V230.3z"/>
	<path class="st2" d="M415.1,189.1h-9.5v-8.9h9.5V189.1z M415.1,230.3h-9.5v-37.2h9.5V230.3z"/>
	<path class="st2" d="M457.2,230.3h-9.5v-21.7c0-2.2-0.7-7.4-6.9-7.4c-4.3,0-7.2,3.2-7.2,7.4v21.7h-9.5v-37.2h9.1v3.6
		c2.4-2.8,5.6-4.5,9.6-4.5c8.7,0,14.5,6.6,14.5,16.4V230.3z"/>
	<path class="st2" d="M474.8,219.6v10.7h-9.5v-53.7h9.5v30l12.2-13.5h13.1l-13.9,14.5l14.7,22.7h-12.1l-9.2-15.7L474.8,219.6z"/>
	<path class="st2" d="M573.8,230.3H565v-5.4c-3.3,4-8.7,6.3-14.9,6.3c-13.6,0-24.3-11.4-24.3-26.1c0-14.7,10.7-26.1,24.3-26.1
		c11.1,0,19.6,6.3,22.7,16.7h-10.3c-1.9-4.4-6.7-8-12.5-8c-8.3,0-14.8,7.9-14.8,17.5c0,9.5,6.7,17.4,15.2,17.4
		c7.1,0,12.7-4.9,14.5-11.2h-13.6v-8.9h22.3V230.3z"/>
	<path class="st2" d="M591.5,230.3H582v-53.7h9.5V230.3z"/>
	<path class="st2" d="M636.4,211.8c0,11.1-8.4,19.4-18.8,19.4s-18.7-8.3-18.7-19.4s8.4-19.6,18.7-19.6S636.4,200.7,636.4,211.8z
		 M626.8,211.8c0-6.4-4.1-10.9-9.2-10.9s-9.2,4.5-9.2,10.9c0,6.3,4.1,10.6,9.2,10.6S626.8,218.1,626.8,211.8z"/>
	<path class="st2" d="M663.7,231.1c-4.5,0-8.4-1.7-11.3-4.8v4h-9.2v-53.7h9.6v20.1c2.8-2.7,6.6-4.3,10.9-4.3
		c9.7,0,17.7,8.4,17.7,19.4C681.4,222.8,673.5,231.1,663.7,231.1z M662.4,201.2c-5.3,0-9.5,4.8-9.5,10.7c0,5.8,4.3,10.5,9.5,10.5
		c5.3,0,9.5-4.5,9.5-10.5C671.9,205.8,667.6,201.2,662.4,201.2z"/>
	<path class="st2" d="M712.3,226.9c-2.5,2.6-6.2,4.2-11.4,4.2c-7.9,0-15.1-4-15.1-12.1c0-8.4,7-10.5,15.2-11.3
		c6.2-0.6,10.6-1.3,10.6-4.3c0-1.9-2.5-3.5-6.8-3.5c-3.4,0-7.3,1.5-8.2,4.7h-9.5c0.9-7.1,7.7-12.3,17.5-12.3
		c15.1,0,16.2,9.7,16.2,12.7v19.4c0,1.8,0.6,4.6,1.1,6.1h-8.7C712.8,229.4,712.6,228.2,712.3,226.9z M712,212.4
		c-2,1.3-5.1,1.9-9,2.4c-4.7,0.5-7.6,1.5-7.6,4.3c0,2.1,2.5,3.5,6.3,3.5c5.7,0,10.3-2,10.3-6.7V212.4z"/>
	<path class="st2" d="M741.5,230.3H732v-53.7h9.5V230.3z"/>
	<path class="st2" d="M759.6,231.6c0,6.5-3.9,10-9.3,10.6v-4.5c3-0.7,4.5-2.9,4.5-6.1v-1.3h-5.4v-10.2h10.3V231.6z"/>
	<path class="st2" d="M799.1,220.3l-3.4,10h-10.1l17.5-50.1h12.1l17.5,50.1h-10.1l-3.4-10H799.1z M809,190.8l-7,20.6h14L809,190.8z"
		/>
	<path class="st2" d="M854.7,231.2c-11.2,0-19.2-8.7-19.2-19.4s8-19.6,19.2-19.6c9,0,15.7,5.1,17.9,13.4h-10.2
		c-1.3-2.5-4.3-4.7-7.7-4.7c-5.3,0-9.5,4.9-9.5,10.9c0,5.8,4.3,10.7,9.5,10.7c3.5,0,6.6-2.2,7.8-4.8h10.2
		C870.5,226.2,863.7,231.2,854.7,231.2z"/>
	<path class="st2" d="M896.3,230.3c-10.9,1.2-16.7-5.4-16.7-15.6v-13.1h-4.5v-8.4h4.5v-9.5h9.5v9.5h6.7v8.4h-6.7v13.1
		c0,5.2,2.4,7.1,7.1,6.9V230.3z"/>
	<path class="st2" d="M933.8,221.5h24.9v8.9h-34.5v-50.1h9.6V221.5z"/>
	<path class="st2" d="M999.6,211.8c0,11.1-8.4,19.4-18.8,19.4s-18.7-8.3-18.7-19.4s8.4-19.6,18.7-19.6S999.6,200.7,999.6,211.8z
		 M990,211.8c0-6.4-4.1-10.9-9.2-10.9s-9.2,4.5-9.2,10.9c0,6.3,4.1,10.6,9.2,10.6S990,218.1,990,211.8z"/>
	<path class="st2" d="M1023.1,231.2c-11.2,0-19.2-8.7-19.2-19.4s8-19.6,19.2-19.6c9,0,15.7,5.1,17.9,13.4h-10.2
		c-1.3-2.5-4.3-4.7-7.7-4.7c-5.3,0-9.5,4.9-9.5,10.9c0,5.8,4.3,10.7,9.5,10.7c3.5,0,6.6-2.2,7.8-4.8h10.2
		C1038.9,226.2,1032.1,231.2,1023.1,231.2z"/>
	<path class="st2" d="M1071.7,226.9c-2.5,2.6-6.2,4.2-11.4,4.2c-7.9,0-15.1-4-15.1-12.1c0-8.4,7-10.5,15.2-11.3
		c6.2-0.6,10.6-1.3,10.6-4.3c0-1.9-2.5-3.5-6.8-3.5c-3.4,0-7.3,1.5-8.2,4.7h-9.5c0.9-7.1,7.7-12.3,17.5-12.3
		c15.1,0,16.2,9.7,16.2,12.7v19.4c0,1.8,0.6,4.6,1.1,6.1h-8.7C1072.2,229.4,1071.9,228.2,1071.7,226.9z M1071.4,212.4
		c-2,1.3-5.1,1.9-9,2.4c-4.7,0.5-7.6,1.5-7.6,4.3c0,2.1,2.5,3.5,6.3,3.5c5.7,0,10.3-2,10.3-6.7V212.4z"/>
	<path class="st2" d="M1099.1,230.3h-9.5v-53.7h9.5V230.3z"/>
</g>
<g id="ICON_copy">
	<circle class="st0" cx="138" cy="138.3" r="133.3"/>
	<g>
		<path class="st3" d="M270.2,121.1c-15.5-10.8-31.9-16.6-47.4-16.6c-5.8,0-12.5,0.9-19.9,2.8c-10.3-6.9-28.8-17.7-43-17.7
			c-11.8,0-25.8,5.6-35.8,10.6C92.8,83.2,68.5,74.6,51.8,74.6c-10.4,0-22.8,4.1-36.9,12.3c-2.6,6.1-4.7,12.5-6.3,19l2.5-1.7
			c16.4-11.3,30.1-17,40.6-17c13.8,0,35.7,7.7,63.3,22.4c2.5,1.3,5,2.7,7.6,4.1c8.6,4.8,17.5,10,26.5,15.6
			c-11.8,6.3-22.1,12.5-28.9,16.7l-7.7,4.9h24l0.6-0.4c8.8-5.2,17.4-9.9,25.6-14c2.6-1.3,5.1-2.5,7.6-3.7
			c11.6-5.5,22.2-9.6,31.3-12.2c2.5-0.7,4.9-1.3,7.2-1.8c5.1-1.1,9.8-1.7,13.9-1.7c19.2,0,36,10.5,46.8,19.3l1.7,1.4
			C271.3,132.2,270.9,126.6,270.2,121.1z M162.2,122.7c-6-3.9-14.6-9.3-24.5-15c6.9-2.9,15.3-5.6,22.1-5.6c6.3,0,15.8,3.5,27,10
			C179.3,114.9,171,118.5,162.2,122.7z"/>
	</g>
</g>
</svg>
