<?xml version="1.0" encoding="utf-8"?>
<!-- Generator: Adobe Illustrator 19.0.0, SVG Export Plug-In . SVG Version: 6.00 Build 0)  -->
<svg version="1.1" id="Layer_1" xmlns="http://www.w3.org/2000/svg" xmlns:xlink="http://www.w3.org/1999/xlink" x="0px" y="0px"
	 viewBox="0 0 525 184" style="enable-background:new 0 0 525 184;" xml:space="preserve">
<g>
	<g id="XMLID_49_">
		<path id="XMLID_50_" style="fill:#FFFFFF;" d="M33.7,111.5h-7.1c0-3.2-2.7-5.7-7.2-5.7c-3.8,0-7.3,1.5-7.3,4.3
			c0,2.6,2.5,3.5,8.2,4.7c8.9,1.8,14.5,4,14.5,11.6c0,7.2-6,11.8-15.5,11.8c-7.3,0-15.3-4-15.3-13h7.1c0,4.4,4.4,6.5,8.2,6.5
			c4.1,0,8.4-1.5,8.4-5c0-2.4-1.9-3.8-8.8-5.2s-13.9-3.4-13.9-11.4c0-6.4,5.7-10.9,14.4-10.9C29.2,99.2,33.7,105.5,33.7,111.5z"/>
		<path id="XMLID_52_" style="fill:#FFFFFF;" d="M52.2,137.5c-8.1,0.9-12.5-4-12.5-11.6v-23.1h7.1v7.1h5v6.3h-5v9.8
			c0,3.9,1.8,5.3,5.3,5.1V137.5z"/>
		<path id="XMLID_54_" style="fill:#FFFFFF;" d="M73.1,115.9c-4.5-0.8-7.5,1.6-7.5,5.6v16.1h-7.1v-16.1c0-7.9,5.4-13.4,14.7-12.2
			V115.9z"/>
		<path id="XMLID_56_" style="fill:#FFFFFF;" d="M102.7,128.7c-1.6,5.7-6.5,9.5-13.4,9.5c-7.9,0-14.2-6.5-14.2-14.5
			c0-8,6.4-14.6,14.2-14.6c6.7,0,12.3,4.2,13.6,11.6L83.2,129c1.4,1.9,3.5,3,5.9,3c2.3,0,4.7-1,5.9-3.2H102.7z M94.7,117.8
			c-1.3-1.6-3.2-2.5-5.5-2.5c-4.1,0-7.4,3.2-7.5,8L94.7,117.8z"/>
		<path id="XMLID_59_" style="fill:#FFFFFF;" d="M119.6,137.5c-8.1,0.9-12.5-4-12.5-11.6v-23.1h7.1v7.1h5v6.3h-5v9.8
			c0,3.9,1.8,5.3,5.3,5.1V137.5z"/>
		<path id="XMLID_61_" style="fill:#FFFFFF;" d="M136.5,137.5c-8.1,0.9-12.5-4-12.5-11.6v-23.1h7.1v7.1h5v6.3h-5v9.8
			c0,3.9,1.8,5.3,5.3,5.1V137.5z"/>
		<path id="XMLID_63_" style="fill:#FFFFFF;" d="M168.2,123.7c0,8.3-6.3,14.5-14,14.5s-14-6.2-14-14.5c0-8.3,6.3-14.6,14-14.6
			S168.2,115.4,168.2,123.7z M161,123.7c0-4.8-3.1-8.1-6.8-8.1c-3.8,0-6.8,3.3-6.8,8.1c0,4.7,3.1,7.9,6.8,7.9
			C158,131.7,161,128.4,161,123.7z"/>
		<path id="XMLID_66_" style="fill:#FFFFFF;" d="M185.3,109.1c7.8,0,12.3,5.1,12.3,12.4v16.1h-7.1v-16.2c0-1.6-0.5-5.3-5.2-5.3
			c-3.1,0-5.4,2.2-5.4,5.3v16.2h-7.1v-16.1C172.8,114.4,177.8,109.1,185.3,109.1z"/>
		<path id="XMLID_68_" style="fill:#FFFFFF;" d="M221.9,138.2c-10.2,0-18.1-8.6-18.1-19.5s7.9-19.5,18.1-19.5
			c8.5,0,14.7,4.8,17,12.5h-7.7c-1.7-3.4-5-5.9-9.3-5.9c-6.1,0-11,5.9-11,13c0,7.1,4.9,13,11,13c4.3,0,7.7-2.6,9.3-6h7.7
			C236.5,133.3,230.2,138.2,221.9,138.2z"/>
		<path id="XMLID_70_" style="fill:#FFFFFF;" d="M243,97.4h7.2v28.5c0,3.9,1.8,5.3,5.3,5.1v6.5c-8.1,0.9-12.5-4-12.5-11.6V97.4z"/>
		<path id="XMLID_72_" style="fill:#FFFFFF;" d="M262.1,106.8v-4c0-2,1.6-3.6,3.6-3.6c1.9,0,3.6,1.6,3.6,3.6v4H262.1z M269.3,137.5
			h-7.1v-27.8h7.1V137.5z"/>
		<path id="XMLID_75_" style="fill:#FFFFFF;" d="M317.7,137.5h-7.1v-16.2c0-1.6-0.5-5.3-5.2-5.3c-3.1,0-5.4,2.2-5.4,5.3v16.2h-7.1
			v-16.2c0-1.6-0.5-5.3-5.2-5.3c-3.2,0-5.4,2.2-5.4,5.3v16.2h-7.1v-16.1c0-7.1,4.9-12.4,12.5-12.4c3.8,0,6.8,1.5,8.8,3.9
			c2.1-2.4,5.2-3.9,8.8-3.9c7.8,0,12.3,5.1,12.3,12.4V137.5z"/>
		<path id="XMLID_77_" style="fill:#FFFFFF;" d="M350.8,137.5h-6.7v-2.9c-2.1,2.3-5.1,3.5-8.5,3.5c-7.3,0-13.3-6.5-13.3-14.4
			c0-8,5.9-14.6,14.3-14.6c8.4,0,14.2,6.6,14.2,14.6V137.5z M336.6,115.8c-3.9,0-7.1,3.4-7.1,8c0,4.4,3.2,7.8,7.1,7.8
			s7.1-3.5,7.1-7.8C343.7,119.3,340.5,115.8,336.6,115.8z"/>
		<path id="XMLID_80_" style="fill:#FFFFFF;" d="M367.8,137.5c-8.1,0.9-12.5-4-12.5-11.6v-23.1h7.1v7.1h5v6.3h-5v9.8
			c0,3.9,1.8,5.3,5.3,5.1V137.5z"/>
		<path id="XMLID_82_" style="fill:#FFFFFF;" d="M399.4,128.7c-1.6,5.7-6.5,9.5-13.4,9.5c-7.9,0-14.2-6.5-14.2-14.5
			c0-8,6.4-14.6,14.2-14.6c6.7,0,12.3,4.2,13.6,11.6L380,129c1.4,1.9,3.5,3,5.9,3c2.3,0,4.7-1,5.9-3.2H399.4z M391.5,117.8
			c-1.3-1.6-3.2-2.5-5.5-2.5c-4.1,0-7.4,3.2-7.5,8L391.5,117.8z"/>
		<path id="XMLID_85_" style="fill:#FFFFFF;" d="M422.6,138.2c-10.2,0-18.1-8.6-18.1-19.5s7.9-19.5,18.1-19.5
			c8.5,0,14.7,4.8,17,12.5h-7.7c-1.7-3.4-5-5.9-9.3-5.9c-6.1,0-11,5.9-11,13c0,7.1,4.9,13,11,13c4.3,0,7.7-2.6,9.3-6h7.7
			C437.2,133.3,430.9,138.2,422.6,138.2z"/>
		<path id="XMLID_87_" style="fill:#FFFFFF;" d="M471.3,137.5h-6.7v-2.9c-2.1,2.3-5.1,3.5-8.5,3.5c-7.3,0-13.3-6.5-13.3-14.4
			c0-8,5.9-14.6,14.3-14.6c8.4,0,14.2,6.6,14.2,14.6V137.5z M457.1,115.8c-3.9,0-7.1,3.4-7.1,8c0,4.4,3.2,7.8,7.1,7.8
			s7.1-3.5,7.1-7.8C464.2,119.3,461,115.8,457.1,115.8z"/>
		<path id="XMLID_90_" style="fill:#FFFFFF;" d="M492,115.9c-4.5-0.8-7.5,1.6-7.5,5.6v16.1h-7.1v-16.1c0-7.9,5.4-13.4,14.7-12.2
			V115.9z"/>
		<path id="XMLID_92_" style="fill:#FFFFFF;" d="M521.9,128.7c-1.6,5.7-6.5,9.5-13.4,9.5c-7.9,0-14.2-6.5-14.2-14.5
			c0-8,6.4-14.6,14.2-14.6c6.7,0,12.3,4.2,13.6,11.6l-19.6,8.2c1.4,1.9,3.5,3,5.9,3c2.3,0,4.7-1,5.9-3.2H521.9z M513.9,117.8
			c-1.3-1.6-3.2-2.5-5.5-2.5c-4.1,0-7.4,3.2-7.5,8L513.9,117.8z"/>
	</g>
	<g id="XMLID_3_">
		<path id="XMLID_4_" style="fill:#FFFFFF;" d="M127.4,164.7v15.4h-3.6v-15.4h-5v-3.3h13.6v3.3H127.4z"/>
		<path id="XMLID_6_" style="fill:#FFFFFF;" d="M146.8,180.1h-3.6V172c0-0.8-0.3-2.6-2.6-2.6c-1.6,0-2.7,1.1-2.7,2.6v8.1h-3.6v-20
			h3.6v6.9c0.9-0.7,2-1.1,3.2-1.1c3.4,0,5.7,2.5,5.7,6.1V180.1z"/>
		<path id="XMLID_8_" style="fill:#FFFFFF;" d="M155,164.7h-3.6v-3.3h3.6V164.7z M155,180.1h-3.6v-13.9h3.6V180.1z"/>
		<path id="XMLID_11_" style="fill:#FFFFFF;" d="M170.7,180.1h-3.6V172c0-0.8-0.2-2.8-2.6-2.8c-1.6,0-2.7,1.2-2.7,2.8v8.1h-3.6
			v-13.9h3.4v1.3c0.9-1.1,2.1-1.7,3.6-1.7c3.3,0,5.4,2.5,5.4,6.1V180.1z"/>
		<path id="XMLID_13_" style="fill:#FFFFFF;" d="M177.2,176.1v4h-3.6v-20h3.6v11.2l4.6-5h4.9l-5.2,5.4l5.5,8.5h-4.5l-3.4-5.8
			L177.2,176.1z"/>
		<path id="XMLID_15_" style="fill:#FFFFFF;" d="M214.2,180.1h-3.3v-2c-1.2,1.5-3.2,2.3-5.6,2.3c-5.1,0-9.1-4.3-9.1-9.7
			c0-5.5,4-9.8,9.1-9.8c4.1,0,7.3,2.3,8.5,6.2H210c-0.7-1.6-2.5-3-4.7-3c-3.1,0-5.5,3-5.5,6.5c0,3.5,2.5,6.5,5.7,6.5
			c2.7,0,4.7-1.8,5.4-4.2h-5.1v-3.3h8.3V180.1z"/>
		<path id="XMLID_17_" style="fill:#FFFFFF;" d="M220.8,180.1h-3.6v-20h3.6V180.1z"/>
		<path id="XMLID_19_" style="fill:#FFFFFF;" d="M237.6,173.2c0,4.1-3.2,7.2-7,7.2s-7-3.1-7-7.2c0-4.2,3.1-7.3,7-7.3
			S237.6,169,237.6,173.2z M234,173.2c0-2.4-1.5-4.1-3.4-4.1s-3.4,1.7-3.4,4.1c0,2.3,1.5,4,3.4,4S234,175.5,234,173.2z"/>
		<path id="XMLID_22_" style="fill:#FFFFFF;" d="M247.8,180.4c-1.7,0-3.2-0.6-4.2-1.8v1.5h-3.4v-20h3.6v7.5c1.1-1,2.5-1.6,4.1-1.6
			c3.6,0,6.6,3.1,6.6,7.3C254.4,177.2,251.4,180.4,247.8,180.4z M247.3,169.2c-2,0-3.6,1.8-3.6,4c0,2.2,1.6,3.9,3.6,3.9
			s3.6-1.7,3.6-3.9C250.8,170.9,249.2,169.2,247.3,169.2z"/>
		<path id="XMLID_25_" style="fill:#FFFFFF;" d="M265.9,178.8c-0.9,1-2.3,1.6-4.3,1.6c-2.9,0-5.6-1.5-5.6-4.5c0-3.1,2.6-3.9,5.7-4.2
			c2.3-0.2,4-0.5,4-1.6c0-0.7-0.9-1.3-2.5-1.3c-1.3,0-2.7,0.6-3,1.8h-3.6c0.4-2.6,2.9-4.6,6.5-4.6c5.6,0,6.1,3.6,6.1,4.7v7.2
			c0,0.7,0.2,1.7,0.4,2.3h-3.3C266.1,179.7,266,179.3,265.9,178.8z M265.8,173.4c-0.8,0.5-1.9,0.7-3.4,0.9c-1.8,0.2-2.8,0.6-2.8,1.6
			c0,0.8,0.9,1.3,2.3,1.3c2.1,0,3.9-0.7,3.9-2.5V173.4z"/>
		<path id="XMLID_28_" style="fill:#FFFFFF;" d="M276.8,180.1h-3.6v-20h3.6V180.1z"/>
		<path id="XMLID_30_" style="fill:#FFFFFF;" d="M292,176.3l-1.3,3.7h-3.8l6.5-18.7h4.5l6.5,18.7h-3.8l-1.3-3.7H292z M295.7,165.3
			l-2.6,7.7h5.2L295.7,165.3z"/>
		<path id="XMLID_33_" style="fill:#FFFFFF;" d="M312.7,180.4c-4.2,0-7.2-3.2-7.2-7.2c0-4,3-7.3,7.2-7.3c3.3,0,5.9,1.9,6.7,5h-3.8
			c-0.5-0.9-1.6-1.8-2.9-1.8c-2,0-3.6,1.8-3.6,4.1c0,2.2,1.6,4,3.6,4c1.3,0,2.5-0.8,2.9-1.8h3.8
			C318.6,178.5,316.1,180.4,312.7,180.4z"/>
		<path id="XMLID_35_" style="fill:#FFFFFF;" d="M328.3,180.1c-4.1,0.4-6.2-2-6.2-5.8v-4.9h-1.7v-3.2h1.7v-3.5h3.6v3.5h2.5v3.2h-2.5
			v4.9c0,1.9,0.9,2.7,2.7,2.6V180.1z"/>
		<path id="XMLID_37_" style="fill:#FFFFFF;" d="M342.3,176.8h9.3v3.3h-12.9v-18.7h3.6V176.8z"/>
		<path id="XMLID_39_" style="fill:#FFFFFF;" d="M366.8,173.2c0,4.1-3.2,7.2-7,7.2s-7-3.1-7-7.2c0-4.2,3.1-7.3,7-7.3
			S366.8,169,366.8,173.2z M363.2,173.2c0-2.4-1.5-4.1-3.4-4.1c-1.9,0-3.4,1.7-3.4,4.1c0,2.3,1.5,4,3.4,4
			C361.7,177.1,363.2,175.5,363.2,173.2z"/>
		<path id="XMLID_42_" style="fill:#FFFFFF;" d="M375.6,180.4c-4.2,0-7.2-3.2-7.2-7.2c0-4,3-7.3,7.2-7.3c3.3,0,5.9,1.9,6.7,5h-3.8
			c-0.5-0.9-1.6-1.8-2.9-1.8c-2,0-3.6,1.8-3.6,4.1c0,2.2,1.6,4,3.6,4c1.3,0,2.5-0.8,2.9-1.8h3.8C381.5,178.5,379,180.4,375.6,180.4z
			"/>
		<path id="XMLID_44_" style="fill:#FFFFFF;" d="M393.7,178.8c-0.9,1-2.3,1.6-4.3,1.6c-2.9,0-5.6-1.5-5.6-4.5c0-3.1,2.6-3.9,5.7-4.2
			c2.3-0.2,4-0.5,4-1.6c0-0.7-0.9-1.3-2.5-1.3c-1.3,0-2.7,0.6-3,1.8h-3.6c0.3-2.6,2.9-4.6,6.5-4.6c5.6,0,6.1,3.6,6.1,4.7v7.2
			c0,0.7,0.2,1.7,0.4,2.3h-3.3C393.9,179.7,393.8,179.3,393.7,178.8z M393.6,173.4c-0.8,0.5-1.9,0.7-3.4,0.9
			c-1.8,0.2-2.8,0.6-2.8,1.6c0,0.8,0.9,1.3,2.3,1.3c2.1,0,3.9-0.7,3.9-2.5V173.4z"/>
		<path id="XMLID_47_" style="fill:#FFFFFF;" d="M404,180.1h-3.6v-20h3.6V180.1z"/>
	</g>
	<g>
		<path id="XMLID_145_" style="fill:#FFFFFF;" d="M438.2,75.1c-0.3-0.4-8-10.4-20.7-20.4c-1.6-1.3-3.3-2.5-5-3.7
			C396.8,39.8,380.4,34,364.6,34c-5.9,0-12.7,1-20.2,2.8c-8.6-5.8-28.4-17.9-43.1-17.9c-11.9,0-26,5.7-36,10.7
			C233.7,12.6,209.3,4,192.6,4C181,4,167.9,9.2,155,16.8c-33.8,19.9-66.6,56.3-68.5,58.4l-3.6,4H98l0.6-0.6
			c8.4-8.9,28.9-29.7,50.8-45.1c14.9-10.5,30.4-18.5,43.2-18.5c14.2,0,35.7,7.6,64,22.6c2.5,1.3,5.1,2.7,7.6,4.1
			c9,5,18.3,10.5,27.8,16.4c-12.4,6.5-23.1,13-30.1,17.4l-5.6,3.5h21.4l0.4-0.3c8.8-5.2,17.5-10,25.8-14.1c2.6-1.3,5.2-2.6,7.7-3.7
			c11.7-5.5,22.4-9.7,31.7-12.4c2.5-0.7,4.9-1.3,7.3-1.8c5.2-1.1,10-1.7,14.1-1.7c19.8,0,37,10.6,48.8,20.6
			c5.7,4.8,10.2,9.5,13.1,12.8l0.6,0.6h14.2L438.2,75.1z M303.7,52.4c-6.3-4.1-15.6-9.9-26.2-16c7.3-3.1,16.5-6.3,23.9-6.3
			c6.7,0,16.9,3.9,28.9,11C322.1,44,313.1,47.8,303.7,52.4z"/>
	</g>
</g>
</svg>
