<?xml version="1.0" encoding="utf-8"?>
<!-- Generator: Adobe Illustrator 19.0.0, SVG Export Plug-In . SVG Version: 6.00 Build 0)  -->
<svg version="1.1" id="Layer_1" xmlns="http://www.w3.org/2000/svg" xmlns:xlink="http://www.w3.org/1999/xlink" x="0px" y="0px"
	 viewBox="0 0 47.2 47" style="enable-background:new 0 0 47.2 47;" xml:space="preserve">
<g id="XMLID_72_">
	<g id="XMLID_108_">
		<path id="XMLID_109_" style="fill:#FFFFFF;" d="M32.1,18.9c-2-1.1-3.6-1.8-4.8-1.8c-1.2,0-2.7,0.5-3.9,1c1.7,1,3.2,2,4.3,2.6
			C29.3,20,30.8,19.4,32.1,18.9z"/>
		<path id="XMLID_112_" style="fill:#FFFFFF;" d="M21.1,16.8c1.8-0.9,4.2-1.9,6.3-1.9c2.5,0,5.7,1.9,7.6,3.1
			c1.3-0.3,2.5-0.5,3.5-0.5c2.8,0,5.6,1,8.4,2.9C45.3,8.9,35.4,0,23.5,0C13.7,0,5.4,6,1.8,14.4c2.5-1.4,4.6-2.2,6.5-2.2
			C11.2,12.3,15.5,13.8,21.1,16.8z"/>
	</g>
	<path id="XMLID_90_" style="fill:#FFFFFF;" d="M47,23.4c-2-1.7-5.1-3.7-8.6-3.7c-0.7,0-1.5,0.1-2.4,0.3c-0.4,0.1-0.8,0.2-1.3,0.3
		c-1.6,0.5-3.5,1.2-5.5,2.2c-0.4,0.2-0.9,0.4-1.3,0.7c-1.4,0.7-3,1.6-4.5,2.5l-0.1,0.1H19l1.4-0.9c1.2-0.8,3-1.8,5.1-2.9
		c-1.6-1-3.2-1.9-4.7-2.8c-0.4-0.2-0.9-0.5-1.3-0.7c-4.9-2.6-8.7-3.9-11.2-3.9c-1.9,0-4.5,1.1-7.6,3.3C0.2,19.6,0,21.5,0,23.5
		C0,36.5,10.5,47,23.5,47S47,36.5,47,23.4C47,23.5,47,23.5,47,23.4z M15.7,38.5c-1.6,0-3.3-0.9-3.3-2.8H14c0,1,1,1.4,1.8,1.4
		c0.9,0,1.8-0.3,1.8-1.1c0-0.5-0.4-0.8-1.9-1.1c-1.5-0.3-3-0.7-3-2.5c0-1.4,1.2-2.3,3.1-2.3c2.1,0,3.1,1.4,3.1,2.6h-1.5
		c0-0.7-0.6-1.2-1.6-1.2c-0.8,0-1.6,0.3-1.6,0.9c0,0.6,0.5,0.8,1.8,1c1.9,0.4,3.1,0.9,3.1,2.5C19.1,37.5,17.8,38.5,15.7,38.5z
		 M23.8,37.1c0.9,0,1.6-0.6,2-1.3h1.6c-0.5,1.6-1.9,2.7-3.7,2.7c-2.2,0-3.9-1.8-3.9-4.2c0-2.4,1.7-4.2,3.9-4.2c1.8,0,3.2,1,3.7,2.7
		h-1.7c-0.4-0.7-1.1-1.3-2-1.3c-1.3,0-2.4,1.3-2.4,2.8C21.4,35.8,22.5,37.1,23.8,37.1z M32,37.1c0.9,0,1.6-0.6,2-1.3h1.6
		c-0.5,1.6-1.9,2.7-3.7,2.7c-2.2,0-3.9-1.8-3.9-4.2c0-2.4,1.7-4.2,3.9-4.2c1.8,0,3.2,1,3.7,2.7H34c-0.4-0.7-1.1-1.3-2-1.3
		c-1.3,0-2.4,1.3-2.4,2.8C29.7,35.8,30.7,37.1,32,37.1z"/>
</g>
</svg>
