<?xml version="1.0" encoding="utf-8"?>
<!-- Generator: Adobe Illustrator 19.0.0, SVG Export Plug-In . SVG Version: 6.00 Build 0)  -->
<svg version="1.1" xmlns="http://www.w3.org/2000/svg" xmlns:xlink="http://www.w3.org/1999/xlink" x="0px" y="0px"
	 viewBox="0 0 1678 223" style="enable-background:new 0 0 1678 223;" xml:space="preserve">
<g id="Layer_8_copy">
	<g>
		<path style="fill:#0B556D;" d="M367.3,49.1h-19.1c0-8.7-7.2-15.2-19.4-15.2c-10.1,0-19.5,3.9-19.5,11.6c0,6.9,6.8,9.4,22.1,12.6
			c23.8,4.8,38.8,10.7,38.8,31.2c0,19.4-16.2,31.5-41.4,31.5c-19.6,0-41-10.8-41-35h19.1c0,11.8,11.8,17.5,22,17.5
			c11,0,22.4-3.9,22.4-13.4c0-6.4-5.2-10.3-23.7-13.9c-18.5-3.6-37.3-9.1-37.3-30.6c0-17.2,15.2-29.2,38.6-29.2
			C355.3,16.2,367.3,33.2,367.3,49.1z"/>
		<path style="fill:#0B556D;" d="M416.9,118.9c-21.8,2.3-33.4-10.8-33.4-31.2v-62h19.1v18.9h13.4v16.9h-13.4v26.3
			c0,10.4,4.8,14.3,14.3,13.7V118.9z"/>
		<path style="fill:#0B556D;" d="M472.8,61.1c-12.1-2.2-20.2,4.3-20.2,14.9v43h-19.1V76c0-21.1,14.6-35.8,39.3-32.8V61.1z"/>
		<path style="fill:#0B556D;" d="M552.1,95.4c-4.3,15.2-17.5,25.4-36,25.4c-21.1,0-38.1-17.3-38.1-38.9s17-39.1,38.1-39.1
			c17.9,0,32.9,11.3,36.5,31.2l-52.6,22.1c3.8,5.1,9.4,7.9,15.9,7.9c6.2,0,12.6-2.7,15.7-8.7H552.1z M530.7,66.2
			c-3.5-4.2-8.7-6.6-14.7-6.6c-11,0-19.8,8.7-20.2,21.4L530.7,66.2z"/>
		<path style="fill:#0B556D;" d="M597.6,118.9c-21.8,2.3-33.4-10.8-33.4-31.2v-62h19.1v18.9h13.4v16.9h-13.4v26.3
			c0,10.4,4.8,14.3,14.3,13.7V118.9z"/>
		<path style="fill:#0B556D;" d="M642.8,118.9c-21.8,2.3-33.4-10.8-33.4-31.2v-62h19.1v18.9h13.4v16.9h-13.4v26.3
			c0,10.4,4.8,14.3,14.3,13.7V118.9z"/>
		<path style="fill:#0B556D;" d="M727.7,81.9c0,22.2-16.9,38.9-37.6,38.9c-20.7,0-37.4-16.6-37.4-38.9s16.8-39.1,37.4-39.1
			C710.8,42.8,727.7,59.7,727.7,81.9z M708.5,82.1c0-12.9-8.2-21.8-18.3-21.8c-10.1,0-18.3,9-18.3,21.8c0,12.6,8.2,21.2,18.3,21.2
			C700.3,103.3,708.5,94.6,708.5,82.1z"/>
		<path style="fill:#0B556D;" d="M773.6,42.8c20.8,0,33.1,13.7,33.1,33.2v43h-19.1V75.6c0-4.2-1.4-14.2-14-14.2
			c-8.4,0-14.4,5.8-14.4,14.2V119h-19.1V76C740.1,57.1,753.4,42.8,773.6,42.8z"/>
		<path style="fill:#088031;" d="M871.7,120.8c-27.3,0-48.5-23-48.5-52.3s21.2-52.3,48.5-52.3c22.7,0,39.4,12.9,45.6,33.4h-20.7
			c-4.5-9.1-13.4-15.9-25-15.9c-16.5,0-29.5,15.9-29.5,34.8c0,19.1,13,35,29.5,35c11.4,0,20.5-7.1,25-16.2h20.5
			C910.8,107.6,893.9,120.8,871.7,120.8z"/>
		<path style="fill:#088031;" d="M928.2,11.6h19.2v76.3c0,10.5,4.8,14.3,14.2,13.7v17.3c-21.8,2.3-33.4-10.7-33.4-31.1V11.6z"/>
		<path style="fill:#088031;" d="M979.3,36.6V25.9c0-5.3,4.3-9.5,9.7-9.5c5.2,0,9.5,4.2,9.5,9.5v10.7H979.3z M998.5,119h-19.1V44.7
			h19.1V119z"/>
		<path style="fill:#088031;" d="M1128.2,119h-19.1V75.6c0-4.2-1.4-14.2-14-14.2c-8.4,0-14.4,5.8-14.4,14.2V119h-19.1V75.6
			c0-4.2-1.3-14.2-13.9-14.2c-8.5,0-14.4,5.8-14.4,14.2V119h-19.1V76c0-18.9,13.1-33.2,33.5-33.2c10.1,0,18.3,4,23.7,10.5
			c5.6-6.5,14-10.5,23.7-10.5c20.8,0,33.1,13.7,33.1,33.2V119z"/>
		<path style="fill:#088031;" d="M1217,119h-18.1v-7.8c-5.6,6.2-13.7,9.4-22.7,9.4c-19.6,0-35.7-17.3-35.7-38.7
			c0-21.5,15.7-39.1,38.3-39.1c22.4,0,38.1,17.6,38.1,39.1V119z M1178.9,60.7c-10.5,0-19.1,9.1-19.1,21.4c0,11.8,8.5,20.9,19.1,20.9
			s19.1-9.4,19.1-20.9C1197.9,70.2,1189.4,60.7,1178.9,60.7z"/>
		<path style="fill:#088031;" d="M1262.5,118.9c-21.8,2.3-33.4-10.8-33.4-31.2v-62h19.1v18.9h13.4v16.9h-13.4v26.3
			c0,10.4,4.8,14.3,14.3,13.7V118.9z"/>
		<path style="fill:#088031;" d="M1347.3,95.4c-4.3,15.2-17.5,25.4-36,25.4c-21.1,0-38.1-17.3-38.1-38.9s17-39.1,38.1-39.1
			c17.9,0,32.9,11.3,36.5,31.2l-52.6,22.1c3.8,5.1,9.4,7.9,15.9,7.9c6.2,0,12.6-2.7,15.7-8.7H1347.3z M1325.9,66.2
			c-3.5-4.2-8.7-6.6-14.7-6.6c-11,0-19.8,8.7-20.2,21.4L1325.9,66.2z"/>
		<path style="fill:#0B556D;" d="M1409.4,120.8c-27.3,0-48.5-23-48.5-52.3s21.2-52.3,48.5-52.3c22.7,0,39.4,12.9,45.6,33.4h-20.7
			c-4.5-9.1-13.4-15.9-25-15.9c-16.5,0-29.5,15.9-29.5,34.8c0,19.1,13,35,29.5,35c11.4,0,20.5-7.1,25-16.2h20.5
			C1448.5,107.6,1431.6,120.8,1409.4,120.8z"/>
		<path style="fill:#0B556D;" d="M1539.8,119h-18.1v-7.8c-5.6,6.2-13.7,9.4-22.7,9.4c-19.6,0-35.7-17.3-35.7-38.7
			c0-21.5,15.7-39.1,38.3-39.1c22.4,0,38.1,17.6,38.1,39.1V119z M1501.6,60.7c-10.5,0-19.1,9.1-19.1,21.4c0,11.8,8.5,20.9,19.1,20.9
			s19.1-9.4,19.1-20.9C1520.7,70.2,1512.2,60.7,1501.6,60.7z"/>
		<path style="fill:#0B556D;" d="M1595.2,61.1C1583.1,59,1575,65.5,1575,76v43h-19.1V76c0-21.1,14.6-35.8,39.3-32.8V61.1z"/>
		<path style="fill:#0B556D;" d="M1675.2,95.4c-4.3,15.2-17.5,25.4-36,25.4c-21.1,0-38.1-17.3-38.1-38.9s17-39.1,38.1-39.1
			c17.9,0,32.9,11.3,36.5,31.2l-52.6,22.1c3.8,5.1,9.4,7.9,15.9,7.9c6.2,0,12.6-2.7,15.7-8.7H1675.2z M1653.9,66.2
			c-3.5-4.2-8.7-6.6-14.7-6.6c-11,0-19.8,8.7-20.2,21.4L1653.9,66.2z"/>
	</g>
	<g>
		<path style="fill:#088031;" d="M312.1,167.8V209h-9.5v-41.2h-13.4v-8.9h36.4v8.9H312.1z"/>
		<path style="fill:#088031;" d="M364.3,209h-9.5v-21.7c0-2.2-0.7-7.1-6.9-7.1c-4.3,0-7.2,2.9-7.2,7.1V209H331v-53.7h9.6v18.5
			c2.4-1.8,5.3-2.9,8.5-2.9c9.1,0,15.2,6.6,15.2,16.4V209z"/>
		<path style="fill:#088031;" d="M386.1,167.8h-9.5v-8.9h9.5V167.8z M386.1,209h-9.5v-37.2h9.5V209z"/>
		<path style="fill:#088031;" d="M428.2,209h-9.5v-21.7c0-2.2-0.7-7.4-6.9-7.4c-4.3,0-7.2,3.2-7.2,7.4V209h-9.5v-37.2h9.1v3.6
			c2.4-2.8,5.6-4.5,9.6-4.5c8.7,0,14.5,6.6,14.5,16.4V209z"/>
		<path style="fill:#088031;" d="M445.8,198.3V209h-9.5v-53.7h9.5v30l12.2-13.5h13.1l-13.9,14.5l14.7,22.7h-12.1l-9.2-15.7
			L445.8,198.3z"/>
		<path style="fill:#088031;" d="M544.8,209H536v-5.4c-3.3,4-8.7,6.3-14.9,6.3c-13.6,0-24.3-11.4-24.3-26.1
			c0-14.7,10.7-26.1,24.3-26.1c11.1,0,19.6,6.3,22.7,16.7h-10.3c-1.9-4.4-6.7-8-12.5-8c-8.3,0-14.8,7.9-14.8,17.5
			c0,9.5,6.7,17.4,15.2,17.4c7.1,0,12.7-4.9,14.5-11.2h-13.6v-8.9h22.3V209z"/>
		<path style="fill:#088031;" d="M562.5,209H553v-53.7h9.5V209z"/>
		<path style="fill:#088031;" d="M607.4,190.4c0,11.1-8.4,19.4-18.8,19.4s-18.7-8.3-18.7-19.4s8.4-19.6,18.7-19.6
			S607.4,179.3,607.4,190.4z M597.8,190.5c0-6.4-4.1-10.9-9.2-10.9s-9.2,4.5-9.2,10.9c0,6.3,4.1,10.6,9.2,10.6
			S597.8,196.8,597.8,190.5z"/>
		<path style="fill:#088031;" d="M634.7,209.8c-4.5,0-8.4-1.7-11.3-4.8v4h-9.2v-53.7h9.6v20.1c2.8-2.7,6.6-4.3,10.9-4.3
			c9.7,0,17.7,8.4,17.7,19.4C652.4,201.4,644.5,209.8,634.7,209.8z M633.4,179.8c-5.3,0-9.5,4.8-9.5,10.7c0,5.8,4.3,10.5,9.5,10.5
			c5.3,0,9.5-4.5,9.5-10.5C642.9,184.5,638.6,179.8,633.4,179.8z"/>
		<path style="fill:#088031;" d="M683.3,205.5c-2.5,2.6-6.2,4.2-11.4,4.2c-7.9,0-15.1-4-15.1-12.1c0-8.4,7-10.5,15.2-11.3
			c6.2-0.6,10.6-1.3,10.6-4.3c0-1.9-2.5-3.5-6.8-3.5c-3.4,0-7.3,1.5-8.2,4.7h-9.5c0.9-7.1,7.7-12.3,17.5-12.3
			c15.1,0,16.2,9.7,16.2,12.7v19.4c0,1.8,0.6,4.6,1.1,6.1h-8.7C683.8,208.1,683.6,206.9,683.3,205.5z M683,191.1
			c-2,1.3-5.1,1.9-9,2.4c-4.7,0.5-7.6,1.5-7.6,4.3c0,2.1,2.5,3.5,6.3,3.5c5.7,0,10.3-2,10.3-6.7V191.1z"/>
		<path style="fill:#088031;" d="M712.5,209H703v-53.7h9.5V209z"/>
		<path style="fill:#088031;" d="M753.2,199l-3.4,10h-10.1l17.5-50.1h12.1l17.5,50.1h-10.1l-3.4-10H753.2z M763.1,169.5l-7,20.6h14
			L763.1,169.5z"/>
		<path style="fill:#088031;" d="M808.8,209.9c-11.2,0-19.2-8.7-19.2-19.4s8-19.6,19.2-19.6c9,0,15.7,5.1,17.9,13.4h-10.2
			c-1.3-2.5-4.3-4.7-7.7-4.7c-5.3,0-9.5,4.9-9.5,10.9c0,5.8,4.3,10.7,9.5,10.7c3.5,0,6.6-2.2,7.8-4.8h10.2
			C824.6,204.9,817.8,209.9,808.8,209.9z"/>
		<path style="fill:#088031;" d="M850.4,208.9c-10.9,1.2-16.7-5.4-16.7-15.6v-13.1h-4.5v-8.4h4.5v-9.5h9.5v9.5h6.7v8.4h-6.7v13.1
			c0,5.2,2.4,7.1,7.1,6.9V208.9z"/>
		<path style="fill:#088031;" d="M887.9,200.1h24.9v8.9h-34.5v-50.1h9.6V200.1z"/>
		<path style="fill:#088031;" d="M953.7,190.4c0,11.1-8.4,19.4-18.8,19.4s-18.7-8.3-18.7-19.4s8.4-19.6,18.7-19.6
			S953.7,179.3,953.7,190.4z M944.1,190.5c0-6.4-4.1-10.9-9.2-10.9s-9.2,4.5-9.2,10.9c0,6.3,4.1,10.6,9.2,10.6
			S944.1,196.8,944.1,190.5z"/>
		<path style="fill:#088031;" d="M977.2,209.9c-11.2,0-19.2-8.7-19.2-19.4s8-19.6,19.2-19.6c9,0,15.7,5.1,17.9,13.4h-10.2
			c-1.3-2.5-4.3-4.7-7.7-4.7c-5.3,0-9.5,4.9-9.5,10.9c0,5.8,4.3,10.7,9.5,10.7c3.5,0,6.6-2.2,7.8-4.8h10.2
			C993,204.9,986.2,209.9,977.2,209.9z"/>
		<path style="fill:#088031;" d="M1025.8,205.5c-2.5,2.6-6.2,4.2-11.4,4.2c-7.9,0-15.1-4-15.1-12.1c0-8.4,7-10.5,15.2-11.3
			c6.2-0.6,10.6-1.3,10.6-4.3c0-1.9-2.5-3.5-6.8-3.5c-3.4,0-7.3,1.5-8.2,4.7h-9.5c0.9-7.1,7.7-12.3,17.5-12.3
			c15.1,0,16.2,9.7,16.2,12.7v19.4c0,1.8,0.6,4.6,1.1,6.1h-8.7C1026.3,208.1,1026,206.9,1025.8,205.5z M1025.5,191.1
			c-2,1.3-5.1,1.9-9,2.4c-4.7,0.5-7.6,1.5-7.6,4.3c0,2.1,2.5,3.5,6.3,3.5c5.7,0,10.3-2,10.3-6.7V191.1z"/>
		<path style="fill:#088031;" d="M1053.2,209h-9.5v-53.7h9.5V209z"/>
	</g>
	<g id="ICON_copy">
		<g>
			<rect x="1" y="1" style="fill:#088031;" width="222" height="222"/>
		</g>
		<g id="Guides_copy">
		</g>
	</g>
</g>
<g id="Layer_1">
	<g id="Hill_Paths_copy_3">
	</g>
	<g id="ICON_copy_2">
		<g id="Guides_copy_2">
		</g>
	</g>
	<g>
		<path style="fill:none;" d="M114.7,102.4c6.3,3.2,12.5,6.5,18.2,9.5c8-3.6,16.4-6.9,23.8-8.9c-6.4-3.9-14-7.5-20-7.5
			C130.7,95.6,122.5,98.7,114.7,102.4z"/>
		<path style="fill:#FFFFFF;" d="M136.6,90.6c-7.7,0-18.3,4.3-27.5,9.1c-17.4-8.5-35.3-15.8-46.9-15.8c-29.4,0-47.2,45.8-47.9,47.8
			c-0.7,1.8,0.2,3.8,2,4.5c0.4,0.2,0.8,0.2,1.2,0.2c1.4,0,2.7-0.9,3.3-2.3c0.2-0.4,16.8-43.3,41.4-43.3c9.3,0,24.3,5.9,39.3,13
			c1.8,0.9,3.7,1.8,5.5,2.7c6.2,3.1,12.3,6.2,17.9,9.2c2.6-1.2,5.2-2.5,8-3.7c-5.6-3-11.8-6.3-18.2-9.5c7.8-3.8,16-6.9,21.9-6.9
			c6,0,13.6,3.6,20,7.5c2.4-0.7,4.7-1.2,6.9-1.6C155.8,96.3,145.2,90.6,136.6,90.6z"/>
		<path style="fill:#FFFFFF;" d="M210,130.3c-0.8-1.2-20.6-29.4-40.7-29.4c-1.8,0-3.7,0.2-5.8,0.5c-2.2,0.4-4.5,0.9-6.9,1.6
			c-7.4,2-15.7,5.3-23.8,8.9c-2.7,1.2-5.4,2.5-8,3.7c-13.9,6.7-25.3,13.2-26.3,13.8c-2.2,1.2-2.9,4-1.6,6.1c0.8,1.4,2.3,2.2,3.9,2.2
			c0.8,0,1.5-0.2,2.3-0.6c6.5-3.8,18.9-10.5,31.7-16.3c2.7-1.2,5.5-2.4,8.2-3.6c9.1-3.8,17.8-6.7,24-7.3c0.8-0.1,1.7-0.1,2.4-0.1
			c1.1,0,2.3,0.2,3.5,0.4c12,2.8,25.3,18.6,29.8,25.1c1.4,2,4.2,2.6,6.3,1.1C210.9,135.1,211.4,132.3,210,130.3z"/>
	</g>
</g>
</svg>
