<?xml version="1.0" encoding="utf-8"?>
<!-- Generator: Adobe Illustrator 19.0.0, SVG Export Plug-In . SVG Version: 6.00 Build 0)  -->
<svg version="1.1" id="Layer_1" xmlns="http://www.w3.org/2000/svg" xmlns:xlink="http://www.w3.org/1999/xlink" x="0px" y="0px"
	 viewBox="26 97.9 647 647" style="enable-background:new 26 97.9 647 647;" xml:space="preserve">
<g id="ICON">
	<g>
		<path style="fill:#088031;" d="M358.4,362.7c18.3,9.3,36,18.7,52.3,27.4c23-10.3,46.8-19.7,68-25.6
			c-18.6-11.2-40.2-21.3-57.5-21.3C404.2,343.2,380.8,352,358.4,362.7z"/>
		<g>
			<path style="fill:#088031;" d="M397.6,396.2c-3.7,1.7-7.3,3.4-10.8,5.1C390.4,399.6,394,397.9,397.6,396.2z"/>
			<path style="fill:#FFFFFF;" d="M27.2,99.1v644.6h644.6V99.1H27.2z M83.9,454.9c-1.6,4.2-5.6,6.8-9.8,6.8c-1.2,0-2.5-0.2-3.7-0.7
				c-5.4-2.1-8.2-8.2-6.1-13.6c2.2-5.7,54.1-139.5,140-139.5c33.7,0,85.8,21.3,136.2,45.9c27.1-13.9,58-26.6,80.7-26.6
				c25.6,0,57,17.3,79.5,32.3c-6.9,1.1-14.2,2.8-22,5c-18.6-11.2-40.2-21.3-57.5-21.3c-17.1,0-40.5,8.8-62.8,19.6
				c18.3,9.2,36,18.7,52.3,27.4c23-10.2,46.8-19.7,68-25.6c7.8-2.2,15.2-3.9,22-5c5.7-0.9,11.1-1.4,15.9-1.4
				c25.2,0,53,14.7,82.6,43.7c21,20.6,35.2,40.9,35.8,41.8c4.1,5.9,2.7,14-3.2,18.1c-5.9,4.1-14,2.6-18.1-3.3
				c-13.1-18.8-51.9-65-86.9-73.1c-3.4-0.8-6.8-1.2-10.2-1.2c-2.5,0-5.3,0.2-8.2,0.5c-17.9,2.1-42.6,10.5-68.4,21.2
				c-8.1,3.4-16.3,7-24.5,10.7c-37.1,17-73.1,36.4-91.9,47.3c-2.1,1.2-4.3,1.8-6.5,1.8c-4.5,0-8.9-2.3-11.3-6.5
				c-3.6-6.3-1.5-14.2,4.7-17.8c2.8-1.6,35.8-20.7,76.3-40.1c-16.1-8.6-33.6-17.7-51.5-26.5c-5.9-2.9-11.7-5.7-17.6-8.5
				c-43.4-20.5-86.5-37.3-113.4-37.3C132.7,329,84.4,453.6,83.9,454.9z"/>
		</g>
	</g>
</g>
</svg>
