<?xml version="1.0" encoding="utf-8"?>
<!-- Generator: Adobe Illustrator 19.0.0, SVG Export Plug-In . SVG Version: 6.00 Build 0)  -->
<svg version="1.1" id="Layer_1" xmlns="http://www.w3.org/2000/svg" xmlns:xlink="http://www.w3.org/1999/xlink" x="0px" y="0px"
	 viewBox="0 0 289.3 88.9" style="enable-background:new 0 0 289.3 88.9;" xml:space="preserve">
<path style="fill:#FFFFFF;" d="M30.4,78.3c0,0.3,0,0.5,0,0.8c7.9,6.2,14.3,9.7,14.4,9.7l0.2,0.1l0.2-0.1c0.1,0,3.7-2.1,8.9-5.7
	c0.6-1.5,0.9-3.1,0.9-4.8c0-7-5.5-12.7-12.3-12.7C35.9,65.7,30.4,71.3,30.4,78.3 M211.4,61.7v16.6c0,2.1,1.1,3.5,2.9,3.5
	c1.8,0,2.9-1.4,2.9-3.5V61.7c0-2.1-1.2-3.5-2.9-3.5C212.5,58.2,211.4,59.6,211.4,61.7 M253.5,63.3c2.8,0,4.5,1.8,4.8,4.7h-9.6
	C249,65,250.8,63.3,253.5,63.3 M242.6,70c0,6.9,4.5,12,11.3,12c4.5,0,9.8-2.6,9.8-5.3c0-1.3-1.2-2.7-2.5-2.7c-1.6,0-3.7,2.5-6.8,2.5
	c-2.8,0-5.3-1.4-5.7-4.4h12.9c1.8,0,2.6-1,2.6-2.9c0-5.2-4.3-11.4-10.9-11.4C247.1,58,242.6,63.7,242.6,70 M149.8,70
	c0-3,1.5-6.3,4.8-6.3c3.2,0,4.6,3.4,4.6,6.3c0,3-1.5,6.3-4.6,6.3C151.3,76.3,149.8,73,149.8,70 M143.8,70c0,7,4.3,12,10,12
	c2.3,0,4.2-1,5.8-2.9c0.4,1.6,1.2,2.6,2.9,2.6c2.9,0,3-2.5,3-4.1V62.3c0-1.6-0.1-4.1-3-4.1c-1.5,0-2.8,1.1-3,2.6
	c-1.3-1.9-3.5-2.8-5.7-2.8C148.2,58,143.8,63.2,143.8,70 M167.8,70c0,6.5,4.3,12,10.8,12c2.2,0,7.4-1.1,7.4-4.3
	c0-1.5-1.2-2.7-2.6-2.7c-0.7,0-3,1.3-4.5,1.3c-3.3,0-5.1-3.2-5.1-6.3c0-3.2,1.6-6.3,5.1-6.3c1.9,0,3.3,1.2,4.8,1.2
	c1.4,0,2.3-1.7,2.3-3c0-3-5-3.9-7.4-3.9C172.2,58,167.8,63.7,167.8,70 M226.4,60.5c-0.2-1.4-1.2-2.3-2.8-2.3c-1.8,0-3,1.4-3,3.5
	v16.6c0,2.1,1.1,3.5,2.9,3.5c1.8,0,2.9-1.4,2.9-3.5V67.4c0-2.4,1.6-4.3,4-4.3c2.2,0,4.1,1.4,4.1,4.3v10.8c0,2.1,1.1,3.5,2.9,3.5
	s2.9-1.4,2.9-3.5V66.4c0-5.3-3.5-8.4-8.2-8.4C229.4,58,227.6,58.8,226.4,60.5 M265.8,57.2c-0.3,0-0.5,0.3-0.5,0.6
	c0,0.2,0.1,0.6,0.5,0.6h0.8v3.4c0,0.4,0.3,0.6,0.6,0.6c0.3,0,0.6-0.2,0.6-0.6v-3.4h0.6c0.3,0,0.5-0.4,0.5-0.6c0-0.3-0.2-0.6-0.5-0.6
	H265.8z M269.6,57.7l-0.7,4c0,0,0,0.1,0,0.1c0,0.3,0.2,0.5,0.5,0.5c0.4,0,0.5-0.1,0.5-0.5l0.4-2.9h0l0.8,3c0,0.2,0.2,0.4,0.6,0.4
	c0.4,0,0.5-0.2,0.6-0.4l0.8-3h0l0.4,2.9c0,0.3,0.2,0.5,0.5,0.5c0.3,0,0.5-0.2,0.5-0.5c0,0,0-0.1,0-0.1l-0.6-4c0-0.3-0.3-0.5-0.7-0.5
	c-0.4,0-0.6,0.3-0.7,0.6l-0.8,3h0l-0.8-3c-0.1-0.3-0.3-0.7-0.7-0.7C269.9,57.2,269.7,57.5,269.6,57.7 M47.4,51.2L45,56.4
	c0,0.1,0,0.1-0.1,0.2c-2.6-0.3-5.2-0.1-7.6,0.6c0-0.1,0-0.1-0.1-0.2l-3-4.8c-0.3-0.4-0.8-0.6-1.2-0.3l-1.7,0.9
	c-0.4,0.2-0.8,0.4-0.8,0.4c0,0-0.4,0.2-0.8,0.4L28,54.4c-0.4,0.2-0.6,0.8-0.5,1.2l1.9,5.4c0,0.1,0.1,0.1,0.1,0.2
	c-2,1.6-3.7,3.6-5,5.9c-0.1,0-0.1,0-0.2-0.1l-5.4-1.2c-0.5-0.1-1,0.2-1.1,0.7l-0.3,1c1.4,1.4,2.8,2.9,4.4,4.3c1.7,1.6,3.4,3.1,5,4.4
	c0.1-1.1,0.4-2.2,0.7-3.3c2.8-8.5,11.8-13.2,20-10.3c7.3,2.5,11.6,9.9,10.7,17.5c1.7-1.3,3.4-2.7,5.2-4.2c-0.1-1.1-0.3-2.2-0.6-3.3
	c0,0,0.1,0,0.1-0.1l4.6-3.1c0.4-0.3,0.5-0.8,0.3-1.3l-0.8-1.7c-0.2-0.4-0.4-0.8-0.4-0.8c0,0-0.2-0.4-0.4-0.8L65.6,63
	c-0.2-0.4-0.7-0.7-1.2-0.5l-5.2,1.9c-0.1,0-0.1,0-0.1,0.1c-1.6-2-3.5-3.8-5.7-5.1c0-0.1,0-0.1,0-0.2l1.1-5.6c0.1-0.5-0.2-1-0.6-1.1
	L52,51.9c-0.4-0.2-0.8-0.3-0.9-0.3c0,0-0.4-0.1-0.9-0.3l-1.8-0.6c-0.1,0-0.2,0-0.3,0C47.9,50.6,47.5,50.8,47.4,51.2 M129.7,53.5
	l-4.9,17h-0.1l-4.9-17c-0.5-1.6-2.1-3-4.2-3c-2.2,0-3.9,1.8-4.1,3.3l-3.9,24.1c0,0.3,0,0.5,0,0.7c0,1.9,1.3,3.1,3,3.1
	c2.1,0,3-1.1,3.3-3.1l2.5-17.7h0.1l5,18.2c0.3,1,1.1,2.6,3.4,2.6s3.1-1.5,3.4-2.6l5-18.2h0.1l2.5,17.7c0.3,2,1.1,3.2,3.3,3.2
	c1.7,0,3-1.2,3-3.1c0-0.2,0-0.5,0-0.7L138,53.8c-0.3-1.6-1.9-3.4-4.1-3.4C131.8,50.4,130.1,51.9,129.7,53.5 M210.9,52.3
	c0,1.9,1.6,3.6,3.4,3.6c1.9,0,3.4-1.6,3.4-3.6c0-1.8-1.6-3.4-3.4-3.4C212.5,48.9,210.9,50.6,210.9,52.3 M188.1,51.7v26.6
	c0,2.1,1.1,3.5,2.9,3.5c1.8,0,2.9-1.4,2.9-3.5V67.4c0-2.4,1.6-4.3,4-4.3c2.2,0,4.1,1.4,4.1,4.3v10.8c0,2.1,1.2,3.5,2.9,3.5
	c1.8,0,2.9-1.4,2.9-3.5V66.4c0-5.3-3.5-8.3-8.2-8.3c-1.9,0-4.2,0.4-5.5,2.2h-0.3v-8.6c0-2.1-1.1-3.5-2.9-3.5
	C189.3,48.2,188.1,49.6,188.1,51.7 M8.3,46.8l-2.8,3c0,0-0.1,0.1-0.1,0.1c-0.5-0.3-1.1-0.5-1.6-0.7c0.5,1,1,1.9,1.6,2.9
	c2.6,4.4,5.9,8.7,9.8,13l3-0.8c0.3-0.1,0.6-0.4,0.5-0.8l-0.2-1.4c0-0.3-0.1-0.6-0.1-0.7c0,0,0-0.3-0.1-0.7l-0.2-1.4
	c0-0.3-0.4-0.6-0.7-0.6l-4,0.1c0,0-0.1,0-0.1,0c-0.6-1.8-1.6-3.5-2.8-4.9c0,0,0-0.1,0.1-0.1l2-3.6c0.1-0.2,0.1-0.5,0-0.7
	c0-0.1-0.1-0.2-0.2-0.2l-1.1-0.9c-0.3-0.2-0.5-0.4-0.5-0.4c0,0-0.2-0.2-0.5-0.4l-1.1-0.9c-0.1-0.1-0.3-0.1-0.4-0.1
	C8.7,46.6,8.5,46.7,8.3,46.8 M62.9,40.7c0,5.1,4,9.2,8.9,9.2c4.9,0,8.9-4.1,8.9-9.2c0-5.1-4-9.2-8.9-9.2
	C66.8,31.5,62.9,35.6,62.9,40.7 M207.9,20.9v16.6c0,2.1,1.1,3.5,2.9,3.5c1.8,0,2.9-1.4,2.9-3.5V20.9c0-2.1-1.2-3.5-2.9-3.5
	C209,17.5,207.9,18.8,207.9,20.9 M215.5,20.5c0,0.6,0.1,1,0.4,1.8l6.1,16.1c0.6,1.6,1.2,2.6,3.3,2.6c2.1,0,2.7-1,3.3-2.6l6.1-16.1
	c0.3-0.8,0.4-1.2,0.4-1.8c0-2-1.5-3-3.1-3c-1.7,0-2.4,1.3-2.7,2.2l-3.9,12.3h-0.1l-3.9-12.3c-0.3-1-1-2.3-2.7-2.3
	C217,17.5,215.5,18.5,215.5,20.5 M237,20.9v16.6c0,2.1,1.2,3.5,2.9,3.5c1.8,0,2.9-1.4,2.9-3.5V20.9c0-2.1-1.2-3.5-2.9-3.5
	C238.1,17.5,237,18.8,237,20.9 M161.1,22.5c2.8,0,4.5,1.8,4.8,4.7h-9.6C156.6,24.3,158.4,22.5,161.1,22.5 M150.3,29.3
	c0,6.9,4.5,12,11.3,12c4.5,0,9.8-2.6,9.8-5.3c0-1.3-1.2-2.7-2.5-2.7c-1.6,0-3.7,2.5-6.8,2.5c-2.8,0-5.3-1.4-5.7-4.4h12.9
	c1.8,0,2.6-1,2.6-2.9c0-5.2-4.3-11.4-10.9-11.4C154.7,17.2,150.3,23,150.3,29.3 M251,19.8c-0.2-1.4-1.3-2.3-2.8-2.3
	c-1.8,0-3.1,1.4-3.1,3.5v16.6c0,2.1,1.4,3.5,3.2,3.5c1.8,0,3.2-1.4,3.2-3.5V26.7c0-2.4,1.3-4.3,3.7-4.3c2.2,0,3.8,1.4,3.8,4.3v10.8
	c0,2.1,1.1,3.5,2.9,3.5c1.8,0,2.9-1.4,2.9-3.5V25.6c0-5.3-3.4-8.4-8.2-8.4C253.9,17.2,252.2,18.1,251,19.8 M273.7,29.2
	c0-2.9,1.6-6.3,4.7-6.3c3.3,0,4.7,3.5,4.7,6.5s-1.5,6.1-4.7,6.1C275.3,35.5,273.7,32.5,273.7,29.2 M267.7,29.2
	c0,6.2,3,11.9,9.3,11.9c2.7,0,4.7-0.6,5.9-2.8v1.5c0,3.2-2.1,4.9-5,4.9c-3.5,0-5.5-1.9-7.4-1.9c-1.2,0-2.4,1.6-2.4,2.7
	c0,3.4,7.1,4.7,9.5,4.7c6.9,0,11.7-3.8,11.7-11.2v-18c0-2.1-1.3-3.5-3.1-3.5c-1.7,0-2.7,0.9-3.1,2.6c-1.1-1.9-3.5-2.9-5.5-2.9
	C271.6,17.2,267.7,23,267.7,29.2 M59,40.7c0-7.3,5.7-13.2,12.8-13.2c7.1,0,12.8,5.9,12.8,13.2c0,7.3-5.7,13.2-12.8,13.2
	C64.7,53.9,59,48,59,40.7 M71,16.7l-1.6,0.2C69,16.9,68.7,17,68.7,17c0,0-0.4,0.1-0.8,0.1l-1.6,0.2c-0.4,0.1-0.7,0.4-0.7,0.9
	l0.1,4.9c0,0,0,0.1,0,0.1c-2.1,0.8-3.9,1.9-5.5,3.4c0,0-0.1-0.1-0.1-0.1L56,24c-0.3-0.2-0.8-0.1-1.1,0.2l-1,1.3
	c-0.2,0.3-0.5,0.6-0.5,0.6c0,0-0.2,0.3-0.5,0.6l-1,1.3c-0.2,0.3-0.2,0.8,0.1,1.1l3.4,3.4c0,0,0.1,0.1,0.1,0.1
	c-0.9,2-1.5,4.2-1.6,6.5c0,0-0.1,0-0.1,0l-4.6,1.2c-0.4,0.1-0.7,0.5-0.6,0.9l0.2,1.6c0.1,0.4,0.1,0.8,0.1,0.8c0,0,0.1,0.4,0.1,0.8
	l0.2,1.6c0.1,0.4,0.4,0.7,0.8,0.7l4.7-0.1c0,0,0.1,0,0.1,0c0.8,2.2,1.9,4.1,3.3,5.8c0,0,0,0.1-0.1,0.1l-2.4,4.2
	c-0.1,0.2-0.1,0.5,0,0.8c0.1,0.1,0.1,0.3,0.3,0.4l1.3,1c0.3,0.2,0.6,0.5,0.6,0.5c0,0,0.3,0.2,0.6,0.5l1.3,1c0.3,0.2,0.8,0.2,1.1-0.1
	l3.3-3.5c0,0,0.1-0.1,0.1-0.1c1.9,0.9,4.1,1.5,6.3,1.7c0,0,0,0.1,0,0.1l1.2,4.7c0.1,0.4,0.5,0.7,0.9,0.6l1.6-0.2
	c0.4-0.1,0.7-0.1,0.8-0.1c0,0,0.2,0,0.5-0.1c0.9-1,1.7-2,2.5-3l-0.1-2.9c0,0,0-0.1,0-0.1c1.4-0.5,2.6-1.2,3.8-2
	c0.8-1.1,1.5-2.2,2.1-3.4c3.6-6.1,5.9-12.3,6.8-18.4l-1.9,0c0,0-0.1,0-0.1,0c-0.8-2.2-1.9-4.1-3.3-5.8c0,0,0-0.1,0.1-0.1l2.4-4.2
	c0.1-0.3,0.1-0.6,0-0.9c-0.1-0.1-0.1-0.2-0.2-0.3l-1.3-1c-0.3-0.2-0.6-0.5-0.6-0.5c0,0-0.3-0.2-0.6-0.5l-1.3-1
	c-0.3-0.2-0.8-0.2-1.1,0.1l-3.3,3.5c0,0-0.1,0.1-0.1,0.1c-1.9-0.9-4.1-1.5-6.3-1.7c0,0,0-0.1,0-0.1l-1.2-4.7
	c-0.1-0.4-0.4-0.6-0.8-0.6C71.1,16.7,71.1,16.7,71,16.7 M108.8,9.9c-1.8,0-2.9,1.5-2.9,3c0,1.5,0.8,3,2.9,3h4.8v21.7
	c0,2.2,1.1,3.4,2.9,3.4c1.8,0,2.9-1.2,2.9-3.4V15.9h4.8c2,0,2.8-1.5,2.8-3c0-1.5-1-3-2.8-3H108.8z M177.5,25.3
	c0,8.9,5.9,15.9,14.4,15.9c8.4,0,13.7-6.3,13.7-14.6c0-2.8-1-4.1-3.7-4.1h-7.1c-1.6,0-2.9,1.1-2.9,3c0,1.8,1.2,3,2.9,3h4.3
	c0,4.8-3.8,6.8-7.1,6.8c-5.3,0-7.9-4.7-7.9-9.9c0-5.2,2.6-9.9,7.9-9.9c5.5,0,6.1,3.2,8.9,3.2c1.5,0,2.6-1.2,2.6-3
	c0-3-5.2-6.1-11.5-6.1C183.3,9.4,177.5,16.3,177.5,25.3 M207.5,11.6c0,1.9,1.6,3.6,3.4,3.6c1.9,0,3.4-1.6,3.4-3.6
	c0-1.8-1.6-3.4-3.4-3.4C209.1,8.1,207.5,9.8,207.5,11.6 M236.6,11.6c0,1.9,1.6,3.6,3.4,3.6c1.9,0,3.4-1.6,3.4-3.6
	c0-1.8-1.6-3.4-3.4-3.4C238.2,8.1,236.6,9.8,236.6,11.6 M128.2,10.9v26.6c0,2.1,1.4,3.5,3.2,3.5c1.8,0,3.2-1.4,3.2-3.5V26.7
	c0-2.4,1.3-4.3,3.7-4.3c2.2,0,3.8,1.4,3.8,4.3v10.8c0,2.1,1.2,3.5,2.9,3.5c1.8,0,2.9-1.4,2.9-3.5V25.6c0-5.3-3.4-8.3-8.2-8.3
	c-1.8,0-3.9,0.4-5.2,2v-8.3c0-2.1-1.4-3.5-3.2-3.5C129.6,7.5,128.2,8.8,128.2,10.9 M82.7,10.4c0,0-0.1,0-0.1,0.1l-3,2.7
	c-0.3,0.2-0.3,0.7-0.1,0.9l0.8,1.2c0.2,0.3,0.4,0.5,0.4,0.6c0,0,0.2,0.3,0.4,0.6l0.8,1.2c0.2,0.3,0.6,0.4,0.9,0.2l3.6-1.9
	c0,0,0.1,0,0.1-0.1c1.1,1.1,2.3,2,3.6,2.7c-1.7-4.6-4.5-8.6-8-11.8C81.9,8,82.3,9.2,82.7,10.4 M24.2,36.9c-4.5-0.9-7.4-5.4-6.5-10.1
	c0.9-4.6,5.3-7.6,9.8-6.7c4.5,0.9,7.4,5.4,6.5,10.1c-0.8,4.1-4.3,6.9-8.1,6.9C25.3,37.1,24.7,37,24.2,36.9 M27.2,2.6l-1.6,5.2
	c0,0.1,0,0.1,0,0.2c-2.5,0-4.9,0.5-7.1,1.5c0,0-0.1-0.1-0.1-0.1l-3.4-4.1c-0.3-0.4-0.8-0.4-1.2-0.2l-1.5,1c-0.4,0.3-0.7,0.5-0.7,0.5
	c0,0-0.3,0.2-0.7,0.5L9.3,8C8.9,8.2,8.8,8.8,9,9.2l2.4,4.9c0,0.1,0.1,0.1,0.1,0.2c-1.7,1.8-3,3.8-4,6.2c-0.1,0-0.1,0-0.2,0L2,19.9
	c-0.4,0-0.9,0.3-1,0.8l-0.4,1.8c-0.1,0.4-0.2,0.8-0.2,0.9c0,0-0.1,0.4-0.2,0.9L0,26c-0.1,0.4,0.2,0.9,0.6,1.1l5,1.7
	c0.1,0,0.1,0,0.2,0c0,2.5,0.5,5,1.4,7.3c-0.1,0-0.1,0.1-0.1,0.1l-4,3.5c-0.3,0.3-0.4,0.9-0.2,1.2l1,1.5c0.2,0.4,0.5,0.7,0.5,0.7
	c0,0,0.2,0.4,0.5,0.7l1,1.5C6.1,45.9,6.6,46,7,45.8l4.7-2.5c0.1,0,0.1-0.1,0.1-0.1c1.7,1.7,3.8,3.2,6,4.2c0,0,0,0.1,0,0.2L17.4,53
	c0,0.5,0.3,0.9,0.7,1l1.8,0.4c0.4,0.1,0.8,0.2,0.8,0.2c0,0,0.4,0.1,0.8,0.2l1.8,0.4c0.4,0.1,0.9-0.2,1-0.6l1.6-5.2
	c0-0.1,0-0.1,0-0.2c2.5,0,4.8-0.5,7.1-1.4c0,0,0,0.1,0.1,0.1l3.4,4.1c0.3,0.4,0.8,0.4,1.2,0.2l1.5-1c0.4-0.3,0.7-0.5,0.7-0.5
	c0,0,0.3-0.2,0.7-0.5l1.5-1c0.4-0.3,0.5-0.8,0.3-1.2l-2.4-4.9c0,0,0-0.1-0.1-0.1c1.7-1.8,3.1-3.9,4.1-6.2c0,0,0.1,0,0.1,0l5.3,0.4
	c0.4,0,0.9-0.3,1-0.8l0.4-1.8c0.1-0.5,0.2-0.8,0.2-0.9c0,0,0.1-0.4,0.2-0.9l0.4-1.8c0.1-0.5-0.2-0.9-0.6-1.1l-5-1.7c0,0-0.1,0-0.1,0
	c0-2.6-0.5-5.1-1.4-7.4c0,0,0.1,0,0.1-0.1l4-3.5c0.3-0.3,0.4-0.9,0.2-1.2l-1-1.5c-0.2-0.4-0.5-0.7-0.5-0.7c0,0-0.2-0.4-0.5-0.7
	l-1-1.5c-0.2-0.4-0.8-0.5-1.2-0.3l-4.7,2.5c0,0-0.1,0.1-0.1,0.1c-1.7-1.7-3.7-3.1-6-4.1c0-0.1,0-0.1,0-0.2l0.4-5.4
	c0-0.5-0.3-0.9-0.7-1l-1.8-0.4c-0.4-0.1-0.8-0.2-0.8-0.2c0,0-0.4-0.1-0.8-0.2L28.3,2c-0.1,0-0.1,0-0.2,0C27.7,2,27.4,2.2,27.2,2.6
	 M62.9,9.9c-0.2,0-0.5,0-0.7,0c-4.3-0.4-7.8-3.8-8.4-8c-1.4,0.6-2.8,1.2-4.1,2C50,5,50.4,6.1,50.9,7.1c0,0-0.1,0.1-0.1,0.1l-2.5,2.7
	c-0.2,0.2-0.2,0.6,0,0.9l0.8,1c0.2,0.2,0.4,0.4,0.4,0.5c0,0,0.2,0.2,0.4,0.5l0.8,1c0.2,0.2,0.6,0.3,0.8,0.1l3-2.1c0,0,0.1,0,0.1-0.1
	c1.3,1,2.8,1.8,4.4,2.3c0,0,0,0.1,0,0.1l0.1,3.7c0,0.3,0.3,0.6,0.6,0.6l1.2,0.1c0.3,0,0.6,0,0.6,0c0,0,0.3,0,0.6,0l1.2,0.1
	c0.3,0,0.6-0.2,0.7-0.5l0.7-3.7c0,0,0-0.1,0-0.1c1.7-0.2,3.2-0.8,4.7-1.6c0,0,0,0.1,0.1,0.1l2.7,2.5c0.2,0.2,0.6,0.2,0.8,0l0.9-0.8
	c0.2-0.2,0.4-0.4,0.4-0.4c0,0,0.2-0.2,0.4-0.4l0.9-0.8c0.2-0.2,0.3-0.6,0.1-0.8l-2-3.1c0,0,0,0-0.1-0.1c1-1.3,1.8-2.9,2.3-4.6
	c0,0,0.1,0,0.1,0l2-0.1c-1.9-1.2-3.9-2.2-6.1-2.9C71.6,6.2,67.6,9.9,62.9,9.9 M55.4,1.3c0.4,3.6,3.3,6.5,6.9,6.8c0.2,0,0.4,0,0.6,0
	c3.9,0,7.2-3.1,7.5-7.2c0,0,0-0.1,0-0.1C68.3,0.3,66,0,63.6,0C60.8,0,58.1,0.4,55.4,1.3"/>
</svg>
