<?xml version="1.0" encoding="utf-8"?>
<!-- Generator: Adobe Illustrator 19.0.0, SVG Export Plug-In . SVG Version: 6.00 Build 0)  -->
<svg version="1.1" id="Layer_1" xmlns="http://www.w3.org/2000/svg" xmlns:xlink="http://www.w3.org/1999/xlink" x="0px" y="0px"
	 viewBox="-152 377 289.3 88.9" style="enable-background:new -152 377 289.3 88.9;" xml:space="preserve">
<path style="fill:#474B4C;" d="M-121.6,455.3c0,0.3,0,0.5,0,0.8c7.9,6.2,14.3,9.7,14.4,9.7l0.2,0.1l0.2-0.1c0.1,0,3.7-2.1,8.9-5.7
	c0.6-1.5,0.9-3.1,0.9-4.8c0-7-5.5-12.7-12.3-12.7C-116.1,442.7-121.6,448.3-121.6,455.3 M59.4,438.7v16.6c0,2.1,1.1,3.5,2.9,3.5
	c1.8,0,2.9-1.4,2.9-3.5v-16.6c0-2.1-1.2-3.5-2.9-3.5C60.5,435.2,59.4,436.6,59.4,438.7 M101.5,440.3c2.8,0,4.5,1.8,4.8,4.7h-9.6
	C97,442,98.8,440.3,101.5,440.3 M90.6,447c0,6.9,4.5,12,11.3,12c4.5,0,9.8-2.6,9.8-5.3c0-1.3-1.2-2.7-2.5-2.7
	c-1.6,0-3.7,2.5-6.8,2.5c-2.8,0-5.3-1.4-5.7-4.4h12.9c1.8,0,2.6-1,2.6-2.9c0-5.2-4.3-11.4-10.9-11.4C95.1,435,90.6,440.7,90.6,447
	 M-2.2,447c0-3,1.5-6.3,4.8-6.3c3.2,0,4.6,3.4,4.6,6.3c0,3-1.5,6.3-4.6,6.3C-0.7,453.3-2.2,450-2.2,447 M-8.2,447c0,7,4.3,12,10,12
	c2.3,0,4.2-1,5.8-2.9c0.4,1.6,1.2,2.6,2.9,2.6c2.9,0,3-2.5,3-4.1v-15.3c0-1.6-0.1-4.1-3-4.1c-1.5,0-2.8,1.1-3,2.6
	C6.2,435.9,4,435,1.8,435C-3.8,435-8.2,440.2-8.2,447 M15.8,447c0,6.5,4.3,12,10.8,12c2.2,0,7.4-1.1,7.4-4.3c0-1.5-1.2-2.7-2.6-2.7
	c-0.7,0-3,1.3-4.5,1.3c-3.3,0-5.1-3.2-5.1-6.3c0-3.2,1.6-6.3,5.1-6.3c1.9,0,3.3,1.2,4.8,1.2c1.4,0,2.3-1.7,2.3-3c0-3-5-3.9-7.4-3.9
	C20.2,435,15.8,440.7,15.8,447 M74.4,437.5c-0.2-1.4-1.2-2.3-2.8-2.3c-1.8,0-3,1.4-3,3.5v16.6c0,2.1,1.1,3.5,2.9,3.5
	c1.8,0,2.9-1.4,2.9-3.5v-10.9c0-2.4,1.6-4.3,4-4.3c2.2,0,4.1,1.4,4.1,4.3v10.8c0,2.1,1.1,3.5,2.9,3.5s2.9-1.4,2.9-3.5v-11.8
	c0-5.3-3.5-8.4-8.2-8.4C77.4,435,75.6,435.8,74.4,437.5 M113.8,434.2c-0.3,0-0.5,0.3-0.5,0.6c0,0.2,0.1,0.6,0.5,0.6h0.8v3.4
	c0,0.4,0.3,0.6,0.6,0.6c0.3,0,0.6-0.2,0.6-0.6v-3.4h0.6c0.3,0,0.5-0.4,0.5-0.6c0-0.3-0.2-0.6-0.5-0.6H113.8z M117.6,434.7l-0.7,4
	v0.1c0,0.3,0.2,0.5,0.5,0.5c0.4,0,0.5-0.1,0.5-0.5l0.4-2.9l0,0l0.8,3c0,0.2,0.2,0.4,0.6,0.4s0.5-0.2,0.6-0.4l0.8-3l0,0l0.4,2.9
	c0,0.3,0.2,0.5,0.5,0.5s0.5-0.2,0.5-0.5v-0.1l-0.6-4c0-0.3-0.3-0.5-0.7-0.5c-0.4,0-0.6,0.3-0.7,0.6l-0.8,3l0,0l-0.8-3
	c-0.1-0.3-0.3-0.7-0.7-0.7C117.9,434.2,117.7,434.5,117.6,434.7 M-104.6,428.2l-2.4,5.2c0,0.1,0,0.1-0.1,0.2
	c-2.6-0.3-5.2-0.1-7.6,0.6c0-0.1,0-0.1-0.1-0.2l-3-4.8c-0.3-0.4-0.8-0.6-1.2-0.3l-1.7,0.9c-0.4,0.2-0.8,0.4-0.8,0.4
	s-0.4,0.2-0.8,0.4l-1.7,0.8c-0.4,0.2-0.6,0.8-0.5,1.2l1.9,5.4c0,0.1,0.1,0.1,0.1,0.2c-2,1.6-3.7,3.6-5,5.9c-0.1,0-0.1,0-0.2-0.1
	l-5.4-1.2c-0.5-0.1-1,0.2-1.1,0.7l-0.3,1c1.4,1.4,2.8,2.9,4.4,4.3c1.7,1.6,3.4,3.1,5,4.4c0.1-1.1,0.4-2.2,0.7-3.3
	c2.8-8.5,11.8-13.2,20-10.3c7.3,2.5,11.6,9.9,10.7,17.5c1.7-1.3,3.4-2.7,5.2-4.2c-0.1-1.1-0.3-2.2-0.6-3.3c0,0,0.1,0,0.1-0.1
	l4.6-3.1c0.4-0.3,0.5-0.8,0.3-1.3l-0.8-1.7c-0.2-0.4-0.4-0.8-0.4-0.8s-0.2-0.4-0.4-0.8l-0.7-1.8c-0.2-0.4-0.7-0.7-1.2-0.5l-5.2,1.9
	c-0.1,0-0.1,0-0.1,0.1c-1.6-2-3.5-3.8-5.7-5.1c0-0.1,0-0.1,0-0.2l1.1-5.6c0.1-0.5-0.2-1-0.6-1.1l-1.9-0.6c-0.4-0.2-0.8-0.3-0.9-0.3
	c0,0-0.4-0.1-0.9-0.3l-1.8-0.6c-0.1,0-0.2,0-0.3,0C-104.1,427.6-104.5,427.8-104.6,428.2 M-22.3,430.5l-4.9,17h-0.1l-4.9-17
	c-0.5-1.6-2.1-3-4.2-3c-2.2,0-3.9,1.8-4.1,3.3l-3.9,24.1c0,0.3,0,0.5,0,0.7c0,1.9,1.3,3.1,3,3.1c2.1,0,3-1.1,3.3-3.1l2.5-17.7h0.1
	l5,18.2c0.3,1,1.1,2.6,3.4,2.6s3.1-1.5,3.4-2.6l5-18.2h0.1l2.5,17.7c0.3,2,1.1,3.2,3.3,3.2c1.7,0,3-1.2,3-3.1c0-0.2,0-0.5,0-0.7
	l-4.2-24.2c-0.3-1.6-1.9-3.4-4.1-3.4C-20.2,427.4-21.9,428.9-22.3,430.5 M58.9,429.3c0,1.9,1.6,3.6,3.4,3.6c1.9,0,3.4-1.6,3.4-3.6
	c0-1.8-1.6-3.4-3.4-3.4S58.9,427.6,58.9,429.3 M36.1,428.7v26.6c0,2.1,1.1,3.5,2.9,3.5c1.8,0,2.9-1.4,2.9-3.5v-10.9
	c0-2.4,1.6-4.3,4-4.3c2.2,0,4.1,1.4,4.1,4.3v10.8c0,2.1,1.2,3.5,2.9,3.5c1.8,0,2.9-1.4,2.9-3.5v-11.8c0-5.3-3.5-8.3-8.2-8.3
	c-1.9,0-4.2,0.4-5.5,2.2h-0.3v-8.6c0-2.1-1.1-3.5-2.9-3.5C37.3,425.2,36.1,426.6,36.1,428.7 M-143.7,423.8l-2.8,3l-0.1,0.1
	c-0.5-0.3-1.1-0.5-1.6-0.7c0.5,1,1,1.9,1.6,2.9c2.6,4.4,5.9,8.7,9.8,13l3-0.8c0.3-0.1,0.6-0.4,0.5-0.8l-0.2-1.4
	c0-0.3-0.1-0.6-0.1-0.7c0,0,0-0.3-0.1-0.7l-0.2-1.4c0-0.3-0.4-0.6-0.7-0.6l-4,0.1h-0.1c-0.6-1.8-1.6-3.5-2.8-4.9c0,0,0-0.1,0.1-0.1
	l2-3.6c0.1-0.2,0.1-0.5,0-0.7c0-0.1-0.1-0.2-0.2-0.2l-1.1-0.9c-0.3-0.2-0.5-0.4-0.5-0.4s-0.2-0.2-0.5-0.4l-1.1-0.9
	c-0.1-0.1-0.3-0.1-0.4-0.1C-143.3,423.6-143.5,423.7-143.7,423.8 M-89.1,417.7c0,5.1,4,9.2,8.9,9.2s8.9-4.1,8.9-9.2s-4-9.2-8.9-9.2
	C-85.2,408.5-89.1,412.6-89.1,417.7 M55.9,397.9v16.6c0,2.1,1.1,3.5,2.9,3.5c1.8,0,2.9-1.4,2.9-3.5v-16.6c0-2.1-1.2-3.5-2.9-3.5
	C57,394.5,55.9,395.8,55.9,397.9 M63.5,397.5c0,0.6,0.1,1,0.4,1.8l6.1,16.1c0.6,1.6,1.2,2.6,3.3,2.6s2.7-1,3.3-2.6l6.1-16.1
	c0.3-0.8,0.4-1.2,0.4-1.8c0-2-1.5-3-3.1-3c-1.7,0-2.4,1.3-2.7,2.2L73.4,409h-0.1l-3.9-12.3c-0.3-1-1-2.3-2.7-2.3
	C65,394.5,63.5,395.5,63.5,397.5 M85,397.9v16.6c0,2.1,1.2,3.5,2.9,3.5c1.8,0,2.9-1.4,2.9-3.5v-16.6c0-2.1-1.2-3.5-2.9-3.5
	C86.1,394.5,85,395.8,85,397.9 M9.1,399.5c2.8,0,4.5,1.8,4.8,4.7H4.3C4.6,401.3,6.4,399.5,9.1,399.5 M-1.7,406.3
	c0,6.9,4.5,12,11.3,12c4.5,0,9.8-2.6,9.8-5.3c0-1.3-1.2-2.7-2.5-2.7c-1.6,0-3.7,2.5-6.8,2.5c-2.8,0-5.3-1.4-5.7-4.4h12.9
	c1.8,0,2.6-1,2.6-2.9c0-5.2-4.3-11.4-10.9-11.4C2.7,394.2-1.7,400-1.7,406.3 M99,396.8c-0.2-1.4-1.3-2.3-2.8-2.3
	c-1.8,0-3.1,1.4-3.1,3.5v16.6c0,2.1,1.4,3.5,3.2,3.5s3.2-1.4,3.2-3.5v-10.9c0-2.4,1.3-4.3,3.7-4.3c2.2,0,3.8,1.4,3.8,4.3v10.8
	c0,2.1,1.1,3.5,2.9,3.5s2.9-1.4,2.9-3.5v-11.9c0-5.3-3.4-8.4-8.2-8.4C101.9,394.2,100.2,395.1,99,396.8 M121.7,406.2
	c0-2.9,1.6-6.3,4.7-6.3c3.3,0,4.7,3.5,4.7,6.5s-1.5,6.1-4.7,6.1C123.3,412.5,121.7,409.5,121.7,406.2 M115.7,406.2
	c0,6.2,3,11.9,9.3,11.9c2.7,0,4.7-0.6,5.9-2.8v1.5c0,3.2-2.1,4.9-5,4.9c-3.5,0-5.5-1.9-7.4-1.9c-1.2,0-2.4,1.6-2.4,2.7
	c0,3.4,7.1,4.7,9.5,4.7c6.9,0,11.7-3.8,11.7-11.2v-18c0-2.1-1.3-3.5-3.1-3.5c-1.7,0-2.7,0.9-3.1,2.6c-1.1-1.9-3.5-2.9-5.5-2.9
	C119.6,394.2,115.7,400,115.7,406.2 M-93,417.7c0-7.3,5.7-13.2,12.8-13.2c7.1,0,12.8,5.9,12.8,13.2c0,7.3-5.7,13.2-12.8,13.2
	S-93,425-93,417.7 M-81,393.7l-1.6,0.2c-0.4,0-0.7,0.1-0.7,0.1s-0.4,0.1-0.8,0.1l-1.6,0.2c-0.4,0.1-0.7,0.4-0.7,0.9l0.1,4.9v0.1
	c-2.1,0.8-3.9,1.9-5.5,3.4l-0.1-0.1L-96,401c-0.3-0.2-0.8-0.1-1.1,0.2l-1,1.3c-0.2,0.3-0.5,0.6-0.5,0.6s-0.2,0.3-0.5,0.6l-1,1.3
	c-0.2,0.3-0.2,0.8,0.1,1.1l3.4,3.4l0.1,0.1c-0.9,2-1.5,4.2-1.6,6.5h-0.1l-4.6,1.2c-0.4,0.1-0.7,0.5-0.6,0.9l0.2,1.6
	c0.1,0.4,0.1,0.8,0.1,0.8s0.1,0.4,0.1,0.8l0.2,1.6c0.1,0.4,0.4,0.7,0.8,0.7l4.7-0.1h0.1c0.8,2.2,1.9,4.1,3.3,5.8c0,0,0,0.1-0.1,0.1
	l-2.4,4.2c-0.1,0.2-0.1,0.5,0,0.8c0.1,0.1,0.1,0.3,0.3,0.4l1.3,1c0.3,0.2,0.6,0.5,0.6,0.5s0.3,0.2,0.6,0.5l1.3,1
	c0.3,0.2,0.8,0.2,1.1-0.1l3.3-3.5l0.1-0.1c1.9,0.9,4.1,1.5,6.3,1.7v0.1l1.2,4.7c0.1,0.4,0.5,0.7,0.9,0.6l1.6-0.2
	c0.4-0.1,0.7-0.1,0.8-0.1c0,0,0.2,0,0.5-0.1c0.9-1,1.7-2,2.5-3l-0.1-2.9v-0.1c1.4-0.5,2.6-1.2,3.8-2c0.8-1.1,1.5-2.2,2.1-3.4
	c3.6-6.1,5.9-12.3,6.8-18.4h-1.9h-0.1c-0.8-2.2-1.9-4.1-3.3-5.8c0,0,0-0.1,0.1-0.1l2.4-4.2c0.1-0.3,0.1-0.6,0-0.9
	c-0.1-0.1-0.1-0.2-0.2-0.3l-1.3-1c-0.3-0.2-0.6-0.5-0.6-0.5s-0.3-0.2-0.6-0.5l-1.3-1c-0.3-0.2-0.8-0.2-1.1,0.1l-3.3,3.5l-0.1,0.1
	c-1.9-0.9-4.1-1.5-6.3-1.7v-0.1l-1.2-4.7c-0.1-0.4-0.4-0.6-0.8-0.6C-80.9,393.7-80.9,393.7-81,393.7 M-43.2,386.9
	c-1.8,0-2.9,1.5-2.9,3s0.8,3,2.9,3h4.8v21.7c0,2.2,1.1,3.4,2.9,3.4s2.9-1.2,2.9-3.4v-21.7h4.8c2,0,2.8-1.5,2.8-3s-1-3-2.8-3H-43.2z
	 M25.5,402.3c0,8.9,5.9,15.9,14.4,15.9c8.4,0,13.7-6.3,13.7-14.6c0-2.8-1-4.1-3.7-4.1h-7.1c-1.6,0-2.9,1.1-2.9,3c0,1.8,1.2,3,2.9,3
	h4.3c0,4.8-3.8,6.8-7.1,6.8c-5.3,0-7.9-4.7-7.9-9.9c0-5.2,2.6-9.9,7.9-9.9c5.5,0,6.1,3.2,8.9,3.2c1.5,0,2.6-1.2,2.6-3
	c0-3-5.2-6.1-11.5-6.1C31.3,386.4,25.5,393.3,25.5,402.3 M55.5,388.6c0,1.9,1.6,3.6,3.4,3.6c1.9,0,3.4-1.6,3.4-3.6
	c0-1.8-1.6-3.4-3.4-3.4C57.1,385.1,55.5,386.8,55.5,388.6 M84.6,388.6c0,1.9,1.6,3.6,3.4,3.6c1.9,0,3.4-1.6,3.4-3.6
	c0-1.8-1.6-3.4-3.4-3.4C86.2,385.1,84.6,386.8,84.6,388.6 M-23.8,387.9v26.6c0,2.1,1.4,3.5,3.2,3.5s3.2-1.4,3.2-3.5v-10.8
	c0-2.4,1.3-4.3,3.7-4.3c2.2,0,3.8,1.4,3.8,4.3v10.8c0,2.1,1.2,3.5,2.9,3.5c1.8,0,2.9-1.4,2.9-3.5v-11.9c0-5.3-3.4-8.3-8.2-8.3
	c-1.8,0-3.9,0.4-5.2,2V388c0-2.1-1.4-3.5-3.2-3.5C-22.4,384.5-23.8,385.8-23.8,387.9 M-69.3,387.4c0,0-0.1,0-0.1,0.1l-3,2.7
	c-0.3,0.2-0.3,0.7-0.1,0.9l0.8,1.2c0.2,0.3,0.4,0.5,0.4,0.6c0,0,0.2,0.3,0.4,0.6l0.8,1.2c0.2,0.3,0.6,0.4,0.9,0.2l3.6-1.9
	c0,0,0.1,0,0.1-0.1c1.1,1.1,2.3,2,3.6,2.7c-1.7-4.6-4.5-8.6-8-11.8C-70.1,385-69.7,386.2-69.3,387.4 M-127.8,413.9
	c-4.5-0.9-7.4-5.4-6.5-10.1c0.9-4.6,5.3-7.6,9.8-6.7c4.5,0.9,7.4,5.4,6.5,10.1c-0.8,4.1-4.3,6.9-8.1,6.9
	C-126.7,414.1-127.3,414-127.8,413.9 M-124.8,379.6l-1.6,5.2c0,0.1,0,0.1,0,0.2c-2.5,0-4.9,0.5-7.1,1.5l-0.1-0.1l-3.4-4.1
	c-0.3-0.4-0.8-0.4-1.2-0.2l-1.5,1c-0.4,0.3-0.7,0.5-0.7,0.5s-0.3,0.2-0.7,0.5l-1.6,0.9c-0.4,0.2-0.5,0.8-0.3,1.2l2.4,4.9
	c0,0.1,0.1,0.1,0.1,0.2c-1.7,1.8-3,3.8-4,6.2c-0.1,0-0.1,0-0.2,0l-5.3-0.6c-0.4,0-0.9,0.3-1,0.8l-0.4,1.8c-0.1,0.4-0.2,0.8-0.2,0.9
	c0,0-0.1,0.4-0.2,0.9l-0.2,1.7c-0.1,0.4,0.2,0.9,0.6,1.1l5,1.7c0.1,0,0.1,0,0.2,0c0,2.5,0.5,5,1.4,7.3c-0.1,0-0.1,0.1-0.1,0.1
	l-4,3.5c-0.3,0.3-0.4,0.9-0.2,1.2l1,1.5c0.2,0.4,0.5,0.7,0.5,0.7s0.2,0.4,0.5,0.7l1,1.5c0.2,0.6,0.7,0.7,1.1,0.5l4.7-2.5
	c0.1,0,0.1-0.1,0.1-0.1c1.7,1.7,3.8,3.2,6,4.2c0,0,0,0.1,0,0.2l-0.4,5.4c0,0.5,0.3,0.9,0.7,1l1.8,0.4c0.4,0.1,0.8,0.2,0.8,0.2
	s0.4,0.1,0.8,0.2l1.8,0.4c0.4,0.1,0.9-0.2,1-0.6l1.6-5.2c0-0.1,0-0.1,0-0.2c2.5,0,4.8-0.5,7.1-1.4c0,0,0,0.1,0.1,0.1l3.4,4.1
	c0.3,0.4,0.8,0.4,1.2,0.2l1.5-1c0.4-0.3,0.7-0.5,0.7-0.5s0.3-0.2,0.7-0.5l1.5-1c0.4-0.3,0.5-0.8,0.3-1.2l-2.4-4.9c0,0,0-0.1-0.1-0.1
	c1.7-1.8,3.1-3.9,4.1-6.2h0.1l5.3,0.4c0.4,0,0.9-0.3,1-0.8l0.4-1.8c0.1-0.5,0.2-0.8,0.2-0.9c0,0,0.1-0.4,0.2-0.9l0.4-1.8
	c0.1-0.5-0.2-0.9-0.6-1.1l-5-1.7h-0.1c0-2.6-0.5-5.1-1.4-7.4c0,0,0.1,0,0.1-0.1l4-3.5c0.3-0.3,0.4-0.9,0.2-1.2l-1-1.5
	c-0.2-0.4-0.5-0.7-0.5-0.7s-0.2-0.4-0.5-0.7l-1-1.5c-0.2-0.4-0.8-0.5-1.2-0.3l-4.7,2.5l-0.1,0.1c-1.7-1.7-3.7-3.1-6-4.1
	c0-0.1,0-0.1,0-0.2l0.4-5.4c0-0.5-0.3-0.9-0.7-1l-1.8-0.4c-0.4-0.1-0.8-0.2-0.8-0.2s-0.4-0.1-0.8-0.2l-1.8-0.4c-0.1,0-0.1,0-0.2,0
	C-124.3,379-124.6,379.2-124.8,379.6 M-89.1,386.9c-0.2,0-0.5,0-0.7,0c-4.3-0.4-7.8-3.8-8.4-8c-1.4,0.6-2.8,1.2-4.1,2
	c0.3,1.1,0.7,2.2,1.2,3.2l-0.1,0.1l-2.5,2.7c-0.2,0.2-0.2,0.6,0,0.9l0.8,1c0.2,0.2,0.4,0.4,0.4,0.5c0,0,0.2,0.2,0.4,0.5l0.8,1
	c0.2,0.2,0.6,0.3,0.8,0.1l3-2.1c0,0,0.1,0,0.1-0.1c1.3,1,2.8,1.8,4.4,2.3v0.1l0.1,3.7c0,0.3,0.3,0.6,0.6,0.6l1.2,0.1
	c0.3,0,0.6,0,0.6,0s0.3,0,0.6,0l1.2,0.1c0.3,0,0.6-0.2,0.7-0.5l0.7-3.7v-0.1c1.7-0.2,3.2-0.8,4.7-1.6c0,0,0,0.1,0.1,0.1l2.7,2.5
	c0.2,0.2,0.6,0.2,0.8,0l0.9-0.8c0.2-0.2,0.4-0.4,0.4-0.4s0.2-0.2,0.4-0.4l0.9-0.8c0.2-0.2,0.3-0.6,0.1-0.8l-2-3.1c0,0,0,0-0.1-0.1
	c1-1.3,1.8-2.9,2.3-4.6h0.1l2-0.1c-1.9-1.2-3.9-2.2-6.1-2.9C-80.4,383.2-84.4,386.9-89.1,386.9 M-96.6,378.3
	c0.4,3.6,3.3,6.5,6.9,6.8c0.2,0,0.4,0,0.6,0c3.9,0,7.2-3.1,7.5-7.2v-0.1c-2.1-0.5-4.4-0.8-6.8-0.8C-91.2,377-93.9,377.4-96.6,378.3"
	/>
</svg>
