<?xml version="1.0" encoding="utf-8"?>
<!-- Generator: Adobe Illustrator 19.0.0, SVG Export Plug-In . SVG Version: 6.00 Build 0)  -->
<svg version="1.1" id="Layer_1" xmlns="http://www.w3.org/2000/svg" xmlns:xlink="http://www.w3.org/1999/xlink" x="0px" y="0px"
	 viewBox="-152 377 289.3 88.9" style="enable-background:new -152 377 289.3 88.9;" xml:space="preserve">
<g>
	<g>
		<path id="SVGID_1_" style="fill:#F5AD3C;" d="M-122,454.4c0,0.2,0,0.5,0,0.7c7.8,6,14.2,9.5,14.3,9.6l0.2,0.1l0.2-0.1
			c0.1,0,3.7-2,8.8-5.7c0.6-1.4,1-3,1-4.7c0-6.9-5.4-12.5-12.2-12.5C-116.4,441.9-122,447.5-122,454.4 M-105.1,427.6l-2.4,5.1v0.1
			c-2.5-0.2-5.2-0.1-7.6,0.6c0,0,0-0.1-0.1-0.1l-3-4.7c-0.2-0.4-0.8-0.6-1.2-0.4l-1.7,0.8c-0.4,0.2-0.7,0.4-0.8,0.4
			c0,0-0.4,0.2-0.8,0.4l-1.7,0.8c-0.4,0.2-0.6,0.7-0.5,1.2l1.9,5.3c0,0.1,0,0.1,0.1,0.1c-1.9,1.6-3.6,3.5-4.9,5.8h-0.1l-5.4-1.2
			c-0.5-0.1-1,0.2-1.1,0.6l-0.4,1c1.3,1.4,2.8,2.9,4.3,4.2c1.7,1.6,3.4,3,5.1,4.3c0.1-1.1,0.4-2.2,0.7-3.3
			c2.8-8.4,11.7-13,19.9-10.1c7.2,2.4,11.6,9.8,10.6,17.2c1.7-1.2,3.4-2.7,5.2-4.1c-0.1-1.1-0.2-2.2-0.6-3.3c0,0,0.1,0,0.1-0.1
			l4.6-3.1c0.4-0.2,0.5-0.8,0.4-1.2l-0.8-1.7c-0.2-0.5-0.4-0.8-0.4-0.8s-0.2-0.4-0.4-0.8L-87,439c-0.2-0.5-0.7-0.6-1.2-0.5l-5.2,1.9
			c0,0-0.1,0-0.1,0.1c-1.6-1.9-3.5-3.7-5.7-5.1v-0.1l1.1-5.5c0.1-0.5-0.2-1-0.6-1.1l-1.8-0.6c-0.5-0.1-0.8-0.2-0.8-0.2
			s-0.4-0.1-0.8-0.2l-1.8-0.6c-0.1,0-0.2,0-0.2,0C-104.5,427-104.8,427.3-105.1,427.6 M-143.9,423.3l-2.8,2.9c0,0,0,0.1-0.1,0.1
			c-0.5-0.2-1.1-0.5-1.6-0.6c0.5,1,1,1.9,1.6,2.8c2.5,4.3,5.8,8.6,9.8,12.8l3-0.8c0.4-0.1,0.6-0.5,0.5-0.7l-0.2-1.3
			c0-0.4-0.1-0.6-0.1-0.6s0-0.4-0.1-0.6l-0.2-1.3c0-0.4-0.4-0.6-0.7-0.6l-4,0.1h-0.1c-0.6-1.8-1.6-3.5-2.8-4.8c0,0,0,0,0-0.1l2-3.5
			c0.1-0.2,0.1-0.5,0-0.7c0-0.1-0.1-0.1-0.2-0.2l-1.1-0.8c-0.2-0.2-0.5-0.4-0.5-0.4s-0.2-0.2-0.5-0.4l-1.1-0.8
			c-0.1-0.1-0.2-0.1-0.4-0.1C-143.5,423-143.8,423.2-143.9,423.3 M-89.6,417.3c0,5.1,4,9,8.9,9s8.9-4.1,8.9-9c0-5.1-4-9-8.9-9
			S-89.6,412.2-89.6,417.3 M-93.5,417.3c0-7.1,5.7-13,12.7-13c7,0,12.7,5.8,12.7,13c0,7.1-5.7,13-12.7,13
			C-87.7,430.3-93.5,424.4-93.5,417.3 M-81.4,393.5l-1.6,0.2c-0.4,0-0.7,0.1-0.7,0.1s-0.4,0-0.7,0.1l-1.6,0.2
			c-0.4,0-0.7,0.5-0.7,0.8l0.1,4.8v0.1c-2,0.7-4,1.9-5.5,3.3c0,0-0.1,0-0.1-0.1l-4.1-2.4c-0.4-0.2-0.8-0.1-1.1,0.2l-1,1.3
			c-0.2,0.4-0.5,0.6-0.5,0.6s-0.2,0.2-0.5,0.6l-1,1.3c-0.2,0.4-0.2,0.8,0.1,1.1l3.4,3.4c0,0,0,0,0.1,0.1c-1,1.9-1.4,4.1-1.7,6.4
			h-0.1l-4.6,1.2c-0.4,0.1-0.6,0.5-0.6,1l0.2,1.6c0,0.4,0.1,0.7,0.1,0.7s0,0.4,0.1,0.7l0.2,1.6c0,0.4,0.5,0.7,0.8,0.7l4.7-0.1h0.1
			c0.7,2.2,1.9,4.1,3.3,5.7c0,0,0,0-0.1,0.1l-2.4,4.1c-0.1,0.2-0.1,0.5,0,0.7c0,0.1,0.1,0.2,0.2,0.4l1.3,1c0.4,0.2,0.6,0.5,0.6,0.5
			s0.2,0.2,0.6,0.5l1.3,1c0.4,0.2,0.8,0.2,1.1-0.1l3.3-3.5l0.1-0.1c1.9,1,4.1,1.6,6.3,1.7v0.1l1.2,4.7c0.1,0.4,0.5,0.7,0.8,0.6
			l1.6-0.2c0.4,0,0.7-0.1,0.7-0.1s0.2,0,0.5-0.1c0.8-1,1.7-2,2.5-3V434v-0.1c1.3-0.5,2.7-1.2,3.7-1.9c0.7-1.1,1.4-2.2,2.2-3.3
			c3.6-6,5.8-12.1,6.8-18.1h-1.8h-0.1c-0.7-2.2-1.9-4.1-3.3-5.7c0,0,0,0,0.1-0.1l2.4-4.1c0.1-0.2,0.1-0.6,0-0.8
			c0-0.1-0.1-0.2-0.2-0.2l-1.3-1c-0.4-0.2-0.6-0.5-0.6-0.5s-0.2-0.2-0.6-0.5l-1.3-1c-0.4-0.2-0.8-0.2-1.1,0.1l-3.3,3.5l-0.1,0.1
			c-1.9-1-4.1-1.6-6.3-1.7v-0.1l-1.2-4.7C-80.7,393.7-81.1,393.5-81.4,393.5L-81.4,393.5 M-69.9,387.4
			C-69.9,387.4-70,387.5-69.9,387.4l-3.1,2.8c-0.2,0.2-0.4,0.6-0.1,1l0.7,1.2c0.2,0.2,0.4,0.5,0.4,0.6c0,0,0.1,0.2,0.4,0.6l0.7,1.2
			c0.2,0.2,0.6,0.4,0.8,0.2l3.5-1.8c0,0,0.1,0,0.1-0.1c1.1,1.1,2.3,1.9,3.6,2.7c-1.7-4.6-4.5-8.6-8-11.6
			C-70.6,385.1-70.4,386.3-69.9,387.4 M-128.1,413.5c-4.5-1-7.4-5.4-6.5-9.9c0.8-4.6,5.3-7.5,9.8-6.6c4.5,1,7.4,5.4,6.5,9.9
			c-0.8,4-4.2,6.8-8.1,6.8C-127,413.8-127.5,413.6-128.1,413.5 M-125.1,379.6l-1.7,5.1v0.1c-2.5,0-4.8,0.5-7.1,1.4
			c0,0,0-0.1-0.1-0.1l-3.4-4.1c-0.2-0.4-0.8-0.5-1.2-0.1l-1.4,1c-0.4,0.2-0.7,0.5-0.7,0.5s-0.4,0.2-0.7,0.5l-1.4,1
			c-0.4,0.2-0.5,0.8-0.4,1.2l2.4,4.8l0.1,0.1c-1.7,1.7-3,3.7-4,6.1h-0.1l-5.2-0.5c-0.5,0-0.8,0.2-1,0.7l-0.4,1.8
			c-0.1,0.5-0.1,0.8-0.1,0.8s-0.1,0.4-0.1,0.8l-0.4,1.8c-0.1,0.5,0.2,1,0.6,1.1l4.9,1.7h0.1c0,2.5,0.5,4.9,1.3,7.1
			c0,0-0.1,0-0.1,0.1l-4,3.5c-0.4,0.2-0.4,0.8-0.1,1.2l1,1.6c0.2,0.4,0.5,0.7,0.5,0.7s0.2,0.4,0.5,0.7l1,1.6
			c0.2,0.4,0.7,0.5,1.2,0.4l4.7-2.4c0,0,0.1,0,0.1-0.1c1.7,1.7,3.7,3.1,6,4.1v0.1l-0.5,5.3c0,0.5,0.2,0.8,0.7,1l1.8,0.4
			c0.5,0.1,0.8,0.1,0.8,0.1s0.4,0.1,0.8,0.1l1.8,0.4c0.5,0.1,1-0.2,1.1-0.6l1.7-5.1v-0.1c2.4,0,4.8-0.5,7-1.4c0,0,0,0.1,0.1,0.1
			l3.4,4.1c0.2,0.4,0.8,0.5,1.2,0.1l1.4-1c0.4-0.2,0.7-0.5,0.7-0.5s0.4-0.2,0.7-0.5l1.4-1c0.4-0.2,0.5-0.8,0.4-1.2l-2.4-4.8
			c0,0,0-0.1-0.1-0.1c1.7-1.7,3-3.9,4-6.1h0.1l5.2,0.5c0.5,0,0.8-0.2,1-0.7l0.4-1.8c0.1-0.5,0.1-0.8,0.1-0.8s0.1-0.4,0.1-0.8
			l0.4-1.8c0.1-0.5-0.2-1-0.6-1.1l-4.9-1.7h-0.1c0-2.5-0.5-4.9-1.4-7.2c0,0,0.1,0,0.1-0.1l4-3.5c0.4-0.2,0.4-0.8,0.1-1.2l-1-1.6
			c-0.2-0.4-0.5-0.7-0.5-0.7s-0.2-0.4-0.5-0.7l-1-1.6c-0.2-0.4-0.7-0.5-1.2-0.4l-4.7,2.4c0,0-0.1,0-0.1,0.1
			c-1.7-1.7-3.7-3.1-5.9-4.1v-0.1l0.5-5.3c0-0.5-0.2-0.8-0.7-1l-1.8-0.4c-0.5-0.1-0.8-0.1-0.8-0.1s-0.4-0.1-0.8-0.1l-1.8-0.4h-0.1
			C-124.6,379-125,379.3-125.1,379.6 M-89.5,386.9c-0.2,0-0.5,0-0.7,0c-4.3-0.4-7.7-3.7-8.3-8c-1.4,0.6-2.8,1.2-4.1,2
			c0.2,1.1,0.7,2.2,1.2,3.1c0,0-0.1,0-0.1,0.1l-2.4,2.7c-0.2,0.2-0.2,0.6,0,0.8l0.8,1c0.2,0.2,0.4,0.5,0.4,0.5s0.2,0.2,0.4,0.5
			l0.8,1c0.2,0.2,0.6,0.2,0.8,0.1l3-2c0,0,0,0,0.1-0.1c1.3,1,2.8,1.8,4.5,2.3v0.1l0.1,3.6c0,0.4,0.2,0.6,0.6,0.6l1.2,0.1
			c0.4,0,0.6,0,0.6,0s0.2,0,0.6,0l1.2,0.1c0.4,0,0.6-0.2,0.6-0.5l0.7-3.6v-0.1c1.7-0.2,3.3-0.7,4.7-1.6c0,0,0,0,0.1,0.1l2.7,2.5
			c0.2,0.2,0.6,0.2,0.8,0l1-0.8c0.2-0.2,0.5-0.4,0.5-0.4s0.2-0.2,0.5-0.4l1-0.8c0.2-0.2,0.2-0.6,0.1-0.8l-2-3c0,0,0,0,0-0.1
			c1-1.3,1.8-2.9,2.3-4.5c0,0,0,0,0.1,0l2-0.1c-1.9-1.2-3.9-2.2-6-2.9C-80.8,383.3-84.8,386.9-89.5,386.9 M-97,378.3
			c0.4,3.6,3.3,6.5,6.9,6.8c0.2,0,0.4,0,0.6,0c3.9,0,7.2-3.1,7.5-7.1c0,0,0,0,0-0.1c-2.2-0.6-4.5-0.8-6.9-0.8
			C-91.7,377.1-94.3,377.6-97,378.3"/>
	</g>
</g>
<g>
	<g>
		<path id="SVGID_3_" style="fill:#F5AD3C;" d="M57.2,438.2v16.5c0,2,1.2,3.5,3,3.5s3-1.3,3-3.5v-16.5c0-2-1.2-3.5-3-3.5
			S57.2,436.2,57.2,438.2 M112.4,434.5c-0.4,0-0.5,0.4-0.5,0.6s0.1,0.6,0.5,0.6h1v3.4c0,0.4,0.2,0.6,0.6,0.6s0.6-0.2,0.6-0.6v-3.4
			h0.5c0.4,0,0.5-0.4,0.5-0.6s-0.1-0.6-0.5-0.6H112.4z M-4.2,446.6c0-3,1.4-6.4,4.8-6.4c3.3,0,4.7,3.4,4.7,6.4c0,3-1.6,6.3-4.7,6.3
			C-2.7,452.8-4.2,449.4-4.2,446.6 M-10.3,446.6c0,7,4.3,11.9,10,11.9c2.3,0,4.2-1,5.8-2.9c0.4,1.7,1.2,2.7,2.9,2.7
			c2.9,0,2.9-2.4,2.9-4.1v-15.3c0-1.6,0-4.1-2.9-4.1c-1.4,0-2.8,1.1-2.9,2.5c-1.3-1.9-3.5-2.9-5.8-2.9
			C-5.9,434.5-10.3,439.7-10.3,446.6 M13.8,446.6c0,6.5,4.3,11.9,10.9,11.9c2.2,0,7.5-1.1,7.5-4.2c0-1.4-1.2-2.8-2.7-2.8
			c-0.7,0-3,1.3-4.5,1.3c-3.3,0-5.1-3.1-5.1-6.3s1.7-6.4,5.1-6.4c1.9,0,3.3,1.2,4.8,1.2c1.4,0,2.3-1.7,2.3-3c0-3-5.1-4-7.5-4
			C18.3,434.5,13.8,440.3,13.8,446.6 M72.5,437c-0.2-1.4-1.3-2.3-2.9-2.3c-1.8,0-3.1,1.3-3.1,3.5v16.5c0,2,1.4,3.5,3.3,3.5
			s3.3-1.3,3.3-3.5v-10.9c0-2.4,1.3-4.2,3.7-4.2c2.2,0,3.9,1.3,3.9,4.2v10.9c0,2,1.2,3.5,3,3.5s3-1.3,3-3.5v-11.9
			c0-5.3-3.5-8.3-8.3-8.3C75.5,434.5,73.7,435.3,72.5,437 M99.6,439.8c2.8,0,4.5,1.9,4.8,4.7h-9.6C95.2,441.7,97,439.8,99.6,439.8
			 M88.8,446.6c0,6.9,4.6,11.9,11.3,11.9c4.5,0,9.9-2.5,9.9-5.3c0-1.3-1.2-2.7-2.5-2.7c-1.6,0-3.7,2.4-6.9,2.4
			c-2.8,0-5.3-1.2-5.8-4.6h12.9c1.8,0,2.7-0.8,2.7-2.7c0-5.2-4.3-11.2-11-11.2C93.2,434.5,88.8,440.3,88.8,446.6 M116.2,435l-0.6,4
			v0.1c0,0.4,0.2,0.5,0.5,0.5c0.4,0,0.5-0.1,0.6-0.5l0.4-2.9l0,0l0.8,3c0,0.1,0.1,0.4,0.6,0.4c0.4,0,0.5-0.2,0.6-0.4l0.8-3l0,0
			l0.4,2.9c0,0.4,0.2,0.5,0.6,0.5c0.2,0,0.5-0.2,0.5-0.5V439l-0.6-4c0-0.2-0.4-0.5-0.7-0.5c-0.4,0-0.6,0.2-0.7,0.5l-0.8,2.9l0,0
			l-0.8-2.9c-0.1-0.2-0.4-0.6-0.7-0.6C116.5,434.4,116.2,434.7,116.2,435 M-42.4,430.3l-4,24c0,0.2,0,0.5,0,0.7c0,1.9,1.3,3.1,3,3.1
			c2.2,0,3-1,3.3-3l2.5-17.5h0.1l5.1,18c0.2,1.1,1.1,2.4,3.4,2.4s3.1-1.4,3.4-2.4l5.1-18h0.1l2.5,17.5c0.2,2,1.1,2.9,3.3,2.9
			c1.7,0,3-1.2,3-3.1c0-0.2,0-0.5,0-0.7l-4-24c-0.2-1.6-1.9-3.3-4.1-3.3c-2,0-3.7,1.6-4.2,3.1l-4.9,17.1H-29l-4.9-17.1
			c-0.5-1.6-2-3.1-4.2-3.1C-40.6,427-42.1,428.8-42.4,430.3 M57,428.8c0,1.9,1.6,3.6,3.4,3.6c1.9,0,3.4-1.7,3.4-3.6
			c0-1.8-1.6-3.4-3.4-3.4C58.5,425.5,57,427.1,57,428.8 M34.3,428.2v26.5c0,2,1.2,3.5,3,3.5c1.8,0,3-1.3,3-3.5v-10.9
			c0-2.4,1.3-4.2,3.7-4.2c2.2,0,3.9,1.3,3.9,4.2v10.9c0,2,1.2,3.5,3,3.5s3-1.3,3-3.5v-11.9c0-5.3-3.5-8.3-8.2-8.3
			c-1.9,0-4.1,0.5-5.4,2.2v-8.4c0-2-1.2-3.5-3-3.5C35.5,424.7,34.3,426.2,34.3,428.2 M53.5,398.7v16.5c0,2,1.2,3.5,3,3.5
			c1.8,0,3-1.3,3-3.5v-16.5c0-2-1.2-3.5-3-3.5C54.7,395.3,53.5,396.6,53.5,398.7 M60.8,398.3c0,0.6,0.1,1.1,0.4,1.8l6.1,16
			c0.6,1.6,1.2,2.5,3.3,2.5s2.7-1,3.3-2.5l6.1-16c0.2-0.7,0.4-1.2,0.4-1.8c0-1.9-1.6-3-3.1-3c-1.7,0-2.4,1.3-2.7,2.3L70.7,410h-0.1
			l-3.9-12.4c-0.2-1-1-2.3-2.7-2.3S60.8,396.3,60.8,398.3 M81.8,398.7v16.5c0,2,1.2,3.5,3,3.5c1.8,0,3-1.3,3-3.5v-16.5
			c0-2-1.2-3.5-3-3.5C83,395.3,81.8,396.6,81.8,398.7 M119.5,407c0-2.9,1.6-6.3,4.7-6.3c3.4,0,4.8,3.5,4.8,6.5s-1.6,6.1-4.8,6.1
			C121.1,413.3,119.5,410.3,119.5,407 M113.4,407.1c0,6.1,3,11.9,9.4,11.9c2.8,0,4.8-1.2,6.1-2.9h0.4v1.4c0,3.1-2.3,4.9-5.3,4.9
			c-3.5,0-5.8-1.9-7.7-1.9c-1.2,0-2.4,1.6-2.4,2.8c0,3.4,7.1,4.7,9.6,4.7c6.9,0,11.8-3.7,11.8-11.2v-18c0-2-1.3-3.5-3.1-3.5
			c-1.7,0-2.8,1-3.1,2.5c-1.1-1.9-3.5-2.9-5.5-2.9C117.4,395.1,113.4,400.9,113.4,407.1 M96.9,397.6c-0.2-1.4-1.2-2.3-2.8-2.3
			c-1.8,0-3,1.3-3,3.5v16.5c0,2,1.2,3.5,3,3.5c1.8,0,3-1.3,3-3.5v-10.9c0-2.4,1.6-4.2,4.1-4.2c2.2,0,4.1,1.3,4.1,4.2v10.9
			c0,2,1.2,3.5,3,3.5s3-1.3,3-3.5v-11.9c0-5.3-3.6-8.3-8.4-8.3C100,395.1,98.1,395.9,96.9,397.6 M7.3,400.3c2.8,0,4.5,1.9,4.8,4.7
			H2.5C2.8,402.2,4.6,400.3,7.3,400.3 M-3.6,407c0,6.9,4.6,11.9,11.3,11.9c4.5,0,9.9-2.7,9.9-5.3c0-1.3-1.2-2.7-2.5-2.7
			c-1.6,0-3.7,2.4-6.9,2.4c-2.8,0-5.3-1.2-5.8-4.6h12.9c1.8,0,2.7-0.8,2.7-2.7C18,401,13.7,395,7,395C0.9,395.1-3.6,400.7-3.6,407
			 M-45,387.7c-1.8,0-2.9,1.6-2.9,3s0.8,3,2.9,3h4.6v21.6c0,2.2,1.4,3.4,3.3,3.4s3.3-1.2,3.3-3.4v-21.6h4.3c2,0,2.9-1.6,2.9-3
			c0-1.6-1.1-3-2.9-3H-45z M23.1,403.2c0,8.9,5.9,15.9,14.5,15.9c8.4,0,13.7-6.1,13.7-14.5c0-2.8-1.1-4-3.7-4h-7.1c-1.6,0-3,1-3,2.8
			s1.2,2.8,3,2.8h4.3c0,5.1-3.9,6.9-7.1,6.9c-5.3,0-8-4.6-8-9.9c0-5.2,2.7-9.9,8-9.9c5.5,0,6.1,3.1,9,3.1c1.4,0,2.7-1.2,2.7-3
			c0-3-5.2-6-11.6-6C29,387.2,23.1,394.2,23.1,403.2 M53.1,389.4c0,1.9,1.6,3.6,3.4,3.6c1.9,0,3.4-1.7,3.4-3.6
			c0-1.8-1.6-3.4-3.4-3.4C54.7,386,53.1,387.6,53.1,389.4 M81.3,389.4c0,1.9,1.6,3.6,3.4,3.6c1.9,0,3.4-1.7,3.4-3.6
			c0-1.8-1.6-3.4-3.4-3.4C82.9,386,81.3,387.6,81.3,389.4 M-25.7,388.8v26.5c0,2,1.2,3.5,3,3.5c1.8,0,3-1.3,3-3.5v-10.9
			c0-2.4,1.6-4.2,4.1-4.2c2.2,0,4.1,1.3,4.1,4.2v10.9c0,2,1.2,3.5,3,3.5s3-1.3,3-3.5v-11.9c0-5.3-3.6-8.3-8.3-8.3
			c-1.9,0-4.3,0.5-5.5,2.2h-0.2v-8.4c0-2-1.2-3.5-3-3.5C-24.4,385.3-25.7,386.6-25.7,388.8"/>
	</g>
</g>
</svg>
