<svg style="display:none" viewBox="0 0 100 100"><symbol viewBox="0 0 17.3 29.4" id="icon-arrow-left"><title>arrow-left</title> <path style="fill:#05455A;" d="M16.1,0.6l0.7,0.7c0.7,0.7,0.7,1.9,0,2.7l-9.5,9.5c-0.7,0.7-0.7,1.9,0,2.7l9.5,9.5
	c0.7,0.7,0.7,1.9,0,2.7l-0.6,0.6c-0.7,0.7-1.9,0.7-2.7,0L0.6,16.1c-0.7-0.7-0.7-1.9,0-2.7L13.4,0.6C14.1-0.2,15.3-0.2,16.1,0.6z"/> </symbol><symbol viewBox="0 0 17.3 29.4" id="icon-arrow-right"><title>arrow-right</title> <path id="arrow-right-XMLID_53_" style="fill:#05455A;" d="M1.2,28.9l-0.7-0.7c-0.7-0.7-0.7-1.9,0-2.7l9.5-9.5c0.7-0.7,0.7-1.9,0-2.7L0.6,3.9
	c-0.7-0.7-0.7-1.9,0-2.7l0.6-0.6c0.7-0.7,1.9-0.7,2.7,0l12.8,12.8c0.7,0.7,0.7,1.9,0,2.7L3.9,28.9C3.2,29.6,1.9,29.6,1.2,28.9z"/> </symbol><symbol viewBox="0 0 16 28" id="icon-facebook"><title>facebook</title> <path d="M14.984 0.187v4.125h-2.453q-1.344 0-1.813 0.562t-0.469 1.687v2.953h4.578l-0.609 4.625h-3.969v11.859h-4.781v-11.859h-3.984v-4.625h3.984v-3.406q0-2.906 1.625-4.508t4.328-1.602q2.297 0 3.563 0.187z"/> </symbol><symbol viewBox="0 0 36 36" id="icon-post-aside"><title>post-aside</title> <g id="post-aside-XMLID_59_"> <g id="post-aside-XMLID_10_"> <rect id="post-aside-XMLID_11_" x="0" style="fill:#D37A28;" width="36" height="36"/> </g> <rect id="post-aside-XMLID_5_" x="6" y="6" style="fill:#FFFFFF;" width="24" height="3"/> <rect id="post-aside-XMLID_4_" x="6" y="13" style="fill:#FFFFFF;" width="18" height="3"/> <rect id="post-aside-XMLID_3_" x="6" y="20" style="fill:#FFFFFF;" width="24" height="3"/> <rect id="post-aside-XMLID_2_" x="6" y="27" style="fill:#FFFFFF;" width="12" height="3"/> </g> </symbol><symbol viewBox="0 0 36 36" id="icon-post-quote"><title>post-quote</title> <g id="post-quote-XMLID_59_"> <g id="post-quote-XMLID_10_"> <rect id="post-quote-XMLID_11_" x="0" style="fill:#D37A28;" width="36" height="36"/> </g> <rect id="post-quote-XMLID_5_" x="6" y="6" style="fill:#FFFFFF;" width="24" height="3"/> <rect id="post-quote-XMLID_4_" x="6" y="13" style="fill:#FFFFFF;" width="18" height="3"/> <rect id="post-quote-XMLID_3_" x="6" y="20" style="fill:#FFFFFF;" width="24" height="3"/> <rect id="post-quote-XMLID_2_" x="6" y="27" style="fill:#FFFFFF;" width="12" height="3"/> </g> </symbol><symbol viewBox="0 0 36 36" id="icon-post-video"><title>post-video</title> <g id="post-video-XMLID_59_"> <g id="post-video-XMLID_10_"> <rect id="post-video-XMLID_11_" x="0" style="fill:#D37A28;" width="36" height="36"/> </g> <rect id="post-video-XMLID_5_" x="6" y="6" style="fill:#FFFFFF;" width="24" height="3"/> <rect id="post-video-XMLID_4_" x="6" y="13" style="fill:#FFFFFF;" width="18" height="3"/> <rect id="post-video-XMLID_3_" x="6" y="20" style="fill:#FFFFFF;" width="24" height="3"/> <rect id="post-video-XMLID_2_" x="6" y="27" style="fill:#FFFFFF;" width="12" height="3"/> </g> </symbol><symbol viewBox="0 0 36 36" id="icon-post"><title>post</title> <g id="post-XMLID_59_"> <g id="post-XMLID_10_"> <rect id="post-XMLID_11_" x="0" style="fill:#D37A28;" width="36" height="36"/> </g> <rect id="post-XMLID_5_" x="6" y="6" style="fill:#FFFFFF;" width="24" height="3"/> <rect id="post-XMLID_4_" x="6" y="13" style="fill:#FFFFFF;" width="18" height="3"/> <rect id="post-XMLID_3_" x="6" y="20" style="fill:#FFFFFF;" width="24" height="3"/> <rect id="post-XMLID_2_" x="6" y="27" style="fill:#FFFFFF;" width="12" height="3"/> </g> </symbol><symbol viewBox="0 0 64.3 64" id="icon-scroll-down"><title>scroll-down</title> <g id="scroll-down-XMLID_80_"> <path id="scroll-down-XMLID_82_" style="fill:#FFFFFF;" d="M64,32C64,14.3,49.7,0,32,0S0,14.3,0,32s14.3,32,32,32S64,49.7,64,32z M4.9,32
		C4.9,17,17,4.9,32,4.9S59.1,17,59.1,32S47,59.1,32,59.1S4.9,47,4.9,32z"/> <path id="scroll-down-XMLID_81_" style="fill:#FFFFFF;" d="M17.8,26.5l0.7-0.7c0.7-0.7,1.9-0.7,2.7,0l9.5,9.5c0.7,0.7,1.9,0.7,2.7,0l9.5-9.5
		c0.7-0.7,1.9-0.7,2.7,0l0.6,0.6c0.7,0.7,0.7,1.9,0,2.7L33.3,42c-0.7,0.7-1.9,0.7-2.7,0L17.8,29.2C17.1,28.4,17.1,27.2,17.8,26.5z"/> </g> </symbol><symbol viewBox="0 0 30 32" id="icon-search"><title>search</title> <path d="M30 26l-7.785-7.785c1.111-1.814 1.785-3.929 1.785-6.215 0-6.626-5.375-12-12-12s-12 5.374-12 12c0 6.625 5.374 12 12 12 2.286 0 4.4-0.674 6.215-1.781l7.785 7.781c0.547 0.547 1.453 0.543 2 0l2-2c0.547-0.547 0.547-1.453 0-2zM12 20c-4.418 0-8-3.582-8-8s3.582-8 8-8 8 3.582 8 8-3.582 8-8 8z"/> </symbol><symbol viewBox="0 0 47.2 47" id="icon-stretton-climate-care-logo-icon"><title>stretton-climate-care-logo-icon</title> <g id="stretton-climate-care-logo-icon-XMLID_72_"> <g id="stretton-climate-care-logo-icon-XMLID_108_"> <path id="stretton-climate-care-logo-icon-XMLID_109_" style="fill:#FFFFFF;" d="M32.1,18.9c-2-1.1-3.6-1.8-4.8-1.8c-1.2,0-2.7,0.5-3.9,1c1.7,1,3.2,2,4.3,2.6
			C29.3,20,30.8,19.4,32.1,18.9z"/> <path id="stretton-climate-care-logo-icon-XMLID_112_" style="fill:#FFFFFF;" d="M21.1,16.8c1.8-0.9,4.2-1.9,6.3-1.9c2.5,0,5.7,1.9,7.6,3.1
			c1.3-0.3,2.5-0.5,3.5-0.5c2.8,0,5.6,1,8.4,2.9C45.3,8.9,35.4,0,23.5,0C13.7,0,5.4,6,1.8,14.4c2.5-1.4,4.6-2.2,6.5-2.2
			C11.2,12.3,15.5,13.8,21.1,16.8z"/> </g> <path id="stretton-climate-care-logo-icon-XMLID_90_" style="fill:#FFFFFF;" d="M47,23.4c-2-1.7-5.1-3.7-8.6-3.7c-0.7,0-1.5,0.1-2.4,0.3c-0.4,0.1-0.8,0.2-1.3,0.3
		c-1.6,0.5-3.5,1.2-5.5,2.2c-0.4,0.2-0.9,0.4-1.3,0.7c-1.4,0.7-3,1.6-4.5,2.5l-0.1,0.1H19l1.4-0.9c1.2-0.8,3-1.8,5.1-2.9
		c-1.6-1-3.2-1.9-4.7-2.8c-0.4-0.2-0.9-0.5-1.3-0.7c-4.9-2.6-8.7-3.9-11.2-3.9c-1.9,0-4.5,1.1-7.6,3.3C0.2,19.6,0,21.5,0,23.5
		C0,36.5,10.5,47,23.5,47S47,36.5,47,23.4C47,23.5,47,23.5,47,23.4z M15.7,38.5c-1.6,0-3.3-0.9-3.3-2.8H14c0,1,1,1.4,1.8,1.4
		c0.9,0,1.8-0.3,1.8-1.1c0-0.5-0.4-0.8-1.9-1.1c-1.5-0.3-3-0.7-3-2.5c0-1.4,1.2-2.3,3.1-2.3c2.1,0,3.1,1.4,3.1,2.6h-1.5
		c0-0.7-0.6-1.2-1.6-1.2c-0.8,0-1.6,0.3-1.6,0.9c0,0.6,0.5,0.8,1.8,1c1.9,0.4,3.1,0.9,3.1,2.5C19.1,37.5,17.8,38.5,15.7,38.5z
		 M23.8,37.1c0.9,0,1.6-0.6,2-1.3h1.6c-0.5,1.6-1.9,2.7-3.7,2.7c-2.2,0-3.9-1.8-3.9-4.2c0-2.4,1.7-4.2,3.9-4.2c1.8,0,3.2,1,3.7,2.7
		h-1.7c-0.4-0.7-1.1-1.3-2-1.3c-1.3,0-2.4,1.3-2.4,2.8C21.4,35.8,22.5,37.1,23.8,37.1z M32,37.1c0.9,0,1.6-0.6,2-1.3h1.6
		c-0.5,1.6-1.9,2.7-3.7,2.7c-2.2,0-3.9-1.8-3.9-4.2c0-2.4,1.7-4.2,3.9-4.2c1.8,0,3.2,1,3.7,2.7H34c-0.4-0.7-1.1-1.3-2-1.3
		c-1.3,0-2.4,1.3-2.4,2.8C29.7,35.8,30.7,37.1,32,37.1z"/> </g> </symbol><symbol viewBox="0 0 525 184" id="icon-stretton-climate-care-logo-main"><title>stretton-climate-care-logo-main</title> <g> <g id="stretton-climate-care-logo-main-XMLID_49_"> <path id="stretton-climate-care-logo-main-XMLID_50_" style="fill:#FFFFFF;" d="M33.7,111.5h-7.1c0-3.2-2.7-5.7-7.2-5.7c-3.8,0-7.3,1.5-7.3,4.3
			c0,2.6,2.5,3.5,8.2,4.7c8.9,1.8,14.5,4,14.5,11.6c0,7.2-6,11.8-15.5,11.8c-7.3,0-15.3-4-15.3-13h7.1c0,4.4,4.4,6.5,8.2,6.5
			c4.1,0,8.4-1.5,8.4-5c0-2.4-1.9-3.8-8.8-5.2s-13.9-3.4-13.9-11.4c0-6.4,5.7-10.9,14.4-10.9C29.2,99.2,33.7,105.5,33.7,111.5z"/> <path id="stretton-climate-care-logo-main-XMLID_52_" style="fill:#FFFFFF;" d="M52.2,137.5c-8.1,0.9-12.5-4-12.5-11.6v-23.1h7.1v7.1h5v6.3h-5v9.8
			c0,3.9,1.8,5.3,5.3,5.1V137.5z"/> <path id="stretton-climate-care-logo-main-XMLID_54_" style="fill:#FFFFFF;" d="M73.1,115.9c-4.5-0.8-7.5,1.6-7.5,5.6v16.1h-7.1v-16.1c0-7.9,5.4-13.4,14.7-12.2
			V115.9z"/> <path id="stretton-climate-care-logo-main-XMLID_56_" style="fill:#FFFFFF;" d="M102.7,128.7c-1.6,5.7-6.5,9.5-13.4,9.5c-7.9,0-14.2-6.5-14.2-14.5
			c0-8,6.4-14.6,14.2-14.6c6.7,0,12.3,4.2,13.6,11.6L83.2,129c1.4,1.9,3.5,3,5.9,3c2.3,0,4.7-1,5.9-3.2H102.7z M94.7,117.8
			c-1.3-1.6-3.2-2.5-5.5-2.5c-4.1,0-7.4,3.2-7.5,8L94.7,117.8z"/> <path id="stretton-climate-care-logo-main-XMLID_59_" style="fill:#FFFFFF;" d="M119.6,137.5c-8.1,0.9-12.5-4-12.5-11.6v-23.1h7.1v7.1h5v6.3h-5v9.8
			c0,3.9,1.8,5.3,5.3,5.1V137.5z"/> <path id="stretton-climate-care-logo-main-XMLID_61_" style="fill:#FFFFFF;" d="M136.5,137.5c-8.1,0.9-12.5-4-12.5-11.6v-23.1h7.1v7.1h5v6.3h-5v9.8
			c0,3.9,1.8,5.3,5.3,5.1V137.5z"/> <path id="stretton-climate-care-logo-main-XMLID_63_" style="fill:#FFFFFF;" d="M168.2,123.7c0,8.3-6.3,14.5-14,14.5s-14-6.2-14-14.5c0-8.3,6.3-14.6,14-14.6
			S168.2,115.4,168.2,123.7z M161,123.7c0-4.8-3.1-8.1-6.8-8.1c-3.8,0-6.8,3.3-6.8,8.1c0,4.7,3.1,7.9,6.8,7.9
			C158,131.7,161,128.4,161,123.7z"/> <path id="stretton-climate-care-logo-main-XMLID_66_" style="fill:#FFFFFF;" d="M185.3,109.1c7.8,0,12.3,5.1,12.3,12.4v16.1h-7.1v-16.2c0-1.6-0.5-5.3-5.2-5.3
			c-3.1,0-5.4,2.2-5.4,5.3v16.2h-7.1v-16.1C172.8,114.4,177.8,109.1,185.3,109.1z"/> <path id="stretton-climate-care-logo-main-XMLID_68_" style="fill:#FFFFFF;" d="M221.9,138.2c-10.2,0-18.1-8.6-18.1-19.5s7.9-19.5,18.1-19.5
			c8.5,0,14.7,4.8,17,12.5h-7.7c-1.7-3.4-5-5.9-9.3-5.9c-6.1,0-11,5.9-11,13c0,7.1,4.9,13,11,13c4.3,0,7.7-2.6,9.3-6h7.7
			C236.5,133.3,230.2,138.2,221.9,138.2z"/> <path id="stretton-climate-care-logo-main-XMLID_70_" style="fill:#FFFFFF;" d="M243,97.4h7.2v28.5c0,3.9,1.8,5.3,5.3,5.1v6.5c-8.1,0.9-12.5-4-12.5-11.6V97.4z"/> <path id="stretton-climate-care-logo-main-XMLID_72_" style="fill:#FFFFFF;" d="M262.1,106.8v-4c0-2,1.6-3.6,3.6-3.6c1.9,0,3.6,1.6,3.6,3.6v4H262.1z M269.3,137.5
			h-7.1v-27.8h7.1V137.5z"/> <path id="stretton-climate-care-logo-main-XMLID_75_" style="fill:#FFFFFF;" d="M317.7,137.5h-7.1v-16.2c0-1.6-0.5-5.3-5.2-5.3c-3.1,0-5.4,2.2-5.4,5.3v16.2h-7.1
			v-16.2c0-1.6-0.5-5.3-5.2-5.3c-3.2,0-5.4,2.2-5.4,5.3v16.2h-7.1v-16.1c0-7.1,4.9-12.4,12.5-12.4c3.8,0,6.8,1.5,8.8,3.9
			c2.1-2.4,5.2-3.9,8.8-3.9c7.8,0,12.3,5.1,12.3,12.4V137.5z"/> <path id="stretton-climate-care-logo-main-XMLID_77_" style="fill:#FFFFFF;" d="M350.8,137.5h-6.7v-2.9c-2.1,2.3-5.1,3.5-8.5,3.5c-7.3,0-13.3-6.5-13.3-14.4
			c0-8,5.9-14.6,14.3-14.6c8.4,0,14.2,6.6,14.2,14.6V137.5z M336.6,115.8c-3.9,0-7.1,3.4-7.1,8c0,4.4,3.2,7.8,7.1,7.8
			s7.1-3.5,7.1-7.8C343.7,119.3,340.5,115.8,336.6,115.8z"/> <path id="stretton-climate-care-logo-main-XMLID_80_" style="fill:#FFFFFF;" d="M367.8,137.5c-8.1,0.9-12.5-4-12.5-11.6v-23.1h7.1v7.1h5v6.3h-5v9.8
			c0,3.9,1.8,5.3,5.3,5.1V137.5z"/> <path id="stretton-climate-care-logo-main-XMLID_82_" style="fill:#FFFFFF;" d="M399.4,128.7c-1.6,5.7-6.5,9.5-13.4,9.5c-7.9,0-14.2-6.5-14.2-14.5
			c0-8,6.4-14.6,14.2-14.6c6.7,0,12.3,4.2,13.6,11.6L380,129c1.4,1.9,3.5,3,5.9,3c2.3,0,4.7-1,5.9-3.2H399.4z M391.5,117.8
			c-1.3-1.6-3.2-2.5-5.5-2.5c-4.1,0-7.4,3.2-7.5,8L391.5,117.8z"/> <path id="stretton-climate-care-logo-main-XMLID_85_" style="fill:#FFFFFF;" d="M422.6,138.2c-10.2,0-18.1-8.6-18.1-19.5s7.9-19.5,18.1-19.5
			c8.5,0,14.7,4.8,17,12.5h-7.7c-1.7-3.4-5-5.9-9.3-5.9c-6.1,0-11,5.9-11,13c0,7.1,4.9,13,11,13c4.3,0,7.7-2.6,9.3-6h7.7
			C437.2,133.3,430.9,138.2,422.6,138.2z"/> <path id="stretton-climate-care-logo-main-XMLID_87_" style="fill:#FFFFFF;" d="M471.3,137.5h-6.7v-2.9c-2.1,2.3-5.1,3.5-8.5,3.5c-7.3,0-13.3-6.5-13.3-14.4
			c0-8,5.9-14.6,14.3-14.6c8.4,0,14.2,6.6,14.2,14.6V137.5z M457.1,115.8c-3.9,0-7.1,3.4-7.1,8c0,4.4,3.2,7.8,7.1,7.8
			s7.1-3.5,7.1-7.8C464.2,119.3,461,115.8,457.1,115.8z"/> <path id="stretton-climate-care-logo-main-XMLID_90_" style="fill:#FFFFFF;" d="M492,115.9c-4.5-0.8-7.5,1.6-7.5,5.6v16.1h-7.1v-16.1c0-7.9,5.4-13.4,14.7-12.2
			V115.9z"/> <path id="stretton-climate-care-logo-main-XMLID_92_" style="fill:#FFFFFF;" d="M521.9,128.7c-1.6,5.7-6.5,9.5-13.4,9.5c-7.9,0-14.2-6.5-14.2-14.5
			c0-8,6.4-14.6,14.2-14.6c6.7,0,12.3,4.2,13.6,11.6l-19.6,8.2c1.4,1.9,3.5,3,5.9,3c2.3,0,4.7-1,5.9-3.2H521.9z M513.9,117.8
			c-1.3-1.6-3.2-2.5-5.5-2.5c-4.1,0-7.4,3.2-7.5,8L513.9,117.8z"/> </g> <g id="stretton-climate-care-logo-main-XMLID_3_"> <path id="stretton-climate-care-logo-main-XMLID_4_" style="fill:#FFFFFF;" d="M127.4,164.7v15.4h-3.6v-15.4h-5v-3.3h13.6v3.3H127.4z"/> <path id="stretton-climate-care-logo-main-XMLID_6_" style="fill:#FFFFFF;" d="M146.8,180.1h-3.6V172c0-0.8-0.3-2.6-2.6-2.6c-1.6,0-2.7,1.1-2.7,2.6v8.1h-3.6v-20
			h3.6v6.9c0.9-0.7,2-1.1,3.2-1.1c3.4,0,5.7,2.5,5.7,6.1V180.1z"/> <path id="stretton-climate-care-logo-main-XMLID_8_" style="fill:#FFFFFF;" d="M155,164.7h-3.6v-3.3h3.6V164.7z M155,180.1h-3.6v-13.9h3.6V180.1z"/> <path id="stretton-climate-care-logo-main-XMLID_11_" style="fill:#FFFFFF;" d="M170.7,180.1h-3.6V172c0-0.8-0.2-2.8-2.6-2.8c-1.6,0-2.7,1.2-2.7,2.8v8.1h-3.6
			v-13.9h3.4v1.3c0.9-1.1,2.1-1.7,3.6-1.7c3.3,0,5.4,2.5,5.4,6.1V180.1z"/> <path id="stretton-climate-care-logo-main-XMLID_13_" style="fill:#FFFFFF;" d="M177.2,176.1v4h-3.6v-20h3.6v11.2l4.6-5h4.9l-5.2,5.4l5.5,8.5h-4.5l-3.4-5.8
			L177.2,176.1z"/> <path id="stretton-climate-care-logo-main-XMLID_15_" style="fill:#FFFFFF;" d="M214.2,180.1h-3.3v-2c-1.2,1.5-3.2,2.3-5.6,2.3c-5.1,0-9.1-4.3-9.1-9.7
			c0-5.5,4-9.8,9.1-9.8c4.1,0,7.3,2.3,8.5,6.2H210c-0.7-1.6-2.5-3-4.7-3c-3.1,0-5.5,3-5.5,6.5c0,3.5,2.5,6.5,5.7,6.5
			c2.7,0,4.7-1.8,5.4-4.2h-5.1v-3.3h8.3V180.1z"/> <path id="stretton-climate-care-logo-main-XMLID_17_" style="fill:#FFFFFF;" d="M220.8,180.1h-3.6v-20h3.6V180.1z"/> <path id="stretton-climate-care-logo-main-XMLID_19_" style="fill:#FFFFFF;" d="M237.6,173.2c0,4.1-3.2,7.2-7,7.2s-7-3.1-7-7.2c0-4.2,3.1-7.3,7-7.3
			S237.6,169,237.6,173.2z M234,173.2c0-2.4-1.5-4.1-3.4-4.1s-3.4,1.7-3.4,4.1c0,2.3,1.5,4,3.4,4S234,175.5,234,173.2z"/> <path id="stretton-climate-care-logo-main-XMLID_22_" style="fill:#FFFFFF;" d="M247.8,180.4c-1.7,0-3.2-0.6-4.2-1.8v1.5h-3.4v-20h3.6v7.5c1.1-1,2.5-1.6,4.1-1.6
			c3.6,0,6.6,3.1,6.6,7.3C254.4,177.2,251.4,180.4,247.8,180.4z M247.3,169.2c-2,0-3.6,1.8-3.6,4c0,2.2,1.6,3.9,3.6,3.9
			s3.6-1.7,3.6-3.9C250.8,170.9,249.2,169.2,247.3,169.2z"/> <path id="stretton-climate-care-logo-main-XMLID_25_" style="fill:#FFFFFF;" d="M265.9,178.8c-0.9,1-2.3,1.6-4.3,1.6c-2.9,0-5.6-1.5-5.6-4.5c0-3.1,2.6-3.9,5.7-4.2
			c2.3-0.2,4-0.5,4-1.6c0-0.7-0.9-1.3-2.5-1.3c-1.3,0-2.7,0.6-3,1.8h-3.6c0.4-2.6,2.9-4.6,6.5-4.6c5.6,0,6.1,3.6,6.1,4.7v7.2
			c0,0.7,0.2,1.7,0.4,2.3h-3.3C266.1,179.7,266,179.3,265.9,178.8z M265.8,173.4c-0.8,0.5-1.9,0.7-3.4,0.9c-1.8,0.2-2.8,0.6-2.8,1.6
			c0,0.8,0.9,1.3,2.3,1.3c2.1,0,3.9-0.7,3.9-2.5V173.4z"/> <path id="stretton-climate-care-logo-main-XMLID_28_" style="fill:#FFFFFF;" d="M276.8,180.1h-3.6v-20h3.6V180.1z"/> <path id="stretton-climate-care-logo-main-XMLID_30_" style="fill:#FFFFFF;" d="M292,176.3l-1.3,3.7h-3.8l6.5-18.7h4.5l6.5,18.7h-3.8l-1.3-3.7H292z M295.7,165.3
			l-2.6,7.7h5.2L295.7,165.3z"/> <path id="stretton-climate-care-logo-main-XMLID_33_" style="fill:#FFFFFF;" d="M312.7,180.4c-4.2,0-7.2-3.2-7.2-7.2c0-4,3-7.3,7.2-7.3c3.3,0,5.9,1.9,6.7,5h-3.8
			c-0.5-0.9-1.6-1.8-2.9-1.8c-2,0-3.6,1.8-3.6,4.1c0,2.2,1.6,4,3.6,4c1.3,0,2.5-0.8,2.9-1.8h3.8
			C318.6,178.5,316.1,180.4,312.7,180.4z"/> <path id="stretton-climate-care-logo-main-XMLID_35_" style="fill:#FFFFFF;" d="M328.3,180.1c-4.1,0.4-6.2-2-6.2-5.8v-4.9h-1.7v-3.2h1.7v-3.5h3.6v3.5h2.5v3.2h-2.5
			v4.9c0,1.9,0.9,2.7,2.7,2.6V180.1z"/> <path id="stretton-climate-care-logo-main-XMLID_37_" style="fill:#FFFFFF;" d="M342.3,176.8h9.3v3.3h-12.9v-18.7h3.6V176.8z"/> <path id="stretton-climate-care-logo-main-XMLID_39_" style="fill:#FFFFFF;" d="M366.8,173.2c0,4.1-3.2,7.2-7,7.2s-7-3.1-7-7.2c0-4.2,3.1-7.3,7-7.3
			S366.8,169,366.8,173.2z M363.2,173.2c0-2.4-1.5-4.1-3.4-4.1c-1.9,0-3.4,1.7-3.4,4.1c0,2.3,1.5,4,3.4,4
			C361.7,177.1,363.2,175.5,363.2,173.2z"/> <path id="stretton-climate-care-logo-main-XMLID_42_" style="fill:#FFFFFF;" d="M375.6,180.4c-4.2,0-7.2-3.2-7.2-7.2c0-4,3-7.3,7.2-7.3c3.3,0,5.9,1.9,6.7,5h-3.8
			c-0.5-0.9-1.6-1.8-2.9-1.8c-2,0-3.6,1.8-3.6,4.1c0,2.2,1.6,4,3.6,4c1.3,0,2.5-0.8,2.9-1.8h3.8C381.5,178.5,379,180.4,375.6,180.4z
			"/> <path id="stretton-climate-care-logo-main-XMLID_44_" style="fill:#FFFFFF;" d="M393.7,178.8c-0.9,1-2.3,1.6-4.3,1.6c-2.9,0-5.6-1.5-5.6-4.5c0-3.1,2.6-3.9,5.7-4.2
			c2.3-0.2,4-0.5,4-1.6c0-0.7-0.9-1.3-2.5-1.3c-1.3,0-2.7,0.6-3,1.8h-3.6c0.3-2.6,2.9-4.6,6.5-4.6c5.6,0,6.1,3.6,6.1,4.7v7.2
			c0,0.7,0.2,1.7,0.4,2.3h-3.3C393.9,179.7,393.8,179.3,393.7,178.8z M393.6,173.4c-0.8,0.5-1.9,0.7-3.4,0.9
			c-1.8,0.2-2.8,0.6-2.8,1.6c0,0.8,0.9,1.3,2.3,1.3c2.1,0,3.9-0.7,3.9-2.5V173.4z"/> <path id="stretton-climate-care-logo-main-XMLID_47_" style="fill:#FFFFFF;" d="M404,180.1h-3.6v-20h3.6V180.1z"/> </g> <g> <path id="stretton-climate-care-logo-main-XMLID_145_" style="fill:#FFFFFF;" d="M438.2,75.1c-0.3-0.4-8-10.4-20.7-20.4c-1.6-1.3-3.3-2.5-5-3.7
			C396.8,39.8,380.4,34,364.6,34c-5.9,0-12.7,1-20.2,2.8c-8.6-5.8-28.4-17.9-43.1-17.9c-11.9,0-26,5.7-36,10.7
			C233.7,12.6,209.3,4,192.6,4C181,4,167.9,9.2,155,16.8c-33.8,19.9-66.6,56.3-68.5,58.4l-3.6,4H98l0.6-0.6
			c8.4-8.9,28.9-29.7,50.8-45.1c14.9-10.5,30.4-18.5,43.2-18.5c14.2,0,35.7,7.6,64,22.6c2.5,1.3,5.1,2.7,7.6,4.1
			c9,5,18.3,10.5,27.8,16.4c-12.4,6.5-23.1,13-30.1,17.4l-5.6,3.5h21.4l0.4-0.3c8.8-5.2,17.5-10,25.8-14.1c2.6-1.3,5.2-2.6,7.7-3.7
			c11.7-5.5,22.4-9.7,31.7-12.4c2.5-0.7,4.9-1.3,7.3-1.8c5.2-1.1,10-1.7,14.1-1.7c19.8,0,37,10.6,48.8,20.6
			c5.7,4.8,10.2,9.5,13.1,12.8l0.6,0.6h14.2L438.2,75.1z M303.7,52.4c-6.3-4.1-15.6-9.9-26.2-16c7.3-3.1,16.5-6.3,23.9-6.3
			c6.7,0,16.9,3.9,28.9,11C322.1,44,313.1,47.8,303.7,52.4z"/> </g> </g> </symbol><symbol viewBox="0 0 1716 274.7" id="icon-stretton-climate-care-logo-type"><title>stretton-climate-care-logo-type</title> <g> <path style="fill:#0B556D;" d="M396.3,70.5h-19.1c0-8.7-7.2-15.2-19.4-15.2c-10.1,0-19.5,3.9-19.5,11.6c0,6.9,6.8,9.4,22.1,12.6
		c23.8,4.8,38.8,10.7,38.8,31.2c0,19.4-16.2,31.5-41.4,31.5c-19.6,0-41-10.8-41-35h19.1c0,11.8,11.8,17.5,22,17.5
		c11,0,22.4-3.9,22.4-13.4c0-6.4-5.2-10.3-23.7-13.9c-18.5-3.6-37.3-9.1-37.3-30.6c0-17.2,15.2-29.2,38.6-29.2
		C384.3,37.5,396.3,54.6,396.3,70.5z"/> <path style="fill:#0B556D;" d="M445.9,140.2c-21.8,2.3-33.4-10.8-33.4-31.2v-62h19.1V66h13.4v16.9h-13.4v26.3
		c0,10.4,4.8,14.3,14.3,13.7V140.2z"/> <path style="fill:#0B556D;" d="M501.8,82.5c-12.1-2.2-20.2,4.3-20.2,14.9v43h-19.1v-43c0-21.1,14.6-35.8,39.3-32.8V82.5z"/> <path style="fill:#0B556D;" d="M581.1,116.7c-4.3,15.2-17.5,25.4-36,25.4c-21.1,0-38.1-17.3-38.1-38.9s17-39.1,38.1-39.1
		c17.9,0,32.9,11.3,36.5,31.2l-52.6,22.1c3.8,5.1,9.4,7.9,15.9,7.9c6.2,0,12.6-2.7,15.7-8.7H581.1z M559.7,87.5
		c-3.5-4.2-8.7-6.6-14.7-6.6c-11,0-19.8,8.7-20.2,21.4L559.7,87.5z"/> <path style="fill:#0B556D;" d="M626.6,140.2c-21.8,2.3-33.4-10.8-33.4-31.2v-62h19.1V66h13.4v16.9h-13.4v26.3
		c0,10.4,4.8,14.3,14.3,13.7V140.2z"/> <path style="fill:#0B556D;" d="M671.8,140.2c-21.8,2.3-33.4-10.8-33.4-31.2v-62h19.1V66h13.4v16.9h-13.4v26.3
		c0,10.4,4.8,14.3,14.3,13.7V140.2z"/> <path style="fill:#0B556D;" d="M756.7,103.3c0,22.2-16.9,38.9-37.6,38.9c-20.7,0-37.4-16.6-37.4-38.9s16.8-39.1,37.4-39.1
		C739.8,64.1,756.7,81,756.7,103.3z M737.5,103.4c0-12.9-8.2-21.8-18.3-21.8c-10.1,0-18.3,9-18.3,21.8c0,12.6,8.2,21.2,18.3,21.2
		C729.3,124.6,737.5,116,737.5,103.4z"/> <path style="fill:#0B556D;" d="M802.6,64.1c20.8,0,33.1,13.7,33.1,33.2v43h-19.1V96.9c0-4.2-1.4-14.2-14-14.2
		c-8.4,0-14.4,5.8-14.4,14.2v43.5h-19.1v-43C769.1,78.4,782.4,64.1,802.6,64.1z"/> <path style="fill:#159B42;" d="M900.7,142.1c-27.3,0-48.5-23-48.5-52.3s21.2-52.3,48.5-52.3c22.7,0,39.4,12.9,45.6,33.4h-20.7
		c-4.5-9.1-13.4-15.9-25-15.9c-16.5,0-29.5,15.9-29.5,34.8c0,19.1,13,35,29.5,35c11.4,0,20.5-7.1,25-16.2h20.5
		C939.8,129,922.9,142.1,900.7,142.1z"/> <path style="fill:#159B42;" d="M957.2,32.9h19.2v76.3c0,10.5,4.8,14.3,14.2,13.7v17.3c-21.8,2.3-33.4-10.7-33.4-31.1V32.9z"/> <path style="fill:#159B42;" d="M1008.3,57.9V47.2c0-5.3,4.3-9.5,9.7-9.5c5.2,0,9.5,4.2,9.5,9.5v10.7H1008.3z M1027.5,140.4h-19.1
		V66h19.1V140.4z"/> <path style="fill:#159B42;" d="M1157.2,140.4h-19.1V96.9c0-4.2-1.4-14.2-14-14.2c-8.4,0-14.4,5.8-14.4,14.2v43.5h-19.1V96.9
		c0-4.2-1.3-14.2-13.9-14.2c-8.5,0-14.4,5.8-14.4,14.2v43.5h-19.1v-43c0-18.9,13.1-33.2,33.5-33.2c10.1,0,18.3,4,23.7,10.5
		c5.6-6.5,14-10.5,23.7-10.5c20.8,0,33.1,13.7,33.1,33.2V140.4z"/> <path style="fill:#159B42;" d="M1246,140.4h-18.1v-7.8c-5.6,6.2-13.7,9.4-22.7,9.4c-19.6,0-35.7-17.3-35.7-38.7
		c0-21.5,15.7-39.1,38.3-39.1c22.4,0,38.1,17.6,38.1,39.1V140.4z M1207.9,82c-10.5,0-19.1,9.1-19.1,21.4c0,11.8,8.5,20.9,19.1,20.9
		s19.1-9.4,19.1-20.9C1226.9,91.6,1218.4,82,1207.9,82z"/> <path style="fill:#159B42;" d="M1291.5,140.2c-21.8,2.3-33.4-10.8-33.4-31.2v-62h19.1V66h13.4v16.9h-13.4v26.3
		c0,10.4,4.8,14.3,14.3,13.7V140.2z"/> <path style="fill:#159B42;" d="M1376.3,116.7c-4.3,15.2-17.5,25.4-36,25.4c-21.1,0-38.1-17.3-38.1-38.9s17-39.1,38.1-39.1
		c17.9,0,32.9,11.3,36.5,31.2l-52.6,22.1c3.8,5.1,9.4,7.9,15.9,7.9c6.2,0,12.6-2.7,15.7-8.7H1376.3z M1354.9,87.5
		c-3.5-4.2-8.7-6.6-14.7-6.6c-11,0-19.8,8.7-20.2,21.4L1354.9,87.5z"/> <path style="fill:#0B556D;" d="M1438.4,142.1c-27.3,0-48.5-23-48.5-52.3s21.2-52.3,48.5-52.3c22.7,0,39.4,12.9,45.6,33.4h-20.7
		c-4.5-9.1-13.4-15.9-25-15.9c-16.5,0-29.5,15.9-29.5,34.8c0,19.1,13,35,29.5,35c11.4,0,20.5-7.1,25-16.2h20.5
		C1477.5,129,1460.6,142.1,1438.4,142.1z"/> <path style="fill:#0B556D;" d="M1568.8,140.4h-18.1v-7.8c-5.6,6.2-13.7,9.4-22.7,9.4c-19.6,0-35.7-17.3-35.7-38.7
		c0-21.5,15.7-39.1,38.3-39.1c22.4,0,38.1,17.6,38.1,39.1V140.4z M1530.6,82c-10.5,0-19.1,9.1-19.1,21.4c0,11.8,8.5,20.9,19.1,20.9
		s19.1-9.4,19.1-20.9C1549.7,91.6,1541.2,82,1530.6,82z"/> <path style="fill:#0B556D;" d="M1624.2,82.5c-12.1-2.2-20.2,4.3-20.2,14.9v43h-19.1v-43c0-21.1,14.6-35.8,39.3-32.8V82.5z"/> <path style="fill:#0B556D;" d="M1704.2,116.7c-4.3,15.2-17.5,25.4-36,25.4c-21.1,0-38.1-17.3-38.1-38.9s17-39.1,38.1-39.1
		c17.9,0,32.9,11.3,36.5,31.2l-52.6,22.1c3.8,5.1,9.4,7.9,15.9,7.9c6.2,0,12.6-2.7,15.7-8.7H1704.2z M1682.9,87.5
		c-3.5-4.2-8.7-6.6-14.7-6.6c-11,0-19.8,8.7-20.2,21.4L1682.9,87.5z"/> </g> <g> <path style="fill:#088031;" d="M341.1,189.1v41.2h-9.5v-41.2h-13.4v-8.9h36.4v8.9H341.1z"/> <path style="fill:#088031;" d="M393.3,230.3h-9.5v-21.7c0-2.2-0.7-7.1-6.9-7.1c-4.3,0-7.2,2.9-7.2,7.1v21.7H360v-53.7h9.6v18.5
		c2.4-1.8,5.3-2.9,8.5-2.9c9.1,0,15.2,6.6,15.2,16.4V230.3z"/> <path style="fill:#088031;" d="M415.1,189.1h-9.5v-8.9h9.5V189.1z M415.1,230.3h-9.5v-37.2h9.5V230.3z"/> <path style="fill:#088031;" d="M457.2,230.3h-9.5v-21.7c0-2.2-0.7-7.4-6.9-7.4c-4.3,0-7.2,3.2-7.2,7.4v21.7h-9.5v-37.2h9.1v3.6
		c2.4-2.8,5.6-4.5,9.6-4.5c8.7,0,14.5,6.6,14.5,16.4V230.3z"/> <path style="fill:#088031;" d="M474.8,219.6v10.7h-9.5v-53.7h9.5v30l12.2-13.5h13.1l-13.9,14.5l14.7,22.7h-12.1l-9.2-15.7
		L474.8,219.6z"/> <path style="fill:#088031;" d="M573.8,230.3H565v-5.4c-3.3,4-8.7,6.3-14.9,6.3c-13.6,0-24.3-11.4-24.3-26.1
		c0-14.7,10.7-26.1,24.3-26.1c11.1,0,19.6,6.3,22.7,16.7h-10.3c-1.9-4.4-6.7-8-12.5-8c-8.3,0-14.8,7.9-14.8,17.5
		c0,9.5,6.7,17.4,15.2,17.4c7.1,0,12.7-4.9,14.5-11.2h-13.6v-8.9h22.3V230.3z"/> <path style="fill:#088031;" d="M591.5,230.3H582v-53.7h9.5V230.3z"/> <path style="fill:#088031;" d="M636.4,211.8c0,11.1-8.4,19.4-18.8,19.4s-18.7-8.3-18.7-19.4s8.4-19.6,18.7-19.6
		S636.4,200.7,636.4,211.8z M626.8,211.8c0-6.4-4.1-10.9-9.2-10.9s-9.2,4.5-9.2,10.9c0,6.3,4.1,10.6,9.2,10.6
		S626.8,218.1,626.8,211.8z"/> <path style="fill:#088031;" d="M663.7,231.1c-4.5,0-8.4-1.7-11.3-4.8v4h-9.2v-53.7h9.6v20.1c2.8-2.7,6.6-4.3,10.9-4.3
		c9.7,0,17.7,8.4,17.7,19.4C681.4,222.8,673.5,231.1,663.7,231.1z M662.4,201.2c-5.3,0-9.5,4.8-9.5,10.7c0,5.8,4.3,10.5,9.5,10.5
		c5.3,0,9.5-4.5,9.5-10.5C671.9,205.8,667.6,201.2,662.4,201.2z"/> <path style="fill:#088031;" d="M712.3,226.9c-2.5,2.6-6.2,4.2-11.4,4.2c-7.9,0-15.1-4-15.1-12.1c0-8.4,7-10.5,15.2-11.3
		c6.2-0.6,10.6-1.3,10.6-4.3c0-1.9-2.5-3.5-6.8-3.5c-3.4,0-7.3,1.5-8.2,4.7h-9.5c0.9-7.1,7.7-12.3,17.5-12.3
		c15.1,0,16.2,9.7,16.2,12.7v19.4c0,1.8,0.6,4.6,1.1,6.1h-8.7C712.8,229.4,712.6,228.2,712.3,226.9z M712,212.4
		c-2,1.3-5.1,1.9-9,2.4c-4.7,0.5-7.6,1.5-7.6,4.3c0,2.1,2.5,3.5,6.3,3.5c5.7,0,10.3-2,10.3-6.7V212.4z"/> <path style="fill:#088031;" d="M741.5,230.3H732v-53.7h9.5V230.3z"/> <path style="fill:#088031;" d="M759.6,231.6c0,6.5-3.9,10-9.3,10.6v-4.5c3-0.7,4.5-2.9,4.5-6.1v-1.3h-5.4v-10.2h10.3V231.6z"/> <path style="fill:#088031;" d="M799.1,220.3l-3.4,10h-10.1l17.5-50.1h12.1l17.5,50.1h-10.1l-3.4-10H799.1z M809,190.8l-7,20.6h14
		L809,190.8z"/> <path style="fill:#088031;" d="M854.7,231.2c-11.2,0-19.2-8.7-19.2-19.4s8-19.6,19.2-19.6c9,0,15.7,5.1,17.9,13.4h-10.2
		c-1.3-2.5-4.3-4.7-7.7-4.7c-5.3,0-9.5,4.9-9.5,10.9c0,5.8,4.3,10.7,9.5,10.7c3.5,0,6.6-2.2,7.8-4.8h10.2
		C870.5,226.2,863.7,231.2,854.7,231.2z"/> <path style="fill:#088031;" d="M896.3,230.3c-10.9,1.2-16.7-5.4-16.7-15.6v-13.1h-4.5v-8.4h4.5v-9.5h9.5v9.5h6.7v8.4h-6.7v13.1
		c0,5.2,2.4,7.1,7.1,6.9V230.3z"/> <path style="fill:#088031;" d="M933.8,221.5h24.9v8.9h-34.5v-50.1h9.6V221.5z"/> <path style="fill:#088031;" d="M999.6,211.8c0,11.1-8.4,19.4-18.8,19.4s-18.7-8.3-18.7-19.4s8.4-19.6,18.7-19.6
		S999.6,200.7,999.6,211.8z M990,211.8c0-6.4-4.1-10.9-9.2-10.9s-9.2,4.5-9.2,10.9c0,6.3,4.1,10.6,9.2,10.6S990,218.1,990,211.8z"/> <path style="fill:#088031;" d="M1023.1,231.2c-11.2,0-19.2-8.7-19.2-19.4s8-19.6,19.2-19.6c9,0,15.7,5.1,17.9,13.4h-10.2
		c-1.3-2.5-4.3-4.7-7.7-4.7c-5.3,0-9.5,4.9-9.5,10.9c0,5.8,4.3,10.7,9.5,10.7c3.5,0,6.6-2.2,7.8-4.8h10.2
		C1038.9,226.2,1032.1,231.2,1023.1,231.2z"/> <path style="fill:#088031;" d="M1071.7,226.9c-2.5,2.6-6.2,4.2-11.4,4.2c-7.9,0-15.1-4-15.1-12.1c0-8.4,7-10.5,15.2-11.3
		c6.2-0.6,10.6-1.3,10.6-4.3c0-1.9-2.5-3.5-6.8-3.5c-3.4,0-7.3,1.5-8.2,4.7h-9.5c0.9-7.1,7.7-12.3,17.5-12.3
		c15.1,0,16.2,9.7,16.2,12.7v19.4c0,1.8,0.6,4.6,1.1,6.1h-8.7C1072.2,229.4,1071.9,228.2,1071.7,226.9z M1071.4,212.4
		c-2,1.3-5.1,1.9-9,2.4c-4.7,0.5-7.6,1.5-7.6,4.3c0,2.1,2.5,3.5,6.3,3.5c5.7,0,10.3-2,10.3-6.7V212.4z"/> <path style="fill:#088031;" d="M1099.1,230.3h-9.5v-53.7h9.5V230.3z"/> </g> <g id="stretton-climate-care-logo-type-ICON_copy"> <circle style="fill:#0B556D;" cx="138" cy="138.3" r="133.3"/> <g> <path style="fill:#FFFFFF;" d="M270.2,121.1c-15.5-10.8-31.9-16.6-47.4-16.6c-5.8,0-12.5,0.9-19.9,2.8
			c-10.3-6.9-28.8-17.7-43-17.7c-11.8,0-25.8,5.6-35.8,10.6C92.8,83.2,68.5,74.6,51.8,74.6c-10.4,0-22.8,4.1-36.9,12.3
			c-2.6,6.1-4.7,12.5-6.3,19l2.5-1.7c16.4-11.3,30.1-17,40.6-17c13.8,0,35.7,7.7,63.3,22.4c2.5,1.3,5,2.7,7.6,4.1
			c8.6,4.8,17.5,10,26.5,15.6c-11.8,6.3-22.1,12.5-28.9,16.7l-7.7,4.9h24l0.6-0.4c8.8-5.2,17.4-9.9,25.6-14c2.6-1.3,5.1-2.5,7.6-3.7
			c11.6-5.5,22.2-9.6,31.3-12.2c2.5-0.7,4.9-1.3,7.2-1.8c5.1-1.1,9.8-1.7,13.9-1.7c19.2,0,36,10.5,46.8,19.3l1.7,1.4
			C271.3,132.2,270.9,126.6,270.2,121.1z M162.2,122.7c-6-3.9-14.6-9.3-24.5-15c6.9-2.9,15.3-5.6,22.1-5.6c6.3,0,15.8,3.5,27,10
			C179.3,114.9,171,118.5,162.2,122.7z"/> </g> </g> </symbol><symbol viewBox="0 0 289.3 88.9" id="icon-the-giving-machine"><title>the-giving-machine</title> <path style="fill:#FFFFFF;" d="M30.4,78.3c0,0.3,0,0.5,0,0.8c7.9,6.2,14.3,9.7,14.4,9.7l0.2,0.1l0.2-0.1c0.1,0,3.7-2.1,8.9-5.7
	c0.6-1.5,0.9-3.1,0.9-4.8c0-7-5.5-12.7-12.3-12.7C35.9,65.7,30.4,71.3,30.4,78.3 M211.4,61.7v16.6c0,2.1,1.1,3.5,2.9,3.5
	c1.8,0,2.9-1.4,2.9-3.5V61.7c0-2.1-1.2-3.5-2.9-3.5C212.5,58.2,211.4,59.6,211.4,61.7 M253.5,63.3c2.8,0,4.5,1.8,4.8,4.7h-9.6
	C249,65,250.8,63.3,253.5,63.3 M242.6,70c0,6.9,4.5,12,11.3,12c4.5,0,9.8-2.6,9.8-5.3c0-1.3-1.2-2.7-2.5-2.7c-1.6,0-3.7,2.5-6.8,2.5
	c-2.8,0-5.3-1.4-5.7-4.4h12.9c1.8,0,2.6-1,2.6-2.9c0-5.2-4.3-11.4-10.9-11.4C247.1,58,242.6,63.7,242.6,70 M149.8,70
	c0-3,1.5-6.3,4.8-6.3c3.2,0,4.6,3.4,4.6,6.3c0,3-1.5,6.3-4.6,6.3C151.3,76.3,149.8,73,149.8,70 M143.8,70c0,7,4.3,12,10,12
	c2.3,0,4.2-1,5.8-2.9c0.4,1.6,1.2,2.6,2.9,2.6c2.9,0,3-2.5,3-4.1V62.3c0-1.6-0.1-4.1-3-4.1c-1.5,0-2.8,1.1-3,2.6
	c-1.3-1.9-3.5-2.8-5.7-2.8C148.2,58,143.8,63.2,143.8,70 M167.8,70c0,6.5,4.3,12,10.8,12c2.2,0,7.4-1.1,7.4-4.3
	c0-1.5-1.2-2.7-2.6-2.7c-0.7,0-3,1.3-4.5,1.3c-3.3,0-5.1-3.2-5.1-6.3c0-3.2,1.6-6.3,5.1-6.3c1.9,0,3.3,1.2,4.8,1.2
	c1.4,0,2.3-1.7,2.3-3c0-3-5-3.9-7.4-3.9C172.2,58,167.8,63.7,167.8,70 M226.4,60.5c-0.2-1.4-1.2-2.3-2.8-2.3c-1.8,0-3,1.4-3,3.5
	v16.6c0,2.1,1.1,3.5,2.9,3.5c1.8,0,2.9-1.4,2.9-3.5V67.4c0-2.4,1.6-4.3,4-4.3c2.2,0,4.1,1.4,4.1,4.3v10.8c0,2.1,1.1,3.5,2.9,3.5
	s2.9-1.4,2.9-3.5V66.4c0-5.3-3.5-8.4-8.2-8.4C229.4,58,227.6,58.8,226.4,60.5 M265.8,57.2c-0.3,0-0.5,0.3-0.5,0.6
	c0,0.2,0.1,0.6,0.5,0.6h0.8v3.4c0,0.4,0.3,0.6,0.6,0.6c0.3,0,0.6-0.2,0.6-0.6v-3.4h0.6c0.3,0,0.5-0.4,0.5-0.6c0-0.3-0.2-0.6-0.5-0.6
	H265.8z M269.6,57.7l-0.7,4c0,0,0,0.1,0,0.1c0,0.3,0.2,0.5,0.5,0.5c0.4,0,0.5-0.1,0.5-0.5l0.4-2.9h0l0.8,3c0,0.2,0.2,0.4,0.6,0.4
	c0.4,0,0.5-0.2,0.6-0.4l0.8-3h0l0.4,2.9c0,0.3,0.2,0.5,0.5,0.5c0.3,0,0.5-0.2,0.5-0.5c0,0,0-0.1,0-0.1l-0.6-4c0-0.3-0.3-0.5-0.7-0.5
	c-0.4,0-0.6,0.3-0.7,0.6l-0.8,3h0l-0.8-3c-0.1-0.3-0.3-0.7-0.7-0.7C269.9,57.2,269.7,57.5,269.6,57.7 M47.4,51.2L45,56.4
	c0,0.1,0,0.1-0.1,0.2c-2.6-0.3-5.2-0.1-7.6,0.6c0-0.1,0-0.1-0.1-0.2l-3-4.8c-0.3-0.4-0.8-0.6-1.2-0.3l-1.7,0.9
	c-0.4,0.2-0.8,0.4-0.8,0.4c0,0-0.4,0.2-0.8,0.4L28,54.4c-0.4,0.2-0.6,0.8-0.5,1.2l1.9,5.4c0,0.1,0.1,0.1,0.1,0.2
	c-2,1.6-3.7,3.6-5,5.9c-0.1,0-0.1,0-0.2-0.1l-5.4-1.2c-0.5-0.1-1,0.2-1.1,0.7l-0.3,1c1.4,1.4,2.8,2.9,4.4,4.3c1.7,1.6,3.4,3.1,5,4.4
	c0.1-1.1,0.4-2.2,0.7-3.3c2.8-8.5,11.8-13.2,20-10.3c7.3,2.5,11.6,9.9,10.7,17.5c1.7-1.3,3.4-2.7,5.2-4.2c-0.1-1.1-0.3-2.2-0.6-3.3
	c0,0,0.1,0,0.1-0.1l4.6-3.1c0.4-0.3,0.5-0.8,0.3-1.3l-0.8-1.7c-0.2-0.4-0.4-0.8-0.4-0.8c0,0-0.2-0.4-0.4-0.8L65.6,63
	c-0.2-0.4-0.7-0.7-1.2-0.5l-5.2,1.9c-0.1,0-0.1,0-0.1,0.1c-1.6-2-3.5-3.8-5.7-5.1c0-0.1,0-0.1,0-0.2l1.1-5.6c0.1-0.5-0.2-1-0.6-1.1
	L52,51.9c-0.4-0.2-0.8-0.3-0.9-0.3c0,0-0.4-0.1-0.9-0.3l-1.8-0.6c-0.1,0-0.2,0-0.3,0C47.9,50.6,47.5,50.8,47.4,51.2 M129.7,53.5
	l-4.9,17h-0.1l-4.9-17c-0.5-1.6-2.1-3-4.2-3c-2.2,0-3.9,1.8-4.1,3.3l-3.9,24.1c0,0.3,0,0.5,0,0.7c0,1.9,1.3,3.1,3,3.1
	c2.1,0,3-1.1,3.3-3.1l2.5-17.7h0.1l5,18.2c0.3,1,1.1,2.6,3.4,2.6s3.1-1.5,3.4-2.6l5-18.2h0.1l2.5,17.7c0.3,2,1.1,3.2,3.3,3.2
	c1.7,0,3-1.2,3-3.1c0-0.2,0-0.5,0-0.7L138,53.8c-0.3-1.6-1.9-3.4-4.1-3.4C131.8,50.4,130.1,51.9,129.7,53.5 M210.9,52.3
	c0,1.9,1.6,3.6,3.4,3.6c1.9,0,3.4-1.6,3.4-3.6c0-1.8-1.6-3.4-3.4-3.4C212.5,48.9,210.9,50.6,210.9,52.3 M188.1,51.7v26.6
	c0,2.1,1.1,3.5,2.9,3.5c1.8,0,2.9-1.4,2.9-3.5V67.4c0-2.4,1.6-4.3,4-4.3c2.2,0,4.1,1.4,4.1,4.3v10.8c0,2.1,1.2,3.5,2.9,3.5
	c1.8,0,2.9-1.4,2.9-3.5V66.4c0-5.3-3.5-8.3-8.2-8.3c-1.9,0-4.2,0.4-5.5,2.2h-0.3v-8.6c0-2.1-1.1-3.5-2.9-3.5
	C189.3,48.2,188.1,49.6,188.1,51.7 M8.3,46.8l-2.8,3c0,0-0.1,0.1-0.1,0.1c-0.5-0.3-1.1-0.5-1.6-0.7c0.5,1,1,1.9,1.6,2.9
	c2.6,4.4,5.9,8.7,9.8,13l3-0.8c0.3-0.1,0.6-0.4,0.5-0.8l-0.2-1.4c0-0.3-0.1-0.6-0.1-0.7c0,0,0-0.3-0.1-0.7l-0.2-1.4
	c0-0.3-0.4-0.6-0.7-0.6l-4,0.1c0,0-0.1,0-0.1,0c-0.6-1.8-1.6-3.5-2.8-4.9c0,0,0-0.1,0.1-0.1l2-3.6c0.1-0.2,0.1-0.5,0-0.7
	c0-0.1-0.1-0.2-0.2-0.2l-1.1-0.9c-0.3-0.2-0.5-0.4-0.5-0.4c0,0-0.2-0.2-0.5-0.4l-1.1-0.9c-0.1-0.1-0.3-0.1-0.4-0.1
	C8.7,46.6,8.5,46.7,8.3,46.8 M62.9,40.7c0,5.1,4,9.2,8.9,9.2c4.9,0,8.9-4.1,8.9-9.2c0-5.1-4-9.2-8.9-9.2
	C66.8,31.5,62.9,35.6,62.9,40.7 M207.9,20.9v16.6c0,2.1,1.1,3.5,2.9,3.5c1.8,0,2.9-1.4,2.9-3.5V20.9c0-2.1-1.2-3.5-2.9-3.5
	C209,17.5,207.9,18.8,207.9,20.9 M215.5,20.5c0,0.6,0.1,1,0.4,1.8l6.1,16.1c0.6,1.6,1.2,2.6,3.3,2.6c2.1,0,2.7-1,3.3-2.6l6.1-16.1
	c0.3-0.8,0.4-1.2,0.4-1.8c0-2-1.5-3-3.1-3c-1.7,0-2.4,1.3-2.7,2.2l-3.9,12.3h-0.1l-3.9-12.3c-0.3-1-1-2.3-2.7-2.3
	C217,17.5,215.5,18.5,215.5,20.5 M237,20.9v16.6c0,2.1,1.2,3.5,2.9,3.5c1.8,0,2.9-1.4,2.9-3.5V20.9c0-2.1-1.2-3.5-2.9-3.5
	C238.1,17.5,237,18.8,237,20.9 M161.1,22.5c2.8,0,4.5,1.8,4.8,4.7h-9.6C156.6,24.3,158.4,22.5,161.1,22.5 M150.3,29.3
	c0,6.9,4.5,12,11.3,12c4.5,0,9.8-2.6,9.8-5.3c0-1.3-1.2-2.7-2.5-2.7c-1.6,0-3.7,2.5-6.8,2.5c-2.8,0-5.3-1.4-5.7-4.4h12.9
	c1.8,0,2.6-1,2.6-2.9c0-5.2-4.3-11.4-10.9-11.4C154.7,17.2,150.3,23,150.3,29.3 M251,19.8c-0.2-1.4-1.3-2.3-2.8-2.3
	c-1.8,0-3.1,1.4-3.1,3.5v16.6c0,2.1,1.4,3.5,3.2,3.5c1.8,0,3.2-1.4,3.2-3.5V26.7c0-2.4,1.3-4.3,3.7-4.3c2.2,0,3.8,1.4,3.8,4.3v10.8
	c0,2.1,1.1,3.5,2.9,3.5c1.8,0,2.9-1.4,2.9-3.5V25.6c0-5.3-3.4-8.4-8.2-8.4C253.9,17.2,252.2,18.1,251,19.8 M273.7,29.2
	c0-2.9,1.6-6.3,4.7-6.3c3.3,0,4.7,3.5,4.7,6.5s-1.5,6.1-4.7,6.1C275.3,35.5,273.7,32.5,273.7,29.2 M267.7,29.2
	c0,6.2,3,11.9,9.3,11.9c2.7,0,4.7-0.6,5.9-2.8v1.5c0,3.2-2.1,4.9-5,4.9c-3.5,0-5.5-1.9-7.4-1.9c-1.2,0-2.4,1.6-2.4,2.7
	c0,3.4,7.1,4.7,9.5,4.7c6.9,0,11.7-3.8,11.7-11.2v-18c0-2.1-1.3-3.5-3.1-3.5c-1.7,0-2.7,0.9-3.1,2.6c-1.1-1.9-3.5-2.9-5.5-2.9
	C271.6,17.2,267.7,23,267.7,29.2 M59,40.7c0-7.3,5.7-13.2,12.8-13.2c7.1,0,12.8,5.9,12.8,13.2c0,7.3-5.7,13.2-12.8,13.2
	C64.7,53.9,59,48,59,40.7 M71,16.7l-1.6,0.2C69,16.9,68.7,17,68.7,17c0,0-0.4,0.1-0.8,0.1l-1.6,0.2c-0.4,0.1-0.7,0.4-0.7,0.9
	l0.1,4.9c0,0,0,0.1,0,0.1c-2.1,0.8-3.9,1.9-5.5,3.4c0,0-0.1-0.1-0.1-0.1L56,24c-0.3-0.2-0.8-0.1-1.1,0.2l-1,1.3
	c-0.2,0.3-0.5,0.6-0.5,0.6c0,0-0.2,0.3-0.5,0.6l-1,1.3c-0.2,0.3-0.2,0.8,0.1,1.1l3.4,3.4c0,0,0.1,0.1,0.1,0.1
	c-0.9,2-1.5,4.2-1.6,6.5c0,0-0.1,0-0.1,0l-4.6,1.2c-0.4,0.1-0.7,0.5-0.6,0.9l0.2,1.6c0.1,0.4,0.1,0.8,0.1,0.8c0,0,0.1,0.4,0.1,0.8
	l0.2,1.6c0.1,0.4,0.4,0.7,0.8,0.7l4.7-0.1c0,0,0.1,0,0.1,0c0.8,2.2,1.9,4.1,3.3,5.8c0,0,0,0.1-0.1,0.1l-2.4,4.2
	c-0.1,0.2-0.1,0.5,0,0.8c0.1,0.1,0.1,0.3,0.3,0.4l1.3,1c0.3,0.2,0.6,0.5,0.6,0.5c0,0,0.3,0.2,0.6,0.5l1.3,1c0.3,0.2,0.8,0.2,1.1-0.1
	l3.3-3.5c0,0,0.1-0.1,0.1-0.1c1.9,0.9,4.1,1.5,6.3,1.7c0,0,0,0.1,0,0.1l1.2,4.7c0.1,0.4,0.5,0.7,0.9,0.6l1.6-0.2
	c0.4-0.1,0.7-0.1,0.8-0.1c0,0,0.2,0,0.5-0.1c0.9-1,1.7-2,2.5-3l-0.1-2.9c0,0,0-0.1,0-0.1c1.4-0.5,2.6-1.2,3.8-2
	c0.8-1.1,1.5-2.2,2.1-3.4c3.6-6.1,5.9-12.3,6.8-18.4l-1.9,0c0,0-0.1,0-0.1,0c-0.8-2.2-1.9-4.1-3.3-5.8c0,0,0-0.1,0.1-0.1l2.4-4.2
	c0.1-0.3,0.1-0.6,0-0.9c-0.1-0.1-0.1-0.2-0.2-0.3l-1.3-1c-0.3-0.2-0.6-0.5-0.6-0.5c0,0-0.3-0.2-0.6-0.5l-1.3-1
	c-0.3-0.2-0.8-0.2-1.1,0.1l-3.3,3.5c0,0-0.1,0.1-0.1,0.1c-1.9-0.9-4.1-1.5-6.3-1.7c0,0,0-0.1,0-0.1l-1.2-4.7
	c-0.1-0.4-0.4-0.6-0.8-0.6C71.1,16.7,71.1,16.7,71,16.7 M108.8,9.9c-1.8,0-2.9,1.5-2.9,3c0,1.5,0.8,3,2.9,3h4.8v21.7
	c0,2.2,1.1,3.4,2.9,3.4c1.8,0,2.9-1.2,2.9-3.4V15.9h4.8c2,0,2.8-1.5,2.8-3c0-1.5-1-3-2.8-3H108.8z M177.5,25.3
	c0,8.9,5.9,15.9,14.4,15.9c8.4,0,13.7-6.3,13.7-14.6c0-2.8-1-4.1-3.7-4.1h-7.1c-1.6,0-2.9,1.1-2.9,3c0,1.8,1.2,3,2.9,3h4.3
	c0,4.8-3.8,6.8-7.1,6.8c-5.3,0-7.9-4.7-7.9-9.9c0-5.2,2.6-9.9,7.9-9.9c5.5,0,6.1,3.2,8.9,3.2c1.5,0,2.6-1.2,2.6-3
	c0-3-5.2-6.1-11.5-6.1C183.3,9.4,177.5,16.3,177.5,25.3 M207.5,11.6c0,1.9,1.6,3.6,3.4,3.6c1.9,0,3.4-1.6,3.4-3.6
	c0-1.8-1.6-3.4-3.4-3.4C209.1,8.1,207.5,9.8,207.5,11.6 M236.6,11.6c0,1.9,1.6,3.6,3.4,3.6c1.9,0,3.4-1.6,3.4-3.6
	c0-1.8-1.6-3.4-3.4-3.4C238.2,8.1,236.6,9.8,236.6,11.6 M128.2,10.9v26.6c0,2.1,1.4,3.5,3.2,3.5c1.8,0,3.2-1.4,3.2-3.5V26.7
	c0-2.4,1.3-4.3,3.7-4.3c2.2,0,3.8,1.4,3.8,4.3v10.8c0,2.1,1.2,3.5,2.9,3.5c1.8,0,2.9-1.4,2.9-3.5V25.6c0-5.3-3.4-8.3-8.2-8.3
	c-1.8,0-3.9,0.4-5.2,2v-8.3c0-2.1-1.4-3.5-3.2-3.5C129.6,7.5,128.2,8.8,128.2,10.9 M82.7,10.4c0,0-0.1,0-0.1,0.1l-3,2.7
	c-0.3,0.2-0.3,0.7-0.1,0.9l0.8,1.2c0.2,0.3,0.4,0.5,0.4,0.6c0,0,0.2,0.3,0.4,0.6l0.8,1.2c0.2,0.3,0.6,0.4,0.9,0.2l3.6-1.9
	c0,0,0.1,0,0.1-0.1c1.1,1.1,2.3,2,3.6,2.7c-1.7-4.6-4.5-8.6-8-11.8C81.9,8,82.3,9.2,82.7,10.4 M24.2,36.9c-4.5-0.9-7.4-5.4-6.5-10.1
	c0.9-4.6,5.3-7.6,9.8-6.7c4.5,0.9,7.4,5.4,6.5,10.1c-0.8,4.1-4.3,6.9-8.1,6.9C25.3,37.1,24.7,37,24.2,36.9 M27.2,2.6l-1.6,5.2
	c0,0.1,0,0.1,0,0.2c-2.5,0-4.9,0.5-7.1,1.5c0,0-0.1-0.1-0.1-0.1l-3.4-4.1c-0.3-0.4-0.8-0.4-1.2-0.2l-1.5,1c-0.4,0.3-0.7,0.5-0.7,0.5
	c0,0-0.3,0.2-0.7,0.5L9.3,8C8.9,8.2,8.8,8.8,9,9.2l2.4,4.9c0,0.1,0.1,0.1,0.1,0.2c-1.7,1.8-3,3.8-4,6.2c-0.1,0-0.1,0-0.2,0L2,19.9
	c-0.4,0-0.9,0.3-1,0.8l-0.4,1.8c-0.1,0.4-0.2,0.8-0.2,0.9c0,0-0.1,0.4-0.2,0.9L0,26c-0.1,0.4,0.2,0.9,0.6,1.1l5,1.7
	c0.1,0,0.1,0,0.2,0c0,2.5,0.5,5,1.4,7.3c-0.1,0-0.1,0.1-0.1,0.1l-4,3.5c-0.3,0.3-0.4,0.9-0.2,1.2l1,1.5c0.2,0.4,0.5,0.7,0.5,0.7
	c0,0,0.2,0.4,0.5,0.7l1,1.5C6.1,45.9,6.6,46,7,45.8l4.7-2.5c0.1,0,0.1-0.1,0.1-0.1c1.7,1.7,3.8,3.2,6,4.2c0,0,0,0.1,0,0.2L17.4,53
	c0,0.5,0.3,0.9,0.7,1l1.8,0.4c0.4,0.1,0.8,0.2,0.8,0.2c0,0,0.4,0.1,0.8,0.2l1.8,0.4c0.4,0.1,0.9-0.2,1-0.6l1.6-5.2
	c0-0.1,0-0.1,0-0.2c2.5,0,4.8-0.5,7.1-1.4c0,0,0,0.1,0.1,0.1l3.4,4.1c0.3,0.4,0.8,0.4,1.2,0.2l1.5-1c0.4-0.3,0.7-0.5,0.7-0.5
	c0,0,0.3-0.2,0.7-0.5l1.5-1c0.4-0.3,0.5-0.8,0.3-1.2l-2.4-4.9c0,0,0-0.1-0.1-0.1c1.7-1.8,3.1-3.9,4.1-6.2c0,0,0.1,0,0.1,0l5.3,0.4
	c0.4,0,0.9-0.3,1-0.8l0.4-1.8c0.1-0.5,0.2-0.8,0.2-0.9c0,0,0.1-0.4,0.2-0.9l0.4-1.8c0.1-0.5-0.2-0.9-0.6-1.1l-5-1.7c0,0-0.1,0-0.1,0
	c0-2.6-0.5-5.1-1.4-7.4c0,0,0.1,0,0.1-0.1l4-3.5c0.3-0.3,0.4-0.9,0.2-1.2l-1-1.5c-0.2-0.4-0.5-0.7-0.5-0.7c0,0-0.2-0.4-0.5-0.7
	l-1-1.5c-0.2-0.4-0.8-0.5-1.2-0.3l-4.7,2.5c0,0-0.1,0.1-0.1,0.1c-1.7-1.7-3.7-3.1-6-4.1c0-0.1,0-0.1,0-0.2l0.4-5.4
	c0-0.5-0.3-0.9-0.7-1l-1.8-0.4c-0.4-0.1-0.8-0.2-0.8-0.2c0,0-0.4-0.1-0.8-0.2L28.3,2c-0.1,0-0.1,0-0.2,0C27.7,2,27.4,2.2,27.2,2.6
	 M62.9,9.9c-0.2,0-0.5,0-0.7,0c-4.3-0.4-7.8-3.8-8.4-8c-1.4,0.6-2.8,1.2-4.1,2C50,5,50.4,6.1,50.9,7.1c0,0-0.1,0.1-0.1,0.1l-2.5,2.7
	c-0.2,0.2-0.2,0.6,0,0.9l0.8,1c0.2,0.2,0.4,0.4,0.4,0.5c0,0,0.2,0.2,0.4,0.5l0.8,1c0.2,0.2,0.6,0.3,0.8,0.1l3-2.1c0,0,0.1,0,0.1-0.1
	c1.3,1,2.8,1.8,4.4,2.3c0,0,0,0.1,0,0.1l0.1,3.7c0,0.3,0.3,0.6,0.6,0.6l1.2,0.1c0.3,0,0.6,0,0.6,0c0,0,0.3,0,0.6,0l1.2,0.1
	c0.3,0,0.6-0.2,0.7-0.5l0.7-3.7c0,0,0-0.1,0-0.1c1.7-0.2,3.2-0.8,4.7-1.6c0,0,0,0.1,0.1,0.1l2.7,2.5c0.2,0.2,0.6,0.2,0.8,0l0.9-0.8
	c0.2-0.2,0.4-0.4,0.4-0.4c0,0,0.2-0.2,0.4-0.4l0.9-0.8c0.2-0.2,0.3-0.6,0.1-0.8l-2-3.1c0,0,0,0-0.1-0.1c1-1.3,1.8-2.9,2.3-4.6
	c0,0,0.1,0,0.1,0l2-0.1c-1.9-1.2-3.9-2.2-6.1-2.9C71.6,6.2,67.6,9.9,62.9,9.9 M55.4,1.3c0.4,3.6,3.3,6.5,6.9,6.8c0.2,0,0.4,0,0.6,0
	c3.9,0,7.2-3.1,7.5-7.2c0,0,0-0.1,0-0.1C68.3,0.3,66,0,63.6,0C60.8,0,58.1,0.4,55.4,1.3"/> </symbol><symbol viewBox="0 0 32 32" id="icon-twitter"><title>twitter</title> <path d="M32 6.076c-1.177 0.522-2.443 0.875-3.771 1.034 1.355-0.813 2.396-2.099 2.887-3.632-1.269 0.752-2.674 1.299-4.169 1.593-1.198-1.276-2.904-2.073-4.792-2.073-3.626 0-6.565 2.939-6.565 6.565 0 0.515 0.058 1.016 0.17 1.496-5.456-0.274-10.294-2.888-13.532-6.86-0.565 0.97-0.889 2.097-0.889 3.301 0 2.278 1.159 4.287 2.921 5.465-1.076-0.034-2.088-0.329-2.974-0.821-0.001 0.027-0.001 0.055-0.001 0.083 0 3.181 2.263 5.834 5.266 6.437-0.551 0.15-1.131 0.23-1.73 0.23-0.423 0-0.834-0.041-1.235-0.118 0.835 2.608 3.26 4.506 6.133 4.559-2.247 1.761-5.078 2.81-8.154 2.81-0.53 0-1.052-0.031-1.566-0.092 2.905 1.863 6.356 2.95 10.064 2.95 12.076 0 18.679-10.004 18.679-18.68 0-0.285-0.006-0.568-0.019-0.849 1.283-0.926 2.396-2.082 3.276-3.398z"/> </symbol></svg>