<?xml version="1.0" encoding="UTF-8"?><!DOCTYPE svg PUBLIC "-//W3C//DTD SVG 1.1//EN" "http://www.w3.org/Graphics/SVG/1.1/DTD/svg11.dtd"><svg xmlns="http://www.w3.org/2000/svg"><symbol id="icon-24hrs-bg" viewBox="0 0 585 248"><path fill="#848C91" d="M96 77.2c7.9 5.9 11.9 14.2 11.9 24.7 0 7.2-2.1 13.9-6.2 20.1-4.1 6.2-9 11.6-14.7 16.4-5.6 4.8-13.4 10.7-23.3 17.7C51 165 42.1 172 37 177.3h57.2c4.8 0 8.3-.4 10.7-1.1 2.4-.7 4-1.9 4.9-3.4.9-1.6 1.6-4.1 2.1-7.4h5.6c0 20.8.4 35.7 1.1 44.7-3.9-.9-17-1.3-39.4-1.3H2v-5c2.3-2.5 6.8-6.7 13.5-12.7 10.2-9.3 18.7-17.7 25.5-25 6.8-7.3 12.7-15.8 17.7-25.4 5-9.6 7.5-19.6 7.5-30 0-9.3-2.1-16.2-6.2-20.5-4.1-4.3-10.3-6.5-18.4-6.5-7.4 0-14 1.7-19.7 5.2-5.7 3.4-11 8.5-15.7 15.2l-4.5-2.6c13.1-22.1 33.7-33.1 61.9-33.1 13.7-.1 24.4 2.8 32.4 8.8zM245 199.3v46.8h-30.7v-46.8H142v-5.6l98.7-125.5h4.2V172h2.1c4.8 0 8.3-.4 10.7-1.1 2.4-.7 4-1.9 4.9-3.4.9-1.6 1.6-4.1 2.1-7.4h5.6c0 18.7.4 32.2 1.1 40.5-2.1-.5-10.9-.9-26.4-1.3zM214.3 172v-61.7L166.4 172h47.9zM350.3 92.9c7.9-16.4 22.3-24.6 43.1-24.6 13.8 0 23.5 3.4 29.1 10.3 3 3.4 5.2 7.7 6.5 13.1 1.3 5.4 2 12.5 2 21.3v71.2c0 7.2 1.2 12.2 3.7 15 2.5 2.7 6.9 4.1 13.2 4.1v5.6c-18.4-.7-30-1.1-34.9-1.1-6 0-17.5.4-34.4 1.1v-5.6c5.3 0 9-1.4 11.1-4.1 2.1-2.7 3.2-7.7 3.2-15v-82.3c0-7.2-1.2-12.7-3.6-16.4s-6.7-5.6-12.8-5.6c-7.4 0-13.6 2.9-18.7 8.6-5 5.7-7.5 13-7.5 21.8v73.8c0 7.2 1.1 12.2 3.2 15 2.1 2.7 5.8 4.1 11.1 4.1v5.6c-16.9-.7-27.9-1.1-32.8-1.1-6 0-18.2.4-36.5 1.1v-5.6c6.2 0 10.5-1.4 13.1-4.1 2.6-2.7 3.8-7.7 3.8-15V33.6c0-8.1-1.3-14-3.8-17.7-2.6-3.7-6.9-5.6-13.1-5.6V4.8c5.6.5 11.1.8 16.4.8 15.4 0 28.2-1.2 38.6-3.7v91zM577.2 75.4c4.1 4.8 6.1 10.5 6.1 17.2 0 6.5-1.9 11.9-5.7 16-3.8 4.1-8.8 6.2-15 6.2-6 0-10.8-1.5-14.3-4.6-3.5-3.1-5.3-7.2-5.3-12.3 0-8.5 3.9-15.4 11.6-20.6-.7-.2-1.8-.3-3.2-.3-1.8 0-3.2.2-4.2.5-6.7 1.1-12.4 5.1-17.1 12.2-4.7 7.1-7 14.3-7 21.7v70.1c0 8.1 2 13.8 6 16.9 4 3.2 10.3 4.8 18.9 4.8v5.6c-2.5 0-4.5-.1-6.1-.3-18-.5-30-.8-36-.8-4.8 0-15.6.3-32.6.8-1.4.2-3.2.3-5.3.3v-5.6c6.4 0 10.8-1.4 13.2-4.1 2.5-2.7 3.7-7.7 3.7-15v-83.4c0-8.1-1.2-14-3.7-17.7-2.5-3.7-6.9-5.6-13.2-5.6V72c5.6.5 11.1.8 16.4.8 15.7 0 28.6-1.2 38.6-3.7v24.6c3.4-7.6 8.2-13.7 14.6-18.4 6.4-4.7 13.5-7 21.4-7 8.1 0 14.1 2.4 18.2 7.1z"/></symbol><symbol id="icon-facebook-f" viewBox="0 0 264 512"><path d="M76.7 512V283H0v-91h76.7v-71.7C76.7 42.4 124.3 0 193.8 0c33.3 0 61.9 2.5 70.2 3.6V85h-48.2c-37.8 0-45.1 18-45.1 44.3V192H256l-11.7 91h-73.6v229"/></symbol><symbol id="icon-facebook-square" viewBox="0 0 448 512"><path d="M448 80v352c0 26.5-21.5 48-48 48h-85.3V302.8h60.6l8.7-67.6h-69.3V192c0-19.6 5.4-32.9 33.5-32.9H384V98.7c-6.2-.8-27.4-2.7-52.2-2.7-51.6 0-87 31.5-87 89.4v49.9H184v67.6h60.9V480H48c-26.5 0-48-21.5-48-48V80c0-26.5 21.5-48 48-48h352c26.5 0 48 21.5 48 48z"/></symbol><symbol id="icon-facebook" viewBox="0 0 448 512"><path d="M448 56.7v398.5c0 13.7-11.1 24.7-24.7 24.7H309.1V306.5h58.2l8.7-67.6h-67v-43.2c0-19.6 5.4-32.9 33.5-32.9h35.8v-60.5c-6.2-.8-27.4-2.7-52.2-2.7-51.6 0-87 31.5-87 89.4v49.9h-58.4v67.6h58.4V480H24.7C11.1 480 0 468.9 0 455.3V56.7C0 43.1 11.1 32 24.7 32h398.5c13.7 0 24.8 11.1 24.8 24.7z"/></symbol><symbol id="icon-instagram" viewBox="0 0 448 512"><path d="M224.1 141c-63.6 0-114.9 51.3-114.9 114.9s51.3 114.9 114.9 114.9S339 319.5 339 255.9 287.7 141 224.1 141zm0 189.6c-41.1 0-74.7-33.5-74.7-74.7s33.5-74.7 74.7-74.7 74.7 33.5 74.7 74.7-33.6 74.7-74.7 74.7zm146.4-194.3c0 14.9-12 26.8-26.8 26.8-14.9 0-26.8-12-26.8-26.8s12-26.8 26.8-26.8 26.8 12 26.8 26.8zm76.1 27.2c-1.7-35.9-9.9-67.7-36.2-93.9-26.2-26.2-58-34.4-93.9-36.2-37-2.1-147.9-2.1-184.9 0-35.8 1.7-67.6 9.9-93.9 36.1s-34.4 58-36.2 93.9c-2.1 37-2.1 147.9 0 184.9 1.7 35.9 9.9 67.7 36.2 93.9s58 34.4 93.9 36.2c37 2.1 147.9 2.1 184.9 0 35.9-1.7 67.7-9.9 93.9-36.2 26.2-26.2 34.4-58 36.2-93.9 2.1-37 2.1-147.8 0-184.8zM398.8 388c-7.8 19.6-22.9 34.7-42.6 42.6-29.5 11.7-99.5 9-132.1 9s-102.7 2.6-132.1-9c-19.6-7.8-34.7-22.9-42.6-42.6-11.7-29.5-9-99.5-9-132.1s-2.6-102.7 9-132.1c7.8-19.6 22.9-34.7 42.6-42.6 29.5-11.7 99.5-9 132.1-9s102.7-2.6 132.1 9c19.6 7.8 34.7 22.9 42.6 42.6 11.7 29.5 9 99.5 9 132.1s2.7 102.7-9 132.1z"/></symbol><symbol id="icon-linkedin-in" viewBox="0 0 448 512"><path d="M100.3 480H7.4V180.9h92.9V480zM53.8 140.1C24.1 140.1 0 115.5 0 85.8 0 56.1 24.1 32 53.8 32c29.7 0 53.8 24.1 53.8 53.8 0 29.7-24.1 54.3-53.8 54.3zM448 480h-92.7V334.4c0-34.7-.7-79.2-48.3-79.2-48.3 0-55.7 37.7-55.7 76.7V480h-92.8V180.9h89.1v40.8h1.3c12.4-23.5 42.7-48.3 87.9-48.3 94 0 111.3 61.9 111.3 142.3V480z"/></symbol><symbol id="icon-linkedin" viewBox="0 0 448 512"><path d="M416 32H31.9C14.3 32 0 46.5 0 64.3v383.4C0 465.5 14.3 480 31.9 480H416c17.6 0 32-14.5 32-32.3V64.3c0-17.8-14.4-32.3-32-32.3zM135.4 416H69V202.2h66.5V416zm-33.2-243c-21.3 0-38.5-17.3-38.5-38.5S80.9 96 102.2 96c21.2 0 38.5 17.3 38.5 38.5 0 21.3-17.2 38.5-38.5 38.5zm282.1 243h-66.4V312c0-24.8-.5-56.7-34.5-56.7-34.6 0-39.9 27-39.9 54.9V416h-66.4V202.2h63.7v29.2h.9c8.9-16.8 30.6-34.5 62.9-34.5 67.2 0 79.7 44.3 79.7 101.9V416z"/></symbol><symbol id="icon-phone" viewBox="-4743 245 512 512"><path d="M-4255.1 732.8l23.2-100.8c3.4-14.7-4.2-29.8-18.1-35.7l-108.5-46.5c-12.7-5.5-27.7-1.8-36.5 8.9l-44.1 53.9c-69.2-34-125.6-90.3-159.6-159.6l53.9-44.1c10.7-8.8 14.4-23.8 8.9-36.5l-46.5-108.5c-6-13.9-21-21.5-35.8-18.1L-4719 269c-14.3 3.3-24.2 15.8-24.2 30.5 0 252.2 204.2 457.5 457.5 457.5 14.8 0 27.4-10 30.6-24.2zM-4711 300.1l99.6-23 46 107.4-72.8 59.5c48.6 103.6 104.9 159.7 208.1 208.1l59.5-72.8 107.4 46-23 99.6c-234.5-.2-424.5-190.3-424.8-424.8z"/></symbol><symbol id="icon-post-aside" viewBox="0 0 36 36"><path fill="#d37a28" d="M0 0h36v36H0z"/><path fill="#fff" d="M6 6h24v3H6zM6 13h18v3H6zM6 20h24v3H6zM6 27h12v3H6z"/></symbol><symbol id="icon-post-quote" viewBox="0 0 36 36"><path fill="#d37a28" d="M0 0h36v36H0z"/><path fill="#fff" d="M6 6h24v3H6zM6 13h18v3H6zM6 20h24v3H6zM6 27h12v3H6z"/></symbol><symbol id="icon-post-video" viewBox="0 0 36 36"><path fill="#d37a28" d="M0 0h36v36H0z"/><path fill="#fff" d="M6 6h24v3H6zM6 13h18v3H6zM6 20h24v3H6zM6 27h12v3H6z"/></symbol><symbol id="icon-post" viewBox="0 0 36 36"><path fill="#d37a28" d="M0 0h36v36H0z"/><path fill="#fff" d="M6 6h24v3H6zM6 13h18v3H6zM6 20h24v3H6zM6 27h12v3H6z"/></symbol><symbol id="icon-twitter-square" viewBox="0 0 448 512"><path d="M400 32H48C21.5 32 0 53.5 0 80v352c0 26.5 21.5 48 48 48h352c26.5 0 48-21.5 48-48V80c0-26.5-21.5-48-48-48zm-48.9 158.8c.2 2.8.2 5.7.2 8.5 0 86.7-66 186.6-186.6 186.6-37.2 0-71.7-10.8-100.7-29.4 5.3.6 10.4.8 15.8.8 30.7 0 58.9-10.4 81.4-28-28.8-.6-53-19.5-61.3-45.5 10.1 1.5 19.2 1.5 29.6-1.2-30-6.1-52.5-32.5-52.5-64.4v-.8c8.7 4.9 18.9 7.9 29.6 8.3a65.447 65.447 0 0 1-29.2-54.6c0-12.2 3.2-23.4 8.9-33.1 32.3 39.8 80.8 65.8 135.2 68.6-9.3-44.5 24-80.6 64-80.6 18.9 0 35.9 7.9 47.9 20.7 14.8-2.8 29-8.3 41.6-15.8-4.9 15.2-15.2 28-28.8 36.1 13.2-1.4 26-5.1 37.8-10.2-8.9 13.1-20.1 24.7-32.9 34z"/></symbol><symbol id="icon-twitter" viewBox="0 0 512 512"><path d="M459.37 151.716c.325 4.548.325 9.097.325 13.645 0 138.72-105.583 298.558-298.558 298.558-59.452 0-114.68-17.219-161.137-47.106 8.447.974 16.568 1.299 25.34 1.299 49.055 0 94.213-16.568 130.274-44.832-46.132-.975-84.792-31.188-98.112-72.772 6.498.974 12.995 1.624 19.818 1.624 9.421 0 18.843-1.3 27.614-3.573-48.081-9.747-84.143-51.98-84.143-102.985v-1.299c13.969 7.797 30.214 12.67 47.431 13.319-28.264-18.843-46.781-51.005-46.781-87.391 0-19.492 5.197-37.36 14.294-52.954 51.655 63.675 129.3 105.258 216.365 109.807-1.624-7.797-2.599-15.918-2.599-24.04 0-57.828 46.782-104.934 104.934-104.934 30.213 0 57.502 12.67 76.67 33.137 23.715-4.548 46.456-13.32 66.599-25.34-7.798 24.366-24.366 44.833-46.132 57.827 21.117-2.273 41.584-8.122 60.426-16.243-14.292 20.791-32.161 39.308-52.628 54.253z"/></symbol></svg>