<?xml version="1.0" encoding="UTF-8"?><!DOCTYPE svg PUBLIC "-//W3C//DTD SVG 1.1//EN" "http://www.w3.org/Graphics/SVG/1.1/DTD/svg11.dtd"><svg xmlns="http://www.w3.org/2000/svg"><symbol id="icon-accessible-icon" viewBox="0 0 448 512"><path d="M423.9 255.8L411 413.1c-3.3 40.7-63.9 35.1-60.6-4.9l10-122.5-41.1 2.3c10.1 20.7 15.8 43.9 15.8 68.5 0 41.2-16.1 78.7-42.3 106.5l-39.3-39.3c57.9-63.7 13.1-167.2-74-167.2-25.9 0-49.5 9.9-67.2 26L73 243.2c22-20.7 50.1-35.1 81.4-40.2l75.3-85.7-42.6-24.8-51.6 46c-30 26.8-70.6-18.5-40.5-45.4l68-60.7c9.8-8.8 24.1-10.2 35.5-3.6 0 0 139.3 80.9 139.5 81.1 16.2 10.1 20.7 36 6.1 52.6L285.7 229l106.1-5.9c18.5-1.1 33.6 14.4 32.1 32.7zm-64.9-154c28.1 0 50.9-22.8 50.9-50.9C409.9 22.8 387.1 0 359 0c-28.1 0-50.9 22.8-50.9 50.9 0 28.1 22.8 50.9 50.9 50.9zM179.6 456.5c-80.6 0-127.4-90.6-82.7-156.1l-39.7-39.7C36.4 287 24 320.3 24 356.4c0 130.7 150.7 201.4 251.4 122.5l-39.7-39.7c-16 10.9-35.3 17.3-56.1 17.3z"/></symbol><symbol id="icon-apple" viewBox="0 0 448 512"><path d="M247.2 137.6c-6.2 1.9-15.3 3.5-27.9 4.6 1.1-56.7 29.9-96.6 88-110.1 9.3 41.6-26.1 94.1-60.1 105.5zm121.3 72.7c6.4-9.4 16.6-19.9 30.6-31.7-22.3-27.6-48.1-44.3-85.1-44.3-35.4 0-65.2 18.2-87 18.2-18.5 0-51.9-16.1-84.5-16.1-69.6 0-106.5 68.1-106.5 139C36 354.2 95.7 480 156.2 480c23.8 0 45.2-18 73.5-18 29.3 0 52.8 17.2 80.3 17.2 46 0 88.6-77.5 102-119.7-46.8-14.3-84.4-90.2-43.5-149.2z"/></symbol><symbol id="icon-arrow-left" viewBox="0 0 448 512"><path d="M231.536 475.535l7.071-7.07c4.686-4.686 4.686-12.284 0-16.971L60.113 273H436c6.627 0 12-5.373 12-12v-10c0-6.627-5.373-12-12-12H60.113L238.607 60.506c4.686-4.686 4.686-12.284 0-16.971l-7.071-7.07c-4.686-4.686-12.284-4.686-16.97 0L3.515 247.515c-4.686 4.686-4.686 12.284 0 16.971l211.051 211.05c4.686 4.686 12.284 4.686 16.97-.001z"/></symbol><symbol id="icon-arrow-right" viewBox="0 0 448 512"><path d="M216.464 36.465l-7.071 7.07c-4.686 4.686-4.686 12.284 0 16.971L387.887 239H12c-6.627 0-12 5.373-12 12v10c0 6.627 5.373 12 12 12h375.887L209.393 451.494c-4.686 4.686-4.686 12.284 0 16.971l7.071 7.07c4.686 4.686 12.284 4.686 16.97 0l211.051-211.05c4.686-4.686 4.686-12.284 0-16.971L233.434 36.465c-4.686-4.687-12.284-4.687-16.97 0z"/></symbol><symbol id="icon-check-circle" viewBox="0 0 512 512"><path d="M504 256c0 136.967-111.033 248-248 248S8 392.967 8 256 119.033 8 256 8s248 111.033 248 248zM227.314 387.314l184-184c6.248-6.248 6.248-16.379 0-22.627l-22.627-22.627c-6.248-6.249-16.379-6.249-22.628 0L216 308.118l-70.059-70.059c-6.248-6.248-16.379-6.248-22.628 0l-22.627 22.627c-6.248 6.248-6.248 16.379 0 22.627l104 104c6.249 6.249 16.379 6.249 22.628.001z" class="st1"/></symbol><symbol id="icon-check-square" viewBox="0 0 448 512"><path d="M400 480H48c-26.51 0-48-21.49-48-48V80c0-26.51 21.49-48 48-48h352c26.51 0 48 21.49 48 48v352c0 26.51-21.49 48-48 48zm-204.686-98.059l184-184c6.248-6.248 6.248-16.379 0-22.627l-22.627-22.627c-6.248-6.248-16.379-6.249-22.628 0L184 302.745l-70.059-70.059c-6.248-6.248-16.379-6.248-22.628 0l-22.627 22.627c-6.248 6.248-6.248 16.379 0 22.627l104 104c6.249 6.25 16.379 6.25 22.628.001z"/></symbol><symbol id="icon-check" viewBox="0 0 512 512"><path d="M173.898 439.404l-166.4-166.4c-9.997-9.997-9.997-26.206 0-36.204l36.203-36.204c9.997-9.998 26.207-9.998 36.204 0L192 312.69 432.095 72.596c9.997-9.997 26.207-9.997 36.204 0l36.203 36.204c9.997 9.997 9.997 26.206 0 36.204l-294.4 294.401c-9.998 9.997-26.207 9.997-36.204-.001z"/></symbol><symbol id="icon-envelope-open" viewBox="0 0 512 512"><path d="M512 464c0 26.51-21.49 48-48 48H48c-26.51 0-48-21.49-48-48V200.724a48 48 0 0 1 18.387-37.776c24.913-19.529 45.501-35.365 164.2-121.511C199.412 29.17 232.797-.347 256 .003c23.198-.354 56.596 29.172 73.413 41.433 118.687 86.137 139.303 101.995 164.2 121.512A48 48 0 0 1 512 200.724V464zm-65.666-196.605c-2.563-3.728-7.7-4.595-11.339-1.907-22.845 16.873-55.462 40.705-105.582 77.079-16.825 12.266-50.21 41.781-73.413 41.43-23.211.344-56.559-29.143-73.413-41.43-50.114-36.37-82.734-60.204-105.582-77.079-3.639-2.688-8.776-1.821-11.339 1.907l-9.072 13.196a7.998 7.998 0 0 0 1.839 10.967c22.887 16.899 55.454 40.69 105.303 76.868 20.274 14.781 56.524 47.813 92.264 47.573 35.724.242 71.961-32.771 92.263-47.573 49.85-36.179 82.418-59.97 105.303-76.868a7.998 7.998 0 0 0 1.839-10.967l-9.071-13.196z"/></symbol><symbol id="icon-envelope" viewBox="0 0 512 512"><path d="M502.3 190.8c3.9-3.1 9.7-.2 9.7 4.7V400c0 26.5-21.5 48-48 48H48c-26.5 0-48-21.5-48-48V195.6c0-5 5.7-7.8 9.7-4.7 22.4 17.4 52.1 39.5 154.1 113.6 21.1 15.4 56.7 47.8 92.2 47.6 35.7.3 72-32.8 92.3-47.6 102-74.1 131.6-96.3 154-113.7zM256 320c23.2.4 56.6-29.2 73.4-41.4 132.7-96.3 142.8-104.7 173.4-128.7 5.8-4.5 9.2-11.5 9.2-18.9v-19c0-26.5-21.5-48-48-48H48C21.5 64 0 85.5 0 112v19c0 7.4 3.4 14.3 9.2 18.9 30.6 23.9 40.7 32.4 173.4 128.7 16.8 12.2 50.2 41.8 73.4 41.4z"/></symbol><symbol id="icon-facebook-f" viewBox="0 0 264 512"><path d="M76.7 512V283H0v-91h76.7v-71.7C76.7 42.4 124.3 0 193.8 0c33.3 0 61.9 2.5 70.2 3.6V85h-48.2c-37.8 0-45.1 18-45.1 44.3V192H256l-11.7 91h-73.6v229"/></symbol><symbol id="icon-facebook-square" viewBox="0 0 448 512"><path d="M448 80v352c0 26.5-21.5 48-48 48h-85.3V302.8h60.6l8.7-67.6h-69.3V192c0-19.6 5.4-32.9 33.5-32.9H384V98.7c-6.2-.8-27.4-2.7-52.2-2.7-51.6 0-87 31.5-87 89.4v49.9H184v67.6h60.9V480H48c-26.5 0-48-21.5-48-48V80c0-26.5 21.5-48 48-48h352c26.5 0 48 21.5 48 48z"/></symbol><symbol id="icon-facebook" viewBox="0 0 448 512"><path d="M448 56.7v398.5c0 13.7-11.1 24.7-24.7 24.7H309.1V306.5h58.2l8.7-67.6h-67v-43.2c0-19.6 5.4-32.9 33.5-32.9h35.8v-60.5c-6.2-.8-27.4-2.7-52.2-2.7-51.6 0-87 31.5-87 89.4v49.9h-58.4v67.6h58.4V480H24.7C11.1 480 0 468.9 0 455.3V56.7C0 43.1 11.1 32 24.7 32h398.5c13.7 0 24.8 11.1 24.8 24.7z"/></symbol><symbol id="icon-flickr" viewBox="0 0 448 512"><path d="M400 32H48C21.5 32 0 53.5 0 80v352c0 26.5 21.5 48 48 48h352c26.5 0 48-21.5 48-48V80c0-26.5-21.5-48-48-48zM144.5 319c-35.1 0-63.5-28.4-63.5-63.5s28.4-63.5 63.5-63.5 63.5 28.4 63.5 63.5-28.4 63.5-63.5 63.5zm159 0c-35.1 0-63.5-28.4-63.5-63.5s28.4-63.5 63.5-63.5 63.5 28.4 63.5 63.5-28.4 63.5-63.5 63.5z"/></symbol><symbol id="icon-github-alt" viewBox="0 0 480 512"><path d="M186.1 328.7c0 20.9-10.9 55.1-36.7 55.1s-36.7-34.2-36.7-55.1 10.9-55.1 36.7-55.1 36.7 34.2 36.7 55.1zM480 278.2c0 31.9-3.2 65.7-17.5 95-37.9 76.6-142.1 74.8-216.7 74.8-75.8 0-186.2 2.7-225.6-74.8-14.6-29-20.2-63.1-20.2-95 0-41.9 13.9-81.5 41.5-113.6-5.2-15.8-7.7-32.4-7.7-48.8 0-21.5 4.9-32.3 14.6-51.8 45.3 0 74.3 9 108.8 36 29-6.9 58.8-10 88.7-10 27 0 54.2 2.9 80.4 9.2 34-26.7 63-35.2 107.8-35.2 9.8 19.5 14.6 30.3 14.6 51.8 0 16.4-2.6 32.7-7.7 48.2 27.5 32.4 39 72.3 39 114.2zm-64.3 50.5c0-43.9-26.7-82.6-73.5-82.6-18.9 0-37 3.4-56 6-14.9 2.3-29.8 3.2-45.1 3.2-15.2 0-30.1-.9-45.1-3.2-18.7-2.6-37-6-56-6-46.8 0-73.5 38.7-73.5 82.6 0 87.8 80.4 101.3 150.4 101.3h48.2c70.3 0 150.6-13.4 150.6-101.3zm-82.6-55.1c-25.8 0-36.7 34.2-36.7 55.1s10.9 55.1 36.7 55.1 36.7-34.2 36.7-55.1-10.9-55.1-36.7-55.1z"/></symbol><symbol id="icon-github-square" viewBox="0 0 448 512"><path d="M400 32H48C21.5 32 0 53.5 0 80v352c0 26.5 21.5 48 48 48h352c26.5 0 48-21.5 48-48V80c0-26.5-21.5-48-48-48zM277.3 415.7c-8.4 1.5-11.5-3.7-11.5-8 0-5.4.2-33 .2-55.3 0-15.6-5.2-25.5-11.3-30.7 37-4.1 76-9.2 76-73.1 0-18.2-6.5-27.3-17.1-39 1.7-4.3 7.4-22-1.7-45-13.9-4.3-45.7 17.9-45.7 17.9-13.2-3.7-27.5-5.6-41.6-5.6-14.1 0-28.4 1.9-41.6 5.6 0 0-31.8-22.2-45.7-17.9-9.1 22.9-3.5 40.6-1.7 45-10.6 11.7-15.6 20.8-15.6 39 0 63.6 37.3 69 74.3 73.1-4.8 4.3-9.1 11.7-10.6 22.3-9.5 4.3-33.8 11.7-48.3-13.9-9.1-15.8-25.5-17.1-25.5-17.1-16.2-.2-1.1 10.2-1.1 10.2 10.8 5 18.4 24.2 18.4 24.2 9.7 29.7 56.1 19.7 56.1 19.7 0 13.9.2 36.5.2 40.6 0 4.3-3 9.5-11.5 8-66-22.1-112.2-84.9-112.2-158.3 0-91.8 70.2-161.5 162-161.5S388 165.6 388 257.4c.1 73.4-44.7 136.3-110.7 158.3zm-98.1-61.1c-1.9.4-3.7-.4-3.9-1.7-.2-1.5 1.1-2.8 3-3.2 1.9-.2 3.7.6 3.9 1.9.3 1.3-1 2.6-3 3zm-9.5-.9c0 1.3-1.5 2.4-3.5 2.4-2.2.2-3.7-.9-3.7-2.4 0-1.3 1.5-2.4 3.5-2.4 1.9-.2 3.7.9 3.7 2.4zm-13.7-1.1c-.4 1.3-2.4 1.9-4.1 1.3-1.9-.4-3.2-1.9-2.8-3.2.4-1.3 2.4-1.9 4.1-1.5 2 .6 3.3 2.1 2.8 3.4zm-12.3-5.4c-.9 1.1-2.8.9-4.3-.6-1.5-1.3-1.9-3.2-.9-4.1.9-1.1 2.8-.9 4.3.6 1.3 1.3 1.8 3.3.9 4.1zm-9.1-9.1c-.9.6-2.6 0-3.7-1.5s-1.1-3.2 0-3.9c1.1-.9 2.8-.2 3.7 1.3 1.1 1.5 1.1 3.3 0 4.1zm-6.5-9.7c-.9.9-2.4.4-3.5-.6-1.1-1.3-1.3-2.8-.4-3.5.9-.9 2.4-.4 3.5.6 1.1 1.3 1.3 2.8.4 3.5zm-6.7-7.4c-.4.9-1.7 1.1-2.8.4-1.3-.6-1.9-1.7-1.5-2.6.4-.6 1.5-.9 2.8-.4 1.3.7 1.9 1.8 1.5 2.6z"/></symbol><symbol id="icon-github" viewBox="0 0 496 512"><path d="M165.9 397.4c0 2-2.3 3.6-5.2 3.6-3.3.3-5.6-1.3-5.6-3.6 0-2 2.3-3.6 5.2-3.6 3-.3 5.6 1.3 5.6 3.6zm-31.1-4.5c-.7 2 1.3 4.3 4.3 4.9 2.6 1 5.6 0 6.2-2s-1.3-4.3-4.3-5.2c-2.6-.7-5.5.3-6.2 2.3zm44.2-1.7c-2.9.7-4.9 2.6-4.6 4.9.3 2 2.9 3.3 5.9 2.6 2.9-.7 4.9-2.6 4.6-4.6-.3-1.9-3-3.2-5.9-2.9zM244.8 8C106.1 8 0 113.3 0 252c0 110.9 69.8 205.8 169.5 239.2 12.8 2.3 17.3-5.6 17.3-12.1 0-6.2-.3-40.4-.3-61.4 0 0-70 15-84.7-29.8 0 0-11.4-29.1-27.8-36.6 0 0-22.9-15.7 1.6-15.4 0 0 24.9 2 38.6 25.8 21.9 38.6 58.6 27.5 72.9 20.9 2.3-16 8.8-27.1 16-33.7-55.9-6.2-112.3-14.3-112.3-110.5 0-27.5 7.6-41.3 23.6-58.9-2.6-6.5-11.1-33.3 2.6-67.9 20.9-6.5 69 27 69 27 20-5.6 41.5-8.5 62.8-8.5s42.8 2.9 62.8 8.5c0 0 48.1-33.6 69-27 13.7 34.7 5.2 61.4 2.6 67.9 16 17.7 25.8 31.5 25.8 58.9 0 96.5-58.9 104.2-114.8 110.5 9.2 7.9 17 22.9 17 46.4 0 33.7-.3 75.4-.3 83.6 0 6.5 4.6 14.4 17.3 12.1C428.2 457.8 496 362.9 496 252 496 113.3 383.5 8 244.8 8zM97.2 352.9c-1.3 1-1 3.3.7 5.2 1.6 1.6 3.9 2.3 5.2 1 1.3-1 1-3.3-.7-5.2-1.6-1.6-3.9-2.3-5.2-1zm-10.8-8.1c-.7 1.3.3 2.9 2.3 3.9 1.6 1 3.6.7 4.3-.7.7-1.3-.3-2.9-2.3-3.9-2-.6-3.6-.3-4.3.7zm32.4 35.6c-1.6 1.3-1 4.3 1.3 6.2 2.3 2.3 5.2 2.6 6.5 1 1.3-1.3.7-4.3-1.3-6.2-2.2-2.3-5.2-2.6-6.5-1zm-11.4-14.7c-1.6 1-1.6 3.6 0 5.9 1.6 2.3 4.3 3.3 5.6 2.3 1.6-1.3 1.6-3.9 0-6.2-1.4-2.3-4-3.3-5.6-2z"/></symbol><symbol id="icon-instagram" viewBox="0 0 448 512"><path d="M224.1 141c-63.6 0-114.9 51.3-114.9 114.9s51.3 114.9 114.9 114.9S339 319.5 339 255.9 287.7 141 224.1 141zm0 189.6c-41.1 0-74.7-33.5-74.7-74.7s33.5-74.7 74.7-74.7 74.7 33.5 74.7 74.7-33.6 74.7-74.7 74.7zm146.4-194.3c0 14.9-12 26.8-26.8 26.8-14.9 0-26.8-12-26.8-26.8s12-26.8 26.8-26.8 26.8 12 26.8 26.8zm76.1 27.2c-1.7-35.9-9.9-67.7-36.2-93.9-26.2-26.2-58-34.4-93.9-36.2-37-2.1-147.9-2.1-184.9 0-35.8 1.7-67.6 9.9-93.9 36.1s-34.4 58-36.2 93.9c-2.1 37-2.1 147.9 0 184.9 1.7 35.9 9.9 67.7 36.2 93.9s58 34.4 93.9 36.2c37 2.1 147.9 2.1 184.9 0 35.9-1.7 67.7-9.9 93.9-36.2 26.2-26.2 34.4-58 36.2-93.9 2.1-37 2.1-147.8 0-184.8zM398.8 388c-7.8 19.6-22.9 34.7-42.6 42.6-29.5 11.7-99.5 9-132.1 9s-102.7 2.6-132.1-9c-19.6-7.8-34.7-22.9-42.6-42.6-11.7-29.5-9-99.5-9-132.1s-2.6-102.7 9-132.1c7.8-19.6 22.9-34.7 42.6-42.6 29.5-11.7 99.5-9 132.1-9s102.7-2.6 132.1 9c19.6 7.8 34.7 22.9 42.6 42.6 11.7 29.5 9 99.5 9 132.1s2.7 102.7-9 132.1z"/></symbol><symbol id="icon-itunes-note" viewBox="0 0 384 512"><path d="M381.9 388.2c-6.4 27.4-27.2 42.8-55.1 48-24.5 4.5-44.9 5.6-64.5-10.2-23.9-20.1-24.2-53.4-2.7-74.4 17-16.2 40.9-19.5 76.8-25.8 6-1.1 11.2-2.5 15.6-7.4 6.4-7.2 4.4-4.1 4.4-163.2 0-11.2-5.5-14.3-17-12.3-8.2 1.4-185.7 34.6-185.7 34.6-10.2 2.2-13.4 5.2-13.4 16.7 0 234.7 1.1 223.9-2.5 239.5-4.2 18.2-15.4 31.9-30.2 39.5-16.8 9.3-47.2 13.4-63.4 10.4-43.2-8.1-58.4-58-29.1-86.6 17-16.2 40.9-19.5 76.8-25.8 6-1.1 11.2-2.5 15.6-7.4 10.1-11.5 1.8-256.6 5.2-270.2.8-5.2 3-9.6 7.1-12.9 4.2-3.5 11.8-5.5 13.4-5.5 204-38.2 228.9-43.1 232.4-43.1 11.5-.8 18.1 6 18.1 17.6.2 344.5 1.1 326-1.8 338.5z"/></symbol><symbol id="icon-itunes" viewBox="0 0 448 512"><path d="M223.6 80.3C129 80.3 52.5 157 52.5 251.5S129 422.8 223.6 422.8s171.2-76.7 171.2-171.2c0-94.6-76.7-171.3-171.2-171.3zm79.4 240c-3.2 13.6-13.5 21.2-27.3 23.8-12.1 2.2-22.2 2.8-31.9-5-11.8-10-12-26.4-1.4-36.8 8.4-8 20.3-9.6 38-12.8 3-.5 5.6-1.2 7.7-3.7 3.2-3.6 2.2-2 2.2-80.8 0-5.6-2.7-7.1-8.4-6.1-4 .7-91.9 17.1-91.9 17.1-5 1.1-6.7 2.6-6.7 8.3 0 116.1.5 110.8-1.2 118.5-2.1 9-7.6 15.8-14.9 19.6-8.3 4.6-23.4 6.6-31.4 5.2-21.4-4-28.9-28.7-14.4-42.9 8.4-8 20.3-9.6 38-12.8 3-.5 5.6-1.2 7.7-3.7 5-5.7.9-127 2.6-133.7.4-2.6 1.5-4.8 3.5-6.4 2.1-1.7 5.8-2.7 6.7-2.7 101-19 113.3-21.4 115.1-21.4 5.7-.4 9 3 9 8.7-.1 170.6.4 161.4-1 167.6zM345.2 32H102.8C45.9 32 0 77.9 0 134.8v242.4C0 434.1 45.9 480 102.8 480h242.4c57 0 102.8-45.9 102.8-102.8V134.8C448 77.9 402.1 32 345.2 32zM223.6 444c-106.3 0-192.5-86.2-192.5-192.5S117.3 59 223.6 59s192.5 86.2 192.5 192.5S329.9 444 223.6 444z"/></symbol><symbol id="icon-linkedin-in" viewBox="0 0 448 512"><path d="M100.3 480H7.4V180.9h92.9V480zM53.8 140.1C24.1 140.1 0 115.5 0 85.8 0 56.1 24.1 32 53.8 32c29.7 0 53.8 24.1 53.8 53.8 0 29.7-24.1 54.3-53.8 54.3zM448 480h-92.7V334.4c0-34.7-.7-79.2-48.3-79.2-48.3 0-55.7 37.7-55.7 76.7V480h-92.8V180.9h89.1v40.8h1.3c12.4-23.5 42.7-48.3 87.9-48.3 94 0 111.3 61.9 111.3 142.3V480z"/></symbol><symbol id="icon-linkedin" viewBox="0 0 448 512"><path d="M416 32H31.9C14.3 32 0 46.5 0 64.3v383.4C0 465.5 14.3 480 31.9 480H416c17.6 0 32-14.5 32-32.3V64.3c0-17.8-14.4-32.3-32-32.3zM135.4 416H69V202.2h66.5V416zm-33.2-243c-21.3 0-38.5-17.3-38.5-38.5S80.9 96 102.2 96c21.2 0 38.5 17.3 38.5 38.5 0 21.3-17.2 38.5-38.5 38.5zm282.1 243h-66.4V312c0-24.8-.5-56.7-34.5-56.7-34.6 0-39.9 27-39.9 54.9V416h-66.4V202.2h63.7v29.2h.9c8.9-16.8 30.6-34.5 62.9-34.5 67.2 0 79.7 44.3 79.7 101.9V416z"/></symbol><symbol id="icon-map-marker-alt" viewBox="0 0 384 512"><path d="M172.268 501.67C26.97 291.031 0 269.413 0 192 0 85.961 85.961 0 192 0s192 85.961 192 192c0 77.413-26.97 99.031-172.268 309.67-9.535 13.774-29.93 13.773-39.464 0zM192 272c44.183 0 80-35.817 80-80s-35.817-80-80-80-80 35.817-80 80 35.817 80 80 80z"/></symbol><symbol id="icon-map-marker" viewBox="0 0 384 512"><path d="M172.268 501.67C26.97 291.031 0 269.413 0 192 0 85.961 85.961 0 192 0s192 85.961 192 192c0 77.413-26.97 99.031-172.268 309.67-9.535 13.774-29.93 13.773-39.464 0z"/></symbol><symbol id="icon-patreon" viewBox="0 0 512 512"><path d="M489.6 200.2c0 92.5-75.2 167.7-167.7 167.7-92.7 0-168.2-75.2-168.2-167.7 0-92.7 75.5-168.2 168.2-168.2 92.5 0 167.7 75.4 167.7 168.2zM22.4 480h82.1V32H22.4v448z" class="st1"/></symbol><symbol id="icon-pcm-events" viewBox="0 0 67.52 77.65"><path d="M15.21 6.52l.21.12a3.71 3.71 0 0 0-1.14-4.5c.2 1.47-1.19 3.29.93 4.38zM31.68 12c-.69-.53-1.21-.3-1.72-.37a11.59 11.59 0 0 1-4.37-2.14c-.56-.37-1.18-.63-1.68 0a1.5 1.5 0 0 0 .22 2.09A2 2 0 0 0 25 12c2.15.67 4.31-.33 6.68 0zM3.53 34.14c.57-.28 0-.71.08-1s-.13-.25-.38-.25a2.76 2.76 0 0 0-2 2.54l1.12-.69c.41-.2.8-.4 1.18-.6zM6.2 25.17a4.91 4.91 0 0 0-3.44-1c1.16.09 1.71 2.17 3.44 1zM10.38 62.84c.3-.3.17-.4-.16-.6-.51-.3-.46.19-.51.33a6.09 6.09 0 0 0-.09 2.33c.38-.81.27-1.56.76-2.06zM2.73 28.33A5.25 5.25 0 0 0 0 31c.79-.95 3.07-.35 2.73-2.67zM2 11.94c1.43-.83 3.05-1.32 3.14-3.23a2.81 2.81 0 0 0-.58 0A2.9 2.9 0 0 0 2 11.94zM6.45 4.49c.61 1 1.18 1.66 2.33.77l.77-.66C8 2.94 7.86 2.9 4.05 3.33c.95.35 1.95.5 2.38 1.19zM4.19 17.37a2.06 2.06 0 0 0 2.81.15c-.88-1.42-1.78.06-2.81-.15zM11.89 52.88c.62-.46.62-.56-.16-1-1.2-.76-2.39-.18-3.57-.35a10.36 10.36 0 0 1 3 2.15 8.63 8.63 0 0 1 .73-.8zM34.58 68.08a5.89 5.89 0 0 1 .6-1 5.44 5.44 0 0 0-4.28.59 7.49 7.49 0 0 1 2.86.71c.4.2.63.18.82-.3z" fill="currentColor"/><path d="M26 5.81c.16.65.1 1.68 1.35 1.68.7 0 1.48-.48 2-.18a11.27 11.27 0 0 0 3.45.6h.31a3.17 3.17 0 0 1 2.55 3.68c-.1 1.12-.55 1.55-1.69 1.55a20.07 20.07 0 0 0-5.25.19c-.43.12-1.1-.07-1 .56a1.14 1.14 0 0 0 1.31 1 20.55 20.55 0 0 0 2.22 0c1-.12 1 .53.78 1.1a2.65 2.65 0 0 1-2.42 1.88c-1.46.09-3.07-.43-4.2 1 0-.39.32-.72-.28-1a12.15 12.15 0 0 1-2.23-1.74l-7.59-6.52c-.38-.32-.9-.69-.28-1.28 1.14-1.1-.13-1.48-.69-2.06s-1.24-.91-1.94 0-1.1.82-1.48-.3c-.23-.78-.45-1.22-1.32-.78a2.1 2.1 0 0 1-.82.1c-.31.41-.5.65-.93 1.19s-.37 1 .35 1.15c.38.1.72.2.62.7a1.16 1.16 0 0 1-.82.91c-.45.18-.7.18-.86-.24-.25-.61-.79-.4-1-.28-1 .47-1.14 1.55-1.45 2.4s.58.73.95 1l.59.43c1.45 1.18 1.47 1.87 0 2.9-.25.17-.49.23-.25.63a1.51 1.51 0 0 0 .18.26 2.38 2.38 0 0 0 3.33.47 3.21 3.21 0 0 1 .77-.48 6.07 6.07 0 0 1 4 2.16c.09.65.39.84 1 .77.34-.05.71.08.78.29.46 1.29 1.95 1.24 2.79 2.06a1.2 1.2 0 0 0 1.32.15c1.26-.39 2.33-1.17 3.59-1.55a.37.37 0 0 0 0 .21A18.93 18.93 0 0 1 18 22.83c.13.42.45.32.7.42.93.36 2 .36 2.49 1.45v.3c-.2-.07-.32-.22-.63-.07a28.73 28.73 0 0 1-5.38 1.69 9.85 9.85 0 0 1-6.85-.13c-.29-.14-.61-.12-.73-.52s-.23-.9-.77-.72A3.11 3.11 0 0 0 5 26.51c-.31.54.34.44.66.78s.55.73.24 1.18-.55 0-.77-.18c-1.27-.7-1.58-.5-1.95.92-.32 1.18.34 1.57 1.19 1.87.35.14.72.14.82.56-.15.34-.46.13-.66.25-.91.6-.62 1.33-.25 2.15s.74.57 1.24.1a.72.72 0 0 1 1 .16c.15.24.71.4.37.87-.61.91.34 1.12.78 1.38.79.46 1.08-.26 1.15-.84.2-1.38 1.19-1.13 2.06-1.1s1 .79.95 1.41c-.08 1.26.53 1.21 1.4.91a4.08 4.08 0 0 0 1-.6c1.09-.82 2.5-.88 2.69-.1.3 1.22 1.1 1.09 2 1.09a6.37 6.37 0 0 0 2.9-.94c.44-.26.75-.67 1.38-.38s-.09.85.09 1.31c.73-.77 1.44-1.55 2.13-2.32a3.1 3.1 0 0 1 4.3-.87 2.8 2.8 0 0 1 .61.53 54.27 54.27 0 0 1 3.81 4.48A5.21 5.21 0 0 1 35.58 43a.41.41 0 0 0 0 .22c-.25.07-.6-.12-.78.26l-.2.26c-.74 0-1.4-.5-2.06-.22.3.88 1.33 1.23 1.55 2.18v.3c-1.25-1.45-2.32-2.92-4.65-2.92a12.25 12.25 0 0 0-7.22 1.62 2.5 2.5 0 0 0-.64 3.48c.32.54.67 1.09 1 1.66a2.44 2.44 0 0 1 .1 2.5l-.07.1a5.78 5.78 0 0 1-8 1.49 13.87 13.87 0 0 1-1.1-.93c-.39-.42-.74-.22-1 0a2.53 2.53 0 0 0-1 1.69c-.15 1 .9.76 1.3 1.16-.22.36-.5.24-.71.24a1.6 1.6 0 0 0-2 1 2.21 2.21 0 0 0 1 2.73c.55.36.63.84.06 1.13-1.35.63-.28 1.09.15 1.4a.89.89 0 0 0 1.24-.18c1.27-1.36 1.69-1.28 2.63.19.38.61.89.34 1.47.37s.58-.18.53-.7.22-.74.66-.87c1.12-.29 2.22-.66 3.35-.91a51 51 0 0 1 11.7-.78c.21 0 .5.14.63-.24A9.39 9.39 0 0 1 31.94 53c0-.69-.21-1.64.24-2s1.27-.11 1.9.15c.22.09.77.18.47-.45a2.3 2.3 0 0 1 .18-2l.19.25c0 .68-.31 1.45.26 2.06a1.64 1.64 0 0 0 2.16.4 2.2 2.2 0 0 0 .78-2.41c-.14-.35-.69-.52-.48-1h.12c1.22 1.4 1.4 1.89.28 3.29a9.69 9.69 0 0 0-1.41 6.66 13 13 0 0 1 1.19-.95c.25-.19.58-.64 1-.38s.3.91.15 1.23c-.57 1.21.2 1.82 1 2.42a20.59 20.59 0 0 0 2.21 1.46c.28.16.4.22.22.5a31 31 0 0 1-3.57 5.54c-.86.94-1.22.85-2-.18-.22-.34-.35-.77-.85-.47a4.16 4.16 0 0 0-1.67 2.79c-.21.82.47 1 1 1.25a.77.77 0 0 1 .4 1c-.1.39-.31.3-.68.18s-.83-.5-1 .15-.42 1.27.47 1.6c.38.12.66.24.38.78a3 3 0 0 0-.1 1.16c1 .25 1.46-.69 2.18-1A1.76 1.76 0 0 1 38.7 75c.52.3-.25.68-.25 1.12H40a.89.89 0 0 0 1-.79c0-.79.5-.81 1-1a6.24 6.24 0 0 0 1.23-.44 15.9 15.9 0 0 0 4.7-4.65c.46-.7 1.13-1.23 1-2.25s.28-1.4 1.31-1.4c.53 0 1 .22 1.42-.6s-.22-1.16-.62-1.64a7.75 7.75 0 0 1-2.33-5.66 4.72 4.72 0 0 0-1.36-3.73 3.21 3.21 0 0 1-.48-4.25c.92-1.48 1.2-1.44 2.23-.1q3.37 4.19 6.9 8.32a2.67 2.67 0 0 0 3.7.41 7.94 7.94 0 0 0 3.48-5.57 15.36 15.36 0 0 0-1.18-9 7.29 7.29 0 0 1 .53-8.62A4 4 0 0 0 59 37.63c-.11.2-.25.45-.53.38s-.17-.33-.17-.51a11.05 11.05 0 0 1 .41-3.57c.38-1 1.19-1.72 1.63-2.82a7.33 7.33 0 0 0-4 3.65 12.46 12.46 0 0 1 .66-6 31.7 31.7 0 0 1 2.65-5 12.66 12.66 0 0 0-3.42 2.76 28.56 28.56 0 0 0-2.41 3.76 9.22 9.22 0 0 1 1-6.85A25 25 0 0 1 61.61 16 16.09 16.09 0 0 0 67 10.27 3.56 3.56 0 0 0 63.29 5a15.82 15.82 0 0 0-5.43 1.55 2.05 2.05 0 0 1-2.57-.22c-1.12-1-1.75-.79-2.72.3a9.54 9.54 0 0 0-1.5 2.06 8.31 8.31 0 0 0-1.34 5.15h.32a9.35 9.35 0 0 1 6.41-3c1.43 0 1.74-1 .89-2.19-.38-.53-.21-.67.24-.82a19.24 19.24 0 0 1 5.7-1.32 2.12 2.12 0 0 1 2.2 2 2.21 2.21 0 0 1-.24 1.07 7.82 7.82 0 0 1-2 2.85c-1.85 1.57-3.81 3.16-5.72 4.77a18.47 18.47 0 0 0-4.66 5.22 11.54 11.54 0 0 0-.28 9 31 31 0 0 0 5.33 9.07 14.59 14.59 0 0 1 3.92 10.08 8.67 8.67 0 0 1-2.06 5.25c-1 1.14-2.28 1.45-3.1.3-.62-.87-1.4-1.59-2-2.47-2.17-3.15-4.4-6.25-6.58-9.35a59.15 59.15 0 0 1-6.82-11 6.19 6.19 0 0 1-.51-5.16c.09-.15.16-.25.09-.43-.35-.87-2.87-1.55-3.25-.78-.73 1.45-1.43.39-2.16.18h.28c.66 0 1.24.16 1.84-.52a1.18 1.18 0 0 1 .25-.25 1.43 1.43 0 0 1 2 .25 3 3 0 0 0 2.81.77A5.41 5.41 0 0 1 41.46 23c.34-1.78 1.72-2.4 3.5-2.32a2.58 2.58 0 0 1 .31-3.1c.8-1 .36-1.13-.3-1.73-1.38-1.32-1.52-2.14.34-3.1.58-.31 1.33.05 1.84-.6l-2.56-1.83a3.82 3.82 0 0 1-1.13-4.65 8 8 0 0 1 2.18-2.39 1.6 1.6 0 0 0 .54-2.14c-.5-.85-1.07-1.48-2.22-1a13.8 13.8 0 0 1-7.16.1 5.76 5.76 0 0 0-5.6 1.63h.08a2.81 2.81 0 0 1-2.92 1.36 2.78 2.78 0 0 0-1.83.51c-.9.52-.68 1.42-.53 2.07zm8.29-2.89a2.4 2.4 0 0 1 .9-.27c.73 0 1.73.13 1.75.71 0 .82-1 .79-1.71.79A1.42 1.42 0 0 1 34.3 4c-.5-.37-.7-.71 0-1zM34.56 77.14c.75-.24.6-.56.22-1-1.22-.36-1.68 1-2.65 1.08a4.7 4.7 0 0 0 2.43-.08zM38.78 77.65a2.66 2.66 0 0 0 1.48-1.16h.08c-1.1-.49-1.34.17-1.56 1.16z" fill="currentColor"/><path d="M32.93 73c.48.17.52.13.59-.41s-.23-.48-.56-.48a6 6 0 0 0-3.1 1.24c1.24.01 2.14-.64 3.07-.35zM7 36.72c-.59-.2-1.06.2-1.55.46v.15h-.06a2.2 2.2 0 0 0 1.7-.25c.23-.17-.02-.36-.09-.36zM8.26 58.37c.72.05 1.1-.18 1.25-.88.08-.43.21-.85.33-1.27h-.07a4 4 0 0 0-4.54 3.46 4.54 4.54 0 0 1 3.03-1.31zM15.11 63c-.58.06-.46.3-.27.72s.46.79.88 1.5v-1.75c0-.53-.26-.47-.61-.47z" fill="currentColor"/></symbol><symbol id="icon-pcm-stay" viewBox="0 0 74.79 86.5"><path d="M53.58 20.65l.26-1.9c-4.47 7.13-6.87 13-17 23.53v6.51c7.37-6.85 13.48-15.7 19.78-23.94-5.56 7.39-4.48 9.6-19.78 24.93l-.08 6a163.59 163.59 0 0 0 22.77-25c-4.3 5.84-5.57 9.44-22.69 25.52l-.08 6.7c8.72-7.75 16.6-14.49 23.75-23.85l.66-.93v-.17l-1.56.33v-2.6l-1.31.51.15-.31a15.1 15.1 0 0 0 1.29-5.49l-1.74.38.37-1.93-1.37.68.11-1.83h-1.09l1.08-3.7-1.43.65-.34-1.93h-1.46l.57-2.31z" fill="currentColor"/><path d="M62 44.53l-1.84-.74 1.47-1.7-1.2-.16.72-3.63c-4.49 7.48-14.77 16.63-24.39 25.38v4.77C45.4 62 53.87 55.28 61.56 47v-.15l-.74.27zM23.68 13.42A87.07 87.07 0 0 0 36.5 34.64V27.2c-7.69-9.93-8.43-13.49-9.22-16.87l-.12 1.94-.48-.56-.1 1.64-.81-1-.05 1.79-.44-.51v.58l-.77-.62.24.43-.21.16zM37.33 6.54l-.1-6.16-.03-.05-.11.53-.42-.08.02.56-.41-.02.27.75-.72-.16.08.26-.51.14.62 1.21-1.32-.6 2.63 3.62zM37 74.57v.64a2.27 2.27 0 0 0 .16.39c4.21-1.4 7.87-2.92 12.48-3.56-4.58.72-8.53 2.55-12.63 4.12a1.94 1.94 0 0 0 1.41.64 28.38 28.38 0 0 0 6.87-2.37l.93-.41-1.08-.37 2.58-.55h-.14a1.48 1.48 0 0 1-.35-.13l.1-.24.34.11a1.3 1.3 0 0 0 .34 0 3.81 3.81 0 0 0 1.74-.77h-.05l-1-.35.41-.12a8.84 8.84 0 0 0 3-2.24c.29-.28.58-.57.87-.83h-1.06l2.61-2.39h-.7v-.26a2.68 2.68 0 0 0 1.67-1.47c.08-.14.17-.29.27-.44l-1-.06 2-1.81-1.15-.1L57 60h-.87l1.55-2.28A154.19 154.19 0 0 1 37 74.57z" fill="currentColor"/><path d="M19.25 19c5.54 7.51 10.25 15.42 17.08 22.32l.14-6.16a67.76 67.76 0 0 1-12.8-21.71l.2 2.11-.76-.47L23 17l-1-.71.16.69-.57-.09.21.76-1.93-.65v2.3l-.67-.37zM61.56 47C56.36 53.42 48 60.82 36.79 69.15v4.95a240.21 240.21 0 0 0 21-16.43l.21-.3h-.71l-.06-.25a9.65 9.65 0 0 0 3.55-3.4l.21-.3-1.65-.55 1.66-1.8-.85-.23.12-.16A6.69 6.69 0 0 0 61.56 47zM12.77 56.2c0 .09.06.17.09.27a3.15 3.15 0 0 0 1.59 2.12l-.07.26h-.39l1.62 2-.92.18.09.18c.26.56.45.84.94.67l.13.22-.32.28 1 .33-.44.19 1.21.32-1.46.47 1.48.63-.72.52 1.78.66-.91.39 1.7 1.11-.64.28 1.74.64-.54.65.94.77.15 1.06 1.48.16v.47l1.47.21-.33.52 2 .43-.66.36.06.07a1.44 1.44 0 0 0 1.57.74l.09.25-.18.11a3.4 3.4 0 0 0 2.26.7 3.6 3.6 0 0 0 .56-.08h.13l.28 1.13 2-.27-.58.63.93.15a10.71 10.71 0 0 0 2.33.23 2.3 2.3 0 0 0 1.61-.68v-.74C28.06 68.76 19 63.73 12.77 56.2zM35.86 69.09v-5.7C27.08 56 20 47 12.38 38.67l.8 1.2h-.52l.92 1.4-1-.5 1.07 1.43h-.58l.46 1-.93-.62.62 1-.18.19-.4-.23.5 1-.58-.14.52.76-1.66-.29.08.29C17.64 54 26.89 61.47 35.86 69.09z" fill="currentColor"/><path d="M16.73 22.8l.42 1.56-.39-.14.56 2-.79-.11.29.76h-.46l.81 1.13-2.31-.26.75 1.69-.75-.28.34.87-1.2-.33.89 1.69-.41-.12.9 1.33-.9-.38h-.05l.45 1.55h-.5l.83 1.87h-.61l.19.64h-.87v.46l-1-.69v2.55h-.59v.07c7.74 8.12 15.17 16.87 23.53 24.17V56.3c-8.13-7.1-14.24-16-21.34-24C21.71 40.08 28.36 48.56 36 55.67v-6.29c-7.64-8.45-14.81-17.14-19.27-26.58zM11.5 45.13l.74 2.77-.24-.14.69.92h-.61l1.16 1.06-1.08-.07 1.88 2-1.65.12 1.35.93-.8.13 1.38 1.11-1.86.04 1.47 1.35-.81-.05.83.94-1.22-.14v.07C19.58 63.09 28.12 68.47 36 74.4l-.07-4.6C26.75 61.91 17.2 54.17 11.5 45.13zM40.11 3.41l.01-.1-1.17.11.1-.78-.35.09.11-.83-.91.12-.01-.88-.3.04-.34-.76.37 5.26 2.49-2.27zM36.92 15.3a29 29 0 0 1-4.59-9h-.06l.09 1.7-.45-.52V9l-.69-.46v.72l-.88-.68v.09c1.75 4 3.29 8.1 6.52 11.85z" fill="currentColor"/><path d="M36.34 42.13c-7.26-7-11.71-15.25-17.08-23.1l.39 1.83-.75.14.53 1.77-1.73-1 .38 1.09-.22.14-.49-.56-.06.93-.57-.65a115.89 115.89 0 0 0 19.33 25.74zM36.7 26.57V21.1c-3.4-4.1-4.87-8.34-6.38-12.45v1.57l-.62-.51-.05.76-.47-.09.21 1.06L28 10.35l.14 1-.8-1c1.5 5.96 5.58 11.11 9.36 16.22zM40 4.2l.1-.75-2.51 2.75v3.21C39 8.6 40.35 6.59 41.74 5.3l-1.43-.2.07-1.1zM50.31 15.81l.09-1.5c-3.09 5.7-4.11 9.61-13.27 20.54l-.22 6.51c6.38-6.16 11.61-14.46 16.93-22.62v-.27l-1.71.81.36-.91-1.11.26.16-1.74-.86.42.32-1.58zM45.09 10.65l.24-.86a44.57 44.57 0 0 1-8 11.41l-.28 4.69c5-4.18 7.78-9.34 10.52-14.26l-.75.62v-.59l-1.12.6.3-1.08-.81.6.33-1.34z" fill="currentColor"/><path d="M37.38 15.32l-.08 5.29c3.3-3.24 5.46-7.37 8.09-11.06l.08-.28-1.25.59.32-.75-.95.56.52-1-.62.19-.22-1.76c-1.48 2.9-2.7 5.97-5.89 8.22zM37.06 34.09c5.55-6.16 9.48-13 13.34-19.8v-.13l-1.21.74v-.72l-1 .77.14-1.33-.6.58.08-1.44-.5.09.33-1.29h-.05c-2.1 4.18-3.29 8.11-10.5 15.16z" fill="currentColor"/><path d="M37.6 9.81l-.13 4.94c2.33-1.76 4-4.9 5.79-7.69V7l-1 .48.08-1.25-.65.19.06-1.11c-1.37 1.4-2.03 3.28-4.15 4.5zM36.59 67.44V60.6c0-9.1.15-18.71.32-28 0-2.45.09-4.86.13-7.25 0-1.34.08-4.25.11-5.58v-1.3l.12-6.17V9.45l.11.11V7.12l-2.63-4.2.51 1.2h-.46l.32.76-.34.12-.9-.87c.9 1.5 1 3.22 3.31 5.33v.69a19.48 19.48 0 0 1-3.32-5.93l.22 2-.51-.58.07 1.23-1.3-.52a35.14 35.14 0 0 0 4.72 8.49c-.18 7.33-.41 17.73-.54 23.92v.19c-.38 7.88-.54 17.46-.47 28.46 0 4.39.07 6.19.15 8.13.15 3.41.62 6.92-.22 10.25l.46-.12A2.61 2.61 0 0 1 38 85.5c-1.51-5.6-1.46-11.93-1.41-18.06z" fill="currentColor"/></symbol><symbol id="icon-pcm-weddings" viewBox="0 0 65.56 77.65"><path d="M31.13 52.09c-.73-10.5-1.69-13.66-5-20.44C20.12 19.5 23.63 13.74 32.78 0c9.15 13.74 12.66 19.5 6.68 31.65-3.34 6.78-4.31 9.94-5 20.44zm4.76 8c.4 6.33 4.15 8.93 7.38 8.79 7.9-.37 9.45-10.52 3.39-12.49 2.19 3.16-.12 7-3.77 7.1-2.37.08-4.77-1.2-5.06-3.4zm-6.23 0c-.4 6.33-4.15 8.93-7.37 8.79-7.9-.37-9.45-10.52-3.39-12.49-2.19 3.16.11 7 3.77 7.1 2.37.08 4.77-1.2 5-3.4zm1.47 0a27 27 0 0 1-2 6.93c-1.61 3.9 1 7.26 3.67 10.58 2.65-3.33 5.28-6.68 3.67-10.58a27 27 0 0 1-2-6.93zm4.76-8c1.18-7.87 3-21.94 12.51-24 10.17-2.21 21.07 6.43 15.77 17.25-2.65 5.42-10.55 8.6-14 1.64 5.85 1.64 5.47-7.32-1.21-6.49-6.11.76-9.58 6.11-11.11 11.6zm-6.23 0c-1.17-7.87-3-21.94-12.5-24C7 25.88-3.91 34.52 1.38 45.34c2.65 5.42 10.55 8.6 14 1.64-5.85 1.64-5.47-7.32 1.2-6.49 6.12.76 9.59 6.11 11.11 11.6zm-3.24 1.37h12.72c5.74 0 5.72 5.3 0 5.3H26.46c-5.76 0-5.79-5.3-.04-5.3z" fill="currentColor" fill-rule="evenodd"/></symbol><symbol id="icon-phone" viewBox="0 0 512 512"><path d="M493.397 24.615l-104-23.997c-11.314-2.611-22.879 3.252-27.456 13.931l-48 111.997a24 24 0 0 0 6.862 28.029l60.617 49.596c-35.973 76.675-98.938 140.508-177.249 177.248l-49.596-60.616a24 24 0 0 0-28.029-6.862l-111.997 48C3.873 366.516-1.994 378.08.618 389.397l23.997 104C27.109 504.204 36.748 512 48 512c256.087 0 464-207.532 464-464 0-11.176-7.714-20.873-18.603-23.385z"/></symbol><symbol id="icon-pinterest-p" viewBox="0 0 384 512"><path d="M204 6.5C101.4 6.5 0 74.9 0 185.6 0 256 39.6 296 63.6 296c9.9 0 15.6-27.6 15.6-35.4 0-9.3-23.7-29.1-23.7-67.8 0-80.4 61.2-137.4 140.4-137.4 68.1 0 118.5 38.7 118.5 109.8 0 53.1-21.3 152.7-90.3 152.7-24.9 0-46.2-18-46.2-43.8 0-37.8 26.4-74.4 26.4-113.4 0-66.2-93.9-54.2-93.9 25.8 0 16.8 2.1 35.4 9.6 50.7-13.8 59.4-42 147.9-42 209.1 0 18.9 2.7 37.5 4.5 56.4 3.4 3.8 1.7 3.4 6.9 1.5 50.4-69 48.6-82.5 71.4-172.8 12.3 23.4 44.1 36 69.3 36 106.2 0 153.9-103.5 153.9-196.8C384 71.3 298.2 6.5 204 6.5z"/></symbol><symbol id="icon-pinterest-square" viewBox="0 0 448 512"><path d="M448 80v352c0 26.5-21.5 48-48 48H154.4c9.8-16.4 22.4-40 27.4-59.3 3-11.5 15.3-58.4 15.3-58.4 8 15.3 31.4 28.2 56.3 28.2 74.1 0 127.4-68.1 127.4-152.7 0-81.1-66.2-141.8-151.4-141.8-106 0-162.2 71.1-162.2 148.6 0 36 19.2 80.8 49.8 95.1 4.7 2.2 7.1 1.2 8.2-3.3.8-3.4 5-20.1 6.8-27.8.6-2.5.3-4.6-1.7-7-10.1-12.3-18.3-34.9-18.3-56 0-54.2 41-106.6 110.9-106.6 60.3 0 102.6 41.1 102.6 99.9 0 66.4-33.5 112.4-77.2 112.4-24.1 0-42.1-19.9-36.4-44.4 6.9-29.2 20.3-60.7 20.3-81.8 0-53-75.5-45.7-75.5 25 0 21.7 7.3 36.5 7.3 36.5-31.4 132.8-36.1 134.5-29.6 192.6l2.2.8H48c-26.5 0-48-21.5-48-48V80c0-26.5 21.5-48 48-48h352c26.5 0 48 21.5 48 48z"/></symbol><symbol id="icon-pinterest" viewBox="0 0 496 512"><path d="M496 256c0 137-111 248-248 248-25.6 0-50.2-3.9-73.4-11.1 10.1-16.5 25.2-43.5 30.8-65 3-11.6 15.4-59 15.4-59 8.1 15.4 31.7 28.5 56.8 28.5 74.8 0 128.7-68.8 128.7-154.3 0-81.9-66.9-143.2-152.9-143.2-107 0-163.9 71.8-163.9 150.1 0 36.4 19.4 81.7 50.3 96.1 4.7 2.2 7.2 1.2 8.3-3.3.8-3.4 5-20.3 6.9-28.1.6-2.5.3-4.7-1.7-7.1-10.1-12.5-18.3-35.3-18.3-56.6 0-54.7 41.4-107.6 112-107.6 60.9 0 103.6 41.5 103.6 100.9 0 67.1-33.9 113.6-78 113.6-24.3 0-42.6-20.1-36.7-44.8 7-29.5 20.5-61.3 20.5-82.6 0-19-10.2-34.9-31.4-34.9-24.9 0-44.9 25.7-44.9 60.2 0 22 7.4 36.8 7.4 36.8s-24.5 103.8-29 123.2c-5 21.4-3 51.6-.9 71.2C65.4 450.9 0 361.1 0 256 0 119 111 8 248 8s248 111 248 248z"/></symbol><symbol id="icon-plus" viewBox="0 0 448 512"><path d="M448 294.2v-76.4c0-13.3-10.7-24-24-24H286.2V56c0-13.3-10.7-24-24-24h-76.4c-13.3 0-24 10.7-24 24v137.8H24c-13.3 0-24 10.7-24 24v76.4c0 13.3 10.7 24 24 24h137.8V456c0 13.3 10.7 24 24 24h76.4c13.3 0 24-10.7 24-24V318.2H424c13.3 0 24-10.7 24-24z"/></symbol><symbol id="icon-post-aside" viewBox="0 0 36 36"><path fill="#d37a28" d="M0 0h36v36H0z"/><path fill="#fff" d="M6 6h24v3H6zM6 13h18v3H6zM6 20h24v3H6zM6 27h12v3H6z"/></symbol><symbol id="icon-post-quote" viewBox="0 0 36 36"><path fill="#d37a28" d="M0 0h36v36H0z"/><path fill="#fff" d="M6 6h24v3H6zM6 13h18v3H6zM6 20h24v3H6zM6 27h12v3H6z"/></symbol><symbol id="icon-post-video" viewBox="0 0 36 36"><path fill="#d37a28" d="M0 0h36v36H0z"/><path fill="#fff" d="M6 6h24v3H6zM6 13h18v3H6zM6 20h24v3H6zM6 27h12v3H6z"/></symbol><symbol id="icon-post" viewBox="0 0 36 36"><path fill="#d37a28" d="M0 0h36v36H0z"/><path fill="#fff" d="M6 6h24v3H6zM6 13h18v3H6zM6 20h24v3H6zM6 27h12v3H6z"/></symbol><symbol id="icon-quote-left" viewBox="0 0 512 512"><path d="M0 432V304C0 166.982 63.772 67.676 193.827 32.828 209.052 28.748 224 40.265 224 56.027v33.895c0 10.057-6.228 19.133-15.687 22.55C142.316 136.312 104 181.946 104 256h72c26.51 0 48 21.49 48 48v128c0 26.51-21.49 48-48 48H48c-26.51 0-48-21.49-48-48zm336 48h128c26.51 0 48-21.49 48-48V304c0-26.51-21.49-48-48-48h-72c0-74.054 38.316-119.688 104.313-143.528C505.772 109.055 512 99.979 512 89.922V56.027c0-15.762-14.948-27.279-30.173-23.199C351.772 67.676 288 166.982 288 304v128c0 26.51 21.49 48 48 48z"/></symbol><symbol id="icon-spotify" viewBox="0 0 496 512"><path d="M248 8C111.1 8 0 119.1 0 256s111.1 248 248 248 248-111.1 248-248S384.9 8 248 8zm100.7 364.9c-4.2 0-6.8-1.3-10.7-3.6-62.4-37.6-135-39.2-206.7-24.5-3.9 1-9 2.6-11.9 2.6-9.7 0-15.8-7.7-15.8-15.8 0-10.3 6.1-15.2 13.6-16.8 81.9-18.1 165.6-16.5 237 26.2 6.1 3.9 9.7 7.4 9.7 16.5s-7.1 15.4-15.2 15.4zm26.9-65.6c-5.2 0-8.7-2.3-12.3-4.2-62.5-37-155.7-51.9-238.6-29.4-4.8 1.3-7.4 2.6-11.9 2.6-10.7 0-19.4-8.7-19.4-19.4s5.2-17.8 15.5-20.7c27.8-7.8 56.2-13.6 97.8-13.6 64.9 0 127.6 16.1 177 45.5 8.1 4.8 11.3 11 11.3 19.7-.1 10.8-8.5 19.5-19.4 19.5zm31-76.2c-5.2 0-8.4-1.3-12.9-3.9-71.2-42.5-198.5-52.7-280.9-29.7-3.6 1-8.1 2.6-12.9 2.6-13.2 0-23.3-10.3-23.3-23.6 0-13.6 8.4-21.3 17.4-23.9 35.2-10.3 74.6-15.2 117.5-15.2 73 0 149.5 15.2 205.4 47.8 7.8 4.5 12.9 10.7 12.9 22.6 0 13.6-11 23.3-23.2 23.3z"/></symbol><symbol id="icon-tumblr-square" viewBox="0 0 448 512"><path d="M400 32H48C21.5 32 0 53.5 0 80v352c0 26.5 21.5 48 48 48h352c26.5 0 48-21.5 48-48V80c0-26.5-21.5-48-48-48zm-82.3 364.2c-8.5 9.1-31.2 19.8-60.9 19.8-75.5 0-91.9-55.5-91.9-87.9v-90h-29.7c-3.4 0-6.2-2.8-6.2-6.2v-42.5c0-4.5 2.8-8.5 7.1-10 38.8-13.7 50.9-47.5 52.7-73.2.5-6.9 4.1-10.2 10-10.2h44.3c3.4 0 6.2 2.8 6.2 6.2v72h51.9c3.4 0 6.2 2.8 6.2 6.2v51.1c0 3.4-2.8 6.2-6.2 6.2h-52.1V321c0 21.4 14.8 33.5 42.5 22.4 3-1.2 5.6-2 8-1.4 2.2.5 3.6 2.1 4.6 4.9l13.8 40.2c1 3.2 2 6.7-.3 9.1z"/></symbol><symbol id="icon-tumblr" viewBox="0 0 320 512"><path d="M309.8 480.3c-13.6 14.5-50 31.7-97.4 31.7-120.8 0-147-88.8-147-140.6v-144H17.9c-5.5 0-10-4.5-10-10v-68c0-7.2 4.5-13.6 11.3-16 62-21.8 81.5-76 84.3-117.1.8-11 6.5-16.3 16.1-16.3h70.9c5.5 0 10 4.5 10 10v115.2h83c5.5 0 10 4.4 10 9.9v81.7c0 5.5-4.5 10-10 10h-83.4V360c0 34.2 23.7 53.6 68 35.8 4.8-1.9 9-3.2 12.7-2.2 3.5.9 5.8 3.4 7.4 7.9l22 64.3c1.8 5 3.3 10.6-.4 14.5z"/></symbol><symbol id="icon-twitter-square" viewBox="0 0 448 512"><path d="M400 32H48C21.5 32 0 53.5 0 80v352c0 26.5 21.5 48 48 48h352c26.5 0 48-21.5 48-48V80c0-26.5-21.5-48-48-48zm-48.9 158.8c.2 2.8.2 5.7.2 8.5 0 86.7-66 186.6-186.6 186.6-37.2 0-71.7-10.8-100.7-29.4 5.3.6 10.4.8 15.8.8 30.7 0 58.9-10.4 81.4-28-28.8-.6-53-19.5-61.3-45.5 10.1 1.5 19.2 1.5 29.6-1.2-30-6.1-52.5-32.5-52.5-64.4v-.8c8.7 4.9 18.9 7.9 29.6 8.3a65.447 65.447 0 0 1-29.2-54.6c0-12.2 3.2-23.4 8.9-33.1 32.3 39.8 80.8 65.8 135.2 68.6-9.3-44.5 24-80.6 64-80.6 18.9 0 35.9 7.9 47.9 20.7 14.8-2.8 29-8.3 41.6-15.8-4.9 15.2-15.2 28-28.8 36.1 13.2-1.4 26-5.1 37.8-10.2-8.9 13.1-20.1 24.7-32.9 34z"/></symbol><symbol id="icon-twitter" viewBox="0 0 512 512"><path d="M459.37 151.716c.325 4.548.325 9.097.325 13.645 0 138.72-105.583 298.558-298.558 298.558-59.452 0-114.68-17.219-161.137-47.106 8.447.974 16.568 1.299 25.34 1.299 49.055 0 94.213-16.568 130.274-44.832-46.132-.975-84.792-31.188-98.112-72.772 6.498.974 12.995 1.624 19.818 1.624 9.421 0 18.843-1.3 27.614-3.573-48.081-9.747-84.143-51.98-84.143-102.985v-1.299c13.969 7.797 30.214 12.67 47.431 13.319-28.264-18.843-46.781-51.005-46.781-87.391 0-19.492 5.197-37.36 14.294-52.954 51.655 63.675 129.3 105.258 216.365 109.807-1.624-7.797-2.599-15.918-2.599-24.04 0-57.828 46.782-104.934 104.934-104.934 30.213 0 57.502 12.67 76.67 33.137 23.715-4.548 46.456-13.32 66.599-25.34-7.798 24.366-24.366 44.833-46.132 57.827 21.117-2.273 41.584-8.122 60.426-16.243-14.292 20.791-32.161 39.308-52.628 54.253z"/></symbol><symbol id="icon-vimeo-square" viewBox="0 0 448 512"><path d="M400 32H48C21.5 32 0 53.5 0 80v352c0 26.5 21.5 48 48 48h352c26.5 0 48-21.5 48-48V80c0-26.5-21.5-48-48-48zm-16.2 149.6c-1.4 31.1-23.2 73.8-65.3 127.9-43.5 56.5-80.3 84.8-110.4 84.8-18.7 0-34.4-17.2-47.3-51.6-25.2-92.3-35.9-146.4-56.7-146.4-2.4 0-10.8 5-25.1 15.1L64 192c36.9-32.4 72.1-68.4 94.1-70.4 24.9-2.4 40.2 14.6 46 51.1 20.5 129.6 29.6 149.2 66.8 90.5 13.4-21.2 20.6-37.2 21.5-48.3 3.4-32.8-25.6-30.6-45.2-22.2 15.7-51.5 45.8-76.5 90.1-75.1 32.9 1 48.4 22.4 46.5 64z"/></symbol><symbol id="icon-vimeo-v" viewBox="0 0 448 512"><path d="M447.8 153.6c-2 43.6-32.4 103.3-91.4 179.1-60.9 79.2-112.4 118.8-154.6 118.8-26.1 0-48.2-24.1-66.3-72.3C100.3 250 85.3 174.3 56.2 174.3c-3.4 0-15.1 7.1-35.2 21.1L0 168.2c51.6-45.3 100.9-95.7 131.8-98.5 34.9-3.4 56.3 20.5 64.4 71.5 28.7 181.5 41.4 208.9 93.6 126.7 18.7-29.6 28.8-52.1 30.2-67.6 4.8-45.9-35.8-42.8-63.3-31 22-72.1 64.1-107.1 126.2-105.1 45.8 1.2 67.5 31.1 64.9 89.4z"/></symbol><symbol id="icon-vimeo" viewBox="0 0 448 512"><path d="M403.2 32H44.8C20.1 32 0 52.1 0 76.8v358.4C0 459.9 20.1 480 44.8 480h358.4c24.7 0 44.8-20.1 44.8-44.8V76.8c0-24.7-20.1-44.8-44.8-44.8zM377 180.8c-1.4 31.5-23.4 74.7-66 129.4-44 57.2-81.3 85.8-111.7 85.8-18.9 0-34.8-17.4-47.9-52.3-25.5-93.3-36.4-148-57.4-148-2.4 0-10.9 5.1-25.4 15.2l-15.2-19.6c37.3-32.8 72.9-69.2 95.2-71.2 25.2-2.4 40.7 14.8 46.5 51.7 20.7 131.2 29.9 151 67.6 91.6 13.5-21.4 20.8-37.7 21.8-48.9 3.5-33.2-25.9-30.9-45.8-22.4 15.9-52.1 46.3-77.4 91.2-76 33.3.9 49 22.5 47.1 64.7z"/></symbol><symbol id="icon-wordpress-simple" viewBox="0 0 512 512"><path d="M256 8C119.3 8 8 119.2 8 256c0 136.7 111.3 248 248 248s248-111.3 248-248C504 119.2 392.7 8 256 8zM33 256c0-32.3 6.9-63 19.3-90.7l106.4 291.4C84.3 420.5 33 344.2 33 256zm223 223c-21.9 0-43-3.2-63-9.1l66.9-194.4 68.5 187.8c.5 1.1 1 2.1 1.6 3.1-23.1 8.1-48 12.6-74 12.6zm30.7-327.5c13.4-.7 25.5-2.1 25.5-2.1 12-1.4 10.6-19.1-1.4-18.4 0 0-36.1 2.8-59.4 2.8-21.9 0-58.7-2.8-58.7-2.8-12-.7-13.4 17.7-1.4 18.4 0 0 11.4 1.4 23.4 2.1l34.7 95.2L200.6 393l-81.2-241.5c13.4-.7 25.5-2.1 25.5-2.1 12-1.4 10.6-19.1-1.4-18.4 0 0-36.1 2.8-59.4 2.8-4.2 0-9.1-.1-14.4-.3C109.6 73 178.1 33 256 33c58 0 110.9 22.2 150.6 58.5-1-.1-1.9-.2-2.9-.2-21.9 0-37.4 19.1-37.4 39.6 0 18.4 10.6 33.9 21.9 52.3 8.5 14.8 18.4 33.9 18.4 61.5 0 19.1-7.3 41.2-17 72.1l-22.2 74.3-80.7-239.6zm81.4 297.2l68.1-196.9c12.7-31.8 17-57.2 17-79.9 0-8.2-.5-15.8-1.5-22.9 17.4 31.8 27.3 68.2 27.3 107 0 82.3-44.6 154.1-110.9 192.7z"/></symbol><symbol id="icon-wordpress" viewBox="0 0 512 512"><path d="M61.7 169.4l101.5 278C92.2 413 43.3 340.2 43.3 256c0-30.9 6.6-60.1 18.4-86.6zm337.9 75.9c0-26.3-9.4-44.5-17.5-58.7-10.8-17.5-20.9-32.4-20.9-49.9 0-19.6 14.8-37.8 35.7-37.8.9 0 1.8.1 2.8.2-37.9-34.7-88.3-55.9-143.7-55.9-74.3 0-139.7 38.1-177.8 95.9 5 .2 9.7.3 13.7.3 22.2 0 56.7-2.7 56.7-2.7 11.5-.7 12.8 16.2 1.4 17.5 0 0-11.5 1.3-24.3 2l77.5 230.4L249.8 247l-33.1-90.8c-11.5-.7-22.3-2-22.3-2-11.5-.7-10.1-18.2 1.3-17.5 0 0 35.1 2.7 56 2.7 22.2 0 56.7-2.7 56.7-2.7 11.5-.7 12.8 16.2 1.4 17.5 0 0-11.5 1.3-24.3 2l76.9 228.7 21.2-70.9c9-29.4 16-50.5 16-68.7zm-139.9 29.3l-63.8 185.5c19.1 5.6 39.2 8.7 60.1 8.7 24.8 0 48.5-4.3 70.6-12.1-.6-.9-1.1-1.9-1.5-2.9l-65.4-179.2zm183-120.7c.9 6.8 1.4 14 1.4 21.9 0 21.6-4 45.8-16.2 76.2l-65 187.9C426.2 403 468.7 334.5 468.7 256c0-37-9.4-71.8-26-102.1zM504 256c0 136.8-111.3 248-248 248C119.2 504 8 392.7 8 256 8 119.2 119.2 8 256 8c136.7 0 248 111.2 248 248zm-11.4 0c0-130.5-106.2-236.6-236.6-236.6C125.5 19.4 19.4 125.5 19.4 256S125.6 492.6 256 492.6c130.5 0 236.6-106.1 236.6-236.6z"/></symbol><symbol id="icon-youtube" viewBox="0 0 576 512"><path d="M549.655 124.083c-6.281-23.65-24.787-42.276-48.284-48.597C458.781 64 288 64 288 64S117.22 64 74.629 75.486c-23.497 6.322-42.003 24.947-48.284 48.597-11.412 42.867-11.412 132.305-11.412 132.305s0 89.438 11.412 132.305c6.281 23.65 24.787 41.5 48.284 47.821C117.22 448 288 448 288 448s170.78 0 213.371-11.486c23.497-6.321 42.003-24.171 48.284-47.821 11.412-42.867 11.412-132.305 11.412-132.305s0-89.438-11.412-132.305zm-317.51 213.508V175.185l142.739 81.205-142.739 81.201z"/></symbol></svg>