<?xml version="1.0" encoding="UTF-8"?><!DOCTYPE svg PUBLIC "-//W3C//DTD SVG 1.1//EN" "http://www.w3.org/Graphics/SVG/1.1/DTD/svg11.dtd"><svg xmlns="http://www.w3.org/2000/svg"><symbol id="facebook-square" viewBox="0 0 512 512"><title/><path d="M464 0H48C21.6 0 0 21.6 0 48v416c0 26.4 21.6 48 48 48h208V288h-64v-64h64v-32c0-52.9 43.1-96 96-96h64v64h-64c-17.6 0-32 14.4-32 32v32h96l-16 64h-80v224h144c26.4 0 48-21.6 48-48V48c0-26.4-21.6-48-48-48z"/></symbol><symbol id="facebook" viewBox="0 0 512 512"><title/><path d="M304 96h80V0h-80c-61.757 0-112 50.243-112 112v48h-64v96h64v256h96V256h80l16-96h-96v-48c0-8.673 7.327-16 16-16z"/></symbol><symbol id="linkedin-square" viewBox="0 0 512 512"><title/><path d="M192 192h88.553v45.391h1.266C294.139 215.294 324.298 192 369.24 192 462.713 192 480 250.188 480 325.867V480h-92.305V343.361c0-32.592-.667-74.513-48.014-74.513-48.074 0-55.41 35.493-55.41 72.146V480H192V192zM32 192h96v288H32V192zM128 112c0 26.51-21.49 48-48 48s-48-21.49-48-48 21.49-48 48-48 48 21.49 48 48z"/></symbol><symbol id="linkedin" viewBox="0 0 512 512"><title/><path d="M464 0H48C21.6 0 0 21.6 0 48v416c0 26.4 21.6 48 48 48h416c26.4 0 48-21.6 48-48V48c0-26.4-21.6-48-48-48zM192 416h-64V192h64v224zm-32-256c-17.7 0-32-14.3-32-32s14.3-32 32-32 32 14.3 32 32-14.3 32-32 32zm256 256h-64V288c0-17.7-14.3-32-32-32s-32 14.3-32 32v128h-64V192h64v39.7c13.2-18.1 33.4-39.7 56-39.7 39.8 0 72 35.8 72 80v144z"/></symbol><symbol id="post-aside" viewBox="0 0 36 36"><path fill="#d37a28" d="M0 0h36v36H0z"/><path fill="#fff" d="M6 6h24v3H6zM6 13h18v3H6zM6 20h24v3H6zM6 27h12v3H6z"/></symbol><symbol id="post-quote" viewBox="0 0 36 36"><path fill="#d37a28" d="M0 0h36v36H0z"/><path fill="#fff" d="M6 6h24v3H6zM6 13h18v3H6zM6 20h24v3H6zM6 27h12v3H6z"/></symbol><symbol id="post-video" viewBox="0 0 36 36"><path fill="#d37a28" d="M0 0h36v36H0z"/><path fill="#fff" d="M6 6h24v3H6zM6 13h18v3H6zM6 20h24v3H6zM6 27h12v3H6z"/></symbol><symbol id="post" viewBox="0 0 36 36"><path fill="#d37a28" d="M0 0h36v36H0z"/><path fill="#fff" d="M6 6h24v3H6zM6 13h18v3H6zM6 20h24v3H6zM6 27h12v3H6z"/></symbol><symbol id="twitter-square" viewBox="0 0 384 448"><title/><path d="M320 152.5c-9.5 4.25-19.5 7-30.25 8.5 11-6.5 19.25-17 23.25-29.25-10.25 6-21.5 10.5-33.5 12.75-9.5-10.25-23.25-16.5-38.25-16.5-29 0-52.5 23.5-52.5 52.5 0 4 .25 8.25 1.25 12-43.75-2.25-82.5-23-108.5-55-4.5 7.75-7.25 17-7.25 26.5 0 18.25 8.5 34.25 22.75 43.75-8.75-.25-17-2.75-25-6.5v.5c0 25.5 19.25 46.75 43.25 51.5-4.5 1.25-8 2-12.75 2-3.25 0-6.5-.5-9.75-1 6.75 20.75 26 36 49 36.5-18 14-40.5 22.5-65.25 22.5-4.25 0-8.5-.25-12.5-.75 23.25 14.75 50.75 23.5 80.5 23.5C241 336 294 256 294 186.5c0-2.25 0-4.5-.25-6.75C304 172.5 313 163.25 320 152.5zm64-48.5v240c0 39.75-32.25 72-72 72H72c-39.75 0-72-32.25-72-72V104c0-39.75 32.25-72 72-72h240c39.75 0 72 32.25 72 72z"/></symbol><symbol id="twitter" viewBox="0 0 512 512"><title/><path d="M512 113.2c-18.8 8.4-39.1 14-60.3 16.5 21.7-13 38.3-33.6 46.2-58.1-20.3 12-42.8 20.8-66.7 25.5C412 76.7 384.7 64 354.5 64c-58 0-105 47-105 105 0 8.2.9 16.2 2.7 23.9-87.3-4.4-164.7-46.2-216.5-109.8-9 15.5-14.2 33.6-14.2 52.8 0 36.4 18.5 68.6 46.7 87.4-17.2-.5-33.4-5.3-47.6-13.1v1.3c0 50.9 36.2 93.4 84.3 103-8.8 2.4-18.1 3.7-27.7 3.7-6.8 0-13.3-.7-19.8-1.9 13.4 41.7 52.2 72.1 98.1 73-36 28.2-81.2 45-130.5 45-8.5 0-16.8-.5-25.1-1.5C46.5 462.7 101.7 480 161 480c193.2 0 298.9-160.1 298.9-298.9 0-4.6-.1-9.1-.3-13.6 20.5-14.7 38.3-33.2 52.4-54.3z"/></symbol></svg>