<svg style="display:none" viewBox="0 0 101 101"><symbol viewBox="0 0 29 32" id="icon-flourish-leaf-light"><title>flourish-leaf-light</title>  <g id="flourish-leaf-light-_x31_600"> <g id="flourish-leaf-light-XMLID_8_"> <path id="flourish-leaf-light-XMLID_9_" style="fill:#C4C6C7;" d="M22.6,11.6c-2.9-0.2-4,2.8-4.3,2.8c-0.4,0-0.1-2.5-1.5-6c1.1-1.9,1.4-4.3,1.4-4.3
			l-1.3-0.9c0.1,1.1-0.2,2.5-0.7,3.8c-1.9-3.7-4.9-5.1-7.4-5.1C6.1,2,4.9,4.1,4.9,4.1S4.3,3,3.8,2.2C3.4,1.3,1.6,2,2,2.9
			c0.4,1,2.8,5.6,3.2,6c0.3,0.3,1.5,0,1.5-0.4C6.6,8.1,6.4,5.6,8,4.8c0.7-0.3,1.8-0.4,3-0.1c-1.6,2.1-0.7,5.9,2.6,5.8
			c0.9,0,1.6-0.4,2.2-1.1c1,2.5,1.2,5,0.7,5c-0.6,0.1-1.5-1.5-3.3-1.8c-1.8-0.3-4.9,0.8-4.6,4.3c0.3,3.6,5.5,4.9,6.7,6.5
			c1.1,1.6-0.6,4-2.9,4.1c-2.3,0.1-4.6-1.8-5.2-2.3c-0.6-0.5-2,0.1-1.1,1.2c0.9,1.1,3.5,3.6,9,3.7c5.5,0.1,10.2-5.3,11.5-10.2
			C28,15.1,25.5,11.7,22.6,11.6z M14.3,9.3c-1.7,1-3.2-1.1-2.1-2.3c0.7-0.8,1.7-0.5,2.2-0.3c0.3,0.3,0.5,0.6,0.7,1
			c0.1,0.2,0.2,0.4,0.3,0.6C15.1,8.7,14.7,9,14.3,9.3z"/> </g> </g> </symbol><symbol viewBox="0 0 50 50" id="icon-flourish-leaf-light-fix"><title>flourish-leaf-light</title><use xlink:href="#icon-flourish-leaf-light-fix" transform="scale(0.64) translate(10.5, 9)"/></symbol><symbol viewBox="0 0 29 32" id="icon-flourish-leaf"><title>flourish-leaf</title>  <g id="flourish-leaf-_x31_600"> <g id="flourish-leaf-XMLID_8_"> <path id="flourish-leaf-XMLID_9_" d="M22.6,11.6c-2.9-0.2-4,2.8-4.3,2.8c-0.4,0-0.1-2.5-1.5-6c1.1-1.9,1.4-4.3,1.4-4.3
			l-1.3-0.9c0.1,1.1-0.2,2.5-0.7,3.8c-1.9-3.7-4.9-5.1-7.4-5.1C6.1,2,4.9,4.1,4.9,4.1S4.3,3,3.8,2.2C3.4,1.3,1.6,2,2,2.9
			c0.4,1,2.8,5.6,3.2,6c0.3,0.3,1.5,0,1.5-0.4C6.6,8.1,6.4,5.6,8,4.8c0.7-0.3,1.8-0.4,3-0.1c-1.6,2.1-0.7,5.9,2.6,5.8
			c0.9,0,1.6-0.4,2.2-1.1c1,2.5,1.2,5,0.7,5c-0.6,0.1-1.5-1.5-3.3-1.8c-1.8-0.3-4.9,0.8-4.6,4.3c0.3,3.6,5.5,4.9,6.7,6.5
			c1.1,1.6-0.6,4-2.9,4.1c-2.3,0.1-4.6-1.8-5.2-2.3c-0.6-0.5-2,0.1-1.1,1.2c0.9,1.1,3.5,3.6,9,3.7c5.5,0.1,10.2-5.3,11.5-10.2
			C28,15.1,25.5,11.7,22.6,11.6z M14.3,9.3c-1.7,1-3.2-1.1-2.1-2.3c0.7-0.8,1.7-0.5,2.2-0.3c0.3,0.3,0.5,0.6,0.7,1
			c0.1,0.2,0.2,0.4,0.3,0.6C15.1,8.7,14.7,9,14.3,9.3z"/> </g> </g> </symbol><symbol viewBox="0 0 50 50" id="icon-flourish-leaf-fix"><title>flourish-leaf</title><use xlink:href="#icon-flourish-leaf-fix" transform="scale(0.64) translate(10.5, 9)"/></symbol><symbol viewBox="0 0 36 36" id="icon-post-aside"><title>post-aside</title> <g id="post-aside-XMLID_59_"> <g id="post-aside-XMLID_10_"> <rect id="post-aside-XMLID_11_" x="0" style="fill:#D37A28;" width="36" height="36"/> </g> <rect id="post-aside-XMLID_5_" x="6" y="6" style="fill:#FFFFFF;" width="24" height="3"/> <rect id="post-aside-XMLID_4_" x="6" y="13" style="fill:#FFFFFF;" width="18" height="3"/> <rect id="post-aside-XMLID_3_" x="6" y="20" style="fill:#FFFFFF;" width="24" height="3"/> <rect id="post-aside-XMLID_2_" x="6" y="27" style="fill:#FFFFFF;" width="12" height="3"/> </g> </symbol><symbol viewBox="0 0 50 50" id="icon-post-aside-fix"><title>post-aside</title><use xlink:href="#icon-post-aside-fix" transform="scale(0.72) translate(7, 7)"/></symbol><symbol viewBox="0 0 36 36" id="icon-post-quote"><title>post-quote</title> <g id="post-quote-XMLID_59_"> <g id="post-quote-XMLID_10_"> <rect id="post-quote-XMLID_11_" x="0" style="fill:#D37A28;" width="36" height="36"/> </g> <rect id="post-quote-XMLID_5_" x="6" y="6" style="fill:#FFFFFF;" width="24" height="3"/> <rect id="post-quote-XMLID_4_" x="6" y="13" style="fill:#FFFFFF;" width="18" height="3"/> <rect id="post-quote-XMLID_3_" x="6" y="20" style="fill:#FFFFFF;" width="24" height="3"/> <rect id="post-quote-XMLID_2_" x="6" y="27" style="fill:#FFFFFF;" width="12" height="3"/> </g> </symbol><symbol viewBox="0 0 50 50" id="icon-post-quote-fix"><title>post-quote</title><use xlink:href="#icon-post-quote-fix" transform="scale(0.72) translate(7, 7)"/></symbol><symbol viewBox="0 0 36 36" id="icon-post"><title>post</title> <g id="post-XMLID_59_"> <g id="post-XMLID_10_"> <rect id="post-XMLID_11_" x="0" style="fill:#D37A28;" width="36" height="36"/> </g> <rect id="post-XMLID_5_" x="6" y="6" style="fill:#FFFFFF;" width="24" height="3"/> <rect id="post-XMLID_4_" x="6" y="13" style="fill:#FFFFFF;" width="18" height="3"/> <rect id="post-XMLID_3_" x="6" y="20" style="fill:#FFFFFF;" width="24" height="3"/> <rect id="post-XMLID_2_" x="6" y="27" style="fill:#FFFFFF;" width="12" height="3"/> </g> </symbol><symbol viewBox="0 0 50 50" id="icon-post-fix"><title>post</title><use xlink:href="#icon-post-fix" transform="scale(0.72) translate(7, 7)"/></symbol><symbol viewBox="0 0 1273 225" id="icon-thomas-vaughan-bathrooms-logo"><title>thomas-vaughan-bathrooms-logo</title> <g> <path style="fill:#CEC045;" d="M215.5,44.3v64.1c7.1-7.8,12.7-12.8,16.8-15c4.1-2.2,8.3-3.3,12.4-3.3c5,0,9.3,1.4,12.8,4.1
		c3.6,2.7,6.2,7.1,7.9,12.9c1.2,4.1,1.8,11.5,1.8,22.4v31c0,5.6,0.4,9.3,1.3,11.4c0.6,1.5,1.7,2.7,3.3,3.6c1.5,0.9,4.3,1.3,8.4,1.3
		v3.4h-43.1v-3.4h2c4.1,0,6.9-0.6,8.5-1.9c1.6-1.2,2.7-3.1,3.3-5.5c0.2-1,0.3-4,0.3-9v-31c0-9.6-0.5-15.9-1.5-18.9
		c-1-3-2.6-5.2-4.7-6.7c-2.2-1.5-4.8-2.2-7.8-2.2c-3.1,0-6.4,0.8-9.8,2.5c-3.4,1.7-7.4,5-12.2,10v46.3c0,6,0.3,9.7,1,11.2
		c0.7,1.5,1.9,2.7,3.7,3.7c1.8,1,5,1.5,9.4,1.5v3.4h-43.4v-3.4c3.9,0,7-0.6,9.2-1.8c1.3-0.6,2.3-1.8,3.1-3.6
		c0.8-1.8,1.1-5.4,1.1-10.9V81.2c0-10-0.2-16.2-0.7-18.5s-1.2-3.9-2.2-4.7c-1-0.8-2.3-1.2-4-1.2c-1.3,0-3.5,0.5-6.5,1.5l-1.3-3.3
		l26.2-10.7H215.5z"/> <path style="fill:#CEC045;" d="M322.4,90.1c13.3,0,23.9,5,32,15.1c6.8,8.6,10.2,18.5,10.2,29.7c0,7.8-1.9,15.8-5.6,23.8
		c-3.8,8-8.9,14.1-15.6,18.2s-14,6.1-22.1,6.1c-13.2,0-23.7-5.3-31.5-15.8c-6.6-8.9-9.9-18.8-9.9-29.9c0-8,2-16,6-24
		c4-7.9,9.2-13.8,15.7-17.6C308.2,92,315.1,90.1,322.4,90.1z M319.4,96.3c-3.4,0-6.8,1-10.2,3c-3.4,2-6.2,5.5-8.3,10.6
		c-2.1,5-3.2,11.5-3.2,19.4c0,12.8,2.5,23.8,7.6,33c5.1,9.3,11.8,13.9,20,13.9c6.2,0,11.3-2.6,15.3-7.7c4-5.1,6-13.9,6-26.3
		c0-15.6-3.3-27.8-10-36.8C332.2,99.4,326.4,96.3,319.4,96.3z"/> <path style="fill:#CEC045;" d="M395.3,108.8c6.4-6.4,10.1-10,11.3-11c2.9-2.4,6-4.3,9.3-5.6c3.3-1.3,6.6-2,9.9-2
		c5.5,0,10.2,1.6,14.2,4.8c4,3.2,6.6,7.8,7.9,13.9c6.6-7.7,12.1-12.7,16.7-15.1c4.5-2.4,9.2-3.6,14-3.6c4.7,0,8.8,1.2,12.4,3.6
		c3.6,2.4,6.5,6.3,8.6,11.7c1.4,3.7,2.1,9.5,2.1,17.4v37.7c0,5.5,0.4,9.3,1.2,11.3c0.6,1.4,1.8,2.6,3.5,3.6c1.7,1,4.5,1.5,8.4,1.5
		v3.4h-43.3v-3.4h1.8c3.8,0,6.7-0.7,8.8-2.2c1.5-1,2.5-2.6,3.2-4.9c0.3-1.1,0.4-4.2,0.4-9.3v-37.7c0-7.1-0.9-12.2-2.6-15.1
		c-2.5-4.1-6.5-6.1-12-6.1c-3.4,0-6.8,0.8-10.2,2.5c-3.4,1.7-7.5,4.8-12.4,9.4l-0.2,1.1l0.2,4.1v41.8c0,6,0.3,9.7,1,11.2
		c0.7,1.5,1.9,2.7,3.8,3.7c1.8,1,5,1.5,9.5,1.5v3.4h-44.3v-3.4c4.8,0,8.2-0.6,10-1.7s3.1-2.9,3.8-5.2c0.3-1.1,0.5-4.2,0.5-9.5v-37.7
		c0-7.1-1.1-12.3-3.2-15.4c-2.8-4.1-6.7-6.1-11.8-6.1c-3.4,0-6.9,0.9-10.2,2.8c-5.3,2.8-9.4,6-12.3,9.5v47c0,5.7,0.4,9.5,1.2,11.2
		c0.8,1.7,2,3,3.5,3.9c1.6,0.9,4.7,1.3,9.5,1.3v3.4h-43.4v-3.4c4,0,6.8-0.4,8.4-1.3c1.6-0.9,2.8-2.2,3.6-4.1c0.8-1.9,1.2-5.5,1.2-11
		v-33.5c0-9.6-0.3-15.9-0.9-18.7c-0.4-2.1-1.1-3.6-2.1-4.4c-1-0.8-2.3-1.2-3.9-1.2c-1.8,0-3.9,0.5-6.4,1.4l-1.4-3.4l26.4-10.7h4.1
		V108.8z"/> <path style="fill:#CEC045;" d="M563.2,167.7c-9,7-14.6,11-16.9,12.1c-3.4,1.6-7.1,2.4-11,2.4c-6.1,0-11.1-2.1-15-6.2
		c-3.9-4.1-5.9-9.6-5.9-16.4c0-4.3,1-8,2.9-11.1c2.6-4.3,7.2-8.4,13.6-12.3c6.5-3.8,17.2-8.5,32.3-14v-3.4c0-8.7-1.4-14.7-4.2-18
		s-6.8-4.9-12.1-4.9c-4,0-7.2,1.1-9.6,3.3c-2.4,2.2-3.6,4.7-3.6,7.5l0.2,5.6c0,2.9-0.8,5.2-2.2,6.8c-1.5,1.6-3.5,2.4-5.9,2.4
		c-2.4,0-4.3-0.8-5.8-2.5c-1.5-1.7-2.2-3.9-2.2-6.8c0-5.5,2.8-10.5,8.4-15.1c5.6-4.6,13.5-6.9,23.6-6.9c7.8,0,14.2,1.3,19.1,3.9
		c3.8,2,6.5,5.1,8.3,9.3c1.1,2.7,1.7,8.4,1.7,16.8v29.8c0,8.4,0.2,13.5,0.5,15.4c0.3,1.9,0.8,3.1,1.6,3.8c0.7,0.6,1.6,1,2.5,1
		c1,0,1.9-0.2,2.7-0.7c1.3-0.8,3.9-3.2,7.8-7v5.4c-7.1,9.6-14,14.4-20.5,14.4c-3.1,0-5.6-1.1-7.5-3.3
		C564.2,176.7,563.2,173,563.2,167.7z M563.2,161.5v-33.4c-9.6,3.8-15.9,6.5-18.7,8.1c-5,2.8-8.6,5.7-10.8,8.8
		c-2.2,3.1-3.3,6.4-3.3,10c0,4.6,1.4,8.4,4.1,11.4c2.7,3,5.9,4.5,9.5,4.5C548.9,171.1,555.3,167.9,563.2,161.5z"/> <path style="fill:#CEC045;" d="M648.9,90.1V120h-3.2c-2.4-9.4-5.5-15.8-9.3-19.1c-3.8-3.4-8.6-5.1-14.5-5.1
		c-4.5,0-8.1,1.2-10.8,3.5c-2.7,2.4-4.1,5-4.1,7.8c0,3.6,1,6.6,3.1,9.2c2,2.6,6,5.4,12.1,8.3l14,6.8c13,6.3,19.4,14.6,19.4,25
		c0,8-3,14.4-9,19.3s-12.8,7.3-20.2,7.3c-5.4,0-11.5-1-18.4-2.9c-2.1-0.6-3.8-1-5.2-1c-1.5,0-2.6,0.8-3.4,2.5h-3.2v-31.3h3.2
		c1.8,8.9,5.2,15.7,10.2,20.2c5,4.5,10.7,6.8,16.9,6.8c4.4,0,8-1.3,10.8-3.9s4.2-5.7,4.2-9.3c0-4.4-1.5-8.1-4.6-11.1
		c-3.1-3-9.3-6.8-18.5-11.4c-9.3-4.6-15.3-8.7-18.2-12.4c-2.9-3.6-4.3-8.2-4.3-13.8c0-7.2,2.5-13.2,7.4-18.1
		c4.9-4.8,11.3-7.3,19.2-7.3c3.4,0,7.6,0.7,12.5,2.2c3.3,1,5.4,1.4,6.5,1.4c1,0,1.8-0.2,2.4-0.7c0.6-0.4,1.2-1.4,2-3H648.9z"/> <path style="fill:#CEC045;" d="M810.6,167.7c-9,7-14.6,11-16.9,12.1c-3.4,1.6-7.1,2.4-11,2.4c-6.1,0-11.1-2.1-15-6.2
		c-3.9-4.1-5.9-9.6-5.9-16.4c0-4.3,1-8,2.9-11.1c2.6-4.3,7.2-8.4,13.6-12.3c6.5-3.8,17.2-8.5,32.3-14v-3.4c0-8.7-1.4-14.7-4.2-18
		s-6.8-4.9-12.1-4.9c-4,0-7.2,1.1-9.6,3.3c-2.4,2.2-3.6,4.7-3.6,7.5l0.2,5.6c0,2.9-0.8,5.2-2.2,6.8c-1.5,1.6-3.5,2.4-5.9,2.4
		c-2.4,0-4.3-0.8-5.8-2.5c-1.5-1.7-2.2-3.9-2.2-6.8c0-5.5,2.8-10.5,8.4-15.1c5.6-4.6,13.5-6.9,23.6-6.9c7.8,0,14.2,1.3,19.1,3.9
		c3.8,2,6.5,5.1,8.3,9.3c1.1,2.7,1.7,8.4,1.7,16.8v29.8c0,8.4,0.2,13.5,0.5,15.4c0.3,1.9,0.8,3.1,1.6,3.8c0.7,0.6,1.6,1,2.5,1
		c1,0,1.9-0.2,2.7-0.7c1.3-0.8,3.9-3.2,7.8-7v5.4c-7.1,9.6-14,14.4-20.5,14.4c-3.1,0-5.6-1.1-7.5-3.3
		C811.6,176.7,810.6,173,810.6,167.7z M810.6,161.5v-33.4c-9.6,3.8-15.9,6.5-18.7,8.1c-5,2.8-8.6,5.7-10.8,8.8
		c-2.2,3.1-3.3,6.4-3.3,10c0,4.6,1.4,8.4,4.1,11.4c2.7,3,5.9,4.5,9.5,4.5C796.3,171.1,802.7,167.9,810.6,161.5z"/> <path style="fill:#CEC045;" d="M915,92.7v53.1c0,10.1,0.2,16.4,0.7,18.6c0.5,2.3,1.2,3.8,2.3,4.7c1.1,0.9,2.3,1.3,3.7,1.3
		c2,0,4.2-0.5,6.7-1.6l1.3,3.3L903.5,183h-4.3v-18.6c-7.5,8.2-13.3,13.3-17.2,15.4c-4,2.1-8.1,3.2-12.5,3.2c-4.9,0-9.2-1.4-12.8-4.3
		c-3.6-2.8-6.1-6.5-7.5-11c-1.4-4.5-2.1-10.8-2.1-18.9v-39.1c0-4.1-0.4-7-1.3-8.6c-0.9-1.6-2.2-2.8-4-3.7c-1.8-0.9-4.9-1.3-9.5-1.2
		v-3.5h30.7v58.7c0,8.2,1.4,13.5,4.3,16.1c2.8,2.6,6.3,3.8,10.3,3.8c2.7,0,5.9-0.9,9.3-2.6c3.5-1.7,7.6-5,12.4-9.9v-49.7
		c0-5-0.9-8.3-2.7-10.1c-1.8-1.8-5.6-2.7-11.3-2.8v-3.5H915z"/> <path style="fill:#CEC045;" d="M949.8,148.4c-5.4-2.6-9.5-6.3-12.3-11s-4.3-9.9-4.3-15.6c0-8.7,3.3-16.1,9.8-22.4
		c6.5-6.3,14.9-9.4,25.1-9.4c8.4,0,15.6,2,21.7,6.1h18.6c2.7,0,4.3,0.1,4.8,0.2c0.4,0.2,0.8,0.4,1,0.8c0.4,0.6,0.6,1.6,0.6,3.1
		c0,1.7-0.2,2.8-0.5,3.4c-0.2,0.3-0.5,0.6-1,0.8s-2.1,0.3-4.8,0.3h-11.4c3.6,4.6,5.4,10.5,5.4,17.6c0,8.2-3.1,15.2-9.4,21
		c-6.3,5.8-14.6,8.7-25.2,8.7c-4.3,0-8.8-0.6-13.3-1.9c-2.8,2.4-4.7,4.5-5.7,6.4c-1,1.8-1.5,3.4-1.5,4.6c0,1.1,0.5,2.1,1.6,3.2
		c1.1,1,3.1,1.8,6.2,2.2c1.8,0.3,6.3,0.5,13.4,0.7c13.1,0.3,21.7,0.8,25.6,1.3c5.9,0.8,10.7,3,14.2,6.6c3.5,3.6,5.3,8,5.3,13.2
		c0,7.2-3.4,14-10.1,20.3c-10,9.3-22.9,14-39,14c-12.3,0-22.7-2.8-31.2-8.3c-4.8-3.2-7.2-6.5-7.2-10c0-1.5,0.3-3.1,1.1-4.6
		c1.1-2.4,3.3-5.6,6.7-9.9c0.4-0.6,3.7-4,9.8-10.3c-3.3-2-5.7-3.7-7-5.3c-1.4-1.6-2.1-3.3-2.1-5.3c0-2.2,0.9-4.8,2.7-7.8
		C939,158.1,943.2,153.9,949.8,148.4z M948.8,180.4c-3,3.3-5.3,6.3-6.8,9.1c-1.5,2.8-2.3,5.4-2.3,7.8c0,3.1,1.8,5.7,5.6,8
		c6.4,4,15.6,5.9,27.7,5.9c11.5,0,20-2,25.4-6.1c5.5-4.1,8.2-8.4,8.2-13c0-3.3-1.6-5.7-4.9-7.1c-3.3-1.4-9.9-2.2-19.7-2.5
		C967.6,182.2,956.5,181.4,948.8,180.4z M966.4,94.7c-4.7,0-8.7,1.9-11.9,5.6c-3.2,3.8-4.8,9.5-4.8,17.3c0,10.1,2.2,17.9,6.5,23.4
		c3.3,4.2,7.5,6.3,12.6,6.3c4.8,0,8.8-1.8,12-5.5c3.1-3.6,4.7-9.3,4.7-17.1c0-10.1-2.2-18.1-6.6-23.8
		C975.7,96.8,971.5,94.7,966.4,94.7z"/> <path style="fill:#CEC045;" d="M1040.2,44.3v64.1c7.1-7.8,12.7-12.8,16.8-15c4.1-2.2,8.3-3.3,12.4-3.3c5,0,9.3,1.4,12.8,4.1
		c3.6,2.7,6.2,7.1,7.9,12.9c1.2,4.1,1.8,11.5,1.8,22.4v31c0,5.6,0.4,9.3,1.3,11.4c0.6,1.5,1.7,2.7,3.3,3.6c1.5,0.9,4.3,1.3,8.4,1.3
		v3.4h-43.1v-3.4h2c4.1,0,6.9-0.6,8.5-1.9c1.6-1.2,2.7-3.1,3.3-5.5c0.2-1,0.3-4,0.3-9v-31c0-9.6-0.5-15.9-1.5-18.9
		c-1-3-2.6-5.2-4.7-6.7c-2.2-1.5-4.8-2.2-7.8-2.2c-3.1,0-6.4,0.8-9.8,2.5c-3.4,1.7-7.4,5-12.2,10v46.3c0,6,0.3,9.7,1,11.2
		c0.7,1.5,1.9,2.7,3.7,3.7c1.8,1,5,1.5,9.4,1.5v3.4H1011v-3.4c3.9,0,7-0.6,9.2-1.8c1.3-0.6,2.3-1.8,3.1-3.6
		c0.8-1.8,1.1-5.4,1.1-10.9V81.2c0-10-0.2-16.2-0.7-18.5s-1.2-3.9-2.2-4.7c-1-0.8-2.3-1.2-4-1.2c-1.3,0-3.5,0.5-6.5,1.5l-1.3-3.3
		l26.2-10.7H1040.2z"/> <path style="fill:#CEC045;" d="M1152.4,167.7c-9,7-14.6,11-16.9,12.1c-3.4,1.6-7.1,2.4-11,2.4c-6.1,0-11.1-2.1-15-6.2
		c-3.9-4.1-5.9-9.6-5.9-16.4c0-4.3,1-8,2.9-11.1c2.6-4.3,7.2-8.4,13.6-12.3c6.5-3.8,17.2-8.5,32.3-14v-3.4c0-8.7-1.4-14.7-4.2-18
		s-6.8-4.9-12.1-4.9c-4,0-7.2,1.1-9.6,3.3c-2.4,2.2-3.6,4.7-3.6,7.5l0.2,5.6c0,2.9-0.8,5.2-2.2,6.8c-1.5,1.6-3.5,2.4-5.9,2.4
		c-2.4,0-4.3-0.8-5.8-2.5c-1.5-1.7-2.2-3.9-2.2-6.8c0-5.5,2.8-10.5,8.4-15.1c5.6-4.6,13.5-6.9,23.6-6.9c7.8,0,14.2,1.3,19.1,3.9
		c3.8,2,6.5,5.1,8.3,9.3c1.1,2.7,1.7,8.4,1.7,16.8v29.8c0,8.4,0.2,13.5,0.5,15.4c0.3,1.9,0.8,3.1,1.6,3.8c0.7,0.6,1.6,1,2.5,1
		c1,0,1.9-0.2,2.7-0.7c1.3-0.8,3.9-3.2,7.8-7v5.4c-7.1,9.6-14,14.4-20.5,14.4c-3.1,0-5.6-1.1-7.5-3.3
		C1153.4,176.7,1152.4,173,1152.4,167.7z M1152.4,161.5v-33.4c-9.6,3.8-15.9,6.5-18.7,8.1c-5,2.8-8.6,5.7-10.8,8.8
		c-2.2,3.1-3.3,6.4-3.3,10c0,4.6,1.4,8.4,4.1,11.4c2.7,3,5.9,4.5,9.5,4.5C1138.1,171.1,1144.5,167.9,1152.4,161.5z"/> <path style="fill:#CEC045;" d="M1205.5,108.7c10.3-12.4,20.1-18.6,29.4-18.6c4.8,0,8.9,1.2,12.3,3.6s6.2,6.3,8.2,11.8
		c1.4,3.8,2.1,9.7,2.1,17.6v37.4c0,5.6,0.4,9.3,1.3,11.3c0.7,1.6,1.8,2.8,3.4,3.7c1.6,0.9,4.5,1.3,8.7,1.3v3.4h-43.4v-3.4h1.8
		c4.1,0,6.9-0.6,8.6-1.9s2.8-3.1,3.4-5.5c0.3-1,0.4-4,0.4-9v-35.9c0-8-1-13.8-3.1-17.4c-2.1-3.6-5.6-5.4-10.5-5.4
		c-7.6,0-15.2,4.1-22.7,12.4v46.2c0,5.9,0.3,9.6,1.1,11c0.9,1.9,2.1,3.2,3.7,4.1c1.6,0.9,4.7,1.3,9.5,1.3v3.4h-43.4v-3.4h1.9
		c4.5,0,7.5-1.1,9-3.4c1.6-2.3,2.3-6.6,2.3-13V128c0-10.5-0.2-16.9-0.7-19.2s-1.2-3.9-2.2-4.7c-1-0.8-2.3-1.2-4-1.2
		c-1.8,0-3.9,0.5-6.4,1.4l-1.4-3.4l26.4-10.7h4.1V108.7z"/> </g> <g> <path style="fill:#C5C7C8;" d="M123.6,201.1c0,3.1-1.9,5.1-5.8,6.1c-0.4,0.1-0.7,0.2-0.7,0.3c0,0.1,0.3,0.1,0.8,0.2
		c2.3,0.2,4.1,1,5.3,2.4c1,1.2,1.5,2.6,1.5,4.2c0,2.9-1.3,5-3.9,6.5c-1.5,0.8-3.6,1.2-6.2,1.2c-0.2,0-1,0-2.3,0c-1.3,0-2,0-2.2,0
		c-0.8,0-2,0-3.5,0c0.2-3.4,0.4-7.3,0.4-11.6c0-5.9-0.1-11-0.4-15.4c0.7,0.1,2.1,0.1,4.2,0.1c3.2,0,5.4,0.1,6.6,0.2
		c1.6,0.2,2.8,0.6,3.7,1.1C122.7,197.6,123.6,199.1,123.6,201.1z M119.5,201.6c0-1.6-0.6-2.9-1.9-3.8c-1.1-0.8-2.5-1.1-4.2-1.1
		c-0.8,0-1.7,0.1-2.7,0.2c-0.1,1.6-0.1,3.2-0.1,5c0,1.1,0,2.8,0.1,5c2.1,0.1,3.6,0,4.6-0.2c1.3-0.3,2.4-0.9,3.1-1.8
		C119.2,204,119.5,202.9,119.5,201.6z M120.5,214.4c0-3.9-2.5-5.8-7.5-5.8c-0.5,0-1.2,0-2.3,0.1c-0.1,2.5-0.1,4.5-0.1,5.9
		c0,1.9,0,3.8,0.1,5.6c0.9,0.1,1.6,0.1,2,0.1c2.4,0,4.1-0.2,4.9-0.7C119.6,218.5,120.5,216.8,120.5,214.4z"/> <path style="fill:#C5C7C8;" d="M146.5,211.8h-9.9c-0.7,1.6-1.2,3-1.6,3.9c-0.8,2.1-1.4,4.1-2,6.3c-0.9-0.2-1.5-0.2-1.6-0.2
		c-0.1,0-0.7,0.1-1.7,0.2c5.9-12.9,9.9-22,12-27.3c0.6,0.1,0.9,0.1,1,0.1c0.3,0,0.5,0,0.9-0.1c1.2,3.4,3.6,9,6.9,16.7
		c2.7,6.2,4.3,9.8,4.8,10.6c-0.9-0.2-1.7-0.2-2.3-0.2c-0.7,0-1.5,0.1-2.5,0.2C149.6,219.2,148.3,215.8,146.5,211.8z M145.7,209.8
		l-4.2-9.6l-4.1,9.6H145.7z"/> <path style="fill:#C5C7C8;" d="M167.5,206.8c0-2.8,0-6-0.1-9.6c-4.2,0.1-7.1,0.2-8.7,0.5c0.1-0.6,0.2-1,0.2-1.4
		c0-0.4-0.1-0.8-0.2-1.4c1.6,0.2,5.1,0.2,10.5,0.2c5.3,0,8.8-0.1,10.5-0.2c-0.1,0.5-0.2,0.9-0.2,1.4c0,0.3,0.1,0.8,0.2,1.4
		c-1.7-0.3-4.5-0.5-8.3-0.5c-0.1,3.6-0.1,6.3-0.1,8.1c0,8.7,0.1,14.2,0.3,16.7c-1.1-0.2-1.9-0.2-2.5-0.2c-0.7,0-1.3,0.1-2,0.2
		C167.3,218.1,167.5,213,167.5,206.8z"/> <path style="fill:#C5C7C8;" d="M190.6,208.8v5.8c0,3,0,5.5,0,7.4c-0.8-0.2-1.5-0.2-2.1-0.2c-0.6,0-1.3,0.1-2.2,0.2l0.2-2.9
		c0.2-4.2,0.4-8,0.4-11.3c0-1.9-0.1-6.2-0.4-12.8c0.6,0.2,1.4,0.2,2.2,0.2c0.8,0,1.6-0.1,2.2-0.2c-0.3,3.7-0.4,7.5-0.3,11.3
		c3.4,0.1,6,0.2,7.8,0.2c2.4,0,4.8,0,7.2-0.1c0.1-3.4,0-7.2-0.2-11.4c0.6,0.2,1.4,0.2,2.2,0.2c0.8,0,1.6-0.1,2.2-0.2
		c-0.3,5.3-0.4,11.5-0.4,18.7c0,2.4,0.1,5.2,0.2,8.3c-1-0.2-1.7-0.2-2-0.2c-0.5,0-1.2,0.1-2.2,0.2c0.2-3.5,0.3-5.9,0.3-7.4v-5.9
		c-1.7-0.1-4.2-0.1-7.5-0.1C195,208.7,192.5,208.7,190.6,208.8z"/> <path style="fill:#C5C7C8;" d="M239.1,221.6v0.5c-1.1-0.2-1.9-0.2-2.3-0.2c-0.4,0-1.4,0.1-2.8,0.2c-3-4.7-6.2-9.1-9.6-13.1h-1
		c0,5.1,0.1,9.4,0.3,13.1c-0.6-0.2-1.4-0.2-2.3-0.2c-0.6,0-1.3,0.1-2.1,0.2c0.2-4.3,0.3-9.3,0.3-14.9c0-2.2-0.1-6.2-0.2-12.1
		c1,0.1,2.1,0.2,3.4,0.2c0.2,0,1,0,2.3,0c1.3,0,2,0,2.2,0c2.2,0,3.8,0.1,5,0.4c0.9,0.2,1.7,0.6,2.4,1.2c1.3,1.1,2,2.6,2,4.7
		c0,2.4-1,4.2-2.9,5.4c-1.1,0.7-2.7,1.2-4.7,1.6c0.6,0.9,2.4,3.3,5.4,7.1C236,217.6,237.6,219.6,239.1,221.6z M232.7,202
		c0-3.4-2.2-5.1-6.7-5.1c-0.8,0-1.6,0.1-2.5,0.2c-0.1,1.2-0.1,2.9-0.1,5.3c0,0.7,0,1.7,0,3c0,1.3,0,2.1,0,2.3c0.6,0.1,1.3,0.1,2.1,0
		C230.3,207.5,232.7,205.6,232.7,202z"/> <path style="fill:#C5C7C8;" d="M260,194.7c4.2,0,7.7,1.2,10.4,3.5c2.9,2.5,4.3,5.8,4.3,10.1c0,4.2-1.4,7.6-4.1,10.2
		c-2.8,2.8-6.4,4.1-11,4.1c-4.3,0-7.8-1.2-10.6-3.7s-4.1-5.9-4.1-10.1c0-4.2,1.3-7.6,4-10.2C251.6,196,255.3,194.7,260,194.7z
		 M249.4,208.7c0,3.7,1,6.7,2.9,8.9c1.9,2.2,4.4,3.3,7.4,3.3c3.1,0,5.7-1.1,7.6-3.3c1.9-2.2,2.9-5.3,2.9-9.2c0-3.1-0.6-5.6-1.7-7.5
		c-1-1.6-2.3-2.8-4.1-3.6c-1.5-0.6-3-1-4.6-1c-2.9,0-5.3,0.9-7.1,2.8C250.5,201.5,249.4,204.6,249.4,208.7z"/> <path style="fill:#C5C7C8;" d="M297.4,194.7c4.2,0,7.7,1.2,10.4,3.5c2.9,2.5,4.3,5.8,4.3,10.1c0,4.2-1.4,7.6-4.1,10.2
		c-2.8,2.8-6.4,4.1-11,4.1c-4.3,0-7.8-1.2-10.6-3.7c-2.7-2.5-4.1-5.9-4.1-10.1c0-4.2,1.3-7.6,4-10.2
		C289,196,292.7,194.7,297.4,194.7z M286.8,208.7c0,3.7,1,6.7,2.9,8.9s4.4,3.3,7.4,3.3c3.1,0,5.7-1.1,7.6-3.3s2.9-5.3,2.9-9.2
		c0-3.1-0.6-5.6-1.7-7.5c-1-1.6-2.3-2.8-4.1-3.6c-1.5-0.6-3-1-4.6-1c-2.9,0-5.3,0.9-7.1,2.8C287.9,201.5,286.8,204.6,286.8,208.7z"/> <path style="fill:#C5C7C8;" d="M347.3,222.1c0-3.3-0.6-10-1.7-20c-2.9,5.3-5.6,10.4-8.1,15.4c-0.7,1.4-1.4,3-2,4.6
		c-0.3,0-0.4,0-0.5,0c-0.1,0-0.2,0-0.5,0c-0.4-0.9-1-2.2-1.8-3.9c-3.7-7.1-6.5-12.3-8.4-15.7c-0.4,2.8-0.8,6.3-1.2,10.7
		c-0.3,4.1-0.5,7-0.4,9c-0.6-0.2-1.1-0.2-1.5-0.2c-0.5,0-1.1,0.1-1.9,0.2c0.3-1.4,0.9-5,1.8-11.1c1.1-7,1.8-12.3,2.2-16.1
		c0.3,0,0.5,0,0.7,0c0.2,0,0.4,0,0.8,0c0.6,1.4,2.3,4.7,5.1,10c2.9,5.5,5,9.1,6.2,11l9.3-17.3c0.6-1.2,1.2-2.5,1.8-3.7
		c0.4,0,0.6,0,0.7,0c0.1,0,0.3,0,0.7,0c1.4,12.8,2.5,21.5,3.2,26.1c0,0.2,0.1,0.5,0.2,1.1c-1-0.2-1.8-0.2-2.2-0.2
		C349,221.8,348.2,221.9,347.3,222.1z"/> <path style="fill:#C5C7C8;" d="M374,200h-0.5c-0.8-2.4-2.6-3.6-5.4-3.6c-1.8,0-3.2,0.6-4.1,1.7c-0.6,0.8-0.9,1.7-0.9,2.8
		c0,1.4,0.5,2.5,1.5,3.3c0.6,0.5,1.6,1.1,3,1.6c2.3,0.9,3.7,1.5,4.3,1.7c0.8,0.3,1.5,0.8,2.1,1.3c1.5,1.2,2.2,2.9,2.2,5
		c0,2.3-0.8,4.2-2.3,5.9c-1.8,1.9-4.3,2.8-7.5,2.8c-2.8,0-5.2-0.7-7.1-2.1c0.4-1.3,0.6-2.5,0.7-3.7h0.5c1.3,2.7,3.5,4.1,6.5,4.1
		c1.9,0,3.4-0.6,4.4-1.7c0.9-0.9,1.4-2.1,1.4-3.5c0-1.4-0.5-2.6-1.4-3.5c-0.6-0.6-1.8-1.3-3.4-1.9c-3.3-1.4-5.3-2.4-6.1-3
		c-1.3-1.1-2-2.7-2-4.8c0-2.4,0.9-4.3,2.6-5.7c1.6-1.3,3.6-1.9,6-1.9c2.6,0,4.8,0.6,6.6,1.8C374.4,197.8,374.1,199,374,200z"/> <path style="fill:#C5C7C8;" d="M399.4,208.9c0-5.4-0.1-10-0.4-13.8c0.9,0.2,1.7,0.2,2.4,0.2c0.6,0,1.3-0.1,2-0.2
		c-0.1,0.7-0.2,2.3-0.3,5c-0.1,1-0.1,3.5,0,7.6c1.6-1.3,2.8-2.3,3.6-3c1.2-1.1,2.9-2.9,5.1-5.2c1.8-2,3.1-3.4,3.7-4.3
		c0.7,0.2,1.4,0.2,2,0.2c0.4,0,1-0.1,1.8-0.2l0.1,0.2c-0.7,0.5-2.8,2.4-6.4,5.8c-4.1,4-6.2,5.9-6.2,6l10.6,12c0.8,0.8,1.4,1.5,2,2.1
		v0.9c-0.7-0.2-1.5-0.2-2.5-0.2c-1,0-1.9,0.1-2.8,0.2c-0.9-1.6-2.7-3.9-5.4-7.1c-2-2.3-3.8-4.4-5.5-6.2l-0.1,0.2v2.4
		c0,4.3,0.1,7.9,0.3,10.7c-0.8-0.2-1.6-0.2-2.2-0.2c-0.5,0-1.3,0.1-2.3,0.2C399.2,216.6,399.4,212.2,399.4,208.9z"/> <path style="fill:#C5C7C8;" d="M426.9,208.2c0-4-0.1-8.3-0.3-13.1c0.6,0.2,1.3,0.2,2.1,0.2c0.9,0,1.6-0.1,2.3-0.2
		c-0.2,4.1-0.3,8.8-0.3,13.9c0,4.2,0.1,8.5,0.3,13.1c-1-0.2-1.8-0.2-2.4-0.2c-0.5,0-1.2,0.1-2.1,0.2
		C426.7,218,426.9,213.4,426.9,208.2z"/> <path style="fill:#C5C7C8;" d="M447,206.8c0-2.8,0-6-0.1-9.6c-4.2,0.1-7.1,0.2-8.7,0.5c0.1-0.6,0.2-1,0.2-1.4
		c0-0.4-0.1-0.8-0.2-1.4c1.6,0.2,5.1,0.2,10.5,0.2c5.3,0,8.8-0.1,10.5-0.2c-0.1,0.5-0.2,0.9-0.2,1.4c0,0.3,0.1,0.8,0.2,1.4
		c-1.7-0.3-4.5-0.5-8.3-0.5c-0.1,3.6-0.1,6.3-0.1,8.1c0,8.7,0.1,14.2,0.3,16.7c-1.1-0.2-1.9-0.2-2.5-0.2c-0.7,0-1.3,0.1-2,0.2
		C446.9,218.1,447,213,447,206.8z"/> <path style="fill:#C5C7C8;" d="M488.5,216.6l0.5,0.2c-0.2,1.1-0.4,2.1-0.4,3.2c-2.8,1.7-6.1,2.5-9.7,2.5c-4.4,0-7.9-1.3-10.5-4
		c-2.5-2.5-3.8-5.9-3.8-10c0-4,1.2-7.2,3.6-9.7c2.7-2.7,6.4-4.1,11.3-4.1c3.3,0,6.5,0.7,9.6,2.1c-0.5,1.3-0.8,2.6-0.9,3.9h-0.4
		c-0.5-1.2-1.6-2.2-3.1-3c-1.6-0.9-3.4-1.3-5.3-1.3c-3.1,0-5.6,1.1-7.5,3.2c-1.9,2.2-2.8,5.1-2.8,8.8c0,3.8,1.1,6.9,3.2,9.1
		c2,2,4.4,3,7.4,3C483.3,220.7,486.2,219.3,488.5,216.6z"/> <path style="fill:#C5C7C8;" d="M501,208.8v5.8c0,3,0,5.5,0,7.4c-0.8-0.2-1.5-0.2-2.1-0.2c-0.6,0-1.3,0.1-2.2,0.2l0.2-2.9
		c0.2-4.2,0.4-8,0.4-11.3c0-1.9-0.1-6.2-0.4-12.8c0.6,0.2,1.4,0.2,2.2,0.2s1.6-0.1,2.2-0.2c-0.3,3.7-0.4,7.5-0.3,11.3
		c3.4,0.1,6,0.2,7.8,0.2c2.4,0,4.8,0,7.2-0.1c0.1-3.4,0-7.2-0.2-11.4c0.6,0.2,1.4,0.2,2.2,0.2s1.6-0.1,2.2-0.2
		c-0.3,5.3-0.4,11.5-0.4,18.7c0,2.4,0.1,5.2,0.2,8.3c-1-0.2-1.7-0.2-2-0.2c-0.5,0-1.2,0.1-2.2,0.2c0.2-3.5,0.3-5.9,0.3-7.4v-5.9
		c-1.7-0.1-4.2-0.1-7.5-0.1C505.5,208.7,503,208.7,501,208.8z"/> <path style="fill:#C5C7C8;" d="M533.7,206.8c4.1,0.1,7.2,0,9.2-0.3c-0.1,0.6-0.2,1-0.2,1.3c0,0.2,0,0.4,0.1,0.6
		c0.1,0.3,0.1,0.5,0.1,0.6c-1.9-0.3-3.9-0.4-6-0.4c-0.8,0-1.9,0-3.1,0.1c-0.1,2.2-0.1,3.9-0.1,5.1c0,1.9,0,3.9,0.1,6
		c3.8,0,7.2-0.2,10.2-0.5c-0.1,0.6-0.2,1-0.2,1.3c0,0.3,0.1,0.7,0.2,1.2c-1.2-0.2-3-0.2-5.4-0.2c-2,0-5,0.1-9,0.2
		c0.3-3.6,0.4-8.2,0.4-14c0-5.3-0.1-9.6-0.3-13c1.8,0.2,4.5,0.2,8.2,0.2c2.4,0,4.3-0.1,5.9-0.2c-0.1,0.6-0.2,1-0.2,1.4
		c0,0.3,0.1,0.7,0.2,1.2c-1.8-0.3-3.9-0.5-6.2-0.5c-1.4,0-2.7,0-3.8,0.1c-0.1,1-0.1,2.5-0.1,4.5
		C533.6,203.8,533.6,205.5,533.7,206.8z"/> <path style="fill:#C5C7C8;" d="M556.3,201.9v2.5c0,4.6,0.2,10.5,0.6,17.7c-0.6-0.2-1.2-0.2-1.6-0.2c-0.4,0-0.9,0.1-1.5,0.2
		c0.3-3.4,0.5-7.6,0.5-12.7c0-0.5,0-2.2-0.1-5s-0.1-4.4-0.1-4.8v-4.7c0.3,0,0.5,0,0.6,0c0.1,0,0.4,0,0.8,0l1.3,1.5
		c0.8,1,2.3,2.5,4.4,4.8c2.9,3,7.4,7.8,13.6,14.2v-1.4c0-8.9-0.2-15.3-0.5-19c0.6,0.2,1.1,0.2,1.5,0.2s1-0.1,1.7-0.2
		c-0.4,3.7-0.7,9.4-0.7,16.9c0,5.1,0.1,8.6,0.2,10.5c-0.4,0-0.7,0-0.7,0c-0.1,0-0.3,0-0.6,0c-0.8-0.9-2.2-2.6-4.3-4.9
		c-2.4-2.6-4.2-4.5-5.5-5.6c-0.7-0.7-1.4-1.3-2-1.9L556.3,201.9z"/> <path style="fill:#C5C7C8;" d="M600.7,200h-0.5c-0.8-2.4-2.6-3.6-5.4-3.6c-1.8,0-3.2,0.6-4.1,1.7c-0.6,0.8-0.9,1.7-0.9,2.8
		c0,1.4,0.5,2.5,1.5,3.3c0.6,0.5,1.6,1.1,3,1.6c2.3,0.9,3.7,1.5,4.3,1.7c0.8,0.3,1.5,0.8,2.1,1.3c1.5,1.2,2.2,2.9,2.2,5
		c0,2.3-0.8,4.2-2.3,5.9c-1.8,1.9-4.3,2.8-7.5,2.8c-2.8,0-5.2-0.7-7.1-2.1c0.4-1.3,0.6-2.5,0.7-3.7h0.5c1.3,2.7,3.5,4.1,6.5,4.1
		c1.9,0,3.4-0.6,4.4-1.7c0.9-0.9,1.4-2.1,1.4-3.5c0-1.4-0.5-2.6-1.4-3.5c-0.6-0.6-1.8-1.3-3.4-1.9c-3.3-1.4-5.3-2.4-6.1-3
		c-1.3-1.1-2-2.7-2-4.8c0-2.4,0.9-4.3,2.6-5.7c1.6-1.3,3.6-1.9,6-1.9c2.6,0,4.8,0.6,6.6,1.8C601.2,197.8,600.8,199,600.7,200z"/> <path style="fill:#C5C7C8;" d="M646,207.2l0.3-0.1c0.6,0.9,1.3,1.5,1.9,1.9c-1.4,2.8-3,5.1-4.8,7.1c0.9,1.1,2.6,2.8,5.1,5.3v0.5
		c-0.5-0.2-1.3-0.2-2.3-0.2c-1.1,0-1.9,0.1-2.5,0.2c-1-1.2-1.9-2.3-2.8-3.2c-2.5,2.5-5.3,3.7-8.4,3.7c-2.4,0-4.3-0.7-5.7-2
		c-1.3-1.2-2-2.9-2-4.9c0-1.7,0.5-3.2,1.5-4.4c1-1.2,2.7-2.4,5.1-3.6c-1.7-2.2-2.5-4.1-2.5-5.9c0-1.6,0.4-2.9,1.3-4.1
		c1.1-1.4,2.7-2.1,4.8-2.1c1.8,0,3.1,0.5,4.1,1.4c0.8,0.8,1.2,1.8,1.2,3.2c0,1.4-0.5,2.6-1.4,3.7c-0.6,0.6-1.8,1.7-3.7,3
		c1.7,2.1,4.1,4.9,7,8.2c0.7-0.6,1.5-1.7,2.2-3.2C645.4,210.2,645.9,208.7,646,207.2z M628.4,214.3c0,1.8,0.7,3.3,2,4.5
		c1.2,1,2.5,1.6,4,1.6c1.7,0,3.6-0.9,5.6-2.6c-2.9-2.9-5.5-6-7.8-9.1C629.7,210.1,628.4,212,628.4,214.3z M632,200.4
		c0,1.3,0.9,3.1,2.7,5.4c2.4-1.5,3.6-3.4,3.6-5.7c0-0.9-0.2-1.6-0.7-2.2c-0.6-0.6-1.3-1-2.3-1c-1,0-1.7,0.3-2.3,1
		C632.3,198.5,632,199.3,632,200.4z"/> <path style="fill:#C5C7C8;" d="M690.2,201.1c0,3.1-1.9,5.1-5.8,6.1c-0.4,0.1-0.7,0.2-0.7,0.3c0,0.1,0.3,0.1,0.8,0.2
		c2.3,0.2,4.1,1,5.3,2.4c1,1.2,1.5,2.6,1.5,4.2c0,2.9-1.3,5-3.9,6.5c-1.5,0.8-3.6,1.2-6.2,1.2c-0.2,0-1,0-2.3,0c-1.3,0-2,0-2.2,0
		c-0.8,0-1.9,0-3.5,0c0.2-3.4,0.4-7.3,0.4-11.6c0-5.9-0.1-11-0.4-15.4c0.7,0.1,2.1,0.1,4.2,0.1c3.3,0,5.4,0.1,6.6,0.2
		c1.6,0.2,2.8,0.6,3.7,1.1C689.3,197.6,690.2,199.1,690.2,201.1z M686.1,201.6c0-1.6-0.6-2.9-1.9-3.8c-1.1-0.8-2.5-1.1-4.2-1.1
		c-0.8,0-1.7,0.1-2.7,0.2c-0.1,1.6-0.1,3.2-0.1,5c0,1.1,0,2.8,0.1,5c2.1,0.1,3.6,0,4.6-0.2c1.3-0.3,2.4-0.9,3.1-1.8
		C685.8,204,686.1,202.9,686.1,201.6z M687.1,214.4c0-3.9-2.5-5.8-7.5-5.8c-0.5,0-1.2,0-2.3,0.1c-0.1,2.5-0.1,4.5-0.1,5.9
		c0,1.9,0,3.8,0.1,5.6c0.9,0.1,1.6,0.1,2,0.1c2.4,0,4.1-0.2,4.9-0.7C686.2,218.5,687.1,216.8,687.1,214.4z"/> <path style="fill:#C5C7C8;" d="M703.6,206.8c4.1,0.1,7.2,0,9.2-0.3c-0.1,0.6-0.2,1-0.2,1.3c0,0.2,0,0.4,0.1,0.6
		c0.1,0.3,0.1,0.5,0.1,0.6c-1.9-0.3-3.9-0.4-6-0.4c-0.8,0-1.9,0-3.1,0.1c-0.1,2.2-0.1,3.9-0.1,5.1c0,1.9,0,3.9,0.1,6
		c3.8,0,7.2-0.2,10.2-0.5c-0.1,0.6-0.2,1-0.2,1.3c0,0.3,0.1,0.7,0.2,1.2c-1.2-0.2-3-0.2-5.4-0.2c-2,0-5,0.1-9,0.2
		c0.3-3.6,0.4-8.2,0.4-14c0-5.3-0.1-9.6-0.3-13c1.8,0.2,4.5,0.2,8.2,0.2c2.4,0,4.3-0.1,5.9-0.2c-0.1,0.6-0.2,1-0.2,1.4
		c0,0.3,0.1,0.7,0.2,1.2c-1.8-0.3-3.9-0.5-6.2-0.5c-1.4,0-2.7,0-3.8,0.1c-0.1,1-0.1,2.5-0.1,4.5
		C703.6,203.8,703.6,205.5,703.6,206.8z"/> <path style="fill:#C5C7C8;" d="M748.7,207.8c0,4.7-1.5,8.3-4.5,10.8c-2.7,2.3-6.1,3.4-10.3,3.4c-0.1,0-1,0-2.9-0.1
		c-1.8-0.1-2.9-0.1-3.3-0.1c-0.8,0-2.2,0.1-4.2,0.2c0.3-4.5,0.5-9.7,0.5-15.6c0-3.9-0.1-7.7-0.3-11.5c2.2,0.1,4.3,0.1,6.4,0.1
		c4.1,0,6.9,0.1,8.4,0.4c2.3,0.4,4.3,1.2,5.9,2.5C747.3,200.3,748.7,203.5,748.7,207.8z M744.4,208.3c0-4.2-1.3-7.3-3.9-9.3
		c-1.2-0.9-2.7-1.5-4.4-1.8c-1-0.2-2.6-0.3-4.7-0.3c-1.2,0-2.3,0.1-3.4,0.2c-0.1,3-0.2,6.7-0.2,11.2c0,5.3,0,9.2,0.1,11.8
		c1.3,0.2,2.7,0.2,4.2,0.2c3.6,0,6.3-0.6,8.1-1.9C742.9,216.3,744.4,213,744.4,208.3z"/> <path style="fill:#C5C7C8;" d="M776.8,221.6v0.5c-1.1-0.2-1.9-0.2-2.3-0.2c-0.4,0-1.4,0.1-2.8,0.2c-3-4.7-6.2-9.1-9.6-13.1h-1
		c0,5.1,0.1,9.4,0.3,13.1c-0.7-0.2-1.4-0.2-2.3-0.2c-0.6,0-1.3,0.1-2.1,0.2c0.2-4.3,0.3-9.3,0.3-14.9c0-2.2-0.1-6.2-0.2-12.1
		c1,0.1,2.1,0.2,3.4,0.2c0.2,0,1,0,2.3,0c1.3,0,2,0,2.2,0c2.2,0,3.8,0.1,5,0.4c0.9,0.2,1.7,0.6,2.4,1.2c1.3,1.1,2,2.6,2,4.7
		c0,2.4-1,4.2-2.9,5.4c-1.1,0.7-2.7,1.2-4.7,1.6c0.6,0.9,2.4,3.3,5.4,7.1C773.6,217.6,775.2,219.6,776.8,221.6z M770.3,202
		c0-3.4-2.2-5.1-6.7-5.1c-0.8,0-1.6,0.1-2.5,0.2c-0.1,1.2-0.1,2.9-0.1,5.3c0,0.7,0,1.7,0,3c0,1.3,0,2.1,0,2.3c0.6,0.1,1.3,0.1,2.1,0
		C767.9,207.5,770.3,205.6,770.3,202z"/> <path style="fill:#C5C7C8;" d="M797.6,194.7c4.2,0,7.7,1.2,10.4,3.5c2.9,2.5,4.3,5.8,4.3,10.1c0,4.2-1.4,7.6-4.1,10.2
		c-2.8,2.8-6.4,4.1-11,4.1c-4.3,0-7.8-1.2-10.6-3.7c-2.7-2.5-4.1-5.9-4.1-10.1c0-4.2,1.3-7.6,4-10.2
		C789.2,196,792.9,194.7,797.6,194.7z M787,208.7c0,3.7,1,6.7,2.9,8.9s4.4,3.3,7.4,3.3c3.1,0,5.7-1.1,7.6-3.3s2.9-5.3,2.9-9.2
		c0-3.1-0.6-5.6-1.7-7.5c-1-1.6-2.3-2.8-4.1-3.6c-1.5-0.6-3-1-4.6-1c-2.9,0-5.3,0.9-7.1,2.8C788.1,201.5,787,204.6,787,208.7z"/> <path style="fill:#C5C7C8;" d="M835,194.7c4.2,0,7.7,1.2,10.4,3.5c2.9,2.5,4.3,5.8,4.3,10.1c0,4.2-1.4,7.6-4.1,10.2
		c-2.8,2.8-6.4,4.1-11,4.1c-4.3,0-7.8-1.2-10.6-3.7c-2.7-2.5-4.1-5.9-4.1-10.1c0-4.2,1.3-7.6,4-10.2
		C826.6,196,830.3,194.7,835,194.7z M824.4,208.7c0,3.7,1,6.7,2.9,8.9s4.4,3.3,7.4,3.3c3.1,0,5.7-1.1,7.6-3.3s2.9-5.3,2.9-9.2
		c0-3.1-0.6-5.6-1.7-7.5c-1-1.6-2.3-2.8-4.1-3.6c-1.5-0.6-3-1-4.6-1c-2.9,0-5.3,0.9-7.1,2.8C825.5,201.5,824.4,204.6,824.4,208.7z"/> <path style="fill:#C5C7C8;" d="M884.9,222.1c0-3.3-0.6-10-1.7-20c-2.9,5.3-5.6,10.4-8.1,15.4c-0.7,1.4-1.4,3-2,4.6
		c-0.3,0-0.4,0-0.5,0c-0.1,0-0.2,0-0.5,0c-0.4-0.9-1-2.2-1.8-3.9c-3.7-7.1-6.5-12.3-8.4-15.7c-0.4,2.8-0.8,6.3-1.2,10.7
		c-0.3,4.1-0.5,7-0.4,9c-0.6-0.2-1.1-0.2-1.5-0.2c-0.5,0-1.1,0.1-1.9,0.2c0.3-1.4,0.9-5,1.8-11.1c1.1-7,1.8-12.3,2.2-16.1
		c0.3,0,0.5,0,0.7,0c0.2,0,0.4,0,0.8,0c0.6,1.4,2.3,4.7,5.1,10c2.9,5.5,5,9.1,6.2,11l9.3-17.3c0.6-1.2,1.2-2.5,1.8-3.7
		c0.4,0,0.6,0,0.7,0c0.1,0,0.3,0,0.7,0c1.4,12.8,2.5,21.5,3.2,26.1c0,0.2,0.1,0.5,0.2,1.1c-1-0.2-1.8-0.2-2.2-0.2
		C886.6,221.8,885.8,221.9,884.9,222.1z"/> <path style="fill:#C5C7C8;" d="M911.6,200H911c-0.8-2.4-2.6-3.6-5.4-3.6c-1.8,0-3.2,0.6-4.1,1.7c-0.6,0.8-0.9,1.7-0.9,2.8
		c0,1.4,0.5,2.5,1.5,3.3c0.6,0.5,1.6,1.1,3,1.6c2.3,0.9,3.7,1.5,4.3,1.7c0.8,0.3,1.5,0.8,2.1,1.3c1.5,1.2,2.2,2.9,2.2,5
		c0,2.3-0.8,4.2-2.3,5.9c-1.8,1.9-4.3,2.8-7.5,2.8c-2.8,0-5.2-0.7-7.1-2.1c0.4-1.3,0.6-2.5,0.7-3.7h0.5c1.3,2.7,3.5,4.1,6.5,4.1
		c1.9,0,3.4-0.6,4.4-1.7c0.9-0.9,1.4-2.1,1.4-3.5c0-1.4-0.5-2.6-1.4-3.5c-0.6-0.6-1.8-1.3-3.4-1.9c-3.3-1.4-5.3-2.4-6.1-3
		c-1.3-1.1-2-2.7-2-4.8c0-2.4,0.9-4.3,2.6-5.7c1.6-1.3,3.6-1.9,6-1.9c2.6,0,4.8,0.6,6.6,1.8C912.1,197.8,911.7,199,911.6,200z"/> </g> <g> <path style="fill:none;" d="M195.3,36.7c-4.4-0.7-10.9-2.1-19.7-4C155,28.2,139.2,26,128.3,26c-1.1,0-4.5,0.2-10.2,0.5
		c3.8,7.1,5.7,15.1,5.7,24.2h49.9C180.8,44.7,188,40.1,195.3,36.7z"/> <path style="fill:none;" d="M141.3,58.7v27.8c7.6-10.7,15.3-19.9,23.1-27.5c-1.5-0.2-3.1-0.3-4.8-0.3H141.3z"/> <path style="fill:none;" d="M282,21c-4.6-1.6-10.4-2.4-17.3-2.4c-17.3,0-34.2,3.6-50.5,10.9c2,0.3,7.4,1.3,16.2,2.9
		c13,2.5,24.5,3.8,34.5,3.8c6.6,0,12.2-0.9,16.9-2.7c4.7-1.8,7.1-4,7.1-6.5C288.9,24.6,286.6,22.6,282,21z"/> <path style="fill:none;" d="M94.4,60.1c-3.3,1.2-6.2,3.5-8.5,7c-2.4,3.4-3.8,8.1-4.2,14H78l1.5-30.4h39.2c0.2-1.9,0.2-3.8,0.2-5.7
		c0-6.5-1.5-12.5-4.5-18c-18.2,3-35.1,12.4-50.7,28.1c-15.6,15.7-23.5,31.2-23.5,46.4c0,5.8,1.8,10.7,5.4,14.7c3.6,4,8,6,13.3,6
		c13.7,0,27.1-8.5,40.2-25.3c9.7-12.5,15.8-25.2,18.3-38.1h-10.4C101.3,58.7,97,59.2,94.4,60.1z"/> <path style="fill:#CEC045;" d="M122.9,141.2v16.6c0,7.3-0.7,11.9-2.1,14c-2.3,3.3-6.2,5-11.7,5h-4.6v3.5h55v-3.5h-4.5
		c-5,0-8.8-1.3-11.2-4c-1.7-2-2.6-7-2.6-14.9v-48.8c-8,15.5-14,26-17.9,31.6C123.2,140.9,123.1,141,122.9,141.2z"/> <path style="fill:#CEC045;" d="M141.3,86.6V58.7h18.3c1.7,0,3.3,0.1,4.8,0.3c3.1-3,6.2-5.8,9.3-8.4h-49.9c0,0.1,0,0.2,0,0.3
		c0,3.6-0.3,7.2-0.9,10.8v53.5c2.2-3.5,4.5-7.1,6.8-11C133.6,97.9,137.4,92,141.3,86.6z"/> <path style="fill:#CEC045;" d="M79.6,50.6L78,81h3.6c0.4-5.9,1.8-10.5,4.2-14c2.4-3.4,5.2-5.8,8.5-7c2.6-0.9,6.9-1.3,12.9-1.3h10.4
		c0.5-2.7,0.9-5.4,1.1-8.1H79.6z"/> <path style="fill:#CEC045;" d="M170.8,60.2c-0.1,0.1-0.2,0.2-0.2,0.3c0.7,0.3,1.3,0.6,2,0.9c3.3,1.8,5.9,4.5,7.9,8.2
		c1.2,2.3,2.2,6.1,2.9,11.5h3.6l-1.4-30.4h-5.9C176.6,53.5,173.7,56.7,170.8,60.2z"/> <path style="fill:#C5C7C8;" d="M98.4,149.5c-17.3,19.6-36.8,29.4-58.5,29.4c-9.9,0-18.2-2.3-25-6.8C8.1,167.6,4.8,162,4.8,155.4
		c0-4,0.7-6,2.1-6c0.6,0,1,1,1,2.9c0,3.7,1.9,5.6,5.7,5.6c2.3,0,4.3-0.9,6-2.8c1.6-1.9,2.4-4.1,2.4-6.7c0-5.5-2.6-8.3-7.9-8.3
		c-3.2,0-6,1.4-8.4,4.3c-2.4,2.8-3.5,6.2-3.5,10.2c0,7.9,3.7,14.3,11.1,19.2c7.4,4.9,17,7.4,28.6,7.4c21.9,0,43-7.5,63.3-22.6
		c7.5-5.7,13.4-11.5,17.7-17.5v-26.1C113.2,130.5,105,142,98.4,149.5z"/> <path style="fill:#C5C7C8;" d="M264.2,16.2c-17.3,0-35.3,4.1-54,12.3c-22.5-4.6-36.6-7.4-42.3-8.3c-5.4-0.8-11.4-1.2-18-1.2
		c-12.7,0-24,1.4-33.8,4.3c-7-9.5-17.3-14.2-30.9-14.2c-17.4,0-34.1,8-50.1,23.9c-6.6,6.7-10,10.7-10,12.1c0.2,0.5,0.5,0.7,1,0.7
		c0.4,0,1.2-0.8,2.3-2.3c7.7-10,16.6-17.9,26.8-23.7C65.5,13.9,75.5,11,85.5,11c11.8,0,20.9,4.3,27.3,13
		c-13.3,3.3-25.5,9.2-36.7,17.6C65,50,56,59.8,49,71c-7,11.2-10.5,21.5-10.5,30.7c0,6.7,2,12.2,6,16.5c4,4.3,9.2,6.4,15.6,6.4
		c15.4,0,29.9-7.8,43.4-23.5c10.8-12.5,17.3-25.6,19.4-39.5v-2.9h-5.2c-2.5,12.9-8.6,25.6-18.3,38.1c-13.1,16.9-26.5,25.3-40.2,25.3
		c-5.3,0-9.7-2-13.3-6c-3.6-4-5.4-8.9-5.4-14.7c0-15.2,7.8-30.7,23.5-46.4c15.6-15.7,32.5-25.1,50.7-28.1c3,5.5,4.5,11.5,4.5,18
		c0,1.9-0.1,3.8-0.2,5.7h5c0-9-1.9-17.1-5.7-24.2c5.7-0.3,9.1-0.5,10.2-0.5c10.9,0,26.7,2.2,47.3,6.7c8.8,1.9,15.3,3.3,19.7,4
		c-7.3,3.4-14.5,8.1-21.6,13.9h5.9c5.8-5.6,12-10,18.5-13.5c18.9,3.5,34.7,5.2,47.4,5.2c12.6,0,23.3-1.5,32.1-4.6
		c8.8-3,13.1-6.7,13.1-11.1C290.8,19.7,282,16.2,264.2,16.2z M281.8,33.4c-4.7,1.8-10.3,2.7-16.9,2.7c-10.1,0-21.6-1.3-34.5-3.8
		c-8.8-1.6-14.1-2.6-16.2-2.9c16.3-7.3,33.1-10.9,50.5-10.9c7,0,12.7,0.8,17.3,2.4c4.6,1.6,6.9,3.6,6.9,6
		C288.9,29.4,286.5,31.6,281.8,33.4z"/> <path style="fill:#C5C7C8;" d="M141.3,86.6v22.5c0.9-1.8,1.9-3.7,2.9-5.7c9.4-18.5,18.2-32.8,26.4-42.9c-1.8-0.7-3.9-1.2-6.2-1.5
		C156.6,66.7,148.9,75.9,141.3,86.6z"/> <path style="fill:#C5C7C8;" d="M129.7,104.1c-2.4,3.9-4.6,7.5-6.8,11v26.1c0.1-0.2,0.3-0.4,0.4-0.6c4-5.5,9.9-16.1,17.9-31.6V86.6
		C137.4,92,133.6,97.9,129.7,104.1z"/> <path style="fill:#C5C7C8;" d="M123.8,50.6h-5c-0.2,2.7-0.6,5.4-1.1,8.1h5.2v2.9c0.6-3.5,0.9-7.1,0.9-10.8
		C123.8,50.8,123.8,50.7,123.8,50.6z"/> <path style="fill:#CEC045;" d="M164.4,59c2.3,0.3,4.4,0.8,6.2,1.5c0.1-0.1,0.2-0.2,0.2-0.3c2.8-3.5,5.8-6.7,8.8-9.6h-5.9
		C170.6,53.2,167.5,56,164.4,59z"/> </g> <g> <path style="fill:none;" d="M686.2,62.6c-0.7-0.8-1.4-1.5-2.2-2.1c-0.2,0.7-0.4,1.5-0.4,2.4c0,3.2,1.5,8.2,4.4,14.9l2.1,4.7
		c0.3-2,0.4-4,0.4-6C690.5,70.7,689,66,686.2,62.6z"/> <path style="fill:none;" d="M684.8,19.2c-8.8,0-18.8,3-30.3,9c-11.4,6-21.8,13.8-31.2,23.3c-10.2,10.5-18.4,22.1-24.5,35
		c-6.1,12.8-9.2,24.9-9.2,36c0,10.1,2.7,18,8.1,23.8c5.4,5.8,12.8,8.8,22,8.8c18,0,35.5-11.5,52.5-34.5c3.4-4.6,6.3-9.1,8.8-13.4
		l-12.9-29.7c-1.4,0.7-2.9,1.1-4.5,1.1c-5,0-7.5-2.6-7.5-7.8c0-3.7,1.4-7,4.2-9.8c0,0,0,0,0,0c-1.6-2-3.6-3.5-5.9-4.6
		c-2.3-1.1-5.5-1.8-9.4-2.2v-3.5h53v3.5c-6,0.6-9.9,1.6-11.7,3.1c-0.5,0.4-0.9,0.8-1.2,1.2c0.9,0.7,1.8,1.5,2.6,2.5
		c3.3,3.9,5,8.9,5,15.1c0,3.3-0.4,6.7-1,10.1l13.6,31.4c8.5-22.6,12.8-41.6,12.8-57.2C718.1,32.9,707,19.2,684.8,19.2z"/> <path style="fill:none;" d="M672.5,184.9c-0.8,1-1.2,1.5-1.2,1.7l0.2,0.4c1.4,0,6.4-3.8,15.2-11.3c5.5-4.7,11.2-10.1,17-16.2
		l-4-9.2C692.1,161,683.1,172.6,672.5,184.9z"/> <path style="fill:none;" d="M721,153.9l7-17.1c-3.4,3.7-6.7,7.2-9.8,10.6L721,153.9z"/> <path style="fill:#CEC045;" d="M703.7,159.5c1.3-1.3,2.6-2.7,3.9-4.1c2.1-2.3,5.2-5.8,9.5-10.5l-5.5-12.7
		c-3.4,5.8-7.4,11.8-11.8,18.1L703.7,159.5z"/> <path style="fill:#CEC045;" d="M683.6,62.8c0-0.9,0.1-1.7,0.4-2.4c-2.6-2-5.7-3-9.4-3c-2.8,0-5.5,0.6-8.2,1.9
		c-2.7,1.3-4.1,2.5-4.1,3.8c0,0.5,0.3,0.7,0.9,0.7h1c2.3-0.3,3.5-0.5,3.8-0.5c3.6,0,5.5,2,5.5,6c0,2.5-1,4.7-2.9,6.5
		c-0.7,0.7-1.5,1.2-2.3,1.7l12.9,29.7c5-8.8,8-17,9-24.7l-2.1-4.7C685.1,71,683.6,66,683.6,62.8z"/> <path style="fill:#CEC045;" d="M721,153.9l-2.8-6.5c-4.8,5.1-9.3,9.8-13.6,14l9.6,22h3.5l26.5-64.7c-5.7,6.4-11.1,12.5-16.2,18.1
		L721,153.9z"/> <path style="fill:#CEC045;" d="M762.9,72.9c2.6-6.4,5.6-11.2,9-14.4c2.4-2.1,5.8-3.6,10.4-4.4v-3.5h-40v3.5
		c0.8,0.1,1.3,0.2,1.6,0.3c4.4,0.7,7.5,1.9,9.4,3.6c1.8,1.7,2.8,3.5,2.8,5.3c0,2.9-1.5,8-4.5,15.4L731.1,129
		c4.8-5.4,10.3-11.7,16.4-18.6L762.9,72.9z"/> <path style="fill:#CEC045;" d="M674.6,55.1c4.1,0,7.6,1.1,10.5,3.3c0.3-0.4,0.7-0.8,1.2-1.2c1.8-1.5,5.7-2.5,11.7-3.1v-3.5h-53v3.5
		c4,0.3,7.1,1,9.4,2.2c2.3,1.1,4.3,2.7,5.9,4.6c0,0,0,0,0,0c0.4-0.4,0.8-0.8,1.3-1.2C665.2,56.7,669.5,55.1,674.6,55.1z"/> <path style="fill:#CEC045;" d="M705.2,117.5l-13.6-31.4c-1.5,7.6-4.6,15.5-9.4,23.7l13.4,30.7c2.5-5.3,4.9-10.8,7.2-16.5
		C703.6,121.9,704.4,119.7,705.2,117.5z"/> <path style="fill:#C5C7C8;" d="M660.3,61c-2.8,2.9-4.2,6.1-4.2,9.8c0,5.2,2.5,7.8,7.5,7.8c1.6,0,3.1-0.4,4.5-1.1l-2.6-6
		C663,65.8,661.3,62.3,660.3,61z"/> <path style="fill:#C5C7C8;" d="M910.8,2.3c-19.2,0-41.4,7.2-66.6,21.6c-15.5,8.8-29.5,18.6-41.9,29.4
		c-12.5,10.7-26.9,25.4-43.3,44.1c-4,4.6-7.8,8.9-11.4,12.9l-3.4,8.2c0,0,0,0,0,0c25.2-28.6,42.4-47.4,51.6-56.3
		c9.5-9.1,21-18,34.7-26.9c28.4-18.2,53-27.4,73.9-27.4c2.8,0,6.5,0.2,10.9,0.7h2.1c2.3,0,3.4-1,3.4-2.9
		C920.8,3.5,917.4,2.3,910.8,2.3z"/> <path style="fill:#C5C7C8;" d="M686.7,175.6c-8.8,7.5-13.8,11.3-15.2,11.3l-0.2-0.4c0-0.2,0.4-0.7,1.2-1.7
		c10.6-12.3,19.7-23.9,27.3-34.6l-4.2-9.7c-8.7,18.6-18.6,35.1-29.7,49.5c-1.8,2.4-2.7,3.7-2.7,3.8c0,0.4,0.2,0.7,0.7,0.7
		c0.8,0,5.2-2.9,13.1-8.8c7.4-5.4,16.6-13.5,27.6-24.5l-0.8-1.9C697.9,165.6,692.2,171,686.7,175.6z"/> <path style="fill:#C5C7C8;" d="M728,136.7l3.1-7.7c-5.6,6.3-10.2,11.6-14.1,15.8l1.1,2.5C721.3,144,724.6,140.4,728,136.7z"/> <path style="fill:#C5C7C8;" d="M687.7,60.9c-0.8-0.9-1.7-1.8-2.6-2.5c-0.5,0.6-0.9,1.3-1.1,2c0.8,0.6,1.5,1.3,2.2,2.1
		c2.9,3.4,4.3,8.1,4.3,13.9c0,2-0.2,4-0.4,6l1.6,3.6c0.7-3.4,1-6.8,1-10.1C692.7,69.8,691,64.7,687.7,60.9z"/> <path style="fill:#C5C7C8;" d="M672.2,120.6c-17,23-34.5,34.5-52.5,34.5c-9.2,0-16.6-2.9-22-8.8c-5.4-5.8-8.1-13.8-8.1-23.8
		c0-11.2,3.1-23.2,9.2-36c6.1-12.8,14.3-24.5,24.5-35c9.4-9.6,19.8-17.3,31.2-23.3c11.4-6,21.5-9,30.3-9c22.2,0,33.3,13.7,33.3,41.1
		c0,15.5-4.3,34.6-12.8,57.2l6.3,14.6c2.2-3.7,4.2-7.3,6-10.8c9.3-18.2,14-35.6,14-52.2c0-15.5-4.3-28-12.7-37.5
		c-8.5-9.5-19.6-14.3-33.3-14.3c-23,0-45.9,11-68.5,33c-22.6,22-33.9,44.3-33.9,66.8c0,11.8,3.4,21.5,10.2,28.9
		c6.8,7.5,15.5,11.2,26.2,11.2c17,0,33.5-9.6,49.6-28.9c5.2-6.3,9.6-12.5,13.1-18.5l-1.1-2.6C678.6,111.5,675.7,116,672.2,120.6z"/> <path style="fill:#C5C7C8;" d="M731.1,129l-3.1,7.7c5.1-5.6,10.5-11.6,16.2-18.1l3.4-8.2C741.4,117.3,736,123.5,731.1,129z"/> <path style="fill:#C5C7C8;" d="M711.6,132.1l-6.3-14.6c-0.8,2.2-1.7,4.3-2.5,6.5c-2.3,5.7-4.7,11.2-7.2,16.5l4.2,9.7
		C704.2,144,708.1,137.9,711.6,132.1z"/> <path style="fill:#C5C7C8;" d="M673.3,69.3c0-4-1.8-6-5.5-6c-0.2,0-1.5,0.2-3.8,0.5h-1c-0.6,0-0.9-0.2-0.9-0.7
		c0-1.3,1.4-2.6,4.1-3.8c2.7-1.3,5.5-1.9,8.2-1.9c3.7,0,6.8,1,9.4,3c0.2-0.7,0.6-1.4,1.1-2c-2.9-2.2-6.4-3.3-10.5-3.3
		c-5,0-9.4,1.6-13,4.7c-0.5,0.4-0.9,0.8-1.3,1.2c1,1.3,2.8,4.8,5.2,10.5l2.6,6c0.8-0.4,1.6-1,2.3-1.7
		C672.4,74,673.3,71.8,673.3,69.3z"/> <path style="fill:#CEC045;" d="M718.2,147.3l-1.1-2.5c-4.2,4.8-7.4,8.3-9.5,10.5c-1.3,1.4-2.6,2.8-3.9,4.1l0.8,1.9
		C708.8,157.1,713.4,152.4,718.2,147.3z"/> <path style="fill:#CEC045;" d="M690,82.5c-1,7.7-4.1,15.9-9,24.7l1.1,2.6c4.8-8.2,7.9-16.1,9.4-23.7L690,82.5z"/> </g> <image style="display:none;overflow:visible;" width="1276" height="227" xlink:href="E:\Downloads\ThomasVaughan-LOGO-PING image (1).png" transform="matrix(1 0 0 1 -3.0023 1.2753)"> </image> </symbol><symbol viewBox="0 0 50 50" id="icon-thomas-vaughan-bathrooms-logo-fix"><title>thomas-vaughan-bathrooms-logo</title><use xlink:href="#icon-thomas-vaughan-bathrooms-logo-fix" transform="scale(25.46) translate(-611.5, -87.5)"/></symbol></svg>