<?xml version="1.0" encoding="UTF-8"?><!DOCTYPE svg PUBLIC "-//W3C//DTD SVG 1.1//EN" "http://www.w3.org/Graphics/SVG/1.1/DTD/svg11.dtd"><svg xmlns="http://www.w3.org/2000/svg"><defs><style>.cls-1{fill:#231f20}.cls-2{fill:#1daa4b}</style><style>.cls-1{fill:#cbb149}.cls-2{fill:#231f20}.cls-3{fill:#1daa4b}</style><style>.cls-1{fill:#fff}</style></defs><symbol id="icon-accessible-icon" viewBox="0 0 448 512"><path d="M423.9 255.8L411 413.1c-3.3 40.7-63.9 35.1-60.6-4.9l10-122.5-41.1 2.3c10.1 20.7 15.8 43.9 15.8 68.5 0 41.2-16.1 78.7-42.3 106.5l-39.3-39.3c57.9-63.7 13.1-167.2-74-167.2-25.9 0-49.5 9.9-67.2 26L73 243.2c22-20.7 50.1-35.1 81.4-40.2l75.3-85.7-42.6-24.8-51.6 46c-30 26.8-70.6-18.5-40.5-45.4l68-60.7c9.8-8.8 24.1-10.2 35.5-3.6 0 0 139.3 80.9 139.5 81.1 16.2 10.1 20.7 36 6.1 52.6L285.7 229l106.1-5.9c18.5-1.1 33.6 14.4 32.1 32.7zm-64.9-154c28.1 0 50.9-22.8 50.9-50.9C409.9 22.8 387.1 0 359 0c-28.1 0-50.9 22.8-50.9 50.9 0 28.1 22.8 50.9 50.9 50.9zM179.6 456.5c-80.6 0-127.4-90.6-82.7-156.1l-39.7-39.7C36.4 287 24 320.3 24 356.4c0 130.7 150.7 201.4 251.4 122.5l-39.7-39.7c-16 10.9-35.3 17.3-56.1 17.3z"/></symbol><symbol id="icon-Annual Accounts" viewBox="0 0 169.94 127.678"><g data-name="15"><g data-name="Group 47" fill="none" stroke="#cbb149" stroke-linecap="round" stroke-linejoin="round" stroke-width="2"><path data-name="Path 244" d="M126.28 63.939v62.738H43.656V1h82.624v62.939z"/><path data-name="Path 245" d="M133.585 16.168l35.355 12.858-14.581 40.094v.022l-2.483 6.8-17.006 46.731-1.285-.467"/><path data-name="Path 246" d="M36.355 122.204l-1.292.467-17-46.731-2.49-6.8v-.022L.999 29.024l35.355-12.866"/><path data-name="Line 25" d="M57.384 14.621h55.167"/><path data-name="Line 26" d="M57.384 79.532h55.167"/><path data-name="Line 27" d="M57.384 90.945h55.167"/><path data-name="Line 28" d="M57.384 102.357h55.167"/><path data-name="Line 29" d="M57.384 113.771h55.167"/><path data-name="Line 30" d="M71.65 24.846h26.636"/><path data-name="Rectangle 622" d="M57.384 43.153H74.98v22.352H57.384z"/><path data-name="Line 31" d="M88.062 43.153h24.49"/><path data-name="Line 32" d="M88.062 54.33h24.49"/><path data-name="Line 33" d="M88.062 65.506h24.49"/><path data-name="Line 34" d="M152.62 38.241l-19.035-6.922"/><path data-name="Line 35" d="M36.354 31.312l-19.035 6.929"/><path data-name="Line 36" d="M148.225 50.34l-14.64-5.33"/><path data-name="Line 37" d="M36.355 45.01l-14.647 5.33"/><path data-name="Line 38" d="M143.8 62.468l-10.215-3.709"/><path data-name="Line 39" d="M36.354 58.759l-10.222 3.709"/><path data-name="Line 40" d="M139.382 74.567l-5.797-2.11"/><path data-name="Line 41" d="M36.354 72.457l-5.797 2.11"/><path data-name="Line 42" d="M134.987 86.695l-1.402-.511"/><path data-name="Line 43" d="M36.355 86.184l-1.402.511"/></g></g></symbol><symbol id="icon-apple" viewBox="0 0 448 512"><path d="M247.2 137.6c-6.2 1.9-15.3 3.5-27.9 4.6 1.1-56.7 29.9-96.6 88-110.1 9.3 41.6-26.1 94.1-60.1 105.5zm121.3 72.7c6.4-9.4 16.6-19.9 30.6-31.7-22.3-27.6-48.1-44.3-85.1-44.3-35.4 0-65.2 18.2-87 18.2-18.5 0-51.9-16.1-84.5-16.1-69.6 0-106.5 68.1-106.5 139C36 354.2 95.7 480 156.2 480c23.8 0 45.2-18 73.5-18 29.3 0 52.8 17.2 80.3 17.2 46 0 88.6-77.5 102-119.7-46.8-14.3-84.4-90.2-43.5-149.2z"/></symbol><symbol id="icon-Book Keeping" viewBox="0 0 168.4 133.399"><g data-name="16"><g data-name="Group 57" fill="none" stroke="#cbb149" stroke-linecap="round" stroke-linejoin="round" stroke-width="2"><g data-name="Group 54"><path data-name="Rectangle 644" d="M61.312 1h45.774v131.399H61.312z"/><path data-name="Rectangle 645" d="M72.684 17.299h23.03v70.2h-23.03z"/><path data-name="Path 262" d="M92.25 109.415a8.544 8.544 0 1 0-8.543 8.542 8.543 8.543 0 0 0 8.543-8.542z"/><path data-name="Line 46" d="M72.684 26.956h23.03"/><path data-name="Line 47" d="M72.684 76.356h23.03"/><path data-name="Line 48" d="M80.114 35.499v28.972"/><path data-name="Line 49" d="M87.914 35.499v28.972"/></g><g data-name="Group 55"><path data-name="Rectangle 646" d="M121.626 1H167.4v131.399h-45.774z"/><path data-name="Rectangle 647" d="M132.998 17.299h23.03v70.2h-23.03z"/><path data-name="Path 263" d="M152.564 109.415a8.543 8.543 0 1 0-8.544 8.542 8.544 8.544 0 0 0 8.544-8.542z"/><path data-name="Line 50" d="M132.998 26.956h23.03"/><path data-name="Line 51" d="M132.998 76.356h23.03"/><path data-name="Line 52" d="M140.428 35.499v28.972"/><path data-name="Line 53" d="M148.228 35.499v28.972"/></g><g data-name="Group 56"><path data-name="Rectangle 648" d="M1 1h45.771v131.399H1z"/><path data-name="Rectangle 649" d="M12.372 17.299h23.027v70.2H12.372z"/><path data-name="Path 264" d="M15.839 109.415a8.543 8.543 0 1 1 8.543 8.542 8.543 8.543 0 0 1-8.543-8.542z"/><path data-name="Line 54" d="M35.399 26.956H12.372"/><path data-name="Line 55" d="M35.399 76.356H12.372"/><path data-name="Line 56" d="M27.972 35.499v28.972"/><path data-name="Line 57" d="M20.172 35.499v28.972"/></g></g></g></symbol><symbol id="icon-Budgets and Forecasts" viewBox="0 0 138.495 135.64"><g data-name="7"><g data-name="Group 48" fill="none" stroke="#cbb149" stroke-linecap="round" stroke-linejoin="round" stroke-width="2"><path data-name="Path 247" d="M8.751 15.816v111.072h128.744"/><path data-name="Path 248" d="M129.418 119.137l7.753 7.751-7.753 7.752"/><path data-name="Path 249" d="M1 23.565l7.751-7.752 7.753 7.752"/><path data-name="Rectangle 623" d="M21.676 50.197h12.95v64.282h-12.95z"/><path data-name="Rectangle 624" d="M49.337 80.188h12.952v34.292H49.337z"/><path data-name="Rectangle 625" d="M77.003 92.809h12.949v21.671H77.003z"/><path data-name="Rectangle 626" d="M104.665 99.121h12.949v15.359h-12.949z"/><path data-name="Path 250" d="M33.201 20.064s8.682 66.426 96.721 66.426"/><path data-name="Path 251" d="M130.216 27.537A26.538 26.538 0 0 0 103.678 1v26.537z"/><path data-name="Path 252" d="M120.518 37.236A26.538 26.538 0 1 1 93.98 10.7v26.536z"/></g></g></symbol><symbol id="icon-facebook-f" viewBox="0 0 264 512"><path d="M76.7 512V283H0v-91h76.7v-71.7C76.7 42.4 124.3 0 193.8 0c33.3 0 61.9 2.5 70.2 3.6V85h-48.2c-37.8 0-45.1 18-45.1 44.3V192H256l-11.7 91h-73.6v229"/></symbol><symbol id="icon-facebook-square" viewBox="0 0 448 512"><path d="M448 80v352c0 26.5-21.5 48-48 48h-85.3V302.8h60.6l8.7-67.6h-69.3V192c0-19.6 5.4-32.9 33.5-32.9H384V98.7c-6.2-.8-27.4-2.7-52.2-2.7-51.6 0-87 31.5-87 89.4v49.9H184v67.6h60.9V480H48c-26.5 0-48-21.5-48-48V80c0-26.5 21.5-48 48-48h352c26.5 0 48 21.5 48 48z"/></symbol><symbol id="icon-facebook" viewBox="0 0 448 512"><path d="M448 56.7v398.5c0 13.7-11.1 24.7-24.7 24.7H309.1V306.5h58.2l8.7-67.6h-67v-43.2c0-19.6 5.4-32.9 33.5-32.9h35.8v-60.5c-6.2-.8-27.4-2.7-52.2-2.7-51.6 0-87 31.5-87 89.4v49.9h-58.4v67.6h58.4V480H24.7C11.1 480 0 468.9 0 455.3V56.7C0 43.1 11.1 32 24.7 32h398.5c13.7 0 24.8 11.1 24.8 24.7z"/></symbol><symbol id="icon-flickr" viewBox="0 0 448 512"><path d="M400 32H48C21.5 32 0 53.5 0 80v352c0 26.5 21.5 48 48 48h352c26.5 0 48-21.5 48-48V80c0-26.5-21.5-48-48-48zM144.5 319c-35.1 0-63.5-28.4-63.5-63.5s28.4-63.5 63.5-63.5 63.5 28.4 63.5 63.5-28.4 63.5-63.5 63.5zm159 0c-35.1 0-63.5-28.4-63.5-63.5s28.4-63.5 63.5-63.5 63.5 28.4 63.5 63.5-28.4 63.5-63.5 63.5z"/></symbol><symbol id="icon-github-alt" viewBox="0 0 480 512"><path d="M186.1 328.7c0 20.9-10.9 55.1-36.7 55.1s-36.7-34.2-36.7-55.1 10.9-55.1 36.7-55.1 36.7 34.2 36.7 55.1zM480 278.2c0 31.9-3.2 65.7-17.5 95-37.9 76.6-142.1 74.8-216.7 74.8-75.8 0-186.2 2.7-225.6-74.8-14.6-29-20.2-63.1-20.2-95 0-41.9 13.9-81.5 41.5-113.6-5.2-15.8-7.7-32.4-7.7-48.8 0-21.5 4.9-32.3 14.6-51.8 45.3 0 74.3 9 108.8 36 29-6.9 58.8-10 88.7-10 27 0 54.2 2.9 80.4 9.2 34-26.7 63-35.2 107.8-35.2 9.8 19.5 14.6 30.3 14.6 51.8 0 16.4-2.6 32.7-7.7 48.2 27.5 32.4 39 72.3 39 114.2zm-64.3 50.5c0-43.9-26.7-82.6-73.5-82.6-18.9 0-37 3.4-56 6-14.9 2.3-29.8 3.2-45.1 3.2-15.2 0-30.1-.9-45.1-3.2-18.7-2.6-37-6-56-6-46.8 0-73.5 38.7-73.5 82.6 0 87.8 80.4 101.3 150.4 101.3h48.2c70.3 0 150.6-13.4 150.6-101.3zm-82.6-55.1c-25.8 0-36.7 34.2-36.7 55.1s10.9 55.1 36.7 55.1 36.7-34.2 36.7-55.1-10.9-55.1-36.7-55.1z"/></symbol><symbol id="icon-github-square" viewBox="0 0 448 512"><path d="M400 32H48C21.5 32 0 53.5 0 80v352c0 26.5 21.5 48 48 48h352c26.5 0 48-21.5 48-48V80c0-26.5-21.5-48-48-48zM277.3 415.7c-8.4 1.5-11.5-3.7-11.5-8 0-5.4.2-33 .2-55.3 0-15.6-5.2-25.5-11.3-30.7 37-4.1 76-9.2 76-73.1 0-18.2-6.5-27.3-17.1-39 1.7-4.3 7.4-22-1.7-45-13.9-4.3-45.7 17.9-45.7 17.9-13.2-3.7-27.5-5.6-41.6-5.6-14.1 0-28.4 1.9-41.6 5.6 0 0-31.8-22.2-45.7-17.9-9.1 22.9-3.5 40.6-1.7 45-10.6 11.7-15.6 20.8-15.6 39 0 63.6 37.3 69 74.3 73.1-4.8 4.3-9.1 11.7-10.6 22.3-9.5 4.3-33.8 11.7-48.3-13.9-9.1-15.8-25.5-17.1-25.5-17.1-16.2-.2-1.1 10.2-1.1 10.2 10.8 5 18.4 24.2 18.4 24.2 9.7 29.7 56.1 19.7 56.1 19.7 0 13.9.2 36.5.2 40.6 0 4.3-3 9.5-11.5 8-66-22.1-112.2-84.9-112.2-158.3 0-91.8 70.2-161.5 162-161.5S388 165.6 388 257.4c.1 73.4-44.7 136.3-110.7 158.3zm-98.1-61.1c-1.9.4-3.7-.4-3.9-1.7-.2-1.5 1.1-2.8 3-3.2 1.9-.2 3.7.6 3.9 1.9.3 1.3-1 2.6-3 3zm-9.5-.9c0 1.3-1.5 2.4-3.5 2.4-2.2.2-3.7-.9-3.7-2.4 0-1.3 1.5-2.4 3.5-2.4 1.9-.2 3.7.9 3.7 2.4zm-13.7-1.1c-.4 1.3-2.4 1.9-4.1 1.3-1.9-.4-3.2-1.9-2.8-3.2.4-1.3 2.4-1.9 4.1-1.5 2 .6 3.3 2.1 2.8 3.4zm-12.3-5.4c-.9 1.1-2.8.9-4.3-.6-1.5-1.3-1.9-3.2-.9-4.1.9-1.1 2.8-.9 4.3.6 1.3 1.3 1.8 3.3.9 4.1zm-9.1-9.1c-.9.6-2.6 0-3.7-1.5s-1.1-3.2 0-3.9c1.1-.9 2.8-.2 3.7 1.3 1.1 1.5 1.1 3.3 0 4.1zm-6.5-9.7c-.9.9-2.4.4-3.5-.6-1.1-1.3-1.3-2.8-.4-3.5.9-.9 2.4-.4 3.5.6 1.1 1.3 1.3 2.8.4 3.5zm-6.7-7.4c-.4.9-1.7 1.1-2.8.4-1.3-.6-1.9-1.7-1.5-2.6.4-.6 1.5-.9 2.8-.4 1.3.7 1.9 1.8 1.5 2.6z"/></symbol><symbol id="icon-github" viewBox="0 0 496 512"><path d="M165.9 397.4c0 2-2.3 3.6-5.2 3.6-3.3.3-5.6-1.3-5.6-3.6 0-2 2.3-3.6 5.2-3.6 3-.3 5.6 1.3 5.6 3.6zm-31.1-4.5c-.7 2 1.3 4.3 4.3 4.9 2.6 1 5.6 0 6.2-2s-1.3-4.3-4.3-5.2c-2.6-.7-5.5.3-6.2 2.3zm44.2-1.7c-2.9.7-4.9 2.6-4.6 4.9.3 2 2.9 3.3 5.9 2.6 2.9-.7 4.9-2.6 4.6-4.6-.3-1.9-3-3.2-5.9-2.9zM244.8 8C106.1 8 0 113.3 0 252c0 110.9 69.8 205.8 169.5 239.2 12.8 2.3 17.3-5.6 17.3-12.1 0-6.2-.3-40.4-.3-61.4 0 0-70 15-84.7-29.8 0 0-11.4-29.1-27.8-36.6 0 0-22.9-15.7 1.6-15.4 0 0 24.9 2 38.6 25.8 21.9 38.6 58.6 27.5 72.9 20.9 2.3-16 8.8-27.1 16-33.7-55.9-6.2-112.3-14.3-112.3-110.5 0-27.5 7.6-41.3 23.6-58.9-2.6-6.5-11.1-33.3 2.6-67.9 20.9-6.5 69 27 69 27 20-5.6 41.5-8.5 62.8-8.5s42.8 2.9 62.8 8.5c0 0 48.1-33.6 69-27 13.7 34.7 5.2 61.4 2.6 67.9 16 17.7 25.8 31.5 25.8 58.9 0 96.5-58.9 104.2-114.8 110.5 9.2 7.9 17 22.9 17 46.4 0 33.7-.3 75.4-.3 83.6 0 6.5 4.6 14.4 17.3 12.1C428.2 457.8 496 362.9 496 252 496 113.3 383.5 8 244.8 8zM97.2 352.9c-1.3 1-1 3.3.7 5.2 1.6 1.6 3.9 2.3 5.2 1 1.3-1 1-3.3-.7-5.2-1.6-1.6-3.9-2.3-5.2-1zm-10.8-8.1c-.7 1.3.3 2.9 2.3 3.9 1.6 1 3.6.7 4.3-.7.7-1.3-.3-2.9-2.3-3.9-2-.6-3.6-.3-4.3.7zm32.4 35.6c-1.6 1.3-1 4.3 1.3 6.2 2.3 2.3 5.2 2.6 6.5 1 1.3-1.3.7-4.3-1.3-6.2-2.2-2.3-5.2-2.6-6.5-1zm-11.4-14.7c-1.6 1-1.6 3.6 0 5.9 1.6 2.3 4.3 3.3 5.6 2.3 1.6-1.3 1.6-3.9 0-6.2-1.4-2.3-4-3.3-5.6-2z"/></symbol><symbol id="icon-Interim Finance Director Support" viewBox="0 0 180.693 134.365"><g data-name="10"><g data-name="Group 43" fill="none" stroke="#cbb149" stroke-linecap="round" stroke-linejoin="round" stroke-width="2"><g data-name="Group 40"><path data-name="Path 220" d="M73.138 90.621l-14.426 14.144a6.523 6.523 0 0 1-9.1 0 6.221 6.221 0 0 1 0-8.919l23.526-24.3"/><path data-name="Path 221" d="M82.235 99.54l-14.429 14.144a6.533 6.533 0 0 1-9.094 0 6.223 6.223 0 0 1 0-8.919l14.426-14.144"/><path data-name="Path 222" d="M82.236 99.543l-14.423 14.138a6.207 6.207 0 0 0 0 8.916 6.508 6.508 0 0 0 9.094 0l12.684-12.431"/><path data-name="Line 10" d="M91.329 108.459l-.042.042"/><path data-name="Path 223" d="M94.471 123.211l-8.464 8.305a6.524 6.524 0 0 1-9.1 0 6.216 6.216 0 0 1 0-8.919l12.684-12.431"/><path data-name="Line 11" d="M91.329 108.459l-.042.042"/></g><g data-name="Group 41"><path data-name="Path 224" d="M124.86 99.882l-5.019-6.05a6.192 6.192 0 0 1-1.4-4.622 6.265 6.265 0 0 1 2.337-4.249 6.526 6.526 0 0 1 9.048.918l5.019 6.042"/><path data-name="Path 225" d="M114.877 107.845l-5.012-6.046a6.228 6.228 0 0 1 .927-8.874 6.528 6.528 0 0 1 8.832.662l.116.127.1.119 5.019 6.05"/><path data-name="Path 226" d="M104.899 115.801l-5.016-6.05a6.216 6.216 0 0 1 .934-8.87 6.515 6.515 0 0 1 9.048.918l5.012 6.046"/><path data-name="Path 227" d="M94.922 123.758l-5.018-6.05a6.22 6.22 0 0 1 .931-8.871 6.518 6.518 0 0 1 9.048.915l5.015 6.05"/></g><g data-name="Group 42"><path data-name="Path 228" d="M99.883 109.752l5.016 6.05a6.18 6.18 0 0 1 1.408 4.622 6.278 6.278 0 0 1-2.337 4.246 6.526 6.526 0 0 1-9.048-.911l-5.018-6.05"/><path data-name="Path 229" d="M109.865 101.799l5.012 6.046a6.179 6.179 0 0 1 1.409 4.618 6.271 6.271 0 0 1-2.34 4.25 6.522 6.522 0 0 1-9.048-.911l-5.015-6.05"/><path data-name="Path 230" d="M119.625 93.587l.116.127.1.119 5.019 6.05a6.223 6.223 0 0 1-.931 8.874 6.528 6.528 0 0 1-9.052-.911l-5.012-6.046"/><path data-name="Path 231" d="M129.823 85.881l5.019 6.042a6.221 6.221 0 0 1-.934 8.875 6.518 6.518 0 0 1-9.048-.915l-5.019-6.05-.1-.119"/></g><path data-name="Line 12" d="M49.613 95.847l-15.68-13.644"/><path data-name="Path 232" d="M73.139 71.542l13.592-2.343a7.411 7.411 0 0 1 7.937 4.046l3.212 6.686a6.449 6.449 0 0 0 5.823 3.619 6.612 6.612 0 0 0 2.731-.595 6.259 6.259 0 0 0 3.083-8.392l-5.959-12.426a11.754 11.754 0 0 0-10.564-6.56c-.3 0-.6.01-.9.039L77.726 53.26l-18.413-3.025"/><path data-name="Path 233" d="M78.929 53.449l12.674-5.229a20.632 20.632 0 0 1 11.715-1.322l17.638 3.639"/><path data-name="Line 13" d="M146.753 82.203l-11.912 9.721"/><path data-name="Path 234" d="M159.738 78.202l-10.225 7.478-2.747-3.474-29.12-36.665 11.647-8.04"/><path data-name="Path 235" d="M20.954 78.202l10.225 7.478 2.747-3.474 25.381-31.967 3.739-4.7-11.647-8.04"/><path data-name="Path 236" d="M179.693 77.111l-13.237 9.927-39.71-52.946 52.946-33.091"/><path data-name="Path 237" d="M1 77.111l13.236 9.927 39.71-52.946L1 1.001"/></g></g></symbol><symbol id="icon-itunes-note" viewBox="0 0 384 512"><path d="M381.9 388.2c-6.4 27.4-27.2 42.8-55.1 48-24.5 4.5-44.9 5.6-64.5-10.2-23.9-20.1-24.2-53.4-2.7-74.4 17-16.2 40.9-19.5 76.8-25.8 6-1.1 11.2-2.5 15.6-7.4 6.4-7.2 4.4-4.1 4.4-163.2 0-11.2-5.5-14.3-17-12.3-8.2 1.4-185.7 34.6-185.7 34.6-10.2 2.2-13.4 5.2-13.4 16.7 0 234.7 1.1 223.9-2.5 239.5-4.2 18.2-15.4 31.9-30.2 39.5-16.8 9.3-47.2 13.4-63.4 10.4-43.2-8.1-58.4-58-29.1-86.6 17-16.2 40.9-19.5 76.8-25.8 6-1.1 11.2-2.5 15.6-7.4 10.1-11.5 1.8-256.6 5.2-270.2.8-5.2 3-9.6 7.1-12.9 4.2-3.5 11.8-5.5 13.4-5.5 204-38.2 228.9-43.1 232.4-43.1 11.5-.8 18.1 6 18.1 17.6.2 344.5 1.1 326-1.8 338.5z"/></symbol><symbol id="icon-itunes" viewBox="0 0 448 512"><path d="M223.6 80.3C129 80.3 52.5 157 52.5 251.5S129 422.8 223.6 422.8s171.2-76.7 171.2-171.2c0-94.6-76.7-171.3-171.2-171.3zm79.4 240c-3.2 13.6-13.5 21.2-27.3 23.8-12.1 2.2-22.2 2.8-31.9-5-11.8-10-12-26.4-1.4-36.8 8.4-8 20.3-9.6 38-12.8 3-.5 5.6-1.2 7.7-3.7 3.2-3.6 2.2-2 2.2-80.8 0-5.6-2.7-7.1-8.4-6.1-4 .7-91.9 17.1-91.9 17.1-5 1.1-6.7 2.6-6.7 8.3 0 116.1.5 110.8-1.2 118.5-2.1 9-7.6 15.8-14.9 19.6-8.3 4.6-23.4 6.6-31.4 5.2-21.4-4-28.9-28.7-14.4-42.9 8.4-8 20.3-9.6 38-12.8 3-.5 5.6-1.2 7.7-3.7 5-5.7.9-127 2.6-133.7.4-2.6 1.5-4.8 3.5-6.4 2.1-1.7 5.8-2.7 6.7-2.7 101-19 113.3-21.4 115.1-21.4 5.7-.4 9 3 9 8.7-.1 170.6.4 161.4-1 167.6zM345.2 32H102.8C45.9 32 0 77.9 0 134.8v242.4C0 434.1 45.9 480 102.8 480h242.4c57 0 102.8-45.9 102.8-102.8V134.8C448 77.9 402.1 32 345.2 32zM223.6 444c-106.3 0-192.5-86.2-192.5-192.5S117.3 59 223.6 59s192.5 86.2 192.5 192.5S329.9 444 223.6 444z"/></symbol><symbol id="icon-linkedin-in" viewBox="0 0 448 512"><path d="M100.3 480H7.4V180.9h92.9V480zM53.8 140.1C24.1 140.1 0 115.5 0 85.8 0 56.1 24.1 32 53.8 32c29.7 0 53.8 24.1 53.8 53.8 0 29.7-24.1 54.3-53.8 54.3zM448 480h-92.7V334.4c0-34.7-.7-79.2-48.3-79.2-48.3 0-55.7 37.7-55.7 76.7V480h-92.8V180.9h89.1v40.8h1.3c12.4-23.5 42.7-48.3 87.9-48.3 94 0 111.3 61.9 111.3 142.3V480z"/></symbol><symbol id="icon-linkedin" viewBox="0 0 448 512"><path d="M416 32H31.9C14.3 32 0 46.5 0 64.3v383.4C0 465.5 14.3 480 31.9 480H416c17.6 0 32-14.5 32-32.3V64.3c0-17.8-14.4-32.3-32-32.3zM135.4 416H69V202.2h66.5V416zm-33.2-243c-21.3 0-38.5-17.3-38.5-38.5S80.9 96 102.2 96c21.2 0 38.5 17.3 38.5 38.5 0 21.3-17.2 38.5-38.5 38.5zm282.1 243h-66.4V312c0-24.8-.5-56.7-34.5-56.7-34.6 0-39.9 27-39.9 54.9V416h-66.4V202.2h63.7v29.2h.9c8.9-16.8 30.6-34.5 62.9-34.5 67.2 0 79.7 44.3 79.7 101.9V416z"/></symbol><symbol id="icon-lla-logo-black" viewBox="0 0 810 220"><title>Artboard 1</title><path d="M334.16 195.12c-14.47 0-26.82-5.91-31.91-14.27a16.23 16.23 0 0 0-2.5 8.49c0 12.57 15.4 22.76 34.41 22.76s34.41-10.19 34.41-22.76a16.33 16.33 0 0 0-2.5-8.49c-5.07 8.36-17.45 14.27-31.91 14.27z"/><path class="cls-1" d="M334.16 190.76c12.46 0 23.35-4.4 29.39-11-.42-7.13-4.3-23.62-29.51-36.94-26 14.29-29.17 30.16-29.19 37 6.04 6.58 16.89 10.94 29.31 10.94z"/><ellipse cx="334.5" cy="210" rx="4.84" ry="6.25"/><path class="cls-1" d="M33 133.29v-32.56h3.48v29.51H67.2v3zM75.6 133.29v-32.56h34.25v3H79.08v9.76h30.77v3H79.08v13.72h30.77v3zM120.33 133.29v-32.56h3.48v32.56zM154.73 134.16c-11.12 0-21.79-5-21.79-17.15 0-12.37 11.25-17.15 21.79-17.15 6.32 0 12 1 17 3.33l-.87 3A39.46 39.46 0 0 0 155 102.9c-10.05 0-18.36 4.35-18.36 14.15s8.55 14.06 18.31 14.06a36.47 36.47 0 0 0 13.09-2.17V118h3.48v12.9a40.51 40.51 0 0 1-16.79 3.26zM217.28 133.29v-16.81h-31.45v16.81h-3.47v-32.56h3.47v12.7h31.45v-12.7h3.48v32.56zM245.88 133.29v-32.56h3.48v29.51h30.72v3zM325.2 133.29l-5-8.12h-26l-5 8.12H285l20.91-33.24h2.71l20.87 33.24zm-18-29.23l-11.16 18.07h22.27zM367 134h-3l-8.65-13.81-8.51 13.81h-3L323 100.73h4.3l18 29.27 8-13-10.14-16.23h4.3l7.92 12.94 8-12.94h4.2l-10.14 16.18 8 13.09 18.06-29.27h4.21zM427 133.29l-13.84-14.59H399.3v14.59h-3.48v-32.56h26.76c5.41 0 9.91 2.89 9.91 8.69 0 6.23-4.69 9.23-9.91 9.23h-5l14.05 14.64zm-5.07-29.57H399.3v12.08h23.09c2.66 0 6.62-1.35 6.62-6.33-.01-3.82-3.14-5.75-7.1-5.75zM448.09 133.29h-4.93l13.62-13.67-18-18.89h4.88l15.56 16.47 16.47-16.47h4.93zM35.7 156.87L3.09 206.16h16.59l5.44-8.7h34.36l5.29 8.7h17l-32.59-49.29zm-4.49 30.3l11.16-18 11 18zM118.09 196.81c-14.49-.08-23.48-5.44-23.48-15s8.55-15.07 23.48-15.07a62.6 62.6 0 0 1 25.23 5.26l2.75-10.37c-9-4.06-18.19-5.58-29.21-5.58-15.51 0-36.46 5.73-36.46 25.73 0 18.77 17.91 25.73 36.46 25.73 12 0 20.51-2 29.28-5.58l-2.75-10.22a63.25 63.25 0 0 1-25.3 5.1zM186 196.81c-14.5-.08-23.49-5.44-23.49-15s8.56-15.07 23.49-15.07a62.56 62.56 0 0 1 25.21 5.26l2.79-10.42c-9-4.06-18.19-5.58-29.2-5.58-15.51 0-36.46 5.73-36.46 25.73 0 18.77 17.9 25.73 36.46 25.73 12 0 20.51-2 29.28-5.58l-2.76-10.22a63.2 63.2 0 0 1-25.32 5.15zM428.81 185.43l-50.95-29.14h-1.81v49.87h13.62v-28.27l51.1 29.28h1.67V157.3h-13.63v28.13zM516.42 157.3h-68.06v10.88h27.25v37.98h13.56v-37.98h27.25V157.3zM536 156.87l-32.61 49.29H520l5.43-8.7h34.36l5.29 8.7h17l-32.54-49.29zm-4.49 30.3l11.16-18 11 18zM640.76 181.57l-50.96-25.28h-1.81v49.87h13.63v-28.27l51.1 29.28h1.66V157.3l-13.62-3.85v28.12zM699.37 196.81c-14.49-.08-23.48-5.44-23.48-15s8.55-15.07 23.48-15.07A62.6 62.6 0 0 1 724.6 172l2.75-10.37c-9-4.06-18.19-5.58-29.21-5.58-15.51 0-36.46 5.73-36.46 25.73 0 18.77 17.91 25.73 36.46 25.73 12 0 20.51-2 29.28-5.58l-2.75-10.22a63.25 63.25 0 0 1-25.3 5.1zM552.65 69.67c-1.33-10.84 1.76-21.31-2-32.64-3.15-9.29-12.92-18-22.12-11.84-9.85 6.81-9.12-10.32-15.53-16.6-8-8.22-18.54-5.29-21.5 3.61-3 8.69-13.61-5.83-21.63-7.54-3.81-.78-8.21-.81-10.83 2s-.62 8.74-4.59 10.29c-6.46 2.58-18.09-4-21 5.93-3.34 10.38 9.51 11.23 12.67 17.49 1.83 3.71-3.15 7-3.07 10.87s2.88 6.46 5.76 8.16c5.83 3.5 21.79.55 17.26 8.78-4.54 8.38-1.42 16.89 7.2 17.51 6.88.24 19.8-9.37 17.88 1.86-2 10.44 6.39 13.34 14.52 12.18 9.7-1.3 18.62-7.46 28.79-8.55 9.47-1 15.73 5.47 19 4.81 1.58-.32 5.25-1.47 7.58-2.14 1.25-3.39-7.26-15.23-8.39-24.18zM463.22 32.8c57.93 1.32 95.67 61.26 95.67 61.26l-4.13 1.56S519 42.85 463.22 32.8z"/><path class="cls-2" d="M561 93.88a1.35 1.35 0 0 1-.75.82c4.09-1.7 3.1-1.51.75-.82z"/><path class="cls-1" d="M787.71 157.3l-19.79 20.15-14.83-16.81c-137-152.56-277.4-19.32-263.71-28.48C592 63.47 683.78 109.62 732 158.85l25.81 27.74-19.5 19.57H758l48.92-48.86z"/><path d="M257.83 207.18c-17.6 0-35.65-7.13-35.65-25.83s18-25.83 35.65-25.83 35.65 7.21 35.65 25.83-17.82 25.83-35.65 25.83zm0-41.54c-12.95 0-21.24 5.75-21.24 15.71s8.29 15.72 21.24 15.72 21.1-5.68 21.1-15.72-8.29-15.71-21.1-15.71z"/><path d="M257.83 207.18c-17.6 0-35.65-7.13-35.65-25.83s18-25.83 35.65-25.83 35.65 7.21 35.65 25.83-17.82 25.83-35.65 25.83zm0-41.54c-12.95 0-21.24 5.75-21.24 15.71s8.29 15.72 21.24 15.72 21.1-5.68 21.1-15.72-8.29-15.71-21.1-15.71z"/></symbol><symbol id="icon-lla-logo-colour" viewBox="0 0 841.89 283.46"><title>leigh lawry accountant cardiff logo</title><path d="M343.68 225.76c-14.46 0-26.82-5.91-31.91-14.27a16.18 16.18 0 0 0-2.5 8.49c0 12.57 15.41 22.76 34.41 22.76s34.41-10.19 34.41-22.76a16.18 16.18 0 0 0-2.5-8.49c-5.09 8.36-17.45 14.27-31.91 14.27z"/><path class="cls-1" d="M343.68 221.4c12.47 0 23.36-4.4 29.39-11-.41-7.13-4.29-23.62-29.5-36.94-26 14.28-29.17 30.16-29.2 37 6.05 6.54 16.9 10.94 29.31 10.94z"/><ellipse cx="344.02" cy="240.64" rx="4.84" ry="6.25"/><path class="cls-2" d="M42.52 163.93v-32.56H46v29.51h30.72v3.05zM85.12 163.93v-32.56h34.25v3H88.6v9.76h30.77v3H88.6v13.72h30.77v3.05zM129.85 163.93v-32.56h3.48v32.56zM164.25 164.79c-11.11 0-21.79-5-21.79-17.14 0-12.37 11.26-17.15 21.79-17.15 6.33 0 12 1 17 3.33l-.86 2.95a39.47 39.47 0 0 0-15.85-3.24c-10 0-18.36 4.35-18.36 14.15s8.55 14.06 18.31 14.06a36.4 36.4 0 0 0 13.09-2.17v-10.92h3.48v12.9a40.51 40.51 0 0 1-16.81 3.23zM226.81 163.93v-16.82h-31.45v16.82h-3.48v-32.56h3.48v12.7h31.45v-12.7h3.48v32.56zM255.4 163.93v-32.56h3.48v29.51h30.72v3.05zM334.72 163.93l-5-8.12h-26l-5 8.12h-4.2l20.92-33.24h2.7L339 163.93zm-18-29.23l-11.16 18.07h22.27zM376.51 164.6h-2.95l-8.65-13.81-8.55 13.81h-3l-20.82-33.23h4.3l18 29.27 8-13-10.15-16.23H357l8 12.9 8-12.94h4.21L367 147.55l8 13.09 18.07-29.27h4.2zM436.5 163.93l-13.81-14.59h-13.87v14.59h-3.48v-32.56h26.77c5.41 0 9.9 2.89 9.9 8.69 0 6.23-4.68 9.23-9.9 9.23h-5l14.06 14.64zm-5.07-29.57h-22.61v12.08h23.09c2.66 0 6.62-1.36 6.62-6.33 0-3.82-3.14-5.75-7.1-5.75zM457.61 163.93h-4.92l13.62-13.68-18-18.88h4.88l15.55 16.47 16.48-16.47h4.92zM45.23 187.51l-32.62 49.28h16.6l5.44-8.69H69l5.29 8.69h17l-32.58-49.28zm-4.49 30.3l11.16-18.05 10.94 18.05zM127.62 227.44c-14.5-.07-23.49-5.43-23.49-15s8.56-15.07 23.49-15.07a62.72 62.72 0 0 1 25.22 5.21l2.76-10.36c-9-4.06-18.2-5.58-29.21-5.58-15.51 0-36.46 5.72-36.46 25.73 0 18.77 17.9 25.73 36.46 25.73 12 0 20.51-2 29.28-5.58l-2.76-10.22a63.2 63.2 0 0 1-25.29 5.14zM195.51 227.44C181 227.37 172 222 172 212.44s8.55-15.07 23.48-15.07a62.77 62.77 0 0 1 25.23 5.21l2.75-10.36c-9-4.06-18.19-5.58-29.21-5.58-15.51 0-36.46 5.72-36.46 25.73 0 18.77 17.91 25.73 36.46 25.73 12 0 20.51-2 29.28-5.58l-2.75-10.22a63.25 63.25 0 0 1-25.27 5.14zM438.34 216.07l-50.96-29.14h-1.81v49.86h13.63v-28.26l51.1 29.28h1.66v-49.87h-13.62v28.13zM525.95 187.94h-68.07v10.88h27.26v37.97h13.55v-37.97h27.26v-10.88zM545.5 187.51l-32.62 49.28h16.6l5.44-8.69h34.35l5.29 8.69h17L559 187.51zm-4.5 30.3l11.17-18.05 10.94 18.05zM650.28 212.21l-50.95-25.28h-1.82v49.86h13.63v-28.26l51.1 29.28h1.67v-49.87l-13.63-3.85v28.12zM708.9 227.44c-14.5-.07-23.49-5.43-23.49-15s8.56-15.07 23.49-15.07a62.72 62.72 0 0 1 25.22 5.21l2.76-10.36c-9-4.06-18.2-5.58-29.22-5.58-15.51 0-36.45 5.72-36.45 25.73 0 18.77 17.9 25.73 36.45 25.73 12 0 20.52-2 29.29-5.58l-2.76-10.22a63.24 63.24 0 0 1-25.29 5.14z"/><path class="cls-1" d="M562.18 100.31c-1.33-10.84 1.75-21.31-2-32.64-3.15-9.29-12.92-18-22.13-11.84-9.84 6.77-9.1-10.32-15.54-16.6-8-8.23-18.51-5.29-21.51 3.61-3 8.69-13.61-5.83-21.63-7.54-3.82-.78-8.22-.81-10.84 2s-.62 8.75-4.59 10.3c-6.45 2.58-18.09-4-21 5.93-3.34 10.39 9.51 11.25 12.66 17.47 1.83 3.7-3.14 7-3.07 10.87s2.88 6.46 5.76 8.16c5.83 3.5 21.79.55 17.26 8.78-4.53 8.38-1.42 16.89 7.21 17.5 6.87.24 19.79-9.36 17.87 1.86-1.95 10.45 6.39 13.34 14.53 12.19 9.7-1.3 18.61-7.47 28.78-8.55 9.47-1 15.73 5.47 18.95 4.81 1.59-.32 5.25-1.47 7.58-2.14 1.34-3.38-7.16-15.22-8.29-24.17zm-89.43-36.87c57.93 1.32 95.67 61.25 95.67 61.25l-4.14 1.57s-35.79-52.77-91.53-62.82z"/><path class="cls-3" d="M570.47 124.52a1.36 1.36 0 0 1-.74.82c4.13-1.71 3.14-1.51.74-.82z"/><path class="cls-2" d="M797.23 187.94l-19.79 20.15s-14.4-16.34-14.83-16.81C625.62 38.72 485.21 172 498.9 162.8c102.64-68.69 194.41-22.54 242.58 26.69l25.82 27.74-19.5 19.56h19.71l48.93-48.85z"/><path d="M267.36 237.82c-17.61 0-35.65-7.13-35.65-25.83s18-25.83 35.65-25.83S303 193.37 303 212s-17.82 25.82-35.64 25.82zm0-41.54c-13 0-21.25 5.74-21.25 15.71s8.3 15.72 21.25 15.72c12.8 0 21.1-5.68 21.1-15.72s-8.3-15.71-21.1-15.71z"/><path d="M267.36 237.82c-17.61 0-35.65-7.13-35.65-25.83s18-25.83 35.65-25.83S303 193.37 303 212s-17.82 25.82-35.64 25.82zm0-41.54c-13 0-21.25 5.74-21.25 15.71s8.3 15.72 21.25 15.72c12.8 0 21.1-5.68 21.1-15.72s-8.3-15.71-21.1-15.71z"/></symbol><symbol id="icon-lla-logo-white" viewBox="0 0 806 220"><title>Artboard 1</title><path class="cls-1" d="M332.16 195.12c-14.47 0-26.82-5.91-31.91-14.27a16.23 16.23 0 0 0-2.5 8.49c0 12.57 15.4 22.76 34.41 22.76s34.41-10.19 34.41-22.76a16.33 16.33 0 0 0-2.5-8.49c-5.07 8.36-17.45 14.27-31.91 14.27z"/><path class="cls-1" d="M332.16 190.76c12.46 0 23.35-4.4 29.39-11-.42-7.13-4.3-23.62-29.51-36.94-26 14.29-29.17 30.16-29.19 37 6.04 6.58 16.89 10.94 29.31 10.94z"/><ellipse class="cls-1" cx="332.5" cy="210" rx="4.84" ry="6.25"/><path class="cls-1" d="M31 133.29v-32.56h3.48v29.51H65.2v3zM73.6 133.29v-32.56h34.25v3H77.08v9.76h30.77v3H77.08v13.72h30.77v3zM118.33 133.29v-32.56h3.48v32.56zM152.73 134.16c-11.12 0-21.79-5-21.79-17.15 0-12.37 11.25-17.15 21.79-17.15 6.32 0 12 1 17 3.33l-.87 3A39.46 39.46 0 0 0 153 102.9c-10.05 0-18.36 4.35-18.36 14.15s8.55 14.06 18.31 14.06a36.47 36.47 0 0 0 13.09-2.17V118h3.48v12.9a40.51 40.51 0 0 1-16.79 3.26zM215.28 133.29v-16.81h-31.45v16.81h-3.47v-32.56h3.47v12.7h31.45v-12.7h3.48v32.56zM243.88 133.29v-32.56h3.48v29.51h30.72v3zM323.2 133.29l-5-8.12h-26l-5 8.12H283l20.91-33.24h2.71l20.87 33.24zm-18-29.23l-11.16 18.07h22.27zM365 134h-3l-8.65-13.81-8.51 13.81h-3L321 100.73h4.3l18 29.27 8-13-10.14-16.23h4.3l7.92 12.94 8-12.94h4.2l-10.14 16.18 8 13.09 18.06-29.27h4.21zM425 133.29l-13.84-14.59H397.3v14.59h-3.48v-32.56h26.76c5.41 0 9.91 2.89 9.91 8.69 0 6.23-4.69 9.23-9.91 9.23h-5l14.06 14.64zm-5.07-29.57H397.3v12.08h23.09c2.66 0 6.62-1.35 6.62-6.33-.01-3.82-3.14-5.75-7.1-5.75zM446.09 133.29h-4.93l13.62-13.67-18-18.89h4.88l15.56 16.47 16.47-16.47h4.93zM33.7 156.87L1.09 206.16h16.59l5.44-8.7h34.36l5.29 8.7h17l-32.59-49.29zm-4.49 30.3l11.16-18 11 18zM116.09 196.81c-14.49-.08-23.48-5.44-23.48-15s8.55-15.07 23.48-15.07a62.6 62.6 0 0 1 25.23 5.26l2.75-10.37c-9-4.06-18.19-5.58-29.21-5.58-15.51 0-36.46 5.73-36.46 25.73 0 18.77 17.91 25.73 36.46 25.73 12 0 20.51-2 29.28-5.58l-2.75-10.22a63.25 63.25 0 0 1-25.3 5.1zM184 196.81c-14.5-.08-23.49-5.44-23.49-15s8.56-15.07 23.49-15.07a62.56 62.56 0 0 1 25.21 5.26l2.79-10.42c-9-4.06-18.19-5.58-29.2-5.58-15.51 0-36.46 5.73-36.46 25.73 0 18.77 17.9 25.73 36.46 25.73 12 0 20.51-2 29.28-5.58l-2.76-10.22a63.2 63.2 0 0 1-25.32 5.15zM426.81 185.43l-50.95-29.14h-1.81v49.87h13.62v-28.27l51.1 29.28h1.67V157.3h-13.63v28.13zM514.42 157.3h-68.06v10.88h27.25v37.98h13.56v-37.98h27.25V157.3zM534 156.87l-32.61 49.29H518l5.43-8.7h34.36l5.29 8.7h17l-32.54-49.29zm-4.49 30.3l11.16-18 11 18zM638.76 181.57l-50.96-25.28h-1.81v49.87h13.63v-28.27l51.1 29.28h1.66V157.3l-13.62-3.85v28.12zM697.37 196.81c-14.49-.08-23.48-5.44-23.48-15s8.55-15.07 23.48-15.07A62.6 62.6 0 0 1 722.6 172l2.75-10.37c-9-4.06-18.19-5.58-29.21-5.58-15.51 0-36.46 5.73-36.46 25.73 0 18.77 17.91 25.73 36.46 25.73 12 0 20.51-2 29.28-5.58l-2.75-10.22a63.25 63.25 0 0 1-25.3 5.1zM550.65 69.67c-1.33-10.84 1.76-21.31-2-32.64-3.15-9.29-12.92-18-22.12-11.84-9.85 6.81-9.12-10.32-15.53-16.6-8-8.22-18.54-5.29-21.5 3.61-3 8.69-13.61-5.83-21.63-7.54-3.81-.78-8.21-.81-10.83 2s-.62 8.74-4.59 10.29c-6.46 2.58-18.09-4-21 5.93-3.34 10.38 9.51 11.23 12.67 17.49 1.83 3.71-3.15 7-3.07 10.87s2.88 6.46 5.76 8.16c5.83 3.5 21.79.55 17.26 8.78-4.54 8.38-1.42 16.89 7.2 17.51 6.88.24 19.8-9.37 17.88 1.86-2 10.44 6.39 13.34 14.52 12.18 9.7-1.3 18.62-7.46 28.79-8.55 9.47-1 15.73 5.47 19 4.81 1.58-.32 5.25-1.47 7.58-2.14 1.25-3.39-7.26-15.23-8.39-24.18zM461.22 32.8c57.93 1.32 95.67 61.26 95.67 61.26l-4.13 1.56S517 42.85 461.22 32.8zM559 93.88a1.35 1.35 0 0 1-.75.82c4.09-1.7 3.1-1.51.75-.82z"/><path class="cls-1" d="M785.71 157.3l-19.79 20.15-14.83-16.81c-137-152.56-277.4-19.32-263.71-28.48C590 63.47 681.78 109.62 730 158.85l25.81 27.74-19.5 19.57H756l48.92-48.86zM255.83 207.18c-17.6 0-35.65-7.13-35.65-25.83s18-25.83 35.65-25.83 35.65 7.21 35.65 25.83-17.82 25.83-35.65 25.83zm0-41.54c-13 0-21.24 5.75-21.24 15.71s8.29 15.72 21.24 15.72 21.1-5.68 21.1-15.72-8.29-15.71-21.1-15.71z"/><path class="cls-1" d="M255.83 207.18c-17.6 0-35.65-7.13-35.65-25.83s18-25.83 35.65-25.83 35.65 7.21 35.65 25.83-17.82 25.83-35.65 25.83zm0-41.54c-13 0-21.24 5.75-21.24 15.71s8.29 15.72 21.24 15.72 21.1-5.68 21.1-15.72-8.29-15.71-21.1-15.71z"/></symbol><symbol id="icon-Management Accounts" viewBox="0 0 153.226 135.069"><g data-name="11"><g data-name="Group 52" fill="none" stroke="#cbb149" stroke-linecap="round" stroke-linejoin="round" stroke-width="2"><g data-name="Group 49"><path data-name="Path 253" d="M57.639 26.669H20.921v95.577a4.2 4.2 0 0 0 4.2 4.2h93.437"/><path data-name="Path 254" d="M151.168 107.099V39.738"/><path data-name="Path 255" d="M57.653 26.662V39.74h93.515"/><path data-name="Path 256" d="M151.168 54.072H57.653V67.15h-29.85"/></g><g data-name="Group 50"><path data-name="Path 257" d="M12.323 100.793H5.2a4.2 4.2 0 0 1-4.2-4.2V1.018h36.718"/><path data-name="Path 258" d="M131.247 31.141V14.087"/><path data-name="Path 259" d="M37.725 1v13.078h93.515"/><path data-name="Line 44" d="M9.457 41.488H1.001"/><path data-name="Line 45" d="M131.247 28.418H69.106"/></g><g data-name="Group 51" transform="translate(81.278 63.13)"><circle data-name="Ellipse 1" cx="25.732" cy="25.732" r="25.732"/><path data-name="Path 260" d="M8.701 25.732a17.031 17.031 0 0 1 17.03-17.029"/><path data-name="Path 261" d="M48.674 37.378l19.992 19.994a7.805 7.805 0 0 1 0 11.032l-.268.267a7.78 7.78 0 0 1-11.011-.022L37.416 48.672"/></g></g></g></symbol><symbol id="icon-patreon" viewBox="0 0 512 512"><path d="M489.6 200.2c0 92.5-75.2 167.7-167.7 167.7-92.7 0-168.2-75.2-168.2-167.7 0-92.7 75.5-168.2 168.2-168.2 92.5 0 167.7 75.4 167.7 168.2zM22.4 480h82.1V32H22.4v448z" class="st1"/></symbol><symbol id="icon-pinterest-p" viewBox="0 0 384 512"><path d="M204 6.5C101.4 6.5 0 74.9 0 185.6 0 256 39.6 296 63.6 296c9.9 0 15.6-27.6 15.6-35.4 0-9.3-23.7-29.1-23.7-67.8 0-80.4 61.2-137.4 140.4-137.4 68.1 0 118.5 38.7 118.5 109.8 0 53.1-21.3 152.7-90.3 152.7-24.9 0-46.2-18-46.2-43.8 0-37.8 26.4-74.4 26.4-113.4 0-66.2-93.9-54.2-93.9 25.8 0 16.8 2.1 35.4 9.6 50.7-13.8 59.4-42 147.9-42 209.1 0 18.9 2.7 37.5 4.5 56.4 3.4 3.8 1.7 3.4 6.9 1.5 50.4-69 48.6-82.5 71.4-172.8 12.3 23.4 44.1 36 69.3 36 106.2 0 153.9-103.5 153.9-196.8C384 71.3 298.2 6.5 204 6.5z"/></symbol><symbol id="icon-pinterest-square" viewBox="0 0 448 512"><path d="M448 80v352c0 26.5-21.5 48-48 48H154.4c9.8-16.4 22.4-40 27.4-59.3 3-11.5 15.3-58.4 15.3-58.4 8 15.3 31.4 28.2 56.3 28.2 74.1 0 127.4-68.1 127.4-152.7 0-81.1-66.2-141.8-151.4-141.8-106 0-162.2 71.1-162.2 148.6 0 36 19.2 80.8 49.8 95.1 4.7 2.2 7.1 1.2 8.2-3.3.8-3.4 5-20.1 6.8-27.8.6-2.5.3-4.6-1.7-7-10.1-12.3-18.3-34.9-18.3-56 0-54.2 41-106.6 110.9-106.6 60.3 0 102.6 41.1 102.6 99.9 0 66.4-33.5 112.4-77.2 112.4-24.1 0-42.1-19.9-36.4-44.4 6.9-29.2 20.3-60.7 20.3-81.8 0-53-75.5-45.7-75.5 25 0 21.7 7.3 36.5 7.3 36.5-31.4 132.8-36.1 134.5-29.6 192.6l2.2.8H48c-26.5 0-48-21.5-48-48V80c0-26.5 21.5-48 48-48h352c26.5 0 48 21.5 48 48z"/></symbol><symbol id="icon-pinterest" viewBox="0 0 496 512"><path d="M496 256c0 137-111 248-248 248-25.6 0-50.2-3.9-73.4-11.1 10.1-16.5 25.2-43.5 30.8-65 3-11.6 15.4-59 15.4-59 8.1 15.4 31.7 28.5 56.8 28.5 74.8 0 128.7-68.8 128.7-154.3 0-81.9-66.9-143.2-152.9-143.2-107 0-163.9 71.8-163.9 150.1 0 36.4 19.4 81.7 50.3 96.1 4.7 2.2 7.2 1.2 8.3-3.3.8-3.4 5-20.3 6.9-28.1.6-2.5.3-4.7-1.7-7.1-10.1-12.5-18.3-35.3-18.3-56.6 0-54.7 41.4-107.6 112-107.6 60.9 0 103.6 41.5 103.6 100.9 0 67.1-33.9 113.6-78 113.6-24.3 0-42.6-20.1-36.7-44.8 7-29.5 20.5-61.3 20.5-82.6 0-19-10.2-34.9-31.4-34.9-24.9 0-44.9 25.7-44.9 60.2 0 22 7.4 36.8 7.4 36.8s-24.5 103.8-29 123.2c-5 21.4-3 51.6-.9 71.2C65.4 450.9 0 361.1 0 256 0 119 111 8 248 8s248 111 248 248z"/></symbol><symbol id="icon-post-aside" viewBox="0 0 36 36"><path fill="#d37a28" d="M0 0h36v36H0z"/><path fill="#fff" d="M6 6h24v3H6zM6 13h18v3H6zM6 20h24v3H6zM6 27h12v3H6z"/></symbol><symbol id="icon-post-quote" viewBox="0 0 36 36"><path fill="#d37a28" d="M0 0h36v36H0z"/><path fill="#fff" d="M6 6h24v3H6zM6 13h18v3H6zM6 20h24v3H6zM6 27h12v3H6z"/></symbol><symbol id="icon-post-video" viewBox="0 0 36 36"><path fill="#d37a28" d="M0 0h36v36H0z"/><path fill="#fff" d="M6 6h24v3H6zM6 13h18v3H6zM6 20h24v3H6zM6 27h12v3H6z"/></symbol><symbol id="icon-post" viewBox="0 0 36 36"><path fill="#d37a28" d="M0 0h36v36H0z"/><path fill="#fff" d="M6 6h24v3H6zM6 13h18v3H6zM6 20h24v3H6zM6 27h12v3H6z"/></symbol><symbol id="icon-product-service-costing" viewBox="0 0 101.919 136.891"><g data-name="19"><g data-name="Group 53" transform="translate(1 1)" fill="none" stroke="#cbb149" stroke-linecap="round" stroke-linejoin="round" stroke-width="2"><rect data-name="Rectangle 627" width="99.919" height="134.891" rx="16.675"/><path data-name="Rectangle 628" d="M12.073 9.785h75.774v28.727H12.073z"/><path data-name="Rectangle 629" d="M12.073 48.086h12.073V60.16H12.073z"/><path data-name="Rectangle 630" d="M33.306 48.086h12.073V60.16H33.306z"/><path data-name="Rectangle 631" d="M54.539 48.086h12.075V60.16H54.539z"/><path data-name="Rectangle 632" d="M75.771 48.086h12.075V60.16H75.771z"/><path data-name="Rectangle 633" d="M12.073 69.944h12.073v12.074H12.073z"/><path data-name="Rectangle 634" d="M33.306 69.944h12.073v12.074H33.306z"/><path data-name="Rectangle 635" d="M54.539 69.944h12.075v12.074H54.539z"/><path data-name="Rectangle 636" d="M75.771 69.944h12.075v12.074H75.771z"/><path data-name="Rectangle 637" d="M12.073 91.801h12.073v12.074H12.073z"/><path data-name="Rectangle 638" d="M33.306 91.801h12.073v12.074H33.306z"/><path data-name="Rectangle 639" d="M54.539 91.801h12.075v12.074H54.539z"/><path data-name="Rectangle 640" d="M12.073 113.658h12.073v12.074H12.073z"/><path data-name="Rectangle 641" d="M33.306 113.658h12.073v12.074H33.306z"/><path data-name="Rectangle 642" d="M54.539 113.658h12.075v12.074H54.539z"/><path data-name="Rectangle 643" d="M75.771 91.801h12.075v33.931H75.771z"/></g></g></symbol><symbol id="icon-quote-left" viewBox="0 0 512 512"><path d="M0 432V304C0 166.982 63.772 67.676 193.827 32.828 209.052 28.748 224 40.265 224 56.027v33.895c0 10.057-6.228 19.133-15.687 22.55C142.316 136.312 104 181.946 104 256h72c26.51 0 48 21.49 48 48v128c0 26.51-21.49 48-48 48H48c-26.51 0-48-21.49-48-48zm336 48h128c26.51 0 48-21.49 48-48V304c0-26.51-21.49-48-48-48h-72c0-74.054 38.316-119.688 104.313-143.528C505.772 109.055 512 99.979 512 89.922V56.027c0-15.762-14.948-27.279-30.173-23.199C351.772 67.676 288 166.982 288 304v128c0 26.51 21.49 48 48 48z"/></symbol><symbol id="icon-Self Assessments and tax returns" viewBox="0 0 163.861 162.115"><g data-name="20"><g data-name="Group 39" fill="none" stroke="#cbb149" stroke-linecap="round" stroke-linejoin="round" stroke-width="2"><path data-name="Line 6" d="M116.375 61.332v-4.771"/><g data-name="Group 37"><path data-name="Path 212" d="M46.312 56.561H6.244A5.244 5.244 0 0 1 1 51.317V21.373a5.274 5.274 0 0 1 5.274-5.274h109.745a5.994 5.994 0 0 1 5.994 5.994v29.189a5.274 5.274 0 0 1-5.273 5.274H76.671"/><path data-name="Path 213" d="M6.244 56.561v35.211a5.232 5.232 0 0 0 5.245 5.245h77.678"/><path data-name="Rectangle 606" d="M46.327 47.583h30.341v16.859H46.327z"/><path data-name="Path 214" d="M33.845 16.105v-3.118A11.988 11.988 0 0 1 45.832 1H77.18a11.988 11.988 0 0 1 11.988 11.987v3.118"/></g><g data-name="Group 38"><path data-name="Path 215" d="M141.064 120.784c24.121 4.172 21.755 17.023 21.755 40.325"/><path data-name="Path 216" d="M95.049 120.791c-24.12 4.176-21.755 17.027-21.752 40.328"/><path data-name="Path 217" d="M98.601 96.924c.364 12.455 6.9 22.345 19.522 22.345 12.981 0 19.587-10.482 19.587-23.463"/><path data-name="Line 7" d="M98.569 97.085v-.162"/><path data-name="Path 218" d="M118.062 160.878l.075.237 11.408-45.144 11.5 4.578v10.716l-4.93 5.605 4.93 7.4-22.912 16.848-.075-.068-.081.068-22.908-16.845 4.926-7.4-4.929-5.6v-10.717l11.5-4.582 11.412 45.144z"/><path data-name="Line 8" d="M150.767 123.507v15.035"/><path data-name="Line 9" d="M85.347 123.51v15.035"/></g><path data-name="Path 219" d="M114.469 69.184c-7.392 9.858-2.59 16.542-2.59 16.542-2.4 5.06-5.291 10.18-12.783 11.165a2.524 2.524 0 0 1-.494.032h-.032a2.4 2.4 0 0 1-1.58-.692 2.689 2.689 0 0 1-.819-2.07c1.021-18.7 11.9-25.271 21.888-25.271 10.021 0 21.755 7.49 22.118 25.9a.912.912 0 0 1-.263.624.887.887 0 0 1-.594.23c-9.171-.2-12.709 1.651-19.842-4.166-1.15-.952-6.382-4.7-7.6-5.751"/></g></g></symbol><symbol id="icon-spotify" viewBox="0 0 496 512"><path d="M248 8C111.1 8 0 119.1 0 256s111.1 248 248 248 248-111.1 248-248S384.9 8 248 8zm100.7 364.9c-4.2 0-6.8-1.3-10.7-3.6-62.4-37.6-135-39.2-206.7-24.5-3.9 1-9 2.6-11.9 2.6-9.7 0-15.8-7.7-15.8-15.8 0-10.3 6.1-15.2 13.6-16.8 81.9-18.1 165.6-16.5 237 26.2 6.1 3.9 9.7 7.4 9.7 16.5s-7.1 15.4-15.2 15.4zm26.9-65.6c-5.2 0-8.7-2.3-12.3-4.2-62.5-37-155.7-51.9-238.6-29.4-4.8 1.3-7.4 2.6-11.9 2.6-10.7 0-19.4-8.7-19.4-19.4s5.2-17.8 15.5-20.7c27.8-7.8 56.2-13.6 97.8-13.6 64.9 0 127.6 16.1 177 45.5 8.1 4.8 11.3 11 11.3 19.7-.1 10.8-8.5 19.5-19.4 19.5zm31-76.2c-5.2 0-8.4-1.3-12.9-3.9-71.2-42.5-198.5-52.7-280.9-29.7-3.6 1-8.1 2.6-12.9 2.6-13.2 0-23.3-10.3-23.3-23.6 0-13.6 8.4-21.3 17.4-23.9 35.2-10.3 74.6-15.2 117.5-15.2 73 0 149.5 15.2 205.4 47.8 7.8 4.5 12.9 10.7 12.9 22.6 0 13.6-11 23.3-23.2 23.3z"/></symbol><symbol id="icon-Tax Planning and Advice" viewBox="0 0 145.542 148.237"><g data-name="New Symbol"><g data-name="Group 46" transform="translate(1 1)" fill="none" stroke="#cbb149" stroke-linecap="round" stroke-linejoin="round" stroke-width="2"><path data-name="Path 238" d="M32.992 133.74H0V0h87.914v51.848"/><g data-name="Group 44"><path data-name="Path 239" d="M36.001 27.027a7.35 7.35 0 1 0-7.35 7.348 7.349 7.349 0 0 0 7.35-7.348z"/><path data-name="Path 240" d="M43.347 49.071a14.7 14.7 0 1 0-29.392 0"/><path data-name="Rectangle 607" d="M9.055 9.88h39.193v39.192H9.055z"/></g><path data-name="Line 14" d="M57.473 11.676h21.265"/><path data-name="Line 15" d="M57.473 24.141h21.265"/><path data-name="Line 16" d="M57.473 36.608h21.265"/><path data-name="Line 17" d="M57.473 49.072h21.265"/><path data-name="Line 18" d="M32.83 63.467H9.055"/><path data-name="Line 19" d="M32.83 76.214H9.055"/><path data-name="Line 20" d="M32.83 88.985H9.055"/><path data-name="Line 21" d="M32.83 101.757H9.055"/><path data-name="Line 22" d="M32.83 114.503H9.055"/><rect data-name="Rectangle 608" width="70.011" height="85.959" rx="12.222" transform="translate(41.116 60.277)"/><path data-name="Rectangle 609" d="M49.624 69.604h52.998v15.783H49.624z"/><path data-name="Rectangle 610" d="M49.624 94.22h7.849v7.852h-7.849z"/><path data-name="Rectangle 611" d="M94.77 94.22h7.852v7.852H94.77z"/><path data-name="Rectangle 612" d="M79.72 94.22h7.852v7.852H79.72z"/><path data-name="Rectangle 613" d="M64.671 94.22h7.852v7.852h-7.852z"/><path data-name="Rectangle 614" d="M49.624 111.174h7.849v7.852h-7.849z"/><path data-name="Rectangle 615" d="M94.77 111.174h7.852v7.852H94.77z"/><path data-name="Rectangle 616" d="M79.72 111.174h7.852v7.852H79.72z"/><path data-name="Rectangle 617" d="M64.671 111.174h7.852v7.852h-7.852z"/><path data-name="Rectangle 618" d="M49.624 128.129h7.849v7.851h-7.849z"/><path data-name="Rectangle 619" d="M94.77 128.129h7.852v7.851H94.77z"/><path data-name="Rectangle 620" d="M79.72 128.129h7.852v7.851H79.72z"/><path data-name="Rectangle 621" d="M64.671 128.129h7.852v7.851h-7.852z"/><g data-name="Group 45"><path data-name="Path 241" d="M134.323 15.48v92.079a6.07 6.07 0 1 1-12.1 0l-.005-92.079z"/><path data-name="Path 242" d="M128.86 23.878h14.681v26.954"/><path data-name="Line 23" d="M128.274 114.097v5.244"/><path data-name="Path 243" d="M125.241 15.48V5.235h6.051V15.48"/><path data-name="Line 24" d="M122.218 100.812h12.104"/></g></g></g></symbol><symbol id="icon-training-mentoring" viewBox="0 0 200.94 116.941"><g data-name="8"><g data-name="Group 59" fill="none" stroke="#cbb149" stroke-linecap="round" stroke-linejoin="round" stroke-width="2"><path data-name="Path 265" d="M19.397 89.406V7.4a6.4 6.4 0 0 1 6.4-6.4h149.345a6.4 6.4 0 0 1 6.4 6.4v82.006"/><path data-name="Path 266" d="M72.2 98.055v5.6h56.543v-5.6h71.2l-7.838 10.291a19.2 19.2 0 0 1-15.272 7.568l-152.706.027a19.2 19.2 0 0 1-15.287-7.58L1 98.055z"/><g data-name="Group 58"><path data-name="Path 267" d="M38.423 13.306v69.572h132.568"/><path data-name="Path 268" d="M162.674 74.892l7.982 7.985-7.982 7.979"/><path data-name="Path 269" d="M30.444 21.288l7.978-7.982 7.986 7.982"/></g><path data-name="Path 270" d="M56.125 74.893v-26.8h19.2v26.8"/><path data-name="Path 271" d="M89.893 74.893v-42.8h19.2v42.8"/><path data-name="Path 272" d="M123.664 74.893v-58.8h19.2v58.8"/></g></g></symbol><symbol id="icon-tumblr-square" viewBox="0 0 448 512"><path d="M400 32H48C21.5 32 0 53.5 0 80v352c0 26.5 21.5 48 48 48h352c26.5 0 48-21.5 48-48V80c0-26.5-21.5-48-48-48zm-82.3 364.2c-8.5 9.1-31.2 19.8-60.9 19.8-75.5 0-91.9-55.5-91.9-87.9v-90h-29.7c-3.4 0-6.2-2.8-6.2-6.2v-42.5c0-4.5 2.8-8.5 7.1-10 38.8-13.7 50.9-47.5 52.7-73.2.5-6.9 4.1-10.2 10-10.2h44.3c3.4 0 6.2 2.8 6.2 6.2v72h51.9c3.4 0 6.2 2.8 6.2 6.2v51.1c0 3.4-2.8 6.2-6.2 6.2h-52.1V321c0 21.4 14.8 33.5 42.5 22.4 3-1.2 5.6-2 8-1.4 2.2.5 3.6 2.1 4.6 4.9l13.8 40.2c1 3.2 2 6.7-.3 9.1z"/></symbol><symbol id="icon-tumblr" viewBox="0 0 320 512"><path d="M309.8 480.3c-13.6 14.5-50 31.7-97.4 31.7-120.8 0-147-88.8-147-140.6v-144H17.9c-5.5 0-10-4.5-10-10v-68c0-7.2 4.5-13.6 11.3-16 62-21.8 81.5-76 84.3-117.1.8-11 6.5-16.3 16.1-16.3h70.9c5.5 0 10 4.5 10 10v115.2h83c5.5 0 10 4.4 10 9.9v81.7c0 5.5-4.5 10-10 10h-83.4V360c0 34.2 23.7 53.6 68 35.8 4.8-1.9 9-3.2 12.7-2.2 3.5.9 5.8 3.4 7.4 7.9l22 64.3c1.8 5 3.3 10.6-.4 14.5z"/></symbol><symbol id="icon-twitter-square" viewBox="0 0 448 512"><path d="M400 32H48C21.5 32 0 53.5 0 80v352c0 26.5 21.5 48 48 48h352c26.5 0 48-21.5 48-48V80c0-26.5-21.5-48-48-48zm-48.9 158.8c.2 2.8.2 5.7.2 8.5 0 86.7-66 186.6-186.6 186.6-37.2 0-71.7-10.8-100.7-29.4 5.3.6 10.4.8 15.8.8 30.7 0 58.9-10.4 81.4-28-28.8-.6-53-19.5-61.3-45.5 10.1 1.5 19.2 1.5 29.6-1.2-30-6.1-52.5-32.5-52.5-64.4v-.8c8.7 4.9 18.9 7.9 29.6 8.3a65.447 65.447 0 0 1-29.2-54.6c0-12.2 3.2-23.4 8.9-33.1 32.3 39.8 80.8 65.8 135.2 68.6-9.3-44.5 24-80.6 64-80.6 18.9 0 35.9 7.9 47.9 20.7 14.8-2.8 29-8.3 41.6-15.8-4.9 15.2-15.2 28-28.8 36.1 13.2-1.4 26-5.1 37.8-10.2-8.9 13.1-20.1 24.7-32.9 34z"/></symbol><symbol id="icon-twitter" viewBox="0 0 512 512"><path d="M459.37 151.716c.325 4.548.325 9.097.325 13.645 0 138.72-105.583 298.558-298.558 298.558-59.452 0-114.68-17.219-161.137-47.106 8.447.974 16.568 1.299 25.34 1.299 49.055 0 94.213-16.568 130.274-44.832-46.132-.975-84.792-31.188-98.112-72.772 6.498.974 12.995 1.624 19.818 1.624 9.421 0 18.843-1.3 27.614-3.573-48.081-9.747-84.143-51.98-84.143-102.985v-1.299c13.969 7.797 30.214 12.67 47.431 13.319-28.264-18.843-46.781-51.005-46.781-87.391 0-19.492 5.197-37.36 14.294-52.954 51.655 63.675 129.3 105.258 216.365 109.807-1.624-7.797-2.599-15.918-2.599-24.04 0-57.828 46.782-104.934 104.934-104.934 30.213 0 57.502 12.67 76.67 33.137 23.715-4.548 46.456-13.32 66.599-25.34-7.798 24.366-24.366 44.833-46.132 57.827 21.117-2.273 41.584-8.122 60.426-16.243-14.292 20.791-32.161 39.308-52.628 54.253z"/></symbol><symbol id="icon-vimeo-square" viewBox="0 0 448 512"><path d="M400 32H48C21.5 32 0 53.5 0 80v352c0 26.5 21.5 48 48 48h352c26.5 0 48-21.5 48-48V80c0-26.5-21.5-48-48-48zm-16.2 149.6c-1.4 31.1-23.2 73.8-65.3 127.9-43.5 56.5-80.3 84.8-110.4 84.8-18.7 0-34.4-17.2-47.3-51.6-25.2-92.3-35.9-146.4-56.7-146.4-2.4 0-10.8 5-25.1 15.1L64 192c36.9-32.4 72.1-68.4 94.1-70.4 24.9-2.4 40.2 14.6 46 51.1 20.5 129.6 29.6 149.2 66.8 90.5 13.4-21.2 20.6-37.2 21.5-48.3 3.4-32.8-25.6-30.6-45.2-22.2 15.7-51.5 45.8-76.5 90.1-75.1 32.9 1 48.4 22.4 46.5 64z"/></symbol><symbol id="icon-vimeo-v" viewBox="0 0 448 512"><path d="M447.8 153.6c-2 43.6-32.4 103.3-91.4 179.1-60.9 79.2-112.4 118.8-154.6 118.8-26.1 0-48.2-24.1-66.3-72.3C100.3 250 85.3 174.3 56.2 174.3c-3.4 0-15.1 7.1-35.2 21.1L0 168.2c51.6-45.3 100.9-95.7 131.8-98.5 34.9-3.4 56.3 20.5 64.4 71.5 28.7 181.5 41.4 208.9 93.6 126.7 18.7-29.6 28.8-52.1 30.2-67.6 4.8-45.9-35.8-42.8-63.3-31 22-72.1 64.1-107.1 126.2-105.1 45.8 1.2 67.5 31.1 64.9 89.4z"/></symbol><symbol id="icon-vimeo" viewBox="0 0 448 512"><path d="M403.2 32H44.8C20.1 32 0 52.1 0 76.8v358.4C0 459.9 20.1 480 44.8 480h358.4c24.7 0 44.8-20.1 44.8-44.8V76.8c0-24.7-20.1-44.8-44.8-44.8zM377 180.8c-1.4 31.5-23.4 74.7-66 129.4-44 57.2-81.3 85.8-111.7 85.8-18.9 0-34.8-17.4-47.9-52.3-25.5-93.3-36.4-148-57.4-148-2.4 0-10.9 5.1-25.4 15.2l-15.2-19.6c37.3-32.8 72.9-69.2 95.2-71.2 25.2-2.4 40.7 14.8 46.5 51.7 20.7 131.2 29.9 151 67.6 91.6 13.5-21.4 20.8-37.7 21.8-48.9 3.5-33.2-25.9-30.9-45.8-22.4 15.9-52.1 46.3-77.4 91.2-76 33.3.9 49 22.5 47.1 64.7z"/></symbol><symbol id="icon-wordpress-simple" viewBox="0 0 512 512"><path d="M256 8C119.3 8 8 119.2 8 256c0 136.7 111.3 248 248 248s248-111.3 248-248C504 119.2 392.7 8 256 8zM33 256c0-32.3 6.9-63 19.3-90.7l106.4 291.4C84.3 420.5 33 344.2 33 256zm223 223c-21.9 0-43-3.2-63-9.1l66.9-194.4 68.5 187.8c.5 1.1 1 2.1 1.6 3.1-23.1 8.1-48 12.6-74 12.6zm30.7-327.5c13.4-.7 25.5-2.1 25.5-2.1 12-1.4 10.6-19.1-1.4-18.4 0 0-36.1 2.8-59.4 2.8-21.9 0-58.7-2.8-58.7-2.8-12-.7-13.4 17.7-1.4 18.4 0 0 11.4 1.4 23.4 2.1l34.7 95.2L200.6 393l-81.2-241.5c13.4-.7 25.5-2.1 25.5-2.1 12-1.4 10.6-19.1-1.4-18.4 0 0-36.1 2.8-59.4 2.8-4.2 0-9.1-.1-14.4-.3C109.6 73 178.1 33 256 33c58 0 110.9 22.2 150.6 58.5-1-.1-1.9-.2-2.9-.2-21.9 0-37.4 19.1-37.4 39.6 0 18.4 10.6 33.9 21.9 52.3 8.5 14.8 18.4 33.9 18.4 61.5 0 19.1-7.3 41.2-17 72.1l-22.2 74.3-80.7-239.6zm81.4 297.2l68.1-196.9c12.7-31.8 17-57.2 17-79.9 0-8.2-.5-15.8-1.5-22.9 17.4 31.8 27.3 68.2 27.3 107 0 82.3-44.6 154.1-110.9 192.7z"/></symbol><symbol id="icon-wordpress" viewBox="0 0 512 512"><path d="M61.7 169.4l101.5 278C92.2 413 43.3 340.2 43.3 256c0-30.9 6.6-60.1 18.4-86.6zm337.9 75.9c0-26.3-9.4-44.5-17.5-58.7-10.8-17.5-20.9-32.4-20.9-49.9 0-19.6 14.8-37.8 35.7-37.8.9 0 1.8.1 2.8.2-37.9-34.7-88.3-55.9-143.7-55.9-74.3 0-139.7 38.1-177.8 95.9 5 .2 9.7.3 13.7.3 22.2 0 56.7-2.7 56.7-2.7 11.5-.7 12.8 16.2 1.4 17.5 0 0-11.5 1.3-24.3 2l77.5 230.4L249.8 247l-33.1-90.8c-11.5-.7-22.3-2-22.3-2-11.5-.7-10.1-18.2 1.3-17.5 0 0 35.1 2.7 56 2.7 22.2 0 56.7-2.7 56.7-2.7 11.5-.7 12.8 16.2 1.4 17.5 0 0-11.5 1.3-24.3 2l76.9 228.7 21.2-70.9c9-29.4 16-50.5 16-68.7zm-139.9 29.3l-63.8 185.5c19.1 5.6 39.2 8.7 60.1 8.7 24.8 0 48.5-4.3 70.6-12.1-.6-.9-1.1-1.9-1.5-2.9l-65.4-179.2zm183-120.7c.9 6.8 1.4 14 1.4 21.9 0 21.6-4 45.8-16.2 76.2l-65 187.9C426.2 403 468.7 334.5 468.7 256c0-37-9.4-71.8-26-102.1zM504 256c0 136.8-111.3 248-248 248C119.2 504 8 392.7 8 256 8 119.2 119.2 8 256 8c136.7 0 248 111.2 248 248zm-11.4 0c0-130.5-106.2-236.6-236.6-236.6C125.5 19.4 19.4 125.5 19.4 256S125.6 492.6 256 492.6c130.5 0 236.6-106.1 236.6-236.6z"/></symbol><symbol id="icon-youtube" viewBox="0 0 576 512"><path d="M549.655 124.083c-6.281-23.65-24.787-42.276-48.284-48.597C458.781 64 288 64 288 64S117.22 64 74.629 75.486c-23.497 6.322-42.003 24.947-48.284 48.597-11.412 42.867-11.412 132.305-11.412 132.305s0 89.438 11.412 132.305c6.281 23.65 24.787 41.5 48.284 47.821C117.22 448 288 448 288 448s170.78 0 213.371-11.486c23.497-6.321 42.003-24.171 48.284-47.821 11.412-42.867 11.412-132.305 11.412-132.305s0-89.438-11.412-132.305zm-317.51 213.508V175.185l142.739 81.205-142.739 81.201z"/></symbol></svg>