<?xml version="1.0" encoding="UTF-8"?><!DOCTYPE svg PUBLIC "-//W3C//DTD SVG 1.1//EN" "http://www.w3.org/Graphics/SVG/1.1/DTD/svg11.dtd"><svg xmlns="http://www.w3.org/2000/svg"><symbol id="24hrs-bg" viewBox="0 0 585 248"><path fill="#848C91" d="M96 77.2c7.9 5.9 11.9 14.2 11.9 24.7 0 7.2-2.1 13.9-6.2 20.1-4.1 6.2-9 11.6-14.7 16.4-5.6 4.8-13.4 10.7-23.3 17.7C51 165 42.1 172 37 177.3h57.2c4.8 0 8.3-.4 10.7-1.1 2.4-.7 4-1.9 4.9-3.4.9-1.6 1.6-4.1 2.1-7.4h5.6c0 20.8.4 35.7 1.1 44.7-3.9-.9-17-1.3-39.4-1.3H2v-5c2.3-2.5 6.8-6.7 13.5-12.7 10.2-9.3 18.7-17.7 25.5-25 6.8-7.3 12.7-15.8 17.7-25.4 5-9.6 7.5-19.6 7.5-30 0-9.3-2.1-16.2-6.2-20.5-4.1-4.3-10.3-6.5-18.4-6.5-7.4 0-14 1.7-19.7 5.2-5.7 3.4-11 8.5-15.7 15.2l-4.5-2.6c13.1-22.1 33.7-33.1 61.9-33.1 13.7-.1 24.4 2.8 32.4 8.8zM245 199.3v46.8h-30.7v-46.8H142v-5.6l98.7-125.5h4.2V172h2.1c4.8 0 8.3-.4 10.7-1.1 2.4-.7 4-1.9 4.9-3.4.9-1.6 1.6-4.1 2.1-7.4h5.6c0 18.7.4 32.2 1.1 40.5-2.1-.5-10.9-.9-26.4-1.3zM214.3 172v-61.7L166.4 172h47.9zM350.3 92.9c7.9-16.4 22.3-24.6 43.1-24.6 13.8 0 23.5 3.4 29.1 10.3 3 3.4 5.2 7.7 6.5 13.1 1.3 5.4 2 12.5 2 21.3v71.2c0 7.2 1.2 12.2 3.7 15 2.5 2.7 6.9 4.1 13.2 4.1v5.6c-18.4-.7-30-1.1-34.9-1.1-6 0-17.5.4-34.4 1.1v-5.6c5.3 0 9-1.4 11.1-4.1 2.1-2.7 3.2-7.7 3.2-15v-82.3c0-7.2-1.2-12.7-3.6-16.4s-6.7-5.6-12.8-5.6c-7.4 0-13.6 2.9-18.7 8.6-5 5.7-7.5 13-7.5 21.8v73.8c0 7.2 1.1 12.2 3.2 15 2.1 2.7 5.8 4.1 11.1 4.1v5.6c-16.9-.7-27.9-1.1-32.8-1.1-6 0-18.2.4-36.5 1.1v-5.6c6.2 0 10.5-1.4 13.1-4.1 2.6-2.7 3.8-7.7 3.8-15V33.6c0-8.1-1.3-14-3.8-17.7-2.6-3.7-6.9-5.6-13.1-5.6V4.8c5.6.5 11.1.8 16.4.8 15.4 0 28.2-1.2 38.6-3.7v91zM577.2 75.4c4.1 4.8 6.1 10.5 6.1 17.2 0 6.5-1.9 11.9-5.7 16-3.8 4.1-8.8 6.2-15 6.2-6 0-10.8-1.5-14.3-4.6-3.5-3.1-5.3-7.2-5.3-12.3 0-8.5 3.9-15.4 11.6-20.6-.7-.2-1.8-.3-3.2-.3-1.8 0-3.2.2-4.2.5-6.7 1.1-12.4 5.1-17.1 12.2-4.7 7.1-7 14.3-7 21.7v70.1c0 8.1 2 13.8 6 16.9 4 3.2 10.3 4.8 18.9 4.8v5.6c-2.5 0-4.5-.1-6.1-.3-18-.5-30-.8-36-.8-4.8 0-15.6.3-32.6.8-1.4.2-3.2.3-5.3.3v-5.6c6.4 0 10.8-1.4 13.2-4.1 2.5-2.7 3.7-7.7 3.7-15v-83.4c0-8.1-1.2-14-3.7-17.7-2.5-3.7-6.9-5.6-13.2-5.6V72c5.6.5 11.1.8 16.4.8 15.7 0 28.6-1.2 38.6-3.7v24.6c3.4-7.6 8.2-13.7 14.6-18.4 6.4-4.7 13.5-7 21.4-7 8.1 0 14.1 2.4 18.2 7.1z"/></symbol><symbol id="post-aside" viewBox="0 0 36 36"><path fill="#d37a28" d="M0 0h36v36H0z"/><path fill="#fff" d="M6 6h24v3H6zM6 13h18v3H6zM6 20h24v3H6zM6 27h12v3H6z"/></symbol><symbol id="post-quote" viewBox="0 0 36 36"><path fill="#d37a28" d="M0 0h36v36H0z"/><path fill="#fff" d="M6 6h24v3H6zM6 13h18v3H6zM6 20h24v3H6zM6 27h12v3H6z"/></symbol><symbol id="post-video" viewBox="0 0 36 36"><path fill="#d37a28" d="M0 0h36v36H0z"/><path fill="#fff" d="M6 6h24v3H6zM6 13h18v3H6zM6 20h24v3H6zM6 27h12v3H6z"/></symbol><symbol id="post" viewBox="0 0 36 36"><path fill="#d37a28" d="M0 0h36v36H0z"/><path fill="#fff" d="M6 6h24v3H6zM6 13h18v3H6zM6 20h24v3H6zM6 27h12v3H6z"/></symbol></svg>