<?xml version="1.0" encoding="UTF-8"?><!DOCTYPE svg PUBLIC "-//W3C//DTD SVG 1.1//EN" "http://www.w3.org/Graphics/SVG/1.1/DTD/svg11.dtd"><svg xmlns="http://www.w3.org/2000/svg"><symbol id="flourish-leaf-light" viewBox="0 0 29 32"><path d="M22.6 11.6c-2.9-.2-4 2.8-4.3 2.8-.4 0-.1-2.5-1.5-6 1.1-1.9 1.4-4.3 1.4-4.3l-1.3-.9c.1 1.1-.2 2.5-.7 3.8-1.9-3.7-4.9-5.1-7.4-5.1-2.7.1-3.9 2.2-3.9 2.2S4.3 3 3.8 2.2c-.4-.9-2.2-.2-1.8.7.4 1 2.8 5.6 3.2 6 .3.3 1.5 0 1.5-.4-.1-.4-.3-2.9 1.3-3.7.7-.3 1.8-.4 3-.1-1.6 2.1-.7 5.9 2.6 5.8.9 0 1.6-.4 2.2-1.1 1 2.5 1.2 5 .7 5-.6.1-1.5-1.5-3.3-1.8-1.8-.3-4.9.8-4.6 4.3.3 3.6 5.5 4.9 6.7 6.5 1.1 1.6-.6 4-2.9 4.1-2.3.1-4.6-1.8-5.2-2.3-.6-.5-2 .1-1.1 1.2.9 1.1 3.5 3.6 9 3.7 5.5.1 10.2-5.3 11.5-10.2 1.4-4.8-1.1-8.2-4-8.3zm-8.3-2.3c-1.7 1-3.2-1.1-2.1-2.3.7-.8 1.7-.5 2.2-.3.3.3.5.6.7 1l.3.6c-.3.4-.7.7-1.1 1z" fill="#c4c6c7"/></symbol><symbol id="flourish-leaf" viewBox="0 0 29 32"><path d="M22.6 11.6c-2.9-.2-4 2.8-4.3 2.8-.4 0-.1-2.5-1.5-6 1.1-1.9 1.4-4.3 1.4-4.3l-1.3-.9c.1 1.1-.2 2.5-.7 3.8-1.9-3.7-4.9-5.1-7.4-5.1-2.7.1-3.9 2.2-3.9 2.2S4.3 3 3.8 2.2c-.4-.9-2.2-.2-1.8.7.4 1 2.8 5.6 3.2 6 .3.3 1.5 0 1.5-.4-.1-.4-.3-2.9 1.3-3.7.7-.3 1.8-.4 3-.1-1.6 2.1-.7 5.9 2.6 5.8.9 0 1.6-.4 2.2-1.1 1 2.5 1.2 5 .7 5-.6.1-1.5-1.5-3.3-1.8-1.8-.3-4.9.8-4.6 4.3.3 3.6 5.5 4.9 6.7 6.5 1.1 1.6-.6 4-2.9 4.1-2.3.1-4.6-1.8-5.2-2.3-.6-.5-2 .1-1.1 1.2.9 1.1 3.5 3.6 9 3.7 5.5.1 10.2-5.3 11.5-10.2 1.4-4.8-1.1-8.2-4-8.3zm-8.3-2.3c-1.7 1-3.2-1.1-2.1-2.3.7-.8 1.7-.5 2.2-.3.3.3.5.6.7 1l.3.6c-.3.4-.7.7-1.1 1z"/></symbol><symbol id="plus--white" viewBox="0 0 32 32"><path fill="#fff" d="M31 12H20V1a1 1 0 0 0-1-1h-6a1 1 0 0 0-1 1v11H1a1 1 0 0 0-1 1v6a1 1 0 0 0 1 1h11v11a1 1 0 0 0 1 1h6a1 1 0 0 0 1-1V20h11a1 1 0 0 0 1-1v-6a1 1 0 0 0-1-1z"/></symbol><symbol id="post-aside" viewBox="0 0 36 36"><path fill="#d37a28" d="M0 0h36v36H0z"/><path fill="#fff" d="M6 6h24v3H6zM6 13h18v3H6zM6 20h24v3H6zM6 27h12v3H6z"/></symbol><symbol id="post-quote" viewBox="0 0 36 36"><path fill="#d37a28" d="M0 0h36v36H0z"/><path fill="#fff" d="M6 6h24v3H6zM6 13h18v3H6zM6 20h24v3H6zM6 27h12v3H6z"/></symbol><symbol id="post" viewBox="0 0 36 36"><path fill="#d37a28" d="M0 0h36v36H0z"/><path fill="#fff" d="M6 6h24v3H6zM6 13h18v3H6zM6 20h24v3H6zM6 27h12v3H6z"/></symbol><symbol id="thomas-vaughan-bathrooms-logo" viewBox="0 0 1273 225"><g fill="#cec045"><path d="M215.5 44.3v64.1c7.1-7.8 12.7-12.8 16.8-15 4.1-2.2 8.3-3.3 12.4-3.3 5 0 9.3 1.4 12.8 4.1 3.6 2.7 6.2 7.1 7.9 12.9 1.2 4.1 1.8 11.5 1.8 22.4v31c0 5.6.4 9.3 1.3 11.4.6 1.5 1.7 2.7 3.3 3.6 1.5.9 4.3 1.3 8.4 1.3v3.4h-43.1v-3.4h2c4.1 0 6.9-.6 8.5-1.9 1.6-1.2 2.7-3.1 3.3-5.5.2-1 .3-4 .3-9v-31c0-9.6-.5-15.9-1.5-18.9-1-3-2.6-5.2-4.7-6.7-2.2-1.5-4.8-2.2-7.8-2.2-3.1 0-6.4.8-9.8 2.5-3.4 1.7-7.4 5-12.2 10v46.3c0 6 .3 9.7 1 11.2s1.9 2.7 3.7 3.7c1.8 1 5 1.5 9.4 1.5v3.4h-43.4v-3.4c3.9 0 7-.6 9.2-1.8 1.3-.6 2.3-1.8 3.1-3.6.8-1.8 1.1-5.4 1.1-10.9V81.2c0-10-.2-16.2-.7-18.5s-1.2-3.9-2.2-4.7c-1-.8-2.3-1.2-4-1.2-1.3 0-3.5.5-6.5 1.5l-1.3-3.3 26.2-10.7h4.7zM322.4 90.1c13.3 0 23.9 5 32 15.1 6.8 8.6 10.2 18.5 10.2 29.7 0 7.8-1.9 15.8-5.6 23.8-3.8 8-8.9 14.1-15.6 18.2s-14 6.1-22.1 6.1c-13.2 0-23.7-5.3-31.5-15.8-6.6-8.9-9.9-18.8-9.9-29.9 0-8 2-16 6-24 4-7.9 9.2-13.8 15.7-17.6 6.6-3.7 13.5-5.6 20.8-5.6zm-3 6.2c-3.4 0-6.8 1-10.2 3-3.4 2-6.2 5.5-8.3 10.6-2.1 5-3.2 11.5-3.2 19.4 0 12.8 2.5 23.8 7.6 33 5.1 9.3 11.8 13.9 20 13.9 6.2 0 11.3-2.6 15.3-7.7s6-13.9 6-26.3c0-15.6-3.3-27.8-10-36.8-4.4-6-10.2-9.1-17.2-9.1zM395.3 108.8c6.4-6.4 10.1-10 11.3-11 2.9-2.4 6-4.3 9.3-5.6 3.3-1.3 6.6-2 9.9-2 5.5 0 10.2 1.6 14.2 4.8 4 3.2 6.6 7.8 7.9 13.9 6.6-7.7 12.1-12.7 16.7-15.1 4.5-2.4 9.2-3.6 14-3.6 4.7 0 8.8 1.2 12.4 3.6 3.6 2.4 6.5 6.3 8.6 11.7 1.4 3.7 2.1 9.5 2.1 17.4v37.7c0 5.5.4 9.3 1.2 11.3.6 1.4 1.8 2.6 3.5 3.6s4.5 1.5 8.4 1.5v3.4h-43.3V177h1.8c3.8 0 6.7-.7 8.8-2.2 1.5-1 2.5-2.6 3.2-4.9.3-1.1.4-4.2.4-9.3v-37.7c0-7.1-.9-12.2-2.6-15.1-2.5-4.1-6.5-6.1-12-6.1-3.4 0-6.8.8-10.2 2.5-3.4 1.7-7.5 4.8-12.4 9.4l-.2 1.1.2 4.1v41.8c0 6 .3 9.7 1 11.2s1.9 2.7 3.8 3.7c1.8 1 5 1.5 9.5 1.5v3.4h-44.3V177c4.8 0 8.2-.6 10-1.7s3.1-2.9 3.8-5.2c.3-1.1.5-4.2.5-9.5v-37.7c0-7.1-1.1-12.3-3.2-15.4-2.8-4.1-6.7-6.1-11.8-6.1-3.4 0-6.9.9-10.2 2.8-5.3 2.8-9.4 6-12.3 9.5v47c0 5.7.4 9.5 1.2 11.2.8 1.7 2 3 3.5 3.9 1.6.9 4.7 1.3 9.5 1.3v3.4h-43.4v-3.4c4 0 6.8-.4 8.4-1.3 1.6-.9 2.8-2.2 3.6-4.1.8-1.9 1.2-5.5 1.2-11v-33.5c0-9.6-.3-15.9-.9-18.7-.4-2.1-1.1-3.6-2.1-4.4-1-.8-2.3-1.2-3.9-1.2-1.8 0-3.9.5-6.4 1.4l-1.4-3.4L391 90.2h4.1v18.6zM563.2 167.7c-9 7-14.6 11-16.9 12.1-3.4 1.6-7.1 2.4-11 2.4-6.1 0-11.1-2.1-15-6.2-3.9-4.1-5.9-9.6-5.9-16.4 0-4.3 1-8 2.9-11.1 2.6-4.3 7.2-8.4 13.6-12.3 6.5-3.8 17.2-8.5 32.3-14v-3.4c0-8.7-1.4-14.7-4.2-18s-6.8-4.9-12.1-4.9c-4 0-7.2 1.1-9.6 3.3-2.4 2.2-3.6 4.7-3.6 7.5l.2 5.6c0 2.9-.8 5.2-2.2 6.8-1.5 1.6-3.5 2.4-5.9 2.4-2.4 0-4.3-.8-5.8-2.5s-2.2-3.9-2.2-6.8c0-5.5 2.8-10.5 8.4-15.1 5.6-4.6 13.5-6.9 23.6-6.9 7.8 0 14.2 1.3 19.1 3.9 3.8 2 6.5 5.1 8.3 9.3 1.1 2.7 1.7 8.4 1.7 16.8V150c0 8.4.2 13.5.5 15.4.3 1.9.8 3.1 1.6 3.8.7.6 1.6 1 2.5 1 1 0 1.9-.2 2.7-.7 1.3-.8 3.9-3.2 7.8-7v5.4c-7.1 9.6-14 14.4-20.5 14.4-3.1 0-5.6-1.1-7.5-3.3-1.8-2.3-2.8-6-2.8-11.3zm0-6.2v-33.4c-9.6 3.8-15.9 6.5-18.7 8.1-5 2.8-8.6 5.7-10.8 8.8-2.2 3.1-3.3 6.4-3.3 10 0 4.6 1.4 8.4 4.1 11.4 2.7 3 5.9 4.5 9.5 4.5 4.9.2 11.3-3 19.2-9.4zM648.9 90.1V120h-3.2c-2.4-9.4-5.5-15.8-9.3-19.1-3.8-3.4-8.6-5.1-14.5-5.1-4.5 0-8.1 1.2-10.8 3.5-2.7 2.4-4.1 5-4.1 7.8 0 3.6 1 6.6 3.1 9.2 2 2.6 6 5.4 12.1 8.3l14 6.8c13 6.3 19.4 14.6 19.4 25 0 8-3 14.4-9 19.3s-12.8 7.3-20.2 7.3c-5.4 0-11.5-1-18.4-2.9-2.1-.6-3.8-1-5.2-1-1.5 0-2.6.8-3.4 2.5h-3.2v-31.3h3.2c1.8 8.9 5.2 15.7 10.2 20.2 5 4.5 10.7 6.8 16.9 6.8 4.4 0 8-1.3 10.8-3.9s4.2-5.7 4.2-9.3c0-4.4-1.5-8.1-4.6-11.1-3.1-3-9.3-6.8-18.5-11.4-9.3-4.6-15.3-8.7-18.2-12.4-2.9-3.6-4.3-8.2-4.3-13.8 0-7.2 2.5-13.2 7.4-18.1 4.9-4.8 11.3-7.3 19.2-7.3 3.4 0 7.6.7 12.5 2.2 3.3 1 5.4 1.4 6.5 1.4 1 0 1.8-.2 2.4-.7.6-.4 1.2-1.4 2-3h3zM810.6 167.7c-9 7-14.6 11-16.9 12.1-3.4 1.6-7.1 2.4-11 2.4-6.1 0-11.1-2.1-15-6.2-3.9-4.1-5.9-9.6-5.9-16.4 0-4.3 1-8 2.9-11.1 2.6-4.3 7.2-8.4 13.6-12.3 6.5-3.8 17.2-8.5 32.3-14v-3.4c0-8.7-1.4-14.7-4.2-18s-6.8-4.9-12.1-4.9c-4 0-7.2 1.1-9.6 3.3-2.4 2.2-3.6 4.7-3.6 7.5l.2 5.6c0 2.9-.8 5.2-2.2 6.8-1.5 1.6-3.5 2.4-5.9 2.4-2.4 0-4.3-.8-5.8-2.5s-2.2-3.9-2.2-6.8c0-5.5 2.8-10.5 8.4-15.1 5.6-4.6 13.5-6.9 23.6-6.9 7.8 0 14.2 1.3 19.1 3.9 3.8 2 6.5 5.1 8.3 9.3 1.1 2.7 1.7 8.4 1.7 16.8V150c0 8.4.2 13.5.5 15.4.3 1.9.8 3.1 1.6 3.8.7.6 1.6 1 2.5 1 1 0 1.9-.2 2.7-.7 1.3-.8 3.9-3.2 7.8-7v5.4c-7.1 9.6-14 14.4-20.5 14.4-3.1 0-5.6-1.1-7.5-3.3-1.8-2.3-2.8-6-2.8-11.3zm0-6.2v-33.4c-9.6 3.8-15.9 6.5-18.7 8.1-5 2.8-8.6 5.7-10.8 8.8-2.2 3.1-3.3 6.4-3.3 10 0 4.6 1.4 8.4 4.1 11.4 2.7 3 5.9 4.5 9.5 4.5 4.9.2 11.3-3 19.2-9.4zM915 92.7v53.1c0 10.1.2 16.4.7 18.6.5 2.3 1.2 3.8 2.3 4.7 1.1.9 2.3 1.3 3.7 1.3 2 0 4.2-.5 6.7-1.6l1.3 3.3-26.2 10.9h-4.3v-18.6c-7.5 8.2-13.3 13.3-17.2 15.4-4 2.1-8.1 3.2-12.5 3.2-4.9 0-9.2-1.4-12.8-4.3-3.6-2.8-6.1-6.5-7.5-11-1.4-4.5-2.1-10.8-2.1-18.9v-39.1c0-4.1-.4-7-1.3-8.6-.9-1.6-2.2-2.8-4-3.7-1.8-.9-4.9-1.3-9.5-1.2v-3.5H863v58.7c0 8.2 1.4 13.5 4.3 16.1 2.8 2.6 6.3 3.8 10.3 3.8 2.7 0 5.9-.9 9.3-2.6 3.5-1.7 7.6-5 12.4-9.9v-49.7c0-5-.9-8.3-2.7-10.1-1.8-1.8-5.6-2.7-11.3-2.8v-3.5H915z"/><path d="M949.8 148.4c-5.4-2.6-9.5-6.3-12.3-11s-4.3-9.9-4.3-15.6c0-8.7 3.3-16.1 9.8-22.4 6.5-6.3 14.9-9.4 25.1-9.4 8.4 0 15.6 2 21.7 6.1h18.6c2.7 0 4.3.1 4.8.2.4.2.8.4 1 .8.4.6.6 1.6.6 3.1 0 1.7-.2 2.8-.5 3.4-.2.3-.5.6-1 .8s-2.1.3-4.8.3h-11.4c3.6 4.6 5.4 10.5 5.4 17.6 0 8.2-3.1 15.2-9.4 21-6.3 5.8-14.6 8.7-25.2 8.7-4.3 0-8.8-.6-13.3-1.9-2.8 2.4-4.7 4.5-5.7 6.4-1 1.8-1.5 3.4-1.5 4.6 0 1.1.5 2.1 1.6 3.2 1.1 1 3.1 1.8 6.2 2.2 1.8.3 6.3.5 13.4.7 13.1.3 21.7.8 25.6 1.3 5.9.8 10.7 3 14.2 6.6 3.5 3.6 5.3 8 5.3 13.2 0 7.2-3.4 14-10.1 20.3-10 9.3-22.9 14-39 14-12.3 0-22.7-2.8-31.2-8.3-4.8-3.2-7.2-6.5-7.2-10 0-1.5.3-3.1 1.1-4.6 1.1-2.4 3.3-5.6 6.7-9.9.4-.6 3.7-4 9.8-10.3-3.3-2-5.7-3.7-7-5.3-1.4-1.6-2.1-3.3-2.1-5.3 0-2.2.9-4.8 2.7-7.8 1.6-3 5.8-7.2 12.4-12.7zm-1 32c-3 3.3-5.3 6.3-6.8 9.1s-2.3 5.4-2.3 7.8c0 3.1 1.8 5.7 5.6 8 6.4 4 15.6 5.9 27.7 5.9 11.5 0 20-2 25.4-6.1 5.5-4.1 8.2-8.4 8.2-13 0-3.3-1.6-5.7-4.9-7.1-3.3-1.4-9.9-2.2-19.7-2.5-14.4-.3-25.5-1.1-33.2-2.1zm17.6-85.7c-4.7 0-8.7 1.9-11.9 5.6-3.2 3.8-4.8 9.5-4.8 17.3 0 10.1 2.2 17.9 6.5 23.4 3.3 4.2 7.5 6.3 12.6 6.3 4.8 0 8.8-1.8 12-5.5 3.1-3.6 4.7-9.3 4.7-17.1 0-10.1-2.2-18.1-6.6-23.8-3.2-4.1-7.4-6.2-12.5-6.2z"/><path d="M1040.2 44.3v64.1c7.1-7.8 12.7-12.8 16.8-15 4.1-2.2 8.3-3.3 12.4-3.3 5 0 9.3 1.4 12.8 4.1 3.6 2.7 6.2 7.1 7.9 12.9 1.2 4.1 1.8 11.5 1.8 22.4v31c0 5.6.4 9.3 1.3 11.4.6 1.5 1.7 2.7 3.3 3.6 1.5.9 4.3 1.3 8.4 1.3v3.4h-43.1v-3.4h2c4.1 0 6.9-.6 8.5-1.9 1.6-1.2 2.7-3.1 3.3-5.5.2-1 .3-4 .3-9v-31c0-9.6-.5-15.9-1.5-18.9-1-3-2.6-5.2-4.7-6.7-2.2-1.5-4.8-2.2-7.8-2.2-3.1 0-6.4.8-9.8 2.5-3.4 1.7-7.4 5-12.2 10v46.3c0 6 .3 9.7 1 11.2s1.9 2.7 3.7 3.7c1.8 1 5 1.5 9.4 1.5v3.4h-43v-3.4c3.9 0 7-.6 9.2-1.8 1.3-.6 2.3-1.8 3.1-3.6.8-1.8 1.1-5.4 1.1-10.9V81.2c0-10-.2-16.2-.7-18.5s-1.2-3.9-2.2-4.7c-1-.8-2.3-1.2-4-1.2-1.3 0-3.5.5-6.5 1.5l-1.3-3.3 26.2-10.7h4.3zM1152.4 167.7c-9 7-14.6 11-16.9 12.1-3.4 1.6-7.1 2.4-11 2.4-6.1 0-11.1-2.1-15-6.2-3.9-4.1-5.9-9.6-5.9-16.4 0-4.3 1-8 2.9-11.1 2.6-4.3 7.2-8.4 13.6-12.3 6.5-3.8 17.2-8.5 32.3-14v-3.4c0-8.7-1.4-14.7-4.2-18s-6.8-4.9-12.1-4.9c-4 0-7.2 1.1-9.6 3.3-2.4 2.2-3.6 4.7-3.6 7.5l.2 5.6c0 2.9-.8 5.2-2.2 6.8-1.5 1.6-3.5 2.4-5.9 2.4-2.4 0-4.3-.8-5.8-2.5s-2.2-3.9-2.2-6.8c0-5.5 2.8-10.5 8.4-15.1 5.6-4.6 13.5-6.9 23.6-6.9 7.8 0 14.2 1.3 19.1 3.9 3.8 2 6.5 5.1 8.3 9.3 1.1 2.7 1.7 8.4 1.7 16.8V150c0 8.4.2 13.5.5 15.4.3 1.9.8 3.1 1.6 3.8.7.6 1.6 1 2.5 1 1 0 1.9-.2 2.7-.7 1.3-.8 3.9-3.2 7.8-7v5.4c-7.1 9.6-14 14.4-20.5 14.4-3.1 0-5.6-1.1-7.5-3.3-1.8-2.3-2.8-6-2.8-11.3zm0-6.2v-33.4c-9.6 3.8-15.9 6.5-18.7 8.1-5 2.8-8.6 5.7-10.8 8.8-2.2 3.1-3.3 6.4-3.3 10 0 4.6 1.4 8.4 4.1 11.4 2.7 3 5.9 4.5 9.5 4.5 4.9.2 11.3-3 19.2-9.4z"/><path d="M1205.5 108.7c10.3-12.4 20.1-18.6 29.4-18.6 4.8 0 8.9 1.2 12.3 3.6s6.2 6.3 8.2 11.8c1.4 3.8 2.1 9.7 2.1 17.6v37.4c0 5.6.4 9.3 1.3 11.3.7 1.6 1.8 2.8 3.4 3.7 1.6.9 4.5 1.3 8.7 1.3v3.4h-43.4v-3.4h1.8c4.1 0 6.9-.6 8.6-1.9s2.8-3.1 3.4-5.5c.3-1 .4-4 .4-9v-35.9c0-8-1-13.8-3.1-17.4-2.1-3.6-5.6-5.4-10.5-5.4-7.6 0-15.2 4.1-22.7 12.4v46.2c0 5.9.3 9.6 1.1 11 .9 1.9 2.1 3.2 3.7 4.1 1.6.9 4.7 1.3 9.5 1.3v3.4h-43.4v-3.4h1.9c4.5 0 7.5-1.1 9-3.4 1.6-2.3 2.3-6.6 2.3-13V128c0-10.5-.2-16.9-.7-19.2s-1.2-3.9-2.2-4.7c-1-.8-2.3-1.2-4-1.2-1.8 0-3.9.5-6.4 1.4l-1.4-3.4 26.4-10.7h4.1v18.5z"/></g><g fill="#c5c7c8"><path d="M123.6 201.1c0 3.1-1.9 5.1-5.8 6.1-.4.1-.7.2-.7.3 0 .1.3.1.8.2 2.3.2 4.1 1 5.3 2.4 1 1.2 1.5 2.6 1.5 4.2 0 2.9-1.3 5-3.9 6.5-1.5.8-3.6 1.2-6.2 1.2h-8c.2-3.4.4-7.3.4-11.6 0-5.9-.1-11-.4-15.4.7.1 2.1.1 4.2.1 3.2 0 5.4.1 6.6.2 1.6.2 2.8.6 3.7 1.1 1.6 1.2 2.5 2.7 2.5 4.7zm-4.1.5c0-1.6-.6-2.9-1.9-3.8-1.1-.8-2.5-1.1-4.2-1.1-.8 0-1.7.1-2.7.2-.1 1.6-.1 3.2-.1 5 0 1.1 0 2.8.1 5 2.1.1 3.6 0 4.6-.2 1.3-.3 2.4-.9 3.1-1.8.8-.9 1.1-2 1.1-3.3zm1 12.8c0-3.9-2.5-5.8-7.5-5.8-.5 0-1.2 0-2.3.1-.1 2.5-.1 4.5-.1 5.9 0 1.9 0 3.8.1 5.6.9.1 1.6.1 2 .1 2.4 0 4.1-.2 4.9-.7 2-1.1 2.9-2.8 2.9-5.2zM146.5 211.8h-9.9c-.7 1.6-1.2 3-1.6 3.9-.8 2.1-1.4 4.1-2 6.3-.9-.2-1.5-.2-1.6-.2-.1 0-.7.1-1.7.2 5.9-12.9 9.9-22 12-27.3.6.1.9.1 1 .1.3 0 .5 0 .9-.1 1.2 3.4 3.6 9 6.9 16.7 2.7 6.2 4.3 9.8 4.8 10.6-.9-.2-1.7-.2-2.3-.2-.7 0-1.5.1-2.5.2-.9-2.8-2.2-6.2-4-10.2zm-.8-2l-4.2-9.6-4.1 9.6h8.3zM167.5 206.8c0-2.8 0-6-.1-9.6-4.2.1-7.1.2-8.7.5.1-.6.2-1 .2-1.4 0-.4-.1-.8-.2-1.4 1.6.2 5.1.2 10.5.2 5.3 0 8.8-.1 10.5-.2-.1.5-.2.9-.2 1.4 0 .3.1.8.2 1.4-1.7-.3-4.5-.5-8.3-.5-.1 3.6-.1 6.3-.1 8.1 0 8.7.1 14.2.3 16.7-1.1-.2-1.9-.2-2.5-.2-.7 0-1.3.1-2 .2.2-3.9.4-9 .4-15.2zM190.6 208.8V222c-.8-.2-1.5-.2-2.1-.2-.6 0-1.3.1-2.2.2l.2-2.9c.2-4.2.4-8 .4-11.3 0-1.9-.1-6.2-.4-12.8.6.2 1.4.2 2.2.2.8 0 1.6-.1 2.2-.2-.3 3.7-.4 7.5-.3 11.3 3.4.1 6 .2 7.8.2 2.4 0 4.8 0 7.2-.1.1-3.4 0-7.2-.2-11.4.6.2 1.4.2 2.2.2.8 0 1.6-.1 2.2-.2-.3 5.3-.4 11.5-.4 18.7 0 2.4.1 5.2.2 8.3-1-.2-1.7-.2-2-.2-.5 0-1.2.1-2.2.2.2-3.5.3-5.9.3-7.4v-5.9c-1.7-.1-4.2-.1-7.5-.1-3.2.1-5.7.1-7.6.2zM239.1 221.6v.5c-1.1-.2-1.9-.2-2.3-.2-.4 0-1.4.1-2.8.2-3-4.7-6.2-9.1-9.6-13.1h-1c0 5.1.1 9.4.3 13.1-.6-.2-1.4-.2-2.3-.2-.6 0-1.3.1-2.1.2.2-4.3.3-9.3.3-14.9 0-2.2-.1-6.2-.2-12.1 1 .1 2.1.2 3.4.2h4.5c2.2 0 3.8.1 5 .4.9.2 1.7.6 2.4 1.2 1.3 1.1 2 2.6 2 4.7 0 2.4-1 4.2-2.9 5.4-1.1.7-2.7 1.2-4.7 1.6.6.9 2.4 3.3 5.4 7.1 1.5 1.9 3.1 3.9 4.6 5.9zm-6.4-19.6c0-3.4-2.2-5.1-6.7-5.1-.8 0-1.6.1-2.5.2-.1 1.2-.1 2.9-.1 5.3v5.3c.6.1 1.3.1 2.1 0 4.8-.2 7.2-2.1 7.2-5.7zM260 194.7c4.2 0 7.7 1.2 10.4 3.5 2.9 2.5 4.3 5.8 4.3 10.1 0 4.2-1.4 7.6-4.1 10.2-2.8 2.8-6.4 4.1-11 4.1-4.3 0-7.8-1.2-10.6-3.7s-4.1-5.9-4.1-10.1c0-4.2 1.3-7.6 4-10.2 2.7-2.6 6.4-3.9 11.1-3.9zm-10.6 14c0 3.7 1 6.7 2.9 8.9s4.4 3.3 7.4 3.3c3.1 0 5.7-1.1 7.6-3.3 1.9-2.2 2.9-5.3 2.9-9.2 0-3.1-.6-5.6-1.7-7.5-1-1.6-2.3-2.8-4.1-3.6-1.5-.6-3-1-4.6-1-2.9 0-5.3.9-7.1 2.8-2.2 2.4-3.3 5.5-3.3 9.6zM297.4 194.7c4.2 0 7.7 1.2 10.4 3.5 2.9 2.5 4.3 5.8 4.3 10.1 0 4.2-1.4 7.6-4.1 10.2-2.8 2.8-6.4 4.1-11 4.1-4.3 0-7.8-1.2-10.6-3.7-2.7-2.5-4.1-5.9-4.1-10.1 0-4.2 1.3-7.6 4-10.2 2.7-2.6 6.4-3.9 11.1-3.9zm-10.6 14c0 3.7 1 6.7 2.9 8.9s4.4 3.3 7.4 3.3c3.1 0 5.7-1.1 7.6-3.3s2.9-5.3 2.9-9.2c0-3.1-.6-5.6-1.7-7.5-1-1.6-2.3-2.8-4.1-3.6-1.5-.6-3-1-4.6-1-2.9 0-5.3.9-7.1 2.8-2.2 2.4-3.3 5.5-3.3 9.6zM347.3 222.1c0-3.3-.6-10-1.7-20-2.9 5.3-5.6 10.4-8.1 15.4-.7 1.4-1.4 3-2 4.6h-1c-.4-.9-1-2.2-1.8-3.9-3.7-7.1-6.5-12.3-8.4-15.7-.4 2.8-.8 6.3-1.2 10.7-.3 4.1-.5 7-.4 9-.6-.2-1.1-.2-1.5-.2-.5 0-1.1.1-1.9.2.3-1.4.9-5 1.8-11.1 1.1-7 1.8-12.3 2.2-16.1h1.5c.6 1.4 2.3 4.7 5.1 10 2.9 5.5 5 9.1 6.2 11l9.3-17.3c.6-1.2 1.2-2.5 1.8-3.7h1.4c1.4 12.8 2.5 21.5 3.2 26.1 0 .2.1.5.2 1.1-1-.2-1.8-.2-2.2-.2-.8-.2-1.6-.1-2.5.1zM374 200h-.5c-.8-2.4-2.6-3.6-5.4-3.6-1.8 0-3.2.6-4.1 1.7-.6.8-.9 1.7-.9 2.8 0 1.4.5 2.5 1.5 3.3.6.5 1.6 1.1 3 1.6 2.3.9 3.7 1.5 4.3 1.7.8.3 1.5.8 2.1 1.3 1.5 1.2 2.2 2.9 2.2 5 0 2.3-.8 4.2-2.3 5.9-1.8 1.9-4.3 2.8-7.5 2.8-2.8 0-5.2-.7-7.1-2.1.4-1.3.6-2.5.7-3.7h.5c1.3 2.7 3.5 4.1 6.5 4.1 1.9 0 3.4-.6 4.4-1.7.9-.9 1.4-2.1 1.4-3.5s-.5-2.6-1.4-3.5c-.6-.6-1.8-1.3-3.4-1.9-3.3-1.4-5.3-2.4-6.1-3-1.3-1.1-2-2.7-2-4.8 0-2.4.9-4.3 2.6-5.7 1.6-1.3 3.6-1.9 6-1.9 2.6 0 4.8.6 6.6 1.8-.7 1.2-1 2.4-1.1 3.4zM399.4 208.9c0-5.4-.1-10-.4-13.8.9.2 1.7.2 2.4.2.6 0 1.3-.1 2-.2-.1.7-.2 2.3-.3 5-.1 1-.1 3.5 0 7.6 1.6-1.3 2.8-2.3 3.6-3 1.2-1.1 2.9-2.9 5.1-5.2 1.8-2 3.1-3.4 3.7-4.3.7.2 1.4.2 2 .2.4 0 1-.1 1.8-.2l.1.2c-.7.5-2.8 2.4-6.4 5.8-4.1 4-6.2 5.9-6.2 6l10.6 12c.8.8 1.4 1.5 2 2.1v.9c-.7-.2-1.5-.2-2.5-.2s-1.9.1-2.8.2c-.9-1.6-2.7-3.9-5.4-7.1-2-2.3-3.8-4.4-5.5-6.2l-.1.2v2.4c0 4.3.1 7.9.3 10.7-.8-.2-1.6-.2-2.2-.2-.5 0-1.3.1-2.3.2.3-5.6.5-10 .5-13.3zM426.9 208.2c0-4-.1-8.3-.3-13.1.6.2 1.3.2 2.1.2.9 0 1.6-.1 2.3-.2-.2 4.1-.3 8.8-.3 13.9 0 4.2.1 8.5.3 13.1-1-.2-1.8-.2-2.4-.2-.5 0-1.2.1-2.1.2.2-4.1.4-8.7.4-13.9zM447 206.8c0-2.8 0-6-.1-9.6-4.2.1-7.1.2-8.7.5.1-.6.2-1 .2-1.4 0-.4-.1-.8-.2-1.4 1.6.2 5.1.2 10.5.2 5.3 0 8.8-.1 10.5-.2-.1.5-.2.9-.2 1.4 0 .3.1.8.2 1.4-1.7-.3-4.5-.5-8.3-.5-.1 3.6-.1 6.3-.1 8.1 0 8.7.1 14.2.3 16.7-1.1-.2-1.9-.2-2.5-.2-.7 0-1.3.1-2 .2.3-3.9.4-9 .4-15.2zM488.5 216.6l.5.2c-.2 1.1-.4 2.1-.4 3.2-2.8 1.7-6.1 2.5-9.7 2.5-4.4 0-7.9-1.3-10.5-4-2.5-2.5-3.8-5.9-3.8-10 0-4 1.2-7.2 3.6-9.7 2.7-2.7 6.4-4.1 11.3-4.1 3.3 0 6.5.7 9.6 2.1-.5 1.3-.8 2.6-.9 3.9h-.4c-.5-1.2-1.6-2.2-3.1-3-1.6-.9-3.4-1.3-5.3-1.3-3.1 0-5.6 1.1-7.5 3.2-1.9 2.2-2.8 5.1-2.8 8.8 0 3.8 1.1 6.9 3.2 9.1 2 2 4.4 3 7.4 3 3.6.2 6.5-1.2 8.8-3.9zM501 208.8V222c-.8-.2-1.5-.2-2.1-.2-.6 0-1.3.1-2.2.2l.2-2.9c.2-4.2.4-8 .4-11.3 0-1.9-.1-6.2-.4-12.8.6.2 1.4.2 2.2.2s1.6-.1 2.2-.2c-.3 3.7-.4 7.5-.3 11.3 3.4.1 6 .2 7.8.2 2.4 0 4.8 0 7.2-.1.1-3.4 0-7.2-.2-11.4.6.2 1.4.2 2.2.2s1.6-.1 2.2-.2c-.3 5.3-.4 11.5-.4 18.7 0 2.4.1 5.2.2 8.3-1-.2-1.7-.2-2-.2-.5 0-1.2.1-2.2.2.2-3.5.3-5.9.3-7.4v-5.9c-1.7-.1-4.2-.1-7.5-.1-3.1.1-5.6.1-7.6.2zM533.7 206.8c4.1.1 7.2 0 9.2-.3-.1.6-.2 1-.2 1.3 0 .2 0 .4.1.6.1.3.1.5.1.6-1.9-.3-3.9-.4-6-.4-.8 0-1.9 0-3.1.1-.1 2.2-.1 3.9-.1 5.1 0 1.9 0 3.9.1 6 3.8 0 7.2-.2 10.2-.5-.1.6-.2 1-.2 1.3 0 .3.1.7.2 1.2-1.2-.2-3-.2-5.4-.2-2 0-5 .1-9 .2.3-3.6.4-8.2.4-14 0-5.3-.1-9.6-.3-13 1.8.2 4.5.2 8.2.2 2.4 0 4.3-.1 5.9-.2-.1.6-.2 1-.2 1.4 0 .3.1.7.2 1.2-1.8-.3-3.9-.5-6.2-.5-1.4 0-2.7 0-3.8.1-.1 1-.1 2.5-.1 4.5-.1 2.3-.1 4 0 5.3zM556.3 201.9v2.5c0 4.6.2 10.5.6 17.7-.6-.2-1.2-.2-1.6-.2-.4 0-.9.1-1.5.2.3-3.4.5-7.6.5-12.7 0-.5 0-2.2-.1-5s-.1-4.4-.1-4.8v-4.7h1.4l1.3 1.5c.8 1 2.3 2.5 4.4 4.8 2.9 3 7.4 7.8 13.6 14.2V214c0-8.9-.2-15.3-.5-19 .6.2 1.1.2 1.5.2s1-.1 1.7-.2c-.4 3.7-.7 9.4-.7 16.9 0 5.1.1 8.6.2 10.5H575.7c-.8-.9-2.2-2.6-4.3-4.9-2.4-2.6-4.2-4.5-5.5-5.6-.7-.7-1.4-1.3-2-1.9l-7.6-8.1zM600.7 200h-.5c-.8-2.4-2.6-3.6-5.4-3.6-1.8 0-3.2.6-4.1 1.7-.6.8-.9 1.7-.9 2.8 0 1.4.5 2.5 1.5 3.3.6.5 1.6 1.1 3 1.6 2.3.9 3.7 1.5 4.3 1.7.8.3 1.5.8 2.1 1.3 1.5 1.2 2.2 2.9 2.2 5 0 2.3-.8 4.2-2.3 5.9-1.8 1.9-4.3 2.8-7.5 2.8-2.8 0-5.2-.7-7.1-2.1.4-1.3.6-2.5.7-3.7h.5c1.3 2.7 3.5 4.1 6.5 4.1 1.9 0 3.4-.6 4.4-1.7.9-.9 1.4-2.1 1.4-3.5s-.5-2.6-1.4-3.5c-.6-.6-1.8-1.3-3.4-1.9-3.3-1.4-5.3-2.4-6.1-3-1.3-1.1-2-2.7-2-4.8 0-2.4.9-4.3 2.6-5.7 1.6-1.3 3.6-1.9 6-1.9 2.6 0 4.8.6 6.6 1.8-.6 1.2-1 2.4-1.1 3.4zM646 207.2l.3-.1c.6.9 1.3 1.5 1.9 1.9-1.4 2.8-3 5.1-4.8 7.1.9 1.1 2.6 2.8 5.1 5.3v.5c-.5-.2-1.3-.2-2.3-.2-1.1 0-1.9.1-2.5.2-1-1.2-1.9-2.3-2.8-3.2-2.5 2.5-5.3 3.7-8.4 3.7-2.4 0-4.3-.7-5.7-2-1.3-1.2-2-2.9-2-4.9 0-1.7.5-3.2 1.5-4.4 1-1.2 2.7-2.4 5.1-3.6-1.7-2.2-2.5-4.1-2.5-5.9 0-1.6.4-2.9 1.3-4.1 1.1-1.4 2.7-2.1 4.8-2.1 1.8 0 3.1.5 4.1 1.4.8.8 1.2 1.8 1.2 3.2 0 1.4-.5 2.6-1.4 3.7-.6.6-1.8 1.7-3.7 3 1.7 2.1 4.1 4.9 7 8.2.7-.6 1.5-1.7 2.2-3.2 1-1.5 1.5-3 1.6-4.5zm-17.6 7.1c0 1.8.7 3.3 2 4.5 1.2 1 2.5 1.6 4 1.6 1.7 0 3.6-.9 5.6-2.6-2.9-2.9-5.5-6-7.8-9.1-2.5 1.4-3.8 3.3-3.8 5.6zm3.6-13.9c0 1.3.9 3.1 2.7 5.4 2.4-1.5 3.6-3.4 3.6-5.7 0-.9-.2-1.6-.7-2.2-.6-.6-1.3-1-2.3-1-1 0-1.7.3-2.3 1-.7.6-1 1.4-1 2.5zM690.2 201.1c0 3.1-1.9 5.1-5.8 6.1-.4.1-.7.2-.7.3 0 .1.3.1.8.2 2.3.2 4.1 1 5.3 2.4 1 1.2 1.5 2.6 1.5 4.2 0 2.9-1.3 5-3.9 6.5-1.5.8-3.6 1.2-6.2 1.2h-8c.2-3.4.4-7.3.4-11.6 0-5.9-.1-11-.4-15.4.7.1 2.1.1 4.2.1 3.3 0 5.4.1 6.6.2 1.6.2 2.8.6 3.7 1.1 1.6 1.2 2.5 2.7 2.5 4.7zm-4.1.5c0-1.6-.6-2.9-1.9-3.8-1.1-.8-2.5-1.1-4.2-1.1-.8 0-1.7.1-2.7.2-.1 1.6-.1 3.2-.1 5 0 1.1 0 2.8.1 5 2.1.1 3.6 0 4.6-.2 1.3-.3 2.4-.9 3.1-1.8.8-.9 1.1-2 1.1-3.3zm1 12.8c0-3.9-2.5-5.8-7.5-5.8-.5 0-1.2 0-2.3.1-.1 2.5-.1 4.5-.1 5.9 0 1.9 0 3.8.1 5.6.9.1 1.6.1 2 .1 2.4 0 4.1-.2 4.9-.7 2-1.1 2.9-2.8 2.9-5.2zM703.6 206.8c4.1.1 7.2 0 9.2-.3-.1.6-.2 1-.2 1.3 0 .2 0 .4.1.6.1.3.1.5.1.6-1.9-.3-3.9-.4-6-.4-.8 0-1.9 0-3.1.1-.1 2.2-.1 3.9-.1 5.1 0 1.9 0 3.9.1 6 3.8 0 7.2-.2 10.2-.5-.1.6-.2 1-.2 1.3 0 .3.1.7.2 1.2-1.2-.2-3-.2-5.4-.2-2 0-5 .1-9 .2.3-3.6.4-8.2.4-14 0-5.3-.1-9.6-.3-13 1.8.2 4.5.2 8.2.2 2.4 0 4.3-.1 5.9-.2-.1.6-.2 1-.2 1.4 0 .3.1.7.2 1.2-1.8-.3-3.9-.5-6.2-.5-1.4 0-2.7 0-3.8.1-.1 1-.1 2.5-.1 4.5v5.3zM748.7 207.8c0 4.7-1.5 8.3-4.5 10.8-2.7 2.3-6.1 3.4-10.3 3.4-.1 0-1 0-2.9-.1-1.8-.1-2.9-.1-3.3-.1-.8 0-2.2.1-4.2.2.3-4.5.5-9.7.5-15.6 0-3.9-.1-7.7-.3-11.5 2.2.1 4.3.1 6.4.1 4.1 0 6.9.1 8.4.4 2.3.4 4.3 1.2 5.9 2.5 2.9 2.4 4.3 5.6 4.3 9.9zm-4.3.5c0-4.2-1.3-7.3-3.9-9.3-1.2-.9-2.7-1.5-4.4-1.8-1-.2-2.6-.3-4.7-.3-1.2 0-2.3.1-3.4.2-.1 3-.2 6.7-.2 11.2 0 5.3 0 9.2.1 11.8 1.3.2 2.7.2 4.2.2 3.6 0 6.3-.6 8.1-1.9 2.7-2.1 4.2-5.4 4.2-10.1zM776.8 221.6v.5c-1.1-.2-1.9-.2-2.3-.2-.4 0-1.4.1-2.8.2-3-4.7-6.2-9.1-9.6-13.1h-1c0 5.1.1 9.4.3 13.1-.7-.2-1.4-.2-2.3-.2-.6 0-1.3.1-2.1.2.2-4.3.3-9.3.3-14.9 0-2.2-.1-6.2-.2-12.1 1 .1 2.1.2 3.4.2h4.5c2.2 0 3.8.1 5 .4.9.2 1.7.6 2.4 1.2 1.3 1.1 2 2.6 2 4.7 0 2.4-1 4.2-2.9 5.4-1.1.7-2.7 1.2-4.7 1.6.6.9 2.4 3.3 5.4 7.1 1.4 1.9 3 3.9 4.6 5.9zm-6.5-19.6c0-3.4-2.2-5.1-6.7-5.1-.8 0-1.6.1-2.5.2-.1 1.2-.1 2.9-.1 5.3v5.3c.6.1 1.3.1 2.1 0 4.8-.2 7.2-2.1 7.2-5.7zM797.6 194.7c4.2 0 7.7 1.2 10.4 3.5 2.9 2.5 4.3 5.8 4.3 10.1 0 4.2-1.4 7.6-4.1 10.2-2.8 2.8-6.4 4.1-11 4.1-4.3 0-7.8-1.2-10.6-3.7-2.7-2.5-4.1-5.9-4.1-10.1 0-4.2 1.3-7.6 4-10.2 2.7-2.6 6.4-3.9 11.1-3.9zm-10.6 14c0 3.7 1 6.7 2.9 8.9s4.4 3.3 7.4 3.3c3.1 0 5.7-1.1 7.6-3.3s2.9-5.3 2.9-9.2c0-3.1-.6-5.6-1.7-7.5-1-1.6-2.3-2.8-4.1-3.6-1.5-.6-3-1-4.6-1-2.9 0-5.3.9-7.1 2.8-2.2 2.4-3.3 5.5-3.3 9.6zM835 194.7c4.2 0 7.7 1.2 10.4 3.5 2.9 2.5 4.3 5.8 4.3 10.1 0 4.2-1.4 7.6-4.1 10.2-2.8 2.8-6.4 4.1-11 4.1-4.3 0-7.8-1.2-10.6-3.7-2.7-2.5-4.1-5.9-4.1-10.1 0-4.2 1.3-7.6 4-10.2 2.7-2.6 6.4-3.9 11.1-3.9zm-10.6 14c0 3.7 1 6.7 2.9 8.9s4.4 3.3 7.4 3.3c3.1 0 5.7-1.1 7.6-3.3s2.9-5.3 2.9-9.2c0-3.1-.6-5.6-1.7-7.5-1-1.6-2.3-2.8-4.1-3.6-1.5-.6-3-1-4.6-1-2.9 0-5.3.9-7.1 2.8-2.2 2.4-3.3 5.5-3.3 9.6zM884.9 222.1c0-3.3-.6-10-1.7-20-2.9 5.3-5.6 10.4-8.1 15.4-.7 1.4-1.4 3-2 4.6h-1c-.4-.9-1-2.2-1.8-3.9-3.7-7.1-6.5-12.3-8.4-15.7-.4 2.8-.8 6.3-1.2 10.7-.3 4.1-.5 7-.4 9-.6-.2-1.1-.2-1.5-.2-.5 0-1.1.1-1.9.2.3-1.4.9-5 1.8-11.1 1.1-7 1.8-12.3 2.2-16.1h1.5c.6 1.4 2.3 4.7 5.1 10 2.9 5.5 5 9.1 6.2 11l9.3-17.3c.6-1.2 1.2-2.5 1.8-3.7h1.4c1.4 12.8 2.5 21.5 3.2 26.1 0 .2.1.5.2 1.1-1-.2-1.8-.2-2.2-.2-.8-.2-1.6-.1-2.5.1zM911.6 200h-.6c-.8-2.4-2.6-3.6-5.4-3.6-1.8 0-3.2.6-4.1 1.7-.6.8-.9 1.7-.9 2.8 0 1.4.5 2.5 1.5 3.3.6.5 1.6 1.1 3 1.6 2.3.9 3.7 1.5 4.3 1.7.8.3 1.5.8 2.1 1.3 1.5 1.2 2.2 2.9 2.2 5 0 2.3-.8 4.2-2.3 5.9-1.8 1.9-4.3 2.8-7.5 2.8-2.8 0-5.2-.7-7.1-2.1.4-1.3.6-2.5.7-3.7h.5c1.3 2.7 3.5 4.1 6.5 4.1 1.9 0 3.4-.6 4.4-1.7.9-.9 1.4-2.1 1.4-3.5s-.5-2.6-1.4-3.5c-.6-.6-1.8-1.3-3.4-1.9-3.3-1.4-5.3-2.4-6.1-3-1.3-1.1-2-2.7-2-4.8 0-2.4.9-4.3 2.6-5.7 1.6-1.3 3.6-1.9 6-1.9 2.6 0 4.8.6 6.6 1.8-.5 1.2-.9 2.4-1 3.4z"/></g><path d="M195.3 36.7c-4.4-.7-10.9-2.1-19.7-4-20.6-4.5-36.4-6.7-47.3-6.7-1.1 0-4.5.2-10.2.5 3.8 7.1 5.7 15.1 5.7 24.2h49.9c7.1-6 14.3-10.6 21.6-14zM141.3 58.7v27.8c7.6-10.7 15.3-19.9 23.1-27.5-1.5-.2-3.1-.3-4.8-.3h-18.3zM282 21c-4.6-1.6-10.4-2.4-17.3-2.4-17.3 0-34.2 3.6-50.5 10.9 2 .3 7.4 1.3 16.2 2.9 13 2.5 24.5 3.8 34.5 3.8 6.6 0 12.2-.9 16.9-2.7 4.7-1.8 7.1-4 7.1-6.5 0-2.4-2.3-4.4-6.9-6zM94.4 60.1c-3.3 1.2-6.2 3.5-8.5 7-2.4 3.4-3.8 8.1-4.2 14H78l1.5-30.4h39.2c.2-1.9.2-3.8.2-5.7 0-6.5-1.5-12.5-4.5-18-18.2 3-35.1 12.4-50.7 28.1-15.6 15.7-23.5 31.2-23.5 46.4 0 5.8 1.8 10.7 5.4 14.7 3.6 4 8 6 13.3 6 13.7 0 27.1-8.5 40.2-25.3 9.7-12.5 15.8-25.2 18.3-38.1H107c-5.7-.1-10 .4-12.6 1.3z" fill="none"/><path d="M122.9 141.2v16.6c0 7.3-.7 11.9-2.1 14-2.3 3.3-6.2 5-11.7 5h-4.6v3.5h55v-3.5H155c-5 0-8.8-1.3-11.2-4-1.7-2-2.6-7-2.6-14.9v-48.8c-8 15.5-14 26-17.9 31.6-.1.2-.2.3-.4.5zM141.3 86.6V58.7h18.3c1.7 0 3.3.1 4.8.3 3.1-3 6.2-5.8 9.3-8.4h-49.9v.3c0 3.6-.3 7.2-.9 10.8v53.5c2.2-3.5 4.5-7.1 6.8-11 3.9-6.3 7.7-12.2 11.6-17.6zM79.6 50.6L78 81h3.6c.4-5.9 1.8-10.5 4.2-14 2.4-3.4 5.2-5.8 8.5-7 2.6-.9 6.9-1.3 12.9-1.3h10.4c.5-2.7.9-5.4 1.1-8.1H79.6zM170.8 60.2c-.1.1-.2.2-.2.3.7.3 1.3.6 2 .9 3.3 1.8 5.9 4.5 7.9 8.2 1.2 2.3 2.2 6.1 2.9 11.5h3.6l-1.4-30.4h-5.9c-3.1 2.8-6 6-8.9 9.5z" fill="#cec045"/><path d="M98.4 149.5c-17.3 19.6-36.8 29.4-58.5 29.4-9.9 0-18.2-2.3-25-6.8-6.8-4.5-10.1-10.1-10.1-16.7 0-4 .7-6 2.1-6 .6 0 1 1 1 2.9 0 3.7 1.9 5.6 5.7 5.6 2.3 0 4.3-.9 6-2.8 1.6-1.9 2.4-4.1 2.4-6.7 0-5.5-2.6-8.3-7.9-8.3-3.2 0-6 1.4-8.4 4.3-2.4 2.8-3.5 6.2-3.5 10.2 0 7.9 3.7 14.3 11.1 19.2 7.4 4.9 17 7.4 28.6 7.4 21.9 0 43-7.5 63.3-22.6 7.5-5.7 13.4-11.5 17.7-17.5V115c-9.7 15.5-17.9 27-24.5 34.5zM264.2 16.2c-17.3 0-35.3 4.1-54 12.3-22.5-4.6-36.6-7.4-42.3-8.3-5.4-.8-11.4-1.2-18-1.2-12.7 0-24 1.4-33.8 4.3-7-9.5-17.3-14.2-30.9-14.2-17.4 0-34.1 8-50.1 23.9-6.6 6.7-10 10.7-10 12.1.2.5.5.7 1 .7.4 0 1.2-.8 2.3-2.3 7.7-10 16.6-17.9 26.8-23.7C65.5 13.9 75.5 11 85.5 11c11.8 0 20.9 4.3 27.3 13-13.3 3.3-25.5 9.2-36.7 17.6C65 50 56 59.8 49 71s-10.5 21.5-10.5 30.7c0 6.7 2 12.2 6 16.5 4 4.3 9.2 6.4 15.6 6.4 15.4 0 29.9-7.8 43.4-23.5 10.8-12.5 17.3-25.6 19.4-39.5v-2.9h-5.2c-2.5 12.9-8.6 25.6-18.3 38.1-13.1 16.9-26.5 25.3-40.2 25.3-5.3 0-9.7-2-13.3-6-3.6-4-5.4-8.9-5.4-14.7 0-15.2 7.8-30.7 23.5-46.4 15.6-15.7 32.5-25.1 50.7-28.1 3 5.5 4.5 11.5 4.5 18 0 1.9-.1 3.8-.2 5.7h5c0-9-1.9-17.1-5.7-24.2 5.7-.3 9.1-.5 10.2-.5 10.9 0 26.7 2.2 47.3 6.7 8.8 1.9 15.3 3.3 19.7 4-7.3 3.4-14.5 8.1-21.6 13.9h5.9c5.8-5.6 12-10 18.5-13.5 18.9 3.5 34.7 5.2 47.4 5.2 12.6 0 23.3-1.5 32.1-4.6 8.8-3 13.1-6.7 13.1-11.1-.1-6.8-8.9-10.3-26.7-10.3zm17.6 17.2c-4.7 1.8-10.3 2.7-16.9 2.7-10.1 0-21.6-1.3-34.5-3.8-8.8-1.6-14.1-2.6-16.2-2.9 16.3-7.3 33.1-10.9 50.5-10.9 7 0 12.7.8 17.3 2.4 4.6 1.6 6.9 3.6 6.9 6 0 2.5-2.4 4.7-7.1 6.5z" fill="#c5c7c8"/><path d="M141.3 86.6v22.5c.9-1.8 1.9-3.7 2.9-5.7 9.4-18.5 18.2-32.8 26.4-42.9-1.8-.7-3.9-1.2-6.2-1.5-7.8 7.7-15.5 16.9-23.1 27.6zM129.7 104.1c-2.4 3.9-4.6 7.5-6.8 11v26.1c.1-.2.3-.4.4-.6 4-5.5 9.9-16.1 17.9-31.6V86.6c-3.8 5.4-7.6 11.3-11.5 17.5zM123.8 50.6h-5c-.2 2.7-.6 5.4-1.1 8.1h5.2v2.9c.6-3.5.9-7.1.9-10.8v-.2z" fill="#c5c7c8"/><path d="M164.4 59c2.3.3 4.4.8 6.2 1.5.1-.1.2-.2.2-.3 2.8-3.5 5.8-6.7 8.8-9.6h-5.9c-3.1 2.6-6.2 5.4-9.3 8.4z" fill="#cec045"/><g><path d="M686.2 62.6c-.7-.8-1.4-1.5-2.2-2.1-.2.7-.4 1.5-.4 2.4 0 3.2 1.5 8.2 4.4 14.9l2.1 4.7c.3-2 .4-4 .4-6 0-5.8-1.5-10.5-4.3-13.9z" fill="none"/><path d="M684.8 19.2c-8.8 0-18.8 3-30.3 9-11.4 6-21.8 13.8-31.2 23.3-10.2 10.5-18.4 22.1-24.5 35-6.1 12.8-9.2 24.9-9.2 36 0 10.1 2.7 18 8.1 23.8 5.4 5.8 12.8 8.8 22 8.8 18 0 35.5-11.5 52.5-34.5 3.4-4.6 6.3-9.1 8.8-13.4l-12.9-29.7c-1.4.7-2.9 1.1-4.5 1.1-5 0-7.5-2.6-7.5-7.8 0-3.7 1.4-7 4.2-9.8-1.6-2-3.6-3.5-5.9-4.6-2.3-1.1-5.5-1.8-9.4-2.2v-3.5h53v3.5c-6 .6-9.9 1.6-11.7 3.1-.5.4-.9.8-1.2 1.2.9.7 1.8 1.5 2.6 2.5 3.3 3.9 5 8.9 5 15.1 0 3.3-.4 6.7-1 10.1l13.6 31.4c8.5-22.6 12.8-41.6 12.8-57.2 0-27.5-11.1-41.2-33.3-41.2zM672.5 184.9c-.8 1-1.2 1.5-1.2 1.7l.2.4c1.4 0 6.4-3.8 15.2-11.3 5.5-4.7 11.2-10.1 17-16.2l-4-9.2c-7.6 10.7-16.6 22.3-27.2 34.6zM721 153.9l7-17.1c-3.4 3.7-6.7 7.2-9.8 10.6l2.8 6.5z" fill="none"/><path d="M703.7 159.5c1.3-1.3 2.6-2.7 3.9-4.1 2.1-2.3 5.2-5.8 9.5-10.5l-5.5-12.7c-3.4 5.8-7.4 11.8-11.8 18.1l3.9 9.2zM683.6 62.8c0-.9.1-1.7.4-2.4-2.6-2-5.7-3-9.4-3-2.8 0-5.5.6-8.2 1.9-2.7 1.3-4.1 2.5-4.1 3.8 0 .5.3.7.9.7h1c2.3-.3 3.5-.5 3.8-.5 3.6 0 5.5 2 5.5 6 0 2.5-1 4.7-2.9 6.5-.7.7-1.5 1.2-2.3 1.7l12.9 29.7c5-8.8 8-17 9-24.7l-2.1-4.7c-3-6.8-4.5-11.8-4.5-15zM721 153.9l-2.8-6.5c-4.8 5.1-9.3 9.8-13.6 14l9.6 22h3.5l26.5-64.7c-5.7 6.4-11.1 12.5-16.2 18.1l-7 17.1zM762.9 72.9c2.6-6.4 5.6-11.2 9-14.4 2.4-2.1 5.8-3.6 10.4-4.4v-3.5h-40v3.5c.8.1 1.3.2 1.6.3 4.4.7 7.5 1.9 9.4 3.6 1.8 1.7 2.8 3.5 2.8 5.3 0 2.9-1.5 8-4.5 15.4L731.1 129c4.8-5.4 10.3-11.7 16.4-18.6l15.4-37.5z" fill="#cec045"/><path d="M674.6 55.1c4.1 0 7.6 1.1 10.5 3.3.3-.4.7-.8 1.2-1.2 1.8-1.5 5.7-2.5 11.7-3.1v-3.5h-53v3.5c4 .3 7.1 1 9.4 2.2 2.3 1.1 4.3 2.7 5.9 4.6.4-.4.8-.8 1.3-1.2 3.6-3 7.9-4.6 13-4.6zM705.2 117.5l-13.6-31.4c-1.5 7.6-4.6 15.5-9.4 23.7l13.4 30.7c2.5-5.3 4.9-10.8 7.2-16.5.8-2.1 1.6-4.3 2.4-6.5z" fill="#cec045"/><path d="M660.3 61c-2.8 2.9-4.2 6.1-4.2 9.8 0 5.2 2.5 7.8 7.5 7.8 1.6 0 3.1-.4 4.5-1.1l-2.6-6c-2.5-5.7-4.2-9.2-5.2-10.5zM910.8 2.3c-19.2 0-41.4 7.2-66.6 21.6-15.5 8.8-29.5 18.6-41.9 29.4C789.8 64 775.4 78.7 759 97.4c-4 4.6-7.8 8.9-11.4 12.9l-3.4 8.2c25.2-28.6 42.4-47.4 51.6-56.3 9.5-9.1 21-18 34.7-26.9 28.4-18.2 53-27.4 73.9-27.4 2.8 0 6.5.2 10.9.7h2.1c2.3 0 3.4-1 3.4-2.9 0-2.2-3.4-3.4-10-3.4zM686.7 175.6c-8.8 7.5-13.8 11.3-15.2 11.3l-.2-.4c0-.2.4-.7 1.2-1.7 10.6-12.3 19.7-23.9 27.3-34.6l-4.2-9.7c-8.7 18.6-18.6 35.1-29.7 49.5-1.8 2.4-2.7 3.7-2.7 3.8 0 .4.2.7.7.7.8 0 5.2-2.9 13.1-8.8 7.4-5.4 16.6-13.5 27.6-24.5l-.8-1.9c-5.9 6.3-11.6 11.7-17.1 16.3zM728 136.7l3.1-7.7c-5.6 6.3-10.2 11.6-14.1 15.8l1.1 2.5c3.2-3.3 6.5-6.9 9.9-10.6zM687.7 60.9c-.8-.9-1.7-1.8-2.6-2.5-.5.6-.9 1.3-1.1 2 .8.6 1.5 1.3 2.2 2.1 2.9 3.4 4.3 8.1 4.3 13.9 0 2-.2 4-.4 6l1.6 3.6c.7-3.4 1-6.8 1-10.1 0-6.1-1.7-11.2-5-15z" fill="#c5c7c8"/><path d="M672.2 120.6c-17 23-34.5 34.5-52.5 34.5-9.2 0-16.6-2.9-22-8.8-5.4-5.8-8.1-13.8-8.1-23.8 0-11.2 3.1-23.2 9.2-36s14.3-24.5 24.5-35c9.4-9.6 19.8-17.3 31.2-23.3 11.4-6 21.5-9 30.3-9 22.2 0 33.3 13.7 33.3 41.1 0 15.5-4.3 34.6-12.8 57.2l6.3 14.6c2.2-3.7 4.2-7.3 6-10.8 9.3-18.2 14-35.6 14-52.2 0-15.5-4.3-28-12.7-37.5-8.5-9.5-19.6-14.3-33.3-14.3-23 0-45.9 11-68.5 33s-33.9 44.3-33.9 66.8c0 11.8 3.4 21.5 10.2 28.9 6.8 7.5 15.5 11.2 26.2 11.2 17 0 33.5-9.6 49.6-28.9 5.2-6.3 9.6-12.5 13.1-18.5l-1.1-2.6c-2.6 4.3-5.5 8.8-9 13.4zM731.1 129l-3.1 7.7c5.1-5.6 10.5-11.6 16.2-18.1l3.4-8.2c-6.2 6.9-11.6 13.1-16.5 18.6z" fill="#c5c7c8"/><path d="M711.6 132.1l-6.3-14.6c-.8 2.2-1.7 4.3-2.5 6.5-2.3 5.7-4.7 11.2-7.2 16.5l4.2 9.7c4.4-6.2 8.3-12.3 11.8-18.1zM673.3 69.3c0-4-1.8-6-5.5-6-.2 0-1.5.2-3.8.5h-1c-.6 0-.9-.2-.9-.7 0-1.3 1.4-2.6 4.1-3.8 2.7-1.3 5.5-1.9 8.2-1.9 3.7 0 6.8 1 9.4 3 .2-.7.6-1.4 1.1-2-2.9-2.2-6.4-3.3-10.5-3.3-5 0-9.4 1.6-13 4.7-.5.4-.9.8-1.3 1.2 1 1.3 2.8 4.8 5.2 10.5l2.6 6c.8-.4 1.6-1 2.3-1.7 2.2-1.8 3.1-4 3.1-6.5z" fill="#c5c7c8"/><path d="M718.2 147.3l-1.1-2.5c-4.2 4.8-7.4 8.3-9.5 10.5-1.3 1.4-2.6 2.8-3.9 4.1l.8 1.9c4.3-4.2 8.9-8.9 13.7-14zM690 82.5c-1 7.7-4.1 15.9-9 24.7l1.1 2.6c4.8-8.2 7.9-16.1 9.4-23.7l-1.5-3.6z" fill="#cec045"/></g></symbol></svg>